<svg width="617" height="207" viewBox="0 0 617 207" fill="none" xmlns="http://www.w3.org/2000/svg">
<path fill-rule="evenodd" clip-rule="evenodd" d="M155 0C162.994 0.3 163.345 1.246 167 4.999C166.658 44.541 133.707 58.627 124 89.999C115.661 116.949 138.88 134.16 162 128C176.955 117.5 171.38 102.828 160.999 93C164.935 87.753 169.43 85.672 175 81.999C181.365 83.168 184.688 85.816 186.999 90.999C202.469 118.442 136.11 161.543 113 131.999C81.431 91.642 155.275 54.561 149 13.999C147 13.333 144.999 12.666 143 11.999C145.111 5.193 150.279 3.96 155 0ZM478 15C478.333 17.666 478.666 20.333 478.999 22.999C474.333 26.332 469.666 29.667 465 33C461.977 31.74 463.803 33.18 461.999 30.999C455.204 12.204 487.684 0.307 503.999 4.999C506.919 9.22 508.596 10.678 509 18C502.179 38.302 490.56 50.72 480 66C480 66.333 480 66.666 480 67C486.315 67.606 488.961 68.578 491 72.999C492.333 110.662 493.666 148.337 494.999 186C483.142 192.701 475.838 204.78 459.999 206.999C461.666 204.666 463.333 202.333 465 199.999C480.262 192.758 480.864 96.907 470.999 79.999C468.666 80.333 466.333 80.666 463.999 80.999C463.999 80.666 463.999 80.333 463.999 79.999C473.941 62.963 490.431 49.52 491.999 24C490.666 21.666 489.333 19.333 487.999 17C484.667 16.333 481.332 15.666 478 15ZM263 5.999C266.666 6.666 270.333 7.333 274 8C278.742 14.203 281.564 17.444 281 27C278.162 33.33 263.266 48.172 256 42C258.999 39 262 35.999 265 33C264.333 30.333 263.666 27.666 263 25C260.666 24 258.333 22.999 256 21.999C237.7 29.453 229.508 53.293 221 70.999C223.999 76.332 227 81.667 230 86.999C243.69 76.629 254.599 60.515 278 69C305.704 118.818 217.504 142.52 230.999 180.999C233.666 183.999 236.333 187 239 189.999C252.28 190.34 254.543 184.165 261.999 179C262.666 179.333 263.333 179.666 263.999 179.999C263.666 180.999 263.333 182 263 182.999C251.298 196.4 233.895 210.9 215 196C208.935 175.29 224.979 159.404 234 146.999C232.361 128.832 211.969 81.205 195 83C197.467 71.22 207.592 68.378 217.999 67C225.397 41.264 241.123 17.941 263 5.999ZM43 10C43.999 10 45 10 46 10C49.333 13.333 52.667 16.666 56 19.999C56 20.999 56 22 56 22.999C52.667 25.999 49.333 29 46 32C45 32 43.999 32 43 32C40 28.667 36.999 25.332 34 21.999C34 21 34 19.999 34 19C36.999 16 40 12.999 43 10ZM30 33C35.916 34.719 39.819 39.578 43 44C39.667 47.666 36.333 51.333 33 54.999C31.666 54.999 30.333 54.999 29 54.999C26 51.666 22.999 48.333 20 44.999C22.128 39.83 25.909 36.787 30 33ZM57 33C63.459 34.452 66.754 38.466 70 43C70 43.999 70 45 70 45.999C65.422 49.614 63.968 53.541 57 54.999C53.667 51.333 50.333 47.666 47 44C50.333 40.333 53.667 36.666 57 33ZM37.999 63.999C40.999 64.666 44 65.333 47 66C55.632 78.693 84.294 127.212 100 124.999C97.731 133.83 88.719 139.361 79 139.999C65.256 132.43 59.977 114.459 50 103C49.333 103.333 48.666 103.666 48 103.999C42.344 121.707 24.383 144.215 1 137.999C0.298 133.656 0.301 130.337 2 127C4.666 125.333 7.333 123.666 10 121.999C17.461 123.134 16.989 125.964 25 127C29.413 120.55 45.755 98.379 42 92C37.967 83.45 32.24 83.68 23 78.999C26.769 71.481 31.236 68.479 37.999 63.999ZM309 67C310.999 67.333 313 67.666 314.999 68C321.576 71.82 323.752 78.773 324 87.999C349.557 67.791 363.207 56.643 390 84C404.894 72.26 436.63 55.453 448.999 81.999C462.983 110.695 429.775 144.89 404.999 138.999C402.666 136.333 400.333 133.666 397.999 130.999C397.999 130.666 397.999 130.333 397.999 129.999C402.803 124.913 406.708 120.757 414.999 119C417.887 125.208 421.217 127.487 428 127C447.923 90.585 405.206 60.651 391.999 90.999C383.387 113.813 377.256 145.23 344.999 138.999C342.666 136.666 340.333 134.333 338 131.999C338 131 338 129.999 338 129C342.666 125.666 347.333 122.333 351.999 119C352.999 119 354 119 355 119C356.999 121.666 359 124.333 360.999 127C365.513 126.784 366.39 126.292 368.999 124.999C384.222 80.702 350.893 66.695 324.999 96.999C324.824 126.529 322.508 161.829 327 188C316.961 194.515 308.884 204.801 294.999 206.999C297.888 199.473 305.59 197.822 307 188.999C310.781 171.808 309.589 89.67 303 81.999C300.398 79.209 297.814 80.754 294 80.999C294 80 294 78.999 294 78C298.6 72.773 303.377 70.705 309 67ZM524.999 67C527.333 67.333 529.666 67.666 531.999 68C539.943 71.791 539.576 79.785 542 88.999C544.333 86.666 546.666 84.333 548.999 81.999C566.179 74.129 598.436 54.358 612.999 80.999C628.872 110.34 590.438 145.103 563.999 137.999C562.333 135.666 560.666 133.333 558.999 130.999C559.747 126.545 560.249 126.795 561.999 123.999C565.999 122 570 119.999 573.999 118C578.34 122.238 580.382 124.579 585.999 128C610.571 118.463 596.328 82.123 574.999 78.999C562.108 77.112 544.892 89.628 542 97.999C542 107.999 542 118.1 542 128C537.338 134.947 523.32 140.811 513 141.999C515.504 135.698 522.89 135.194 524 129C529.471 111.262 523.56 89.42 516.999 79.999C514.666 79.999 512.333 79.999 509.999 79.999C509.999 79.666 509.999 79.333 509.999 78.999C514.999 75 520 70.999 524.999 67ZM250 78C243.11 82.442 238.677 85.373 234 92C238.666 104.998 243.333 118.1 248 130.999C249.333 130 250.666 128.999 252 128C258.175 116.46 280.827 90.207 257 78.999C254.666 78.666 252.333 78.333 250 78Z" fill="black"/>
</svg>
