<svg width="417" height="136" viewBox="0 0 417 136" fill="none" xmlns="http://www.w3.org/2000/svg">
<path d="M31.6 14.3C31.91 14.05 32.25 13.93 32.62 13.93C32.99 13.93 33.32 14.06 33.64 14.33C33.96 14.6 34.74 15.35 36 16.61C37.26 17.9 38.35 19.01 39.27 19.93C40.06 20.72 40.46 21.35 40.46 21.82C40.46 22.05 40.39 22.3 40.26 22.56C40.13 22.82 39.88 23.15 39.52 23.55C39.16 23.95 38.78 24.33 38.4 24.69C38.02 25.06 37.44 25.61 36.67 26.35C35.89 27.09 35.17 27.8 34.51 28.46C33.72 29.25 33.07 29.65 32.58 29.65C32.35 29.65 32.1 29.59 31.84 29.45C31.57 29.32 31.25 29.07 30.85 28.71C30.45 28.35 30.07 27.97 29.71 27.59C29.35 27.21 28.79 26.63 28.05 25.85C27.31 25.07 26.6 24.36 25.94 23.69C25.11 22.87 24.7 22.24 24.7 21.81C24.7 21.35 25.11 20.72 25.94 19.92C26.77 19.1 27.76 18.1 28.91 16.95C30.4 15.43 31.3 14.55 31.61 14.3H31.6ZM39.83 0.37C40.14 0.12 40.48 0 40.85 0C41.22 0 41.54 0.11 41.82 0.35C42.1 0.58 43 1.46 44.52 2.98L47.49 5.95C47.56 6.02 47.65 6.11 47.76 6.22C47.87 6.34 47.96 6.42 48.01 6.47C48.06 6.52 48.13 6.59 48.23 6.69C48.33 6.79 48.4 6.86 48.43 6.91C48.46 6.96 48.5 7.03 48.55 7.11C48.6 7.19 48.63 7.27 48.65 7.33C48.67 7.4 48.68 7.47 48.7 7.55C48.72 7.63 48.73 7.72 48.73 7.82C48.73 8.19 48.56 8.56 48.23 8.96C47.9 9.36 46.97 10.32 45.45 11.84C44.36 12.9 43.45 13.79 42.72 14.52C41.93 15.31 41.3 15.71 40.84 15.71C40.61 15.71 40.36 15.64 40.1 15.51C39.83 15.38 39.51 15.13 39.11 14.77C38.71 14.41 38.33 14.04 37.97 13.65C37.61 13.27 37.05 12.69 36.31 11.92C35.57 11.14 34.86 10.42 34.2 9.76C33.37 8.93 32.96 8.29 32.96 7.83C32.96 7.37 33.37 6.74 34.2 5.95C35.03 5.12 36.02 4.13 37.17 2.98C38.62 1.49 39.51 0.62 39.82 0.38L39.83 0.37ZM48.11 14.28C48.39 14.05 48.71 13.93 49.08 13.93C49.45 13.93 49.77 14.05 50.07 14.28C50.37 14.51 51.28 15.4 52.8 16.96C53.96 18.12 54.95 19.11 55.77 19.93C56.56 20.72 56.96 21.35 56.96 21.82C56.96 22.05 56.89 22.3 56.76 22.56C56.63 22.82 56.38 23.15 56.02 23.55C55.66 23.95 55.28 24.33 54.9 24.69C54.52 25.06 53.94 25.61 53.16 26.35C52.38 27.09 51.66 27.8 51 28.46C50.6 28.86 50.35 29.11 50.23 29.23C50.11 29.35 49.96 29.45 49.76 29.53C49.56 29.61 49.33 29.65 49.07 29.65C48.71 29.65 48.35 29.5 48 29.2C47.65 28.9 46.55 27.83 44.7 25.98C43.77 25.05 43.01 24.29 42.42 23.7C41.59 22.88 41.18 22.25 41.18 21.82C41.18 21.36 41.59 20.73 42.42 19.93C43.38 18.97 44.48 17.87 45.74 16.61C47.03 15.29 47.81 14.51 48.09 14.28H48.11Z" fill="black"/>
<path d="M88.19 82.3C87.56 82.27 86.98 82.2 86.46 82.09C85.94 81.99 85.4 81.78 84.86 81.46C84.32 81.15 83.85 80.86 83.47 80.59C83.08 80.33 82.59 79.85 81.97 79.15C81.36 78.45 80.86 77.85 80.47 77.34C80.08 76.83 79.5 75.99 78.71 74.82C77.92 73.65 77.27 72.65 76.74 71.83C76.22 71.01 75.4 69.74 74.3 68.02C73.2 66.31 72.24 64.84 71.44 63.61C67.38 57.35 63.25 50.96 59.06 44.46C56.82 40.96 55.53 38.97 55.18 38.48C54.83 37.99 54.57 37.75 54.39 37.75C52.47 37.75 47.99 41.58 40.96 49.24L37.71 43.78C36.48 41.68 35.34 40.15 34.27 39.19C33.2 38.23 31.94 37.75 30.47 37.75C29 37.75 27.28 38.55 25.41 40.14C23.54 41.73 22.01 43.43 20.82 45.23C19.63 47.03 19.04 48.34 19.04 49.14C19.04 49.28 19.07 49.4 19.12 49.48C19.17 49.57 19.25 49.62 19.36 49.64C19.46 49.66 19.58 49.66 19.7 49.64C19.82 49.62 19.99 49.61 20.2 49.59C20.41 49.57 20.6 49.56 20.78 49.56C23.16 49.6 25.33 50.61 27.29 52.61C28.27 53.66 29.55 55.55 31.12 58.28C30.91 58.73 30.49 59.64 29.86 60.98C29.23 62.33 28.82 63.22 28.63 63.66C28.44 64.1 28.06 64.9 27.5 66.07C26.94 67.24 26.52 68.1 26.24 68.64C25.96 69.18 25.55 69.99 25.01 71.05C24.47 72.12 23.99 73.04 23.57 73.81C23.15 74.58 22.63 75.51 22.02 76.59C21.41 77.67 20.78 78.76 20.13 79.84C19.48 80.92 18.79 82.08 18.06 83.3C17.96 83.3 17.82 83.3 17.64 83.33C17.46 83.35 17.34 83.36 17.27 83.36C16.29 83.36 15.45 83.2 14.75 82.89C14.05 82.58 13.54 82.22 13.23 81.81C12.92 81.41 12.63 81.05 12.36 80.73C12.1 80.41 11.86 80.26 11.65 80.26C10.11 80.26 7.78 81.41 4.67 83.7C1.56 85.99 0 87.66 0 88.71C0 88.81 0.09 89.02 0.26 89.31C0.44 89.61 0.71 89.95 1.1 90.33C1.49 90.71 1.93 91.09 2.44 91.46C2.95 91.83 3.6 92.13 4.41 92.38C5.21 92.63 6.05 92.75 6.93 92.75C8.85 92.75 10.91 92.25 13.1 91.25C15.29 90.25 17.27 89.02 19.06 87.55C20.84 86.08 22.37 84.7 23.65 83.41C24.93 82.12 25.91 80.98 26.61 80C27.52 78.74 28.94 76.41 30.89 73C32.83 69.59 34.29 66.96 35.27 65.1C46.95 83.68 53.06 92.97 53.58 92.97C54.03 92.97 54.66 92.71 55.47 92.18C56.27 91.66 57.28 90.84 58.49 89.74C59.7 88.64 60.66 87.74 61.38 87.04C62.1 86.34 63.16 85.27 64.58 83.84C66 82.41 66.74 81.65 66.81 81.58C67.23 82.24 67.72 83.04 68.28 83.97C68.84 84.9 69.28 85.61 69.59 86.09C69.9 86.58 70.28 87.17 70.72 87.85C71.16 88.53 71.52 89.06 71.8 89.42C72.08 89.79 72.4 90.2 72.77 90.65C73.14 91.1 73.46 91.44 73.74 91.65C74.02 91.86 74.33 92.07 74.68 92.28C75.03 92.49 75.38 92.64 75.73 92.73C76.08 92.82 76.45 92.86 76.83 92.86C78.05 92.86 79.78 92.14 82 90.71C84.22 89.28 86.18 87.71 87.88 86.01C89.58 84.31 90.42 83.08 90.42 82.31C90.42 81.72 89.69 81.72 88.22 82.31L88.19 82.3ZM62.53 81.09C62.25 80.88 62.08 80.78 62.01 80.78C61.91 80.78 60.95 79.49 59.15 76.92C57.35 74.35 54.89 70.74 51.78 66.08C48.67 61.43 45.67 56.81 42.81 52.23L45.59 49.45C45.73 49.59 46.24 49.94 47.11 50.5L64.95 78.63L62.54 81.1L62.53 81.09Z" fill="black"/>
<path d="M140.25 57.77C139.31 57.02 138.42 56.44 137.6 56.04C136.78 55.64 136.16 55.44 135.74 55.44C134.41 55.44 132.17 56.57 129.02 58.83C125.87 61.09 124.3 62.74 124.3 63.79C124.3 64.1 124.47 64.31 124.82 64.42C126.88 65.05 128.5 66.24 129.67 67.99C130.84 69.74 131.43 71.73 131.43 73.97C131.43 77.43 130.14 80.62 127.55 83.52C127.1 84.01 126.08 84.45 124.51 84.83C122.94 85.22 121.33 85.41 119.68 85.41C114.85 85.41 110.61 83.58 106.95 79.93C103.29 76.28 101.47 71.72 101.47 66.26C101.47 63.78 101.99 61.13 103.02 58.34C104.05 55.54 105.41 52.81 107.09 50.15C108.77 47.49 110.61 44.77 112.63 41.99C114.64 39.21 116.64 36.41 118.64 33.59C120.63 30.77 122.47 28.02 124.15 25.33C125.83 22.64 127.18 19.84 128.22 16.96C129.25 14.07 129.77 11.35 129.77 8.79999C129.77 7.04999 129.22 5.70999 128.12 4.78999C127.02 3.85999 125.79 3.39999 124.42 3.39999C122.88 3.39999 120.55 4.55999 117.44 6.86999C114.33 9.17999 112.77 10.84 112.77 11.85C112.77 11.99 113.01 12.14 113.5 12.3C113.99 12.46 114.53 12.62 115.13 12.8C115.72 12.97 116.27 13.41 116.76 14.11C117.25 14.81 117.49 15.74 117.49 16.89C117.49 19.27 116.97 21.83 115.92 24.58C114.87 27.33 113.51 30.02 111.85 32.66C110.19 35.3 108.35 38.01 106.34 40.79C104.33 43.57 102.32 46.37 100.3 49.19C98.28 52.01 96.45 54.78 94.79 57.51C93.13 60.24 91.77 63.07 90.72 65.99C89.67 68.91 89.15 71.67 89.15 74.26C89.15 79.79 91.06 84.52 94.87 88.45C98.68 92.38 103.35 94.35 108.88 94.35C112.2 94.35 115.9 93.49 119.98 91.78C124.05 90.07 127.84 87.88 131.34 85.22C134.84 82.56 137.78 79.47 140.16 75.93C142.54 72.4 143.73 68.98 143.73 65.7C143.73 63.99 143.39 62.43 142.71 61.03C142.03 59.63 141.21 58.56 140.27 57.8L140.25 57.77Z" fill="black"/>
<path d="M203.27 51.63C202.71 50.46 202.01 49.44 201.17 48.56C200.33 47.69 199.25 46.97 197.92 46.41C196.59 45.85 195.1 45.57 193.46 45.57C186.08 45.57 178.35 49.87 170.27 58.48C170.24 58.41 170.05 58.03 169.72 57.32C169.39 56.62 169.06 55.96 168.72 55.35C168.39 54.74 167.95 53.98 167.41 53.07C166.87 52.16 166.3 51.35 165.7 50.63C165.18 50 164.62 49.39 164.03 48.79C164.36 48.31 164.71 47.75 165.08 47.07C166.37 44.74 167.78 41.9 169.33 38.56C170.88 35.22 172.54 31.88 174.32 28.54C176.09 25.2 178.09 22.36 180.3 20.03C182.51 17.7 184.68 16.53 186.8 16.53C188.3 16.53 189.59 17.14 190.69 18.36C191.79 19.58 192.33 20.95 192.33 22.48C192.33 23.45 192.09 24.32 191.6 25.09C191.57 25.16 190.72 25.74 189.07 26.84C187.42 27.94 186.59 28.76 186.59 29.32C186.59 29.6 186.92 29.74 187.58 29.74C188.62 29.74 190.04 29.43 191.83 28.8C193.62 28.17 195.47 27.3 197.39 26.19C199.3 25.08 200.96 23.59 202.35 21.73C203.74 19.87 204.44 17.88 204.44 15.75C204.44 12.9 203.46 10.39 201.49 8.23C199.52 6.07 197.08 5 194.16 5C192.45 5 190.72 5.42 188.97 6.25C187.21 7.09 185.53 8.26 183.93 9.77C182.33 11.28 180.78 12.95 179.28 14.78C177.78 16.61 176.33 18.66 174.92 20.94C173.51 23.22 172.24 25.38 171.11 27.41C169.98 29.45 168.87 31.59 167.8 33.86C164.83 40.05 162.9 44.48 162.01 47.17C161.87 47.09 161.73 47.02 161.59 46.95C160.8 46.58 160.02 46.4 159.25 46.4C157.92 46.4 156.47 46.88 154.89 47.84C153.32 48.8 151.95 49.91 150.8 51.17C149.65 52.43 148.68 53.64 147.89 54.82C147.1 55.99 146.71 56.82 146.71 57.31C146.71 57.7 146.87 57.89 147.18 57.89C147.35 57.89 147.72 57.79 148.28 57.6C148.84 57.41 149.29 57.31 149.64 57.31C152.19 57.31 154.91 59.8 157.77 64.76C163.05 73.96 167.71 84.96 171.73 97.77C170.92 98.64 169.83 100.01 168.45 101.86C167.07 103.71 165.51 105.95 163.78 108.58C162.05 111.2 160.57 113.97 159.35 116.87C158.12 119.77 157.51 122.26 157.51 124.32C157.51 126.63 158.63 128.77 160.87 130.75C163.11 132.73 165.52 133.71 168.11 133.71C170.28 133.71 172.54 133.26 174.91 132.35C177.27 131.44 179.4 130.3 181.29 128.94C183.18 127.58 184.91 126.15 186.49 124.66C188.06 123.17 189.28 121.82 190.14 120.59C191 119.36 191.43 118.47 191.43 117.91C191.43 117.56 191.25 117.39 190.91 117.39C189.97 117.39 188.5 118.26 186.5 120.01C186.05 120.43 185.4 121.03 184.56 121.82C183.72 122.61 183.12 123.15 182.75 123.45C182.38 123.75 181.82 124.04 181.07 124.34C180.32 124.64 179.49 124.79 178.58 124.79C176.72 124.79 174.79 123.9 172.78 122.14C170.77 120.37 169.76 118.46 169.76 116.4C169.76 113.39 170.98 109.8 173.43 105.62C175.88 101.44 178.7 97.39 181.88 93.47C182.93 92.18 184.63 90.25 187 87.7C189.36 85.15 191.44 82.83 193.24 80.75C195.04 78.67 196.9 76.32 198.8 73.72C200.71 71.11 202.19 68.51 203.26 65.9C204.33 63.29 204.86 60.82 204.86 58.48C204.86 57.36 204.74 56.23 204.49 55.09C204.25 53.95 203.84 52.8 203.28 51.63H203.27ZM189.76 76.06C187.85 79.24 185.12 82.87 181.55 86.92C179.24 79.23 176.02 70.88 171.89 61.89C174.27 59.02 176.23 57.07 177.77 56.04C179.31 55.01 181.2 54.49 183.44 54.49C186.13 54.49 188.34 55.74 190.05 58.24C191.76 60.74 192.62 63.52 192.62 66.56C192.62 69.6 191.67 72.88 189.76 76.06Z" fill="black"/>
<path d="M307.33 52.2C305.97 50.5 304.17 49.11 301.95 48.03C299.73 46.95 297.31 46.4 294.68 46.4C287.86 46.4 280.3 49.97 272.01 57.11C268.55 50.01 263.18 46.46 255.9 46.46C251.84 46.46 247.56 47.61 243.07 49.92C238.57 52.23 234.26 55.45 230.13 59.58C229.19 50.8 226.65 46.41 222.52 46.41C221.29 46.41 219.86 46.81 218.22 47.62C216.57 48.42 215.09 49.36 213.76 50.43C212.43 51.5 211.3 52.56 210.37 53.63C209.44 54.7 208.98 55.48 208.98 55.97C208.98 56.28 209.14 56.44 209.45 56.44C209.66 56.44 210.09 56.34 210.74 56.13C211.39 55.92 211.83 55.82 212.08 55.82C212.74 55.82 213.4 56.08 214.05 56.61C214.7 57.13 215.34 57.98 215.97 59.15C216.6 60.32 217.11 62.06 217.49 64.37C217.87 66.68 218.07 69.41 218.07 72.56C218.07 74.03 218.07 76.08 218.04 78.72C218.02 81.36 218.01 84.2 217.99 87.25C217.97 90.29 217.95 93.48 217.94 96.8C217.92 100.12 217.9 103.32 217.86 106.38C217.83 109.44 217.8 112.19 217.78 114.64C217.76 117.09 217.73 119.07 217.7 120.57V122.77C217.42 125.67 216.23 128.31 214.13 130.69L212.98 131.63C212.17 132.26 211.41 132.94 210.67 133.68C209.94 134.41 209.57 134.96 209.57 135.31C209.57 135.59 209.83 135.73 210.36 135.73C211.48 135.73 212.97 135.25 214.85 134.29C216.72 133.33 218.43 132.29 219.97 131.17C221.51 130.05 222.98 128.96 224.38 127.89C225.78 126.82 226.53 126.25 226.64 126.18C228.11 125.34 229.38 124.44 230.44 123.48C231.51 122.52 232.04 121.81 232.04 121.35C232.04 121.25 231.98 121.09 231.86 120.88C231.74 120.67 231.6 120.43 231.44 120.15C231.28 119.87 231.13 119.37 230.99 118.65C230.85 117.93 230.76 117.08 230.73 116.1C230.73 115.79 230.71 112.09 230.68 105C230.65 97.91 230.61 90.2 230.58 81.86C230.55 73.52 230.51 68.07 230.48 65.51C232.05 63.17 233.45 61.33 234.68 60C235.9 58.67 237.5 57.56 239.46 56.67C241.42 55.78 243.66 55.33 246.18 55.33C249.78 55.33 253.13 56.89 256.23 60C259.33 63.11 260.87 66.6 260.87 70.44C260.87 72.75 260.52 75.04 259.82 77.31C259.12 79.58 258.3 81.49 257.35 83.03C257.11 83.41 256.95 83.64 256.88 83.71C256.81 83.78 256.69 83.81 256.51 83.81C255.01 83.81 253.64 83.31 252.42 82.31C251.19 81.31 250.39 80.22 250.01 79.03C249.94 78.75 249.86 78.58 249.77 78.5C249.68 78.43 249.52 78.4 249.27 78.4C248.29 78.4 246.86 78.95 244.97 80.05C243.08 81.15 241.39 82.39 239.91 83.75C238.42 85.12 237.68 86.13 237.68 86.8C237.68 87.74 238.41 88.96 239.86 90.45C241.31 91.94 243.19 92.68 245.5 92.68C247.11 92.68 249.05 92.25 251.32 91.39C253.59 90.53 256 89.21 258.54 87.43C261.08 85.64 263.43 83.57 265.6 81.21C267.77 78.85 269.56 75.99 270.98 72.63C272.4 69.27 273.11 65.76 273.11 62.08V61.03L273.69 60.4C274.07 59.95 274.33 59.67 274.45 59.56C274.57 59.46 274.84 59.19 275.26 58.77C275.68 58.35 276.03 58.05 276.31 57.88C276.59 57.71 276.98 57.44 277.49 57.09C278 56.74 278.49 56.49 278.96 56.33C279.43 56.17 279.97 56 280.56 55.81C281.15 55.62 281.8 55.48 282.5 55.39C283.2 55.3 283.92 55.26 284.65 55.26C286.33 55.26 288.04 55.68 289.79 56.52C291.54 57.36 293.13 58.5 294.57 59.93C296 61.36 297.18 63.14 298.09 65.26C299 67.38 299.45 69.61 299.45 71.95C299.45 75.62 298.37 79.26 296.2 82.87C296.13 82.97 296.05 83.11 295.96 83.29C295.87 83.46 295.81 83.56 295.78 83.58C295.75 83.6 295.69 83.64 295.62 83.71C295.55 83.78 295.46 83.81 295.36 83.81H294.94C293.26 83.81 291.7 83.09 290.27 81.66C289.78 81.17 289.4 80.69 289.14 80.22C288.88 79.75 288.72 79.4 288.67 79.17C288.62 78.94 288.54 78.76 288.43 78.62C288.33 78.48 288.13 78.41 287.85 78.41C286.87 78.41 285.44 78.96 283.55 80.06C281.66 81.16 279.97 82.4 278.49 83.76C277 85.13 276.26 86.14 276.26 86.81C276.26 87.72 276.99 88.93 278.44 90.46C279.89 91.98 281.75 92.74 284.03 92.74C285.5 92.74 287.2 92.4 289.12 91.72C291.04 91.04 293.03 90.09 295.08 88.89C297.13 87.68 299.14 86.18 301.11 84.38C303.09 82.58 304.86 80.63 306.44 78.53C308.01 76.43 309.28 74.07 310.24 71.45C311.2 68.83 311.68 66.17 311.68 63.47C311.68 61.58 311.3 59.66 310.55 57.7C309.8 55.74 308.74 53.91 307.38 52.22L307.33 52.2Z" fill="black"/>
<path d="M411.5 51.29C407.86 48 403.51 46.36 398.43 46.36C396.78 46.36 395 46.56 393.08 46.96C391.16 47.36 388.94 48.04 386.44 49.01C383.94 49.97 381.21 51.44 378.25 53.42C375.29 55.4 372.38 57.77 369.51 60.53C369.33 56.47 368.51 53.1 367.04 50.43C365.57 47.75 363.65 46.41 361.27 46.41C359.73 46.41 357.89 47.06 355.73 48.35C353.58 49.64 351.77 51.04 350.3 52.55C348.83 54.05 348.1 55.14 348.1 55.8C348.1 56.15 348.27 56.32 348.6 56.32C348.93 56.32 349.36 56.23 349.89 56.06C350.41 55.89 350.76 55.8 350.94 55.8C351.5 55.8 352.11 56.03 352.78 56.48C353.44 56.94 354.12 57.62 354.8 58.53C355.48 59.44 356.04 60.78 356.48 62.54C356.92 64.31 357.14 66.34 357.14 68.65C357.14 69.35 357.09 72.13 356.98 76.99C356.87 81.85 356.8 84.46 356.77 84.81C356.63 86.14 356.21 87.31 355.51 88.33C354.81 89.34 354.09 90.09 353.36 90.56C352.63 91.03 351.96 91.51 351.37 92C350.77 92.49 350.48 92.93 350.48 93.31C350.48 93.66 350.81 93.83 351.48 93.83C352.91 93.83 355.08 93.17 357.99 91.84C358.13 91.77 359.06 91.38 360.77 90.66C362.48 89.94 363.83 89.35 364.81 88.88C365.79 88.41 366.87 87.75 368.06 86.91C369.25 86.07 370.02 85.27 370.37 84.5C369.95 82.02 369.71 75.77 369.64 65.77C370.9 64.23 372.02 62.96 373 61.97C373.98 60.97 375.23 59.91 376.75 58.77C378.27 57.63 380 56.78 381.92 56.2C383.84 55.62 385.94 55.33 388.22 55.33C392.45 55.33 396.27 56.9 399.66 60.03C403.05 63.16 404.75 66.62 404.75 70.39C404.75 72.66 404.34 74.98 403.52 77.34C402.7 79.7 401.69 81.69 400.5 83.3C400.26 83.65 399.66 83.82 398.72 83.82C396.73 83.82 394.94 83.09 393.37 81.62C392.81 81.1 392.35 80.56 392.01 80.02C391.66 79.48 391.45 79.07 391.38 78.79C391.31 78.51 391.2 78.27 391.07 78.08C390.93 77.89 390.74 77.79 390.49 77.79C389.05 77.79 386.77 78.93 383.64 81.2C380.51 83.47 378.94 85.12 378.94 86.13C378.94 87.21 379.76 88.59 381.41 90.25C383.05 91.91 385.06 92.74 387.44 92.74C389.4 92.74 391.67 92.24 394.26 91.24C396.85 90.24 399.46 88.79 402.11 86.88C404.75 84.97 407.18 82.81 409.4 80.4C411.62 77.99 413.44 75.21 414.86 72.06C416.28 68.91 416.99 65.75 416.99 62.56C416.99 58.33 415.17 54.57 411.53 51.28L411.5 51.29Z" fill="black"/>
<path d="M350.61 9.53001C350.61 7.77001 350.24 6.26001 349.49 4.98001C348.74 3.71001 347.75 2.75001 346.52 2.11001C345.29 1.47001 344.07 1.01001 342.86 0.720009C341.65 0.440009 340.41 0.290009 339.13 0.290009C336.84 0.290009 334.14 0.880008 331.02 2.07001C327.9 3.25001 324.9 4.77001 322.02 6.62001C319.14 8.47001 316.69 10.68 314.67 13.25C312.65 15.82 311.64 18.34 311.64 20.8C311.64 23.7 312.12 25.15 313.09 25.15C314.28 25.15 316.05 24.46 318.4 23.07C320.75 21.68 322.87 20.13 324.76 18.42C326.65 16.7 327.6 15.43 327.6 14.59C327.6 14.46 327.53 14.12 327.4 13.57C327.27 13.02 327.18 12.2 327.14 11.1C328.85 11.41 330.29 11.92 331.46 12.65C332.62 13.37 333.44 14.21 333.9 15.16C334.36 16.11 334.68 16.92 334.86 17.6C335.03 18.28 335.12 18.95 335.12 19.61C335.12 22.25 333.65 26.82 330.7 33.33C328.94 37.24 327.07 40.91 325.1 44.31C323.12 47.72 321.68 50.21 320.78 51.79C320.45 52.37 320.2 52.9 319.99 53.41C319.02 54.5 318.52 55.34 318.52 55.9C318.52 56.11 318.6 56.25 318.76 56.32C318.92 56.39 319.11 56.4 319.34 56.35C319.42 56.33 319.51 56.31 319.59 56.29C319.69 56.42 319.83 56.48 320.03 56.48C320.45 56.48 320.97 56.25 321.57 55.82C324.68 56 326.24 61.43 326.24 72.12L325.82 121.55C325.51 123.51 324.76 125.39 323.59 127.19C322.42 128.99 321.2 130.29 319.94 131.1C318.68 131.9 317.65 132.69 316.84 133.46C316.03 134.23 315.63 134.82 315.63 135.24C315.63 135.55 315.87 135.71 316.36 135.71C317.72 135.71 319.84 134.9 322.71 133.29C324.67 132.17 326.47 130.98 328.12 129.72C329.76 128.46 331.09 127.38 332.11 126.47C333.12 125.56 333.84 124.98 334.26 124.74C336.01 123.76 337.43 122.77 338.54 121.78C339.64 120.78 340.19 120.06 340.19 119.6C340.19 119.5 340.16 119.41 340.09 119.34C339.43 118.39 339.04 116.96 338.94 115.04C338.84 113.12 338.76 107.03 338.73 96.78C338.73 88.04 338.71 80.5 338.68 74.16V71.96C338.68 69.37 338.66 67.22 338.63 65.5C338.6 63.79 338.52 61.83 338.39 59.62C338.27 57.42 338.07 55.62 337.79 54.24C337.51 52.86 337.13 51.51 336.64 50.2C336.15 48.89 335.5 47.93 334.7 47.31C333.89 46.7 332.95 46.39 331.87 46.39C330.99 46.39 329.99 46.61 328.9 47.04C329.66 46 330.69 44.6 332.01 42.82C334.19 39.88 335.75 37.74 336.69 36.42C337.63 35.1 339.01 33.15 340.81 30.55C342.61 27.96 343.95 25.88 344.83 24.32C345.71 22.76 346.68 20.98 347.73 18.98C348.79 16.98 349.53 15.21 349.97 13.67C350.41 12.13 350.63 10.75 350.63 9.51001L350.61 9.53001Z" fill="black"/>
</svg>
