<svg width="505" height="176" viewBox="0 0 505 176" fill="none" xmlns="http://www.w3.org/2000/svg">
<path d="M32.0298 50.39C32.0298 49.06 35.0898 47.01 41.2198 44.24C47.3498 41.47 51.7498 40.09 54.4398 40.09C54.6498 40.09 55.4698 40.21 56.9198 40.46C58.3698 40.71 60.4098 40.99 63.0598 41.3C65.7098 41.61 68.5198 41.85 71.4798 42.02C76.0198 42.27 87.4198 42.39 105.67 42.39C116.55 42.39 123.76 42.3 127.31 42.11C130.86 41.92 135.21 41.41 140.38 40.58C142.17 40.29 143.07 40.41 143.07 40.95C143.07 42.03 140.69 43.8 135.94 46.26C131.19 48.72 126.89 50.34 123.03 51.13C117.11 52.34 106.5 52.94 91.2198 52.94C84.5398 52.94 76.1798 52.82 66.1198 52.57C56.0598 52.32 50.4198 52.2 49.1798 52.2C46.6298 52.2 43.1398 52.01 38.6998 51.64C34.2598 51.27 32.0398 50.85 32.0398 50.39H32.0298Z" fill="black"/>
<path d="M76.9302 18.02C77.3202 17.71 77.7502 17.55 78.2102 17.55C78.6702 17.55 79.0902 17.72 79.4902 18.05C79.8902 18.38 80.8802 19.34 82.4602 20.92C84.0402 22.54 85.4202 23.94 86.5802 25.1C87.5802 26.1 88.0802 26.89 88.0802 27.47C88.0802 27.76 88.0002 28.07 87.8302 28.41C87.6602 28.75 87.3502 29.16 86.8902 29.66C86.4302 30.16 85.9602 30.64 85.4802 31.1C85.0002 31.56 84.2702 32.26 83.3002 33.19C82.3202 34.13 81.4202 35.01 80.5802 35.85C79.5802 36.85 78.7702 37.35 78.1402 37.35C77.8502 37.35 77.5402 37.27 77.2002 37.1C76.8602 36.93 76.4502 36.62 75.9502 36.16C75.4502 35.7 74.9702 35.23 74.5102 34.76C74.0502 34.29 73.3502 33.55 72.4202 32.57C71.4802 31.59 70.6002 30.69 69.7602 29.85C68.7202 28.81 68.2002 28.02 68.2002 27.48C68.2002 26.9 68.7202 26.11 69.7602 25.11L73.5102 21.36C75.3802 19.44 76.5202 18.33 76.9102 18.02H76.9302ZM87.3002 0.47C87.6902 0.16 88.1202 0 88.5802 0C89.0402 0 89.4402 0.15 89.8002 0.44C90.1502 0.73 91.2902 1.83 93.2002 3.75L96.9502 7.5C97.0302 7.58 97.1502 7.7 97.2902 7.84C97.4302 7.99 97.5402 8.09 97.6002 8.15C97.6602 8.21 97.7602 8.31 97.8802 8.43C98.0002 8.55 98.0902 8.65 98.1302 8.71C98.1702 8.77 98.2202 8.86 98.2902 8.96C98.3502 9.07 98.3902 9.16 98.4102 9.24C98.4302 9.32 98.4502 9.42 98.4702 9.52C98.4902 9.62 98.5002 9.74 98.5002 9.86C98.5002 10.32 98.2902 10.8 97.8802 11.3C97.4702 11.8 96.3002 13.01 94.3802 14.92C93.0102 16.25 91.8602 17.38 90.9502 18.29C89.9502 19.29 89.1602 19.79 88.5802 19.79C88.2902 19.79 87.9802 19.71 87.6402 19.54C87.3002 19.37 86.8902 19.06 86.3902 18.6C85.8902 18.14 85.4102 17.67 84.9502 17.19C84.4902 16.71 83.8002 15.98 82.8602 15.01C81.9302 14.03 81.0402 13.13 80.2102 12.29C79.1702 11.25 78.6502 10.44 78.6502 9.85C78.6502 9.26 79.1702 8.48 80.2102 7.48L83.9602 3.73C85.7902 1.86 86.9002 0.76 87.3002 0.45V0.47ZM97.7302 17.99C98.0802 17.7 98.4902 17.55 98.9502 17.55C99.4102 17.55 99.8202 17.7 100.2 17.99C100.58 18.28 101.72 19.41 103.63 21.36L107.38 25.11C108.38 26.11 108.88 26.9 108.88 27.48C108.88 27.77 108.8 28.08 108.63 28.42C108.46 28.76 108.15 29.17 107.69 29.67C107.23 30.17 106.76 30.65 106.29 31.11C105.81 31.57 105.08 32.27 104.1 33.2C103.12 34.14 102.22 35.02 101.38 35.86L100.41 36.83C100.26 36.98 100.07 37.1 99.8202 37.2C99.5702 37.31 99.2802 37.36 98.9502 37.36C98.4902 37.36 98.0502 37.17 97.6102 36.8C97.1702 36.43 95.7902 35.07 93.4602 32.74L90.5902 29.87C89.5502 28.83 89.0302 28.04 89.0302 27.5C89.0302 26.92 89.5502 26.13 90.5902 25.13L94.7702 20.95C96.3902 19.28 97.3802 18.31 97.7402 18.01L97.7302 17.99Z" fill="black"/>
<path d="M372.46 41.69C372.85 41.38 373.28 41.22 373.74 41.22C374.2 41.22 374.62 41.39 375.02 41.72C375.42 42.05 376.41 43.01 377.99 44.59C379.57 46.21 380.95 47.61 382.11 48.77C383.11 49.77 383.61 50.56 383.61 51.14C383.61 51.43 383.53 51.74 383.36 52.08C383.19 52.42 382.88 52.83 382.42 53.33C381.96 53.83 381.49 54.31 381.01 54.77C380.53 55.23 379.8 55.93 378.83 56.86C377.85 57.8 376.95 58.68 376.11 59.52C375.11 60.52 374.3 61.02 373.67 61.02C373.38 61.02 373.07 60.94 372.73 60.77C372.39 60.6 371.98 60.29 371.48 59.83C370.98 59.37 370.5 58.9 370.04 58.43C369.58 57.96 368.88 57.22 367.95 56.24C367.01 55.26 366.13 54.36 365.29 53.52C364.25 52.48 363.73 51.69 363.73 51.15C363.73 50.57 364.25 49.78 365.29 48.78L369.04 45.03C370.91 43.11 372.05 42 372.44 41.69H372.46ZM382.83 24.14C383.22 23.83 383.65 23.67 384.11 23.67C384.57 23.67 384.97 23.82 385.33 24.11C385.68 24.4 386.82 25.5 388.73 27.42L392.48 31.17C392.56 31.25 392.68 31.37 392.82 31.51C392.96 31.66 393.07 31.76 393.13 31.82C393.19 31.88 393.29 31.98 393.41 32.1C393.53 32.22 393.62 32.32 393.66 32.38C393.7 32.44 393.75 32.53 393.82 32.63C393.88 32.74 393.92 32.83 393.94 32.91C393.96 32.99 393.98 33.09 394 33.19C394.02 33.29 394.03 33.41 394.03 33.53C394.03 33.99 393.82 34.47 393.41 34.97C393 35.47 391.83 36.68 389.91 38.59C388.54 39.92 387.39 41.05 386.48 41.96C385.48 42.96 384.69 43.46 384.11 43.46C383.82 43.46 383.51 43.38 383.17 43.21C382.83 43.04 382.42 42.73 381.92 42.27C381.42 41.81 380.94 41.34 380.48 40.86C380.02 40.38 379.33 39.65 378.39 38.68C377.46 37.7 376.57 36.8 375.74 35.96C374.7 34.92 374.18 34.11 374.18 33.52C374.18 32.93 374.7 32.15 375.74 31.15L379.49 27.4C381.32 25.53 382.43 24.43 382.83 24.12V24.14ZM393.26 41.66C393.61 41.37 394.02 41.22 394.48 41.22C394.94 41.22 395.35 41.37 395.73 41.66C396.11 41.95 397.25 43.08 399.16 45.03L402.91 48.78C403.91 49.78 404.41 50.57 404.41 51.15C404.41 51.44 404.33 51.75 404.16 52.09C403.99 52.43 403.68 52.84 403.22 53.34C402.76 53.84 402.29 54.32 401.82 54.78C401.34 55.24 400.61 55.94 399.63 56.87C398.65 57.81 397.75 58.69 396.91 59.53L395.94 60.5C395.79 60.65 395.6 60.77 395.35 60.87C395.1 60.98 394.81 61.03 394.48 61.03C394.02 61.03 393.58 60.84 393.14 60.47C392.7 60.1 391.32 58.74 388.99 56.41L386.12 53.54C385.08 52.5 384.56 51.71 384.56 51.17C384.56 50.59 385.08 49.8 386.12 48.8L390.3 44.62C391.92 42.95 392.91 41.98 393.27 41.68L393.26 41.66Z" fill="black"/>
<path d="M47.46 60.51C47.83 60.51 48.13 60.61 48.33 60.82V76.75C50.66 74.29 53.34 71.91 56.36 69.6C59.38 67.29 63.01 65.19 67.26 63.29C71.51 61.4 75.46 60.45 79.13 60.45C87.37 60.45 93.6 65.01 97.8 74.13C107.13 65.1 116.01 60.58 124.47 60.58C126.93 60.58 129.26 61.1 131.46 62.14C133.66 63.18 135.54 64.53 137.08 66.2C138.62 67.87 139.95 69.74 141.08 71.82C142.21 73.9 143.04 76 143.58 78.13C144.12 80.26 144.39 82.27 144.39 84.19C144.39 89.31 142.69 94.4 139.3 99.46C135.9 104.52 131.92 108.86 127.34 112.48C129.67 112.48 132.24 112.49 135.05 112.51C137.86 112.53 139.6 112.54 140.26 112.54C142.76 112.54 144.49 112.45 145.44 112.26C146.4 112.07 147.38 111.65 148.38 110.98C151.92 108.65 154.44 107.48 155.94 107.48C156.44 107.48 156.69 107.65 156.69 107.98C156.69 109.69 152.86 112.98 145.2 117.85C138.46 122.1 133.33 124.22 129.84 124.22C125.22 124.22 115.46 123.99 100.58 123.53C85.69 123.07 73.9 122.84 65.2 122.84C61.95 122.84 58.76 122.88 55.61 122.96C52.46 123.04 49.78 123.14 47.55 123.24C45.32 123.35 43.34 123.44 41.59 123.52C39.84 123.6 38.47 123.69 37.47 123.77C36.47 123.85 35.93 123.89 35.85 123.89C35.52 124.01 34.54 124.33 32.91 124.83C31.28 125.33 29.68 125.89 28.1 126.52C26.52 127.15 24.73 127.94 22.73 128.89C21.19 129.64 19.16 131.25 16.64 133.73C14.12 136.21 12.49 137.74 11.74 138.32C9.74 139.82 7.67 141.07 5.53 142.07C3.39 143.07 1.81 143.57 0.81 143.57C0.27 143.57 0 143.4 0 143.07C0 142.65 0.43 141.87 1.28 140.73C2.13 139.59 3.53 138.12 5.46 136.33C7.4 134.54 9.59 132.75 12.05 130.96C12.84 128.55 13.37 124.66 13.64 119.31C13.91 113.96 14.04 106.04 14.04 95.55V93.3C14.04 91.26 13.98 89.28 13.85 87.37C13.72 85.46 13.48 83.23 13.13 80.69C12.77 78.15 12.17 76.11 11.32 74.57C10.47 73.03 9.4 72.26 8.1 72.26C7.89 72.26 7.62 72.3 7.29 72.38C6.96 72.46 6.65 72.55 6.39 72.63C6.12 72.71 5.87 72.78 5.64 72.82C5.41 72.86 5.22 72.84 5.08 72.76C4.94 72.68 4.86 72.51 4.86 72.26C4.86 71.39 5.69 69.97 7.36 68.01C9.03 66.05 11.04 64.23 13.42 62.54C15.79 60.86 17.77 60.01 19.35 60.01C23.01 60.01 25.49 63.11 26.78 69.32C26.99 70.36 27.24 71.9 27.53 73.94C27.57 74.23 27.61 74.44 27.65 74.56C30.52 72.73 33.49 70.57 36.55 68.1C39.61 65.62 41.99 63.74 43.7 62.45C45.41 61.16 46.66 60.51 47.45 60.51H47.46ZM28.23 100.98C28.23 111.51 27.9 118.32 27.23 121.4C27.27 121.4 27.43 121.32 27.7 121.15C27.97 120.98 28.75 120.55 30.04 119.84C31.33 119.13 32.98 118.28 34.97 117.28C34.97 116.41 34.97 112.87 35 106.66C35.02 100.46 35.03 95.23 35.03 90.98C35.03 83.49 35.01 78.09 34.97 74.81L27.91 79.99C28.12 87.69 28.22 94.69 28.22 100.97L28.23 100.98ZM85.06 92.55C85.06 89.26 84.26 85.96 82.65 82.65C81.05 79.34 78.85 76.59 76.06 74.41C73.27 72.23 70.31 71.13 67.19 71.13C65.27 71.13 63.4 71.39 61.57 71.91C59.74 72.43 58.36 73.07 57.45 73.82C54.87 75.98 51.83 80.31 48.33 86.81C48.33 92.1 48.33 97.19 48.36 102.08C48.38 106.97 48.39 109.54 48.39 109.79C48.39 111.91 48.29 113.2 48.08 113.66C52.29 112.91 61.63 112.39 76.12 112.1C78.7 109.56 80.84 106.53 82.52 103.01C84.21 99.49 85.05 96.01 85.05 92.55H85.06ZM112.16 71.13C109.08 71.13 106.76 71.75 105.2 72.97C103.64 74.2 101.73 76.77 99.48 80.68C99.52 81.14 99.54 81.82 99.54 82.74C99.54 85.78 99.02 88.81 97.98 91.83C96.94 94.85 95.54 97.61 93.8 100.1C92.06 102.59 90.29 104.8 88.52 106.72C86.75 108.64 84.89 110.4 82.93 112.03H97.51C100.45 112.03 102.61 112.04 104 112.06C105.39 112.08 106.3 112.1 106.72 112.12C107.14 112.14 108.55 112.18 110.97 112.24C113.38 112.3 116.72 112.36 120.96 112.4C123.33 110.24 125.39 107.47 127.14 104.09C128.89 100.71 129.76 97.32 129.76 93.91C129.76 88.08 127.91 82.83 124.2 78.14C120.49 73.46 116.48 71.12 112.15 71.12L112.16 71.13Z" fill="black"/>
<path d="M222.65 24.13C220.3 21.55 217.37 20.26 213.88 20.26C211.84 20.26 209.77 20.76 207.67 21.76C205.57 22.76 203.56 24.17 201.64 25.97C199.72 27.78 197.87 29.78 196.08 31.97C194.29 34.16 192.55 36.61 190.87 39.34C189.18 42.07 187.66 44.65 186.31 47.08C184.96 49.52 183.64 52.09 182.35 54.79C177.27 65.37 174.73 71.67 174.73 73.71C174.73 73.83 174.75 73.92 174.76 74.02C168.87 78.06 164.48 82.27 161.63 86.67C158.55 91.42 157.01 96.06 157.01 100.6C157.01 105.97 158.83 110.51 162.48 114.21C166.12 117.92 170.28 119.77 174.94 119.77C177.9 119.77 181.15 118.89 184.71 117.11C188.27 115.34 191.17 113.46 193.42 111.46C195.67 109.46 196.79 108.03 196.79 107.15C196.79 106.78 196.54 106.59 196.04 106.59C195.25 106.59 194.06 107.02 192.48 107.87C190.9 108.73 189.32 109.15 187.73 109.15C183.52 109.15 179.79 107.33 176.52 103.69C173.25 100.05 171.62 95.79 171.62 90.92C171.62 86.05 173.35 81.74 176.8 77.62C178.84 76.87 180.98 76.5 183.23 76.5C186.23 76.5 189.16 77.18 192.04 78.53C194.91 79.88 197.48 81.77 199.75 84.18C202.02 86.59 203.85 89.64 205.25 93.33C206.64 97.01 207.34 101.02 207.34 105.35C207.34 117.13 204.53 128.53 198.91 139.54C193.29 150.55 186.4 159.08 178.24 165.11C177.78 165.44 176.52 166.27 174.46 167.58C172.4 168.89 170.76 170.05 169.56 171.05C168.36 172.05 167.75 172.88 167.75 173.55C167.75 173.92 168.06 174.11 168.69 174.11C170.9 174.11 174.6 172.43 179.81 169.08C185.01 165.73 189.57 162.24 193.49 158.62C197.28 155.12 200.71 151.35 203.79 147.32C206.87 143.29 209.38 139.48 211.32 135.92C213.25 132.36 214.93 128.66 216.35 124.83C217.77 121 218.83 117.68 219.53 114.87C220.24 112.06 220.79 109.22 221.19 106.35C221.58 103.48 221.81 101.4 221.88 100.1C221.94 98.81 221.97 97.6 221.97 96.48C221.97 91.98 221.26 87.8 219.85 83.93C218.43 80.06 216.54 76.82 214.17 74.22C211.8 71.62 209.07 69.58 205.99 68.1C202.91 66.62 199.7 65.88 196.37 65.88C190.87 65.88 184.93 67.8 178.54 71.61C178.73 71.3 178.92 70.96 179.12 70.6C180.66 67.81 182.36 64.42 184.21 60.42C186.06 56.42 188.05 52.43 190.18 48.43C192.3 44.43 194.69 41.04 197.33 38.25C199.97 35.46 202.57 34.07 205.11 34.07C206.9 34.07 208.45 34.8 209.76 36.26C211.07 37.72 211.73 39.36 211.73 41.19C211.73 42.36 211.44 43.4 210.86 44.31C210.82 44.39 209.81 45.09 207.83 46.4C205.85 47.71 204.86 48.7 204.86 49.37C204.86 49.7 205.26 49.87 206.05 49.87C207.3 49.87 208.99 49.5 211.14 48.75C213.28 48 215.5 46.96 217.79 45.63C220.08 44.3 222.06 42.52 223.72 40.29C225.38 38.06 226.22 35.68 226.22 33.14C226.22 29.73 225.04 26.73 222.69 24.15L222.65 24.13Z" fill="black"/>
<path d="M417.24 79.15C416.95 77.8 416.47 76.42 415.8 75.03C415.13 73.64 414.3 72.42 413.3 71.38C412.3 70.34 411.01 69.49 409.43 68.82C407.85 68.15 406.08 67.82 404.12 67.82C395.34 67.82 386.13 72.94 376.52 83.18C376.48 83.1 376.26 82.64 375.86 81.81C375.46 80.98 375.07 80.2 374.68 79.47C374.28 78.74 373.76 77.83 373.12 76.75C372.47 75.67 371.8 74.7 371.09 73.85C370.38 73 369.62 72.16 368.81 71.35C368 70.54 367.12 69.91 366.19 69.48C365.25 69.04 364.33 68.82 363.41 68.82C363.19 68.82 362.96 68.86 362.74 68.88C362.74 68.87 362.74 68.86 362.72 68.86C361.97 68.86 349.38 68.84 349.38 68.84C349.38 68.84 347.07 68.87 345.38 68.87C344.1 68.87 342.8 68.68 340.8 68.76C323.85 69.3 307.06 69.57 290.4 69.57C286.23 69.57 282.25 69.55 278.45 69.51C278.89 69.07 279.36 68.55 279.86 67.96C281.92 65.53 284.25 62.53 286.85 58.98C289.45 55.43 292.19 51.9 295.05 48.39C297.92 44.89 300.92 42.03 304.06 39.81C307.2 37.59 310.02 36.73 312.51 37.23C314.27 37.58 315.64 38.6 316.64 40.29C317.64 41.98 317.96 43.72 317.6 45.51C317.37 46.65 316.88 47.62 316.13 48.4C316.07 48.47 314.95 48.96 312.75 49.86C310.55 50.76 309.39 51.53 309.26 52.19C309.19 52.52 309.55 52.76 310.33 52.91C311.55 53.16 313.29 53.12 315.54 52.81C317.79 52.5 320.17 51.91 322.67 51.05C325.17 50.19 327.47 48.84 329.54 46.98C331.61 45.12 332.89 42.95 333.39 40.46C334.06 37.11 333.49 33.94 331.69 30.95C329.89 27.96 327.28 26.12 323.85 25.43C321.85 25.03 319.72 25.11 317.46 25.68C315.2 26.25 312.96 27.23 310.72 28.63C308.49 30.03 306.28 31.63 304.09 33.42C301.91 35.21 299.72 37.28 297.53 39.62C295.34 41.96 293.34 44.2 291.54 46.32C289.73 48.44 287.94 50.71 286.14 53.11C279.76 61.58 276.11 67.03 275.17 69.48C272.72 69.45 270.35 69.41 268.07 69.36C261.34 69.21 256.38 69.06 253.17 68.89C249.96 68.72 248.22 68.58 247.92 68.45C246.5 67.74 245.8 66.47 245.8 64.64C246.26 63.77 246.49 63.18 246.49 62.89C246.49 62.56 246.28 62.39 245.87 62.39C245.16 62.39 244.06 62.82 242.56 63.67C241.06 64.53 239.53 65.58 237.97 66.82C236.41 68.07 235.04 69.52 233.88 71.16C232.71 72.81 232.13 74.31 232.13 75.69C232.13 76.56 232.25 77.27 232.5 77.81C233.08 79.27 234.83 80.12 237.75 80.37C238.58 80.45 242.79 80.54 250.37 80.62C246.37 83.7 242.93 87.33 240.03 91.52C237.14 95.71 235.69 99.86 235.69 103.98C235.69 106.06 236.13 108.25 237 110.54C237.87 112.83 239.1 114.97 240.68 116.97C242.26 118.97 244.33 120.62 246.89 121.94C249.45 123.25 252.23 123.91 255.23 123.91C262.77 123.91 270.97 119.91 279.84 111.92C281.84 116 284.4 119.03 287.52 121.01C290.64 122.99 293.89 123.98 297.26 123.98C302.51 123.98 307.73 122.58 312.94 119.76C318.14 116.95 322.89 113.46 327.18 109.3C326.89 140.53 326.66 156.7 326.49 157.82C326.16 160.48 325.24 162.9 323.74 165.06C322.24 167.22 320.93 168.66 319.81 169.37C318.19 170.37 316.86 171.35 315.84 172.31C314.82 173.27 314.31 174 314.31 174.5C314.31 174.92 314.64 175.12 315.31 175.12C316.52 175.12 318.06 174.68 319.93 173.81C321.8 172.94 323.6 171.89 325.33 170.69C327.06 169.48 328.77 168.22 330.45 166.91C332.14 165.6 333.43 164.56 334.32 163.79C335.22 163.02 335.73 162.57 335.85 162.45C340.97 159.37 343.53 157.2 343.53 155.96C343.53 155.92 343.49 155.86 343.41 155.77C342.41 154.65 341.91 150.46 341.91 143.22C341.87 132.23 341.79 120.74 341.69 108.75C341.59 96.76 341.53 89.62 341.53 87.33C341.53 84 341.59 81.31 341.7 79.25C343.13 79.07 344.97 78.9 345.24 78.9C348.28 78.9 358.23 84.8 361.64 90.71C367.93 101.66 373.46 114.75 378.25 129.99C377.29 131.03 375.99 132.65 374.35 134.86C372.71 137.07 370.85 139.73 368.79 142.85C366.73 145.97 364.97 149.26 363.51 152.72C362.05 156.18 361.32 159.13 361.32 161.59C361.32 164.34 362.65 166.89 365.32 169.24C367.98 171.59 370.86 172.77 373.94 172.77C376.52 172.77 379.22 172.23 382.03 171.15C384.84 170.07 387.37 168.71 389.62 167.09C391.87 165.47 393.93 163.77 395.8 162C397.67 160.23 399.12 158.62 400.14 157.16C401.16 155.7 401.67 154.64 401.67 153.98C401.67 153.56 401.46 153.36 401.05 153.36C399.93 153.36 398.18 154.4 395.8 156.48C395.26 156.98 394.49 157.7 393.49 158.63C392.49 159.57 391.77 160.21 391.33 160.57C390.89 160.92 390.23 161.28 389.33 161.63C388.43 161.98 387.45 162.16 386.36 162.16C384.15 162.16 381.85 161.11 379.46 159.01C377.07 156.91 375.87 154.63 375.87 152.17C375.87 148.59 377.33 144.31 380.24 139.34C383.15 134.36 386.51 129.54 390.29 124.88C391.54 123.34 393.57 121.05 396.38 118.01C399.19 114.97 401.67 112.21 403.81 109.74C405.95 107.27 408.16 104.47 410.43 101.37C412.7 98.27 414.47 95.17 415.74 92.06C417.01 88.96 417.64 86.01 417.64 83.22C417.64 81.89 417.49 80.55 417.2 79.19L417.24 79.15ZM282.88 91.86C279.86 96.23 278.35 100.5 278.35 104.66V106.85C278.35 106.85 278.04 107.26 277.54 107.94C277.04 108.63 276.74 109.02 276.63 109.12C276.53 109.23 276.21 109.57 275.7 110.15C275.18 110.73 274.77 111.1 274.48 111.24C274.19 111.39 273.75 111.65 273.17 112.02C272.59 112.39 272.03 112.64 271.48 112.77C270.94 112.89 270.28 113.02 269.51 113.14C268.74 113.26 267.94 113.33 267.11 113.33C262.9 113.33 259.05 111.31 255.56 107.27C252.06 103.23 250.31 98.98 250.31 94.53C250.31 89.66 252.5 85.04 256.87 80.67H260.62C273.94 80.67 284.93 80.59 293.59 80.42C289.47 83.67 285.9 87.48 282.88 91.85V91.86ZM327.25 101.42C324.38 106 321.69 109.13 319.19 110.82C316.69 112.5 313.55 113.35 309.76 113.35C305.6 113.35 301.75 111.48 298.21 107.73C294.67 103.98 292.9 99.88 292.9 95.43C292.9 92.6 293.63 89.81 295.09 87.06C296.55 84.31 298.27 82.06 300.27 80.32C310.68 80.11 319.21 79.84 325.87 79.51C325.95 79.88 326.09 80.33 326.28 80.85C326.47 81.37 326.62 81.93 326.75 82.53C326.87 83.14 327 84.49 327.12 86.59C327.24 88.69 327.31 91.47 327.31 94.93C327.31 97.64 327.29 99.8 327.25 101.42ZM399.72 104.11C397.45 107.9 394.19 112.21 389.95 117.04C387.2 107.88 383.37 97.95 378.46 87.25C381.29 83.84 383.62 81.52 385.45 80.29C387.28 79.06 389.53 78.45 392.19 78.45C395.4 78.45 398.02 79.94 400.06 82.91C402.1 85.89 403.12 89.19 403.12 92.81C403.12 96.43 401.98 100.32 399.72 104.11Z" fill="black"/>
<path d="M437.97 80.56C433.68 80.56 430.76 80.27 429.2 79.69C427.64 79.11 426.86 77.8 426.86 75.76C426.86 74.09 427.81 72.16 429.7 69.95C431.59 67.74 433.62 65.91 435.79 64.45C437.96 62.99 439.54 62.26 440.54 62.26C441 62.26 441.23 62.47 441.23 62.88C441.23 63.13 441.11 63.47 440.89 63.91C440.66 64.35 440.55 64.8 440.55 65.25C440.55 65.62 440.63 66.03 440.8 66.47C440.97 66.91 441.34 67.39 441.92 67.9C442.5 68.42 443.27 68.7 444.23 68.74C450.6 69.11 457.76 69.3 465.71 69.3C469 69.3 474.58 69.24 482.45 69.11C482.53 55.79 482.57 48.9 482.57 48.44C482.57 45.36 482.45 42.64 482.2 40.29C481.95 37.94 481.64 36.1 481.26 34.76C480.88 33.42 480.43 32.35 479.89 31.51C479.35 30.67 478.85 30.13 478.39 29.86C477.93 29.59 477.45 29.45 476.95 29.45C476.78 29.45 476.53 29.5 476.2 29.61C475.87 29.72 475.55 29.81 475.26 29.89C474.97 29.97 474.68 30.05 474.39 30.11C474.1 30.17 473.87 30.16 473.7 30.08C473.53 30 473.45 29.83 473.45 29.58C473.45 28.75 474.29 27.38 475.98 25.49C477.67 23.6 479.75 21.81 482.23 20.15C484.71 18.49 486.86 17.65 488.69 17.65C491.23 17.65 493.16 19.1 494.47 21.99C495.78 24.88 496.58 29.68 496.88 36.38C497 39.25 497.09 50.56 497.13 70.29C497.17 90.02 497.25 100.85 497.38 102.76C497.8 109.5 499.13 112.88 501.38 112.88C501.46 112.88 501.64 112.83 501.91 112.72C502.18 112.62 502.47 112.51 502.78 112.41C503.09 112.31 503.39 112.22 503.68 112.16C503.97 112.1 504.22 112.11 504.43 112.19C504.64 112.27 504.74 112.44 504.74 112.69C504.74 113.48 503.87 114.77 502.12 116.56C500.37 118.35 498.23 120.02 495.69 121.56C493.15 123.1 490.96 123.87 489.13 123.87C486.8 123.87 485.14 122.63 484.17 120.16C483.19 117.68 482.6 113.72 482.39 108.26C480.77 109.88 478.99 111.47 477.05 113.01C475.11 114.55 472.75 116.22 469.96 118.01C467.17 119.8 464.09 121.24 460.72 122.32C457.35 123.4 454.04 123.94 450.79 123.94C445.42 123.94 440.77 121.94 436.83 117.94C432.89 113.94 430.93 109.63 430.93 105.01C430.93 100.68 432.5 96.31 435.64 91.9C438.78 87.49 442.46 83.68 446.66 80.47C445.45 80.47 443.89 80.48 441.98 80.5C440.06 80.52 438.73 80.53 437.98 80.53L437.97 80.56ZM482.25 98.23C482.25 89.94 482.27 83.7 482.31 79.49C477.19 79.86 467.45 80.18 453.08 80.43C451.66 81.85 450.51 83.09 449.61 84.18C448.71 85.27 447.81 86.86 446.89 88.96C445.97 91.06 445.52 93.24 445.52 95.49C445.52 99.94 447.38 104.04 451.11 107.76C454.84 111.49 458.84 113.35 463.13 113.35C464.67 113.35 466.13 113.2 467.5 112.91C468.87 112.62 470.04 112.31 471 111.97C471.96 111.63 472.98 111.05 474.06 110.22C475.14 109.39 475.95 108.75 476.5 108.32C477.04 107.88 477.77 107.07 478.69 105.88C479.61 104.7 480.21 103.9 480.5 103.51C480.79 103.12 481.37 102.27 482.25 100.98V98.23Z" fill="black"/>
</svg>
