<svg width="560" height="145" viewBox="0 0 560 145" fill="none" xmlns="http://www.w3.org/2000/svg">
<path d="M43.267 40.6599C43.6137 40.6599 43.8772 40.757 44.0575 40.9511V55.4566C46.1792 53.224 48.6199 51.0467 51.3657 48.9389C54.1115 46.831 57.4259 44.9172 61.2949 43.1977C65.164 41.4781 68.7696 40.6044 72.0978 40.6044C79.6002 40.6044 85.2721 44.7508 89.0995 53.0575C97.5865 44.834 105.685 40.7154 113.382 40.7154C115.614 40.7154 117.736 41.1868 119.747 42.1437C121.758 43.1006 123.464 44.3209 124.864 45.8464C126.265 47.3718 127.485 49.0637 128.497 50.9635C129.51 52.8634 130.273 54.7771 130.772 56.7047C131.271 58.6323 131.507 60.4767 131.507 62.2241C131.507 66.8836 129.967 71.5154 126.875 76.1333C123.782 80.7512 120.149 84.6896 115.989 87.9901C118.111 87.9901 120.454 87.9901 123.006 88.0179C125.558 88.0456 127.152 88.0456 127.749 88.0456C130.023 88.0456 131.59 87.9624 132.464 87.796C133.337 87.6296 134.225 87.2413 135.14 86.6311C138.357 84.5093 140.659 83.4415 142.018 83.4415C142.476 83.4415 142.698 83.5941 142.698 83.8992C142.698 85.4523 139.217 88.4478 132.242 92.8854C126.098 96.7545 121.439 98.6821 118.249 98.6821C114.047 98.6821 105.158 98.474 91.6096 98.058C78.0609 97.642 67.3135 97.434 59.3951 97.434C56.4413 97.434 53.5291 97.4756 50.6723 97.5449C47.8156 97.6143 45.361 97.7113 43.3364 97.7945C41.3117 97.8777 39.495 97.9748 37.9002 98.0441C36.3055 98.1135 35.0574 98.1967 34.1421 98.266C33.2269 98.3354 32.7415 98.377 32.6583 98.377C32.3532 98.4879 31.4657 98.7791 29.9818 99.2368C28.498 99.6944 27.0419 100.208 25.5997 100.776C24.1574 101.345 22.5349 102.066 20.7044 102.939C19.3037 103.619 17.4594 105.089 15.1573 107.349C12.8553 109.61 11.3715 110.997 10.6919 111.523C8.87529 112.883 6.98929 114.02 5.03395 114.935C3.07861 115.85 1.65025 116.294 0.734985 116.294C0.23575 116.294 0 116.141 0 115.836C0 115.462 0.388294 114.741 1.16488 113.701C1.94147 112.661 3.21729 111.315 4.97848 109.693C6.73967 108.07 8.73661 106.434 10.9832 104.798C11.7043 102.593 12.1897 99.0704 12.4393 94.1889C12.6889 89.3075 12.8137 82.1102 12.8137 72.5554V70.503C12.8137 68.6448 12.7582 66.842 12.6473 65.0947C12.5363 63.3473 12.3145 61.3227 11.9955 59.0068C11.6765 56.6909 11.1218 54.8326 10.3453 53.432C9.56867 52.0313 8.59793 51.3241 7.41918 51.3241C7.22504 51.3241 6.98929 51.3657 6.6842 51.435C6.37911 51.5044 6.10176 51.5876 5.86601 51.6569C5.63026 51.7263 5.39451 51.7956 5.18649 51.8233C4.97848 51.8511 4.81207 51.8372 4.67339 51.7679C4.53472 51.6985 4.47925 51.546 4.47925 51.3102C4.47925 50.5198 5.24197 49.2301 6.75354 47.4412C8.26511 45.6522 10.1095 44.002 12.2729 42.4627C14.4362 40.9234 16.239 40.1606 17.6812 40.1606C21.0233 40.1606 23.2699 42.9896 24.4486 48.6338C24.6428 49.5768 24.8647 50.9774 25.1282 52.8357C25.1698 53.0991 25.1975 53.2933 25.2391 53.4042C27.8601 51.7401 30.5504 49.7709 33.3378 47.5244C36.1252 45.2778 38.2885 43.5582 39.8556 42.3795C41.4226 41.2007 42.5459 40.6183 43.267 40.6183V40.6599ZM25.7522 77.5062C25.7522 87.1026 25.4471 93.3014 24.8369 96.1027C24.8785 96.1027 25.0172 96.0333 25.2668 95.8808C25.5164 95.7283 26.2237 95.3261 27.4024 94.6882C28.5812 94.0503 30.0789 93.2598 31.8956 92.3584C31.8956 91.568 31.8956 88.3368 31.9233 82.6927C31.951 77.0486 31.951 72.292 31.951 68.4229C31.951 61.6 31.9372 56.6909 31.8956 53.6955L25.4748 58.4105C25.669 65.4275 25.7661 71.7927 25.7661 77.5201L25.7522 77.5062ZM77.4923 69.8235C77.4923 66.8281 76.7573 63.8188 75.3012 60.8096C73.8451 57.8003 71.8482 55.2902 69.2966 53.3072C66.7449 51.3241 64.0685 50.3256 61.2256 50.3256C59.4783 50.3256 57.7726 50.5614 56.1084 51.0329C54.4443 51.5044 53.1962 52.0868 52.3503 52.7663C50.0067 54.7355 47.2332 58.6739 44.0436 64.5954C44.0436 69.4075 44.0436 74.0393 44.0713 78.5047C44.0991 82.97 44.0991 85.2998 44.0991 85.5217C44.0991 87.4493 44.002 88.628 43.8079 89.0441C47.6353 88.3645 56.15 87.893 69.3382 87.6157C71.6818 85.2998 73.6371 82.5401 75.1626 79.3367C76.688 76.1333 77.4646 72.9576 77.4646 69.8096L77.4923 69.8235ZM102.177 50.3256C99.3755 50.3256 97.2537 50.8803 95.8392 52.0036C94.4247 53.1269 92.6774 55.4566 90.6389 59.0206C90.6805 59.4367 90.6943 60.0607 90.6943 60.8928C90.6943 63.6663 90.2228 66.4121 89.266 69.1717C88.3091 71.9314 87.0471 74.4276 85.4524 76.7019C83.8576 78.9762 82.2628 80.987 80.6542 82.7343C79.0455 84.4816 77.3398 86.0903 75.5647 87.5741H88.8361C91.5125 87.5741 93.4817 87.5741 94.7437 87.6018C96.0056 87.6296 96.8377 87.6434 97.2121 87.6573C97.5865 87.6712 98.8762 87.7128 101.081 87.7682C103.286 87.8237 106.309 87.8792 110.178 87.9069C112.342 85.9377 114.214 83.4138 115.809 80.349C117.403 77.2843 118.194 74.1918 118.194 71.0855C118.194 65.7742 116.502 60.9898 113.132 56.7325C109.762 52.4751 106.101 50.3395 102.163 50.3395L102.177 50.3256Z" fill="black"/>
<path d="M304.561 48.2176C308.167 48.2176 311.37 49.1467 314.199 51.005C317.028 52.8633 319.302 55.5675 321.05 59.1314C329.093 51.8925 336.54 48.2731 343.404 48.2731C346.136 48.2731 348.66 48.8555 350.99 50.0343C353.32 51.213 355.206 52.7107 356.648 54.5551C358.09 56.3995 359.213 58.3549 360.004 60.435C360.794 62.5151 361.196 64.5259 361.196 66.4674C361.196 70.2255 359.837 74.053 357.105 77.9498C354.374 81.8466 351.156 85.1887 347.44 87.9622C348.924 87.9622 350.615 87.9622 352.529 87.99C354.443 88.0177 355.663 88.0177 356.19 88.0177C358.09 88.0177 359.463 87.9345 360.309 87.7681C361.155 87.6017 362.042 87.2134 362.958 86.6032C366.175 84.4815 368.477 83.4137 369.836 83.4137C370.294 83.4137 370.516 83.5662 370.516 83.8713C370.516 85.4245 367.035 88.4199 360.059 92.8575C353.958 96.7266 349.298 98.6542 346.067 98.6542C341.518 98.6542 332.768 98.4462 319.829 98.0302C306.877 97.6141 296.615 97.4061 289.043 97.4061C280.293 97.4061 271.958 97.6557 264.081 98.1411C261.197 99.3476 259.117 99.9578 257.827 99.9578C257.106 99.9578 256.745 99.7636 256.745 99.3892C256.745 99.0148 257.037 98.5571 257.633 98.0302C258.229 97.5032 258.909 96.9623 259.685 96.4354C260.462 95.9084 260.947 95.5201 261.141 95.2982C262.084 94.1195 262.681 93.1349 262.903 92.3444C263.319 90.7496 263.568 85.5354 263.638 76.7017C263.832 54.4858 263.943 41.9772 263.984 39.1759C263.984 38.8708 264.012 37.7614 264.068 35.8477C264.123 33.934 264.151 32.2698 264.151 30.8692C264.151 18.1665 262.403 11.8151 258.923 11.8151C258.77 11.8151 258.548 11.8567 258.243 11.9538C257.938 12.0508 257.661 12.134 257.383 12.2034C257.106 12.2727 256.856 12.342 256.593 12.3975C256.329 12.453 256.121 12.4391 255.969 12.3698C255.816 12.3004 255.747 12.1479 255.747 11.9121C255.747 11.191 256.551 10.0123 258.16 8.36204C259.769 6.71179 261.765 5.17248 264.137 3.73025C266.508 2.28801 268.547 1.56689 270.252 1.56689C271.015 1.56689 271.709 1.71944 272.333 2.02453C272.957 2.32961 273.581 2.88432 274.205 3.67477C274.829 4.46523 275.384 5.68558 275.883 7.30809C276.382 8.93061 276.756 10.9691 277.02 13.396C277.436 17.1818 277.686 33.296 277.755 61.7247C279.239 60.2408 280.889 58.7847 282.733 57.3425C284.578 55.9003 286.672 54.458 289.043 53.0158C291.414 51.5736 293.966 50.4087 296.698 49.5212C299.43 48.6336 302.065 48.1899 304.603 48.1899L304.561 48.2176ZM293.758 57.8279C292.094 57.8279 290.582 58.0082 289.237 58.3687C287.892 58.7293 286.741 59.173 285.77 59.7C284.8 60.227 283.815 61.0313 282.817 62.113C281.818 63.1947 280.972 64.1931 280.32 65.0945C279.669 65.9959 278.795 67.2995 277.727 68.9636C277.796 79.6555 277.949 86.1317 278.185 88.406C284.397 87.9484 292.635 87.671 302.869 87.5462C307.043 83.3721 309.123 78.9344 309.123 74.2333C309.123 69.8373 307.473 65.9959 304.173 62.7232C300.872 59.4504 297.405 57.8001 293.772 57.8001L293.758 57.8279ZM332.657 57.8279C331.977 57.8279 331.326 57.8556 330.729 57.9111C330.133 57.9666 329.55 58.0914 329.024 58.2855C328.497 58.4797 328.025 58.6322 327.637 58.7431C327.248 58.8541 326.832 59.0898 326.416 59.4227C326 59.7555 325.681 60.0051 325.446 60.1576C325.21 60.3102 324.919 60.6014 324.53 61.0452C324.142 61.4889 323.906 61.7663 323.795 61.905C323.684 62.0436 323.421 62.3626 323.033 62.8757C322.644 63.3888 322.423 63.68 322.381 63.7632C322.423 64.6785 322.436 65.3303 322.436 65.7602C322.436 69.4767 321.105 73.2903 318.456 77.1871C315.808 81.0839 312.618 84.5369 308.902 87.5324C315.114 87.5324 321.396 87.5878 327.748 87.6988C334.099 87.8097 338.731 87.8929 341.657 87.9206C342.836 86.7142 343.793 85.6325 344.555 84.6756C345.318 83.7188 346.067 82.3597 346.83 80.5569C347.592 78.7541 347.967 76.8959 347.967 74.9544C347.967 70.8912 346.372 67.036 343.196 63.3472C340.021 59.6584 336.512 57.8279 332.671 57.8279H332.657Z" fill="black"/>
<path d="M379.003 76.5355C379.003 73.124 378.794 70.1702 378.378 67.6602C377.962 65.1502 377.408 63.278 376.728 62.0022C376.049 60.7264 375.355 59.8111 374.648 59.2425C373.941 58.674 373.234 58.3827 372.512 58.3827C372.249 58.3827 371.764 58.4937 371.056 58.7294C370.349 58.9652 369.891 59.0761 369.67 59.0761C369.323 59.0761 369.156 58.9097 369.156 58.563C369.156 58.0361 369.656 57.1901 370.668 56.0391C371.68 54.8881 372.901 53.7232 374.329 52.5722C375.758 51.4212 377.38 50.395 379.169 49.5352C380.958 48.6754 382.511 48.2316 383.828 48.2316C388.308 48.2316 391.053 52.9882 392.08 62.5014C396.559 58.0222 401.232 54.5414 406.1 52.0452C410.967 49.5491 415.599 48.2871 420.009 48.2871C427.9 48.2871 433.71 52.1284 437.468 59.825C446.455 52.0868 454.637 48.2178 462.028 48.2178C464.871 48.2178 467.492 48.8002 469.905 49.979C472.318 51.1577 474.259 52.6554 475.729 54.4998C477.199 56.3442 478.35 58.3134 479.168 60.449C479.987 62.5846 480.389 64.6509 480.389 66.7033C480.389 69.6155 479.862 72.5 478.822 75.3429C477.782 78.1857 476.409 80.7512 474.703 83.0255C472.997 85.2998 471.07 87.4077 468.934 89.363C466.798 91.3184 464.607 92.9409 462.389 94.2583C460.17 95.5619 458.02 96.5881 455.94 97.3231C453.86 98.0581 452.016 98.4325 450.421 98.4325C447.952 98.4325 445.942 97.6143 444.361 95.964C442.78 94.3138 442.003 92.9964 442.003 92.0118C442.003 91.2906 442.807 90.1951 444.416 88.7113C446.025 87.2274 447.855 85.8961 449.908 84.7035C451.96 83.5109 453.513 82.9146 454.567 82.9146C454.872 82.9146 455.08 82.9839 455.191 83.1365C455.302 83.289 455.385 83.4832 455.441 83.7328C455.496 83.9824 455.663 84.3568 455.954 84.8699C456.245 85.383 456.647 85.8961 457.174 86.437C458.728 87.9902 460.419 88.7667 462.236 88.7667H462.694C462.805 88.7667 462.902 88.7251 462.985 88.6558C463.068 88.5865 463.124 88.531 463.151 88.5171C463.179 88.5033 463.262 88.3923 463.345 88.1982C463.429 88.004 463.526 87.8515 463.595 87.7405C465.939 83.8299 467.117 79.8915 467.117 75.9114C467.117 73.3737 466.618 70.9607 465.634 68.6587C464.649 66.3566 463.373 64.4429 461.82 62.8897C460.267 61.3366 458.547 60.1023 456.647 59.1871C454.748 58.2718 452.889 57.828 451.073 57.828C450.282 57.828 449.506 57.8696 448.743 57.9667C447.98 58.0638 447.287 58.2163 446.635 58.4244C445.983 58.6324 445.415 58.8265 444.902 58.9929C444.388 59.1593 443.861 59.4367 443.307 59.8111C442.752 60.1855 442.336 60.4768 442.031 60.6709C441.726 60.8651 441.351 61.184 440.894 61.6416C440.436 62.0993 440.145 62.3766 440.006 62.5014C439.868 62.6262 439.604 62.9175 439.188 63.4167L438.564 64.0962V65.2334C438.564 69.2134 437.801 73.027 436.262 76.6603C434.723 80.2936 432.781 83.4 430.438 85.9516C428.094 88.5171 425.542 90.7498 422.783 92.6913C420.037 94.6189 417.43 96.0611 414.961 96.9902C412.493 97.9194 410.399 98.377 408.652 98.377C406.155 98.377 404.117 97.5727 402.536 95.964C400.955 94.3554 400.178 93.038 400.178 92.0118C400.178 91.2906 400.983 90.1951 402.591 88.7113C404.2 87.2274 406.031 85.8961 408.083 84.7035C410.135 83.5109 411.689 82.9146 412.742 82.9146C413.006 82.9146 413.186 82.9562 413.283 83.0255C413.38 83.0949 413.464 83.289 413.533 83.5941C413.949 84.8838 414.823 86.0625 416.154 87.1442C417.485 88.2259 418.955 88.7667 420.592 88.7667C420.786 88.7667 420.911 88.7251 420.994 88.6558C421.077 88.5865 421.243 88.3368 421.507 87.9208C422.533 86.2567 423.421 84.1904 424.183 81.722C424.946 79.2535 425.32 76.7712 425.32 74.2751C425.32 70.1009 423.642 66.3289 420.286 62.9591C416.93 59.5892 413.297 57.8974 409.4 57.8974C406.668 57.8974 404.242 58.3827 402.12 59.3535C399.998 60.3242 398.279 61.5307 396.947 62.9591C395.616 64.3874 394.104 66.3844 392.399 68.936C392.44 71.7095 392.468 77.6033 392.51 86.645C392.551 95.6867 392.579 104.049 392.621 111.718C392.662 119.4 392.676 123.408 392.676 123.741C392.718 124.809 392.815 125.724 392.967 126.501C393.12 127.277 393.286 127.818 393.453 128.123C393.619 128.428 393.772 128.692 393.91 128.914C394.049 129.135 394.104 129.316 394.104 129.427C394.104 129.926 393.522 130.689 392.371 131.729C391.22 132.769 389.847 133.753 388.252 134.655C388.141 134.724 387.323 135.348 385.812 136.499C384.3 137.65 382.705 138.843 381.041 140.049C379.377 141.256 377.519 142.393 375.494 143.433C373.469 144.473 371.847 145 370.626 145C370.058 145 369.767 144.847 369.767 144.542C369.767 144.168 370.169 143.572 370.959 142.781C371.75 141.991 372.596 141.242 373.455 140.562L374.704 139.536C376.978 136.957 378.268 134.1 378.573 130.952V128.567C378.614 126.93 378.642 124.795 378.656 122.146C378.67 119.497 378.697 116.502 378.739 113.188C378.781 109.873 378.808 106.406 378.822 102.815C378.836 99.2229 378.864 95.7699 378.878 92.4694C378.892 89.1689 378.919 86.0903 378.933 83.2336C378.947 80.3768 378.961 78.1441 378.961 76.5494L379.003 76.5355Z" fill="black"/>
<path d="M66.8143 15.7952C67.161 15.5179 67.5354 15.3792 67.9376 15.3792C68.3397 15.3792 68.7142 15.5317 69.0609 15.823C69.4075 16.1142 70.2812 16.9601 71.668 18.3469C73.0547 19.7752 74.2612 20.9956 75.2874 22.0218C76.1611 22.8955 76.6049 23.5888 76.6049 24.1019C76.6049 24.3516 76.5355 24.6289 76.383 24.9201C76.2304 25.2114 75.9669 25.5719 75.5648 26.0157C75.1626 26.4594 74.7466 26.8755 74.3306 27.2776C73.9145 27.6798 73.2766 28.29 72.4168 29.1082C71.557 29.9264 70.7666 30.7029 70.0316 31.4379C69.1579 32.3116 68.4368 32.7554 67.896 32.7554C67.6464 32.7554 67.369 32.686 67.0778 32.5335C66.7866 32.3809 66.426 32.1174 65.9822 31.7153C65.5385 31.3131 65.1225 30.8971 64.7203 30.4811C64.3181 30.065 63.708 29.4271 62.8898 28.5673C62.0716 27.7075 61.295 26.9171 60.56 26.1821C59.6447 25.2668 59.1871 24.5734 59.1871 24.1019C59.1871 23.5888 59.6447 22.8955 60.56 22.0218L63.8466 18.7352C65.483 17.0572 66.4815 16.0726 66.8282 15.8091L66.8143 15.7952ZM75.8976 0.416029C76.2443 0.138676 76.6187 0 77.0209 0C77.423 0 77.7836 0.124809 78.0887 0.388294C78.3938 0.651779 79.3922 1.60865 81.0702 3.28663L84.3569 6.57326L84.6619 6.87835L84.9393 7.1557L85.1889 7.40532C85.2999 7.51626 85.3692 7.59946 85.4108 7.65493C85.4524 7.7104 85.494 7.77974 85.5495 7.87682C85.6049 7.97389 85.6465 8.0571 85.6604 8.12643C85.6743 8.19577 85.702 8.27898 85.7159 8.37605C85.7298 8.47312 85.7436 8.5702 85.7436 8.68114C85.7436 9.0833 85.5633 9.49933 85.2028 9.94309C84.8422 10.3869 83.816 11.4408 82.138 13.1188C80.9316 14.2837 79.9331 15.2683 79.1288 16.0726C78.2551 16.9462 77.5617 17.39 77.0486 17.39C76.799 17.39 76.5216 17.3207 76.2304 17.1681C75.9392 17.0156 75.5786 16.7521 75.1349 16.3499C74.6911 15.9478 74.2751 15.5317 73.8729 15.1157C73.4708 14.6997 72.8606 14.0618 72.0424 13.202C71.2242 12.3422 70.4476 11.5517 69.7126 10.8168C68.7974 9.90149 68.3397 9.19424 68.3397 8.68114C68.3397 8.16804 68.7974 7.47465 69.7126 6.60099L72.9993 3.31436C74.6079 1.67798 75.5786 0.707249 75.9253 0.443764L75.8976 0.416029ZM85.0364 15.7814C85.3415 15.5317 85.702 15.3931 86.1042 15.3931C86.5063 15.3931 86.8669 15.5179 87.1997 15.7814C87.5325 16.0449 88.531 17.0295 90.209 18.7352L93.4956 22.0218C94.3693 22.8955 94.8131 23.5888 94.8131 24.1019C94.8131 24.3516 94.7437 24.6289 94.5912 24.9201C94.4386 25.2114 94.1751 25.5719 93.773 26.0157C93.3708 26.4594 92.9548 26.8755 92.5388 27.2776C92.1227 27.6798 91.4848 28.29 90.625 29.1082C89.7652 29.9264 88.9748 30.7029 88.2398 31.4379L87.3939 32.2839C87.2691 32.4087 87.0888 32.5196 86.8669 32.6167C86.645 32.7137 86.3954 32.7554 86.1042 32.7554C85.702 32.7554 85.3137 32.5889 84.9254 32.2561C84.5371 31.9233 83.3307 30.7445 81.2782 28.6921L78.7543 26.1682C77.8391 25.253 77.3814 24.5596 77.3814 24.0881C77.3814 23.575 77.8391 22.8816 78.7543 22.0079L82.4293 18.333C83.8576 16.8769 84.7174 16.0171 85.0364 15.7536V15.7814Z" fill="black"/>
<path d="M251.42 60.5046C250.602 58.3828 249.465 56.3859 247.981 54.5276C246.497 52.6694 244.556 51.1578 242.157 49.9791C239.744 48.8003 237.109 48.2179 234.224 48.2179C226.875 48.2179 218.707 52.0869 209.72 59.8251C209.152 58.6879 208.486 57.5785 207.723 56.4968C206.961 55.4152 205.907 54.1809 204.534 52.7942C203.161 51.4074 201.469 50.298 199.417 49.4659C197.364 48.6339 195.145 48.2179 192.76 48.2179C190.985 48.2179 189.182 48.412 187.338 48.8142C187.421 48.7171 187.49 48.6339 187.574 48.5368C189.404 46.2903 191.484 43.5306 193.8 40.244C196.116 36.9712 198.543 33.7123 201.109 30.4812C203.66 27.25 206.35 24.6013 209.179 22.535C212.008 20.4687 214.546 19.6367 216.834 20.0527C218.443 20.3439 219.705 21.2453 220.648 22.7708C221.591 24.2962 221.91 25.8771 221.605 27.5135C221.411 28.5536 220.981 29.4411 220.315 30.1622C220.26 30.2315 219.247 30.6892 217.264 31.5351C215.281 32.381 214.227 33.116 214.116 33.7123C214.061 34.0174 214.394 34.2254 215.101 34.3502C216.224 34.5582 217.805 34.4889 219.844 34.17C221.882 33.851 224.046 33.2824 226.306 32.4642C228.58 31.646 230.633 30.3702 232.491 28.6506C234.349 26.931 235.486 24.9341 235.902 22.6598C236.457 19.5951 235.902 16.7245 234.211 14.0341C232.519 11.3438 230.12 9.70745 226.986 9.13887C225.155 8.80605 223.227 8.91699 221.175 9.4717C219.123 10.0264 217.098 10.9555 215.087 12.2591C213.076 13.5626 211.093 15.0604 209.124 16.7245C207.169 18.3886 205.199 20.3023 203.244 22.4795C201.289 24.6429 199.5 26.7092 197.891 28.6784C196.283 30.6337 194.674 32.7277 193.079 34.9327C187.393 42.754 184.148 47.788 183.344 50.0207C182.775 50.2287 182.207 50.409 181.638 50.6447C177.769 52.2533 174.51 54.0423 171.862 55.9837C169.213 57.9391 166.758 60.0331 164.526 62.2658C164.304 58.5493 163.402 55.2765 161.849 52.4614C160.296 49.6324 158.23 48.2317 155.65 48.2317C153.986 48.2317 151.989 48.939 149.646 50.3396C147.302 51.7402 145.347 53.2518 143.766 54.8882C142.171 56.5246 141.381 57.6895 141.381 58.4106C141.381 58.785 141.561 58.9791 141.921 58.9791C142.282 58.9791 142.74 58.8821 143.308 58.6879C143.877 58.4938 144.251 58.3967 144.445 58.3967C145.056 58.3967 145.721 58.6463 146.442 59.1317C147.163 59.6309 147.898 60.3659 148.633 61.3505C149.368 62.3351 149.979 63.7912 150.45 65.7049C150.922 67.6187 151.157 69.8236 151.157 72.3337C151.157 73.0964 151.102 76.1057 150.991 81.3754C150.88 86.6451 150.797 89.4741 150.769 89.8485C150.616 91.2907 150.159 92.5527 149.41 93.6621C148.647 94.7576 147.871 95.562 147.08 96.0751C146.29 96.5882 145.569 97.1013 144.917 97.6421C144.279 98.1691 143.946 98.6406 143.946 99.0705C143.946 99.4449 144.307 99.639 145.028 99.639C146.581 99.639 148.938 98.9179 152.073 97.4757C152.225 97.4064 153.224 96.9765 155.082 96.1999C156.94 95.4233 158.396 94.7715 159.464 94.2723C160.532 93.7592 161.697 93.0519 162.986 92.1367C164.276 91.2214 165.108 90.3616 165.483 89.5157C165.025 86.7422 164.761 79.8915 164.692 68.9361C165.94 67.0362 167.077 65.5108 168.076 64.3321C169.074 63.1533 170.253 62.0439 171.598 60.9761C172.943 59.9083 174.427 59.1317 176.064 58.6463C177.7 58.1471 179.558 57.9113 181.638 57.9113C185.549 57.9113 189.168 59.6032 192.524 62.973C195.88 66.3429 197.558 70.1149 197.558 74.289C197.558 76.7852 197.184 79.2675 196.421 81.7359C195.659 84.2044 194.771 86.2706 193.745 87.9348C193.481 88.3508 193.315 88.6004 193.232 88.6697C193.162 88.7391 193.024 88.7807 192.83 88.7807C191.193 88.7807 189.723 88.2398 188.392 87.1582C187.061 86.0765 186.187 84.8978 185.771 83.6081C185.702 83.303 185.605 83.1088 185.521 83.0395C185.438 82.9702 185.244 82.9285 184.98 82.9285C183.913 82.9285 182.359 83.5249 180.321 84.7175C178.269 85.9101 176.438 87.2414 174.829 88.7252C173.221 90.2091 172.416 91.3046 172.416 92.0257C172.416 93.0519 173.207 94.3693 174.774 95.978C176.341 97.5866 178.379 98.391 180.889 98.391C182.637 98.391 184.731 97.9333 187.199 97.0042C189.668 96.0751 192.275 94.6467 195.021 92.7052C197.766 90.7776 200.318 88.5311 202.676 85.9656C205.019 83.4 206.975 80.3076 208.5 76.6742C210.025 73.0409 210.802 69.2273 210.802 65.2473V64.1102C210.802 64.1102 211.024 63.8605 211.371 63.4584C211.717 63.0562 211.953 62.8066 212.078 62.6957C212.216 62.5847 212.48 62.3212 212.868 61.933C213.257 61.5447 213.589 61.2534 213.839 61.0732C214.089 60.9067 214.449 60.6433 214.921 60.2827C215.392 59.9221 215.822 59.6587 216.196 59.4922C216.571 59.3258 217.056 59.1178 217.653 58.8682C218.249 58.6186 218.804 58.4383 219.358 58.3274C219.913 58.2164 220.537 58.1055 221.23 58.0084C221.938 57.9113 222.645 57.8697 223.366 57.8697C227.235 57.8697 230.868 59.6309 234.252 63.1533C237.65 66.6757 239.342 70.9469 239.342 75.9531C239.342 79.9331 238.163 83.8715 235.819 87.7822C235.75 87.8932 235.653 88.0457 235.57 88.2399C235.473 88.434 235.403 88.5311 235.375 88.5588C235.334 88.5727 235.278 88.6281 235.209 88.6975C235.14 88.7668 235.043 88.8084 234.918 88.8084H234.46C232.644 88.8084 230.952 88.0318 229.398 86.4787C228.872 85.9517 228.455 85.4247 228.178 84.9116C227.887 84.3985 227.721 84.0241 227.665 83.7745C227.61 83.5249 227.526 83.3307 227.415 83.1782C227.304 83.0256 227.096 82.9563 226.791 82.9563C225.724 82.9563 224.17 83.5526 222.132 84.7452C220.079 85.9378 218.249 87.2691 216.64 88.753C215.032 90.2368 214.227 91.3323 214.227 92.0534C214.227 93.038 215.018 94.3555 216.613 96.0057C218.207 97.656 220.232 98.4742 222.7 98.4742C224.295 98.4742 226.126 98.0997 228.22 97.3648C230.3 96.6298 232.449 95.6036 234.668 94.3C236.887 92.9964 239.064 91.3601 241.214 89.4047C243.349 87.4494 245.277 85.3415 246.983 83.0672C248.688 80.7929 250.061 78.2274 251.101 75.3846C252.141 72.5417 252.668 69.6572 252.668 66.745C252.668 64.7342 252.266 62.6679 251.448 60.5462L251.42 60.5046Z" fill="black"/>
<path d="M423.656 35.7647C423.157 35.7647 422.921 35.5983 422.921 35.2516C422.921 35.0297 425.362 31.1468 430.257 23.6166C435.153 16.0865 437.732 12.1758 437.995 11.8708C439.243 10.3869 441.337 8.97242 444.277 7.59953C447.217 6.22663 449.408 5.54712 450.851 5.54712C451.461 5.54712 451.766 5.71353 451.766 6.06022C451.766 6.25437 450.351 8.25131 447.536 12.0649C444.721 15.8785 441.878 19.6228 439.035 23.2977L434.834 28.8725C433.475 30.3841 431.561 31.9095 429.092 33.4488C426.624 34.9881 424.821 35.7508 423.684 35.7508L423.656 35.7647Z" fill="black"/>
<path d="M558.81 87.7408C558.436 87.7408 557.978 87.8101 557.451 87.9626L556.716 88.2539C556.342 88.2539 555.967 88.129 555.607 87.8794C555.246 87.6298 554.872 87.186 554.47 86.5481C554.067 85.9102 553.735 85.0782 553.443 84.0797C553.152 83.0812 552.916 81.7361 552.736 80.0442C552.542 78.3524 552.445 76.4525 552.445 74.3308C552.445 69.699 552.487 63.9439 552.556 57.0378C552.972 55.8313 553.554 54.7913 554.289 53.9453C555.024 53.0855 555.732 52.5031 556.397 52.1841C557.063 51.8652 557.645 51.5185 558.131 51.1579C558.63 50.7974 558.866 50.4091 558.866 49.9931C558.866 49.4938 557.423 49.2581 554.539 49.2581C552.792 49.2581 550.892 49.5909 548.826 50.2565C546.759 50.9222 544.929 51.6988 543.334 52.5863C541.739 53.4738 540.408 54.3614 539.326 55.235C538.245 56.1087 537.704 56.7743 537.704 57.232L537.995 58.0918C538.147 58.7019 538.3 59.4924 538.453 60.477C538.605 61.4616 538.674 62.4462 538.674 63.4308C538.674 67.0364 538.73 71.682 538.841 77.3678C537.482 79.0735 536.275 80.4602 535.235 81.5419C534.195 82.6236 532.836 83.7746 531.172 85.0088C529.508 86.243 527.636 87.1722 525.57 87.7962C523.503 88.4203 521.215 88.7392 518.719 88.7392C514.17 88.7392 510.052 87.0474 506.349 83.6498C502.646 80.2522 500.802 76.508 500.802 72.417C500.802 69.8376 501.246 67.3137 502.133 64.8314C503.021 62.3491 504.116 60.2135 505.406 58.4384C505.669 58.064 506.335 57.8699 507.403 57.8699C509.899 57.8699 512.16 58.8129 514.17 60.7127C514.545 61.0872 514.878 61.4616 515.141 61.8221C515.405 62.1827 515.599 62.4185 515.71 62.5294C515.821 62.6403 516.015 62.6958 516.278 62.6958C517.831 62.6958 520.3 61.4755 523.697 59.0348C527.095 56.594 528.787 54.7774 528.787 53.5986C528.787 53.2242 528.426 52.6279 527.705 51.8375C526.984 51.047 525.861 50.2427 524.321 49.4522C523.725 49.1471 523.115 48.9114 522.491 48.7172C523.337 47.7188 524.294 46.4845 525.348 44.973C525.916 44.1825 527.137 42.5045 529.009 39.9668C530.881 37.429 532.226 35.5846 533.044 34.4474C533.862 33.3103 535.041 31.6184 536.594 29.3858C538.147 27.1531 539.298 25.3641 540.061 24.0051C540.824 22.6461 541.656 21.1206 542.557 19.4011C543.473 17.6815 544.111 16.156 544.485 14.8247C544.859 13.4934 545.054 12.3008 545.054 11.2469C545.054 9.73531 544.735 8.41789 544.083 7.32235C543.431 6.2268 542.585 5.39475 541.517 4.85391C540.449 4.2992 539.409 3.91091 538.355 3.66129C537.302 3.41167 536.248 3.28687 535.138 3.28687C533.169 3.28687 530.839 3.79997 528.149 4.82617C525.459 5.85238 522.865 7.15594 520.383 8.75071C517.901 10.3455 515.793 12.2454 514.046 14.4642C512.298 16.683 511.425 18.8464 511.425 20.982C511.425 23.4781 511.841 24.7401 512.673 24.7401C513.699 24.7401 515.224 24.1438 517.249 22.9512C519.274 21.7586 521.104 20.4273 522.74 18.9434C524.377 17.4596 525.181 16.364 525.181 15.6429C525.181 15.532 525.126 15.2408 525.015 14.7554C524.904 14.2839 524.821 13.5766 524.793 12.6198C526.277 12.8833 527.511 13.327 528.523 13.9511C529.522 14.5751 530.229 15.2962 530.631 16.1144C531.033 16.9326 531.311 17.626 531.449 18.2223C531.602 18.8047 531.671 19.3872 531.671 19.9558C531.671 22.2301 530.395 26.1685 527.858 31.7849C526.346 35.1547 524.724 38.3165 523.018 41.2564C521.312 44.1964 520.064 46.3459 519.287 47.7049C519.177 47.9129 519.079 48.0932 518.982 48.2873C516.985 48.3567 514.711 48.8698 512.118 49.8821C509.344 50.9638 506.529 52.5308 503.673 54.5971C500.816 56.6634 498.167 58.9931 495.74 61.5864C493.313 64.1796 491.33 67.1889 489.791 70.6004C488.252 74.0118 487.489 77.4371 487.489 80.8901C487.489 85.5219 489.486 89.5851 493.466 93.1214C497.446 96.6438 502.092 98.405 507.403 98.405C513.047 98.405 518.58 96.9627 523.975 94.0783C529.383 91.1938 534.375 87.5327 538.952 83.109C539.021 85.2723 539.174 87.1583 539.382 88.767C539.59 90.3756 539.909 91.9704 540.352 93.5374C540.796 95.1045 541.42 96.311 542.252 97.143C543.084 97.9751 544.111 98.3911 545.317 98.3911C546.912 98.3911 548.839 97.6838 551.114 96.2832C553.388 94.8826 555.316 93.371 556.91 91.7624C558.505 90.1537 559.296 88.9888 559.296 88.2677C559.296 87.921 559.101 87.7546 558.727 87.7546L558.81 87.7408Z" fill="black"/>
</svg>
