<svg width="454" height="144" viewBox="0 0 454 144" fill="none" xmlns="http://www.w3.org/2000/svg">
<path d="M162.02 58.84C160 58.84 158.2 59.08 156.62 59.56C155.04 60.04 153.6 60.79 152.29 61.82C150.99 62.85 149.85 63.93 148.87 65.07C147.89 66.21 146.8 67.7 145.59 69.53C145.66 80.15 145.92 86.8 146.36 89.49C145.99 90.3 145.18 91.14 143.93 92.02C142.68 92.9 141.54 93.59 140.51 94.09C139.48 94.59 138.07 95.21 136.27 95.96C134.47 96.71 133.49 97.13 133.35 97.2C130.3 98.59 128.02 99.29 126.51 99.29C125.81 99.29 125.46 99.11 125.46 98.74C125.46 98.33 125.77 97.88 126.4 97.36C127.02 96.85 127.72 96.34 128.49 95.84C129.26 95.34 130.01 94.56 130.75 93.5C131.48 92.43 131.93 91.2 132.07 89.81C132.11 89.44 132.18 86.71 132.29 81.6C132.4 76.49 132.46 73.57 132.46 72.83C132.46 70.4 132.23 68.27 131.77 66.41C131.31 64.56 130.72 63.15 130.01 62.19C129.29 61.23 128.59 60.52 127.89 60.04C127.19 59.56 126.55 59.32 125.96 59.32C125.78 59.32 125.41 59.41 124.86 59.59C124.31 59.78 123.86 59.87 123.51 59.87C123.16 59.87 122.99 59.69 122.99 59.32C122.99 58.62 123.76 57.48 125.31 55.9C126.86 54.32 128.76 52.85 131.01 51.49C133.27 50.13 135.21 49.45 136.83 49.45C139.33 49.45 141.33 50.82 142.84 53.56C144.35 56.3 145.21 59.47 145.43 63.07C147.6 60.9 149.97 58.87 152.54 56.98C155.11 55.09 158.27 53.36 162.02 51.8C165.77 50.24 169.37 49.46 172.82 49.46C175.14 49.46 177.29 49.87 179.27 50.67C181.25 51.47 182.91 52.55 184.23 53.89C185.55 55.23 186.58 56.43 187.32 57.47C188.05 58.52 188.7 59.59 189.25 60.69C197.96 53.19 205.88 49.44 213.01 49.44C215.8 49.44 218.37 50.01 220.7 51.15C223.03 52.29 224.92 53.76 226.35 55.56C227.78 57.36 228.89 59.29 229.68 61.35C230.47 63.41 230.87 65.41 230.87 67.36C230.87 70.19 230.36 72.98 229.35 75.74C228.34 78.5 227.01 80.98 225.35 83.18C223.69 85.38 221.83 87.44 219.75 89.33C217.67 91.22 215.56 92.8 213.41 94.07C211.26 95.34 209.17 96.33 207.15 97.05C205.13 97.77 203.35 98.13 201.8 98.13C199.41 98.13 197.45 97.33 195.9 95.73C194.36 94.13 193.58 92.86 193.58 91.9C193.58 91.2 194.36 90.14 195.92 88.7C197.48 87.27 199.26 85.97 201.24 84.81C203.22 83.65 204.73 83.08 205.76 83.08C206.05 83.08 206.26 83.15 206.37 83.3C206.48 83.45 206.56 83.64 206.62 83.88C206.68 84.12 206.84 84.49 207.12 84.98C207.39 85.48 207.79 85.98 208.3 86.49C209.81 88 211.44 88.75 213.21 88.75H213.65C213.76 88.75 213.85 88.71 213.93 88.64C214 88.57 214.06 88.52 214.1 88.5C214.14 88.48 214.2 88.38 214.29 88.2C214.38 88.02 214.46 87.87 214.54 87.76C216.82 83.97 217.96 80.15 217.96 76.29C217.96 71.44 216.31 67.3 213.03 63.89C209.74 60.47 206.22 58.76 202.47 58.76C201.77 58.76 201.08 58.81 200.4 58.9C199.72 58.99 199.11 59.09 198.58 59.2C198.05 59.31 197.5 59.48 196.93 59.72C196.36 59.96 195.89 60.16 195.52 60.33C195.15 60.5 194.74 60.75 194.28 61.1C193.82 61.45 193.47 61.71 193.23 61.87C192.99 62.04 192.68 62.31 192.29 62.7C191.9 63.09 191.65 63.33 191.52 63.44C191.39 63.55 191.16 63.8 190.83 64.18C190.5 64.57 190.31 64.78 190.28 64.81V65.91C190.28 69.77 189.54 73.46 188.05 76.99C186.56 80.52 184.68 83.52 182.4 86C180.12 88.48 177.65 90.66 174.99 92.53C172.33 94.4 169.8 95.79 167.41 96.69C165.02 97.59 162.98 98.04 161.29 98.04C158.86 98.04 156.89 97.26 155.36 95.7C153.83 94.14 153.07 92.86 153.07 91.87C153.07 91.17 153.85 90.11 155.41 88.67C156.97 87.24 158.74 85.94 160.73 84.78C162.71 83.62 164.22 83.05 165.25 83.05C165.51 83.05 165.68 83.09 165.77 83.16C165.86 83.24 165.94 83.42 166.02 83.71C166.42 84.96 167.27 86.11 168.56 87.15C169.85 88.2 171.28 88.72 172.86 88.72C173.04 88.72 173.17 88.68 173.25 88.61C173.32 88.54 173.49 88.3 173.75 87.89C174.74 86.27 175.6 84.27 176.34 81.88C177.07 79.49 177.44 77.09 177.44 74.66C177.44 70.62 175.81 66.96 172.56 63.69C169.31 60.42 165.79 58.78 162 58.78L162.02 58.84Z" fill="black"/>
<path d="M244.71 76.92C244.71 73.61 244.51 70.75 244.1 68.32C243.69 65.89 243.16 64.07 242.5 62.83C241.84 61.59 241.17 60.71 240.49 60.16C239.81 59.61 239.12 59.33 238.42 59.33C238.16 59.33 237.69 59.44 237.01 59.66C236.33 59.88 235.88 59.99 235.66 59.99C235.33 59.99 235.16 59.82 235.16 59.49C235.16 58.98 235.65 58.16 236.62 57.04C237.59 55.92 238.78 54.8 240.18 53.68C241.58 52.56 243.14 51.58 244.87 50.73C246.6 49.88 248.1 49.46 249.39 49.46C253.73 49.46 256.39 54.07 257.38 63.3C261.72 58.96 266.25 55.58 270.97 53.16C275.69 50.73 280.18 49.52 284.45 49.52C292.09 49.52 297.73 53.25 301.37 60.71C310.08 53.21 318.02 49.46 325.18 49.46C327.94 49.46 330.48 50.03 332.82 51.17C335.15 52.31 337.04 53.77 338.47 55.55C339.9 57.33 341.01 59.25 341.8 61.31C342.59 63.37 342.99 65.39 342.99 67.37C342.99 70.2 342.48 72.99 341.47 75.75C340.46 78.51 339.13 80.99 337.47 83.19C335.81 85.39 333.95 87.45 331.87 89.34C329.79 91.23 327.68 92.81 325.53 94.08C323.38 95.35 321.29 96.34 319.27 97.06C317.25 97.78 315.47 98.14 313.92 98.14C311.53 98.14 309.57 97.34 308.05 95.74C306.52 94.14 305.76 92.87 305.76 91.91C305.76 91.21 306.54 90.15 308.1 88.71C309.66 87.28 311.43 85.98 313.42 84.82C315.4 83.66 316.91 83.09 317.94 83.09C318.23 83.09 318.44 83.16 318.55 83.31C318.66 83.46 318.74 83.65 318.8 83.89C318.85 84.13 319.02 84.5 319.3 84.99C319.58 85.49 319.97 85.99 320.49 86.5C322 88.01 323.63 88.76 325.4 88.76H325.84C325.95 88.76 326.04 88.72 326.12 88.65C326.19 88.58 326.25 88.53 326.29 88.51C326.33 88.49 326.39 88.39 326.48 88.21C326.57 88.03 326.65 87.88 326.73 87.77C329.01 83.98 330.15 80.16 330.15 76.3C330.15 73.84 329.67 71.5 328.72 69.27C327.76 67.05 326.53 65.18 325.03 63.68C323.52 62.17 321.85 60.98 320.01 60.1C318.17 59.22 316.37 58.78 314.61 58.78C313.84 58.78 313.08 58.83 312.35 58.92C311.61 59.01 310.94 59.16 310.31 59.36C309.68 59.56 309.13 59.75 308.63 59.91C308.13 60.08 307.62 60.34 307.09 60.71C306.56 61.08 306.14 61.35 305.85 61.54C305.56 61.72 305.19 62.04 304.75 62.48C304.31 62.92 304.02 63.2 303.9 63.31C303.78 63.42 303.51 63.71 303.1 64.19L302.49 64.85V65.95C302.49 69.81 301.75 73.5 300.26 77.03C298.77 80.56 296.89 83.56 294.61 86.04C292.33 88.52 289.86 90.7 287.2 92.57C284.53 94.44 282.01 95.83 279.62 96.73C277.23 97.63 275.19 98.08 273.5 98.08C271.07 98.08 269.1 97.3 267.57 95.74C266.04 94.18 265.28 92.9 265.28 91.91C265.28 91.21 266.06 90.15 267.62 88.71C269.18 87.28 270.96 85.98 272.94 84.82C274.92 83.66 276.43 83.09 277.46 83.09C277.72 83.09 277.89 83.13 277.98 83.2C278.07 83.28 278.15 83.46 278.23 83.75C278.63 85 279.48 86.15 280.77 87.19C282.06 88.24 283.49 88.76 285.07 88.76C285.25 88.76 285.38 88.72 285.46 88.65C285.53 88.58 285.7 88.34 285.96 87.93C286.95 86.31 287.81 84.31 288.55 81.92C289.28 79.53 289.65 77.13 289.65 74.7C289.65 70.66 288.02 67 284.77 63.73C281.52 60.46 278 58.82 274.21 58.82C271.56 58.82 269.21 59.29 267.15 60.22C265.09 61.16 263.42 62.32 262.13 63.72C260.84 65.12 259.37 67.05 257.72 69.51C257.76 72.19 257.79 77.92 257.83 86.68C257.87 95.45 257.9 103.55 257.94 110.99C257.98 118.43 258 122.32 258 122.65C258.04 123.68 258.13 124.57 258.28 125.32C258.43 126.07 258.58 126.6 258.75 126.89C258.91 127.18 259.06 127.44 259.19 127.66C259.32 127.88 259.38 128.05 259.38 128.16C259.38 128.64 258.82 129.38 257.7 130.39C256.58 131.4 255.25 132.35 253.7 133.23C253.59 133.3 252.8 133.9 251.33 135.02C249.86 136.14 248.32 137.29 246.7 138.46C245.08 139.64 243.29 140.73 241.33 141.74C239.36 142.75 237.79 143.26 236.62 143.26C236.07 143.26 235.79 143.11 235.79 142.82C235.79 142.45 236.18 141.88 236.95 141.11C237.72 140.34 238.53 139.62 239.38 138.96L240.59 137.97C242.79 135.47 244.04 132.7 244.34 129.65V127.33C244.38 125.75 244.4 123.67 244.42 121.1C244.44 118.53 244.47 115.63 244.5 112.42C244.54 109.2 244.56 105.85 244.58 102.36C244.6 98.87 244.62 95.52 244.64 92.33C244.66 89.13 244.68 86.15 244.69 83.37C244.71 80.6 244.72 78.44 244.72 76.89L244.71 76.92Z" fill="black"/>
<path d="M350.22 59.45C350.22 58.72 351.01 57.55 352.59 55.95C354.17 54.35 356.1 52.87 358.38 51.51C360.66 50.15 362.61 49.47 364.22 49.47C365.36 49.47 366.35 49.79 367.2 50.44C368.05 51.08 368.72 52.09 369.24 53.47C369.75 54.85 370.16 56.26 370.45 57.71C370.74 59.16 370.95 61.05 371.08 63.36C371.21 65.68 371.29 67.74 371.33 69.53C371.37 71.33 371.39 73.59 371.39 76.31V78.63C371.43 85.28 371.45 93.2 371.45 102.39C371.49 113.16 371.56 119.55 371.67 121.57C371.78 123.59 372.18 125.1 372.88 126.09C372.95 126.16 372.99 126.25 372.99 126.36C372.99 126.84 372.41 127.6 371.25 128.65C370.09 129.7 368.59 130.74 366.76 131.76C366.32 132.02 365.57 132.62 364.5 133.58C363.43 134.53 362.04 135.67 360.31 137C358.58 138.32 356.69 139.57 354.63 140.75C351.62 142.44 349.39 143.29 347.96 143.29C347.44 143.29 347.19 143.12 347.19 142.79C347.19 142.35 347.61 141.72 348.46 140.92C349.31 140.11 350.39 139.28 351.71 138.44C353.03 137.59 354.31 136.23 355.54 134.33C356.77 132.43 357.55 130.46 357.88 128.4L358.32 76.47C358.32 65.04 356.63 59.33 353.25 59.33C353.1 59.33 352.9 59.38 352.64 59.47C352.38 59.56 352.12 59.65 351.84 59.72C351.56 59.79 351.31 59.86 351.07 59.91C350.83 59.97 350.63 59.96 350.46 59.88C350.3 59.81 350.21 59.66 350.21 59.44L350.22 59.45Z" fill="black"/>
<path d="M453.63 66.45C453.63 69.8 452.89 73.12 451.4 76.43C449.91 79.74 448 82.66 445.67 85.19C443.34 87.73 440.78 90 438.01 92C435.23 94 432.49 95.53 429.77 96.58C427.05 97.63 424.66 98.15 422.6 98.15C420.1 98.15 417.99 97.28 416.26 95.53C414.53 93.79 413.67 92.34 413.67 91.2C413.67 90.13 415.31 88.41 418.6 86.02C421.89 83.63 424.29 82.44 425.79 82.44C426.05 82.44 426.25 82.54 426.4 82.74C426.55 82.94 426.66 83.19 426.73 83.48C426.8 83.77 427.02 84.21 427.39 84.78C427.76 85.35 428.24 85.91 428.82 86.46C430.47 88 432.35 88.78 434.44 88.78C435.43 88.78 436.06 88.6 436.31 88.23C437.56 86.54 438.62 84.45 439.48 81.97C440.34 79.49 440.78 77.06 440.78 74.67C440.78 70.7 439 67.07 435.43 63.78C431.87 60.49 427.86 58.85 423.41 58.85C421.02 58.85 418.82 59.15 416.8 59.76C414.78 60.37 412.97 61.27 411.37 62.46C409.77 63.66 408.46 64.78 407.43 65.82C406.4 66.87 405.23 68.2 403.9 69.82C403.97 80.33 404.23 86.89 404.67 89.5C404.3 90.31 403.49 91.15 402.24 92.03C400.99 92.91 399.85 93.6 398.82 94.1C397.79 94.6 396.38 95.22 394.58 95.97C392.78 96.72 391.8 97.14 391.66 97.21C388.61 98.6 386.33 99.3 384.82 99.3C384.12 99.3 383.77 99.12 383.77 98.75C383.77 98.34 384.08 97.89 384.71 97.37C385.33 96.86 386.03 96.35 386.8 95.85C387.57 95.35 388.32 94.57 389.06 93.51C389.79 92.44 390.24 91.21 390.38 89.82C390.42 89.45 390.49 86.72 390.6 81.61C390.71 76.5 390.77 73.58 390.77 72.84C390.77 70.41 390.54 68.28 390.08 66.42C389.62 64.57 389.03 63.16 388.32 62.2C387.6 61.24 386.9 60.53 386.2 60.05C385.5 59.57 384.86 59.33 384.27 59.33C384.09 59.33 383.72 59.42 383.17 59.6C382.62 59.79 382.17 59.88 381.82 59.88C381.47 59.88 381.3 59.7 381.3 59.33C381.3 58.63 382.07 57.49 383.62 55.91C385.17 54.33 387.07 52.86 389.32 51.5C391.58 50.14 393.52 49.46 395.14 49.46C397.64 49.46 399.66 50.87 401.2 53.68C402.74 56.49 403.61 60.03 403.79 64.29C406.8 61.39 409.86 58.9 412.97 56.82C416.07 54.74 418.94 53.2 421.57 52.19C424.2 51.18 426.52 50.46 428.54 50.04C430.56 49.62 432.43 49.41 434.16 49.41C439.49 49.41 444.06 51.14 447.89 54.59C451.71 58.04 453.62 62 453.62 66.44L453.63 66.45Z" fill="black"/>
<path d="M174.22 15.19C174.55 14.93 174.91 14.79 175.3 14.79C175.69 14.79 176.05 14.93 176.38 15.21C176.71 15.49 177.55 16.3 178.88 17.63C180.21 19 181.37 20.18 182.35 21.16C183.19 22 183.61 22.67 183.61 23.16C183.61 23.41 183.54 23.67 183.4 23.95C183.26 24.23 183 24.58 182.61 25C182.22 25.42 181.83 25.83 181.43 26.21C181.03 26.6 180.41 27.19 179.59 27.97C178.76 28.76 178 29.51 177.3 30.21C176.46 31.05 175.77 31.47 175.25 31.47C175 31.47 174.74 31.4 174.46 31.26C174.18 31.12 173.83 30.86 173.41 30.47C172.99 30.08 172.59 29.69 172.2 29.29C171.81 28.89 171.23 28.27 170.44 27.45C169.65 26.63 168.9 25.86 168.2 25.16C167.32 24.28 166.88 23.62 166.88 23.16C166.88 22.67 167.32 22 168.2 21.16C169.08 20.28 170.13 19.23 171.36 18C172.94 16.39 173.9 15.45 174.23 15.18L174.22 15.19ZM182.96 0.39C183.29 0.13 183.65 0 184.04 0C184.43 0 184.77 0.12 185.07 0.37C185.37 0.62 186.32 1.55 187.94 3.16L191.1 6.32C191.17 6.39 191.27 6.49 191.39 6.61C191.51 6.73 191.6 6.82 191.65 6.87C191.7 6.92 191.78 7 191.89 7.11C192 7.22 192.07 7.29 192.1 7.35C192.13 7.4 192.18 7.47 192.23 7.56C192.28 7.65 192.32 7.73 192.34 7.8C192.36 7.87 192.37 7.95 192.39 8.04C192.41 8.13 192.42 8.22 192.42 8.33C192.42 8.72 192.24 9.12 191.89 9.54C191.54 9.96 190.56 10.98 188.94 12.59C187.78 13.71 186.82 14.66 186.04 15.43C185.2 16.27 184.53 16.69 184.04 16.69C183.79 16.69 183.53 16.62 183.25 16.48C182.97 16.34 182.62 16.08 182.2 15.69C181.78 15.31 181.38 14.91 180.99 14.51C180.6 14.11 180.02 13.49 179.23 12.67C178.44 11.85 177.69 11.08 176.99 10.38C176.11 9.5 175.67 8.82 175.67 8.33C175.67 7.84 176.11 7.17 176.99 6.33C177.87 5.45 178.92 4.4 180.15 3.17C181.69 1.59 182.63 0.67 182.97 0.4L182.96 0.39ZM191.75 15.16C192.05 14.91 192.39 14.79 192.78 14.79C193.17 14.79 193.52 14.91 193.83 15.16C194.14 15.41 195.11 16.35 196.73 18C197.96 19.23 199.01 20.28 199.89 21.16C200.73 22 201.15 22.67 201.15 23.16C201.15 23.41 201.08 23.67 200.94 23.95C200.8 24.23 200.54 24.58 200.15 25C199.76 25.42 199.37 25.83 198.97 26.21C198.57 26.6 197.95 27.19 197.13 27.97C196.31 28.76 195.54 29.51 194.84 30.21C194.42 30.63 194.15 30.9 194.02 31.03C193.89 31.16 193.73 31.26 193.52 31.35C193.31 31.44 193.06 31.48 192.78 31.48C192.39 31.48 192.02 31.32 191.65 31.01C191.28 30.69 190.11 29.55 188.15 27.59C187.17 26.61 186.36 25.8 185.73 25.17C184.85 24.29 184.41 23.63 184.41 23.17C184.41 22.68 184.85 22.01 185.73 21.17C186.75 20.15 187.92 18.98 189.26 17.64C190.63 16.24 191.46 15.41 191.76 15.17L191.75 15.16Z" fill="black"/>
<path d="M58.61 99.97C56.38 99.97 54.29 99.52 52.35 98.62C50.41 97.72 48.81 96.58 47.54 95.19C46.28 93.8 45.26 92.53 44.49 91.37C43.72 90.22 43.12 89.09 42.68 87.99C34.29 95.97 26.64 99.96 19.72 99.96C16.9 99.96 14.31 99.28 11.95 97.93C9.59 96.58 7.68 94.84 6.24 92.74C4.79 90.64 3.68 88.37 2.89 85.96C2.1 83.55 1.71 81.2 1.71 78.93C1.71 74.61 3.14 70.28 5.99 65.94C8.85 61.6 12.23 57.84 16.15 54.65C9.56 54.5 5.51 54.37 4.01 54.26C2.66 54.22 1.65 53.81 0.99 53.02C0.33 52.23 0 51.31 0 50.25C0 48.71 0.84 46.98 2.53 45.06C4.21 43.14 6.02 41.56 7.94 40.34C9.86 39.11 11.24 38.5 12.09 38.5C12.46 38.5 12.64 38.65 12.64 38.94C12.64 39.16 12.44 39.69 12.04 40.53C12.04 42.36 12.81 43.53 14.35 44.05C15.15 44.27 20.93 44.48 31.68 44.68C42.43 44.88 54.39 44.98 67.58 44.98C88.82 44.98 105.48 44.72 117.56 44.21C119.46 43.55 120.51 43.5 120.69 44.05C121.93 43.94 123.21 43.56 124.51 42.92C125.81 42.28 126.97 41.96 128 41.96C128.11 42.11 128.16 42.29 128.16 42.51C128.16 43.5 126.96 44.91 124.56 46.74C122.16 48.57 119.84 49.98 117.61 50.97C117.1 55 116.84 62.18 116.84 72.5C116.84 80.85 117.1 85.9 117.61 87.66C117.79 88.32 118.03 88.8 118.32 89.09C118.61 89.38 118.86 89.53 119.06 89.53C119.26 89.53 119.44 89.56 119.61 89.61C119.77 89.66 119.86 89.82 119.86 90.08C119.86 91.33 118.37 93.36 115.38 96.18C112.4 99 110.23 100.41 108.87 100.41C106.09 100.41 104.7 96.4 104.7 88.38C103.82 89.26 102.6 90.51 101.05 92.12C99.49 93.73 98.36 94.89 97.64 95.58C96.92 96.28 96.06 97.06 95.06 97.94C94.06 98.82 93.23 99.43 92.59 99.78C91.95 100.13 91.35 100.3 90.8 100.3C89.52 100.3 88.55 99.16 87.89 96.87C87.23 94.58 86.77 90.75 86.52 85.36C85.09 86.9 83.47 88.43 81.66 89.95C79.85 91.47 77.72 93.03 75.29 94.62C72.85 96.21 70.17 97.51 67.24 98.49C64.31 99.48 61.44 99.97 58.62 99.97H58.61ZM22.47 87.58C24.92 89.61 27.5 90.63 30.21 90.63C32.92 90.63 34.91 90.07 36.2 88.96C37.48 87.84 39.13 85.6 41.14 82.23C41.1 81.83 41.09 81.24 41.09 80.47C41.09 77.73 41.59 74.97 42.6 72.2C43.61 69.44 44.92 66.94 46.55 64.7C48.18 62.47 49.73 60.56 51.19 58.99C52.65 57.42 54.14 56.01 55.64 54.76C52.67 54.8 48.17 54.82 42.13 54.82C36.82 54.82 30.06 54.78 21.86 54.71C20.03 56.47 18.35 58.81 16.83 61.74C15.31 64.67 14.55 67.69 14.55 70.8C14.55 73.91 15.25 76.89 16.67 79.95C18.08 83.01 20.01 85.55 22.46 87.58H22.47ZM53.89 71.73C53.89 74.66 54.61 77.59 56.06 80.52C57.51 83.45 59.45 85.87 61.88 87.77C64.31 89.67 66.83 90.63 69.43 90.63C71.19 90.63 72.86 90.4 74.46 89.94C76.05 89.48 77.2 88.98 77.89 88.43C78.99 87.59 80.15 86.34 81.38 84.67C82.61 83 83.46 81.74 83.93 80.88C84.41 80.02 85.19 78.6 86.29 76.62C86.29 63.88 86.42 56.88 86.67 55.64C86.74 55.17 86.94 54.67 87.27 54.16C79.18 54.42 70.59 54.6 61.51 54.71C59.64 56.54 57.9 59.02 56.29 62.15C54.68 65.28 53.87 68.48 53.87 71.73H53.89ZM104.42 69.92C104.42 65.67 104.5 62.31 104.67 59.81C104.83 57.32 104.97 55.83 105.08 55.33C105.19 54.83 105.39 54.24 105.68 53.55L98.76 53.82C98.8 55.61 98.81 58.14 98.81 61.4C98.81 64 98.78 67.16 98.73 70.87C98.67 74.59 98.65 77.03 98.65 78.2C98.65 83.25 99.07 86.6 99.91 88.25L104.58 83.52C104.47 77.96 104.42 73.41 104.42 69.9V69.92Z" fill="black"/>
<path d="M45.56 36.66C45.28 36.52 44.94 36.26 44.52 35.88C44.1 35.5 43.71 35.11 43.32 34.71C42.94 34.31 42.36 33.71 41.58 32.89C40.8 32.08 40.06 31.32 39.37 30.63C38.5 29.77 38.07 29.11 38.07 28.66C38.07 28.17 38.5 27.51 39.37 26.68C40.24 25.82 41.27 24.78 42.49 23.56C44.05 21.97 44.99 21.04 45.32 20.78C45.65 20.52 46 20.39 46.38 20.39C46.76 20.39 47.12 20.53 47.44 20.81C47.76 21.09 48.59 21.88 49.91 23.2C51.23 24.55 52.37 25.71 53.34 26.68C54.17 27.51 54.59 28.17 54.59 28.66C54.59 28.9 54.52 29.16 54.38 29.44C54.24 29.72 53.98 30.06 53.6 30.48C53.22 30.9 52.83 31.3 52.43 31.67C52.03 32.05 51.43 32.63 50.61 33.41C49.79 34.19 49.04 34.93 48.35 35.62C47.52 36.45 46.84 36.87 46.32 36.87" fill="black"/>
<path d="M53.95 6.17998C54.28 5.91998 54.63 5.78998 55.01 5.78998C55.39 5.78998 55.73 5.90998 56.02 6.14998C56.31 6.38998 57.26 7.30998 58.85 8.90998L61.97 12.03C62.04 12.1 62.13 12.19 62.26 12.31C62.38 12.43 62.47 12.52 62.52 12.57C62.57 12.62 62.65 12.7 62.75 12.8C62.85 12.9 62.92 12.98 62.96 13.03C62.99 13.08 63.04 13.15 63.09 13.24C63.14 13.33 63.18 13.41 63.19 13.48C63.21 13.55 63.22 13.63 63.24 13.71C63.26 13.79 63.27 13.89 63.27 13.99C63.27 14.37 63.1 14.77 62.75 15.19C62.4 15.61 61.43 16.61 59.84 18.2C58.7 19.31 57.74 20.24 56.98 21.01C56.15 21.84 55.49 22.26 55.01 22.26C54.77 22.26 54.51 22.19 54.23 22.05C53.95 21.91 53.61 21.65 53.19 21.27C52.77 20.89 52.38 20.5 51.99 20.1C51.61 19.7 51.03 19.1 50.25 18.28C49.47 17.47 48.73 16.71 48.04 16.02C47.17 15.15 46.74 14.48 46.74 13.99C46.74 13.5 47.17 12.85 48.04 12.02C48.91 11.15 49.94 10.11 51.16 8.89998C52.68 7.33998 53.61 6.42998 53.94 6.16998L53.95 6.17998Z" fill="black"/>
<path d="M62.53 36.4C62.17 36.09 61.01 34.96 59.07 33.02C58.1 32.05 57.3 31.25 56.68 30.63C55.81 29.77 55.38 29.11 55.38 28.66C55.38 28.17 55.81 27.51 56.68 26.68C57.68 25.68 58.84 24.52 60.16 23.2C61.51 21.81 62.33 21 62.63 20.76C62.93 20.52 63.26 20.4 63.64 20.4C64.02 20.4 64.37 20.52 64.68 20.76C64.99 21 65.94 21.94 67.54 23.56C68.75 24.77 69.79 25.81 70.66 26.68C71.49 27.51 71.91 28.17 71.91 28.66C71.91 28.9 71.84 29.16 71.7 29.44C71.56 29.72 71.3 30.06 70.92 30.48C70.54 30.9 70.15 31.3 69.75 31.67C69.35 32.05 68.74 32.63 67.93 33.41C67.12 34.19 66.36 34.93 65.67 35.62C65.25 36.04 64.99 36.31 64.86 36.43" fill="black"/>
<path d="M137.52 44.19C137.52 42.89 140.09 40.88 145.25 38.17C150.4 35.46 154.11 34.11 156.37 34.11C156.54 34.11 157.24 34.23 158.45 34.47C159.66 34.71 161.39 34.99 163.62 35.3C165.85 35.61 168.21 35.84 170.7 36C174.52 36.24 184.1 36.37 199.45 36.37C208.6 36.37 214.66 36.28 217.64 36.1C220.62 35.92 224.28 35.42 228.63 34.6C230.14 34.31 230.89 34.44 230.89 34.96C230.89 36.02 228.89 37.75 224.9 40.16C220.91 42.57 217.29 44.15 214.04 44.93C209.06 46.11 200.14 46.7 187.29 46.7C181.67 46.7 174.64 46.58 166.19 46.34C157.74 46.1 152.99 45.97 151.95 45.97C149.81 45.97 146.87 45.79 143.13 45.42C139.4 45.05 137.53 44.65 137.53 44.2L137.52 44.19Z" fill="black"/>
<path d="M361.51 24.43C361.94 24.06 362.35 23.88 362.73 23.88C363.11 23.88 363.52 24.06 363.95 24.43C364.38 24.8 365.15 25.57 366.27 26.75C367.39 27.93 368.49 29.03 369.57 30.05C370.4 30.85 370.81 31.5 370.81 32.01C370.81 32.46 370.6 32.92 370.19 33.4C369.78 33.88 368.98 34.66 367.8 35.74C366.62 36.83 365.57 37.86 364.64 38.85C363.84 39.68 363.19 40.09 362.68 40.09C362.27 40.09 361.83 39.88 361.37 39.47C360.91 39.06 360.14 38.27 359.07 37.1C358 35.94 356.94 34.88 355.89 33.92C355.03 33.12 354.6 32.48 354.6 32.01C354.6 31.54 355.03 30.88 355.89 30.05C356.97 29.03 358.07 27.93 359.19 26.75C360.31 25.57 361.08 24.8 361.51 24.43Z" fill="black"/>
<path d="M313.27 11.64C311.04 11.34 308.6 12.25 305.95 14.38C303.3 16.51 300.8 19.2 298.46 22.46C296.12 25.72 293.9 28.98 291.79 32.27C289.68 35.56 287.79 38.33 286.11 40.59C284.42 42.86 283.18 43.93 282.38 43.82C281.98 43.77 281.82 43.43 281.9 42.81C282.14 41.02 285.12 35.79 290.85 27.12C292.3 24.9 293.77 22.8 295.25 20.83C296.73 18.86 298.37 16.77 300.18 14.58C301.98 12.39 303.8 10.44 305.63 8.73999C307.46 7.03999 309.33 5.50999 311.22 4.13999C313.12 2.77999 315.05 1.78999 317.01 1.15999C318.97 0.529994 320.85 0.339994 322.64 0.589994C325.71 1.00999 328.12 2.48999 329.87 5.02999C331.62 7.57999 332.3 10.35 331.89 13.34C331.59 15.57 330.57 17.56 328.84 19.32C327.11 21.07 325.16 22.4 323 23.29C320.83 24.19 318.76 24.84 316.79 25.24C314.82 25.64 313.29 25.77 312.19 25.62C311.5 25.53 311.17 25.33 311.21 25.04C311.29 24.46 312.27 23.71 314.17 22.79C316.06 21.87 317.03 21.38 317.08 21.32C317.7 20.59 318.08 19.71 318.22 18.69C318.44 17.08 318.06 15.56 317.08 14.13C316.1 12.69 314.83 11.87 313.26 11.66L313.27 11.64Z" fill="black"/>
<path d="M249.3 42.89C249.3 41.77 251.88 40.05 257.06 37.72C262.23 35.39 265.95 34.23 268.22 34.23C268.39 34.23 269.09 34.33 270.31 34.54C271.53 34.75 273.26 34.99 275.5 35.25C277.74 35.51 280.11 35.71 282.6 35.85C286.43 36.06 296.05 36.16 311.45 36.16C320.63 36.16 326.72 36.08 329.71 35.92C332.7 35.76 336.38 35.33 340.74 34.63C342.25 34.39 343.01 34.49 343.01 34.94C343.01 35.85 341.01 37.34 337 39.4C332.99 41.46 329.36 42.83 326.11 43.49C321.11 44.5 312.16 45.01 299.27 45.01C293.63 45.01 286.57 44.91 278.09 44.7C269.61 44.49 264.84 44.38 263.8 44.38C261.65 44.38 258.7 44.22 254.95 43.91C251.2 43.6 249.33 43.25 249.33 42.86L249.3 42.89Z" fill="black"/>
</svg>
