<svg width="679" height="215" viewBox="0 0 679 215" fill="none" xmlns="http://www.w3.org/2000/svg">
<path fill-rule="evenodd" clip-rule="evenodd" d="M272.999 0C273.999 0 275 0 276 0C279.666 3.666 283.333 7.333 286.999 11C283.333 14.666 279.666 18.333 276 22C275 22 273.999 22 272.999 22C270 18.667 266.999 15.333 264 12C266.999 8 270 3.999 272.999 0ZM478 1C482.332 2.666 486.667 4.333 491 6C495.293 16.159 495.102 22.398 488.999 31C483.39 33.496 474.431 39.492 466 35.999C470.226 32.16 473.948 31.517 477 26C476.666 24.333 476.333 22.666 475.999 21C474.333 19.333 472.666 17.666 471 16C451.26 16.791 438.134 39.731 430 52.999C458.64 53.231 489.136 54.617 513 50C512 52.333 510.999 54.666 509.999 56.999C476.598 71.715 413.981 63.7 371 63C379.746 35.77 409.426 63.45 423.999 50.999C445.714 32.44 447.977 15.714 478 1ZM79.999 7C80.999 7 82 7 83 7C86.332 10.332 89.666 13.667 92.999 17C92.999 17.999 92.999 19 92.999 20C89.666 22.999 86.332 26 83 29C82 29 80.999 29 79.999 29C77 25.667 73.999 22.333 70.999 19C70.999 18 70.999 16.999 70.999 16C73.999 13 77 9.999 79.999 7ZM259.999 23C266.961 24.425 271.551 29.57 272.999 35.999C268.422 39.614 266.968 43.541 259.999 45C256.667 41.333 253.332 37.666 250 33.999C253.332 30.333 256.667 26.666 259.999 23ZM286.999 23C287.999 23 289 23 289.999 23C293.332 26.333 296.666 29.667 300 33C300 33.999 300 35 300 35.999C296.666 38.999 293.332 42 289.999 45C289 45 287.999 45 286.999 45C284 41.667 280.999 38.333 278 35C278 34 278 32.999 278 31.999C280.999 29 284 25.999 286.999 23ZM66.999 29.999C72.916 31.719 76.819 36.578 79.999 41C76.667 44.666 73.332 48.333 70 52C68.666 52 67.333 52 65.999 52C63 48.667 59.999 45.333 56.999 42C59.128 36.83 62.909 33.787 66.999 29.999ZM93.999 29.999C100.459 31.452 103.754 35.466 106.999 40C106.999 40.999 106.999 42 106.999 43C102.422 46.614 100.968 50.541 93.999 52C90.667 48.333 87.332 44.666 84 41C87.332 37.333 90.667 33.666 93.999 29.999ZM539.999 33.999C540.999 33.999 542 33.999 543 33.999C546.666 37.666 550.333 41.333 553.999 45C553.999 45.999 553.999 47 553.999 48C550.333 51.333 546.666 54.667 543 58C542.333 58 541.666 58 540.999 58C537.333 54 533.666 49.999 530 46C533.333 42 536.667 37.999 539.999 33.999ZM216.999 50C255.586 51.466 307.734 57.372 345.999 50C345.999 51.333 345.999 52.666 345.999 54C342 56.999 337.999 60 334 63C319.424 68.34 212.895 67.546 203.999 61C208.332 57.333 212.667 53.666 216.999 50ZM14.999 54.999C16.869 57.623 15.212 60.317 19 63C33.998 63.666 49.1 64.333 63.999 65C105.548 65 152.398 66.304 187.999 61C187.999 61.333 187.999 61.666 187.999 62C187.333 62.666 186.666 63.333 185.999 63.999C181.333 67.666 176.666 71.333 171.999 75C171.41 93.539 167.566 123.593 176 135.999C170.95 142.28 168.77 147.376 157.999 147.999C157 143.667 155.999 139.332 155 134.999C150.333 139.332 145.666 143.667 141 147.999C139 147.666 136.999 147.333 135 147C134 140 132.999 132.999 131.999 126C114.316 140.166 82.91 162.838 66.999 130C65 131.999 62.999 134 61 135.999C53 139.999 44.999 144 36.999 147.999C14.967 152.8 0.768 125.804 6.999 103.999C10.896 93.62 20.376 86.306 27 78C18.334 77.333 9.665 76.666 0.999 75.999C0.666 75.333 0.333 74.666 0 73.999C0.333 72 0.666 69.999 0.999 67.999C4.8 61.364 9.558 59.192 14.999 54.999ZM202.999 75C205.333 75.333 207.666 75.666 209.999 75.999C217.865 79.898 216.541 86.722 220 94.999C222.333 92.666 224.666 90.333 227 88C237.244 83.169 251.421 69.488 269 75.999C274.234 77.939 282.332 92.133 286 92C294.529 80.822 319.541 67.707 336 80C365.81 101.718 331.898 147.624 302.999 147.999C297.629 145.355 295.688 143.325 293 137.999C297.789 133.4 301.824 128.745 309.999 126.999C320.135 149.466 335.62 118.916 328 103C321.453 88.244 295.202 79.635 286.999 99C278.556 122.157 272.419 153.166 239.999 147C237.666 144.333 235.333 141.666 233 139C236.305 133.215 241.87 130.105 246.999 126.999C247.999 126.999 249 126.999 250 126.999C251.999 129.666 254 132.333 256 134.999C260.513 134.784 261.39 134.292 264 132.999C270.767 114.1 268.8 78.52 237.999 88C216.276 95.184 224.831 114.287 220 135.999C215.338 142.947 201.32 148.811 191 149.999C193.504 143.698 200.89 143.194 201.999 136.999C207.471 119.262 201.56 97.42 194.999 88C192.666 88 190.333 88 187.999 88C187.999 87.666 187.999 87.333 187.999 86.999C192.999 83 198 78.999 202.999 75ZM371 75C372.999 75.333 375 75.666 377 75.999C383.548 79.284 385.71 87.266 386 96C403.449 82.33 434.746 60.999 451 92C451.666 91.333 452.333 90.666 452.999 90C470.39 81.208 501.17 62.334 511.999 92.999C522.102 121.606 491.87 151.783 466.999 147C464.666 144.666 462.333 142.333 459.999 139.999C459.999 139 459.999 137.999 459.999 136.999C474.62 125.87 472.787 129.6 487.999 135.999C511.55 108.106 483.701 73.32 452.999 98C453.343 121.445 416.486 167.655 401.999 141.999C400.398 140.15 400.702 140.61 400 136.999C405.274 132.954 408.151 128.77 415.999 126.999C418.937 131.926 420.369 134.431 428 134.999C455.284 109.492 411.375 63.364 386 107C392.385 132.291 379.911 170.757 388.999 193.999C383.567 202.606 368.42 213.802 356 214.999C356 214.666 356 214.333 356 213.999C357.333 212.333 358.666 210.666 359.999 208.999C375.985 200.958 370.583 99.965 362 88C359.666 88 357.333 88 355 88C359.44 80.972 364.247 79.275 371 75ZM540.999 75C547.913 75.413 550.828 76.288 552.999 81C554.333 118.662 555.666 156.337 557 193.999C545.142 200.701 537.838 212.78 522 214.999C523.666 212.666 525.333 210.333 527 207.999C542.262 200.758 542.864 104.907 532.999 88C530.666 88.333 528.333 88.666 525.999 88.999C525.999 88.666 525.999 88.333 525.999 88C529.82 81.454 535.223 79.467 540.999 75ZM587 75C589.333 75.333 591.666 75.666 594 75.999C601.943 79.791 601.576 87.785 603.999 96.999C606.333 94.666 608.666 92.333 610.999 90C628.179 82.129 660.436 62.358 675 88.999C690.872 118.34 652.438 153.103 625.999 145.999C624.333 143.666 622.666 141.333 621 139C621.747 134.545 622.249 134.795 624 132C627.999 130 632 127.999 636 126C640.34 130.238 642.382 132.579 647.999 135.999C672.571 126.463 658.328 90.123 637 86.999C624.108 85.112 606.892 97.628 603.999 105.999C603.999 115.999 603.999 126 603.999 135.999C599.338 142.947 585.32 148.811 574.999 149.999C577.504 143.698 584.89 143.194 586 136.999C591.471 119.262 585.56 97.42 579 88C576.666 88 574.333 88 572 88C572 87.666 572 87.333 572 86.999C576.999 83 582 78.999 587 75ZM126 77C112.435 81.979 98.43 77.44 88.999 84C78.43 107.901 81.9 142.757 116.999 132.999C121.999 126 127 118.999 131.999 111.999C132.333 100.334 132.666 88.665 133 77C130.666 77 128.333 77 126 77ZM148 77C147.763 94.525 145.71 117.785 149.999 132C151.666 130.666 153.333 129.333 155 128C155.333 111.1 155.666 93.998 156 77C153.333 77 150.666 77 148 77ZM35.999 78C21.67 92.225 16.545 124.76 40 133.999C67.76 141.91 62.121 108.242 71.999 92.999C76.666 88 81.333 82.999 85.999 78C69.334 78 52.664 78 35.999 78Z" fill="black"/>
</svg>
