<svg width="661" height="165" viewBox="0 0 661 165" fill="none" xmlns="http://www.w3.org/2000/svg">
<path d="M74.2991 41.16C82.2715 41.16 88.2474 45.4573 92.2533 54.0519C101.132 45.4965 109.59 41.2253 117.641 41.2253C119.979 41.2253 122.199 41.7216 124.3 42.7012C126.402 43.6809 128.188 44.974 129.646 46.5414C131.117 48.1219 132.378 49.8852 133.455 51.8576C134.519 53.8299 135.32 55.8153 135.832 57.8268C136.344 59.8383 136.607 61.7453 136.607 63.5609C136.607 68.4068 134.978 73.2528 131.734 78.0725C128.49 82.9054 124.694 86.9937 120.386 90.3376C121.779 90.3376 123.394 90.3376 125.233 90.3637C127.072 90.3898 128.254 90.3898 128.766 90.3898C130.552 90.3898 131.905 90.2984 132.837 90.0894C133.77 89.8935 134.716 89.5016 135.661 88.9008C138.984 86.6933 141.401 85.5961 142.911 85.5961C143.384 85.5961 143.62 85.7529 143.62 86.0664C143.62 87.686 139.969 90.7947 132.68 95.4055C128.753 97.8873 125.719 99.52 123.578 100.278C121.437 101.035 119.48 101.427 117.694 101.427C113.097 101.427 104.783 101.231 92.7524 100.839C80.7216 100.447 70.7004 100.251 62.7018 100.251C56.5551 100.251 50.7104 100.33 45.1679 100.487V128.922C44.8527 130.137 43.4867 131.9 41.0701 134.186C38.6534 136.472 36.3943 138.091 34.2929 139.032C30.2082 140.926 26.8591 142.977 24.2454 145.184C21.6317 147.391 18.3351 151.114 14.3817 156.352C12.9107 158.246 10.6648 160.061 7.63086 161.786C4.5969 163.523 2.36412 164.385 0.945649 164.385C0.315216 164.385 0 164.202 0 163.849C0 163.497 0.341484 162.765 1.01132 161.668C1.68115 160.571 2.74501 159.134 4.18975 157.384C5.63449 155.633 7.23684 153.962 8.97053 152.394C9.75857 151.689 10.4021 150.252 10.875 148.11C11.3478 145.955 11.7943 140.443 12.2146 131.561C12.6349 122.665 12.8451 110.231 12.8451 94.23C12.8451 84.4598 12.7269 76.7794 12.4904 71.2021C12.254 65.6247 11.7024 61.262 10.8224 58.1011C9.75857 54.1956 8.16936 52.2494 6.06791 52.2494C5.8315 52.2494 5.55569 52.3017 5.24047 52.3931C4.92525 52.4976 4.63631 52.589 4.37363 52.6935C4.11095 52.798 3.8614 52.8764 3.59872 52.9286C3.33604 52.9809 3.13903 52.9809 3.00769 52.9025C2.86321 52.8241 2.79754 52.6674 2.79754 52.4323C2.79754 51.6094 3.54618 50.251 5.05659 48.3831C6.56701 46.5153 8.48457 44.7519 10.8224 43.1192C13.1603 41.4865 15.2617 40.6636 17.1268 40.6636C18.1512 40.6636 19.0706 40.9379 19.8586 41.4865C20.6467 42.0351 21.2902 42.6882 21.7893 43.4327C22.2884 44.1772 22.735 45.196 23.1553 46.4761C23.5756 47.7562 23.8776 48.8664 24.0746 49.7807C24.2717 50.7081 24.5081 51.8967 24.7839 53.3597C24.9021 53.9474 24.9809 54.3915 25.0203 54.6658C25.4931 54.3132 26.3731 53.6993 27.634 52.8372C28.908 51.9751 29.9193 51.2698 30.6679 50.7342C31.4166 50.1987 32.4541 49.4281 33.7544 48.4223C35.0547 47.4165 36.3943 46.3585 37.734 45.2614C40.8599 42.5445 43.119 41.1861 44.5112 41.1861C44.787 41.1861 45.0103 41.2644 45.1679 41.4212V56.4945C49.2131 52.1972 53.8626 48.566 59.1425 45.5879C64.4092 42.6098 69.4658 41.1208 74.2991 41.1208V41.16ZM26.3206 100.748C26.3206 118.015 25.8609 130.999 24.9546 139.711C26.4256 138.653 28.8948 136.994 32.3885 134.748C32.4673 121.973 32.5067 105.463 32.5067 85.2043C32.5067 69.1252 32.4804 58.9501 32.441 54.705C30.8518 55.9328 28.5139 57.6178 25.4274 59.7861C26.0185 72.4429 26.3206 86.0925 26.3206 100.761V100.748ZM80.1175 71.4894C80.1175 68.3807 79.3557 65.2459 77.8322 62.1241C76.3086 58.9893 74.2203 56.39 71.5541 54.3262C68.901 52.2625 66.0904 51.2175 63.1089 51.2175C61.2833 51.2175 59.4971 51.4657 57.7634 51.962C56.0166 52.4584 54.7163 53.0592 53.8363 53.7646C51.3803 55.8153 48.4908 59.9167 45.1547 66.0557V91.4739C48.8454 90.847 57.632 90.3898 71.5541 90.1155C74.0496 87.7121 76.0985 84.8255 77.7008 81.4555C79.3032 78.0856 80.1043 74.7679 80.1043 71.4894H80.1175ZM105.913 51.2175C102.984 51.2175 100.764 51.8053 99.28 52.9678C97.7959 54.1303 95.9834 56.5598 93.8425 60.2693C93.8819 60.7004 93.9082 61.3535 93.9082 62.2155C93.9082 65.0891 93.4091 67.9758 92.3978 70.8494C91.3865 73.723 90.0468 76.3484 88.3788 78.7126C86.7107 81.0768 85.0296 83.1797 83.3222 85.0084C81.6148 86.837 79.8285 88.5089 77.9766 89.998C87.0522 89.998 99.1355 90.1025 114.24 90.2984C116.538 88.2477 118.521 85.6353 120.189 82.4613C121.857 79.2873 122.685 76.061 122.685 72.7956C122.685 67.2835 120.925 62.307 117.392 57.866C113.859 53.438 110.037 51.2175 105.913 51.2175Z" fill="black"/>
<path d="M191.341 48.8029C195.118 48.8029 198.474 49.7758 201.435 51.7216C204.396 53.6674 206.791 56.5073 208.607 60.2279C217.03 52.6551 224.834 48.8687 232.02 48.8687C234.876 48.8687 237.534 49.4866 239.969 50.7093C242.417 51.9451 244.391 53.5097 245.891 55.4423C247.404 57.3618 248.576 59.426 249.405 61.5953C250.234 63.7777 250.655 65.8813 250.655 67.906C250.655 71.837 249.221 75.847 246.365 79.9227C243.509 84.0115 240.127 87.4955 236.244 90.4011C237.797 90.4011 239.574 90.4011 241.574 90.4274C243.575 90.4537 244.864 90.4537 245.417 90.4537C247.404 90.4537 248.839 90.3616 249.734 90.1907C250.629 90.0198 251.55 89.5991 252.498 88.968C255.867 86.7461 258.275 85.6418 259.709 85.6418C260.183 85.6418 260.42 85.7995 260.42 86.1151C260.42 87.7453 256.762 90.8744 249.457 95.5154C243.061 99.5648 238.179 101.589 234.81 101.589C230.046 101.589 220.886 101.366 207.318 100.932C193.762 100.498 183.01 100.275 175.061 100.275C165.888 100.275 157.176 100.538 148.911 101.05C145.898 102.326 143.713 102.957 142.357 102.957C141.607 102.957 141.226 102.76 141.226 102.365C141.226 101.971 141.528 101.497 142.147 100.932C142.765 100.38 143.476 99.8277 144.292 99.2624C145.108 98.7102 145.608 98.3158 145.806 98.066C146.793 96.8433 147.411 95.8047 147.648 94.9764C148.082 93.3067 148.345 87.8505 148.424 78.6079C148.622 55.3634 148.74 42.2687 148.78 39.3368C148.78 39.0213 148.806 37.8643 148.872 35.8528C148.938 33.8544 148.964 32.1189 148.964 30.6464C148.964 17.3545 147.135 10.7151 143.489 10.7151C143.331 10.7151 143.094 10.7677 142.779 10.8597C142.463 10.9649 142.16 11.0438 141.884 11.1226C141.607 11.2015 141.331 11.2673 141.055 11.333C140.778 11.3987 140.554 11.3856 140.397 11.3067C140.239 11.2278 140.16 11.0701 140.16 10.8334C140.16 10.084 141.002 8.83501 142.686 7.11271C144.371 5.39041 146.464 3.77329 148.938 2.26134C151.425 0.749398 153.557 0 155.347 0C156.136 0 156.86 0.157768 157.518 0.473304C158.176 0.78884 158.834 1.36732 159.479 2.19561C160.124 3.02389 160.716 4.29918 161.243 6.00833C161.756 7.71749 162.151 9.83421 162.44 12.3716C162.875 16.3421 163.138 33.197 163.217 62.9494C164.77 61.3981 166.507 59.873 168.428 58.361C170.35 56.8491 172.561 55.3503 175.035 53.8383C177.522 52.3264 180.194 51.1168 183.05 50.1834C185.906 49.2499 188.669 48.7898 191.328 48.7898L191.341 48.8029ZM180.023 58.8606C178.272 58.8606 176.693 59.0447 175.285 59.426C173.877 59.8072 172.666 60.2674 171.653 60.8196C170.639 61.3718 169.613 62.2132 168.56 63.3439C167.507 64.4745 166.639 65.5132 165.941 66.4729C165.244 67.4195 164.335 68.7737 163.23 70.5223C163.309 81.7107 163.467 88.4947 163.704 90.8744C170.218 90.4011 178.838 90.0987 189.551 89.9804C193.92 85.6155 196.105 80.9744 196.105 76.0573C196.105 71.4558 194.381 67.4327 190.92 64.0012C187.458 60.5698 183.826 58.8475 180.023 58.8475V58.8606ZM220.768 58.8606C220.057 58.8606 219.373 58.8869 218.741 58.9527C218.109 59.0184 217.504 59.1367 216.951 59.3339C216.398 59.5311 215.911 59.6889 215.49 59.8072C215.069 59.9256 214.648 60.1622 214.214 60.5172C213.779 60.8722 213.437 61.1351 213.2 61.2929C212.963 61.4507 212.648 61.7662 212.253 62.2132C211.858 62.6734 211.595 62.9626 211.476 63.1072C211.358 63.2518 211.095 63.5805 210.674 64.1196C210.252 64.6586 210.029 64.961 209.989 65.0399C210.029 65.9865 210.055 66.6833 210.055 67.1172C210.055 71.0088 208.66 74.9924 205.883 79.0812C203.106 83.1701 199.763 86.7724 195.881 89.9146C202.396 89.9146 208.976 89.9804 215.622 90.0987C222.268 90.217 227.124 90.2959 230.191 90.3354C231.414 89.0601 232.428 87.9294 233.231 86.9433C234.02 85.9573 234.823 84.5111 235.613 82.631C236.402 80.7509 236.81 78.792 236.81 76.7673C236.81 72.5207 235.139 68.4713 231.809 64.6323C228.48 60.7801 224.795 58.8606 220.794 58.8606H220.768Z" fill="black"/>
<path d="M310.533 47.5851C312.418 47.5851 314.117 47.899 315.643 48.5268C317.169 49.1546 318.403 49.9656 319.372 50.9596C320.327 51.9406 321.137 53.1046 321.774 54.4257C322.411 55.7467 322.875 57.0547 323.154 58.3365C323.433 59.6183 323.579 60.887 323.579 62.1557C323.579 64.7978 322.968 67.5968 321.747 70.5266C320.526 73.4695 318.828 76.4124 316.638 79.3422C314.448 82.2851 312.338 84.9272 310.268 87.2815C308.211 89.6358 305.822 92.2517 303.115 95.1292C300.408 98.0067 298.457 100.178 297.263 101.643C293.613 106.064 290.388 110.628 287.588 115.35C284.788 120.072 283.382 124.127 283.382 127.514C283.382 129.842 284.536 132 286.832 134.002C289.141 135.99 291.344 136.997 293.467 136.997C294.502 136.997 295.458 136.827 296.32 136.5C297.183 136.16 297.82 135.833 298.245 135.493C298.669 135.153 299.359 134.551 300.315 133.662C301.27 132.772 302.014 132.092 302.531 131.621C304.814 129.646 306.499 128.665 307.574 128.665C307.972 128.665 308.171 128.861 308.171 129.254C308.171 129.882 307.68 130.889 306.698 132.275C305.716 133.662 304.323 135.179 302.518 136.866C300.713 138.54 298.736 140.149 296.573 141.692C294.41 143.236 291.981 144.518 289.274 145.538C286.567 146.558 283.979 147.081 281.497 147.081C278.538 147.081 275.764 145.969 273.203 143.733C270.642 141.509 269.354 139.09 269.354 136.487C269.354 134.159 270.058 131.36 271.451 128.077C272.858 124.794 274.543 121.681 276.521 118.725C278.498 115.769 280.289 113.244 281.869 111.152C283.448 109.059 284.695 107.516 285.624 106.535C281.019 92.0948 275.698 79.6823 269.646 69.2971C266.368 63.6991 263.263 60.887 260.33 60.887C259.932 60.887 259.415 60.9916 258.764 61.214C258.127 61.4363 257.703 61.541 257.504 61.541C257.145 61.541 256.959 61.3186 256.959 60.887C256.959 60.3376 257.411 59.3959 258.313 58.0749C259.216 56.7538 260.33 55.3805 261.644 53.9548C262.958 52.5291 264.524 51.2866 266.329 50.201C268.133 49.1154 269.792 48.5791 271.318 48.5791C272.194 48.5791 273.097 48.7884 273.986 49.2069C274.875 49.6255 275.724 50.2141 276.507 50.9858C277.29 51.7575 278.02 52.5422 278.697 53.3532C279.374 54.1641 280.024 55.0797 280.648 56.0999C281.271 57.1332 281.762 57.9833 282.147 58.6765C282.532 59.3697 282.904 60.1022 283.289 60.9001C283.673 61.6848 283.886 62.1295 283.926 62.208C293.175 52.503 302.027 47.6505 310.48 47.6505L310.533 47.5851ZM309.578 71.2591C309.578 67.8191 308.596 64.6931 306.632 61.881C304.668 59.0558 302.146 57.6433 299.068 57.6433C296.506 57.6433 294.343 58.2318 292.578 59.3959C290.813 60.56 288.57 62.7574 285.85 66.0011C290.574 76.1508 294.264 85.555 296.904 94.2398C300.992 89.662 304.124 85.5812 306.3 81.9843C308.476 78.3874 309.578 74.8167 309.578 71.2721V71.2591Z" fill="black"/>
<path d="M538.795 94.2918C538.795 97.1509 537.739 100.208 535.628 103.449C533.516 106.69 530.665 109.747 527.049 112.606C523.446 115.465 519.46 118.073 515.105 120.419C510.75 122.764 506.104 124.622 501.181 125.992C496.258 127.362 491.626 128.047 487.297 128.047C484.077 128.047 480.843 127.705 477.623 127.033C474.402 126.361 471.275 125.307 468.279 123.871C465.27 122.434 462.617 120.708 460.307 118.679C457.997 116.65 456.15 114.16 454.751 111.196C453.352 108.231 452.665 105.03 452.665 101.565C452.665 98.3498 453.088 95.1746 453.919 92.052C454.751 88.9294 455.965 86.0177 457.536 83.3167C459.106 80.6158 460.782 78.0729 462.551 75.7145C464.319 73.3561 466.365 71.0636 468.675 68.8501C470.984 66.6499 473.069 64.7658 474.917 63.2111C476.765 61.6564 478.784 60.0753 480.975 58.4416C476.435 58.0463 472.212 57.8487 468.305 57.8487C465.124 57.8487 462.076 57.9673 459.159 58.2044C456.255 58.4416 453.919 58.6788 452.164 58.8896C450.409 59.1135 449.34 59.2189 448.944 59.2189C448.429 59.2189 448.165 59.1267 448.165 58.9159C448.165 57.8092 449.736 55.9778 452.89 53.435C456.031 50.8921 459.027 49.3769 461.851 48.9026C467.381 48.033 473.36 47.5851 479.774 47.5851C484.829 47.5851 492.312 47.954 502.21 48.6918C512.109 49.4296 519.46 49.7985 524.277 49.7985C527.616 49.7985 530.665 49.68 533.424 49.4428C536.182 49.2057 538.307 48.9685 539.811 48.7313C541.329 48.4942 542.24 48.3756 542.557 48.3756C543.071 48.3756 543.335 48.5337 543.335 48.8499C543.335 49.7985 542.108 51.3401 539.666 53.4481C537.211 55.5562 534.862 57.0845 532.592 58.0463C531.193 58.6392 528.554 59.1399 524.647 59.5352C520.74 59.9304 516.477 60.128 511.858 60.128C509.39 60.128 506.949 60.0885 504.547 60.0095C502.131 59.9304 500.191 59.8382 498.726 59.746C497.248 59.6537 495.268 59.4956 492.787 59.298C490.293 59.1004 488.392 58.9554 487.086 58.8764C483.707 61.1821 480.724 63.6459 478.151 66.2678C475.577 68.8897 473.584 71.3535 472.172 73.6592C470.76 75.9649 469.612 78.3628 468.741 80.8397C467.87 83.3299 467.302 85.4511 467.038 87.2166C466.774 88.9821 466.655 90.7608 466.655 92.5527C466.655 96.4921 467.606 100.089 469.519 103.343C471.433 106.598 473.954 109.272 477.108 111.341C480.249 113.409 483.773 115.004 487.68 116.137C491.586 117.27 495.585 117.836 499.69 117.836C504.111 117.836 508.559 117.125 513.046 115.715C517.52 114.305 520.305 113.04 521.374 111.934C523.723 109.47 524.898 106.624 524.898 103.409C524.898 100.985 524.198 98.8373 522.812 96.9664C521.413 95.0955 519.473 93.8702 516.953 93.2641C516.359 93.106 516.055 92.9084 516.055 92.6712C516.055 91.4459 517.85 89.5355 521.427 86.9399C525.016 84.3576 527.603 83.0664 529.187 83.0664C531.259 83.0664 533.384 84.1336 535.548 86.2548C537.713 88.3761 538.808 91.0507 538.808 94.2786L538.795 94.2918Z" fill="black"/>
<path d="M554.529 78.082C554.529 74.5062 554.305 71.4168 553.87 68.8007C553.434 66.1846 552.854 64.2127 552.142 62.8849C551.429 61.5571 550.704 60.5974 549.965 59.9927C549.226 59.4011 548.488 59.0987 547.722 59.0987C547.445 59.0987 546.931 59.2171 546.205 59.4537C545.467 59.6903 544.979 59.8087 544.741 59.8087C544.385 59.8087 544.2 59.6246 544.2 59.2697C544.2 58.7175 544.728 57.8367 545.783 56.6273C546.839 55.4178 548.118 54.2083 549.635 52.9989C551.152 51.7894 552.841 50.7246 554.714 49.8175C556.587 48.9104 558.21 48.4503 559.608 48.4503C564.304 48.4503 567.193 53.4327 568.262 63.3844C572.958 58.7044 577.866 55.0497 582.984 52.4336C588.102 49.8175 592.97 48.5028 597.587 48.5028C605.872 48.5028 611.979 52.5256 615.924 60.5843C625.356 52.4862 633.957 48.4503 641.714 48.4503C644.695 48.4503 647.452 49.0681 649.985 50.2907C652.518 51.5265 654.549 53.0909 656.106 55.0234C657.662 56.9428 658.863 59.0199 659.72 61.2416C660.578 63.4633 661 65.6456 661 67.7884C661 70.8384 660.459 73.862 659.364 76.8331C658.269 79.8042 656.831 82.486 655.037 84.8655C653.243 87.245 651.225 89.4535 648.982 91.5044C646.74 93.542 644.444 95.2511 642.109 96.6183C639.774 97.9855 637.519 99.0635 635.329 99.826C633.139 100.588 631.213 100.983 629.538 100.983C626.952 100.983 624.828 100.115 623.179 98.393C621.53 96.6708 620.699 95.2905 620.699 94.2519C620.699 93.5026 621.543 92.3457 623.232 90.7945C624.92 89.2432 626.846 87.8497 628.997 86.6008C631.147 85.3519 632.783 84.7209 633.891 84.7209C634.208 84.7209 634.432 84.7997 634.55 84.9575C634.669 85.1153 634.762 85.3256 634.814 85.5885C634.88 85.8515 635.052 86.2458 635.355 86.7848C635.659 87.3238 636.081 87.8628 636.635 88.415C638.271 90.0451 640.038 90.8602 641.951 90.8602H642.426C642.545 90.8602 642.65 90.8207 642.729 90.7419C642.809 90.663 642.874 90.6104 642.914 90.5973C642.954 90.571 643.02 90.4658 643.125 90.2686C643.231 90.0714 643.31 89.9137 643.389 89.7953C645.856 85.7068 647.096 81.5789 647.096 77.4247C647.096 74.7691 646.581 72.245 645.539 69.8393C644.51 67.4335 643.165 65.4221 641.542 63.8051C639.906 62.175 638.099 60.8866 636.107 59.9401C634.115 58.9936 632.163 58.5072 630.25 58.5072C629.419 58.5072 628.601 58.5598 627.796 58.6518C627.005 58.7569 626.266 58.9147 625.593 59.125C624.921 59.3485 624.314 59.5457 623.773 59.7166C623.232 59.8875 622.678 60.1899 622.097 60.5843C621.517 60.9787 621.069 61.281 620.752 61.4782C620.435 61.6754 620.04 62.0172 619.551 62.4905C619.063 62.9638 618.76 63.2661 618.628 63.3844C618.496 63.5028 618.206 63.8183 617.757 64.331L617.098 65.0409V66.2372C617.098 70.4046 616.293 74.3879 614.684 78.2003C613.074 82.0127 611.03 85.2467 608.563 87.9286C606.096 90.6104 603.418 92.9504 600.529 94.975C597.64 96.9995 594.909 98.4982 592.324 99.471C589.738 100.444 587.522 100.93 585.701 100.93C583.076 100.93 580.939 100.089 579.277 98.4062C577.628 96.7234 576.797 95.3431 576.797 94.2651C576.797 93.5157 577.641 92.3589 579.33 90.8076C581.018 89.2563 582.944 87.8628 585.095 86.6139C587.245 85.365 588.881 84.734 589.989 84.734C590.266 84.734 590.45 84.7735 590.556 84.8523C590.648 84.9312 590.741 85.1284 590.82 85.4439C591.255 86.798 592.179 88.0337 593.564 89.1643C594.962 90.2949 596.505 90.8602 598.22 90.8602C598.418 90.8602 598.563 90.8207 598.643 90.7419C598.722 90.663 598.906 90.4001 599.183 89.9662C600.252 88.2178 601.189 86.0618 601.993 83.4851C602.785 80.9084 603.194 78.3055 603.194 75.6894C603.194 71.3248 601.426 67.3809 597.904 63.8446C594.382 60.3082 590.569 58.5466 586.467 58.5466C583.604 58.5466 581.058 59.0462 578.829 60.0584C576.599 61.0707 574.792 62.3327 573.394 63.8314C571.995 65.3432 570.412 67.4204 568.618 70.0759C568.658 72.9681 568.697 79.1468 568.737 88.6122C568.776 98.0775 568.816 106.82 568.856 114.852C568.895 122.885 568.922 127.078 568.922 127.433C568.961 128.537 569.067 129.51 569.225 130.325C569.383 131.14 569.555 131.706 569.726 132.021C569.911 132.337 570.069 132.613 570.201 132.849C570.346 133.086 570.412 133.27 570.412 133.388C570.412 133.901 569.805 134.703 568.592 135.794C567.378 136.885 565.94 137.911 564.265 138.857C564.146 138.936 563.289 139.58 561.692 140.79C560.096 141.999 558.434 143.235 556.68 144.51C554.925 145.785 552.986 146.955 550.862 148.047C548.738 149.138 547.036 149.677 545.757 149.677C545.163 149.677 544.86 149.519 544.86 149.203C544.86 148.809 545.282 148.191 546.113 147.363C546.944 146.535 547.828 145.759 548.738 145.036L550.057 143.971C552.445 141.276 553.804 138.279 554.12 134.992V132.494C554.16 130.785 554.186 128.551 554.213 125.777C554.239 123.003 554.266 119.874 554.305 116.403C554.345 112.933 554.371 109.318 554.397 105.545C554.424 101.772 554.437 98.1695 554.463 94.7121C554.49 91.2546 554.503 88.0337 554.529 85.0364C554.556 82.039 554.556 79.7121 554.556 78.0426L554.529 78.082Z" fill="black"/>
<path d="M442.53 61.4458C441.679 59.2385 440.488 57.1749 438.944 55.2419C437.399 53.3089 435.383 51.7285 432.87 50.5138C430.357 49.2991 427.608 48.6853 424.61 48.6853C416.953 48.6853 408.432 52.7081 399.073 60.7406C398.484 59.552 397.79 58.4026 397.005 57.2794C396.219 56.1562 395.107 54.8762 393.693 53.4395C392.266 52.0028 390.499 50.8534 388.365 49.9783C386.232 49.1163 383.928 48.6722 381.428 48.6722C380.669 48.6722 379.896 48.7114 379.124 48.7898C380.341 47.2094 381.637 45.4723 383.025 43.5392C385.46 40.1565 388.025 36.7867 390.708 33.4431C393.392 30.0995 396.219 27.3698 399.177 25.2408C402.136 23.1119 404.793 22.276 407.162 22.72C408.824 23.0335 410.146 23.987 411.115 25.5804C412.084 27.1738 412.398 28.8065 412.071 30.5174C411.861 31.6015 411.403 32.5158 410.696 33.2603C410.644 33.3256 409.584 33.7958 407.502 34.6708C405.421 35.5459 404.335 36.2904 404.217 36.9043C404.151 37.2177 404.492 37.4398 405.238 37.5834C406.403 37.8055 408.052 37.7532 410.186 37.4398C412.319 37.1263 414.571 36.5516 416.94 35.7157C419.309 34.8798 421.469 33.5737 423.419 31.7974C425.37 30.0211 426.561 27.9575 427.019 25.5935C427.621 22.4196 427.058 19.4287 425.33 16.6075C423.59 13.7863 421.102 12.0753 417.843 11.4615C415.945 11.0958 413.916 11.2003 411.783 11.7619C409.649 12.3235 407.529 13.277 405.421 14.6222C403.314 15.9675 401.232 17.4957 399.177 19.2197C397.122 20.9307 395.067 22.916 393.012 25.1494C390.957 27.3828 389.085 29.5248 387.397 31.5493C385.708 33.5737 384.02 35.7288 382.331 38.0145C378.627 43.0299 375.904 46.922 374.163 49.7171C372.736 50.1089 371.297 50.5922 369.844 51.206C365.812 52.8778 362.422 54.7325 359.66 56.757C356.898 58.7814 354.346 60.9626 352.016 63.2874C351.78 59.4214 350.851 56.0255 349.227 53.0868C347.604 50.1481 345.458 48.6853 342.774 48.6853C341.033 48.6853 338.952 49.4167 336.517 50.8665C334.083 52.3293 332.041 53.8966 330.392 55.5945C328.729 57.2925 327.905 58.5071 327.905 59.2647C327.905 59.6565 328.088 59.8524 328.467 59.8524C328.847 59.8524 329.331 59.761 329.92 59.552C330.509 59.3561 330.902 59.2516 331.111 59.2516C331.74 59.2516 332.434 59.5128 333.18 60.0222C333.926 60.5316 334.685 61.3022 335.457 62.334C336.23 63.3658 336.858 64.8678 337.355 66.8531C337.853 68.8384 338.101 71.1371 338.101 73.7362C338.101 74.5199 338.036 77.6545 337.918 83.1401C337.8 88.6127 337.722 91.5514 337.682 91.9432C337.525 93.4452 337.054 94.7644 336.256 95.9007C335.47 97.0501 334.659 97.886 333.821 98.4084C332.996 98.9439 332.237 99.4794 331.57 100.028C330.902 100.577 330.562 101.073 330.562 101.504C330.562 101.896 330.941 102.092 331.687 102.092C333.311 102.092 335.758 101.347 339.031 99.8451C339.188 99.7668 340.235 99.3227 342.172 98.5129C344.109 97.7031 345.628 97.037 346.74 96.5015C347.84 95.966 349.07 95.2346 350.419 94.2812C351.767 93.3408 352.631 92.4265 353.023 91.5645C352.552 88.691 352.277 81.5598 352.199 70.1706C353.508 68.1984 354.673 66.6049 355.72 65.3772C356.767 64.1625 357.998 62.987 359.398 61.8899C360.799 60.7928 362.356 59.983 364.045 59.4606C365.747 58.9512 367.684 58.69 369.857 58.69C373.928 58.69 377.71 60.4402 381.205 63.9536C384.7 67.467 386.454 71.3853 386.454 75.7215C386.454 78.3206 386.062 80.9067 385.263 83.4667C384.478 86.0266 383.548 88.1817 382.475 89.9057C382.2 90.3367 382.017 90.598 381.938 90.6763C381.86 90.7547 381.716 90.7939 381.52 90.7939C379.818 90.7939 378.286 90.2322 376.899 89.109C375.511 87.9858 374.608 86.758 374.176 85.4127C374.098 85.0993 374.006 84.9034 373.914 84.825C373.81 84.7466 373.626 84.7075 373.352 84.7075C372.252 84.7075 370.629 85.3344 368.495 86.5752C366.362 87.816 364.451 89.2004 362.775 90.7416C361.1 92.2828 360.262 93.4191 360.262 94.1767C360.262 95.2346 361.087 96.606 362.723 98.2909C364.359 99.9627 366.48 100.799 369.097 100.799C370.917 100.799 373.103 100.315 375.668 99.3488C378.234 98.3823 380.957 96.8933 383.81 94.8819C386.677 92.8706 389.334 90.5326 391.782 87.8813C394.23 85.2168 396.258 82.0038 397.855 78.2161C399.452 74.4285 400.251 70.471 400.251 66.3307V65.1421C400.251 65.1421 400.486 64.8809 400.84 64.4629C401.193 64.045 401.442 63.7838 401.586 63.6662C401.73 63.5487 402.005 63.2874 402.411 62.8695C402.816 62.4515 403.157 62.1642 403.418 61.9813C403.68 61.7985 404.047 61.5242 404.544 61.1585C405.042 60.7797 405.487 60.5055 405.879 60.3357C406.272 60.1528 406.782 59.9438 407.385 59.6826C408 59.4214 408.589 59.2385 409.165 59.121C409.741 59.0034 410.382 58.899 411.115 58.7945C411.848 58.703 412.581 58.6508 413.34 58.6508C417.372 58.6508 421.155 60.4793 424.689 64.1495C428.223 67.8196 429.99 72.2473 429.99 77.4455C429.99 81.5859 428.76 85.687 426.312 89.7359C426.234 89.8535 426.142 90.0102 426.05 90.2061C425.946 90.402 425.88 90.5065 425.841 90.5327C425.802 90.5588 425.736 90.598 425.658 90.6763C425.579 90.7547 425.474 90.7939 425.357 90.7939H424.885C422.987 90.7939 421.233 89.9841 419.61 88.3645C419.06 87.816 418.629 87.2674 418.341 86.745C418.053 86.2225 417.869 85.8176 417.804 85.5564C417.738 85.2952 417.66 85.0993 417.542 84.9295C417.424 84.7728 417.202 84.6944 416.888 84.6944C415.788 84.6944 414.165 85.3213 412.031 86.5621C409.898 87.8029 407.987 89.1874 406.311 90.7286C404.636 92.2698 403.798 93.4061 403.798 94.1636C403.798 95.1954 404.623 96.5538 406.285 98.2778C407.947 99.9888 410.055 100.851 412.62 100.851C414.283 100.851 416.194 100.472 418.367 99.7015C420.54 98.9309 422.778 97.8729 425.095 96.5146C427.412 95.1562 429.676 93.4583 431.914 91.4339C434.14 89.4094 436.156 87.2021 437.923 84.8381C439.703 82.474 441.13 79.8096 442.216 76.8578C443.302 73.906 443.839 70.902 443.839 67.8719C443.839 65.7821 443.42 63.6401 442.569 61.4328L442.53 61.4458Z" fill="black"/>
<path d="M188.109 24.9005C188.484 24.5991 188.884 24.4549 189.31 24.4549C189.737 24.4549 190.137 24.6122 190.512 24.9267C190.886 25.2412 191.803 26.1584 193.289 27.6523C194.774 29.1986 196.053 30.5221 197.151 31.6228C198.081 32.5663 198.559 33.3263 198.559 33.8767C198.559 34.1519 198.482 34.4533 198.327 34.7678C198.172 35.0823 197.875 35.4754 197.448 35.9602C197.022 36.432 196.583 36.8906 196.131 37.3231C195.679 37.7555 194.994 38.4238 194.09 39.3149C193.173 40.2059 192.32 41.0446 191.545 41.8308C190.615 42.7743 189.853 43.2592 189.259 43.2592C188.987 43.2592 188.69 43.1805 188.38 43.0233C188.07 42.866 187.683 42.5646 187.205 42.1322C186.74 41.6998 186.288 41.2543 185.861 40.7956C185.435 40.337 184.776 39.6425 183.898 38.7252C183.019 37.7948 182.193 36.943 181.418 36.1437C180.449 35.1609 179.958 34.4009 179.958 33.8898C179.958 33.3394 180.449 32.5794 181.418 31.6359L184.931 28.0716C186.688 26.2502 187.747 25.1888 188.122 24.9005H188.109ZM197.81 8.23219C198.185 7.9308 198.585 7.78665 199.011 7.78665C199.438 7.78665 199.825 7.9308 200.148 8.20598C200.484 8.48116 201.543 9.52948 203.339 11.3509C204.708 12.74 205.871 13.9193 206.852 14.9152C206.93 14.9938 207.033 15.0987 207.175 15.2428C207.317 15.387 207.408 15.4787 207.472 15.5442L207.731 15.8063C207.847 15.9242 207.925 16.016 207.963 16.0684C208.002 16.1339 208.054 16.2125 208.105 16.3042C208.17 16.4091 208.196 16.4877 208.222 16.5663C208.247 16.645 208.26 16.7367 208.286 16.8284C208.312 16.9332 208.312 17.0381 208.312 17.156C208.312 17.5884 208.118 18.0471 207.731 18.5188C207.343 18.9906 206.245 20.1437 204.463 21.9652C203.171 23.2363 202.099 24.2977 201.246 25.1625C200.316 26.106 199.567 26.5909 199.024 26.5909C198.753 26.5909 198.456 26.5123 198.146 26.355C197.836 26.1978 197.448 25.8964 196.97 25.4639C196.505 25.0315 196.053 24.586 195.627 24.1273C195.201 23.6687 194.542 22.9742 193.664 22.0569C192.785 21.1265 191.958 20.2748 191.183 19.4754C190.215 18.4926 189.724 17.7195 189.724 17.156C189.724 16.5925 190.215 15.8456 191.183 14.9021L194.697 11.3378C196.415 9.55569 197.448 8.52048 197.823 8.21908L197.81 8.23219ZM207.576 24.8743C207.912 24.5991 208.286 24.4549 208.712 24.4549C209.139 24.4549 209.526 24.5991 209.888 24.8743C210.237 25.1494 211.309 26.224 213.104 28.0716C214.474 29.4607 215.636 30.64 216.618 31.6359C217.548 32.5794 218.026 33.3394 218.026 33.8898C218.026 34.165 217.949 34.4664 217.794 34.7809C217.639 35.0954 217.341 35.4885 216.915 35.9733C216.489 36.4451 216.05 36.9037 215.598 37.3362C215.145 37.7686 214.461 38.4369 213.557 39.328C212.639 40.219 211.787 41.0577 211.012 41.8439L210.108 42.7612C209.966 42.9054 209.785 43.0233 209.552 43.115C209.32 43.2198 209.048 43.2592 208.738 43.2592C208.312 43.2592 207.886 43.0757 207.485 42.7219C207.085 42.3681 205.78 41.0839 203.597 38.8693C202.512 37.7686 201.608 36.8513 200.91 36.1437C199.941 35.1609 199.451 34.4009 199.451 33.8898C199.451 33.3394 199.941 32.5794 200.91 31.6359L204.824 27.6654C206.349 26.0798 207.266 25.1494 207.602 24.8743H207.576Z" fill="black"/>
<path d="M483.322 24.9005C483.705 24.5991 484.114 24.4549 484.55 24.4549C484.986 24.4549 485.396 24.6122 485.779 24.9267C486.162 25.2412 487.1 26.1585 488.619 27.6523C490.139 29.1986 491.446 30.5221 492.569 31.6228C493.521 32.5663 494.009 33.3263 494.009 33.8767C494.009 34.1519 493.93 34.4533 493.772 34.7678C493.613 35.0823 493.309 35.4754 492.873 35.9602C492.437 36.432 491.988 36.8906 491.526 37.3231C491.063 37.7555 490.363 38.4238 489.438 39.3149C488.5 40.2059 487.628 41.0446 486.836 41.8308C485.885 42.7743 485.105 43.2592 484.497 43.2592C484.22 43.2592 483.916 43.1805 483.599 43.0233C483.282 42.866 482.886 42.5647 482.397 42.1322C481.921 41.6998 481.459 41.2543 481.023 40.7956C480.587 40.337 479.913 39.6425 479.015 38.7252C478.116 37.7948 477.271 36.943 476.478 36.1437C475.487 35.1609 474.985 34.4009 474.985 33.8898C474.985 33.3394 475.487 32.5794 476.478 31.6359L480.072 28.0716C481.868 26.2502 482.952 25.1888 483.335 24.9005H483.322ZM493.243 8.23219C493.626 7.9308 494.036 7.78665 494.472 7.78665C494.908 7.78665 495.304 7.9308 495.634 8.20598C495.978 8.48116 497.061 9.52948 498.898 11.3509C500.298 12.74 501.487 13.9193 502.491 14.9152C502.57 14.9938 502.676 15.0987 502.821 15.2428C502.967 15.387 503.059 15.4787 503.125 15.5442L503.389 15.8063C503.508 15.9242 503.587 16.016 503.627 16.0684C503.667 16.1339 503.72 16.2125 503.772 16.3042C503.839 16.4091 503.865 16.4877 503.891 16.5663C503.918 16.645 503.931 16.7367 503.957 16.8284C503.984 16.9332 503.984 17.0381 503.984 17.156C503.984 17.5884 503.786 18.0471 503.389 18.5188C502.993 18.9906 501.87 20.1437 500.047 21.9652C498.726 23.2363 497.629 24.2977 496.757 25.1625C495.806 26.106 495.04 26.5909 494.485 26.5909C494.208 26.5909 493.904 26.5123 493.587 26.355C493.27 26.1978 492.873 25.8964 492.384 25.4639C491.909 25.0315 491.446 24.586 491.01 24.1273C490.575 23.6687 489.901 22.9742 489.002 22.0569C488.104 21.1265 487.259 20.2748 486.466 19.4754C485.475 18.4926 484.973 17.7195 484.973 17.156C484.973 16.5925 485.475 15.8456 486.466 14.9021L490.059 11.3378C491.816 9.55569 492.873 8.52048 493.256 8.21908L493.243 8.23219ZM503.231 24.8743C503.574 24.5991 503.957 24.4549 504.393 24.4549C504.829 24.4549 505.226 24.5991 505.596 24.8743C505.952 25.1494 507.049 26.224 508.885 28.0716C510.286 29.4607 511.475 30.64 512.479 31.6359C513.43 32.5794 513.919 33.3394 513.919 33.8898C513.919 34.165 513.839 34.4664 513.681 34.7809C513.522 35.0954 513.218 35.4885 512.782 35.9733C512.346 36.4451 511.897 36.9037 511.435 37.3362C510.973 37.7686 510.272 38.4369 509.348 39.328C508.41 40.219 507.538 41.0577 506.745 41.8439L505.82 42.7612C505.675 42.9054 505.49 43.0233 505.252 43.115C505.014 43.2199 504.737 43.2592 504.42 43.2592C503.984 43.2592 503.548 43.0757 503.138 42.7219C502.729 42.3681 501.394 41.0839 499.162 38.8693C498.052 37.7686 497.127 36.8513 496.414 36.1437C495.423 35.1609 494.921 34.4009 494.921 33.8898C494.921 33.3394 495.423 32.5794 496.414 31.6359L500.417 27.6654C501.976 26.0798 502.914 25.1494 503.257 24.8743H503.231Z" fill="black"/>
<path d="M594.065 24.9005C594.448 24.5991 594.858 24.4549 595.294 24.4549C595.73 24.4549 596.139 24.6122 596.523 24.9267C596.906 25.2412 597.844 26.1584 599.363 27.6523C600.882 29.1986 602.19 30.5221 603.313 31.6228C604.264 32.5663 604.753 33.3263 604.753 33.8767C604.753 34.1519 604.674 34.4533 604.515 34.7678C604.357 35.0823 604.053 35.4754 603.617 35.9602C603.181 36.432 602.732 36.8906 602.269 37.3231C601.807 37.7555 601.107 38.4238 600.182 39.3149C599.244 40.2059 598.372 41.0446 597.579 41.8308C596.628 42.7743 595.849 43.2592 595.241 43.2592C594.964 43.2592 594.66 43.1805 594.343 43.0233C594.026 42.866 593.629 42.5646 593.14 42.1322C592.665 41.6998 592.202 41.2543 591.767 40.7956C591.331 40.337 590.657 39.6425 589.758 38.7252C588.86 37.7948 588.015 36.943 587.222 36.1437C586.231 35.1609 585.729 34.4009 585.729 33.8898C585.729 33.3394 586.231 32.5794 587.222 31.6359L590.815 28.0716C592.612 26.2502 593.695 25.1888 594.078 24.9005H594.065ZM603.987 8.23219C604.37 7.9308 604.779 7.78665 605.215 7.78665C605.651 7.78665 606.048 7.9308 606.378 8.20598C606.722 8.48116 607.805 9.52948 609.641 11.3509C611.042 12.74 612.231 13.9193 613.235 14.9152C613.314 14.9938 613.42 15.0987 613.565 15.2428C613.71 15.387 613.803 15.4787 613.869 15.5442L614.133 15.8063C614.252 15.9242 614.331 16.016 614.371 16.0684C614.41 16.1339 614.463 16.2125 614.516 16.3042C614.582 16.4091 614.609 16.4877 614.635 16.5663C614.661 16.645 614.675 16.7367 614.701 16.8284C614.727 16.9332 614.727 17.0381 614.727 17.156C614.727 17.5884 614.529 18.0471 614.133 18.5188C613.737 18.9906 612.614 20.1437 610.791 21.9652C609.469 23.2363 608.373 24.2977 607.501 25.1625C606.55 26.106 605.784 26.5909 605.229 26.5909C604.951 26.5909 604.647 26.5123 604.33 26.355C604.013 26.1978 603.617 25.8964 603.128 25.4639C602.652 25.0315 602.19 24.586 601.754 24.1273C601.318 23.6687 600.644 22.9742 599.746 22.0569C598.848 21.1265 598.002 20.2748 597.209 19.4754C596.219 18.4926 595.717 17.7195 595.717 17.156C595.717 16.5925 596.219 15.8456 597.209 14.9021L600.803 11.3378C602.56 9.55569 603.617 8.52048 604 8.21908L603.987 8.23219ZM613.974 24.8743C614.318 24.5991 614.701 24.4549 615.137 24.4549C615.573 24.4549 615.969 24.5991 616.339 24.8743C616.696 25.1494 617.792 26.224 619.629 28.0716C621.029 29.4607 622.218 30.64 623.222 31.6359C624.173 32.5794 624.662 33.3394 624.662 33.8898C624.662 34.165 624.583 34.4664 624.424 34.7809C624.266 35.0954 623.962 35.4885 623.526 35.9733C623.09 36.4451 622.641 36.9037 622.179 37.3362C621.716 37.7686 621.016 38.4369 620.091 39.328C619.153 40.219 618.281 41.0577 617.489 41.8439L616.564 42.7612C616.419 42.9054 616.234 43.0233 615.996 43.115C615.758 43.2198 615.481 43.2592 615.163 43.2592C614.727 43.2592 614.292 43.0757 613.882 42.7219C613.472 42.3681 612.138 41.0839 609.905 38.8693C608.796 37.7686 607.871 36.8513 607.157 36.1437C606.167 35.1609 605.665 34.4009 605.665 33.8898C605.665 33.3394 606.167 32.5794 607.157 31.6359L611.16 27.6654C612.719 26.0798 613.657 25.1494 614.001 24.8743H613.974Z" fill="black"/>
</svg>
