<svg width="557" height="156" viewBox="0 0 557 156" fill="none" xmlns="http://www.w3.org/2000/svg">
<path d="M358.132 41.7238C358.132 40.6123 359.682 38.9012 362.766 36.6052C365.851 34.2945 368.073 33.1392 369.418 33.1392C369.52 33.1392 369.944 33.2415 370.661 33.4463C371.377 33.651 372.415 33.885 373.76 34.1483C375.105 34.4115 376.509 34.6016 378 34.7479C380.28 34.9526 386.026 35.055 395.207 35.055C400.689 35.055 404.315 34.9819 406.098 34.821C407.882 34.6601 410.075 34.236 412.677 33.5486C413.583 33.3 414.022 33.417 414.022 33.8558C414.022 34.7625 412.823 36.2249 410.44 38.2724C408.057 40.3198 405.879 41.6653 403.935 42.3234C400.952 43.3325 395.616 43.8297 387.926 43.8297C384.564 43.8297 380.353 43.7273 375.295 43.5226C370.237 43.3178 367.386 43.2155 366.772 43.2155C365.486 43.2155 363.731 43.0546 361.494 42.7475C359.258 42.4404 358.147 42.0894 358.147 41.7091L358.132 41.7238Z" fill="black"/>
<path d="M377.313 14.7562C377.634 14.5075 377.985 14.3759 378.365 14.3759C378.745 14.3759 379.096 14.5075 379.418 14.7854C379.74 15.0633 380.558 15.8384 381.845 17.14C383.146 18.4708 384.272 19.6115 385.222 20.5621C386.041 21.3811 386.45 22.0246 386.45 22.5072C386.45 22.7412 386.377 23.0044 386.245 23.2676C386.114 23.5309 385.85 23.8819 385.485 24.2914C385.119 24.7009 384.725 25.0957 384.33 25.4613C383.935 25.8269 383.336 26.4119 382.546 27.1724C381.757 27.9329 380.997 28.6641 380.324 29.3515C379.506 30.1704 378.848 30.5799 378.336 30.5799C378.102 30.5799 377.839 30.5068 377.576 30.3752C377.313 30.2436 376.962 29.9803 376.552 29.6147C376.143 29.2491 375.748 28.8542 375.383 28.4594C375.017 28.0645 374.433 27.4649 373.672 26.6752C372.912 25.8854 372.181 25.125 371.494 24.4522C370.646 23.604 370.222 22.9459 370.222 22.5072C370.222 22.0246 370.646 21.3811 371.494 20.5621L374.564 17.491C376.099 15.9261 377.035 15.0048 377.357 14.7562H377.313ZM385.807 0.380238C386.128 0.131621 386.479 0 386.859 0C387.239 0 387.561 0.116996 387.853 0.350989C388.146 0.584982 389.067 1.4917 390.646 3.05653L393.716 6.12768L393.993 6.40555L394.242 6.65417L394.476 6.88816C394.578 6.99053 394.651 7.06365 394.681 7.12215C394.71 7.18065 394.754 7.23915 394.812 7.3269C394.871 7.41464 394.9 7.48777 394.915 7.56089C394.929 7.63401 394.944 7.70713 394.958 7.79488C394.973 7.88263 394.988 7.97038 394.988 8.07275C394.988 8.45299 394.812 8.83322 394.476 9.24271C394.14 9.6522 393.175 10.6467 391.611 12.2115C390.485 13.3083 389.549 14.2297 388.804 14.9755C387.985 15.7945 387.342 16.204 386.859 16.204C386.625 16.204 386.362 16.1309 386.099 15.9992C385.836 15.8676 385.485 15.6044 385.076 15.2388C384.666 14.8732 384.272 14.4783 383.906 14.0834C383.541 13.6886 382.956 13.089 382.196 12.2992C381.435 11.5095 380.704 10.749 380.017 10.0763C379.169 9.22809 378.745 8.55536 378.745 8.08737C378.745 7.61939 379.169 6.96128 380.017 6.14231L383.087 3.07115C384.593 1.53558 385.5 0.64348 385.821 0.380238H385.807ZM394.344 14.7415C394.637 14.5075 394.973 14.3906 395.338 14.3906C395.704 14.3906 396.055 14.5075 396.362 14.7415C396.669 14.9755 397.604 15.8969 399.169 17.5056L402.239 20.5767C403.058 21.3957 403.467 22.0392 403.467 22.5218C403.467 22.7558 403.394 23.019 403.262 23.2823C403.131 23.5455 402.867 23.8965 402.502 24.306C402.136 24.7155 401.742 25.1103 401.347 25.476C400.952 25.8416 400.353 26.4265 399.563 27.187C398.774 27.9475 398.014 28.6787 397.341 29.3661L396.552 30.1558C396.435 30.2728 396.274 30.3752 396.069 30.4629C395.865 30.5507 395.631 30.5945 395.353 30.5945C394.973 30.5945 394.607 30.4483 394.257 30.1412C393.906 29.8341 392.765 28.7226 390.85 26.8214L388.497 24.4669C387.649 23.6186 387.225 22.9605 387.225 22.5218C387.225 22.0392 387.649 21.3957 388.497 20.5767L391.918 17.1546C393.248 15.7945 394.052 14.9902 394.344 14.7562V14.7415Z" fill="black"/>
<path d="M67.6148 43.1424C74.8661 43.1424 80.3045 47.0764 83.9593 54.9444C92.0439 47.1203 99.7337 43.2009 107.058 43.2009C109.192 43.2009 111.21 43.6543 113.11 44.561C115.011 45.4677 116.648 46.6377 117.979 48.0855C119.309 49.5333 120.464 51.1566 121.444 52.9555C122.423 54.7543 123.139 56.5824 123.607 58.425C124.075 60.2677 124.309 62.0081 124.309 63.6753C124.309 68.1065 122.832 72.5377 119.879 76.9543C116.926 81.371 113.476 85.1148 109.543 88.186C110.801 88.186 112.277 88.186 113.958 88.2152C115.64 88.2445 116.707 88.2445 117.175 88.2445C118.797 88.2445 120.04 88.1567 120.873 87.9666C121.707 87.7765 122.584 87.4255 123.446 86.8844C126.473 84.8662 128.68 83.8571 130.04 83.8571C130.478 83.8571 130.683 84.0034 130.683 84.2959C130.683 85.7729 127.364 88.6247 120.727 92.8512C117.16 95.118 114.397 96.6097 112.453 97.3117C110.508 98.0137 108.725 98.3647 107.102 98.3647C102.921 98.3647 95.3479 98.1892 84.4125 97.8236C73.4626 97.458 64.3547 97.2825 57.0596 97.2825C51.475 97.2825 46.1535 97.3556 41.0952 97.5018V123.534C40.8028 124.645 39.5602 126.254 37.3672 128.345C35.1743 130.436 33.113 131.913 31.1978 132.776C27.4845 134.502 24.4291 136.388 22.0607 138.407C19.6924 140.425 16.6808 143.832 13.0844 148.629C11.754 150.355 9.7073 152.022 6.94423 153.602C4.18115 155.181 2.16367 155.985 0.862546 155.985C0.292389 155.985 0 155.825 0 155.503C0 155.181 0.307008 154.508 0.921024 153.499C1.53504 152.49 2.49992 151.174 3.81567 149.58C5.13142 147.986 6.57874 146.45 8.17226 145.002C8.88861 144.359 9.47339 143.043 9.89735 141.083C10.3213 139.123 10.7307 134.063 11.1108 125.932C11.4909 117.801 11.6809 106.408 11.6809 91.7544C11.6809 82.8042 11.5786 75.7844 11.3593 70.6804C11.14 65.5764 10.6429 61.5839 9.83887 58.6883C8.85937 55.1199 7.42667 53.3357 5.51152 53.3357C5.29223 53.3357 5.0437 53.3796 4.75131 53.4673C4.45892 53.5551 4.19577 53.6428 3.96186 53.7452C3.72795 53.8476 3.49404 53.9061 3.26013 53.9646C3.02622 54.0231 2.85079 54.0084 2.71921 53.9353C2.58764 53.8622 2.52916 53.7159 2.52916 53.4966C2.52916 52.7361 3.21627 51.5076 4.5905 49.7966C5.96472 48.0855 7.70443 46.4768 9.83887 44.9851C11.9733 43.4934 13.8738 42.7329 15.5697 42.7329C16.5053 42.7329 17.3386 42.9815 18.055 43.4934C18.7713 44.0052 19.3561 44.5902 19.8093 45.2776C20.2625 45.9649 20.6719 46.8863 21.052 48.0709C21.4321 49.2555 21.7098 50.2499 21.8853 51.0982C22.0607 51.9464 22.28 53.0432 22.5285 54.374C22.6309 54.9152 22.704 55.31 22.7478 55.5586C23.1864 55.2369 23.9759 54.6812 25.1308 53.8768C26.2857 53.0725 27.2067 52.4436 27.8939 51.961C28.581 51.4784 29.5166 50.7764 30.7008 49.8551C31.885 48.9337 33.0984 47.9685 34.3264 46.9594C37.1772 44.4732 39.2385 43.2301 40.4958 43.2301C40.7443 43.2301 40.949 43.3033 41.0952 43.4495V57.2551C44.7793 53.3211 49.0189 50.0013 53.8141 47.2665C58.6093 44.5317 63.2144 43.1863 67.6148 43.1863V43.1424ZM23.9612 97.6919C23.9612 113.501 23.5519 125.376 22.7186 133.361C24.0489 132.381 26.3003 130.875 29.4874 128.813C29.5605 117.128 29.5897 102.006 29.5897 83.4623C29.5897 68.7354 29.5751 59.4341 29.5312 55.544C28.0839 56.6555 25.9641 58.2203 23.1425 60.1946C23.6835 71.7773 23.9612 84.2812 23.9612 97.6919ZM72.9217 70.8998C72.9217 68.048 72.2346 65.1962 70.8457 62.3152C69.4569 59.4341 67.5564 57.065 65.1441 55.1784C62.7319 53.2918 60.1735 52.3412 57.4689 52.3412C55.817 52.3412 54.1942 52.5606 52.6007 53.014C51.0072 53.4673 49.823 54.0084 49.0335 54.6665C46.7968 56.5385 44.1653 60.297 41.1391 65.9274V89.1951C44.4869 88.6247 52.4983 88.2006 65.1588 87.952C67.4248 85.7583 69.2961 83.1113 70.758 80.0255C72.2199 76.9397 72.9509 73.8978 72.9509 70.8998H72.9217ZM96.4005 52.3412C93.7251 52.3412 91.7223 52.8677 90.3626 53.9353C89.003 55.0029 87.3657 57.2258 85.4067 60.6187C85.4359 61.0136 85.4651 61.6132 85.4651 62.4029C85.4651 65.0353 85.0119 67.6678 84.0909 70.3002C83.1699 72.9326 81.9565 75.331 80.4361 77.4954C78.9156 79.6599 77.3952 81.5757 75.8309 83.2575C74.2667 84.9393 72.6585 86.4603 70.9627 87.835C79.2226 87.835 90.2165 87.9227 103.959 88.1129C106.049 86.2409 107.847 83.8425 109.368 80.9468C110.888 78.0512 111.634 75.097 111.634 72.099C111.634 67.0535 110.026 62.4907 106.824 58.4397C103.622 54.3887 100.128 52.3559 96.3858 52.3559L96.4005 52.3412Z" fill="black"/>
<path d="M233.984 61.9789C233.209 59.9607 232.113 58.0741 230.709 56.3192C229.306 54.5642 227.449 53.131 225.168 52.0196C222.888 50.9081 220.388 50.3378 217.669 50.3378C210.637 50.3378 202.845 54.0231 194.292 61.3793C192.187 57.065 189.395 54.0378 185.93 52.2682C187.056 51.2152 188.474 49.4895 190.199 47.0472C190.74 46.2868 191.909 44.7073 193.693 42.2796C195.476 39.8666 196.763 38.1116 197.538 37.0294C198.313 35.9472 199.438 34.3385 200.915 32.2179C202.391 30.0828 203.488 28.3863 204.219 27.0994C204.935 25.8124 205.739 24.3646 206.602 22.712C207.464 21.074 208.078 19.6116 208.444 18.3539C208.809 17.0962 208.985 15.9555 208.985 14.9464C208.985 13.4985 208.678 12.2554 208.064 11.2171C207.45 10.1641 206.646 9.38904 205.622 8.86255C204.613 8.33607 203.605 7.95583 202.625 7.72184C201.631 7.48785 200.608 7.37085 199.57 7.37085C197.699 7.37085 195.476 7.85346 192.918 8.8333C190.36 9.81315 187.889 11.0562 185.535 12.5626C183.167 14.0835 181.164 15.897 179.497 18.0029C177.845 20.1088 177.012 22.1855 177.012 24.2037C177.012 26.5875 177.407 27.7721 178.196 27.7721C179.176 27.7721 180.623 27.2017 182.553 26.061C184.483 24.9203 186.222 23.648 187.772 22.244C189.322 20.8401 190.096 19.7871 190.096 19.0997C190.096 18.9974 190.038 18.7049 189.936 18.2661C189.833 17.8128 189.76 17.14 189.716 16.2333C191.12 16.4819 192.304 16.9061 193.254 17.5057C194.204 18.1053 194.877 18.7926 195.257 19.5677C195.637 20.3428 195.9 21.0155 196.047 21.5713C196.193 22.127 196.266 22.6827 196.266 23.2239C196.266 25.3883 195.052 29.1468 192.64 34.4848C191.193 37.7022 189.658 40.7002 188.035 43.4935C186.412 46.2868 185.228 48.3342 184.497 49.6358C184.146 50.25 183.883 50.8057 183.708 51.3176C181.866 50.7034 179.863 50.3816 177.685 50.3816C173.503 50.3816 169.088 51.5662 164.454 53.95C159.82 56.3338 155.375 59.6536 151.121 63.9093C150.142 54.8567 147.539 50.3231 143.27 50.3231C142.013 50.3231 140.537 50.7326 138.841 51.5662C137.145 52.3998 135.61 53.365 134.236 54.4619C132.861 55.5587 131.706 56.6556 130.742 57.767C129.791 58.8639 129.309 59.6682 129.309 60.1801C129.309 60.5018 129.47 60.6627 129.791 60.6627C130.011 60.6627 130.449 60.5603 131.122 60.3409C131.794 60.1216 132.247 60.0192 132.496 60.0192C133.183 60.0192 133.855 60.2824 134.528 60.8382C135.2 61.3793 135.858 62.2568 136.502 63.456C137.145 64.6698 137.671 66.454 138.066 68.8378C138.461 71.2216 138.665 74.0295 138.665 77.2762C138.665 78.7971 138.665 80.9177 138.636 83.6378C138.607 86.358 138.607 89.2975 138.578 92.4272C138.563 95.5715 138.548 98.8474 138.519 102.27C138.504 105.692 138.475 108.982 138.431 112.141C138.402 115.3 138.373 118.137 138.344 120.667C138.329 123.197 138.3 125.23 138.256 126.78V129.047C137.964 132.045 136.736 134.765 134.572 137.222L133.388 138.202C132.554 138.845 131.765 139.562 131.005 140.308C130.244 141.054 129.864 141.624 129.864 141.99C129.864 142.282 130.142 142.428 130.683 142.428C131.838 142.428 133.373 141.931 135.303 140.937C137.233 139.942 138.987 138.875 140.58 137.719C142.174 136.564 143.68 135.438 145.127 134.341C146.574 133.244 147.349 132.659 147.452 132.586C148.972 131.723 150.273 130.787 151.37 129.793C152.466 128.798 153.022 128.067 153.022 127.599C153.022 127.497 152.963 127.336 152.831 127.117C152.7 126.897 152.554 126.649 152.393 126.356C152.232 126.064 152.071 125.552 151.94 124.821C151.794 124.075 151.706 123.212 151.677 122.203C151.677 121.881 151.662 118.064 151.618 110.752C151.589 103.439 151.545 95.4837 151.516 86.8845C151.487 78.2853 151.443 72.6548 151.413 70.0224C153.036 67.6093 154.483 65.7081 155.741 64.3334C156.998 62.9587 158.65 61.818 160.668 60.8967C162.685 59.9753 164.995 59.522 167.597 59.522C171.31 59.522 174.761 61.1307 177.962 64.3334C181.149 67.5508 182.743 71.1339 182.743 75.0971C182.743 77.4809 182.377 79.8355 181.661 82.19C180.945 84.5299 180.097 86.5042 179.117 88.0837C178.869 88.4786 178.708 88.7126 178.635 88.7857C178.562 88.8588 178.43 88.888 178.255 88.888C176.705 88.888 175.302 88.3762 174.03 87.3525C172.772 86.3288 171.939 85.2027 171.544 83.9742C171.471 83.6817 171.398 83.5062 171.296 83.4331C171.208 83.36 171.033 83.3307 170.784 83.3307C169.775 83.3307 168.299 83.9011 166.354 85.0418C164.41 86.1825 162.67 87.4548 161.135 88.8588C159.6 90.2628 158.84 91.3157 158.84 92.0031C158.84 92.9829 159.586 94.226 161.091 95.7616C162.597 97.2972 164.527 98.0576 166.91 98.0576C168.562 98.0576 170.565 97.6189 172.919 96.7268C175.258 95.8493 177.743 94.4746 180.36 92.6466C182.977 90.8039 185.404 88.6687 187.64 86.2264C189.877 83.7841 191.719 80.8445 193.181 77.3785C194.643 73.9125 195.374 70.2856 195.374 66.4979V65.4157L195.973 64.7722C196.368 64.3042 196.631 64.0117 196.763 63.9093C196.894 63.807 197.172 63.5291 197.596 63.0904C198.02 62.6516 198.386 62.3445 198.678 62.169C198.97 61.9935 199.365 61.7156 199.891 61.35C200.418 60.9844 200.915 60.7212 201.412 60.5603C201.894 60.3994 202.45 60.2239 203.064 60.0192C203.678 59.8145 204.35 59.6828 205.067 59.5805C205.783 59.4927 206.529 59.4488 207.289 59.4488C209.014 59.4488 210.783 59.8876 212.596 60.7504C214.394 61.6133 216.046 62.7832 217.522 64.2749C218.999 65.752 220.212 67.5801 221.148 69.7738C222.084 71.9528 222.552 74.2635 222.552 76.6766C222.552 80.4643 221.44 84.2228 219.204 87.9375C219.131 88.0398 219.057 88.1861 218.955 88.3762C218.867 88.5517 218.809 88.6541 218.765 88.6687C218.736 88.6833 218.677 88.7272 218.604 88.8003C218.531 88.8734 218.443 88.9027 218.341 88.9027H217.903C216.177 88.9027 214.569 88.1568 213.093 86.6797C212.581 86.1679 212.201 85.6853 211.923 85.188C211.66 84.7054 211.485 84.3398 211.441 84.1058C211.382 83.8718 211.309 83.6817 211.192 83.5355C211.09 83.3892 210.885 83.3161 210.593 83.3161C209.584 83.3161 208.108 83.8865 206.163 85.0272C204.219 86.1679 202.479 87.4402 200.944 88.8442C199.409 90.2481 198.649 91.3011 198.649 91.9885C198.649 92.9244 199.394 94.1821 200.9 95.747C202.391 97.3118 204.321 98.1015 206.66 98.1015C208.181 98.1015 209.92 97.7505 211.909 97.0485C213.897 96.3466 215.944 95.3667 218.049 94.1236C220.154 92.8806 222.23 91.3303 224.277 89.473C226.309 87.6157 228.151 85.5975 229.773 83.4331C231.396 81.2687 232.697 78.8264 233.692 76.1208C234.686 73.4153 235.183 70.6659 235.183 67.9018C235.183 65.9568 234.788 63.9678 234.013 61.9496L233.984 61.9789Z" fill="black"/>
<path d="M410.426 55.383C406.668 51.9901 402.18 50.2937 396.961 50.2937C395.265 50.2937 393.423 50.4984 391.42 50.9226C389.417 51.332 387.122 52.034 384.52 53.0285C381.918 54.023 379.096 55.5439 376.026 57.606C372.956 59.668 369.944 62.1396 366.991 65.0206C366.158 55.2368 366.465 49.4016 362.006 49.4016C361.07 49.4016 358.307 49.3285 356.261 49.621C350.881 49.6063 342.153 49.4016 341.407 49.6648C340.355 50.0305 338.966 50.2352 337.241 50.3083C322.563 50.7763 308.017 51.0103 293.587 51.0103C286.511 51.0103 280.079 50.9518 274.246 50.8202C268.427 50.6886 264.114 50.5569 261.337 50.4107C258.559 50.2645 257.039 50.1475 256.79 50.0305C255.562 49.4162 254.948 48.3194 254.948 46.7253C255.343 45.9648 255.547 45.4676 255.547 45.2044C255.547 44.9119 255.372 44.7656 255.007 44.7656C254.393 44.7656 253.442 45.1312 252.141 45.8771C250.84 46.6229 249.524 47.5297 248.165 48.6119C246.805 49.6941 245.635 50.9518 244.627 52.3704C243.618 53.789 243.106 55.1052 243.106 56.2898C243.106 57.0502 243.209 57.6645 243.428 58.1325C243.94 59.3902 245.445 60.136 247.975 60.3554C248.691 60.4285 252.346 60.5016 258.895 60.5748C255.431 63.251 252.448 66.3953 249.948 70.0222C247.448 73.6491 246.191 77.2467 246.191 80.8151C246.191 82.6139 246.571 84.5151 247.331 86.5041C248.092 88.493 249.159 90.3503 250.518 92.076C251.878 93.8017 253.676 95.2349 255.898 96.3756C258.12 97.5164 260.518 98.0867 263.12 98.0867C269.655 98.0867 276.76 94.6207 284.435 87.7033C286.161 91.2424 288.383 93.8602 291.087 95.5713C293.792 97.2824 296.599 98.1452 299.523 98.1452C304.069 98.1452 308.587 96.9314 313.104 94.4891C317.622 92.0468 321.73 89.0341 325.443 85.4219C325.194 112.477 324.99 126.502 324.844 127.467C324.551 129.778 323.762 131.869 322.461 133.741C321.159 135.613 320.019 136.856 319.054 137.471C317.651 138.333 316.496 139.182 315.619 140.015C314.741 140.849 314.288 141.478 314.288 141.916C314.288 142.282 314.581 142.458 315.151 142.458C316.203 142.458 317.534 142.077 319.157 141.317C320.779 140.556 322.344 139.664 323.835 138.611C325.326 137.558 326.817 136.476 328.264 135.335C329.726 134.195 330.837 133.303 331.612 132.63C332.387 131.957 332.826 131.577 332.943 131.46C337.372 128.784 339.595 126.912 339.595 125.829C339.595 125.8 339.565 125.742 339.492 125.669C338.63 124.689 338.191 121.062 338.191 114.788C338.162 105.267 338.089 95.308 338.001 84.91C337.913 74.5266 337.869 68.3258 337.869 66.3515C337.869 62.7977 337.943 60.0775 338.089 58.191C338.703 58.0008 339.141 57.8985 339.375 57.8985C340.062 57.8985 348.732 58.7759 349.404 59.317C350.077 59.8582 351.612 62.2566 352.255 63.4704C352.898 64.6843 353.424 66.4684 353.819 68.8522C354.214 71.236 354.419 74.044 354.419 77.2906C354.419 78.8116 354.419 80.9321 354.389 83.6523C354.36 86.3724 354.36 89.312 354.331 92.4416C354.316 95.5859 354.302 98.8618 354.272 102.284C354.258 105.706 354.229 108.997 354.185 112.156C354.155 115.314 354.126 118.152 354.097 120.682C354.082 123.212 354.053 125.244 354.009 126.795V129.061C353.717 132.06 352.489 134.78 350.325 137.237L349.141 138.216C348.308 138.86 347.518 139.577 346.758 140.322C345.998 141.068 345.618 141.639 345.618 142.004C345.618 142.297 345.895 142.443 346.436 142.443C347.591 142.443 349.126 141.946 351.056 140.951C352.986 139.957 354.74 138.889 356.334 137.734C357.927 136.579 359.433 135.452 360.88 134.356C362.328 133.259 363.103 132.674 363.205 132.601C364.725 131.738 366.026 130.802 367.123 129.807C368.219 128.813 368.775 128.082 368.775 127.614C368.775 127.511 368.716 127.35 368.585 127.131C368.453 126.912 368.322 126.663 368.146 126.371C367.985 126.078 367.825 125.566 367.693 124.835C367.547 124.089 367.459 123.226 367.43 122.217C367.43 121.895 367.415 118.152 367.371 110.986C367.342 103.82 367.313 95.9661 367.284 87.4108C367.254 78.8554 367.24 73.1811 367.196 70.3586C368.497 68.7352 369.652 67.4044 370.661 66.3807C371.67 65.357 372.956 64.2455 374.535 63.0756C376.114 61.9056 377.883 61.0135 379.856 60.4285C381.845 59.8289 384.008 59.5364 386.347 59.5364C390.719 59.5364 394.637 61.1451 398.145 64.3771C401.639 67.6092 403.394 71.1629 403.394 75.0677C403.394 77.4076 402.955 79.806 402.093 82.2337C401.23 84.676 400.177 86.7234 398.949 88.376C398.701 88.7416 398.087 88.9171 397.107 88.9171C395.09 88.9171 393.262 88.1566 391.64 86.6503C391.069 86.1092 390.587 85.5535 390.236 84.9977C389.885 84.442 389.666 84.0179 389.593 83.7254C389.52 83.4329 389.417 83.1989 389.271 82.9942C389.125 82.7894 388.935 82.7017 388.672 82.7017C387.195 82.7017 384.842 83.8717 381.611 86.2262C378.38 88.5661 376.772 90.2626 376.772 91.3155C376.772 92.427 377.62 93.8456 379.315 95.5567C381.011 97.2677 383.087 98.1306 385.543 98.1306C387.561 98.1306 389.915 97.6187 392.575 96.595C395.236 95.5713 397.941 94.065 400.66 92.1053C403.379 90.1456 405.894 87.908 408.174 85.4219C410.455 82.9357 412.341 80.0693 413.803 76.8226C415.265 73.576 415.996 70.3147 415.996 67.0242C415.996 62.6514 414.124 58.7759 410.367 55.383H410.426ZM287.052 70.3147C284.435 74.1025 283.134 77.8025 283.134 81.4147V83.3159C283.134 83.3159 282.871 83.6669 282.433 84.2665C281.994 84.8661 281.745 85.2025 281.643 85.2902C281.555 85.378 281.278 85.6851 280.824 86.1823C280.371 86.6942 280.02 87.0013 279.772 87.1329C279.523 87.2645 279.143 87.4839 278.632 87.8057C278.12 88.1274 277.637 88.3468 277.17 88.4491C276.702 88.5515 276.132 88.6685 275.459 88.7709C274.787 88.8732 274.099 88.9317 273.383 88.9317C269.743 88.9317 266.41 87.1768 263.369 83.6815C260.343 80.1863 258.822 76.5009 258.822 72.64C258.822 68.4135 260.723 64.421 264.509 60.6186H267.755C279.289 60.6186 288.821 60.5455 296.321 60.3993C292.754 63.2072 289.655 66.5123 287.038 70.3001L287.052 70.3147ZM325.487 78.5922C323.001 82.5554 320.677 85.2756 318.513 86.7381C316.35 88.2005 313.63 88.9317 310.341 88.9317C306.73 88.9317 303.397 87.3084 300.327 84.0618C297.257 80.8151 295.722 77.2614 295.722 73.4005C295.722 70.9436 296.35 68.5305 297.622 66.1467C298.879 63.7629 300.385 61.8178 302.11 60.2969C311.13 60.1214 318.513 59.8874 324.288 59.5949C324.361 59.9166 324.478 60.3115 324.639 60.7649C324.8 61.2182 324.931 61.7008 325.048 62.2273C325.151 62.7538 325.267 63.9238 325.37 65.7518C325.472 67.5799 325.531 69.9783 325.531 72.9764C325.531 75.3163 325.516 77.2029 325.472 78.6068L325.487 78.5922Z" fill="black"/>
<path d="M424.607 17.8711C423.89 17.8711 423.042 18.0904 422.063 18.5438C421.083 18.9972 420.528 19.2165 420.381 19.2165C420.133 19.2165 420.001 19.0118 420.001 18.6169C420.001 17.7541 420.776 16.3063 422.326 14.2881C423.876 12.2699 425.82 10.3687 428.144 8.58449C430.469 6.8003 432.501 5.9082 434.226 5.9082C435.63 5.9082 437.018 6.30307 438.393 7.07817C439.767 7.85327 440.995 8.90623 442.091 10.2224C443.188 11.5387 444.153 12.8256 444.957 14.0979C445.761 15.3703 446.536 16.7304 447.252 18.2074C450.717 25.5636 455.132 35.0695 460.512 46.7253C468.728 64.5819 474.006 75.6234 476.315 79.8499C478.991 84.6175 481.154 87.2645 482.806 87.8056C483.128 87.908 483.435 87.9665 483.727 87.9665C483.976 87.9665 484.254 87.9373 484.546 87.8641L485.306 87.674C485.526 87.6155 485.716 87.5717 485.906 87.5424C486.096 87.5132 486.227 87.5278 486.344 87.6009C486.461 87.674 486.505 87.8203 486.505 88.0396C486.505 89.2242 484.678 91.2278 481.008 94.0211C477.339 96.8144 474.546 98.2183 472.602 98.2183C470.95 98.2183 469.415 97.0337 468.026 94.6792C466.637 92.3246 464.123 87.0013 460.483 78.7384C458.319 73.8246 456.55 69.8613 455.176 66.834C449.796 76.9396 446.141 83.1989 444.197 85.612C441.638 88.7855 438.422 91.6665 434.562 94.2697C430.703 96.8729 427.223 98.1598 424.124 98.1598C423.188 98.1598 422.311 98.0282 421.507 97.7796C420.703 97.531 420.045 97.2238 419.563 96.8582C419.08 96.4926 418.656 96.1124 418.291 95.7175C417.925 95.3227 417.677 94.9863 417.531 94.7231C417.384 94.4598 417.311 94.2843 417.311 94.2112C417.311 93.1582 418.92 91.4618 422.121 89.0926C425.337 86.7234 427.706 85.5535 429.255 85.5535C429.475 85.5535 429.723 85.6997 430.016 86.0068C430.308 86.3139 430.586 86.6357 430.849 86.9867C431.112 87.3377 431.595 87.6594 432.282 87.9665C432.969 88.2736 433.802 88.4199 434.767 88.4199C435.279 88.4199 435.673 88.4053 435.951 88.3614C438.904 83.5645 441.433 79.1479 443.524 75.1262C445.615 71.1044 447.369 67.5068 448.772 64.3333C450.176 61.1597 451.082 59.1708 451.477 58.3811C447.398 49.0799 443.202 39.9688 438.875 31.0478C437.106 27.4063 434.942 24.3059 432.384 21.7466C429.826 19.1873 427.223 17.9003 424.592 17.9003L424.607 17.8711Z" fill="black"/>
<path d="M556.444 87.9521C556.079 87.9521 555.655 88.0252 555.143 88.1714L554.442 88.4347C554.076 88.4347 553.725 88.3177 553.389 88.0837C553.053 87.8497 552.687 87.4256 552.307 86.8114C551.927 86.1971 551.605 85.4074 551.328 84.4568C551.065 83.5062 550.831 82.2193 550.655 80.6106C550.48 79.0019 550.377 77.1884 550.377 75.1702C550.377 70.7682 550.407 65.284 550.48 58.7176C550.874 57.5623 551.43 56.5824 552.132 55.7635C552.833 54.9445 553.506 54.3888 554.135 54.0816C554.763 53.7745 555.319 53.4528 555.787 53.1018C556.254 52.7654 556.488 52.3852 556.488 51.9903C556.488 51.5223 555.114 51.2884 552.38 51.2884C550.728 51.2884 548.915 51.6101 546.942 52.2389C544.983 52.8678 543.243 53.6136 541.723 54.4619C540.202 55.3101 538.93 56.1437 537.907 56.9773C536.884 57.8109 536.372 58.4397 536.372 58.8785L536.635 59.6975C536.781 60.2678 536.928 61.0283 537.074 61.9643C537.22 62.9002 537.293 63.8362 537.293 64.7722C537.293 68.1943 537.352 72.6256 537.454 78.0366C536.153 79.66 535.012 80.9908 534.018 82.0145C533.024 83.0382 531.738 84.1497 530.144 85.3197C528.551 86.4896 526.782 87.3817 524.823 87.9667C522.864 88.5517 520.685 88.8588 518.302 88.8588C513.975 88.8588 510.057 87.2501 506.534 84.0181C503.01 80.786 501.256 77.2323 501.256 73.3275C501.256 70.8706 501.68 68.4722 502.528 66.103C503.376 63.7338 504.414 61.7156 505.642 60.0192C505.891 59.6536 506.519 59.4781 507.543 59.4781C509.925 59.4781 512.075 60.3848 513.975 62.1836C514.341 62.5492 514.648 62.9002 514.896 63.2366C515.145 63.573 515.335 63.807 515.437 63.9093C515.539 64.0117 515.729 64.0702 515.978 64.0702C517.455 64.0702 519.808 62.9002 523.039 60.5749C526.27 58.2496 527.878 56.5239 527.878 55.4125C527.878 55.0469 527.542 54.4911 526.855 53.7306C526.168 52.9702 525.1 52.2097 523.639 51.4638C522.922 51.0982 522.191 50.8204 521.446 50.6302C522.22 49.6943 523.098 48.5682 524.062 47.1935C524.603 46.433 525.773 44.8535 527.556 42.4259C529.34 40.0128 530.627 38.2579 531.401 37.1757C532.176 36.0934 533.302 34.4847 534.778 32.3642C536.255 30.229 537.352 28.5326 538.083 27.2456C538.799 25.9586 539.603 24.5108 540.465 22.8582C541.328 21.2203 541.942 19.7578 542.307 18.5001C542.673 17.2424 542.848 16.1017 542.848 15.0926C542.848 13.6448 542.541 12.4017 541.927 11.3633C541.313 10.3104 540.509 9.53528 539.486 9.00879C538.477 8.48231 537.468 8.10207 536.489 7.86808C535.495 7.63409 534.472 7.51709 533.434 7.51709C531.562 7.51709 529.34 7.9997 526.782 8.97954C524.223 9.95939 521.753 11.2025 519.399 12.7088C517.031 14.2298 515.028 16.0432 513.361 18.1491C511.709 20.2551 510.876 22.3318 510.876 24.3499C510.876 26.7337 511.27 27.9183 512.06 27.9183C513.039 27.9183 514.487 27.348 516.417 26.2073C518.346 25.0665 520.086 23.7942 521.636 22.3903C523.185 20.9863 523.96 19.9333 523.96 19.246C523.96 19.1436 523.902 18.8511 523.799 18.4124C523.697 17.959 523.624 17.2863 523.58 16.3796C524.983 16.6282 526.168 17.0523 527.118 17.6519C528.068 18.2515 528.741 18.9389 529.121 19.714C529.501 20.4891 529.764 21.1618 529.91 21.7175C530.056 22.2733 530.13 22.829 530.13 23.3701C530.13 25.5345 528.916 29.293 526.504 34.631C525.057 37.8484 523.522 40.8464 521.899 43.6397C520.276 46.433 519.092 48.4804 518.361 49.782C518.244 49.9868 518.142 50.1915 518.054 50.3816C516.3 50.5132 514.326 50.9959 512.104 51.8587C509.472 52.8824 506.797 54.3887 504.063 56.3484C501.344 58.3081 498.829 60.5311 496.519 63.0026C494.21 65.4742 492.324 68.3259 490.862 71.5872C489.4 74.8339 488.669 78.0951 488.669 81.3857C488.669 85.7876 490.569 89.6631 494.356 93.0268C498.142 96.3758 502.557 98.0576 507.616 98.0576C512.996 98.0576 518.244 96.6829 523.39 93.9481C528.536 91.2133 533.287 87.7181 537.644 83.5062C537.717 85.5683 537.849 87.3525 538.053 88.888C538.258 90.4236 538.565 91.93 538.974 93.4363C539.384 94.928 539.998 96.0833 540.787 96.873C541.577 97.6628 542.556 98.0576 543.711 98.0576C545.231 98.0576 547.059 97.3849 549.222 96.0541C551.386 94.7232 553.228 93.29 554.734 91.7545C556.24 90.2189 557 89.1074 557 88.4201C557 88.0983 556.825 87.9374 556.459 87.9374L556.444 87.9521Z" fill="black"/>
</svg>
