<svg width="479" height="148" viewBox="0 0 479 148" fill="none" xmlns="http://www.w3.org/2000/svg">
<path d="M66.6075 36.6723C73.7488 36.6723 79.1148 40.5509 82.7054 48.3079C90.6609 40.5776 98.2427 36.7258 105.464 36.7258C107.56 36.7258 109.549 37.1672 111.431 38.0632C113.313 38.9593 114.915 40.1095 116.223 41.5272C117.531 42.9449 118.679 44.5498 119.627 46.3286C120.574 48.1073 121.295 49.8995 121.762 51.7184C122.229 53.5373 122.456 55.2626 122.456 56.8942C122.456 61.2676 121.001 65.641 118.091 70.0011C115.182 74.3611 111.791 78.0524 107.92 81.075C109.162 81.075 110.616 81.075 112.258 81.1017C113.9 81.1285 114.968 81.1285 115.435 81.1285C117.037 81.1285 118.252 81.0349 119.079 80.861C119.907 80.6871 120.761 80.326 121.615 79.791C124.605 77.7983 126.768 76.7952 128.116 76.7952C128.543 76.7952 128.757 76.9423 128.757 77.2232C128.757 78.681 125.486 81.4896 118.946 85.6624C115.435 87.9092 112.712 89.367 110.79 90.0625C108.868 90.758 107.119 91.1057 105.517 91.1057C101.393 91.1057 93.9446 90.9318 83.1593 90.5707C72.3739 90.2096 63.4039 90.0358 56.2226 90.0358C50.7098 90.0358 45.4773 90.1026 40.4984 90.2497V115.928C40.2181 117.038 38.9901 118.617 36.8277 120.676C34.6653 122.736 32.6363 124.194 30.7542 125.05C27.0968 126.762 24.0935 128.607 21.7442 130.6C19.3949 132.593 16.445 135.963 12.8944 140.698C11.5862 142.41 9.55731 144.041 6.84762 145.606C4.13794 147.171 2.13571 147.96 0.854284 147.96C0.280312 147.96 0 147.799 0 147.478C0 147.157 0.307009 146.502 0.907677 145.499C1.50835 144.496 2.45607 143.212 3.76419 141.634C5.07231 140.056 6.48722 138.544 8.04896 137.127C8.75642 136.485 9.33039 135.201 9.75753 133.261C10.1847 131.322 10.5851 126.334 10.9589 118.309C11.3326 110.284 11.5195 99.05 11.5195 84.5924C11.5195 75.7654 11.4127 68.8375 11.1991 63.7954C10.9856 58.7533 10.4917 54.8212 9.70414 51.9725C8.74307 48.4551 7.32816 46.6897 5.44606 46.6897C5.23249 46.6897 4.97888 46.7298 4.69856 46.8234C4.41825 46.917 4.15129 46.9973 3.92437 47.0909C3.69745 47.1845 3.45718 47.2514 3.23026 47.3049C3.00334 47.3584 2.81647 47.345 2.69634 47.2781C2.5762 47.2113 2.50946 47.0641 2.50946 46.8502C2.50946 46.1012 3.19022 44.8841 4.53839 43.199C5.88655 41.5138 7.60847 39.9223 9.70414 38.4511C11.7998 36.9799 13.6819 36.231 15.3504 36.231C16.2715 36.231 17.0857 36.4851 17.8065 36.9799C18.5273 37.4748 19.0879 38.0632 19.5418 38.7453C19.9956 39.4274 20.396 40.3369 20.7698 41.5004C21.1435 42.664 21.4239 43.6537 21.5974 44.4963C21.7709 45.3389 21.9845 46.4088 22.2381 47.7329C22.3449 48.2678 22.4116 48.6557 22.4517 48.9098C22.8788 48.5888 23.653 48.0405 24.8009 47.2514C25.9489 46.4623 26.8432 45.8337 27.524 45.3522C28.2047 44.8708 29.1258 44.1753 30.3004 43.2658C31.475 42.3564 32.663 41.4068 33.8644 40.4037C36.6675 37.9429 38.6964 36.7258 39.9378 36.7258C40.1914 36.7258 40.3783 36.7927 40.5251 36.9398V50.5548C44.1425 46.6763 48.3205 43.3862 53.0457 40.698C57.771 38.0097 62.296 36.6723 66.6342 36.6723H66.6075ZM23.5996 90.4905C23.5996 106.085 23.1858 117.814 22.3716 125.678C23.6797 124.715 25.9088 123.217 29.0323 121.198C29.0991 109.669 29.1391 94.7569 29.1391 76.4608C29.1391 61.9364 29.1258 52.7482 29.0857 48.9098C27.6708 50.0199 25.5751 51.5445 22.7987 53.4972C23.3326 64.9188 23.5996 77.2499 23.5996 90.5039V90.4905ZM71.8266 64.0629C71.8266 61.2543 71.1459 58.4323 69.771 55.5969C68.3962 52.7616 66.5274 50.4211 64.1514 48.5487C61.7755 46.6763 59.2526 45.7401 56.583 45.7401C54.9545 45.7401 53.3527 45.9674 51.791 46.4088C50.2293 46.8501 49.0546 47.3985 48.2804 48.0405C46.078 49.8861 43.4884 53.5908 40.4984 59.1411V82.1048C43.8088 81.5297 51.6842 81.1285 64.1648 80.8744C66.4073 78.7077 68.236 76.0997 69.6776 73.0504C71.1192 70.0011 71.84 67.0052 71.84 64.0495L71.8266 64.0629ZM94.9591 45.7535C92.3295 45.7535 90.3539 46.2751 89.0191 47.3316C87.6843 48.3882 86.0558 50.5816 84.147 53.9252C84.1871 54.313 84.2004 54.9015 84.2004 55.6906C84.2004 58.2852 83.7466 60.8932 82.8389 63.4878C81.9312 66.0824 80.7299 68.4496 79.2482 70.5895C77.7666 72.7294 76.2449 74.6152 74.7232 76.2736C73.2015 77.932 71.5997 79.4299 69.9312 80.7807C78.0602 80.7807 88.899 80.8744 102.434 81.0482C104.49 79.2026 106.265 76.8353 107.76 73.9732C109.255 71.1111 110.002 68.1955 110.002 65.2398C110.002 60.2512 108.427 55.7574 105.264 51.7585C102.1 47.7596 98.6699 45.7535 94.9858 45.7535H94.9591Z" fill="black"/>
<path d="M242.67 70.3622C242.67 67.1523 242.47 64.3839 242.083 62.03C241.696 59.6761 241.175 57.9107 240.534 56.7204C239.894 55.5301 239.253 54.6607 238.586 54.1258C237.918 53.5908 237.264 53.3233 236.583 53.3233C236.33 53.3233 235.876 53.4303 235.222 53.6443C234.568 53.8583 234.127 53.9653 233.914 53.9653C233.593 53.9653 233.433 53.8048 233.433 53.4838C233.433 52.989 233.9 52.1999 234.848 51.1032C235.796 50.0065 236.93 48.9365 238.279 47.8398C239.627 46.7432 241.135 45.807 242.804 44.9777C244.472 44.1485 245.927 43.7473 247.169 43.7473C251.36 43.7473 253.936 48.2143 254.897 57.1484C259.088 52.9488 263.467 49.6721 268.032 47.3182C272.597 44.9644 276.935 43.8008 281.06 43.8008C288.454 43.8008 293.901 47.4119 297.424 54.634C305.847 47.3717 313.522 43.7473 320.45 43.7473C323.12 43.7473 325.576 44.2957 327.832 45.4057C330.088 46.5158 331.903 47.9201 333.291 49.6454C334.679 51.3707 335.747 53.2297 336.521 55.2225C337.296 57.2152 337.669 59.1679 337.669 61.0938C337.669 63.8355 337.175 66.5371 336.201 69.212C335.227 71.8868 333.932 74.2808 332.343 76.4207C330.755 78.5606 328.94 80.54 326.937 82.3723C324.935 84.2046 322.893 85.7426 320.811 86.9597C318.728 88.1767 316.713 89.1531 314.764 89.8485C312.815 90.544 311.093 90.8917 309.598 90.8917C307.289 90.8917 305.393 90.116 303.925 88.5646C302.457 87.0132 301.709 85.7827 301.709 84.8599C301.709 84.1778 302.47 83.148 303.978 81.7571C305.487 80.3661 307.209 79.109 309.117 77.9989C311.026 76.8888 312.495 76.3137 313.482 76.3137C313.763 76.3137 313.963 76.3806 314.07 76.5277C314.176 76.6748 314.257 76.8621 314.31 77.0894C314.363 77.3168 314.524 77.6779 314.79 78.1594C315.057 78.6409 315.445 79.1357 315.938 79.6306C317.393 81.0884 318.982 81.8239 320.677 81.8239H321.104C321.211 81.8239 321.304 81.7838 321.371 81.7169C321.438 81.6501 321.491 81.5966 321.531 81.5832C321.571 81.5698 321.625 81.4628 321.718 81.289C321.812 81.1151 321.892 80.968 321.958 80.861C324.161 77.1964 325.269 73.4918 325.269 69.7603C325.269 67.3797 324.802 65.1061 323.881 62.9528C322.96 60.7995 321.772 58.994 320.317 57.5362C318.862 56.0784 317.247 54.9149 315.471 54.0723C313.696 53.2297 311.961 52.7883 310.252 52.7883C309.505 52.7883 308.784 52.8285 308.063 52.9221C307.342 53.0157 306.701 53.1494 306.087 53.3501C305.473 53.5507 304.939 53.7245 304.459 53.885C303.978 54.0455 303.485 54.2996 302.964 54.6607C302.443 55.0218 302.043 55.2893 301.763 55.4632C301.482 55.6371 301.122 55.9447 300.695 56.3727C300.268 56.8006 299.987 57.0681 299.867 57.1751C299.747 57.2821 299.48 57.563 299.093 58.0311L298.506 58.673V59.743C298.506 63.4744 297.785 67.0587 296.343 70.4692C294.902 73.8796 293.086 76.7952 290.884 79.2026C288.681 81.61 286.292 83.7097 283.716 85.5286C281.14 87.3475 278.697 88.685 276.388 89.5543C274.078 90.4236 272.103 90.865 270.474 90.865C268.125 90.865 266.216 90.1026 264.748 88.5913C263.28 87.08 262.532 85.8362 262.532 84.8867C262.532 84.2046 263.293 83.1747 264.801 81.7838C266.31 80.3929 268.032 79.1357 269.941 78.0256C271.849 76.9156 273.318 76.3405 274.305 76.3405C274.559 76.3405 274.719 76.3806 274.813 76.4475C274.906 76.5143 274.986 76.7016 275.053 76.9824C275.44 78.1861 276.254 79.3096 277.509 80.326C278.764 81.3425 280.139 81.8507 281.66 81.8507C281.834 81.8507 281.967 81.8106 282.034 81.7437C282.101 81.6768 282.261 81.4361 282.515 81.0482C283.476 79.4834 284.303 77.5442 285.024 75.2304C285.745 72.9167 286.092 70.5895 286.092 68.2357C286.092 64.317 284.517 60.7728 281.38 57.6165C278.23 54.4468 274.839 52.8686 271.182 52.8686C268.619 52.8686 266.35 53.3233 264.361 54.2328C262.372 55.1422 260.757 56.2657 259.516 57.6298C258.274 58.994 256.846 60.853 255.258 63.2337C255.298 65.8283 255.324 71.3786 255.364 79.8713C255.404 88.364 255.431 96.2147 255.471 103.423C255.511 110.632 255.524 114.39 255.524 114.711C255.565 115.714 255.645 116.57 255.791 117.306C255.938 118.042 256.085 118.536 256.245 118.831C256.405 119.125 256.552 119.366 256.672 119.58C256.793 119.794 256.859 119.954 256.859 120.061C256.859 120.529 256.312 121.238 255.231 122.228C254.15 123.217 252.855 124.127 251.373 124.983C251.266 125.05 250.506 125.638 249.077 126.721C247.649 127.805 246.167 128.915 244.606 130.065C243.044 131.215 241.309 132.258 239.413 133.248C237.518 134.238 235.996 134.719 234.861 134.719C234.328 134.719 234.061 134.572 234.061 134.291C234.061 133.93 234.434 133.382 235.182 132.633C235.929 131.884 236.704 131.188 237.531 130.547L238.706 129.584C240.841 127.163 242.043 124.475 242.323 121.519V119.272C242.363 117.747 242.39 115.728 242.403 113.24C242.417 110.753 242.443 107.944 242.483 104.828C242.523 101.712 242.55 98.4616 242.563 95.0779C242.577 91.6942 242.603 88.4576 242.617 85.3548C242.63 82.2519 242.657 79.3631 242.67 76.6748C242.684 73.9866 242.697 71.9002 242.697 70.4023L242.67 70.3622Z" fill="black"/>
<path d="M412.446 52.8418C410.497 52.8418 408.748 53.0692 407.227 53.5373C405.705 54.0054 404.303 54.7276 403.049 55.7307C401.794 56.7337 400.686 57.7769 399.738 58.887C398.791 59.9971 397.736 61.4281 396.561 63.2069C396.628 73.4917 396.882 79.9382 397.309 82.5328C396.949 83.3218 396.174 84.1377 394.96 84.9936C393.745 85.8496 392.65 86.5183 391.649 86.9998C390.648 87.4813 389.287 88.0831 387.551 88.8187C385.816 89.5543 384.868 89.9555 384.722 90.0224C381.772 91.3732 379.569 92.0553 378.114 92.0553C377.434 92.0553 377.1 91.8814 377.1 91.5203C377.1 91.1324 377.407 90.6777 378.008 90.1829C378.608 89.688 379.289 89.1932 380.036 88.7117C380.784 88.2302 381.505 87.4813 382.226 86.4381C382.946 85.3949 383.36 84.2179 383.507 82.8671C383.547 82.506 383.614 79.8579 383.721 74.9094C383.827 69.9609 383.881 67.1256 383.881 66.4167C383.881 64.0629 383.654 61.9898 383.213 60.1977C382.773 58.4055 382.199 57.0414 381.505 56.1185C380.811 55.1957 380.13 54.5002 379.449 54.0321C378.768 53.564 378.154 53.3367 377.58 53.3367C377.407 53.3367 377.046 53.4303 376.513 53.6042C375.979 53.778 375.538 53.8716 375.204 53.8716C374.871 53.8716 374.697 53.6978 374.697 53.3367C374.697 52.6546 375.445 51.5579 376.94 50.0198C378.435 48.4818 380.277 47.0641 382.452 45.7534C384.628 44.4428 386.51 43.774 388.072 43.774C390.488 43.774 392.424 45.0981 393.878 47.7462C395.333 50.3943 396.174 53.4704 396.388 56.9611C398.484 54.8613 400.78 52.8953 403.262 51.063C405.745 49.2308 408.802 47.559 412.433 46.0477C416.063 44.5364 419.534 43.774 422.871 43.774C425.113 43.774 427.182 44.1619 429.104 44.951C431.027 45.7401 432.615 46.7699 433.896 48.0806C435.178 49.3912 436.166 50.5414 436.886 51.5445C437.607 52.5476 438.221 53.6042 438.755 54.6741C447.178 47.4119 454.826 43.7874 461.727 43.7874C464.424 43.7874 466.907 44.3358 469.162 45.4458C471.418 46.5559 473.234 47.9736 474.622 49.7122C476.01 51.4509 477.078 53.3233 477.852 55.3161C478.626 57.3088 479 59.2481 479 61.1339C479 63.8756 478.506 66.5772 477.532 69.2521C476.557 71.9269 475.262 74.3209 473.674 76.4608C472.086 78.6007 470.27 80.5801 468.268 82.4124C466.266 84.2447 464.224 85.7827 462.141 86.9998C460.059 88.2168 458.043 89.1932 456.094 89.8886C454.146 90.5841 452.424 90.9318 450.929 90.9318C448.619 90.9318 446.724 90.1561 445.229 88.6047C443.734 87.0533 442.987 85.8228 442.987 84.9C442.987 84.2179 443.747 83.1881 445.256 81.7972C446.764 80.4062 448.486 79.1491 450.395 78.039C452.304 76.9289 453.772 76.3538 454.76 76.3538C455.04 76.3538 455.24 76.4207 455.347 76.5678C455.454 76.7149 455.534 76.9022 455.587 77.1295C455.641 77.3569 455.801 77.718 456.068 78.1995C456.335 78.681 456.722 79.1758 457.216 79.6707C458.671 81.1285 460.259 81.8641 461.954 81.8641H462.381C462.488 81.8641 462.582 81.8239 462.648 81.7571C462.715 81.6902 462.769 81.6367 462.809 81.6233C462.849 81.6099 462.902 81.5029 462.995 81.3291C463.089 81.1552 463.169 81.0081 463.236 80.9011C465.438 77.2365 466.546 73.5319 466.546 69.8004C466.546 65.1061 464.958 61.0938 461.781 57.7903C458.604 54.4869 455.2 52.8284 451.583 52.8284C450.902 52.8284 450.248 52.8686 449.581 52.9622C448.913 53.0558 448.339 53.1494 447.819 53.2564C447.298 53.3634 446.764 53.5373 446.217 53.7646C445.67 53.992 445.216 54.1926 444.855 54.3531C444.495 54.5136 444.094 54.7677 443.654 55.1021C443.213 55.4364 442.866 55.6905 442.639 55.851C442.413 56.0115 442.106 56.279 441.732 56.6535C441.358 57.028 441.104 57.2687 440.984 57.3757C440.864 57.4827 440.637 57.7234 440.317 58.0979C439.997 58.4724 439.823 58.673 439.783 58.7131V59.7831C439.783 63.5145 439.062 67.0988 437.621 70.5093C436.179 73.9197 434.364 76.8353 432.161 79.2427C429.959 81.6501 427.569 83.7498 424.993 85.5687C422.417 87.3876 419.974 88.7251 417.665 89.5944C415.356 90.4637 413.38 90.9051 411.752 90.9051C409.402 90.9051 407.494 90.1427 406.025 88.6314C404.557 87.1201 403.81 85.8763 403.81 84.9268C403.81 84.2447 404.57 83.2149 406.079 81.8239C407.587 80.433 409.309 79.1758 411.218 78.0657C413.127 76.9557 414.595 76.3806 415.583 76.3806C415.836 76.3806 415.996 76.4207 416.09 76.4876C416.183 76.5545 416.263 76.7417 416.33 77.0226C416.717 78.2262 417.532 79.3497 418.786 80.3661C420.041 81.3826 421.416 81.8908 422.938 81.8908C423.111 81.8908 423.245 81.8507 423.311 81.7838C423.378 81.7169 423.538 81.4762 423.792 81.0883C424.753 79.5235 425.58 77.5843 426.301 75.2705C427.022 72.9568 427.369 70.6296 427.369 68.2758C427.369 64.3571 425.794 60.8129 422.657 57.6566C419.52 54.5002 416.117 52.9087 412.459 52.9087L412.446 52.8418Z" fill="black"/>
<path d="M228.094 55.2492C227.333 53.2565 226.252 51.3974 224.864 49.6722C223.475 47.9469 221.66 46.5292 219.404 45.4325C217.148 44.3224 214.692 43.7741 212.023 43.7741C205.095 43.7741 197.42 47.3985 188.997 54.6608C188.463 53.5908 187.849 52.5476 187.128 51.5312C186.421 50.5147 185.42 49.3645 184.138 48.0672C183.151 47.0642 181.976 46.2216 180.601 45.5261C181.562 44.4829 182.683 43.0652 183.992 41.2062C184.525 40.4573 185.673 38.8925 187.422 36.5118C189.184 34.1312 190.439 32.4059 191.2 31.336C191.96 30.266 193.068 28.6879 194.537 26.5881C195.992 24.4883 197.073 22.8032 197.794 21.546C198.514 20.2888 199.289 18.8444 200.143 17.2261C200.997 15.6078 201.598 14.1768 201.958 12.9329C202.319 11.6891 202.492 10.5657 202.492 9.56262C202.492 8.14495 202.185 6.91451 201.584 5.88469C200.984 4.85487 200.183 4.07916 199.182 3.55756C198.181 3.03597 197.206 2.66149 196.218 2.43412C195.244 2.20676 194.243 2.08639 193.202 2.08639C191.36 2.08639 189.171 2.56787 186.648 3.53082C184.125 4.49376 181.696 5.7242 179.373 7.20875C177.05 8.69329 175.062 10.4988 173.433 12.5718C171.805 14.6449 170.977 16.6911 170.977 18.6839C170.977 21.0378 171.364 22.2013 172.152 22.2013C173.113 22.2013 174.541 21.6396 176.436 20.5162C178.332 19.3927 180.054 18.1355 181.575 16.758C183.097 15.3671 183.871 14.3372 183.871 13.6552C183.871 13.5482 183.818 13.2673 183.711 12.826C183.604 12.3846 183.538 11.7159 183.498 10.8198C184.886 11.0739 186.047 11.4885 186.982 12.077C187.916 12.6655 188.583 13.3342 188.957 14.1099C189.331 14.8722 189.584 15.5276 189.731 16.0893C189.878 16.6376 189.945 17.186 189.945 17.7209C189.945 19.8608 188.757 23.5521 186.381 28.8216C184.966 31.9913 183.444 34.947 181.856 37.7155C180.254 40.4706 179.093 42.4902 178.372 43.7741C178.225 44.0148 178.118 44.2556 177.998 44.4829C176.463 44.0148 174.835 43.7741 173.099 43.7741C170.577 43.7741 167.987 44.1887 165.317 45.0313C162.648 45.8738 160.178 46.9705 157.882 48.3481C155.587 49.7123 153.544 51.1032 151.729 52.5075C149.914 53.9118 148.245 55.383 146.723 56.9076C146.657 29.8916 146.416 14.6181 146.029 11.1007C145.776 8.82704 145.429 6.91451 144.961 5.38984C144.494 3.86517 143.974 2.71498 143.386 1.9794C142.799 1.24381 142.212 0.722212 141.624 0.427978C141.037 0.147117 140.396 0 139.675 0C138.074 0 136.165 0.682089 133.949 2.03289C131.733 3.3837 129.865 4.8415 128.356 6.37954C126.848 7.91758 126.087 9.04103 126.087 9.72312C126.087 9.9371 126.154 10.0842 126.301 10.1511C126.447 10.218 126.634 10.2313 126.888 10.1778C127.142 10.1243 127.382 10.0575 127.635 9.9906C127.889 9.92373 128.156 9.84348 128.436 9.74986C128.717 9.65624 128.93 9.61612 129.077 9.61612C132.347 9.61612 133.976 15.5811 133.976 27.4976C133.976 28.8082 133.949 30.373 133.896 32.1652C133.842 33.9573 133.816 35.0005 133.816 35.2948C133.776 37.9295 133.669 49.6721 133.495 70.5361C133.429 78.8281 133.188 83.7231 132.801 85.221C132.588 85.97 132.04 86.8928 131.146 88.0029C130.972 88.2169 130.519 88.578 129.784 89.0728C129.05 89.5677 128.423 90.0759 127.862 90.5708C127.315 91.0656 127.035 91.4936 127.035 91.8547C127.035 92.1355 127.315 92.2827 127.889 92.2827C129.918 92.2827 133.655 91.0121 139.102 88.471C144.561 85.9299 147.284 84.0842 147.284 82.9474V82.8939C146.964 81.717 146.763 75.2037 146.697 63.3541C149.113 59.6895 151.449 57.028 153.704 55.3696C155.96 53.7112 158.95 52.882 162.688 52.882C166.425 52.882 169.749 54.4601 172.886 57.6299C176.036 60.7996 177.598 64.3438 177.598 68.2491C177.598 70.6029 177.237 72.9301 176.53 75.2438C175.822 77.5576 174.981 79.4968 174.02 81.0616C173.767 81.4495 173.607 81.6902 173.54 81.7571C173.473 81.824 173.34 81.8641 173.166 81.8641C171.644 81.8641 170.256 81.3559 169.015 80.3394C167.773 79.323 166.959 78.2129 166.559 76.9958C166.492 76.715 166.412 76.5277 166.318 76.4609C166.225 76.394 166.065 76.3539 165.811 76.3539C164.81 76.3539 163.355 76.9156 161.446 78.039C159.524 79.1625 157.816 80.4197 156.307 81.7972C154.799 83.1881 154.038 84.218 154.038 84.9001C154.038 85.863 154.772 87.0934 156.254 88.6047C157.736 90.116 159.644 90.8784 161.98 90.8784C163.609 90.8784 165.584 90.437 167.894 89.5677C170.203 88.6984 172.646 87.3475 175.222 85.542C177.798 83.7231 180.187 81.6234 182.39 79.216C184.592 76.8086 186.408 73.9064 187.849 70.4826C189.291 67.0721 190.012 63.4878 190.012 59.7564V58.6864L190.599 58.0445C190.986 57.5764 191.253 57.2955 191.373 57.1885C191.493 57.0815 191.774 56.814 192.201 56.386C192.628 55.9581 192.988 55.6505 193.268 55.4766C193.549 55.3027 193.949 55.0352 194.47 54.6741C194.99 54.313 195.484 54.0589 195.965 53.8984C196.445 53.7379 196.993 53.5641 197.593 53.3635C198.194 53.1628 198.848 53.0291 199.569 52.9355C200.29 52.8419 201.01 52.8017 201.758 52.8017C203.467 52.8017 205.202 53.2297 206.977 54.0857C208.752 54.9416 210.368 56.0918 211.823 57.5496C213.277 59.0074 214.465 60.8129 215.386 62.9662C216.307 65.1195 216.775 67.3931 216.775 69.7737C216.775 73.5051 215.667 77.2098 213.464 80.8744C213.398 80.9814 213.318 81.1285 213.224 81.3024C213.131 81.4762 213.077 81.5832 213.037 81.5966C212.997 81.61 212.944 81.6635 212.877 81.7303C212.81 81.7972 212.717 81.8373 212.61 81.8373H212.183C210.474 81.8373 208.899 81.1018 207.444 79.644C206.95 79.1491 206.563 78.6543 206.296 78.1728C206.029 77.6913 205.869 77.3302 205.816 77.1028C205.762 76.8755 205.682 76.6882 205.576 76.5411C205.469 76.394 205.269 76.3271 204.988 76.3271C203.987 76.3271 202.532 76.8888 200.623 78.0123C198.701 79.1357 196.993 80.3929 195.484 81.7705C193.976 83.1614 193.215 84.1912 193.215 84.8733C193.215 85.7961 193.949 87.0399 195.431 88.578C196.913 90.116 198.795 90.9051 201.104 90.9051C202.599 90.9051 204.321 90.5574 206.27 89.8619C208.218 89.1664 210.234 88.2035 212.316 86.9731C214.399 85.7426 216.441 84.218 218.443 82.3857C220.445 80.5534 222.247 78.574 223.849 76.4341C225.451 74.2942 226.732 71.9002 227.707 69.2254C228.681 66.5505 229.175 63.8489 229.175 61.1072C229.175 59.1813 228.788 57.2286 228.027 55.2359L228.094 55.2492Z" fill="black"/>
<path d="M373.816 5.85787C373.216 4.82805 372.415 4.05234 371.414 3.53074C370.412 3.00915 369.438 2.63467 368.45 2.4073C367.476 2.17994 366.475 2.05957 365.434 2.05957C363.591 2.05957 361.402 2.54105 358.88 3.50399C356.357 4.46694 353.927 5.69738 351.605 7.18193C349.282 8.66647 347.293 10.472 345.665 12.545C344.036 14.618 343.209 16.6643 343.209 18.6571C343.209 21.011 343.596 22.1745 344.383 22.1745C345.345 22.1745 346.773 21.6128 348.668 20.4894C350.564 19.3659 352.286 18.1087 353.807 16.7312C355.329 15.3403 356.103 14.3104 356.103 13.6283C356.103 13.5213 356.05 13.2405 355.943 12.7991C355.836 12.3578 355.769 11.6891 355.729 10.793C357.118 11.0471 358.279 11.4617 359.213 12.0502C360.148 12.6386 360.815 13.3074 361.189 14.0831C361.563 14.8454 361.816 15.5007 361.963 16.0625C362.11 16.6108 362.177 17.1592 362.177 17.6941C362.177 19.834 360.989 23.5253 358.613 28.7948C357.198 31.9645 355.676 34.9202 354.088 37.6887C352.486 40.4438 351.325 42.4633 350.604 43.7473C349.87 45.0312 349.509 46.0744 349.509 46.9036C349.509 47.2781 349.629 47.4787 349.87 47.5188C348.788 48.3213 347.814 49.1505 346.946 50.0332C345.425 51.5846 344.65 52.708 344.65 53.4303C344.65 53.6442 344.731 53.7914 344.891 53.8582C345.051 53.9251 345.251 53.9385 345.478 53.885C345.705 53.8315 345.959 53.7646 346.226 53.6977C346.492 53.6309 346.746 53.5506 347 53.457C347.253 53.3634 347.44 53.3233 347.587 53.3233C350.857 53.3233 352.486 58.8602 352.486 69.9341L352.059 120.235C351.738 122.228 350.977 124.14 349.789 125.972C348.601 127.805 347.36 129.129 346.092 129.945C344.811 130.76 343.769 131.563 342.942 132.352C342.128 133.141 341.714 133.743 341.714 134.171C341.714 134.492 341.967 134.652 342.461 134.652C343.85 134.652 345.999 133.837 348.909 132.192C350.897 131.055 352.726 129.838 354.395 128.567C356.063 127.283 357.411 126.186 358.439 125.25C359.467 124.327 360.201 123.739 360.628 123.485C362.404 122.482 363.858 121.479 364.966 120.462C366.088 119.446 366.648 118.71 366.648 118.242C366.648 118.135 366.608 118.041 366.541 117.975C365.861 117.012 365.474 115.554 365.367 113.601C365.26 111.649 365.193 105.456 365.153 95.0243C365.153 86.1304 365.14 78.4536 365.1 72.0072V69.7603C365.1 67.1255 365.087 64.9322 365.046 63.1935C365.006 61.4548 364.926 59.4621 364.806 57.2152C364.686 54.9683 364.472 53.1494 364.192 51.7451C363.912 50.3408 363.511 48.9632 363.018 47.6392C362.524 46.3018 361.87 45.3254 361.042 44.6968C360.214 44.0682 359.267 43.7606 358.159 43.7606C356.637 43.7606 354.808 44.4026 352.686 45.6464C353.674 44.5898 354.835 43.132 356.197 41.1928C356.731 40.4438 357.878 38.879 359.627 36.4984C361.389 34.1178 362.644 32.3925 363.405 31.3225C364.165 30.2526 365.273 28.6744 366.742 26.5747C368.197 24.4749 369.278 22.7897 369.999 21.5326C370.719 20.2754 371.494 18.8309 372.348 17.2127C373.202 15.5944 373.803 14.1633 374.163 12.9195C374.524 11.6757 374.697 10.5523 374.697 9.54918C374.697 8.1315 374.39 6.90107 373.79 5.87125L373.816 5.85787Z" fill="black"/>
</svg>
