<svg width="497" height="156" viewBox="0 0 497 156" fill="none" xmlns="http://www.w3.org/2000/svg">
<path d="M70.3783 38.4371C77.9169 38.4371 83.5899 42.5347 87.3756 50.7299C95.7869 42.5784 103.795 38.4917 111.41 38.4917C113.624 38.4917 115.73 38.9616 117.715 39.9013C119.701 40.841 121.392 42.0648 122.777 43.5618C124.163 45.0588 125.363 46.7525 126.378 48.6319C127.392 50.5113 128.145 52.4126 128.625 54.3248C129.105 56.2371 129.356 58.0619 129.356 59.7992C129.356 64.4213 127.818 69.0325 124.741 73.6437C121.665 78.2548 118.075 82.1448 113.984 85.3464C115.293 85.3464 116.832 85.3464 118.577 85.3792C120.323 85.412 121.436 85.412 121.927 85.412C123.618 85.412 124.905 85.3136 125.778 85.1279C126.65 84.9421 127.556 84.5597 128.451 84.0024C131.603 81.8935 133.894 80.8445 135.324 80.8445C135.771 80.8445 136 80.9975 136 81.2925C136 82.8332 132.553 85.8054 125.647 90.198C121.927 92.5691 119.057 94.1208 117.039 94.8529C115.021 95.585 113.155 95.9565 111.464 95.9565C107.111 95.9565 99.2344 95.7707 87.8447 95.3883C76.455 95.0168 66.9745 94.8201 59.3923 94.8201C53.5774 94.8201 48.0353 94.8966 42.7877 95.0496V122.17C42.4823 123.339 41.1949 125.011 38.9039 127.186C36.6129 129.36 34.4746 130.912 32.489 131.808C28.627 133.611 25.4523 135.567 22.9758 137.676C20.4993 139.784 17.3791 143.336 13.6262 148.329C12.2407 150.132 10.1133 151.859 7.23311 153.52C4.35296 155.18 2.24739 156 0.905503 156C0.305471 156 0 155.836 0 155.497C0 155.159 0.316381 154.459 0.960051 153.41C1.60372 152.361 2.5965 150.995 3.97112 149.324C5.34574 147.652 6.85128 146.067 8.49864 144.56C9.2514 143.882 9.85144 142.516 10.2987 140.473C10.746 138.429 11.1715 133.163 11.5643 124.683C11.957 116.204 12.1534 104.337 12.1534 89.0725C12.1534 79.7518 12.0443 72.4308 11.8152 67.1094C11.5861 61.7879 11.0624 57.6248 10.2442 54.6199C9.22958 50.8938 7.73496 49.0362 5.73849 49.0362C5.50939 49.0362 5.24755 49.0799 4.95299 49.1783C4.65843 49.2766 4.38569 49.364 4.13477 49.4624C3.88384 49.5607 3.64383 49.6263 3.40382 49.6918C3.16381 49.7574 2.96743 49.7355 2.83652 49.659C2.7056 49.5826 2.64014 49.4296 2.64014 49.211C2.64014 48.4243 3.34927 47.1349 4.77844 45.3538C6.2076 43.5727 8.02952 41.9009 10.2442 40.3384C12.4588 38.7758 14.4444 38 16.2118 38C17.1827 38 18.0555 38.2622 18.7974 38.7867C19.5392 39.3112 20.1611 39.9341 20.6302 40.6443C21.0993 41.3546 21.5357 42.3271 21.9284 43.5509C22.3212 44.7747 22.6158 45.8237 22.8012 46.7088C22.9867 47.5939 23.2158 48.7303 23.4776 50.118C23.5867 50.6862 23.6631 51.0905 23.7067 51.3636C24.154 51.0249 24.9832 50.4458 26.1832 49.6153C27.3833 48.7849 28.3433 48.1183 29.0525 47.6157C29.7616 47.1131 30.7435 46.37 31.9763 45.4194C33.209 44.4687 34.4746 43.4525 35.751 42.4036C38.7184 39.8139 40.8567 38.5136 42.1659 38.5136C42.4277 38.5136 42.635 38.5901 42.7877 38.743V53.1229C46.617 49.0253 51.0245 45.5614 56.0212 42.7204C61.0178 39.8794 65.7962 38.4589 70.3783 38.4589V38.4371ZM24.9504 95.2681C24.9504 111.735 24.514 124.115 23.6522 132.42C25.0377 131.403 27.3833 129.83 30.6889 127.688C30.7653 115.505 30.798 99.7591 30.798 80.4402C30.798 65.0988 30.7762 55.4066 30.7435 51.3418C29.2379 52.511 27.0233 54.1282 24.0995 56.1934C24.6668 68.2567 24.9395 81.2816 24.9395 95.2681H24.9504ZM75.8986 67.3607C75.8986 64.3886 75.1786 61.4164 73.7276 58.4225C72.2766 55.4285 70.3019 52.9481 67.7927 50.9812C65.2835 49.0144 62.6106 48.02 59.7959 48.02C58.0722 48.02 56.3812 48.2495 54.7338 48.7193C53.0865 49.1892 51.8428 49.7574 51.0136 50.4349C48.6899 52.3908 45.9515 56.3026 42.7987 62.1595V86.4063C46.2897 85.8054 54.6247 85.3683 67.7927 85.106C70.1601 82.8114 72.102 80.0578 73.6185 76.8453C75.1349 73.6327 75.8986 70.4639 75.8986 67.3498V67.3607ZM100.325 48.02C97.5434 48.02 95.4596 48.5773 94.0523 49.6809C92.645 50.7845 90.9321 53.112 88.9029 56.6414C88.9357 57.0566 88.9575 57.6794 88.9575 58.4989C88.9575 61.2416 88.4775 63.9843 87.5174 66.7269C86.5574 69.4696 85.2918 71.9719 83.7208 74.2228C82.1499 76.4738 80.5461 78.4843 78.9315 80.2326C77.3169 81.9809 75.6259 83.5653 73.8694 84.9968C82.4662 84.9968 93.9105 85.0951 108.213 85.2809C110.395 83.3249 112.271 80.8336 113.842 77.8068C115.413 74.7801 116.21 71.7096 116.21 68.5845C116.21 63.3177 114.541 58.5754 111.202 54.3467C107.864 50.118 104.242 48.0091 100.336 48.0091L100.325 48.02Z" fill="black"/>
<path d="M294.95 45.9788C297.866 45.9788 300.54 46.5331 302.983 47.6306C305.426 48.7282 307.407 50.1409 308.914 51.8688C310.422 53.5967 311.599 55.4115 312.436 57.335C313.272 59.2585 313.69 61.1167 313.69 62.9098C313.69 66.8763 312.227 70.8646 309.288 74.8854C306.35 78.9062 302.961 82.3294 299.098 85.1766C300.65 85.1766 302.444 85.1766 304.49 85.2092C306.537 85.2418 307.825 85.2418 308.353 85.2418C310.279 85.2418 311.72 85.144 312.667 84.9592C313.613 84.7745 314.538 84.3941 315.451 83.8399C318.664 81.7426 320.964 80.6993 322.318 80.6993C322.769 80.6993 323 80.8514 323 81.1449C323 82.6771 319.523 85.633 312.557 90.0016C308.738 92.3923 305.833 93.9463 303.841 94.6527C301.849 95.3591 299.23 95.7177 295.973 95.7177C295.027 95.7177 291.252 95.5981 284.649 95.3482C278.047 95.0982 271.433 94.9787 264.808 94.9787C260.758 94.9787 256.896 95.0765 253.22 95.2613C250.491 96.424 248.455 97 247.091 97C246.376 97 246.012 96.8153 246.012 96.4349C246.012 96.0546 246.31 95.609 246.893 95.0874C247.476 94.5658 248.158 94.0441 248.94 93.5225C249.721 93.0009 250.194 92.6205 250.392 92.4032C251.339 91.2404 251.922 90.2732 252.153 89.4908C252.571 87.9259 252.813 82.7858 252.89 74.0704C253.077 52.1622 253.198 39.828 253.231 37.0569C253.231 36.7526 253.264 35.6659 253.319 33.775C253.374 31.8842 253.407 30.2541 253.407 28.874C253.407 16.355 251.669 10.0847 248.18 10.0847C248.026 10.0847 247.806 10.1282 247.498 10.226C247.19 10.3238 246.915 10.3998 246.651 10.4759C246.387 10.552 246.122 10.6172 245.858 10.6715C245.594 10.7259 245.385 10.715 245.231 10.6389C245.077 10.5628 245 10.4107 245 10.1934C245 9.487 245.803 8.31335 247.41 6.69415C249.017 5.07495 251.008 3.54268 253.374 2.11909C255.74 0.695496 257.754 0 259.46 0C260.219 0 260.913 0.15214 261.529 0.445552C262.145 0.738965 262.783 1.28232 263.4 2.07562C264.016 2.86892 264.577 4.05344 265.072 5.66177C265.567 7.27011 265.942 9.26966 266.206 11.6604C266.624 15.3987 266.866 31.4929 266.943 59.9431C268.572 58.3782 270.343 56.846 272.247 55.368C274.151 53.8901 276.341 52.4013 278.806 50.9125C281.271 49.4237 283.912 48.2175 286.729 47.3263C289.546 46.4352 292.286 45.9788 294.938 45.9788H294.95ZM300.463 71.4948C300.463 67.4957 298.757 63.8227 295.357 60.4756C291.956 57.1285 288.292 55.455 284.396 55.455C282.999 55.455 281.667 55.5854 280.424 55.8462C279.18 56.107 278.102 56.4004 277.21 56.7155C276.319 57.0307 275.394 57.5523 274.426 58.2804C273.458 59.0085 272.72 59.5845 272.214 59.9866C271.708 60.3886 271.037 61.1276 270.2 62.1708C269.364 63.2141 268.814 63.9313 268.55 64.3008C268.286 64.6703 267.757 65.4419 266.965 66.6046C267.042 77.0371 267.196 83.3726 267.416 85.6112C273.326 85.307 281.975 85.1657 293.365 85.1657C294.729 83.8182 295.808 82.688 296.6 81.7751C297.393 80.8623 298.24 79.4279 299.131 77.4826C300.023 75.5374 300.463 73.5379 300.463 71.484V71.4948Z" fill="black"/>
<path d="M240.712 58.0717C239.905 55.9724 238.77 54.0255 237.308 52.209C235.846 50.3926 233.925 48.9024 231.535 47.7495C229.146 46.5965 226.549 46.0092 223.733 46.0092C216.411 46.0092 208.304 49.827 199.41 57.4625C198.843 56.3422 198.188 55.2437 197.435 54.1777C196.682 53.1118 195.635 51.8936 194.282 50.534C192.929 49.1744 191.237 48.0758 189.219 47.2492C188.739 47.0534 188.247 46.8902 187.756 46.7379C188.957 45.672 190.506 43.8121 192.405 41.1364C192.972 40.3532 194.184 38.6999 196.039 36.1983C197.894 33.6966 199.225 31.8801 200.032 30.7489C200.84 29.6286 202.008 27.9645 203.557 25.7564C205.107 23.5484 206.241 21.7864 206.994 20.4485C207.747 19.1107 208.566 17.6097 209.471 15.902C210.377 14.1943 211.01 12.6933 211.381 11.3881C211.752 10.0829 211.948 8.89729 211.948 7.85311C211.948 6.3521 211.632 5.06863 210.988 3.98094C210.355 2.89325 209.504 2.07748 208.456 1.54452C207.409 1.00067 206.361 0.609105 205.336 0.369814C204.299 0.130523 203.241 0 202.149 0C200.196 0 197.894 0.500336 195.22 1.51189C192.558 2.52344 189.993 3.81778 187.538 5.38405C185.083 6.95033 182.988 8.83202 181.264 11.0292C179.54 13.2263 178.678 15.3582 178.678 17.4574C178.678 19.9264 179.092 21.1664 179.922 21.1664C180.936 21.1664 182.442 20.5791 184.45 19.3935C186.458 18.2188 188.269 16.8918 189.884 15.4343C191.499 13.9768 192.307 12.8891 192.307 12.1821C192.307 12.0733 192.252 11.7797 192.143 11.312C192.034 10.8442 191.958 10.1373 191.914 9.21272C193.376 9.47376 194.609 9.91971 195.602 10.5288C196.595 11.1488 197.294 11.8558 197.686 12.6607C198.079 13.4656 198.352 14.1617 198.505 14.7382C198.658 15.3146 198.734 15.8911 198.734 16.4458C198.734 18.6865 197.479 22.5804 194.958 28.1167C193.452 31.4451 191.859 34.5667 190.168 37.46C188.477 40.3641 187.254 42.4851 186.48 43.8338C185.956 44.7584 185.618 45.5524 185.454 46.2485C184.548 46.1071 183.61 46.0201 182.65 46.0201C179.987 46.0201 177.248 46.4551 174.433 47.3362C171.618 48.2172 168.999 49.3702 166.576 50.8168C164.154 52.2634 161.982 53.7209 160.073 55.1893C158.163 56.6685 156.395 58.2131 154.78 59.8228C154.704 31.4233 154.464 15.369 154.049 11.6709C153.787 9.27798 153.416 7.27663 152.925 5.66685C152.434 4.05708 151.889 2.86062 151.267 2.07748C150.645 1.29435 150.023 0.750505 149.412 0.445952C148.79 0.141399 148.102 0 147.36 0C145.669 0 143.65 0.706997 141.304 2.13187C138.958 3.55674 136.983 5.0795 135.39 6.71103C133.797 8.34257 133 9.50639 133 10.2243C133 10.4527 133.076 10.5941 133.229 10.6702C133.382 10.7464 133.589 10.7572 133.851 10.7028C134.113 10.6485 134.375 10.5832 134.637 10.5071C134.899 10.4309 135.182 10.3439 135.477 10.2569C135.772 10.1699 136.001 10.1155 136.154 10.1155C139.602 10.1155 141.337 16.3806 141.337 28.9216C141.337 30.303 141.304 31.9454 141.249 33.838C141.195 35.7305 141.162 36.8182 141.162 37.1228C141.129 39.8964 141.009 52.2417 140.824 74.1694C140.748 82.8927 140.507 88.0375 140.093 89.6037C139.864 90.3869 139.285 91.3658 138.347 92.5187C138.161 92.7471 137.681 93.117 136.906 93.6391C136.132 94.1611 135.466 94.6832 134.877 95.2053C134.299 95.7274 134.004 96.1734 134.004 96.5541C134.004 96.8586 134.309 97 134.91 97C137.048 97 140.998 95.6622 146.76 92.9864C152.522 90.3107 155.402 88.3746 155.402 87.1782V87.1238C155.064 85.8838 154.857 79.0423 154.78 66.5774C157.334 62.727 159.8 59.9316 162.19 58.1913C164.568 56.451 167.733 55.5808 171.672 55.5808C175.611 55.5808 179.136 57.245 182.453 60.5733C185.77 63.9017 187.44 67.6216 187.44 71.7439C187.44 74.2129 187.069 76.6602 186.316 79.0967C185.563 81.5331 184.679 83.5671 183.664 85.2095C183.403 85.6228 183.228 85.8621 183.162 85.9382C183.086 86.0144 182.955 86.047 182.77 86.047C181.155 86.047 179.692 85.514 178.383 84.4481C177.074 83.3822 176.201 82.2075 175.797 80.9457C175.72 80.6412 175.633 80.4563 175.546 80.3801C175.448 80.304 175.273 80.2714 175.011 80.2714C173.964 80.2714 172.425 80.8587 170.395 82.0443C168.366 83.219 166.554 84.546 164.961 86.0035C163.368 87.461 162.572 88.5487 162.572 89.2557C162.572 90.2672 163.346 91.5616 164.907 93.1605C166.467 94.7594 168.486 95.5425 170.963 95.5425C172.687 95.5425 174.771 95.0857 177.215 94.172C179.66 93.2584 182.235 91.8444 184.952 89.93C187.669 88.0157 190.201 85.8077 192.525 83.2843C194.849 80.7608 196.781 77.7044 198.297 74.1042C199.814 70.5148 200.578 66.7514 200.578 62.8248V61.7045L201.2 61.0302C201.615 60.5407 201.887 60.247 202.018 60.1274C202.149 60.0186 202.444 59.7358 202.891 59.2899C203.339 58.8439 203.721 58.5176 204.015 58.3327C204.321 58.1478 204.736 57.865 205.281 57.4952C205.827 57.1254 206.35 56.8534 206.852 56.6794C207.354 56.5163 207.933 56.3205 208.566 56.1138C209.199 55.9072 209.897 55.7549 210.65 55.6679C211.403 55.5808 212.167 55.5265 212.963 55.5265C214.764 55.5265 216.608 55.9724 218.485 56.8752C220.361 57.778 222.075 58.9853 223.613 60.519C225.152 62.0526 226.407 63.956 227.389 66.2184C228.36 68.4808 228.851 70.8629 228.851 73.3754C228.851 77.302 227.683 81.1959 225.359 85.0463C225.283 85.1551 225.196 85.3074 225.108 85.4923C225.021 85.6772 224.945 85.7859 224.912 85.7968C224.879 85.8186 224.814 85.8621 224.748 85.9382C224.683 86.0144 224.584 86.047 224.464 86.047H224.017C222.217 86.047 220.547 85.2747 219.008 83.7411C218.485 83.219 218.081 82.7078 217.797 82.1966C217.513 81.6962 217.35 81.3155 217.295 81.0763C217.241 80.837 217.153 80.6412 217.044 80.4889C216.935 80.3366 216.728 80.2605 216.422 80.2605C215.375 80.2605 213.836 80.8478 211.806 82.0334C209.777 83.2081 207.965 84.5351 206.372 85.9926C204.779 87.4501 203.983 88.5378 203.983 89.2448C203.983 90.2128 204.757 91.5181 206.318 93.1496C207.878 94.7811 209.875 95.586 212.319 95.586C213.891 95.586 215.713 95.2162 217.786 94.4874C219.849 93.7587 221.976 92.7471 224.181 91.4528C226.374 90.1584 228.535 88.5487 230.652 86.6235C232.768 84.6983 234.678 82.6099 236.369 80.3693C238.061 78.1286 239.414 75.5943 240.45 72.7881C241.487 69.9818 242 67.143 242 64.2606C242 62.2375 241.596 60.1818 240.789 58.0825L240.712 58.0717Z" fill="black"/>
<path d="M381.61 55.295C381.349 54.068 380.916 52.8301 380.319 51.5593C379.723 50.2994 378.974 49.193 378.085 48.2508C377.185 47.3087 376.035 46.5309 374.615 45.9283C373.194 45.3258 371.611 45.0191 369.854 45.0191C361.98 45.0191 353.738 49.6531 345.117 58.9211C345.084 58.8444 344.889 58.4281 344.531 57.6722C344.173 56.9163 343.826 56.2152 343.468 55.5579C343.11 54.9006 342.644 54.079 342.069 53.104C341.495 52.1289 340.887 51.2525 340.247 50.4747C339.618 49.6969 338.935 48.952 338.209 48.218C338.089 48.0975 337.97 47.9879 337.851 47.8784C338.837 45.9393 339.889 43.7811 340.996 41.3491C342.655 37.7339 344.433 34.1187 346.342 30.4926C348.24 26.8774 350.376 23.799 352.751 21.2793C355.126 18.7596 357.447 17.4888 359.714 17.4888C361.319 17.4888 362.707 18.1461 363.878 19.4717C365.05 20.7863 365.646 22.2762 365.646 23.9414C365.646 24.9931 365.386 25.9352 364.865 26.7678C364.833 26.8445 363.922 27.4799 362.154 28.6631C360.386 29.8462 359.497 30.7445 359.497 31.3471C359.497 31.6538 359.855 31.7962 360.56 31.7962C361.677 31.7962 363.195 31.4566 365.125 30.7774C367.045 30.0982 369.03 29.156 371.09 27.951C373.14 26.7459 374.918 25.1355 376.404 23.1198C377.901 21.104 378.638 18.9459 378.638 16.6453C378.638 13.556 377.586 10.8391 375.471 8.50564C373.368 6.1722 370.743 5 367.609 5C365.776 5 363.922 5.44916 362.045 6.35844C360.158 7.26771 358.358 8.53851 356.645 10.1708C354.931 11.8031 353.272 13.6217 351.667 15.5936C350.062 17.5765 348.5 19.8004 346.993 22.2653C345.485 24.7302 344.119 27.0746 342.904 29.2766C341.69 31.4785 340.508 33.812 339.347 36.255C337.46 40.2207 335.974 43.5073 334.868 46.1475C334.359 46.005 333.86 45.9174 333.361 45.9174C331.94 45.9174 330.4 46.4323 328.719 47.473C327.038 48.5138 325.585 49.7079 324.36 51.0663C323.134 52.4247 322.093 53.7284 321.258 54.9992C320.423 56.259 320 57.1574 320 57.6832C320 58.0995 320.163 58.3076 320.499 58.3076C320.683 58.3076 321.074 58.209 321.67 58.0009C322.267 57.7927 322.755 57.6942 323.123 57.6942C325.845 57.6942 328.741 60.3672 331.799 65.7243C337.428 75.6386 342.395 87.4921 346.689 101.285C345.832 102.227 344.661 103.695 343.197 105.689C341.722 107.682 340.063 110.093 338.219 112.919C336.376 115.745 334.792 118.725 333.491 121.847C332.19 124.981 331.528 127.654 331.528 129.877C331.528 132.364 332.721 134.676 335.107 136.801C337.493 138.926 340.074 140 342.828 140C345.138 140 347.557 139.507 350.073 138.532C352.589 137.557 354.855 136.33 356.872 134.862C358.89 133.394 360.733 131.86 362.414 130.25C364.095 128.65 365.386 127.193 366.307 125.868C367.218 124.553 367.674 123.589 367.674 122.987C367.674 122.614 367.49 122.417 367.11 122.417C366.101 122.417 364.54 123.359 362.414 125.243C361.926 125.693 361.243 126.35 360.343 127.193C359.443 128.037 358.803 128.629 358.412 128.946C358.022 129.264 357.426 129.582 356.623 129.91C355.821 130.228 354.931 130.392 353.966 130.392C351.992 130.392 349.932 129.439 347.785 127.533C345.637 125.627 344.564 123.567 344.564 121.343C344.564 118.101 345.865 114.234 348.479 109.731C351.092 105.228 354.096 100.868 357.491 96.6396C358.608 95.2483 360.43 93.1778 362.946 90.4171C365.462 87.6674 367.685 85.1696 369.604 82.9238C371.524 80.678 373.498 78.1583 375.536 75.3538C377.564 72.5493 379.159 69.7338 380.297 66.9293C381.436 64.1248 382 61.4518 382 58.9321C382 57.727 381.87 56.511 381.61 55.284V55.295ZM365.917 77.8735C363.889 81.3024 360.961 85.2025 357.154 89.5736C354.693 81.2805 351.255 72.2973 346.863 62.613C349.4 59.5237 351.493 57.4203 353.131 56.3138C354.769 55.2073 356.786 54.6486 359.172 54.6486C362.045 54.6486 364.399 55.9961 366.221 58.6911C368.043 61.386 368.964 64.3768 368.964 67.6524C368.964 70.9279 367.945 74.4555 365.917 77.8844V77.8735Z" fill="black"/>
<path d="M495.758 58.5418C494.952 56.4426 493.819 54.4956 492.359 52.6792C490.899 50.8628 488.981 49.3726 486.595 48.2197C484.209 47.0667 481.616 46.4794 478.805 46.4794C471.494 46.4794 463.399 50.2972 454.519 57.9327C450.803 50.3407 445.051 46.5447 437.261 46.5447C437.184 46.5447 437.108 46.5447 437.032 46.5447C438.405 44.8044 439.886 42.8356 441.488 40.6168C443.809 37.3972 446.238 34.2103 448.788 31.0451C451.337 27.88 454.029 25.2804 456.84 23.2682C459.651 21.2559 462.178 20.4619 464.423 20.8861C466.003 21.1907 467.256 22.0935 468.171 23.6054C469.086 25.1172 469.38 26.6726 469.075 28.2933C468.879 29.3266 468.443 30.1967 467.768 30.9037C467.713 30.969 466.711 31.4149 464.739 32.2416C462.767 33.0682 461.732 33.7752 461.612 34.3626C461.557 34.6562 461.873 34.8738 462.581 35.0043C463.682 35.211 465.251 35.1675 467.277 34.8738C469.304 34.5801 471.439 34.0363 473.684 33.2422C475.939 32.4591 477.988 31.2192 479.829 29.5332C481.681 27.8473 482.814 25.8895 483.25 23.6489C483.827 20.636 483.294 17.7862 481.659 15.1105C480.025 12.4348 477.65 10.8033 474.555 10.2051C472.747 9.85699 470.84 9.95489 468.803 10.477C466.765 10.9991 464.761 11.9018 462.756 13.1744C460.751 14.447 458.779 15.9045 456.829 17.5252C454.878 19.1567 452.917 21.0275 450.967 23.1485C449.017 25.2695 447.23 27.2926 445.628 29.2069C444.027 31.1213 442.414 33.177 440.812 35.3415C437.043 40.421 434.351 44.2931 432.717 46.9797C429.754 47.5344 426.692 48.6113 423.521 50.2428C418.706 52.7118 414.086 56.1598 409.662 60.5649C408.649 51.1782 405.936 46.4794 401.513 46.4794C400.205 46.4794 398.669 46.9145 396.904 47.7737C395.139 48.633 393.548 49.6337 392.121 50.7758C390.694 51.9178 389.484 53.0599 388.493 54.202C387.501 55.344 387 56.1707 387 56.7036C387 57.0408 387.163 57.204 387.501 57.204C387.73 57.204 388.188 57.0952 388.874 56.8668C389.56 56.6384 390.051 56.5296 390.312 56.5296C391.02 56.5296 391.729 56.8124 392.415 57.3671C393.112 57.9327 393.788 58.8355 394.463 60.0863C395.139 61.3372 395.684 63.1971 396.098 65.6662C396.512 68.1352 396.719 71.0502 396.719 74.4221C396.719 75.9883 396.719 78.1963 396.686 81.0134C396.664 83.8414 396.653 86.8761 396.632 90.1391C396.61 93.4022 396.599 96.7958 396.577 100.352C396.555 103.909 396.533 107.325 396.49 110.598C396.457 113.872 396.425 116.82 396.403 119.441C396.381 122.063 396.359 124.173 396.316 125.783V128.143C396.011 131.254 394.747 134.071 392.491 136.616L391.249 137.628C390.388 138.302 389.56 139.031 388.776 139.814C387.991 140.597 387.599 141.184 387.599 141.554C387.599 141.859 387.883 142 388.438 142C389.637 142 391.238 141.489 393.243 140.455C395.248 139.422 397.078 138.313 398.723 137.116C400.369 135.92 401.948 134.745 403.441 133.614C404.945 132.472 405.751 131.863 405.86 131.787C407.429 130.884 408.791 129.927 409.935 128.893C411.079 127.86 411.645 127.11 411.645 126.62C411.645 126.511 411.58 126.337 411.449 126.12C411.319 125.902 411.166 125.63 411.003 125.337C410.839 125.032 410.676 124.499 410.523 123.738C410.371 122.965 410.283 122.063 410.24 121.019C410.24 120.681 410.218 116.722 410.185 109.152C410.153 101.571 410.109 93.326 410.076 84.3961C410.044 75.4771 410 69.6471 409.968 66.917C411.656 64.4153 413.149 62.4466 414.467 61.0218C415.775 59.5969 417.485 58.4113 419.588 57.4541C421.691 56.497 424.088 56.0184 426.779 56.0184C430.636 56.0184 434.232 57.6826 437.544 61.0109C440.856 64.3392 442.523 68.0591 442.523 72.1814C442.523 74.6505 442.153 77.0978 441.401 79.5342C440.649 81.9706 439.766 84.0046 438.753 85.647C438.492 86.0603 438.317 86.2996 438.252 86.3757C438.176 86.4519 438.045 86.4845 437.86 86.4845C436.247 86.4845 434.787 85.9515 433.48 84.8856C432.172 83.8197 431.301 82.645 430.898 81.3832C430.821 81.0787 430.734 80.8938 430.647 80.8176C430.549 80.7415 430.375 80.7089 430.113 80.7089C429.067 80.7089 427.531 81.2962 425.504 82.4818C423.478 83.6565 421.669 84.9835 420.078 86.441C418.488 87.8985 417.692 88.9862 417.692 89.6932C417.692 90.7047 418.466 91.9991 420.024 93.598C421.582 95.1969 423.598 95.98 426.071 95.98C427.792 95.98 429.873 95.5232 432.314 94.6095C434.755 93.6959 437.326 92.2819 440.039 90.3675C442.752 88.4532 445.28 86.2452 447.6 83.7218C449.921 81.1983 451.849 78.1419 453.364 74.5417C454.878 70.9523 455.641 67.1889 455.641 63.2624V62.1421L456.262 61.4677C456.676 60.9782 456.949 60.6846 457.079 60.5649C457.21 60.4562 457.504 60.1734 457.951 59.7274C458.398 59.2815 458.779 58.9552 459.073 58.7702C459.378 58.5853 459.792 58.3025 460.337 57.9327C460.882 57.5629 461.405 57.291 461.906 57.117C462.407 56.9538 462.985 56.758 463.616 56.5514C464.248 56.3447 464.946 56.1924 465.698 56.1054C466.449 56.0184 467.212 55.964 468.007 55.964C469.805 55.964 471.646 56.41 473.52 57.3127C475.394 58.2155 477.105 59.4229 478.641 60.9565C480.178 62.4901 481.43 64.3936 482.411 66.656C483.381 68.9184 483.871 71.3004 483.871 73.8129C483.871 77.7395 482.705 81.6334 480.385 85.4838C480.308 85.5926 480.221 85.7449 480.134 85.9298C480.047 86.1147 479.971 86.2235 479.938 86.2343C479.905 86.2561 479.84 86.2996 479.774 86.3757C479.709 86.4519 479.611 86.4845 479.491 86.4845H479.044C477.247 86.4845 475.58 85.7122 474.043 84.1786C473.52 83.6565 473.117 83.1453 472.834 82.6341C472.551 82.1337 472.387 81.7531 472.333 81.5138C472.278 81.2745 472.191 81.0787 472.082 80.9264C471.973 80.7741 471.766 80.698 471.461 80.698C470.415 80.698 468.879 81.2854 466.852 82.4709C464.826 83.6456 463.017 84.9726 461.427 86.4301C459.836 87.8876 459.04 88.9753 459.04 89.6823C459.04 90.6503 459.814 91.9556 461.372 93.5871C462.93 95.2186 464.924 96.0235 467.365 96.0235C468.933 96.0235 470.753 95.6537 472.823 94.9249C474.882 94.1962 477.007 93.1846 479.208 91.8903C481.398 90.5959 483.555 88.9862 485.669 87.061C487.782 85.1358 489.689 83.0474 491.378 80.8068C493.067 78.5661 494.418 76.0318 495.453 73.2256C496.488 70.4194 497 67.5805 497 64.6981C497 62.675 496.597 60.6193 495.791 58.5201L495.758 58.5418Z" fill="black"/>
</svg>
