<svg width="593" height="155" viewBox="0 0 593 155" fill="none" xmlns="http://www.w3.org/2000/svg">
<path d="M69.4711 38.1722C76.9204 38.1722 82.5148 42.2125 86.2545 50.2781C94.5483 42.2427 102.465 38.2174 109.99 38.2174C112.176 38.2174 114.257 38.6848 116.217 39.6044C118.178 40.524 119.852 41.7301 121.224 43.2226C122.596 44.7151 123.787 46.3735 124.783 48.2278C125.778 50.0821 126.517 51.9515 126.999 53.836C127.482 55.7205 127.723 57.5145 127.723 59.2181C127.723 63.771 126.2 68.3239 123.169 72.8618C120.138 77.3996 116.594 81.2439 112.553 84.3948C113.85 84.3948 115.358 84.3948 117.077 84.425C118.796 84.4551 119.897 84.4551 120.379 84.4551C122.053 84.4551 123.32 84.3646 124.179 84.1837C125.039 84.0028 125.929 83.6259 126.818 83.0681C129.925 80.9877 132.187 79.9625 133.604 79.9625C134.041 79.9625 134.268 80.1133 134.268 80.3997C134.268 81.9224 130.86 84.8471 124.044 89.1739C120.379 91.5106 117.544 93.0333 115.539 93.7569C113.533 94.4806 111.709 94.8424 110.035 94.8424C105.737 94.8424 97.9713 94.6615 86.722 94.2846C75.4727 93.9077 66.1084 93.7268 58.629 93.7268C52.8837 93.7268 47.4249 93.8021 42.2376 93.9529V120.682C41.936 121.828 40.6693 123.471 38.4074 125.627C36.1455 127.783 34.0344 129.291 32.074 130.18C28.2589 131.959 25.1224 133.889 22.6795 135.954C20.2366 138.02 17.1604 141.532 13.4509 146.462C12.0787 148.241 9.98261 149.945 7.14767 151.573C4.31273 153.201 2.23176 154.015 0.889688 154.015C0.301589 154.015 0 153.849 0 153.518C0 153.186 0.316669 152.492 0.950006 151.467C1.58334 150.442 2.56351 149.085 3.92066 147.442C5.27781 145.799 6.77068 144.231 8.39926 142.753C9.13816 142.09 9.72626 140.748 10.1786 138.728C10.631 136.708 11.0382 131.522 11.4302 123.17C11.8223 114.818 12.0183 103.119 12.0183 88.0884C12.0183 78.9072 11.9128 71.6858 11.6866 66.4545C11.4604 61.2232 10.9477 57.1075 10.1334 54.1526C9.13816 50.4892 7.64529 48.6499 5.68496 48.6499C5.45877 48.6499 5.20242 48.6951 4.90083 48.7856C4.59924 48.8761 4.34289 48.9665 4.10161 49.057C3.86034 49.1474 3.61907 49.2228 3.3778 49.2831C3.13653 49.3434 2.95558 49.3283 2.81986 49.2529C2.68414 49.1776 2.62383 49.0268 2.62383 48.8158C2.62383 48.0318 3.33256 46.7654 4.73495 45.0166C6.13734 43.2678 7.94688 41.6095 10.1183 40.0717C12.2898 38.534 14.2652 37.7651 16.0144 37.7651C16.9795 37.7651 17.8239 38.0214 18.5779 38.5491C19.3319 39.0767 19.92 39.6798 20.3874 40.3883C20.8549 41.0969 21.2771 42.0467 21.6692 43.2528C22.0613 44.4588 22.3478 45.4991 22.5287 46.3584C22.7097 47.2177 22.9359 48.3484 23.1922 49.7203C23.2978 50.2781 23.3732 50.6852 23.4184 50.9414C23.8557 50.6098 24.6851 50.0369 25.8613 49.2228C27.0375 48.4087 27.9875 47.7454 28.6962 47.2479C29.405 46.7504 30.37 46.0267 31.5915 45.0769C32.8129 44.1272 34.0494 43.1472 35.3161 42.107C38.2415 39.5441 40.3527 38.2777 41.6495 38.2777C41.9058 38.2777 42.1169 38.3531 42.2677 38.5039V52.6752C46.0527 48.6348 50.3956 45.2277 55.3266 42.4236C60.2575 39.6195 64.9774 38.2325 69.5013 38.2325L69.4711 38.1722ZM24.6248 94.179C24.6248 110.401 24.2025 122.612 23.343 130.798C24.7152 129.803 27.0224 128.235 30.2946 126.125C30.37 114.124 30.4002 98.6113 30.4002 79.5705C30.4002 64.4645 30.3851 54.9064 30.3399 50.8962C28.8621 52.042 26.6756 53.64 23.7803 55.6753C24.3383 67.5701 24.6097 80.3997 24.6097 94.179H24.6248ZM74.9148 66.6807C74.9148 63.7559 74.2061 60.8161 72.7735 57.8763C71.341 54.9366 69.3957 52.4943 66.9076 50.5495C64.4195 48.6047 61.7957 47.6398 59.021 47.6398C57.317 47.6398 55.6432 47.866 54.0146 48.3333C52.3861 48.8007 51.1646 49.3585 50.3503 50.0218C48.0583 51.9515 45.344 55.7959 42.2376 61.585V85.4803C45.6757 84.8923 53.9091 84.4551 66.9076 84.1988C69.2449 81.9374 71.16 79.2238 72.6529 76.0578C74.1457 72.8919 74.8997 69.7712 74.8997 66.6957L74.9148 66.6807ZM99.0269 47.6248C96.2824 47.6248 94.2165 48.1675 92.8292 49.268C91.4419 50.3686 89.7379 52.645 87.7474 56.1275C87.7776 56.5346 87.8077 57.1527 87.8077 57.9668C87.8077 60.6654 87.3403 63.379 86.3903 66.0776C85.4403 68.7762 84.1887 71.2486 82.6355 73.4648C81.0823 75.6809 79.4989 77.6559 77.9156 79.3745C76.3323 81.0932 74.6584 82.6611 72.9092 84.0631C81.399 84.0631 92.6935 84.1536 106.808 84.3345C108.949 82.4048 110.804 79.9474 112.372 76.9775C113.94 74.0075 114.709 70.9622 114.709 67.8867C114.709 62.7006 113.066 58.0271 109.763 53.8511C106.461 49.6751 102.887 47.5946 99.0419 47.5946L99.0269 47.6248Z" fill="black"/>
<path d="M327.586 88.3445C327.586 91.0129 326.606 93.8472 324.646 96.8774C322.685 99.9077 320.032 102.742 316.669 105.41C313.306 108.079 309.612 110.506 305.555 112.692C301.499 114.878 297.186 116.612 292.602 117.893C288.018 119.175 283.72 119.808 279.679 119.808C276.678 119.808 273.677 119.491 270.676 118.858C267.676 118.225 264.78 117.245 261.976 115.918C259.171 114.592 256.713 112.978 254.556 111.079C252.4 109.179 250.681 106.873 249.384 104.114C248.087 101.355 247.439 98.3699 247.439 95.1437C247.439 92.1436 247.831 89.1887 248.6 86.2791C249.369 83.3694 250.5 80.6558 251.963 78.1381C253.426 75.6204 254.979 73.2535 256.637 71.0524C258.296 68.8514 260.181 66.7257 262.337 64.6603C264.494 62.5949 266.424 60.8612 268.143 59.4139C269.862 57.9666 271.747 56.4892 273.783 54.9665C269.561 54.5896 265.64 54.4087 262.006 54.4087C259.035 54.4087 256.215 54.5142 253.501 54.7404C250.787 54.9665 248.63 55.1776 247.002 55.3735C245.373 55.5695 244.378 55.6751 244.001 55.6751C243.518 55.6751 243.277 55.5846 243.277 55.4037C243.277 54.3635 244.74 52.6599 247.665 50.293C250.591 47.9261 253.365 46.5089 256.004 46.0717C261.146 45.2576 266.711 44.8506 272.682 44.8506C277.387 44.8506 284.338 45.1973 293.552 45.8757C302.766 46.5542 309.597 46.9009 314.09 46.9009C317.197 46.9009 320.032 46.7954 322.595 46.5692C325.159 46.3431 327.134 46.132 328.536 45.9059C329.939 45.6798 330.798 45.5742 331.1 45.5742C331.582 45.5742 331.824 45.725 331.824 46.0114C331.824 46.9009 330.678 48.3331 328.401 50.293C326.124 52.2528 323.922 53.685 321.811 54.5745C320.514 55.1323 318.056 55.5997 314.422 55.9615C310.788 56.3233 306.822 56.5193 302.524 56.5193C300.232 56.5193 297.955 56.4892 295.723 56.4138C293.492 56.3384 291.682 56.263 290.31 56.1575C288.938 56.052 287.098 55.9314 284.776 55.7354C282.453 55.5394 280.689 55.4188 279.468 55.3434C276.316 57.4842 273.557 59.7908 271.159 62.2331C268.761 64.6754 266.922 66.9669 265.595 69.1227C264.268 71.2786 263.212 73.5098 262.398 75.8164C261.583 78.123 261.056 80.113 260.814 81.7563C260.573 83.3996 260.453 85.0579 260.453 86.7313C260.453 90.3948 261.342 93.7567 263.122 96.7869C264.901 99.8172 267.253 102.305 270.179 104.234C273.104 106.164 276.392 107.657 280.011 108.712C283.63 109.767 287.369 110.295 291.185 110.295C295.301 110.295 299.433 109.632 303.61 108.32C307.787 107.008 310.366 105.832 311.361 104.792C313.547 102.501 314.633 99.8474 314.633 96.8473C314.633 94.5859 313.985 92.5808 312.688 90.8471C311.391 89.1133 309.581 87.9525 307.244 87.4098C306.686 87.259 306.415 87.0781 306.415 86.852C306.415 85.7062 308.089 83.9272 311.421 81.5151C314.754 79.103 317.166 77.8969 318.644 77.8969C320.574 77.8969 322.55 78.8919 324.555 80.8668C326.561 82.8418 327.586 85.3444 327.586 88.3445Z" fill="black"/>
<path d="M380.937 45.5593C383.788 45.5593 386.411 46.102 388.794 47.2025C391.176 48.3031 393.122 49.6901 394.599 51.3936C396.077 53.0972 397.223 54.9063 398.038 56.8059C398.852 58.7054 399.259 60.5598 399.259 62.3387C399.259 66.2584 397.827 70.2234 394.946 74.2034C392.066 78.1835 388.749 81.5906 384.979 84.3947C386.502 84.3947 388.251 84.3947 390.257 84.4249C392.262 84.455 393.514 84.455 394.042 84.455C395.926 84.455 397.344 84.3646 398.264 84.1837C399.184 84.0027 400.104 83.6258 400.993 83.068C404.145 80.9876 406.377 79.9624 407.719 79.9624C408.156 79.9624 408.382 80.1132 408.382 80.3996C408.382 81.9223 404.974 84.847 398.158 89.1738C394.419 91.5407 391.569 93.0784 389.623 93.787C387.678 94.4955 385.115 94.8423 381.933 94.8423C381.013 94.8423 377.318 94.7217 370.849 94.4805C364.38 94.2393 357.911 94.1187 351.427 94.1187C347.461 94.1187 343.691 94.2091 340.087 94.39C337.418 95.5358 335.413 96.1087 334.086 96.1087C333.377 96.1087 333.03 95.9278 333.03 95.5509C333.03 95.174 333.317 94.7368 333.89 94.2242C334.463 93.7116 335.126 93.184 335.895 92.6714C336.664 92.1588 337.132 91.7819 337.313 91.5558C338.232 90.41 338.821 89.4451 339.032 88.6612C339.439 87.1084 339.68 82.0127 339.755 73.3893C339.936 51.6801 340.057 39.4686 340.087 36.7248C340.087 36.4233 340.117 35.3378 340.178 33.4684C340.238 31.599 340.268 29.9708 340.268 28.614C340.268 16.2066 338.564 9.9953 335.156 9.9953C335.005 9.9953 334.779 10.0405 334.493 10.131C334.206 10.2214 333.92 10.3119 333.663 10.3873C333.407 10.4627 333.151 10.523 332.879 10.5833C332.608 10.6436 332.412 10.6285 332.261 10.5531C332.11 10.4777 332.035 10.327 332.035 10.1159C332.035 9.40734 332.819 8.26158 334.402 6.64846C335.986 5.03534 337.916 3.52775 340.238 2.1257C342.56 0.723642 344.536 0 346.209 0C346.948 0 347.627 0.150759 348.245 0.4372C348.863 0.723642 349.467 1.26637 350.085 2.05032C350.703 2.83426 351.246 4.01018 351.729 5.60822C352.211 7.20627 352.588 9.1812 352.844 11.5481C353.252 15.2568 353.493 31.192 353.568 59.3838C355.167 57.831 356.886 56.3234 358.771 54.8611C360.656 53.3987 362.782 51.9213 365.195 50.4439C367.607 48.9664 370.186 47.7754 372.945 46.886C375.705 45.9965 378.389 45.5593 380.983 45.5593H380.937ZM386.321 70.8415C386.321 66.8766 384.647 63.2433 381.314 59.9266C377.982 56.6099 374.408 54.9515 370.593 54.9515C369.221 54.9515 367.924 55.0872 366.702 55.3435C365.481 55.5998 364.441 55.8862 363.566 56.2028C362.691 56.5194 361.787 57.032 360.837 57.7557C359.887 58.4793 359.163 59.0371 358.665 59.4442C358.168 59.8512 357.504 60.5748 356.69 61.6151C355.875 62.6553 355.333 63.3488 355.076 63.7257C354.82 64.1026 354.292 64.8564 353.523 66.0022C353.598 76.3291 353.749 82.6158 353.96 84.8319C359.736 84.5304 368.21 84.3947 379.354 84.3947C380.681 83.068 381.737 81.9374 382.521 81.0328C383.305 80.1282 384.119 78.7111 384.994 76.7814C385.868 74.8517 386.306 72.8768 386.306 70.8415H386.321Z" fill="black"/>
<path d="M446.458 54.9968C444.422 54.9968 442.597 55.238 441.014 55.7204C439.431 56.2028 437.968 56.9566 436.656 57.9969C435.344 59.0371 434.198 60.1226 433.218 61.2683C432.238 62.4141 431.137 63.9217 429.916 65.776C429.991 76.4799 430.247 83.1886 430.7 85.8872C430.323 86.7013 429.508 87.5606 428.257 88.4501C427.005 89.3396 425.844 90.0331 424.819 90.5306C423.793 91.0281 422.361 91.6613 420.536 92.4151C418.712 93.1689 417.746 93.591 417.596 93.6664C414.519 95.0684 412.227 95.777 410.704 95.777C409.996 95.777 409.649 95.5961 409.649 95.2192C409.649 94.8121 409.965 94.3448 410.599 93.8322C411.232 93.3196 411.926 92.807 412.71 92.3095C413.494 91.812 414.248 91.0281 414.987 89.9426C415.726 88.8572 416.178 87.6209 416.314 86.2189C416.344 85.842 416.419 83.0831 416.54 77.9422C416.661 72.8014 416.706 69.8465 416.706 69.1078C416.706 66.6655 416.48 64.5096 416.012 62.6402C415.545 60.7708 414.957 59.3537 414.233 58.3888C413.509 57.424 412.8 56.7003 412.092 56.2179C411.383 55.7355 410.734 55.4943 410.146 55.4943C409.965 55.4943 409.588 55.5847 409.031 55.7656C408.473 55.9465 408.02 56.037 407.673 56.037C407.327 56.037 407.146 55.8561 407.146 55.4792C407.146 54.7706 407.93 53.6249 409.483 52.0419C411.036 50.4589 412.951 48.9664 415.228 47.5945C417.505 46.2226 419.465 45.5442 421.094 45.5442C423.612 45.5442 425.633 46.9312 427.156 49.6901C428.679 52.4489 429.539 55.645 429.765 59.2783C431.951 57.0923 434.334 55.042 436.928 53.1424C439.521 51.2429 442.703 49.4941 446.488 47.9262C450.273 46.3583 453.892 45.5593 457.375 45.5593C459.713 45.5593 461.884 45.9663 463.875 46.7804C465.865 47.5945 467.539 48.68 468.881 50.0368C470.223 51.3936 471.248 52.5997 471.987 53.655C472.726 54.7103 473.375 55.7958 473.933 56.9114C482.709 49.3584 490.701 45.5743 497.879 45.5743C500.699 45.5743 503.277 46.1472 505.63 47.293C507.982 48.4388 509.882 49.9162 511.33 51.7404C512.777 53.5646 513.893 55.4943 514.692 57.5747C515.492 59.6552 515.884 61.6603 515.884 63.6352C515.884 66.4846 515.371 69.3038 514.361 72.0777C513.35 74.8517 511.993 77.3543 510.334 79.5855C508.676 81.8167 506.791 83.8671 504.695 85.7817C502.599 87.6963 500.472 89.2793 498.301 90.5607C496.13 91.8422 494.033 92.8372 491.998 93.5608C489.962 94.2845 488.168 94.6463 486.614 94.6463C484.202 94.6463 482.226 93.8473 480.673 92.2342C479.12 90.621 478.336 89.3396 478.336 88.3747C478.336 87.6662 479.12 86.5958 480.703 85.1485C482.287 83.7012 484.066 82.4047 486.071 81.2288C488.077 80.0529 489.585 79.48 490.625 79.48C490.927 79.48 491.123 79.5553 491.244 79.7061C491.364 79.8569 491.44 80.0529 491.5 80.2941C491.56 80.5353 491.726 80.9122 491.998 81.4097C492.269 81.9072 492.676 82.4198 493.189 82.9323C494.712 84.455 496.356 85.2088 498.135 85.2088H498.572C498.678 85.2088 498.783 85.1786 498.844 85.1033C498.904 85.0279 498.98 84.9827 499.01 84.9676C499.04 84.9525 499.115 84.847 499.206 84.6661C499.296 84.4852 499.387 84.3344 499.462 84.2289C501.754 80.4147 502.9 76.5553 502.9 72.6657C502.9 67.7811 501.241 63.6051 497.924 60.1678C494.606 56.7305 491.063 54.9968 487.278 54.9968C486.569 54.9968 485.875 55.042 485.197 55.1324C484.518 55.2229 483.9 55.3284 483.357 55.434C482.814 55.5395 482.271 55.7204 481.683 55.9616C481.095 56.2028 480.643 56.3988 480.266 56.5797C479.889 56.7606 479.482 57.0018 479.014 57.3637C478.547 57.7255 478.2 57.9818 477.959 58.1476C477.717 58.3135 477.401 58.5848 477.009 58.9768C476.617 59.3688 476.36 59.61 476.225 59.7306C476.089 59.8512 475.863 60.0924 475.531 60.4844C475.199 60.8763 475.018 61.0874 474.973 61.1176V62.2332C474.973 66.1227 474.219 69.8465 472.726 73.4044C471.233 76.9623 469.333 79.9926 467.026 82.4951C464.719 84.9977 462.231 87.1837 459.547 89.0833C456.863 90.9829 454.314 92.3698 451.901 93.2744C449.489 94.1789 447.438 94.6312 445.734 94.6312C443.291 94.6312 441.301 93.8473 439.762 92.2643C438.224 90.6813 437.455 89.3999 437.455 88.4049C437.455 87.6963 438.239 86.6259 439.823 85.1786C441.406 83.7314 443.186 82.4348 445.191 81.2589C447.197 80.083 448.705 79.5101 449.745 79.5101C450.001 79.5101 450.182 79.5403 450.273 79.6157C450.363 79.691 450.454 79.8719 450.529 80.1735C450.936 81.4398 451.796 82.5856 453.093 83.6409C454.39 84.6962 455.837 85.2239 457.421 85.2239C457.601 85.2239 457.737 85.1937 457.813 85.1183C457.888 85.043 458.054 84.8018 458.31 84.3947C459.305 82.7665 460.18 80.7463 460.919 78.3342C461.658 75.9221 462.035 73.4949 462.035 71.0526C462.035 66.9821 460.391 63.2885 457.119 60.0019C453.847 56.7154 450.288 55.0571 446.473 55.0571L446.458 54.9968Z" fill="black"/>
<path d="M237.879 57.4994C237.079 55.4189 235.964 53.4892 234.516 51.6952C233.068 49.9011 231.168 48.4237 228.816 47.2779C226.463 46.1322 223.9 45.5593 221.125 45.5593C213.902 45.5593 205.895 49.3433 197.119 56.8963C196.561 55.7807 195.912 54.6953 195.174 53.6399C194.435 52.5846 193.394 51.3786 192.067 50.0217C191.012 48.9513 189.73 48.0468 188.252 47.3081C189.081 46.3281 190.016 45.107 191.072 43.6296C191.63 42.8607 192.806 41.2476 194.631 38.7751C196.455 36.3027 197.752 34.5237 198.551 33.4232C199.335 32.3227 200.497 30.6794 202.005 28.5235C203.513 26.3526 204.628 24.6189 205.367 23.3224C206.106 22.0108 206.905 20.5333 207.795 18.8599C208.685 17.1865 209.303 15.7091 209.665 14.4276C210.027 13.1462 210.223 11.9853 210.223 10.9602C210.223 9.4978 209.906 8.21635 209.288 7.16104C208.67 6.09065 207.84 5.29163 206.8 4.76397C205.774 4.23632 204.749 3.84435 203.739 3.60313C202.728 3.36192 201.688 3.24131 200.617 3.24131C198.702 3.24131 196.44 3.73882 193.831 4.73382C191.223 5.72883 188.72 6.9952 186.307 8.53294C183.894 10.0707 181.843 11.925 180.154 14.0658C178.466 16.2216 177.621 18.3172 177.621 20.3826C177.621 22.8098 178.028 24.0159 178.827 24.0159C179.823 24.0159 181.3 23.443 183.261 22.2821C185.221 21.1213 187 19.8248 188.584 18.3926C190.167 16.9604 190.951 15.89 190.951 15.1965C190.951 15.0909 190.891 14.8045 190.785 14.3372C190.68 13.8849 190.604 13.1914 190.559 12.2718C191.992 12.528 193.198 12.9652 194.163 13.5683C195.143 14.1713 195.822 14.8799 196.199 15.6638C196.591 16.4478 196.847 17.1262 196.998 17.6991C197.149 18.272 197.224 18.8298 197.224 19.3876C197.224 21.5886 195.988 25.4179 193.53 30.8452C192.067 34.1167 190.499 37.1771 188.84 40.0264C187.227 42.8155 186.035 44.8658 185.281 46.1925C183.789 45.7703 182.205 45.5593 180.546 45.5593C177.923 45.5593 175.208 45.9965 172.434 46.8709C169.659 47.7453 167.065 48.891 164.683 50.3082C162.3 51.7253 160.159 53.1726 158.259 54.6349C156.374 56.0973 154.625 57.62 153.042 59.218C152.966 31.1015 152.725 15.2116 152.318 11.5481C152.061 9.1812 151.684 7.19119 151.202 5.60822C150.719 4.01018 150.176 2.83426 149.558 2.05032C148.94 1.26637 148.337 0.738718 147.718 0.4372C147.1 0.135683 146.437 0 145.683 0C144.009 0 142.018 0.708566 139.711 2.11062C137.389 3.51268 135.444 5.02026 133.876 6.63338C132.307 8.2465 131.508 9.40734 131.508 10.1008C131.508 10.327 131.583 10.4777 131.734 10.538C131.885 10.5983 132.081 10.6285 132.353 10.5682C132.609 10.5079 132.865 10.4476 133.137 10.3722C133.408 10.2968 133.679 10.2214 133.966 10.1159C134.268 10.0255 134.479 9.98022 134.63 9.98022C138.037 9.98022 139.741 16.1915 139.741 28.5989C139.741 29.9708 139.711 31.5839 139.651 33.4534C139.591 35.3228 139.56 36.4082 139.56 36.7097C139.53 39.4535 139.41 51.6801 139.229 73.3742C139.153 81.9976 138.912 87.0933 138.505 88.6461C138.279 89.43 137.706 90.3798 136.786 91.5407C136.605 91.7668 136.122 92.1286 135.368 92.6563C134.614 93.1689 133.936 93.6965 133.363 94.2091C132.79 94.7217 132.503 95.174 132.503 95.5358C132.503 95.8373 132.805 95.973 133.393 95.973C135.504 95.973 139.41 94.6463 145.095 92.008C150.78 89.3547 153.63 87.44 153.63 86.2641V86.2038C153.298 84.9827 153.087 78.1985 153.011 65.8665C155.53 62.0523 157.973 59.2783 160.325 57.5597C162.677 55.841 165.799 54.9817 169.689 54.9817C173.58 54.9817 177.048 56.625 180.335 59.9266C183.608 63.2282 185.251 66.9067 185.251 70.9772C185.251 73.4195 184.874 75.8467 184.135 78.2588C183.397 80.671 182.522 82.6911 181.527 84.3193C181.27 84.7264 181.104 84.9676 181.029 85.043C180.954 85.1184 180.818 85.1485 180.637 85.1485C179.039 85.1485 177.606 84.6208 176.309 83.5655C175.012 82.5102 174.168 81.3494 173.746 80.0981C173.67 79.7966 173.595 79.6157 173.489 79.5403C173.384 79.4649 173.218 79.4347 172.962 79.4347C171.921 79.4347 170.398 80.0227 168.408 81.1835C166.402 82.3444 164.623 83.656 163.039 85.1033C161.471 86.5506 160.672 87.6209 160.672 88.3295C160.672 89.3245 161.441 90.621 162.979 92.1889C164.517 93.7568 166.508 94.5558 168.95 94.5558C170.654 94.5558 172.705 94.1036 175.118 93.199C177.531 92.2945 180.079 90.8924 182.763 89.0079C185.447 87.1234 187.935 84.9224 190.243 82.4198C192.535 79.9172 194.435 76.8869 195.943 73.329C197.435 69.7711 198.189 66.0474 198.189 62.1578V61.0422L198.808 60.3789C199.215 59.8964 199.486 59.5949 199.607 59.4894C199.743 59.3838 200.029 59.0974 200.466 58.6602C200.904 58.223 201.281 57.9064 201.582 57.7104C201.884 57.5295 202.291 57.2431 202.834 56.8813C203.377 56.5044 203.889 56.2481 204.387 56.0822C204.885 55.9164 205.458 55.7355 206.076 55.5244C206.694 55.3134 207.388 55.1777 208.127 55.0872C208.866 54.9968 209.62 54.9515 210.404 54.9515C212.183 54.9515 213.993 55.3887 215.848 56.2782C217.702 57.1677 219.391 58.3738 220.899 59.8964C222.422 61.4191 223.659 63.2885 224.624 65.5348C225.589 67.7811 226.071 70.1329 226.071 72.6205C226.071 76.51 224.925 80.3544 222.633 84.1836C222.558 84.2892 222.482 84.4399 222.377 84.6209C222.286 84.8018 222.226 84.9073 222.181 84.9224C222.151 84.9374 222.09 84.9827 222.015 85.058C221.94 85.1334 221.849 85.1636 221.744 85.1636H221.306C219.527 85.1636 217.883 84.4098 216.36 82.8871C215.848 82.3745 215.44 81.862 215.169 81.3645C214.898 80.867 214.732 80.4901 214.671 80.2488C214.611 80.0076 214.536 79.8116 214.415 79.6609C214.309 79.5101 214.098 79.4347 213.797 79.4347C212.756 79.4347 211.233 80.0227 209.243 81.1835C207.237 82.3444 205.458 83.656 203.874 85.1033C202.306 86.5506 201.507 87.6209 201.507 88.3295C201.507 89.2944 202.276 90.5758 203.814 92.1889C205.352 93.8021 207.328 94.6011 209.725 94.6011C211.278 94.6011 213.073 94.2393 215.109 93.5156C217.144 92.792 219.255 91.797 221.412 90.5155C223.568 89.2341 225.709 87.6511 227.806 85.7365C229.902 83.8218 231.771 81.7715 233.445 79.5403C235.119 77.3241 236.461 74.8215 237.471 72.0325C238.497 69.2585 238.995 66.4394 238.995 63.59C238.995 61.5849 238.602 59.5497 237.803 57.4843L237.879 57.4994Z" fill="black"/>
<path d="M368.301 34.8103C367.818 34.8103 367.577 34.6445 367.577 34.3128C367.577 34.0867 369.945 30.3328 374.695 23.036C379.429 15.7393 381.933 11.9553 382.189 11.6538C383.395 10.2216 385.431 8.84965 388.281 7.52297C391.131 6.1963 393.257 5.53296 394.645 5.53296C395.233 5.53296 395.519 5.69879 395.519 6.03046C395.519 6.21137 394.147 8.15616 391.418 11.8497C388.688 15.5433 385.929 19.1766 383.169 22.7345L379.083 28.1317C377.756 29.594 375.901 31.0866 373.518 32.564C371.136 34.0414 369.387 34.7952 368.286 34.7952L368.301 34.8103Z" fill="black"/>
<path d="M592.442 84.1685C592.065 84.1685 591.628 84.2439 591.115 84.3946L590.391 84.666C590.014 84.666 589.652 84.5454 589.306 84.3042C588.959 84.0629 588.582 83.6257 588.19 82.9926C587.798 82.3594 587.466 81.5604 587.194 80.5804C586.923 79.6005 586.682 78.2889 586.501 76.6305C586.32 74.9722 586.229 73.1179 586.229 71.0525C586.229 66.5297 586.259 60.9064 586.335 54.1675C586.742 52.9765 587.3 51.9664 588.024 51.1372C588.748 50.3081 589.426 49.7352 590.075 49.4186C590.723 49.102 591.281 48.7703 591.763 48.4236C592.246 48.0768 592.487 47.6849 592.487 47.2778C592.487 46.7954 591.085 46.5542 588.265 46.5542C586.561 46.5542 584.706 46.8859 582.686 47.519C580.665 48.1673 578.886 48.9211 577.317 49.7955C575.749 50.6699 574.452 51.5292 573.397 52.3735C572.341 53.2177 571.813 53.866 571.813 54.3183L572.085 55.1474C572.236 55.7354 572.386 56.5193 572.522 57.4842C572.673 58.449 572.748 59.4139 572.748 60.3788C572.748 63.8914 572.809 68.4293 572.914 73.9923C571.587 75.6657 570.411 77.0225 569.386 78.0778C568.36 79.1331 567.048 80.2638 565.42 81.4699C563.791 82.676 561.966 83.5805 559.946 84.1986C557.925 84.8167 555.693 85.1183 553.251 85.1183C548.802 85.1183 544.776 83.4599 541.157 80.1432C537.538 76.8265 535.743 73.1782 535.743 69.168C535.743 66.6503 536.181 64.1779 537.055 61.7507C537.93 59.3234 538.985 57.243 540.252 55.4942C540.508 55.1173 541.157 54.9364 542.197 54.9364C544.64 54.9364 546.842 55.856 548.817 57.7103C549.194 58.0872 549.496 58.449 549.767 58.7958C550.039 59.1425 550.205 59.3837 550.325 59.4893C550.446 59.5948 550.627 59.6551 550.883 59.6551C552.406 59.6551 554.819 58.4641 558.136 56.0671C561.454 53.67 563.112 51.9061 563.112 50.7603C563.112 50.3835 562.766 49.8106 562.057 49.0417C561.348 48.2728 560.247 47.4889 558.755 46.7049C558.272 46.4637 557.789 46.2677 557.292 46.1019C557.865 45.3632 558.468 44.5642 559.132 43.6295C559.689 42.8606 560.866 41.2475 562.69 38.775C564.515 36.3177 565.812 34.5236 566.611 33.4231C567.41 32.3226 568.556 30.6793 570.064 28.5234C571.572 26.3676 572.688 24.6188 573.427 23.3223C574.166 22.0107 574.965 20.5332 575.855 18.8598C576.744 17.1864 577.363 15.709 577.725 14.4275C578.086 13.1461 578.282 11.9852 578.282 10.9601C578.282 9.4977 577.966 8.21625 577.348 7.16094C576.729 6.09055 575.9 5.29153 574.859 4.76387C573.834 4.23622 572.809 3.84425 571.798 3.60303C570.788 3.36182 569.747 3.24121 568.677 3.24121C566.762 3.24121 564.5 3.73871 561.891 4.73372C559.282 5.72873 556.779 6.9951 554.366 8.53284C551.954 10.0706 549.903 11.9249 548.214 14.0657C546.525 16.2215 545.681 18.3171 545.681 20.3825C545.681 22.8097 546.088 24.0158 546.887 24.0158C547.882 24.0158 549.36 23.4429 551.32 22.282C553.281 21.1212 555.06 19.8247 556.643 18.3925C558.227 16.9603 559.011 15.8899 559.011 15.1964C559.011 15.0908 558.951 14.8044 558.845 14.3371C558.739 13.8848 558.664 13.1913 558.619 12.2717C560.051 12.5279 561.258 12.9651 562.223 13.5682C563.203 14.1712 563.882 14.8798 564.259 15.6637C564.651 16.4477 564.907 17.1261 565.058 17.699C565.209 18.2719 565.284 18.8297 565.284 19.3875C565.284 21.5885 564.047 25.4178 561.59 30.8451C560.127 34.1166 558.559 37.177 556.9 40.0263C555.497 42.4234 554.457 44.2476 553.688 45.5743C551.712 45.6195 549.435 46.1321 546.857 47.1421C544.158 48.1975 541.398 49.7352 538.608 51.7554C535.819 53.7755 533.225 56.052 530.858 58.5847C528.49 61.1175 526.545 64.0573 525.052 67.389C523.559 70.7208 522.805 74.0676 522.805 77.4446C522.805 81.9674 524.75 85.9474 528.641 89.3847C532.531 92.822 537.07 94.5558 542.258 94.5558C547.777 94.5558 553.175 93.1537 558.453 90.3345C563.731 87.5153 568.616 83.9423 573.095 79.6156C573.17 81.7262 573.306 83.5654 573.517 85.1484C573.728 86.7163 574.03 88.2842 574.467 89.8219C574.89 91.3597 575.508 92.5356 576.322 93.3497C577.136 94.1638 578.132 94.5708 579.323 94.5708C580.876 94.5708 582.761 93.8924 584.993 92.5205C587.209 91.1486 589.11 89.6712 590.663 88.1033C592.216 86.5354 593 85.3896 593 84.6811C593 84.3494 592.819 84.1836 592.442 84.1836V84.1685Z" fill="black"/>
</svg>
