<svg width="250" height="102" viewBox="0 0 250 102" fill="none" xmlns="http://www.w3.org/2000/svg">
<path fill-rule="evenodd" clip-rule="evenodd" d="M113.245 6.44617C113.395 7.64491 113.545 8.84454 113.29 9.63861C111.598 11.5419 109.5 13.041 106.999 14.5397C106.045 13.9736 106.866 14.5478 106.055 13.6404C103.002 5.18898 117.597 -0.160368 124.525 1.54511C126.242 3.84726 126.995 4.50283 127.176 7.79509C123.959 17.3337 118.136 22.4218 113.29 29.8723C143.247 26.4555 130.126 67.7643 108.302 61.7517C107.554 60.2531 106.804 58.754 106.055 56.8507C108.562 55.1955 110.758 52.2976 114.144 53.6582C115.238 56.0458 116.521 56.3628 119.087 56.8507C134.905 45.6016 111.677 23.679 98.4157 44.2158C98.5586 49.6164 99.319 56.0139 97.1125 59.0539C93.2163 60.4455 90.6647 63.0161 85.3835 63.1456C85.3835 63.4005 85.3835 63.2504 85.3835 63.1006C85.4284 62.5013 86.2822 61.9014 86.7316 60.8974C92.5669 58.4559 91.9283 11.3283 87.6754 5.54689C87.181 5.69662 85.8778 5.8468 85.3835 5.59186C86.4166 1.53747 92.3148 -1.76693 96.6181 1.05051C99.2116 11.4695 98.4422 26.6655 98.4157 39.3148C107.639 33.0616 118.784 25.353 119.537 10.4929C118.938 9.44391 118.338 8.39446 117.739 6.94077C116.242 7.04554 114.743 6.74608 113.245 6.44617ZM155.038 4.19798C155.083 4.19798 155.937 4.19798 156.387 4.19798C157.884 5.69662 159.383 7.19572 160.476 8.28969C160.476 8.73933 160.476 9.59364 160.476 9.63861C159.383 10.9875 157.884 12.7411 156.387 13.6854C155.937 13.6854 155.083 13.6854 155.038 13.6854C153.69 12.5914 151.938 11.0923 150.589 9.59364C150.589 9.144 150.589 8.28969 150.589 8.24473C151.938 6.89581 153.69 5.14222 155.038 4.19798ZM216.2 4.19798C216.649 4.19798 217.503 4.19798 217.953 4.19798C219.6 5.84635 221.248 7.49563 222.896 9.144C221.248 10.7924 219.6 12.4417 217.953 13.6854C217.503 13.6854 216.649 13.6854 216.2 13.6854C215.256 12.5914 213.504 11.0923 212.155 9.59364C213.504 7.79509 215.256 5.59186 216.2 4.19798ZM148.792 14.5397C151.855 15.313 153.609 17.4974 155.038 19.081C153.541 21.1341 152.042 22.7833 150.14 24.4317C149.946 24.4317 149.346 24.4317 148.747 24.4317C147.399 22.9331 145.646 21.434 144.298 19.9353C145.659 17.2753 147.358 16.2429 148.792 14.5397ZM161.33 14.5397C164.233 15.1925 165.714 16.9978 166.767 19.0361C166.767 19.081 166.767 19.9353 166.767 20.385C165.115 22.01 164.461 23.7761 161.33 24.4317C159.832 22.7833 158.334 21.1341 156.836 19.081C158.334 17.8373 159.832 16.188 161.33 14.5397ZM210.358 14.5397C213.891 15.1809 215.953 17.2631 216.2 20.385C214.547 22.01 213.894 23.7761 210.358 24.4317C209.265 22.7833 207.766 21.1341 205.864 19.081C207.766 17.8373 209.265 16.188 210.358 14.5397ZM222.896 14.5397C222.941 14.5397 223.795 14.5397 224.244 14.5397C225.742 16.0383 227.24 17.5374 228.333 19.0361C228.333 19.081 228.333 19.9353 228.333 20.385C227.24 21.3292 225.742 23.0828 224.244 24.4317C223.795 24.4317 222.941 24.4317 222.896 24.4317C221.548 22.9331 219.795 21.434 218.447 19.9353C218.447 19.4857 218.447 18.6314 218.447 18.5864C219.795 17.2375 221.548 15.4839 222.896 14.5397ZM22.9637 61.7967C22.9637 68.6456 22.9637 75.0916 22.9637 81.5358C23.0023 82.4841 1.72385 101.665 0 101.815C0 101.32 0 100.016 0 99.1167C1.64745 97.2732 3.2958 94.6203 4.94325 92.3721C8.61744 82.1019 7.59688 38.7464 3.14571 31.1763C0.870462 31.1866 1.09156 31.5576 0 30.7267C1.76429 27.5783 4.14379 25.8751 7.63957 24.4317C8.1339 24.7316 9.43712 25.0311 9.93145 25.331C11.0846 27.5787 11.8341 29.8278 12.5828 32.0756C16.1447 29.7932 18.9493 26.0225 22.9637 24.4767C23.5178 28.0284 23.6679 31.1767 23.8175 33.9191C31.9487 25.6678 44.7023 19.4066 52.1738 32.5702C53.0726 32.0756 54.3758 30.7716 55.2746 29.8723C58.7196 28.4785 62.1655 26.2752 65.6105 24.4767C76.5292 22.6786 82.9554 36.0041 79.0921 45.5647C77.2024 50.241 73.0307 53.1308 69.6999 56.401C77.8715 56.9649 80.7112 54.9271 85.8329 53.6582C81.1179 67.9617 42.1129 62.441 22.9637 61.7967ZM163.172 29.3777C167.297 29.2806 169.326 29.8633 171.261 30.7267C184.116 53.1268 144.48 63.7845 150.14 80.6815C151.743 82.0304 152.942 83.784 153.735 84.7282C159.995 85.1482 161.125 82.5097 164.476 80.1869C164.775 80.3366 165.075 80.4868 164.97 80.2319C165.225 80.6815 165.075 81.5358 164.925 81.5808C159.666 87.833 151.846 94.1297 143.354 87.4261C140.629 78.5192 147.839 71.3758 151.893 65.7985C151.157 57.6299 141.992 36.2149 133.962 36.6169C134.981 33.6534 139.598 28.3989 143.804 29.8723C146.971 31.7302 149.021 35.3211 150.095 38.8201C154.624 35.42 158.328 32.6124 163.172 29.3777ZM185.597 29.8274C186.091 29.9771 187.394 30.1273 187.889 29.8723C191.248 31.6633 192.227 35.121 192.338 39.2698C203.822 30.1835 209.957 25.1709 221.593 37.4712C228.691 32.0873 242.697 24.6354 248.511 36.572C254.795 49.4743 239.872 64.4896 228.333 61.7967C227.689 61.0026 226.641 59.803 225.188 58.1996C225.188 58.4545 225.188 58.3043 225.188 57.7499C227.751 55.8677 229.506 53.999 232.827 52.8039C234.529 56.0004 236.026 57.0251 239.074 56.401C248.027 40.4326 228.83 26.9731 222.896 40.214C219.025 50.8763 216.271 64.91 201.775 61.7967C200.726 61.1523 199.677 60.1029 198.629 59.0539C198.629 58.6042 198.629 57.7499 198.629 57.705C200.726 56.2063 202.824 54.7072 204.92 52.8039C204.965 52.8039 205.819 52.8039 205.864 52.8039C206.763 54.4073 208.066 55.607 208.56 56.401C210.993 56.709 211.387 56.4873 212.155 55.5017C219.401 35.9883 204.423 29.6907 192.382 42.9119C192.708 56.5944 191.667 72.4666 193.686 84.2336C189.175 87.1635 185.545 91.788 179.305 92.3721C180.603 89.3928 183.826 88.65 184.293 84.2786C186.397 76.9535 185.862 39.75 182.496 36.572C181.731 35.317 180.57 36.0117 178.856 36.1223C178.856 35.6727 178.856 34.8184 178.856 34.7734C180.681 32.4231 183.07 31.4933 185.597 29.8274ZM61.1166 29.8723C60.0682 30.5769 59.0193 30.8764 57.9709 31.1763C54.3789 36.3224 55.2067 38.6048 52.1738 44.7104C50.6949 49.7796 46.8697 52.6767 43.6354 56.3561C53.7103 56.5665 64.3769 57.227 69.6549 52.8039C73.4302 43.2756 72.758 32.4623 61.1166 29.8723ZM32.3558 30.7267C24.0539 36.4964 23.0805 42.5746 22.9637 56.8507C29.7382 56.8538 38.2922 56.964 42.2424 53.7032C46.7825 44.5868 47.9487 30.2055 32.3558 30.7267ZM16.1779 32.5252C15.1295 33.2743 14.0806 34.0239 13.0322 34.7734C13.0322 52.0076 13.0322 69.2472 13.0322 86.0772C14.2303 85.7323 15.4292 84.9832 16.2229 84.2336C16.4777 66.999 16.3276 49.7594 16.1779 32.5252ZM158.678 34.7734C155.943 36.7711 153.995 38.0886 151.893 40.6637C153.99 46.9132 156.087 52.7594 158.184 58.1996C158.783 58.1546 159.383 57.3003 159.982 56.8507C162.757 51.8808 172.937 40.2626 161.824 35.223C161.18 35.0733 160.131 34.9231 158.678 34.7734Z" fill="black"/>
</svg>
