<svg width="367" height="149" viewBox="0 0 367 149" fill="none" xmlns="http://www.w3.org/2000/svg">
<path d="M66.76 36.68C73.92 36.68 79.29 40.56 82.89 48.32C90.87 40.59 98.47 36.73 105.7 36.73C107.8 36.73 109.79 37.18 111.68 38.07C113.57 38.96 115.17 40.12 116.49 41.54C117.81 42.96 118.95 44.57 119.91 46.35C120.87 48.13 121.58 49.93 122.05 51.74C122.52 53.55 122.74 55.28 122.74 56.92C122.74 61.3 121.28 65.67 118.36 70.03C115.44 74.39 112.04 78.09 108.16 81.11C109.41 81.11 110.86 81.11 112.51 81.14C114.16 81.16 115.22 81.17 115.69 81.17C117.29 81.17 118.51 81.08 119.35 80.9C120.19 80.72 121.03 80.37 121.89 79.83C124.88 77.84 127.05 76.84 128.41 76.84C128.84 76.84 129.05 76.98 129.05 77.27C129.05 78.73 125.77 81.54 119.22 85.71C115.7 87.95 112.97 89.42 111.05 90.12C109.13 90.82 107.36 91.16 105.76 91.16C101.63 91.16 94.16 90.98 83.36 90.63C72.55 90.27 63.55 90.1 56.36 90.1C50.84 90.1 45.59 90.17 40.6 90.31V116C40.32 117.1 39.09 118.69 36.91 120.75C34.73 122.81 32.71 124.27 30.82 125.13C27.15 126.84 24.14 128.69 21.79 130.68C19.44 132.67 16.48 136.04 12.92 140.77C11.6 142.48 9.58 144.12 6.86 145.68C4.13 147.25 2.13 148.03 0.85 148.03C0.28 148.03 0 147.87 0 147.55C0 147.23 0.3 146.57 0.91 145.57C1.52 144.57 2.47 143.28 3.77 141.7C5.07 140.12 6.5 138.61 8.07 137.19C8.78 136.55 9.35 135.26 9.78 133.32C10.21 131.38 10.61 126.39 10.98 118.37C11.36 110.34 11.54 99.1 11.54 84.64C11.54 75.81 11.43 68.88 11.22 63.84C11.01 58.8 10.51 54.86 9.72 52.01C8.76 48.49 7.33 46.72 5.45 46.72C5.24 46.72 4.99 46.77 4.7 46.85C4.42 46.94 4.16 47.03 3.92 47.12C3.68 47.21 3.46 47.28 3.23 47.33C3 47.38 2.82 47.37 2.7 47.3C2.58 47.23 2.51 47.09 2.51 46.87C2.51 46.12 3.19 44.9 4.54 43.21C5.89 41.52 7.62 39.94 9.72 38.46C11.82 36.98 13.71 36.24 15.38 36.24C16.31 36.24 17.12 36.49 17.84 36.99C18.56 37.49 19.13 38.08 19.58 38.75C20.02 39.43 20.43 40.34 20.81 41.5C21.19 42.66 21.46 43.66 21.64 44.49C21.82 45.33 22.03 46.4 22.28 47.72C22.39 48.25 22.46 48.65 22.49 48.89C22.92 48.57 23.7 48.02 24.84 47.23C25.98 46.44 26.89 45.82 27.56 45.33C28.24 44.85 29.16 44.16 30.34 43.25C31.51 42.34 32.71 41.39 33.92 40.39C36.73 37.93 38.76 36.7 40.01 36.7C40.26 36.7 40.46 36.77 40.6 36.91V50.53C44.23 46.65 48.42 43.37 53.15 40.68C57.88 37.99 62.43 36.65 66.77 36.65L66.76 36.68ZM23.66 90.52C23.66 106.12 23.25 117.85 22.43 125.72C23.75 124.76 25.97 123.26 29.11 121.23C29.18 109.69 29.22 94.78 29.22 76.47C29.22 61.94 29.2 52.76 29.17 48.91C27.75 50.01 25.65 51.54 22.87 53.5C23.4 64.93 23.67 77.27 23.67 90.51L23.66 90.52ZM71.99 64.08C71.99 61.27 71.3 58.45 69.93 55.61C68.56 52.78 66.68 50.43 64.3 48.56C61.91 46.69 59.39 45.76 56.72 45.76C55.08 45.76 53.48 45.98 51.91 46.43C50.34 46.88 49.17 47.42 48.39 48.06C46.18 49.91 43.58 53.61 40.59 59.17V82.14C43.9 81.57 51.81 81.16 64.3 80.91C66.54 78.74 68.39 76.13 69.83 73.09C71.27 70.04 71.99 67.05 71.99 64.09V64.08ZM95.17 45.76C92.54 45.76 90.55 46.29 89.22 47.34C87.88 48.39 86.26 50.59 84.33 53.94C84.37 54.33 84.38 54.92 84.38 55.7C84.38 58.3 83.93 60.9 83.02 63.5C82.11 66.1 80.91 68.47 79.41 70.6C77.91 72.73 76.4 74.63 74.87 76.29C73.34 77.94 71.74 79.45 70.06 80.8C78.21 80.8 89.07 80.89 102.64 81.07C104.71 79.22 106.49 76.86 107.98 73.99C109.48 71.13 110.22 68.21 110.22 65.26C110.22 60.28 108.64 55.78 105.47 51.77C102.3 47.77 98.87 45.76 95.16 45.76H95.17Z" fill="black"/>
<path d="M246 42.93C247.67 42.93 249.19 43.21 250.54 43.78C251.89 44.35 253 45.08 253.85 45.97C254.7 46.86 255.42 47.9 255.99 49.09C256.56 50.28 256.97 51.46 257.22 52.61C257.47 53.77 257.59 54.92 257.59 56.06C257.59 58.45 257.05 60.97 255.96 63.62C254.87 66.27 253.36 68.93 251.42 71.58C249.48 74.23 247.59 76.62 245.76 78.74C243.93 80.86 241.81 83.22 239.41 85.82C237.01 88.42 235.27 90.38 234.2 91.69C230.96 95.68 228.09 99.8 225.6 104.05C223.11 108.3 221.86 111.96 221.86 115.02C221.86 117.12 222.88 119.07 224.93 120.87C226.98 122.67 228.95 123.57 230.83 123.57C231.76 123.57 232.6 123.42 233.37 123.12C234.14 122.82 234.71 122.51 235.08 122.21C235.46 121.91 236.07 121.36 236.92 120.55C237.77 119.75 238.43 119.14 238.9 118.71C240.93 116.93 242.42 116.04 243.39 116.04C243.75 116.04 243.92 116.22 243.92 116.57C243.92 117.14 243.48 118.05 242.61 119.29C241.74 120.54 240.5 121.92 238.9 123.43C237.3 124.94 235.54 126.39 233.61 127.78C231.68 129.17 229.52 130.33 227.12 131.25C224.72 132.18 222.41 132.64 220.2 132.64C217.57 132.64 215.11 131.63 212.83 129.62C210.55 127.61 209.41 125.43 209.41 123.08C209.41 120.98 210.03 118.45 211.28 115.5C212.53 112.55 214.03 109.73 215.79 107.06C217.55 104.39 219.14 102.11 220.54 100.22C221.94 98.33 223.06 96.94 223.88 96.05C219.79 83.02 215.05 71.82 209.67 62.46C206.75 57.4 203.99 54.88 201.39 54.88C201.03 54.88 200.57 54.98 200 55.17C199.43 55.37 199.06 55.46 198.88 55.46C198.56 55.46 198.4 55.26 198.4 54.87C198.4 54.37 198.8 53.53 199.6 52.33C200.4 51.14 201.39 49.9 202.56 48.62C203.73 47.34 205.12 46.21 206.73 45.23C208.33 44.25 209.81 43.76 211.16 43.76C211.94 43.76 212.73 43.95 213.54 44.32C214.34 44.69 215.09 45.23 215.78 45.92C216.47 46.61 217.12 47.33 217.73 48.06C218.34 48.79 218.91 49.62 219.46 50.54C220.01 51.46 220.46 52.24 220.8 52.86C221.14 53.48 221.47 54.15 221.81 54.86C222.15 55.57 222.34 55.96 222.37 56.03C230.59 47.27 238.46 42.89 245.98 42.89L246 42.93ZM245.15 64.29C245.15 61.19 244.28 58.37 242.53 55.82C240.79 53.28 238.54 52 235.8 52C233.52 52 231.6 52.53 230.03 53.57C228.46 54.62 226.47 56.61 224.05 59.53C228.25 68.68 231.53 77.17 233.88 85.01C237.51 80.88 240.3 77.19 242.24 73.95C244.18 70.71 245.15 67.49 245.15 64.28V64.29Z" fill="black"/>
<path d="M271.05 70.38C271.05 67.18 270.85 64.4 270.46 62.05C270.07 59.7 269.55 57.93 268.91 56.74C268.27 55.55 267.62 54.68 266.96 54.15C266.3 53.62 265.63 53.35 264.96 53.35C264.71 53.35 264.26 53.46 263.6 53.67C262.94 53.88 262.5 53.99 262.29 53.99C261.97 53.99 261.81 53.83 261.81 53.51C261.81 53.01 262.28 52.22 263.22 51.13C264.16 50.05 265.31 48.96 266.67 47.87C268.03 46.78 269.54 45.83 271.21 45.01C272.88 44.19 274.34 43.78 275.59 43.78C279.79 43.78 282.37 48.25 283.33 57.19C287.53 52.99 291.92 49.71 296.5 47.36C301.07 45.01 305.43 43.84 309.56 43.84C316.97 43.84 322.43 47.45 325.96 54.68C334.4 47.42 342.09 43.78 349.03 43.78C351.7 43.78 354.17 44.33 356.43 45.44C358.69 46.54 360.51 47.96 361.9 49.69C363.29 51.42 364.36 53.28 365.13 55.27C365.9 57.26 366.28 59.22 366.28 61.14C366.28 63.88 365.79 66.59 364.81 69.26C363.83 71.93 362.54 74.33 360.94 76.47C359.34 78.61 357.53 80.59 355.52 82.42C353.51 84.26 351.46 85.79 349.38 87.01C347.3 88.24 345.28 89.2 343.32 89.89C341.36 90.59 339.63 90.93 338.14 90.93C335.83 90.93 333.93 90.16 332.45 88.61C330.97 87.06 330.23 85.82 330.23 84.9C330.23 84.22 330.99 83.19 332.5 81.8C334.01 80.41 335.73 79.16 337.65 78.03C339.57 76.91 341.03 76.35 342.03 76.35C342.31 76.35 342.51 76.42 342.62 76.56C342.73 76.7 342.81 76.89 342.86 77.12C342.91 77.35 343.07 77.71 343.34 78.19C343.61 78.67 343.99 79.16 344.49 79.66C345.95 81.12 347.53 81.85 349.24 81.85H349.67C349.78 81.85 349.87 81.81 349.94 81.74C350.01 81.67 350.06 81.63 350.1 81.61C350.14 81.59 350.2 81.49 350.29 81.32C350.38 81.15 350.46 81 350.53 80.89C352.74 77.22 353.84 73.52 353.84 69.78C353.84 67.39 353.38 65.13 352.45 62.97C351.52 60.82 350.33 59.01 348.87 57.55C347.41 56.09 345.79 54.93 344.01 54.08C342.23 53.23 340.49 52.8 338.78 52.8C338.03 52.8 337.3 52.85 336.59 52.93C335.88 53.02 335.22 53.16 334.61 53.36C334 53.56 333.46 53.74 332.98 53.89C332.5 54.05 332 54.31 331.48 54.67C330.96 55.03 330.56 55.29 330.28 55.47C330 55.65 329.64 55.95 329.21 56.38C328.78 56.81 328.51 57.07 328.38 57.18C328.25 57.29 328 57.57 327.61 58.03L327.02 58.67V59.74C327.02 63.48 326.3 67.06 324.86 70.48C323.42 73.9 321.59 76.81 319.39 79.21C317.18 81.61 314.79 83.72 312.21 85.54C309.63 87.36 307.18 88.7 304.87 89.57C302.56 90.44 300.58 90.88 298.94 90.88C296.59 90.88 294.68 90.12 293.2 88.61C291.72 87.1 290.98 85.86 290.98 84.9C290.98 84.22 291.74 83.19 293.25 81.8C294.76 80.41 296.48 79.16 298.4 78.03C300.32 76.91 301.78 76.35 302.78 76.35C303.03 76.35 303.2 76.39 303.29 76.46C303.38 76.53 303.46 76.71 303.53 76.99C303.92 78.2 304.74 79.31 305.99 80.33C307.24 81.34 308.62 81.85 310.16 81.85C310.34 81.85 310.46 81.81 310.53 81.74C310.6 81.67 310.76 81.44 311.01 81.05C311.97 79.48 312.81 77.54 313.52 75.23C314.23 72.92 314.59 70.58 314.59 68.23C314.59 64.31 313.01 60.77 309.86 57.6C306.71 54.43 303.3 52.85 299.63 52.85C297.07 52.85 294.79 53.3 292.79 54.21C290.8 55.12 289.18 56.25 287.93 57.6C286.68 58.95 285.26 60.82 283.66 63.21C283.7 65.81 283.73 71.36 283.77 79.85C283.81 88.34 283.84 96.19 283.88 103.4C283.92 110.61 283.93 114.37 283.93 114.69C283.97 115.69 284.05 116.55 284.2 117.28C284.34 118.01 284.49 118.52 284.65 118.8C284.81 119.08 284.95 119.33 285.08 119.55C285.2 119.76 285.27 119.92 285.27 120.03C285.27 120.49 284.73 121.21 283.64 122.19C282.55 123.17 281.26 124.09 279.77 124.94C279.66 125.01 278.9 125.59 277.47 126.68C276.05 127.76 274.55 128.88 272.98 130.02C271.41 131.16 269.68 132.22 267.77 133.2C265.86 134.18 264.34 134.67 263.2 134.67C262.67 134.67 262.4 134.53 262.4 134.24C262.4 133.88 262.77 133.33 263.52 132.58C264.27 131.83 265.05 131.14 265.87 130.5L267.04 129.54C269.18 127.12 270.39 124.43 270.67 121.48V119.24C270.71 117.71 270.73 115.7 270.75 113.2C270.77 110.71 270.79 107.9 270.83 104.79C270.87 101.67 270.89 98.42 270.91 95.04C270.93 91.66 270.95 88.42 270.97 85.32C270.99 82.22 271 79.33 271.02 76.64C271.04 73.95 271.05 71.86 271.05 70.37V70.38Z" fill="black"/>
<path d="M189.81 48.75C186.11 45.4 181.67 43.73 176.51 43.73C174.84 43.73 173.02 43.94 171.06 44.34C169.55 44.66 167.87 45.14 166.01 45.8C167.11 44.75 168.47 43.08 170.12 40.75C170.65 40 171.8 38.44 173.56 36.05C175.32 33.66 176.59 31.94 177.35 30.87C178.11 29.8 179.23 28.22 180.69 26.12C182.15 24.02 183.24 22.34 183.95 21.07C184.66 19.81 185.45 18.37 186.3 16.75C187.15 15.13 187.76 13.7 188.12 12.45C188.48 11.2 188.65 10.08 188.65 9.09C188.65 7.67 188.35 6.44 187.74 5.4C187.13 4.37 186.33 3.59 185.34 3.08C184.35 2.57 183.35 2.19 182.38 1.96C181.4 1.73 180.39 1.61 179.36 1.61C177.51 1.61 175.32 2.09 172.79 3.05C170.26 4.01 167.83 5.24 165.5 6.74C163.17 8.24 161.18 10.03 159.54 12.11C157.9 14.19 157.08 16.23 157.08 18.23C157.08 20.58 157.47 21.75 158.25 21.75C159.21 21.75 160.64 21.19 162.55 20.07C164.45 18.95 166.17 17.69 167.7 16.3C169.23 14.91 170 13.88 170 13.2C170 13.09 169.95 12.82 169.84 12.37C169.73 11.92 169.66 11.26 169.63 10.37C171.02 10.62 172.18 11.04 173.13 11.63C174.07 12.22 174.73 12.89 175.11 13.66C175.48 14.43 175.74 15.08 175.88 15.63C176.02 16.18 176.09 16.73 176.09 17.26C176.09 19.4 174.9 23.1 172.51 28.37C171.09 31.54 169.57 34.5 167.97 37.26C166.37 40.02 165.2 42.04 164.47 43.32C163.74 44.6 163.38 45.65 163.38 46.47C163.38 46.6 163.4 46.71 163.43 46.8C161.12 47.77 158.64 49.13 155.96 50.92C152.95 52.93 149.99 55.34 147.07 58.16C147 30.14 146.77 14.45 146.38 11.11C146.13 8.83 145.77 6.93 145.31 5.4C144.85 3.87 144.32 2.73 143.73 1.98C143.14 1.23 142.56 0.72 141.97 0.43C141.38 0.15 140.73 0 140.02 0C138.42 0 136.5 0.68 134.28 2.03C132.05 3.38 130.18 4.83 128.67 6.38C127.16 7.93 126.4 9.04 126.4 9.72C126.4 9.93 126.47 10.08 126.61 10.15C126.75 10.22 126.95 10.23 127.2 10.18C127.45 10.12 127.7 10.06 127.95 9.99C128.2 9.92 128.47 9.84 128.75 9.75C129.03 9.66 129.25 9.62 129.39 9.62C132.67 9.62 134.3 15.58 134.3 27.51C134.3 28.83 134.27 30.39 134.22 32.18C134.17 33.98 134.14 35.02 134.14 35.3C134.1 37.93 134 49.68 133.82 70.55C133.75 78.85 133.52 83.74 133.13 85.24C132.92 85.99 132.36 86.91 131.47 88.02C131.29 88.23 130.84 88.59 130.11 89.09C129.38 89.59 128.74 90.09 128.19 90.59C127.64 91.09 127.36 91.52 127.36 91.87C127.36 92.15 127.64 92.3 128.21 92.3C130.24 92.3 133.99 91.03 139.45 88.48C144.92 85.93 147.65 84.09 147.65 82.95V82.9C147.33 81.69 147.13 75.26 147.06 63.62C148.34 62.02 149.48 60.71 150.48 59.69C151.48 58.68 152.76 57.58 154.33 56.41C155.9 55.24 157.66 54.35 159.62 53.77C161.58 53.18 163.73 52.89 166.08 52.89C170.39 52.89 174.27 54.48 177.72 57.67C181.17 60.86 182.9 64.37 182.9 68.22C182.9 70.53 182.47 72.89 181.62 75.3C180.77 77.7 179.73 79.72 178.52 81.36C178.27 81.72 177.67 81.89 176.7 81.89C174.71 81.89 172.91 81.14 171.31 79.65C170.74 79.12 170.28 78.57 169.92 78.02C169.56 77.47 169.35 77.05 169.28 76.76C169.21 76.47 169.1 76.24 168.96 76.04C168.82 75.85 168.62 75.75 168.37 75.75C166.91 75.75 164.59 76.91 161.4 79.22C158.21 81.53 156.62 83.21 156.62 84.24C156.62 85.34 157.46 86.74 159.13 88.43C160.8 90.12 162.85 90.97 165.27 90.97C167.26 90.97 169.58 90.46 172.21 89.45C174.84 88.43 177.51 86.96 180.2 85.02C182.89 83.08 185.36 80.88 187.62 78.42C189.88 75.96 191.73 73.13 193.17 69.93C194.61 66.73 195.33 63.5 195.33 60.26C195.33 55.95 193.48 52.12 189.78 48.78L189.81 48.75Z" fill="black"/>
<path d="M221.34 19.7301C221.68 19.4601 222.04 19.3301 222.43 19.3301C222.82 19.3301 223.19 19.4701 223.52 19.7601C223.85 20.0501 224.7 20.8601 226.06 22.2201C227.41 23.6101 228.59 24.8001 229.58 25.8001C230.43 26.6501 230.86 27.3301 230.86 27.8301C230.86 28.0801 230.79 28.3501 230.65 28.6301C230.51 28.9101 230.24 29.2701 229.85 29.7001C229.46 30.1301 229.06 30.5401 228.65 30.9301C228.24 31.3201 227.62 31.9201 226.78 32.7201C225.94 33.5201 225.17 34.2801 224.46 34.9901C223.61 35.8401 222.91 36.2701 222.38 36.2701C222.13 36.2701 221.86 36.2001 221.58 36.0601C221.3 35.9201 220.94 35.6501 220.51 35.2601C220.08 34.8701 219.67 34.4701 219.28 34.0601C218.89 33.6501 218.29 33.0301 217.49 32.1901C216.69 31.3501 215.93 30.5801 215.22 29.8701C214.33 28.9801 213.88 28.3001 213.88 27.8401C213.88 27.3401 214.33 26.6701 215.22 25.8101L218.42 22.6101C220.02 20.9701 220.99 20.0201 221.33 19.7501L221.34 19.7301ZM230.21 4.72007C230.55 4.45007 230.91 4.32007 231.3 4.32007C231.69 4.32007 232.04 4.44007 232.34 4.69007C232.64 4.94007 233.61 5.88007 235.25 7.52007L238.45 10.7201C238.52 10.7901 238.62 10.8901 238.74 11.0101C238.86 11.1401 238.95 11.2201 239.01 11.2801C239.07 11.3301 239.14 11.4101 239.25 11.5201C239.36 11.6301 239.43 11.7101 239.46 11.7601C239.5 11.8201 239.54 11.8901 239.59 11.9701C239.64 12.0601 239.68 12.1401 239.7 12.2101C239.72 12.2801 239.73 12.3601 239.75 12.4501C239.77 12.5401 239.78 12.6401 239.78 12.7401C239.78 13.1301 239.6 13.5401 239.25 13.9701C238.9 14.4001 237.9 15.4301 236.26 17.0701C235.09 18.2101 234.11 19.1701 233.32 19.9501C232.47 20.8001 231.79 21.2301 231.29 21.2301C231.04 21.2301 230.77 21.1601 230.49 21.0201C230.21 20.8801 229.85 20.6101 229.42 20.2201C228.99 19.8301 228.58 19.4301 228.19 19.0201C227.8 18.6101 227.2 17.9901 226.4 17.1501C225.6 16.3101 224.84 15.5401 224.13 14.8301C223.24 13.9401 222.79 13.2501 222.79 12.7501C222.79 12.2501 223.24 11.5801 224.13 10.7201L227.33 7.52007C228.9 5.92007 229.85 4.98007 230.19 4.72007H230.21ZM239.13 19.7001C239.43 19.4501 239.78 19.3301 240.17 19.3301C240.56 19.3301 240.92 19.4501 241.24 19.7001C241.56 19.9501 242.54 20.9101 244.18 22.5801L247.38 25.7801C248.23 26.6301 248.66 27.3101 248.66 27.8101C248.66 28.0601 248.59 28.3301 248.45 28.6101C248.31 28.8901 248.04 29.2501 247.65 29.6801C247.26 30.1101 246.86 30.5201 246.45 30.9101C246.04 31.3001 245.42 31.9001 244.58 32.7001C243.74 33.5001 242.97 34.2601 242.26 34.9701L241.43 35.8001C241.3 35.9301 241.14 36.0301 240.92 36.1201C240.71 36.2101 240.46 36.2501 240.17 36.2501C239.78 36.2501 239.4 36.0901 239.02 35.7701C238.65 35.4501 237.46 34.2901 235.47 32.3001L233.01 29.8401C232.12 28.9501 231.67 28.2701 231.67 27.8101C231.67 27.3101 232.12 26.6401 233.01 25.7801L236.59 22.2001C237.98 20.7801 238.82 19.9401 239.13 19.6901V19.7001Z" fill="black"/>
<path d="M310.86 18.76C311.2 18.49 311.56 18.36 311.95 18.36C312.34 18.36 312.71 18.5 313.04 18.79C313.37 19.08 314.22 19.89 315.58 21.25C316.93 22.64 318.11 23.83 319.1 24.83C319.95 25.68 320.38 26.36 320.38 26.86C320.38 27.11 320.31 27.38 320.17 27.66C320.03 27.94 319.76 28.3 319.37 28.73C318.98 29.16 318.58 29.57 318.17 29.96C317.76 30.35 317.14 30.95 316.3 31.75C315.46 32.55 314.69 33.31 313.98 34.02C313.13 34.87 312.43 35.3 311.9 35.3C311.65 35.3 311.38 35.23 311.1 35.09C310.82 34.95 310.46 34.68 310.03 34.29C309.6 33.9 309.19 33.5 308.8 33.09C308.41 32.68 307.81 32.06 307.01 31.22C306.21 30.38 305.45 29.61 304.74 28.9C303.85 28.01 303.4 27.33 303.4 26.87C303.4 26.37 303.85 25.7 304.74 24.84L307.94 21.64C309.54 20 310.51 19.05 310.85 18.78L310.86 18.76ZM319.73 3.74998C320.07 3.47998 320.43 3.34998 320.82 3.34998C321.21 3.34998 321.56 3.46998 321.86 3.71998C322.16 3.96998 323.13 4.90998 324.77 6.54998L327.97 9.74998C328.04 9.81998 328.14 9.91998 328.26 10.04C328.38 10.17 328.47 10.25 328.53 10.31C328.59 10.36 328.66 10.44 328.77 10.55C328.88 10.66 328.95 10.74 328.98 10.79C329.02 10.85 329.06 10.92 329.11 11C329.16 11.09 329.2 11.17 329.22 11.24C329.24 11.31 329.25 11.39 329.27 11.48C329.29 11.57 329.3 11.67 329.3 11.77C329.3 12.16 329.12 12.57 328.77 13C328.42 13.43 327.42 14.46 325.78 16.1C324.61 17.24 323.63 18.2 322.84 18.98C321.99 19.83 321.31 20.26 320.81 20.26C320.56 20.26 320.29 20.19 320.01 20.05C319.73 19.91 319.37 19.64 318.94 19.25C318.51 18.86 318.1 18.46 317.71 18.05C317.32 17.64 316.72 17.02 315.92 16.18C315.12 15.34 314.36 14.57 313.65 13.86C312.76 12.97 312.31 12.28 312.31 11.78C312.31 11.28 312.76 10.61 313.65 9.74998L316.85 6.54998C318.42 4.94998 319.37 4.00998 319.71 3.74998H319.73ZM328.65 18.73C328.95 18.48 329.3 18.36 329.69 18.36C330.08 18.36 330.44 18.48 330.76 18.73C331.08 18.98 332.06 19.94 333.7 21.61L336.9 24.81C337.75 25.66 338.18 26.34 338.18 26.84C338.18 27.09 338.11 27.36 337.97 27.64C337.83 27.92 337.56 28.28 337.17 28.71C336.78 29.14 336.38 29.55 335.97 29.94C335.56 30.33 334.94 30.93 334.1 31.73C333.26 32.53 332.49 33.29 331.78 34L330.95 34.83C330.82 34.96 330.66 35.06 330.44 35.15C330.23 35.24 329.98 35.28 329.69 35.28C329.3 35.28 328.92 35.12 328.54 34.8C328.17 34.48 326.98 33.32 324.99 31.33L322.53 28.87C321.64 27.98 321.19 27.3 321.19 26.84C321.19 26.34 321.64 25.67 322.53 24.81L326.11 21.23C327.5 19.81 328.34 18.97 328.65 18.72V18.73Z" fill="black"/>
</svg>
