<svg width="810" height="222" viewBox="0 0 810 222" fill="none" xmlns="http://www.w3.org/2000/svg">
<g clip-path="url(#clip0_6_32)">
<path fill-rule="evenodd" clip-rule="evenodd" d="M223 0C223.999 0 225 0 226 0C222.71 14.204 201.645 41.817 186 44C186 43.666 186 43.333 186 43C195.321 25.259 205.797 10.283 223 0ZM374.999 0C375.999 0 377 0 377.999 0C378.333 0.666 378.666 1.333 379 2C367.776 14.686 358.396 41.51 337.999 44C337.999 43.666 337.999 43.333 337.999 43C338.666 42.333 339.333 41.666 340 41C346.849 23.629 359.706 9.531 374.999 0ZM594.999 4C601.808 5.508 605.88 9.709 608 15C605.211 20.243 601.894 24.706 594.999 25.999C591.666 22.333 588.332 18.666 585 15C588.332 11.333 591.666 7.666 594.999 4ZM580.999 27C581.999 27 583 27 583.999 27C587.333 30.333 590.667 33.667 593.999 37C593.999 37.999 593.999 39 593.999 39.999C590.667 42.999 587.333 46 583.999 49C583 49 581.999 49 580.999 49C578 45.667 574.999 42.333 571.999 39C571.999 38 571.999 36.999 571.999 36C574.999 33 578 29.999 580.999 27ZM608 27C608.999 27 610 27 610.999 27C614.332 30.333 617.666 33.667 620.999 37C620.999 37.999 620.999 39 620.999 39.999C617.666 42.999 614.332 46 610.999 49C610 49 608.999 49 608 49C605 45.667 601.999 42.333 599 39C599 38 599 36.999 599 36C601.999 33 605 29.999 608 27ZM15 41C16.869 43.623 15.212 46.317 18.999 49C42.52 58.197 109.908 50.358 132 46.999C129.705 54.339 122.487 57.3 115.999 60C115.333 98.329 114.666 136.67 114 175C103.667 183.999 93.332 193 83 201.999C75.79 211.307 73.884 220.44 58.999 221.999C61.673 212.381 70.318 209.178 72.999 200.999C80.97 176.686 75.987 139.529 75.999 111C67.6 118.181 58.796 127.795 47 131.999C22.23 140.828 -1.829 119.923 6 93.999C10.19 80.689 19.547 72.856 27.999 63.999C16.584 64.413 6.482 64.48 0 60C0 59.666 0 59.333 0 58.999C0.333 57.333 0.666 55.666 1 53.999C3.998 47.49 9.39 44.878 15 41ZM157 60C180.997 60.999 205.2 62 229 63C239.665 62.666 250.334 62.333 260.999 62C249.616 81.416 211.994 74.702 185 74C168.697 92.2 133.396 126.853 172.999 151C192.954 163.166 238.141 160.856 238 131.999C235.316 126.408 232.923 123.444 226 121.999C228.231 113.696 236.97 109.547 245 109.999C247.666 112.666 250.333 115.333 252.999 117.999C268.705 148.56 194.684 179.941 161.999 165.999C106.209 142.203 160.409 92.72 177 72.999C162.334 73.333 147.665 73.666 132.999 74C132.999 73.666 132.999 73.333 132.999 72.999C133.666 72.333 134.333 71.666 135 70.999C140.113 62.877 147.439 63.92 157 60ZM297 133C296.827 149.481 296.635 168.533 298.999 182C288.961 188.515 280.884 198.801 266.999 200.999C269.887 193.473 277.58 191.822 278.999 182.999C284.196 159.382 284.52 73.808 266 74.999C266 74 266 72.999 266 72C270.319 66.15 276.437 61.643 286 60.999C292.802 64.848 295.321 71.105 295.999 81C317.276 64.252 336.886 48.52 359 77C373.92 65.43 397.567 51.657 411.999 74C415.418 79.292 419.45 88.15 416 97C412.551 107.172 403.224 113.452 397 121C413.381 121.32 418.732 116.572 429.999 114C419.695 145.275 337.788 133.535 297 133ZM445 60.999C447.333 61.333 449.666 61.666 451.999 62C460.25 65.882 458.519 72.636 462 81C463.999 79 466 76.999 468 74.999C477.338 70.353 484.897 63.241 497 60.999C507.145 59.121 513.267 63.442 517.999 67C541.803 84.893 519.501 107.412 508 121C524.844 121.329 530.59 116.606 542 114C532.19 142.965 465.851 132.413 432.999 135.999C436.666 131.667 440.333 127.332 443.999 123C449.461 105.256 443.568 83.47 437 74C434.666 74 432.333 74 429.999 74C429.999 73.666 429.999 73.333 429.999 72.999C434.999 69 440 64.999 445 60.999ZM585 60.999C594.965 60.787 597.759 63.111 602.999 67C601.628 75.71 594.878 79.54 585.999 79.999C583.612 75.132 579.641 73.535 573 72.999C572.333 73.333 571.666 73.666 571 74C558.817 95.81 566.814 132.898 600.999 119.999C608.993 116.984 614.285 108.547 619.999 102.999C619.666 92.1 619.333 80.998 619 70C631.695 63.28 651.548 57.846 673 62C679.427 67.49 678.53 72.672 682 81C684.333 78.666 686.666 76.333 688.999 74C708.524 64.672 732.816 51.624 745.999 77.999C763.154 67.211 795.147 47.747 807 79C817.796 107.466 785.819 137.897 761.999 133C759.666 130.333 757.333 127.666 754.999 124.999C754.999 124.666 754.999 124.333 754.999 123.999C759.803 118.913 763.708 114.757 771.999 112.999C774.343 118.997 776.825 119.849 782.999 121.999C799.854 104.35 789.175 80.169 770 72.999C759.509 73.332 752.32 77.506 748.999 84.999C740.387 107.813 734.256 139.23 702 133C699.666 130.666 697.333 128.333 694.999 126C694.999 125 694.999 123.999 694.999 123C700.172 119.98 703.535 114.791 710.999 112.999C713.333 115.666 715.666 118.333 717.999 121C722.513 120.784 723.39 120.292 725.999 119C731.813 100.481 730.399 63.512 699.999 74C679.622 81.3 684.4 101.214 682 123.999C673.18 127.644 662.576 136.764 651.999 135C652.999 133.666 654 132.333 654.999 130.999C671.118 124.453 664.573 84.93 656.999 74C650.813 73.475 642.181 70.962 637.999 74.999C632.428 86.786 636.69 121.99 645.999 119.999C646.333 119.999 646.666 119.999 646.999 119.999C645.211 128.295 637.44 133.463 628 133.999C626.333 132.666 624.666 131.333 622.999 130C622 124 620.999 117.999 619.999 112C605.975 123.1 569.473 149.195 551 123C530.563 94.21 567.372 70.206 585 60.999ZM71 63C59.1 63.666 46.998 64.333 35 65C22.385 80.923 15.27 110.112 40 119.999C74.389 130.144 76.92 92.191 75 63C73.666 63 72.333 63 71 63ZM91 63C91.199 101.76 99.443 151.101 90 186.999C92.666 185.333 95.333 183.666 98 182C97.733 149.104 91.615 88.953 101 63C97.667 63 94.333 63 91 63ZM317.999 72.999C298.752 82.971 296.136 91.651 297 121.999C297.333 121.999 297.666 121.999 297.999 121.999C311.627 118.764 328.674 121.673 337.999 114.999C346.263 96.1 344.9 73.971 317.999 72.999ZM375.999 72.999C373.666 73.666 371.333 74.333 368.999 74.999C363.235 82.893 362.502 93.295 357 102.999C352 108.666 346.999 114.333 342 119.999C357.665 119.666 373.334 119.333 388.999 119C410.656 109.23 397.255 74.464 375.999 72.999ZM486.999 72.999C473.884 78.815 471.47 82.385 462 91C462.333 100.999 462.666 111.1 462.999 121C474.665 120.666 486.334 120.333 497.999 119.999C523.835 110.152 509.723 76.981 486.999 72.999Z" fill="black"/>
</g>
<defs>
<clipPath id="clip0_6_32">
<rect width="810" height="222" fill="white"/>
</clipPath>
</defs>
</svg>
