<svg width="658" height="237" viewBox="0 0 658 237" fill="none" xmlns="http://www.w3.org/2000/svg">
<g clip-path="url(#clip0_426_50)">
<path d="M28.26 148.19C23.22 148.19 18.57 146.6 14.3 143.43C10.03 140.26 6.75998 136.34 4.47998 131.68C2.20998 127.03 1.06998 122.37 1.06998 117.72C1.06998 113.78 1.83998 109.75 3.36998 105.64C4.89998 101.53 6.91998 97.75 9.40998 94.3C11.9 90.85 14.49 87.76 17.17 85.02C19.85 82.28 22.56 79.93 25.3 77.96C23.22 77.96 21.1 77.93 18.93 77.88C16.77 77.83 14.88 77.78 13.26 77.76C11.64 77.73 10.19 77.71 8.89998 77.68C7.60998 77.65 6.58998 77.64 5.81998 77.64L4.74998 77.56C3.48998 77.4 2.37998 76.78 1.41998 75.71C0.45998 74.64 -0.0200195 73.29 -0.0200195 71.65C-0.0200195 68.69 2.04998 65.39 6.17998 61.76C10.31 58.12 13.37 56.3 15.34 56.3C15.89 56.3 16.16 56.52 16.16 56.96C16.16 57.34 16 57.78 15.67 58.27C15.34 58.76 15.18 59.34 15.18 59.99C15.18 61.19 15.6 62.28 16.45 63.23C17.3 64.19 18.33 64.72 19.53 64.83C24.35 65.32 38.26 65.57 61.26 65.57C94.77 65.57 113.72 65.21 118.1 64.5C119.69 64.22 121.35 63.67 123.07 62.86C124.8 62.03 126.29 61.57 127.55 61.46C127.77 61.68 127.88 61.95 127.88 62.28C127.88 63.71 126.03 65.7 122.34 68.27C118.64 70.84 115.12 72.76 111.78 74.02C111.23 76.43 110.78 80.71 110.42 86.87C110.06 93.03 109.82 101.93 109.68 113.57C109.54 125.21 109.46 135.32 109.43 143.92C109.4 152.52 109.39 165.36 109.39 182.45V185.74C109.39 187.65 109.33 188.85 109.23 189.31C109.12 189.78 108.76 190.42 108.16 191.24C106.41 193.65 104.34 195.69 101.96 197.36C99.58 199.03 96.84 200.85 93.75 202.82C90.66 204.79 87.79 207.06 85.17 209.64C82.32 212.49 79.16 216.39 75.68 221.35C72.2 226.31 70.24 228.98 69.81 229.36C67.51 231.38 64.98 233.1 62.21 234.49C59.44 235.89 57.38 236.58 56.01 236.58C55.35 236.58 55.02 236.39 55.02 236.01C55.02 235.79 55.27 235.1 55.76 233.95C56.25 232.8 57.4 230.9 59.21 228.24C61.02 225.58 63.26 222.91 65.95 220.23C66.94 219.24 67.52 218.6 67.72 218.3C67.91 218 68.14 217.36 68.42 216.37C70.77 208.27 71.95 185.43 71.95 147.87C71.95 143.55 71.89 135.69 71.79 124.3C66.26 130.87 59.63 136.49 51.91 141.18C44.19 145.87 36.3 148.2 28.25 148.2L28.26 148.19ZM70.97 82.39C70.97 81.24 71.02 80.35 71.13 79.72C71.24 79.09 71.32 78.7 71.38 78.57C71.43 78.44 71.65 78.1 72.04 77.55C55.72 77.88 42.41 78.04 32.12 78.04C30.53 79.52 29.41 80.59 28.75 81.25C28.09 81.91 26.98 83.26 25.42 85.31C23.86 87.37 22.5 89.51 21.35 91.76C18.67 97.07 17.33 102.08 17.33 106.79C17.33 114.35 19.89 121.18 25.01 127.28C30.13 133.39 35.89 136.44 42.3 136.44C45.2 136.44 47.95 136.03 50.56 135.21C53.16 134.39 55.17 133.51 56.6 132.58C61.25 129.46 66.26 122.78 71.63 112.54C71.52 107.39 71.41 102.5 71.3 97.88C71.19 93.25 71.11 89.77 71.05 87.44C70.99 85.12 70.97 83.43 70.97 82.39ZM93.89 111.96C93.89 99.97 94.15 91.64 94.67 86.95C95.19 82.27 96.22 78.83 97.75 76.64C95.01 76.8 91.18 76.97 86.25 77.13C86.96 104.07 87.32 128.17 87.32 149.41C87.32 178.32 86.77 196.2 85.68 203.05C88.8 200.59 91.73 198.4 94.47 196.48C94.41 182.13 94.31 165.8 94.14 147.49C93.98 129.17 93.89 117.33 93.89 111.96Z" fill="black"/>
<path d="M197.71 74.43C200.28 74.43 202.61 74.94 204.69 75.95C206.77 76.97 208.44 78.24 209.7 79.77C210.96 81.31 212.01 83.06 212.86 85.03C213.71 87 214.3 88.88 214.63 90.66C214.96 92.44 215.12 94.12 215.12 95.71C215.12 99.48 214.19 103.47 212.33 107.66C210.47 111.85 207.95 116.01 204.77 120.15C201.59 124.28 198.39 128.16 195.16 131.77C191.93 135.38 188.42 139.27 184.65 143.43C180.88 147.59 177.97 151.01 175.94 153.7C165.43 167.72 160.17 178.53 160.17 186.15C160.17 189.32 161.77 192.35 164.97 195.22C168.18 198.1 171.34 199.54 174.46 199.54C176.87 199.54 179.05 198.88 180.99 197.57C182.93 196.26 184.88 194.64 186.82 192.72C188.76 190.8 190.48 189.46 191.95 188.7C193.48 187.87 194.25 187.93 194.25 188.86C194.25 189.96 193.22 191.71 191.17 194.12C189.11 196.53 186.54 199.04 183.45 201.64C180.36 204.24 176.69 206.51 172.44 208.46C168.2 210.4 164.21 211.38 160.49 211.38C156.22 211.38 152.4 209.81 149.03 206.66C145.66 203.51 143.98 200.23 143.98 196.84C143.98 192.4 145.8 186.6 149.44 179.43C153.08 172.26 158.6 164.09 165.99 154.95C163.74 147.83 161.42 141.21 159.01 135.07C156.6 128.94 154.56 124.09 152.89 120.53C151.22 116.97 148.82 112.13 145.7 105.99C143.02 100.95 140.48 97.07 138.1 94.33C135.72 91.59 133.13 90.22 130.34 90.22C129.96 90.22 129.53 90.28 129.07 90.38C128.6 90.49 128.21 90.6 127.88 90.71C127.55 90.82 127.25 90.9 126.98 90.95C126.7 91.01 126.5 91 126.36 90.91C126.22 90.83 126.16 90.62 126.16 90.29C126.16 89.42 126.97 87.84 128.58 85.57C130.19 83.3 132.4 81.09 135.19 78.96C137.98 76.82 140.64 75.75 143.16 75.75C144.58 75.75 145.97 76.11 147.31 76.82C148.65 77.53 149.83 78.37 150.84 79.33C151.85 80.29 153.04 81.82 154.41 83.93C155.78 86.04 156.89 87.86 157.74 89.39C158.59 90.93 159.84 93.25 161.48 96.37C164.16 93.19 166.64 90.48 168.91 88.24C171.18 86 173.85 83.72 176.92 81.42C179.99 79.12 183.27 77.39 186.78 76.21C190.28 75.03 193.93 74.44 197.7 74.44L197.71 74.43ZM198.94 106.22C198.94 104.2 198.66 102.09 198.12 99.89C197.57 97.7 196.74 95.55 195.62 93.44C194.5 91.33 192.92 89.61 190.9 88.27C188.87 86.93 186.55 86.26 183.92 86.26C180.14 86.26 176.91 87.36 174.23 89.55C171.55 91.74 168.04 95.6 163.72 101.13C169.14 111.97 174.23 125.15 179 140.64C185.41 133.79 190.34 127.64 193.79 122.16C197.24 116.69 198.96 111.37 198.96 106.23L198.94 106.22Z" fill="black"/>
<path d="M252.17 137.59C252.17 139.13 248.19 141.67 240.22 145.23C232.25 148.79 227.31 150.57 225.39 150.57C224.62 150.57 224.24 150.32 224.24 149.83C224.24 149.39 224.65 148.83 225.47 148.15C226.29 147.46 227.19 146.81 228.18 146.18C229.17 145.55 229.71 145.15 229.82 144.99C230.53 144.22 231.11 143.51 231.54 142.85C231.98 142.19 232.37 141.54 232.73 140.88C233.09 140.22 233.33 139.31 233.47 138.13C233.61 136.95 233.73 135.83 233.84 134.76C233.95 133.7 234.02 132 234.04 129.67C234.07 127.34 234.08 125.15 234.08 123.1V113.94C234.08 109.89 234.11 106 234.16 102.28C234.49 69.75 234.65 51.68 234.65 48.07C234.65 39.53 234.1 32.87 233.01 28.11C231.91 23.35 229.89 20.96 226.93 20.96C226.71 20.96 226.38 21.02 225.94 21.13C225.5 21.24 225.11 21.36 224.75 21.5C224.39 21.64 224.04 21.74 223.68 21.83C223.32 21.91 223.04 21.91 222.82 21.83C222.6 21.75 222.49 21.57 222.49 21.3C222.49 20.31 223.5 18.81 225.53 16.78C227.55 14.76 230.07 12.85 233.09 11.07C236.1 9.28999 238.7 8.39999 240.89 8.39999C246.15 8.39999 249.32 14.29 250.42 26.06C250.91 31.32 251.21 55.63 251.32 99C255.59 94.51 260.03 90.65 264.63 87.42C269.23 84.19 273.51 81.77 277.49 80.15C281.46 78.53 284.99 77.38 288.08 76.7C291.17 76.02 294.01 75.68 296.58 75.68C304.14 75.68 310.82 78.31 316.62 83.57C322.42 88.83 325.33 94.93 325.33 101.89C325.33 103.26 325.21 104.81 324.96 106.53C324.71 108.26 324.17 110.69 323.32 113.84C322.47 116.99 320.92 120.34 318.68 123.9C316.43 127.46 313.64 130.8 310.3 133.92C306.41 137.48 301.92 140.75 296.83 143.73C291.74 146.72 286.67 148.21 281.63 148.21C278.07 148.21 275.03 146.93 272.51 144.35C269.99 141.78 268.73 139.7 268.73 138.11C268.73 136.74 270.77 134.56 274.85 131.58C278.93 128.6 281.98 127.1 284.01 127.1C284.45 127.1 284.72 127.22 284.83 127.47C284.94 127.71 285.16 128.25 285.49 129.07C285.82 129.9 286.39 130.8 287.21 131.78C289.78 134.9 292.99 136.46 296.82 136.46C298.9 136.46 300.16 136.24 300.6 135.8C300.82 135.63 301.22 135.17 301.79 134.4C302.36 133.64 303.08 132.51 303.93 131.03C304.78 129.56 305.57 127.92 306.31 126.15C307.05 124.37 307.69 122.26 308.24 119.82C308.79 117.38 309.06 114.96 309.06 112.55C309.06 105.98 306.36 100.16 300.97 95.09C295.58 90.02 289.54 87.49 282.86 87.49C279.63 87.49 276.56 87.94 273.66 88.84C270.76 89.74 268.33 90.74 266.39 91.84C264.45 92.94 262.41 94.51 260.27 96.57C258.13 98.62 256.55 100.29 255.51 101.57C254.47 102.86 253.07 104.65 251.32 106.95C251.37 122.67 251.65 132.88 252.14 137.59H252.17Z" fill="black"/>
<path d="M349.09 117.31C349.09 112.66 348.87 108.53 348.43 104.95C347.99 101.37 347.44 98.55 346.79 96.49C346.14 94.43 345.35 92.75 344.45 91.44C343.55 90.13 342.7 89.25 341.91 88.81C341.12 88.37 340.28 88.15 339.4 88.15C339.07 88.15 338.69 88.22 338.25 88.36C337.81 88.49 337.4 88.63 337.02 88.76C336.64 88.9 336.27 89.01 335.91 89.09C335.55 89.17 335.28 89.17 335.09 89.09C334.9 89.01 334.8 88.81 334.8 88.48C334.8 87.6 335.79 86.15 337.76 84.12C339.73 82.09 342.24 80.19 345.27 78.41C348.31 76.63 350.98 75.74 353.28 75.74C359.69 75.74 363.57 82.78 364.94 96.85C370.09 91.1 376.15 86.16 383.13 82.03C390.11 77.9 397.22 75.83 404.44 75.83C407.18 75.83 409.79 76.31 412.28 77.27C414.77 78.23 416.78 79.27 418.32 80.4C419.85 81.52 421.37 83.01 422.88 84.88C424.39 86.74 425.4 88.12 425.92 89.03C426.44 89.93 427.08 91.07 427.85 92.44C439.79 81.38 450.71 75.84 460.62 75.84C464.62 75.84 468.27 76.76 471.58 78.59C474.89 80.43 477.54 82.74 479.51 85.54C481.48 88.33 483.01 91.26 484.11 94.33C485.2 97.4 485.75 100.3 485.75 103.04C485.75 107.15 484.56 111.42 482.18 115.85C479.8 120.29 477.1 124.08 474.09 127.22C471.08 130.37 467.9 133.13 464.56 135.48C466.97 135.48 469.69 135.49 472.73 135.52C475.77 135.55 477.67 135.56 478.44 135.56C481.56 135.56 483.77 135.41 485.05 135.11C486.34 134.81 487.8 134.12 489.45 133.02C493.67 130.23 496.6 128.83 498.24 128.83C498.84 128.83 499.14 129.05 499.14 129.49C499.14 131.35 494.65 135.11 485.67 140.75C481.89 143.1 478.65 144.88 475.94 146.09C473.23 147.29 471.26 148.01 470.03 148.23C468.8 148.45 467.33 148.56 465.63 148.56C459.99 148.56 448.33 148.28 430.64 147.74C412.95 147.19 399.04 146.92 388.91 146.92C380.86 146.92 373.11 147.08 365.66 147.41C365.66 172.32 365.69 185.47 365.74 186.84C365.79 188.32 365.93 189.62 366.15 190.74C366.37 191.86 366.6 192.64 366.85 193.08C367.09 193.52 367.31 193.9 367.51 194.23C367.7 194.56 367.8 194.8 367.8 194.97C367.8 195.63 367.14 196.49 365.83 197.55C364.52 198.62 362.91 199.77 361.02 201C359.13 202.23 357.91 203.06 357.37 203.51C353.1 207.07 348.98 209.98 345.01 212.26C341.04 214.53 338.29 215.67 336.75 215.67C336.09 215.67 335.76 215.42 335.76 214.93C335.76 214.27 336.31 213.48 337.4 212.55C338.49 211.62 339.74 210.63 341.14 209.59C342.54 208.55 343.95 206.87 345.37 204.54C346.79 202.21 347.78 199.57 348.33 196.62C348.49 195.91 348.66 183.78 348.82 160.23C348.98 136.68 349.07 122.39 349.07 117.35L349.09 117.31ZM390.9 87.5C388.6 87.5 386.49 87.72 384.58 88.16C382.66 88.6 380.88 89.34 379.24 90.38C377.6 91.42 376.23 92.38 375.13 93.25C374.03 94.13 372.8 95.5 371.43 97.36C370.06 99.22 369.06 100.63 368.43 101.59C367.8 102.55 366.8 104.15 365.43 106.4C365.54 113.41 365.59 123.49 365.59 136.63C375.34 135.64 387.49 135.07 402.06 134.91C403.54 133.38 404.77 132.02 405.76 130.84C406.75 129.66 407.92 128.08 409.29 126.08C410.66 124.08 411.7 121.92 412.41 119.59C413.12 117.26 413.48 114.84 413.48 112.32C413.48 106.13 411.17 100.45 406.54 95.28C401.91 90.1 396.7 87.52 390.89 87.52L390.9 87.5ZM447.33 87.5C445.03 87.5 443.03 87.73 441.33 88.2C439.63 88.67 438.1 89.46 436.73 90.58C435.36 91.7 434.18 92.86 433.2 94.07C432.21 95.27 431.01 96.94 429.59 99.08C429.64 99.47 429.67 100.12 429.67 101.05C429.67 103.13 429.37 105.38 428.77 107.79C428.17 110.2 427.15 112.91 425.73 115.92C424.3 118.93 422.17 122.09 419.32 125.41C416.47 128.72 413.08 131.86 409.13 134.82C417.18 134.82 424.15 134.85 430.03 134.9C435.92 134.96 441.43 135.04 446.58 135.15C451.73 135.26 455.53 135.34 458 135.39L459.23 134.16C460.05 133.28 460.56 132.76 460.75 132.6C460.94 132.44 461.42 131.92 462.19 131.04C462.96 130.17 463.48 129.52 463.75 129.11C464.02 128.7 464.5 128.02 465.19 127.09C465.88 126.16 466.35 125.38 466.63 124.75C466.9 124.12 467.27 123.31 467.74 122.33C468.2 121.34 468.53 120.43 468.73 119.58C468.92 118.73 469.1 117.77 469.26 116.7C469.42 115.64 469.51 114.55 469.51 113.46C469.51 107.22 467.22 101.33 462.65 95.8C458.08 90.27 452.97 87.51 447.33 87.51V87.5Z" fill="black"/>
<path d="M597.24 100.88C597.24 106.85 596.19 112.5 594.08 117.84C591.97 123.18 589.33 127.64 586.15 131.23C582.97 134.82 579.51 137.94 575.76 140.6C572.01 143.25 568.48 145.2 565.16 146.43C561.85 147.66 559.01 148.28 556.66 148.28C553.21 148.28 550.36 147.1 548.12 144.75C545.87 142.4 544.75 140.51 544.75 139.08C544.75 137.77 546.8 135.59 550.91 132.55C555.02 129.51 558.11 127.99 560.19 127.99C560.46 127.99 560.67 128.12 560.81 128.36C560.95 128.6 561.07 128.92 561.18 129.3C561.29 129.69 561.55 130.21 561.96 130.86C562.37 131.52 562.87 132.17 563.48 132.83C565.78 135.24 568.33 136.44 571.12 136.44C572.27 136.44 573.04 136.3 573.42 136.03C573.8 135.75 574.43 134.85 575.31 133.32C579.14 126.7 581.06 119.74 581.06 112.46C581.06 106.16 578.64 100.43 573.79 95.25C568.94 90.07 563.62 87.49 557.81 87.49C552 87.49 546.93 88.96 542.9 91.92C538.87 94.88 534.84 99.73 530.78 106.46C530.78 109.42 530.81 112.16 530.86 114.67C530.91 117.19 530.96 119.37 530.98 121.2C531.01 123.03 531.05 124.71 531.1 126.25C531.15 127.78 531.2 129.04 531.22 130.02C531.25 131.01 531.29 131.9 531.34 132.69C531.39 133.48 531.44 134.1 531.46 134.54C531.49 134.98 531.53 135.35 531.58 135.65C531.63 135.95 531.66 136.15 531.66 136.26C531.66 136.37 531.67 136.48 531.7 136.59C531.73 136.7 531.74 136.81 531.74 136.92C531.74 138.51 527.97 141.1 520.44 144.68C512.91 148.27 507.78 150.06 505.04 150.06C504.27 150.06 503.89 149.84 503.89 149.4C503.89 148.85 504.33 148.24 505.2 147.55C506.07 146.87 507.06 146.17 508.16 145.46C509.25 144.75 510.36 143.61 511.49 142.05C512.61 140.49 513.34 138.67 513.67 136.59C513.78 135.99 513.87 133.54 513.96 129.24C514.04 124.94 514.08 120.77 514.08 116.72L514.16 110.72C514.16 103.06 513.12 97.37 511.04 93.67C508.96 89.98 506.63 88.13 504.06 88.13C503.84 88.13 503.54 88.18 503.16 88.29C502.78 88.4 502.42 88.51 502.09 88.62C501.76 88.73 501.43 88.83 501.1 88.91C500.77 88.99 500.51 88.99 500.32 88.91C500.13 88.83 500.03 88.65 500.03 88.38C500.03 87.51 500.99 86.05 502.9 84.02C504.82 82 507.24 80.11 510.17 78.35C513.1 76.6 515.68 75.72 517.93 75.72C520.01 75.72 521.87 76.42 523.52 77.82C525.16 79.21 526.46 81.05 527.42 83.32C528.38 85.59 529.1 87.9 529.6 90.26C530.09 92.62 530.39 94.97 530.5 97.33C536.96 90.26 543.66 84.9 550.58 81.23C557.51 77.56 564.09 75.72 570.33 75.72C575.97 75.72 581.01 77.24 585.44 80.28C589.87 83.32 593.3 87.75 595.71 93.54C608.2 81.71 619.91 75.8 630.87 75.8C634.92 75.8 638.67 76.64 642.12 78.31C645.57 79.98 648.39 82.16 650.58 84.84C652.77 87.52 654.48 90.48 655.71 93.71C656.94 96.94 657.56 100.17 657.56 103.4C657.56 108.44 656.57 113.37 654.6 118.19C652.63 123.01 650.11 127.18 647.04 130.72C643.97 134.25 640.6 137.37 636.94 140.08C633.27 142.79 629.68 144.83 626.18 146.2C622.67 147.57 619.58 148.26 616.9 148.26C613.56 148.26 610.75 147.09 608.48 144.77C606.21 142.44 605.07 140.51 605.07 138.98C605.07 137.67 607.14 135.5 611.27 132.49C615.41 129.48 618.48 127.97 620.51 127.97C620.84 127.97 621.1 128.16 621.29 128.55C621.48 128.93 621.67 129.41 621.87 129.99C622.06 130.56 622.5 131.27 623.18 132.12C623.86 132.97 624.78 133.78 625.93 134.55C627.79 135.81 629.63 136.44 631.43 136.44C631.81 136.44 632.14 136.42 632.42 136.39C632.69 136.37 632.93 136.35 633.12 136.35C633.31 136.35 633.5 136.3 633.7 136.19C633.89 136.08 634.03 136.01 634.11 135.99C634.19 135.96 634.33 135.82 634.52 135.58C634.71 135.34 634.83 135.17 634.89 135.08C634.94 135 635.08 134.75 635.3 134.35C635.52 133.94 635.68 133.65 635.79 133.49C639.51 127.3 641.38 121.08 641.38 114.84C641.38 111.01 640.67 107.36 639.24 103.92C637.81 100.47 636 97.57 633.78 95.21C631.56 92.86 629.06 90.98 626.27 89.59C623.48 88.2 620.74 87.5 618.06 87.5C616.85 87.5 615.66 87.59 614.49 87.78C613.31 87.97 612.24 88.19 611.28 88.44C610.32 88.69 609.36 89.04 608.41 89.51C607.45 89.98 606.63 90.4 605.95 90.79C605.26 91.17 604.52 91.68 603.73 92.31C602.94 92.94 602.32 93.46 601.88 93.87C601.44 94.28 600.91 94.83 600.28 95.51C599.65 96.19 599.23 96.67 599.01 96.95C598.79 97.23 598.44 97.68 597.94 98.3C597.45 98.93 597.17 99.28 597.12 99.33C597.12 99.49 597.13 99.75 597.16 100.11C597.19 100.47 597.2 100.73 597.2 100.89L597.24 100.88Z" fill="black"/>
<path d="M175.45 33.35C175.94 33.35 176.49 33.63 177.09 34.17C177.69 34.72 178.8 35.84 180.42 37.54C182.03 39.24 183.66 40.86 185.31 42.39C186.13 43.16 186.64 43.68 186.83 43.95C187.02 44.23 187.12 44.63 187.12 45.18C187.12 45.62 187.08 45.96 187 46.2C186.92 46.45 186.66 46.78 186.22 47.19C185.78 47.6 185.29 48.04 184.74 48.5C184.19 48.97 183.31 49.81 182.11 51.01C180.9 52.22 179.62 53.56 178.25 55.04C177.48 55.86 176.96 56.37 176.69 56.56C176.41 56.75 176 56.85 175.46 56.85C175.02 56.85 174.68 56.81 174.43 56.72C174.19 56.64 173.86 56.38 173.44 55.94C173.03 55.5 172.59 55.01 172.13 54.47C171.67 53.92 170.83 53.04 169.63 51.84C168.42 50.63 167.08 49.35 165.61 47.98C164.35 46.83 163.72 45.9 163.72 45.19C163.72 44.43 164.35 43.49 165.61 42.4C166.76 41.3 167.88 40.23 168.98 39.16C170.07 38.09 170.91 37.23 171.48 36.57C172.06 35.91 172.62 35.32 173.16 34.8C173.71 34.28 174.15 33.91 174.47 33.69C174.8 33.47 175.13 33.36 175.46 33.36L175.45 33.35Z" fill="black"/>
<path d="M427.72 64.2C414.82 64.2 398.09 63.92 377.54 63.37C356.98 62.83 346.71 61.98 346.71 60.83C346.71 59.46 350.21 57.23 357.22 54.14C364.22 51.05 369.26 49.5 372.32 49.5C373.06 49.5 373.83 49.57 374.62 49.7C375.41 49.84 376.29 50.02 377.27 50.23C378.24 50.45 380.19 50.7 383.12 50.97C386.04 51.25 389.66 51.49 393.98 51.71C398.29 51.93 404.6 52.11 412.91 52.24C421.21 52.37 430.84 52.44 441.79 52.44C452.74 52.44 461.46 52.31 468.24 52.03C475.01 51.75 479.35 51.46 481.25 51.17C483.15 50.87 484.8 50.58 486.19 50.31C487.58 50.04 488.93 49.9 490.23 49.9C491.16 49.9 491.62 50.12 491.62 50.56C491.62 51.82 488.79 53.82 483.13 56.56C477.47 59.3 472.6 61.05 468.51 61.82C460.16 63.41 446.56 64.2 427.73 64.2H427.72Z" fill="black"/>
<path d="M403.28 23.37C403.61 23.18 403.94 23.09 404.27 23.09C404.6 23.09 404.93 23.18 405.26 23.37C405.59 23.56 406.01 23.89 406.53 24.36C407.05 24.83 407.57 25.34 408.09 25.88C408.61 26.43 409.35 27.19 410.31 28.18C411.27 29.17 412.21 30.1 413.14 30.98C414.62 32.4 415.36 33.47 415.36 34.18C415.36 34.73 415.1 35.3 414.58 35.91C414.06 36.51 412.98 37.61 411.33 39.2C409.68 40.79 408.21 42.26 406.89 43.63C406.23 44.34 405.78 44.77 405.54 44.91C405.29 45.05 404.89 45.12 404.35 45.12C403.97 45.12 403.66 45.07 403.45 45C403.23 44.92 402.92 44.68 402.5 44.3C402.09 43.92 401.65 43.48 401.19 42.99C400.73 42.5 399.92 41.66 398.77 40.48C397.62 39.3 396.33 38.06 394.91 36.74C393.81 35.7 393.27 34.83 393.27 34.11C393.27 33.51 394.01 32.47 395.49 30.99C396.42 30.11 397.37 29.18 398.32 28.19C399.28 27.2 400 26.44 400.5 25.89C400.99 25.35 401.5 24.84 402.02 24.37C402.54 23.91 402.97 23.58 403.29 23.38L403.28 23.37ZM417.98 5.49294e-06C418.53 5.49294e-06 419.07 0.220006 419.62 0.660006C420.17 1.10001 421.19 2.11001 422.7 3.70001C424.21 5.29001 425.56 6.66001 426.77 7.80001C428.3 9.28001 429.07 10.35 429.07 11.01C429.07 11.34 428.96 11.68 428.74 12.04C428.52 12.4 428.17 12.85 427.67 13.39C427.18 13.94 426.63 14.49 426.03 15.03C425.43 15.58 424.62 16.36 423.61 17.38C422.6 18.39 421.6 19.42 420.61 20.46C419.9 21.17 419.42 21.61 419.17 21.77C418.92 21.93 418.52 22.01 417.98 22.01C417.6 22.01 417.29 21.97 417.08 21.89C416.86 21.81 416.55 21.58 416.13 21.19C415.72 20.81 415.28 20.37 414.82 19.88C414.36 19.39 413.55 18.55 412.4 17.38C411.25 16.2 409.96 14.95 408.54 13.64C407.5 12.65 406.98 11.78 406.98 11.01C406.98 10.35 407.72 9.29001 409.2 7.80001C410.13 6.93001 411.08 6.01001 412.03 5.05001C412.99 4.09001 413.71 3.34001 414.21 2.79001C414.71 2.24001 415.21 1.74001 415.73 1.27001C416.25 0.800005 416.67 0.480005 417 0.280005C417.33 0.0900055 417.66 -0.00999451 417.99 -0.00999451L417.98 5.49294e-06ZM430.63 23.37C430.96 23.18 431.29 23.09 431.62 23.09C431.95 23.09 432.28 23.18 432.61 23.37C432.94 23.56 433.36 23.89 433.88 24.36C434.4 24.83 434.92 25.34 435.44 25.88C435.96 26.43 436.7 27.19 437.66 28.18C438.62 29.17 439.56 30.1 440.49 30.98C441.97 32.4 442.71 33.47 442.71 34.18C442.71 34.73 442.45 35.3 441.93 35.91C441.41 36.51 440.33 37.61 438.69 39.2C437.05 40.79 435.57 42.26 434.25 43.63C433.59 44.34 433.13 44.77 432.85 44.91C432.57 45.05 432.16 45.12 431.62 45.12C431.24 45.12 430.93 45.07 430.72 45C430.5 44.92 430.19 44.68 429.77 44.3C429.36 43.92 428.92 43.48 428.46 42.99C428 42.5 427.19 41.66 426.04 40.48C424.89 39.3 423.6 38.06 422.18 36.74C421.14 35.75 420.62 34.91 420.62 34.2C420.62 33.54 421.36 32.47 422.84 31C423.77 30.12 424.72 29.19 425.67 28.2C426.63 27.21 427.35 26.45 427.85 25.9C428.34 25.36 428.85 24.85 429.37 24.38C429.89 23.92 430.31 23.59 430.64 23.39L430.63 23.37Z" fill="black"/>
<path d="M572.92 41.78C573.25 41.59 573.58 41.5 573.91 41.5C574.24 41.5 574.57 41.59 574.9 41.78C575.23 41.97 575.65 42.3 576.17 42.77C576.69 43.24 577.21 43.75 577.73 44.29C578.25 44.84 578.99 45.6 579.95 46.59C580.91 47.58 581.85 48.51 582.78 49.39C584.26 50.81 585 51.88 585 52.59C585 53.14 584.74 53.71 584.22 54.32C583.7 54.92 582.62 56.02 580.97 57.61C579.32 59.2 577.85 60.67 576.53 62.04C575.87 62.75 575.42 63.18 575.18 63.32C574.93 63.46 574.53 63.53 573.99 63.53C573.61 63.53 573.3 63.48 573.09 63.41C572.87 63.33 572.56 63.09 572.14 62.71C571.73 62.33 571.29 61.89 570.83 61.4C570.37 60.91 569.56 60.07 568.41 58.89C567.26 57.71 565.97 56.47 564.55 55.15C563.45 54.11 562.91 53.24 562.91 52.52C562.91 51.92 563.65 50.88 565.13 49.4C566.06 48.52 567.01 47.59 567.96 46.6C568.92 45.61 569.64 44.85 570.14 44.3C570.63 43.76 571.14 43.25 571.66 42.78C572.18 42.32 572.61 41.99 572.93 41.79L572.92 41.78ZM587.62 18.41C588.17 18.41 588.71 18.63 589.26 19.07C589.81 19.51 590.83 20.52 592.34 22.11C593.85 23.7 595.2 25.07 596.41 26.21C597.94 27.69 598.71 28.76 598.71 29.42C598.71 29.75 598.6 30.09 598.38 30.45C598.16 30.81 597.81 31.26 597.31 31.8C596.82 32.35 596.27 32.9 595.67 33.44C595.07 33.99 594.26 34.77 593.25 35.79C592.24 36.8 591.24 37.83 590.25 38.87C589.54 39.58 589.06 40.02 588.81 40.18C588.56 40.34 588.16 40.42 587.62 40.42C587.24 40.42 586.93 40.38 586.72 40.3C586.5 40.22 586.19 39.99 585.77 39.6C585.36 39.22 584.92 38.78 584.46 38.29C584 37.8 583.19 36.96 582.04 35.79C580.89 34.61 579.6 33.36 578.18 32.05C577.14 31.06 576.62 30.19 576.62 29.42C576.62 28.76 577.36 27.7 578.84 26.21C579.77 25.34 580.72 24.42 581.67 23.46C582.63 22.5 583.35 21.75 583.85 21.2C584.35 20.65 584.85 20.15 585.37 19.68C585.89 19.21 586.31 18.89 586.64 18.69C586.97 18.5 587.3 18.4 587.63 18.4L587.62 18.41ZM600.27 41.78C600.6 41.59 600.93 41.5 601.26 41.5C601.59 41.5 601.92 41.59 602.25 41.78C602.58 41.97 603 42.3 603.52 42.77C604.04 43.24 604.56 43.75 605.08 44.29C605.6 44.84 606.34 45.6 607.3 46.59C608.26 47.58 609.2 48.51 610.13 49.39C611.61 50.81 612.35 51.88 612.35 52.59C612.35 53.14 612.09 53.71 611.57 54.32C611.05 54.92 609.97 56.02 608.33 57.61C606.69 59.2 605.21 60.67 603.89 62.04C603.23 62.75 602.77 63.18 602.49 63.32C602.21 63.46 601.8 63.53 601.26 63.53C600.88 63.53 600.57 63.48 600.36 63.41C600.14 63.33 599.83 63.09 599.41 62.71C599 62.33 598.56 61.89 598.1 61.4C597.64 60.91 596.83 60.07 595.68 58.89C594.53 57.71 593.24 56.47 591.82 55.15C590.78 54.16 590.26 53.32 590.26 52.61C590.26 51.95 591 50.88 592.48 49.41C593.41 48.53 594.36 47.6 595.31 46.61C596.27 45.62 596.99 44.86 597.49 44.31C597.98 43.77 598.49 43.26 599.01 42.79C599.53 42.33 599.95 42 600.28 41.8L600.27 41.78Z" fill="black"/>
</g>
<defs>
<clipPath id="clip0_426_50">
<rect width="657.61" height="236.57" fill="white"/>
</clipPath>
</defs>
</svg>
