<svg width="548" height="156" viewBox="0 0 548 156" fill="none" xmlns="http://www.w3.org/2000/svg">
<path d="M355.85 19.4999C356.29 19.1199 356.71 18.9399 357.1 18.9399C357.49 18.9399 357.91 19.1299 358.35 19.4999C358.79 19.8699 359.58 20.6699 360.73 21.8799C361.88 23.0899 363 24.2099 364.11 25.2599C364.96 26.0799 365.38 26.7499 365.38 27.2699C365.38 27.7299 365.17 28.1999 364.74 28.6899C364.31 29.1799 363.5 29.9799 362.29 31.0899C361.08 32.1999 360 33.2599 359.06 34.2699C358.24 35.1199 357.57 35.5399 357.05 35.5399C356.63 35.5399 356.18 35.3299 355.7 34.8999C355.22 34.4699 354.44 33.6699 353.35 32.4799C352.26 31.2899 351.17 30.1999 350.09 29.2199C349.21 28.3999 348.77 27.7499 348.77 27.2599C348.77 26.7699 349.21 26.0999 350.09 25.2499C351.2 24.2099 352.33 23.0799 353.47 21.8699C354.61 20.6599 355.4 19.8699 355.85 19.4899V19.4999Z" fill="black"/>
<path d="M416.26 19.4999C416.7 19.1199 417.12 18.9399 417.51 18.9399C417.9 18.9399 418.32 19.1299 418.76 19.4999C419.2 19.8699 419.99 20.6699 421.14 21.8799C422.29 23.0899 423.41 24.2099 424.52 25.2599C425.37 26.0799 425.79 26.7499 425.79 27.2699C425.79 27.7299 425.58 28.1999 425.15 28.6899C424.72 29.1799 423.91 29.9799 422.7 31.0899C421.49 32.1999 420.41 33.2599 419.47 34.2699C418.65 35.1199 417.98 35.5399 417.46 35.5399C417.04 35.5399 416.59 35.3299 416.11 34.8999C415.63 34.4699 414.85 33.6699 413.76 32.4799C412.67 31.2899 411.58 30.1999 410.5 29.2199C409.62 28.3999 409.18 27.7499 409.18 27.2599C409.18 26.7699 409.62 26.0999 410.5 25.2499C411.61 24.2099 412.74 23.0799 413.88 21.8699C415.02 20.6599 415.81 19.8699 416.26 19.4899V19.4999Z" fill="black"/>
<path d="M19.99 95.4498C16.52 95.4498 13.32 94.3998 10.39 92.3098C7.46001 90.2198 5.21001 87.6298 3.64001 84.5498C2.07001 81.4698 1.29001 78.3598 1.29001 75.2298C1.29001 72.0998 2.14001 68.6698 3.84001 65.1798C5.54001 61.6898 7.51001 58.6598 9.75001 56.0798C11.99 53.4998 14.42 51.1898 17.03 49.1398C8.11001 49.0698 3.22001 48.8598 2.36001 48.5198C0.79001 47.8898 0.0100098 46.6298 0.0100098 44.7698C0.0100098 43.1998 0.87001 41.4398 2.59001 39.4798C4.31001 37.5198 6.15001 35.9198 8.11001 34.6598C10.07 33.3998 11.48 32.7798 12.34 32.7798C12.71 32.7798 12.9 32.9298 12.9 33.2298C12.9 33.4498 12.69 33.9998 12.28 34.8498C12.28 36.7198 13.06 37.9098 14.63 38.4298C15.26 38.6198 19.27 38.7798 26.64 38.9098C34.01 39.0398 40.96 39.1098 47.5 39.1098C60.23 39.1098 69.79 38.9998 76.17 38.7698C82.55 38.5398 86.03 38.3698 86.61 38.2398C87.19 38.1098 87.93 37.8198 88.82 37.3698C89.83 36.8798 90.52 36.5898 90.89 36.4698C91.26 36.3498 91.82 36.2998 92.57 36.2998C92.68 36.4498 92.74 36.6398 92.74 36.8598C92.74 37.9098 91.47 39.3798 88.93 41.2798C86.39 43.1798 83.95 44.6398 81.59 45.6498C80.62 50.3898 80.13 68.3098 80.13 99.3998V112.78C80.13 118.27 80.09 121.23 80.02 121.68C79.76 122.76 78.55 124.35 76.41 126.44C74.27 128.53 71.96 130.17 69.49 131.37C67.77 132.23 66.25 133.04 64.93 133.81C63.61 134.58 62.52 135.28 61.68 135.94C60.84 136.6 60.2 137.11 59.75 137.48C59.3 137.85 58.84 138.32 58.35 138.88C57.86 139.44 57.57 139.78 57.45 139.89C56.26 141.08 54.7 142.94 52.77 145.46C50.84 147.98 49.18 149.76 47.76 150.81C46.08 152.04 44.3 153.1 42.41 153.97C40.52 154.84 39.13 155.29 38.24 155.29C37.72 155.29 37.46 155.12 37.46 154.79C37.46 154.53 37.75 153.9 38.33 152.91C38.91 151.92 39.89 150.57 41.27 148.85C42.65 147.13 44.22 145.49 45.97 143.92C46.01 143.88 46.08 143.82 46.19 143.72C46.3 143.62 46.38 143.57 46.41 143.55C46.44 143.53 46.49 143.48 46.55 143.41C46.61 143.34 46.65 143.27 46.69 143.21C46.73 143.15 46.77 143.08 46.83 142.99C46.89 142.9 46.93 142.79 46.97 142.68C47.01 142.57 47.04 142.44 47.08 142.29C47.12 142.14 47.17 141.95 47.25 141.73C48.86 136.28 49.66 120.99 49.66 95.8698C49.66 92.9598 49.62 87.6998 49.55 80.0798C47.87 81.9098 45.99 83.6698 43.89 85.3698C41.79 87.0698 39.48 88.6998 36.92 90.2698C34.36 91.8398 31.6 93.0898 28.63 94.0198C25.66 94.9498 22.78 95.4198 19.98 95.4198L19.99 95.4498ZM31.08 85.9298C35.34 85.9298 38.7 84.9098 41.19 82.8798C43.68 80.8498 46.43 77.1398 49.45 71.7698C49.26 59.4098 49.11 52.2498 49 50.2698C49.15 49.8998 49.41 49.3898 49.78 48.7598C41.57 48.9498 32.59 49.0798 22.85 49.1498C20.65 51.0198 18.69 53.5898 16.97 56.8798C15.25 60.1698 14.39 63.4498 14.39 66.7298C14.39 71.5498 16.14 75.9498 19.65 79.9398C23.16 83.9298 26.97 85.9298 31.07 85.9298H31.08ZM67.53 68.4598C67.53 61.8498 67.68 57.1898 67.98 54.4598C68.28 51.7298 68.89 49.6298 69.83 48.1298C68.9 48.1698 67.49 48.2098 65.6 48.2698C63.71 48.3298 62.31 48.3698 61.37 48.4098C61.78 65.4698 61.99 81.5598 61.99 96.6798C61.99 115.83 61.65 127.59 60.98 131.96C61.17 131.85 61.53 131.6 62.07 131.2C62.61 130.8 63.42 130.24 64.51 129.49C65.6 128.74 66.73 127.98 67.93 127.19C67.89 116.1 67.82 104.23 67.71 91.5798C67.6 78.9298 67.54 71.2198 67.54 68.4498L67.53 68.4598Z" fill="black"/>
<path d="M123.92 9.91017C123.63 7.43017 122.7 5.37017 121.14 3.72017C119.03 1.50017 116.42 0.270167 113.3 0.0401673C110.18 -0.189833 107.48 0.770167 105.2 2.93017C103.87 4.19017 102.83 5.79017 102.08 7.74017C101.33 9.69017 100.89 11.8402 100.76 14.2002C100.63 16.5602 100.66 19.0002 100.84 21.5302C101.02 24.0602 101.41 26.7302 101.99 29.5402C102.57 32.3502 103.18 34.9702 103.8 37.3902C104.42 39.8102 105.15 42.3002 105.97 44.8602C106.13 45.3702 106.29 45.8602 106.45 46.3502C105.3 46.6802 104.03 47.2602 102.64 48.0902C100.33 49.4702 98.37 50.9702 96.76 52.6002C95.15 54.2202 94.35 55.4102 94.35 56.1602C94.35 56.3802 94.43 56.5302 94.6 56.6102C94.77 56.6802 94.97 56.6902 95.22 56.6402C95.46 56.5802 95.72 56.5202 96 56.4402C96.28 56.3702 96.55 56.2802 96.81 56.1902C97.07 56.1002 97.28 56.0502 97.43 56.0502C100.86 56.0502 102.58 61.8502 102.58 73.4602L102.13 126.21C101.79 128.3 101 130.31 99.75 132.23C98.5 134.15 97.2 135.54 95.86 136.4C94.52 137.26 93.41 138.1 92.56 138.92C91.7 139.74 91.27 140.38 91.27 140.82C91.27 141.16 91.53 141.32 92.05 141.32C93.51 141.32 95.76 140.46 98.83 138.74C100.92 137.55 102.84 136.28 104.6 134.93C106.35 133.59 107.77 132.43 108.86 131.46C109.94 130.49 110.71 129.87 111.16 129.61C113.03 128.56 114.55 127.51 115.72 126.45C116.9 125.39 117.48 124.61 117.48 124.13C117.48 124.02 117.44 123.92 117.37 123.85C116.66 122.84 116.25 121.31 116.14 119.26C116.03 117.21 115.95 110.71 115.92 99.7702C115.92 90.4402 115.9 82.3902 115.86 75.6402V73.2902C115.86 70.5302 115.84 68.2302 115.8 66.4002C115.76 64.5702 115.68 62.4802 115.55 60.1302C115.42 57.7802 115.2 55.8702 114.91 54.3902C114.61 52.9202 114.2 51.4802 113.68 50.0802C113.16 48.6802 112.47 47.6502 111.61 47.0002C111.2 46.6902 110.76 46.4602 110.29 46.3002C109.17 42.9002 108.11 39.4402 107.13 35.9002C106.05 31.9902 105.51 28.3102 105.51 24.8702C105.51 21.4302 106.34 18.9202 107.99 17.3502C109.16 16.2502 110.61 15.7602 112.37 15.9002C114.12 16.0402 115.56 16.7102 116.69 17.9002C117.41 18.6602 117.86 19.5202 118.05 20.4702C118.07 20.5502 117.85 21.6302 117.37 23.7002C116.89 25.7702 116.86 27.0302 117.27 27.4602C117.48 27.6802 117.84 27.5402 118.35 27.0502C119.16 26.2802 120.04 24.9902 120.97 23.1802C121.9 21.3702 122.7 19.3302 123.37 17.0502C124.04 14.7702 124.23 12.3902 123.94 9.92017L123.92 9.91017Z" fill="black"/>
<path d="M173.8 46.0098C176.67 46.0098 179.32 46.5598 181.72 47.6598C184.12 48.7598 186.08 50.1698 187.57 51.8898C189.06 53.6098 190.22 55.4298 191.04 57.3498C191.86 59.2698 192.27 61.1298 192.27 62.9198C192.27 66.8798 190.82 70.8598 187.93 74.8699C185.04 78.8799 181.69 82.3098 177.88 85.1398C179.41 85.1398 181.18 85.1398 183.2 85.1698C185.22 85.1998 186.48 85.1998 187.01 85.1998C188.91 85.1998 190.33 85.1098 191.27 84.9198C192.21 84.7298 193.12 84.3599 194.01 83.7999C197.18 81.7099 199.44 80.6599 200.79 80.6599C201.24 80.6599 201.46 80.8098 201.46 81.1098C201.46 82.6398 198.03 85.5898 191.16 89.9598C187.39 92.3498 184.52 93.8998 182.57 94.6098C180.62 95.3198 178.03 95.6698 174.81 95.6698C173.88 95.6698 170.15 95.5498 163.64 95.3098C157.13 95.0698 150.6 94.9498 144.07 94.9498C140.08 94.9498 136.27 95.0399 132.65 95.2299C129.96 96.3899 127.95 96.9698 126.6 96.9698C125.89 96.9698 125.54 96.7799 125.54 96.4099C125.54 96.0399 125.83 95.5898 126.41 95.0698C126.99 94.5498 127.66 94.0198 128.43 93.4998C129.2 92.9798 129.67 92.5998 129.86 92.3798C130.79 91.2198 131.37 90.2498 131.6 89.4698C132.01 87.8998 132.25 82.7698 132.33 74.0698C132.52 52.1998 132.63 39.8798 132.67 37.1098C132.67 36.8098 132.7 35.7198 132.75 33.8298C132.8 31.9398 132.83 30.3098 132.83 28.9298C132.83 16.4198 131.11 10.1698 127.68 10.1698C127.53 10.1698 127.31 10.2198 127.01 10.3098C126.71 10.3998 126.43 10.4898 126.17 10.5598C125.91 10.6298 125.65 10.6998 125.39 10.7598C125.13 10.8198 124.92 10.8098 124.77 10.7298C124.62 10.6498 124.55 10.5098 124.55 10.2798C124.55 9.56984 125.34 8.39984 126.93 6.77984C128.52 5.15984 130.48 3.63984 132.81 2.21984C135.14 0.799844 137.15 0.0898438 138.83 0.0898438C139.58 0.0898438 140.26 0.239844 140.87 0.539844C141.48 0.839844 142.1 1.37984 142.72 2.15984C143.34 2.93984 143.89 4.13984 144.37 5.73984C144.85 7.33984 145.23 9.33984 145.49 11.7298C145.9 15.4598 146.14 31.5298 146.22 59.9398C147.83 58.3698 149.57 56.8498 151.46 55.3798C153.35 53.9098 155.5 52.4198 157.93 50.9298C160.36 49.4398 162.96 48.2398 165.74 47.3498C168.52 46.4598 171.22 46.0098 173.83 46.0098H173.8ZM179.23 71.4898C179.23 67.4998 177.55 63.8298 174.19 60.4898C170.83 57.1498 167.23 55.4798 163.38 55.4798C162 55.4798 160.69 55.6098 159.46 55.8698C158.23 56.1298 157.17 56.4198 156.3 56.7398C155.43 57.0598 154.51 57.5798 153.56 58.3098C152.61 59.0398 151.88 59.6098 151.38 60.0198C150.88 60.4298 150.21 61.1598 149.39 62.1998C148.57 63.2398 148.03 63.9498 147.77 64.3298C147.51 64.7098 146.99 65.4698 146.2 66.6298C146.27 77.0398 146.42 83.3698 146.65 85.6098C152.47 85.3098 161 85.1599 172.24 85.1599C173.58 83.8199 174.65 82.6898 175.43 81.7698C176.21 80.8498 177.04 79.4298 177.92 77.4898C178.8 75.5498 179.24 73.5498 179.24 71.4998L179.23 71.4898Z" fill="black"/>
<path d="M209.81 73.8898C209.81 70.5298 209.6 67.6198 209.19 65.1598C208.78 62.6998 208.24 60.8398 207.57 59.5898C206.9 58.3398 206.22 57.4298 205.53 56.8698C204.84 56.3098 204.14 56.0298 203.43 56.0298C203.17 56.0298 202.69 56.1398 202 56.3698C201.31 56.5998 200.85 56.7098 200.63 56.7098C200.29 56.7098 200.13 56.5398 200.13 56.2098C200.13 55.6898 200.62 54.8598 201.61 53.7198C202.6 52.5798 203.8 51.4398 205.22 50.2998C206.64 49.1598 208.22 48.1598 209.98 47.2998C211.74 46.4398 213.26 46.0098 214.57 46.0098C218.9 46.0098 221.59 50.5598 222.63 59.6698C224.68 57.5798 226.98 55.5798 229.52 53.6798C232.06 51.7798 235.18 50.0198 238.87 48.4198C242.57 46.8098 246.07 46.0098 249.4 46.0098C252.95 46.0098 256.11 46.9198 258.89 48.7498C261.67 50.5798 263.92 53.2498 265.64 56.7598C273.55 49.6298 280.89 46.0698 287.65 46.0698C290.34 46.0698 292.83 46.6498 295.13 47.8098C297.43 48.9698 299.28 50.4498 300.7 52.2598C302.12 54.0698 303.22 55.9998 304 58.0598C304.78 60.1198 305.18 62.0898 305.18 63.9998C305.18 67.6998 303.84 71.4698 301.15 75.3098C298.46 79.1498 295.29 82.4398 291.63 85.1598C293.09 85.1598 294.74 85.1598 296.59 85.1898C298.44 85.2198 299.62 85.2198 300.15 85.2198C301.9 85.2198 303.23 85.1298 304.13 84.9398C305.03 84.7498 305.92 84.3798 306.82 83.8198C309.99 81.7298 312.25 80.6798 313.6 80.6798C314.05 80.6798 314.27 80.8298 314.27 81.1298C314.27 82.6598 310.84 85.6098 303.97 89.9798C300.27 92.3298 297.42 93.8698 295.4 94.5998C293.38 95.3298 291.54 95.6898 289.86 95.6898C285.87 95.6898 277.88 95.4898 265.89 95.0998C253.91 94.7098 244.3 94.5098 237.05 94.5098C231.9 94.5098 227.29 94.5798 223.22 94.7298C223.22 97.8998 223.22 101.81 223.25 106.46C223.28 111.11 223.29 114.54 223.31 116.76C223.33 118.98 223.34 120.18 223.34 120.37C223.38 121.42 223.47 122.32 223.62 123.09C223.77 123.86 223.93 124.39 224.1 124.69C224.27 124.99 224.42 125.25 224.55 125.47C224.68 125.69 224.75 125.86 224.75 125.97C224.75 126.46 224.18 127.21 223.04 128.24C221.9 129.27 220.55 130.23 218.98 131.12C218.87 131.19 218.07 131.8 216.57 132.94C215.07 134.08 213.51 135.25 211.87 136.44C210.23 137.63 208.41 138.75 206.41 139.77C204.41 140.79 202.82 141.31 201.62 141.31C201.06 141.31 200.78 141.16 200.78 140.86C200.78 140.49 201.17 139.91 201.96 139.12C202.75 138.33 203.57 137.61 204.42 136.94L205.65 135.93C207.89 133.39 209.16 130.57 209.46 127.48C209.46 127.03 209.53 120.11 209.66 106.71C209.79 93.3098 209.86 82.3698 209.86 73.8998L209.81 73.8898ZM238.76 55.4698C234.99 55.4698 232.05 56.2898 229.94 57.9298C227.83 59.5698 225.53 62.3698 223.02 66.3298C223.02 67.3398 223.02 68.8098 223.05 70.7498C223.08 72.6898 223.09 75.1598 223.11 78.1698C223.13 81.1798 223.14 83.7798 223.14 85.9798C227.99 85.4198 236.13 85.0498 247.55 84.8598C251.77 80.7498 253.88 76.3498 253.88 71.6498C253.88 67.3198 252.26 63.5398 249.01 60.3098C245.76 57.0798 242.35 55.4698 238.76 55.4698ZM277.06 55.4698C276.39 55.4698 275.75 55.4998 275.16 55.5498C274.57 55.5998 274 55.7298 273.48 55.9098C272.96 56.0898 272.5 56.2498 272.11 56.3598C271.72 56.4698 271.32 56.6998 270.91 57.0298C270.5 57.3598 270.18 57.6098 269.96 57.7598C269.74 57.9098 269.44 58.1998 269.06 58.6298C268.68 59.0598 268.44 59.3398 268.33 59.4698C268.22 59.5998 267.97 59.9198 267.57 60.4198C267.17 60.9198 266.96 61.2098 266.93 61.2898C266.97 62.1898 266.99 62.8398 266.99 63.2498C266.99 66.9498 265.66 70.7298 263.01 74.6198C260.36 78.4998 257.21 81.8998 253.55 84.8098C260.75 84.8098 271.54 84.8998 285.91 85.0898C287.07 83.8998 288.02 82.8298 288.77 81.8998C289.52 80.9698 290.26 79.6098 291.01 77.8398C291.76 76.0698 292.13 74.2298 292.13 72.3198C292.13 68.3298 290.56 64.5198 287.43 60.8998C284.29 57.2798 280.84 55.4698 277.07 55.4698H277.06Z" fill="black"/>
<path d="M397.61 89.1198C397.61 91.8098 396.62 94.6698 394.64 97.7098C392.66 100.75 389.98 103.62 386.6 106.3C383.22 108.98 379.49 111.43 375.4 113.64C371.31 115.84 366.96 117.59 362.35 118.88C357.74 120.17 353.4 120.81 349.33 120.81C346.31 120.81 343.28 120.49 340.26 119.86C337.24 119.23 334.32 118.24 331.5 116.89C328.68 115.54 326.19 113.92 324.02 112.02C321.85 110.12 320.12 107.77 318.81 104.99C317.5 102.21 316.85 99.1898 316.85 95.9498C316.85 92.9298 317.24 89.9498 318.03 87.0198C318.82 84.0898 319.94 81.3598 321.42 78.8198C322.9 76.2798 324.46 73.8998 326.12 71.6798C327.78 69.4598 329.69 67.3098 331.86 65.2398C334.03 63.1698 335.98 61.3998 337.71 59.9498C339.44 58.4998 341.34 56.9998 343.39 55.4698C339.13 55.0998 335.18 54.9098 331.52 54.9098C328.53 54.9098 325.68 55.0198 322.95 55.2498C320.22 55.4798 318.04 55.6898 316.4 55.8898C314.76 56.0898 313.75 56.1998 313.38 56.1998C312.89 56.1998 312.65 56.1098 312.65 55.9198C312.65 54.8698 314.12 53.1598 317.07 50.7698C320.02 48.3798 322.82 46.9598 325.47 46.5098C330.66 45.6898 336.26 45.2798 342.27 45.2798C347.01 45.2798 354.02 45.6298 363.3 46.3198C372.58 47.0098 379.47 47.3598 383.99 47.3598C387.13 47.3598 389.98 47.2498 392.56 47.0198C395.14 46.7898 397.13 46.5698 398.55 46.3498C399.97 46.1298 400.83 46.0098 401.13 46.0098C401.62 46.0098 401.86 46.1598 401.86 46.4598C401.86 47.3598 400.71 48.7898 398.42 50.7698C396.13 52.7498 393.91 54.1898 391.78 55.0798C390.47 55.6398 387.99 56.1098 384.33 56.4798C380.67 56.8498 376.68 57.0398 372.35 57.0398C370.04 57.0398 367.75 56.9998 365.49 56.9298C363.23 56.8598 361.41 56.7698 360.03 56.6798C358.65 56.5898 356.79 56.4498 354.46 56.2598C352.13 56.0698 350.34 55.9398 349.11 55.8698C345.94 58.0398 343.15 60.3498 340.74 62.8098C338.33 65.2698 336.47 67.5898 335.14 69.7498C333.81 71.9098 332.74 74.1598 331.92 76.4998C331.1 78.8398 330.57 80.8298 330.32 82.4898C330.07 84.1498 329.96 85.8198 329.96 87.4998C329.96 91.1998 330.86 94.5698 332.65 97.6298C334.44 100.69 336.81 103.19 339.76 105.13C342.71 107.07 346.01 108.57 349.67 109.64C353.33 110.71 357.08 111.24 360.92 111.24C365.06 111.24 369.23 110.58 373.43 109.25C377.63 107.92 380.23 106.74 381.24 105.69C383.44 103.38 384.54 100.71 384.54 97.6798C384.54 95.3998 383.89 93.3898 382.58 91.6298C381.27 89.8698 379.44 88.7198 377.09 88.1598C376.53 88.0098 376.25 87.8198 376.25 87.5998C376.25 86.4398 377.93 84.6498 381.29 82.2198C384.65 79.7898 387.08 78.5798 388.57 78.5798C390.51 78.5798 392.5 79.5798 394.53 81.5798C396.56 83.5798 397.58 86.0898 397.58 89.1098L397.61 89.1198Z" fill="black"/>
<path d="M406.34 55.9698C406.34 55.2198 407.12 54.0598 408.69 52.4698C410.26 50.8798 412.17 49.4098 414.43 48.0498C416.69 46.6898 418.58 46.0098 420.11 46.0098C421.45 46.0098 422.63 46.4798 423.64 47.4098C424.65 48.3398 425.41 49.5298 425.94 50.9698C426.47 52.4098 426.83 53.5698 427.03 54.4698C427.23 55.3698 427.38 56.1698 427.45 56.8798C427.75 59.0098 427.91 63.7898 427.93 71.2098C427.95 78.6398 428.18 83.7898 428.63 86.6598C428.26 87.4798 427.44 88.3398 426.17 89.2398C424.9 90.1398 423.74 90.8398 422.7 91.3398C421.66 91.8398 420.22 92.4798 418.39 93.2398C416.56 93.9998 415.57 94.4298 415.42 94.4998C412.32 95.9198 410.03 96.6298 408.53 96.6298C407.82 96.6298 407.47 96.4398 407.47 96.0698C407.47 95.6598 407.79 95.1898 408.42 94.6698C409.05 94.1498 409.76 93.6298 410.55 93.1298C411.34 92.6298 412.1 91.8298 412.85 90.7498C413.6 89.6698 414.04 88.4198 414.19 86.9998C414.41 85.2798 414.53 79.4398 414.53 69.4698C414.53 67.0798 414.35 64.9798 414 63.1698C413.65 61.3598 413.18 59.9598 412.6 58.9698C412.02 57.9798 411.43 57.2398 410.84 56.7598C410.25 56.2798 409.65 56.0298 409.05 56.0298C408.94 56.0298 408.64 56.1098 408.15 56.2798C407.66 56.4498 407.24 56.5198 406.89 56.4998C406.54 56.4798 406.36 56.2998 406.36 55.9698H406.34Z" fill="black"/>
<path d="M546.3 58.0998C545.5 56.0098 544.37 54.0498 542.91 52.2198C541.45 50.3898 539.54 48.8998 537.17 47.7398C534.8 46.5798 532.2 45.9998 529.36 45.9998C522.12 45.9998 514.07 49.8098 505.23 57.4198C504.67 56.2998 504.02 55.2098 503.27 54.1398C502.52 53.0798 501.48 51.8598 500.13 50.4998C498.78 49.1398 497.11 48.0498 495.09 47.2198C493.07 46.3898 490.89 45.9898 488.54 45.9898C488.53 45.9898 488.51 45.9898 488.5 45.9898C489.53 44.5098 490.62 42.8998 491.77 41.1298C493.93 37.8198 496.2 34.5298 498.6 31.2598C501 27.9898 503.55 25.2798 506.25 23.1398C508.95 20.9998 511.43 20.0998 513.69 20.4298C515.28 20.6598 516.56 21.5098 517.54 22.9698C518.52 24.4298 518.89 25.9698 518.65 27.5998C518.5 28.6298 518.11 29.5198 517.47 30.2598C517.42 30.3298 516.44 30.8198 514.51 31.7298C512.59 32.6398 511.58 33.3898 511.5 33.9798C511.46 34.2798 511.79 34.4698 512.49 34.5798C513.6 34.7398 515.15 34.6298 517.15 34.2398C519.15 33.8498 521.25 33.2098 523.45 32.3198C525.65 31.4298 527.64 30.1098 529.4 28.3398C531.16 26.5698 532.21 24.5698 532.53 22.3198C532.97 19.2898 532.31 16.4798 530.55 13.8898C528.79 11.2998 526.36 9.77984 523.26 9.32984C521.45 9.06984 519.55 9.24984 517.55 9.85984C515.56 10.4798 513.59 11.4698 511.66 12.8298C509.73 14.1898 507.83 15.7298 505.96 17.4398C504.09 19.1498 502.23 21.1098 500.39 23.3098C498.54 25.5098 496.86 27.6098 495.35 29.5998C493.84 31.5898 492.33 33.6998 490.84 35.9298C487.91 40.2898 485.68 43.7798 484.15 46.4198C482 46.7998 479.8 47.4598 477.54 48.3998C473.73 49.9898 470.52 51.7398 467.91 53.6598C465.3 55.5798 462.89 57.6398 460.69 59.8498C460.47 56.1898 459.59 52.9698 458.06 50.1898C456.53 47.4098 454.5 46.0198 451.96 46.0198C450.32 46.0198 448.35 46.7098 446.05 48.0898C443.75 49.4698 441.82 50.9598 440.25 52.5698C438.68 54.1798 437.9 55.3298 437.9 56.0398C437.9 56.4098 438.08 56.5998 438.43 56.5998C438.78 56.5998 439.24 56.5098 439.8 56.3198C440.36 56.1298 440.73 56.0398 440.92 56.0398C441.52 56.0398 442.17 56.2798 442.88 56.7698C443.59 57.2598 444.31 57.9798 445.04 58.9498C445.77 59.9198 446.37 61.3498 446.83 63.2298C447.3 65.1198 447.53 67.2898 447.53 69.7498C447.53 70.4998 447.47 73.4598 447.36 78.6498C447.25 83.8398 447.17 86.6198 447.14 86.9898C446.99 88.4098 446.54 89.6598 445.8 90.7398C445.05 91.8198 444.29 92.6198 443.5 93.1198C442.72 93.6198 442.01 94.1398 441.37 94.6598C440.73 95.1798 440.42 95.6498 440.42 96.0598C440.42 96.4298 440.77 96.6198 441.48 96.6198C443.01 96.6198 445.32 95.9098 448.42 94.4898C448.57 94.4198 449.56 93.9998 451.39 93.2298C453.22 92.4598 454.66 91.8298 455.7 91.3298C456.75 90.8298 457.9 90.1298 459.17 89.2298C460.44 88.3298 461.26 87.4798 461.63 86.6498C461.18 83.9298 460.92 77.1698 460.85 66.3798C462.08 64.5098 463.19 62.9998 464.18 61.8398C465.17 60.6798 466.33 59.5798 467.65 58.5398C468.98 57.4898 470.44 56.7298 472.05 56.2398C473.66 55.7498 475.48 55.5098 477.54 55.5098C481.38 55.5098 484.96 57.1698 488.26 60.4898C491.56 63.8098 493.22 67.5298 493.22 71.6298C493.22 74.0898 492.85 76.5398 492.1 78.9698C491.35 81.3998 490.48 83.4298 489.47 85.0698C489.21 85.4798 489.04 85.7198 488.97 85.7998C488.9 85.8698 488.76 85.9098 488.58 85.9098C486.97 85.9098 485.52 85.3798 484.21 84.3098C482.9 83.2498 482.04 82.0798 481.63 80.8098C481.56 80.5098 481.47 80.3198 481.38 80.2498C481.29 80.1798 481.11 80.1398 480.85 80.1398C479.8 80.1398 478.27 80.7298 476.26 81.8998C474.25 83.0698 472.44 84.3898 470.86 85.8498C469.27 87.3098 468.48 88.3898 468.48 89.0998C468.48 90.1098 469.25 91.4098 470.8 92.9898C472.35 94.5698 474.36 95.3698 476.82 95.3698C478.54 95.3698 480.61 94.9098 483.04 93.9998C485.47 93.0898 488.03 91.6798 490.74 89.7698C493.45 87.8698 495.96 85.6498 498.27 83.1298C500.58 80.6098 502.5 77.5598 504.01 73.9798C505.52 70.3998 506.28 66.6398 506.28 62.7298V61.6098C506.28 61.6098 506.5 61.3598 506.84 60.9698C507.18 60.5798 507.41 60.3298 507.54 60.2098C507.67 60.0998 507.93 59.8498 508.32 59.4498C508.71 59.0498 509.03 58.7798 509.27 58.6098C509.51 58.4398 509.87 58.1798 510.33 57.8298C510.79 57.4798 511.22 57.2098 511.59 57.0498C511.96 56.8798 512.44 56.6798 513.02 56.4298C513.6 56.1898 514.16 56.0098 514.7 55.8998C515.24 55.7898 515.86 55.6898 516.55 55.5898C517.24 55.4898 517.94 55.4498 518.65 55.4498C522.46 55.4498 526.03 57.1898 529.37 60.6598C532.71 64.1298 534.38 68.3298 534.38 73.2598C534.38 77.1798 533.22 81.0598 530.91 84.9098C530.84 85.0198 530.75 85.1698 530.66 85.3598C530.57 85.5498 530.5 85.6498 530.46 85.6698C530.42 85.6898 530.37 85.7398 530.29 85.8098C530.22 85.8798 530.12 85.9198 530.01 85.9198H529.56C527.77 85.9198 526.11 85.1498 524.58 83.6198C524.06 83.0998 523.66 82.5798 523.38 82.0798C523.1 81.5798 522.93 81.1998 522.88 80.9598C522.83 80.7198 522.74 80.5198 522.63 80.3698C522.52 80.2198 522.31 80.1498 522.01 80.1498C520.96 80.1498 519.43 80.7398 517.42 81.9098C515.4 83.0898 513.6 84.3998 512.02 85.8598C510.43 87.3198 509.64 88.3998 509.64 89.1098C509.64 90.0798 510.42 91.3798 511.99 92.9998C513.56 94.6198 515.55 95.4398 517.98 95.4398C519.55 95.4398 521.36 95.0798 523.41 94.3498C525.46 93.6198 527.58 92.6098 529.77 91.3298C531.96 90.0498 534.1 88.4398 536.21 86.5098C538.32 84.5798 540.21 82.5098 541.89 80.2698C543.57 78.0298 544.92 75.5098 545.95 72.7098C546.98 69.9098 547.49 67.0698 547.49 64.1998C547.49 62.2198 547.09 60.1898 546.29 58.0998H546.3Z" fill="black"/>
</svg>
