<svg width="106" height="35" viewBox="0 0 106 35" fill="none" xmlns="http://www.w3.org/2000/svg">
<path fill-rule="evenodd" clip-rule="evenodd" d="M13.5935 0C13.7571 0 14.0679 0 14.0843 0C13.6933 2.345 10.2475 6.90375 7.68827 7.11557C7.68827 7.20917 7.68827 7.15403 7.68827 7.09906C9.21317 4.17012 10.9268 1.69767 13.5935 0ZM48.2562 0.676887C49.2913 0.824151 49.4964 0.966958 50.0556 1.17217C51.1026 5.01903 50.7239 10.8092 50.7099 15.3703C53.3676 13.6404 60.294 8.94333 62.6512 14.5448C64.6222 19.5013 57.6054 25.5876 53.8179 23.1132C53.7088 22.728 53.5998 22.3427 53.3435 21.9575C54.3085 21.4073 55.1265 20.8569 55.7972 20.158C56.7771 21.0239 57.0344 21.4996 58.2346 21.9575C61.2456 19.74 60.1704 13.244 55.3065 13.7193C53.0759 14.1824 51.9465 15.6995 50.7099 17.0212C50.7643 18.8756 50.819 20.582 50.7262 22.1392C49.4035 23.0746 47.9738 24.0754 45.8188 24.2689C45.8188 24.2139 45.8188 24.1588 45.8188 24.1038C45.9824 23.8837 46.2932 23.6635 46.3096 23.2948C47.9773 22.7203 48.8879 4.96934 47.4383 3.1533C47.0431 2.84738 46.5078 3.06927 45.8188 3.13679C46.3452 1.87052 47.3506 1.53835 48.2562 0.676887ZM37.2963 1.66745C37.3127 1.66745 37.6235 1.66745 37.6398 1.66745C37.6779 2.03611 37.569 2.25634 37.4599 2.32783C36.5643 4.62281 33.8596 8.69601 31.0966 9.08019C31.0966 9.02521 31.0966 8.97007 31.0966 8.76651C32.7646 5.98434 34.3882 3.42026 37.2963 1.66745ZM99.9475 2.49292C102.037 2.98458 103.157 4.1016 102.565 6.45519C101.653 7.87566 100.354 8.60422 98.1481 8.43632C98.1481 8.52993 98.1481 8.47479 98.1481 8.27123C98.2573 8.25472 98.3662 7.94104 98.4753 7.77594C99.216 7.70892 99.3312 7.5392 99.7839 7.09906C99.7839 6.76887 99.7839 6.29009 99.7839 5.95991C99.5114 5.7783 99.2386 5.29953 98.8188 5.11792C95.4816 5.20064 93.0364 9.47493 91.7685 11.7382C93.758 12.0776 95.7142 14.6992 95.7108 14.5448C97.2563 12.8506 101.343 10.6809 103.89 12.5637C108.79 16.2951 103.368 23.8835 98.6389 23.9387C97.7603 23.502 97.4428 23.167 96.8559 22.1392C97.7865 21.4631 98.4465 20.76 99.7839 20.4717C101.442 24.1807 103.884 19.1372 102.581 16.5094C101.657 14.0733 97.3634 12.6522 96.0216 15.7005C94.6403 19.6723 93.6366 24.7917 88.3333 23.625C87.9517 23.3334 87.5699 22.893 87.1883 22.4528C87.7291 21.4979 88.5111 20.9843 89.3312 20.4717C89.4947 20.4717 89.8056 20.4717 89.9691 20.4717C90.1491 20.9118 90.6235 21.3523 90.9506 21.6439C91.6889 21.757 91.8325 21.6756 92.2593 21.3137C93.3662 18.3273 92.9268 12.3907 88.0062 13.8844C84.4526 15.2191 85.8521 18.373 84.9145 21.9575C84.2993 23.1046 81.9591 24.0726 80.3179 24.2689C80.7277 23.2286 81.8047 23.1452 82.1173 22.1226C83.0122 19.1942 82.0455 15.526 80.9722 13.8844C80.5906 13.8844 80.2088 13.8844 79.8272 13.8844C79.8272 13.978 79.8272 13.9229 79.8272 13.7193C80.5363 13.0504 81.8781 11.4183 83.4259 11.9033C84.7126 12.6956 84.4959 13.822 84.9145 15.0401C85.4434 14.8035 85.8252 14.4182 86.2068 13.8844C92.3196 11.3242 94.0848 5.66835 99.9475 2.49292ZM56.2716 5.11792C56.288 5.11792 56.5988 5.11792 56.6151 5.11792C57.362 5.62972 57.962 6.43868 58.4145 7.09906C57.9074 7.61085 57.1059 8.41981 56.4515 9.08019C55.9444 8.47495 55.1429 7.86939 54.4886 7.11557C54.4886 7.09906 54.4886 6.78538 54.4886 6.62028C55.181 6.21861 55.7264 5.66818 56.2716 5.11792ZM14.0843 9.75708C14.7386 9.96064 15.5401 10.0158 16.0472 9.92217C22.6207 15.1243 10.6555 23.6755 8.52253 26.25C7.11378 28.2675 4.8652 32.4293 9.34043 32.7052C10.4816 32.3152 12.0115 30.6083 12.7593 31.0377C11.2025 33.9436 6.60439 36.3209 3.61512 33.184C3.71573 30.2671 5.26908 28.3847 6.55957 26.7618C5.71337 23.5822 3.16315 12.409 0 12.5637C0 12.4922 0 12.272 0 11.9033C0.806451 11.1587 1.27282 10.2925 2.63364 9.92217C4.12353 10.763 4.59431 11.8288 5.23457 13.059C5.41451 12.9323 5.88889 12.6571 6.06883 12.2335C6.64136 11.4227 7.49476 10.6185 8.34259 9.92217C8.96011 10.7841 9.30575 12.2792 9.34043 13.3726C9.50401 13.2625 9.81481 13.1526 9.83117 13.0425C10.7834 11.335 12.6011 10.8038 14.0843 9.75708ZM74.2818 11.5731C77.9581 11.653 79.4938 14.2404 77.8806 17.3349C75.818 21.9993 69.9325 24.3461 69.5216 30.5425C69.8651 31.0927 70.5031 31.6431 70.9938 32.1934C73.3684 32.179 73.4312 31.0044 75.0833 30.3774C74.608 32.5744 69.3953 36.2309 67.2315 33.3491C65.2765 30.7454 69.2286 26.43 70.3395 24.7807C69.2258 21.8568 67.8753 16.0959 65.2685 14.5283C64.6572 14.1608 64.2461 14.509 63.7963 14.1981C64.472 13.2842 65.5545 11.3593 67.2315 11.9033C68.51 12.666 68.8624 13.9653 69.6852 15.0236C71.2632 13.8323 72.6143 12.8539 74.2818 11.5731ZM12.4485 11.7382C11.3557 12.689 10.1089 13.4336 9.83117 15.3538C10.4855 17.3897 11.287 19.4263 11.7941 21.3137C12.3775 21.0771 12.8139 20.6918 13.1028 20.158C14.1132 18.3867 16.7943 13.6592 13.4136 11.9033C13.1411 11.9969 12.8682 11.9418 12.4485 11.7382ZM24.3898 23.625C24.4135 26.3761 24.9412 31.1434 23.8991 32.5236C22.2811 33.1949 21.6798 34.6792 19.3188 35C19.7386 34.6148 20.0113 34.2295 20.2839 33.8443C22.6177 32.4787 21.8622 16.1385 20.4475 13.8844C20.0659 14.088 19.6841 14.1431 19.1552 14.1981C19.6619 12.8922 21.0224 11.9839 22.4269 11.7382C24.0065 12.6594 23.7399 13.6056 24.2262 15.0401C24.717 14.6934 25.3549 14.0495 25.6985 13.7028C28.9076 12.3321 32.5642 10.5797 34.3682 14.5283C34.5318 14.3632 34.8426 14.0495 34.8589 13.8844C36.3147 13.3177 37.6236 12.6021 38.7849 11.7382C42.2726 11.1439 45.0768 14.7446 43.8395 17.8467C43.2388 19.5736 41.8648 20.5703 40.7478 21.6439C43.5774 21.8372 44.3937 20.9794 46.2932 20.4882C46.2932 20.6918 46.2932 20.7469 46.2932 20.8019C45.966 21.1871 45.4917 21.5724 45.1645 21.9575C44.1122 22.4693 42.9125 23.2783 41.713 23.9387C35.9883 23.8837 30.2617 23.8286 24.3898 23.625ZM6.23241 13.3726C5.80268 14.2318 7.9572 22.7266 8.99691 24.434C9.21497 24.2689 9.43318 23.9552 9.65123 23.9387C9.65123 23.8837 9.65123 23.8286 9.65123 23.625C8.56081 20.3069 7.47005 16.8393 6.23241 13.3726ZM72.7932 13.7028C71.6712 14.4494 71.0539 15.0663 70.1759 15.8656C70.9392 18.1602 71.7028 20.3068 72.3188 22.4528C72.646 22.1778 73.1204 21.9024 73.4475 21.6274C74.2746 19.9916 77.5997 15.9958 74.2818 14.1981C73.9877 13.7954 73.6711 13.7226 72.7932 13.7028ZM27.6614 13.7193C26.0899 14.7561 22.1412 18.57 24.7006 21.9575C26.7179 21.7375 28.7358 21.5172 30.6059 21.2972C32.5647 18.3205 32.4566 13.9493 27.6614 13.7193ZM37.2963 13.7193C34.2339 15.6471 35.8956 15.7926 34.3519 18.5071C33.4795 19.6461 32.6069 20.637 31.7346 21.6274C34.6674 21.695 38.7088 22.0302 40.2571 20.8019C41.7259 17.7348 41.0567 14.1745 37.2963 13.7193Z" fill="black"/>
</svg>
