<svg width="503" height="166" viewBox="0 0 503 166" fill="none" xmlns="http://www.w3.org/2000/svg">
<path d="M58.42 52.69C60.47 52.69 62.33 53.04 63.99 53.74C65.65 54.44 67.01 55.34 68.05 56.43C69.09 57.52 69.97 58.8 70.67 60.26C71.37 61.73 71.87 63.17 72.18 64.59C72.49 66.01 72.64 67.42 72.64 68.82C72.64 71.75 71.97 74.84 70.64 78.09C69.31 81.35 67.45 84.6 65.07 87.86C62.69 91.12 60.37 94.04 58.12 96.64C55.87 99.24 53.27 102.13 50.32 105.32C47.37 108.51 45.24 110.91 43.93 112.53C39.95 117.42 36.44 122.48 33.38 127.71C30.32 132.93 28.79 137.42 28.79 141.18C28.79 143.76 30.05 146.15 32.56 148.36C35.07 150.57 37.49 151.67 39.8 151.67C40.94 151.67 41.97 151.48 42.91 151.11C43.85 150.74 44.55 150.37 45.01 150C45.47 149.63 46.22 148.95 47.27 147.97C48.32 146.99 49.13 146.23 49.7 145.71C52.19 143.52 54.03 142.43 55.21 142.43C55.65 142.43 55.87 142.65 55.87 143.09C55.87 143.79 55.33 144.9 54.26 146.43C53.19 147.96 51.67 149.65 49.7 151.51C47.73 153.37 45.57 155.15 43.21 156.85C40.85 158.55 38.19 159.97 35.25 161.11C32.3 162.25 29.47 162.81 26.76 162.81C23.53 162.81 20.51 161.57 17.71 159.11C14.91 156.65 13.51 153.97 13.51 151.08C13.51 148.5 14.27 145.4 15.8 141.77C17.33 138.14 19.17 134.69 21.34 131.41C23.5 128.13 25.45 125.34 27.17 123.02C28.89 120.7 30.26 119 31.27 117.91C26.24 101.92 20.43 88.17 13.83 76.68C10.25 70.47 6.86 67.37 3.67 67.37C3.23 67.37 2.66 67.49 1.97 67.73C1.27 67.97 0.81 68.09 0.59 68.09C0.2 68.09 0 67.85 0 67.37C0 66.76 0.49 65.72 1.47 64.26C2.46 62.8 3.67 61.28 5.11 59.7C6.55 58.12 8.26 56.74 10.22 55.54C12.19 54.34 14 53.74 15.66 53.74C16.62 53.74 17.59 53.97 18.58 54.43C19.56 54.89 20.48 55.54 21.33 56.4C22.18 57.26 22.98 58.13 23.72 59.02C24.46 59.91 25.17 60.93 25.85 62.07C26.53 63.21 27.07 64.16 27.49 64.92C27.9 65.68 28.32 66.5 28.73 67.38C29.14 68.26 29.38 68.73 29.42 68.82C39.52 58.07 49.17 52.69 58.39 52.69H58.42ZM57.37 78.91C57.37 75.11 56.3 71.65 54.16 68.52C52.02 65.4 49.27 63.83 45.9 63.83C43.1 63.83 40.74 64.48 38.82 65.76C36.9 67.05 34.45 69.49 31.48 73.07C36.64 84.3 40.66 94.72 43.54 104.34C48 99.27 51.42 94.75 53.8 90.77C56.18 86.79 57.37 82.84 57.37 78.9V78.91Z" fill="black"/>
<path d="M89.1598 86.39C89.1598 82.46 88.9198 79.05 88.4398 76.16C87.9598 73.27 87.3298 71.1 86.5398 69.64C85.7498 68.18 84.9498 67.12 84.1498 66.46C83.3498 65.8 82.5198 65.48 81.6898 65.48C81.3798 65.48 80.8298 65.61 80.0198 65.87C79.2098 66.13 78.6798 66.26 78.4098 66.26C78.0198 66.26 77.8198 66.06 77.8198 65.67C77.8198 65.06 78.3998 64.09 79.5598 62.75C80.7198 61.42 82.1298 60.09 83.7898 58.75C85.4498 57.41 87.3098 56.25 89.3598 55.24C91.4098 54.23 93.2098 53.73 94.7398 53.73C99.8098 53.73 102.96 59.06 104.18 69.72C106.58 67.27 109.27 64.93 112.24 62.71C115.21 60.49 118.86 58.43 123.19 56.55C127.52 54.67 131.62 53.73 135.51 53.73C139.66 53.73 143.36 54.8 146.62 56.94C149.87 59.08 152.51 62.21 154.52 66.31C163.78 57.96 172.37 53.79 180.28 53.79C183.43 53.79 186.34 54.47 189.03 55.82C191.72 57.17 193.89 58.91 195.55 61.03C197.21 63.15 198.5 65.41 199.42 67.82C200.34 70.23 200.8 72.54 200.8 74.77C200.8 79.1 199.23 83.51 196.08 88.01C192.93 92.51 189.22 96.36 184.94 99.55C186.64 99.55 188.58 99.56 190.74 99.58C192.91 99.6 194.29 99.61 194.9 99.61C196.95 99.61 198.51 99.5 199.55 99.28C200.59 99.06 201.65 98.62 202.7 97.97C206.41 95.52 209.06 94.3 210.63 94.3C211.15 94.3 211.42 94.47 211.42 94.82C211.42 96.61 207.4 100.06 199.36 105.18C195.03 107.93 191.69 109.74 189.33 110.59C186.97 111.44 184.81 111.87 182.84 111.87C178.16 111.87 168.81 111.64 154.78 111.18C140.75 110.72 129.5 110.49 121.02 110.49C114.99 110.49 109.59 110.58 104.83 110.75C104.83 114.46 104.83 119.04 104.86 124.48C104.88 129.92 104.9 133.94 104.93 136.54C104.95 139.14 104.96 140.55 104.96 140.77C105 141.99 105.11 143.05 105.29 143.95C105.46 144.84 105.65 145.47 105.85 145.82C106.04 146.17 106.22 146.48 106.37 146.74C106.52 147 106.6 147.2 106.6 147.33C106.6 147.9 105.93 148.78 104.6 149.99C103.27 151.19 101.68 152.32 99.8498 153.36C99.7198 153.45 98.7798 154.16 97.0298 155.49C95.2798 156.82 93.4498 158.19 91.5198 159.59C89.5898 160.99 87.4698 162.29 85.1298 163.49C82.7898 164.69 80.9198 165.29 79.5198 165.29C78.8598 165.29 78.5398 165.12 78.5398 164.77C78.5398 164.33 78.9998 163.66 79.9198 162.74C80.8398 161.82 81.7998 160.97 82.7998 160.18L84.2398 159C86.8598 156.03 88.3498 152.73 88.6998 149.1C88.6998 148.58 88.7798 140.47 88.9298 124.78C89.0798 109.09 89.1598 96.29 89.1598 86.37V86.39ZM123.05 64.82C118.64 64.82 115.19 65.78 112.72 67.7C110.25 69.62 107.55 72.9 104.63 77.53C104.63 78.71 104.63 80.44 104.66 82.71C104.68 84.98 104.7 87.88 104.72 91.4C104.74 94.92 104.75 97.97 104.75 100.54C110.43 99.88 119.96 99.45 133.33 99.23C138.27 94.42 140.74 89.27 140.74 83.76C140.74 78.69 138.84 74.27 135.04 70.48C131.24 66.7 127.24 64.81 123.04 64.81L123.05 64.82ZM167.89 64.82C167.1 64.82 166.36 64.85 165.66 64.92C164.96 64.98 164.31 65.13 163.69 65.35C163.07 65.57 162.54 65.74 162.08 65.87C161.62 66 161.15 66.26 160.67 66.66C160.19 67.06 159.82 67.34 159.56 67.51C159.3 67.68 158.95 68.02 158.51 68.53C158.07 69.03 157.79 69.36 157.66 69.52C157.53 69.68 157.23 70.04 156.77 70.63C156.31 71.22 156.06 71.56 156.02 71.65C156.06 72.7 156.09 73.46 156.09 73.94C156.09 78.27 154.54 82.7 151.44 87.25C148.34 91.79 144.64 95.77 140.36 99.18C148.79 99.18 161.42 99.29 178.25 99.51C179.6 98.11 180.72 96.87 181.59 95.77C182.46 94.67 183.34 93.09 184.21 91.02C185.08 88.95 185.52 86.79 185.52 84.56C185.52 79.88 183.68 75.43 180.01 71.19C176.34 66.95 172.3 64.83 167.88 64.83L167.89 64.82Z" fill="black"/>
<path d="M234.3 101.79C234.3 103.19 230.94 105.45 224.24 108.58C217.53 111.7 212.93 113.27 210.44 113.27C209.74 113.27 209.39 113.1 209.39 112.75C209.39 112.31 209.73 111.79 210.41 111.18C211.09 110.57 211.87 109.96 212.77 109.34C213.66 108.73 214.22 108.29 214.44 108.03C215.53 106.68 216.21 105.54 216.47 104.62C216.95 102.78 217.23 96.78 217.32 86.59C217.54 60.98 217.67 46.56 217.71 43.33C217.71 42.98 217.74 41.7 217.81 39.5C217.88 37.29 217.91 35.38 217.91 33.76C217.91 19.12 215.9 11.8 211.88 11.8C211.71 11.8 211.44 11.86 211.09 11.96C210.74 12.06 210.41 12.17 210.11 12.25C209.81 12.33 209.5 12.41 209.19 12.48C208.88 12.54 208.64 12.53 208.47 12.45C208.3 12.37 208.21 12.19 208.21 11.93C208.21 11.1 209.14 9.73 211 7.83C212.86 5.93 215.15 4.15 217.89 2.49C220.62 0.83 222.97 0 224.94 0C225.81 0 226.61 0.17 227.33 0.52C228.05 0.87 228.77 1.5 229.49 2.42C230.21 3.34 230.86 4.74 231.42 6.62C231.98 8.5 232.43 10.84 232.73 13.63C233.21 17.74 233.49 36.99 233.58 71.38C237.16 67.93 240.8 64.97 244.5 62.5C248.19 60.03 251.6 58.2 254.73 56.99C257.85 55.79 260.62 54.94 263.02 54.44C265.42 53.94 267.65 53.69 269.71 53.69C276.05 53.69 281.49 55.74 286.03 59.85C290.57 63.96 292.85 68.66 292.85 73.94C292.85 77.92 291.97 81.87 290.19 85.81C288.42 89.74 286.15 93.22 283.37 96.23C280.59 99.24 277.56 101.95 274.26 104.32C270.96 106.7 267.69 108.52 264.46 109.76C261.23 111 258.39 111.63 255.94 111.63C252.97 111.63 250.46 110.59 248.4 108.52C246.35 106.45 245.32 104.73 245.32 103.38C245.32 102.11 247.27 100.06 251.19 97.22C255.1 94.38 257.95 92.96 259.74 92.96C260.05 92.96 260.29 93.08 260.46 93.32C260.63 93.56 260.77 93.86 260.85 94.21C260.93 94.56 261.2 95.07 261.64 95.75C262.08 96.43 262.65 97.09 263.34 97.75C265.31 99.59 267.51 100.5 269.96 100.5C271.14 100.5 271.88 100.28 272.19 99.84C273.68 97.83 274.94 95.35 275.99 92.4C277.04 89.45 277.56 86.56 277.56 83.72C277.56 79 275.44 74.69 271.2 70.77C266.96 66.86 262.2 64.9 256.91 64.9C254.03 64.9 251.38 65.26 248.98 65.98C246.58 66.7 244.41 67.78 242.49 69.22C240.57 70.66 238.99 72.01 237.77 73.25C236.55 74.5 235.15 76.1 233.57 78.07C233.66 92.36 233.9 100.25 234.29 101.73V101.8L234.3 101.79Z" fill="black"/>
<path d="M354.98 52.69C357.03 52.69 358.89 53.04 360.55 53.74C362.21 54.44 363.57 55.34 364.61 56.43C365.65 57.52 366.53 58.8 367.23 60.26C367.93 61.73 368.43 63.17 368.74 64.59C369.04 66.01 369.2 67.42 369.2 68.82C369.2 71.75 368.53 74.84 367.2 78.09C365.87 81.35 364.01 84.6 361.63 87.86C359.25 91.12 356.93 94.04 354.68 96.64C352.43 99.24 349.83 102.13 346.88 105.32C343.93 108.51 341.8 110.91 340.49 112.53C336.51 117.42 332.99 122.48 329.94 127.71C326.88 132.93 325.35 137.42 325.35 141.18C325.35 143.76 326.6 146.15 329.12 148.36C331.63 150.57 334.05 151.67 336.36 151.67C337.5 151.67 338.54 151.48 339.47 151.11C340.41 150.74 341.11 150.37 341.57 150C342.03 149.63 342.79 148.95 343.83 147.97C344.88 146.99 345.69 146.23 346.25 145.71C348.74 143.52 350.58 142.43 351.76 142.43C352.2 142.43 352.42 142.65 352.42 143.09C352.42 143.79 351.88 144.9 350.81 146.43C349.74 147.96 348.22 149.65 346.25 151.51C344.28 153.37 342.12 155.15 339.76 156.85C337.4 158.55 334.75 159.97 331.8 161.11C328.85 162.25 326.02 162.81 323.31 162.81C320.08 162.81 317.06 161.57 314.26 159.11C311.46 156.65 310.06 153.97 310.06 151.08C310.06 148.5 310.82 145.4 312.35 141.77C313.88 138.14 315.72 134.69 317.89 131.41C320.05 128.13 322 125.34 323.72 123.02C325.44 120.7 326.81 119 327.82 117.91C322.79 101.92 316.98 88.17 310.38 76.68C306.8 70.47 303.41 67.37 300.22 67.37C299.78 67.37 299.21 67.49 298.52 67.73C297.82 67.97 297.36 68.09 297.14 68.09C296.75 68.09 296.55 67.85 296.55 67.37C296.55 66.76 297.04 65.72 298.02 64.26C299.01 62.8 300.22 61.28 301.66 59.7C303.1 58.12 304.81 56.74 306.77 55.54C308.74 54.34 310.55 53.74 312.21 53.74C313.17 53.74 314.14 53.97 315.13 54.43C316.11 54.89 317.03 55.54 317.88 56.4C318.73 57.26 319.53 58.13 320.27 59.02C321.01 59.91 321.72 60.93 322.4 62.07C323.08 63.21 323.62 64.16 324.04 64.92C324.45 65.68 324.87 66.5 325.28 67.38C325.69 68.26 325.92 68.73 325.97 68.82C336.06 58.07 345.72 52.69 354.94 52.69H354.98ZM353.93 78.91C353.93 75.11 352.86 71.65 350.72 68.52C348.58 65.4 345.83 63.83 342.46 63.83C339.66 63.83 337.3 64.48 335.38 65.76C333.46 67.05 331.01 69.49 328.04 73.07C333.2 84.3 337.22 94.72 340.1 104.34C344.56 99.27 347.98 94.75 350.36 90.77C352.74 86.79 353.93 82.84 353.93 78.9V78.91Z" fill="black"/>
<path d="M420.86 64.89C418.46 64.89 416.32 65.17 414.44 65.74C412.56 66.31 410.84 67.2 409.29 68.43C407.74 69.65 406.39 70.94 405.23 72.3C404.07 73.65 402.77 75.42 401.33 77.61C401.41 90.24 401.72 98.15 402.24 101.34C401.8 102.3 400.84 103.31 399.36 104.36C397.88 105.41 396.52 106.23 395.3 106.82C394.07 107.41 392.39 108.15 390.25 109.05C388.11 109.95 386.95 110.44 386.77 110.53C383.14 112.19 380.43 113.02 378.64 113.02C377.81 113.02 377.4 112.8 377.4 112.36C377.4 111.88 377.77 111.33 378.52 110.72C379.26 110.11 380.09 109.51 381.01 108.92C381.93 108.33 382.83 107.4 383.7 106.13C384.57 104.86 385.1 103.4 385.27 101.74C385.31 101.3 385.4 98.05 385.53 91.97C385.66 85.9 385.72 82.42 385.72 81.55C385.72 78.67 385.45 76.12 384.9 73.91C384.36 71.71 383.66 70.03 382.8 68.9C381.95 67.76 381.11 66.91 380.28 66.34C379.45 65.77 378.68 65.49 377.99 65.49C377.77 65.49 377.33 65.6 376.68 65.82C376.02 66.04 375.49 66.15 375.07 66.15C374.65 66.15 374.45 65.93 374.45 65.49C374.45 64.66 375.37 63.3 377.21 61.43C379.05 59.55 381.31 57.8 383.99 56.19C386.68 54.57 388.98 53.76 390.91 53.76C393.88 53.76 396.26 55.39 398.05 58.64C399.84 61.9 400.87 65.66 401.13 69.95C403.71 67.37 406.53 64.96 409.58 62.71C412.63 60.46 416.4 58.41 420.86 56.55C425.32 54.69 429.6 53.76 433.71 53.76C436.47 53.76 439.02 54.24 441.38 55.2C443.74 56.16 445.71 57.44 447.28 59.04C448.85 60.64 450.08 62.06 450.95 63.3C451.82 64.55 452.59 65.82 453.25 67.14C463.6 58.22 473.02 53.77 481.5 53.77C484.82 53.77 487.87 54.45 490.65 55.8C493.42 57.15 495.66 58.9 497.37 61.04C499.07 63.18 500.4 65.48 501.33 67.92C502.27 70.37 502.74 72.75 502.74 75.07C502.74 78.44 502.14 81.76 500.94 85.03C499.74 88.31 498.15 91.26 496.19 93.88C494.23 96.5 492.01 98.94 489.54 101.19C487.07 103.44 484.56 105.32 482 106.83C479.44 108.34 476.96 109.52 474.56 110.37C472.16 111.22 470.04 111.65 468.2 111.65C465.36 111.65 463.02 110.7 461.18 108.8C459.34 106.9 458.43 105.38 458.43 104.25C458.43 103.42 459.36 102.15 461.22 100.45C463.08 98.75 465.18 97.21 467.54 95.83C469.9 94.46 471.69 93.77 472.92 93.77C473.27 93.77 473.51 93.86 473.64 94.03C473.77 94.2 473.87 94.44 473.93 94.72C474 95 474.19 95.44 474.52 96.03C474.85 96.62 475.31 97.22 475.93 97.83C477.72 99.62 479.67 100.52 481.77 100.52H482.29C482.42 100.52 482.53 100.48 482.62 100.39C482.7 100.3 482.77 100.25 482.81 100.23C482.85 100.21 482.93 100.09 483.04 99.87C483.15 99.65 483.25 99.48 483.33 99.35C486.04 94.85 487.39 90.3 487.39 85.72C487.39 79.95 485.44 75.03 481.52 70.97C477.61 66.91 473.43 64.87 468.97 64.87C468.14 64.87 467.32 64.93 466.51 65.03C465.7 65.14 464.98 65.26 464.34 65.39C463.71 65.52 463.05 65.73 462.37 66.01C461.69 66.29 461.13 66.53 460.7 66.73C460.26 66.93 459.77 67.23 459.23 67.65C458.69 68.07 458.27 68.37 457.99 68.57C457.7 68.77 457.33 69.09 456.87 69.56C456.41 70.03 456.11 70.31 455.95 70.44C455.8 70.57 455.52 70.87 455.13 71.32C454.74 71.78 454.52 72.03 454.47 72.07V73.38C454.47 77.97 453.58 82.36 451.82 86.56C450.05 90.76 447.81 94.33 445.1 97.28C442.39 100.23 439.45 102.82 436.28 105.05C433.11 107.28 430.11 108.93 427.27 110C424.43 111.07 422 111.61 419.99 111.61C417.11 111.61 414.76 110.68 412.94 108.82C411.13 106.96 410.22 105.45 410.22 104.27C410.22 103.44 411.15 102.17 413.01 100.47C414.87 98.77 416.97 97.23 419.33 95.85C421.69 94.48 423.48 93.79 424.71 93.79C425.02 93.79 425.22 93.83 425.33 93.92C425.44 94.01 425.54 94.23 425.62 94.58C426.1 96.07 427.11 97.43 428.64 98.68C430.17 99.92 431.87 100.55 433.75 100.55C433.97 100.55 434.12 100.51 434.21 100.42C434.3 100.33 434.5 100.05 434.8 99.57C435.98 97.65 437 95.27 437.88 92.42C438.75 89.58 439.19 86.72 439.19 83.83C439.19 79.02 437.26 74.67 433.39 70.78C429.52 66.89 425.34 64.95 420.84 64.95L420.86 64.89Z" fill="black"/>
<path d="M37.0898 39.18C36.5798 39.18 36.3198 39 36.3198 38.65C36.3198 38.41 38.8598 34.39 43.9298 26.59C48.9998 18.79 51.6798 14.72 51.9498 14.41C53.2498 12.88 55.4198 11.4 58.4698 9.99C61.5198 8.58 63.7898 7.87 65.2798 7.87C65.9098 7.87 66.2198 8.04999 66.2198 8.39999C66.2198 8.59999 64.7498 10.67 61.8298 14.62C58.8998 18.57 55.9598 22.46 53.0098 26.27L48.6398 32.05C47.2198 33.62 45.2398 35.21 42.6798 36.8C40.1198 38.39 38.2598 39.19 37.0798 39.19L37.0898 39.18Z" fill="black"/>
<path d="M141.18 39.52C140.64 39.52 140.36 39.33 140.36 38.95C140.36 38.7 143.06 34.41 148.47 26.09C153.88 17.77 156.73 13.44 157.02 13.11C158.4 11.48 160.72 9.9 163.97 8.39C167.22 6.88 169.64 6.13 171.23 6.13C171.9 6.13 172.24 6.32001 172.24 6.70001C172.24 6.91001 170.68 9.12001 167.56 13.33C164.44 17.54 161.3 21.68 158.16 25.75L153.51 31.91C152 33.59 149.88 35.27 147.16 36.97C144.44 38.67 142.44 39.52 141.19 39.52H141.18Z" fill="black"/>
<path d="M259.8 21.5C260.26 21.12 260.68 20.92 261.09 20.92C261.5 20.92 261.92 21.11 262.38 21.5C262.83 21.89 263.65 22.7 264.82 23.95C265.99 25.2 267.16 26.35 268.3 27.43C269.17 28.27 269.61 28.96 269.61 29.5C269.61 29.97 269.39 30.46 268.95 30.96C268.51 31.46 267.67 32.29 266.43 33.43C265.19 34.57 264.08 35.66 263.1 36.71C262.26 37.58 261.57 38.02 261.03 38.02C260.59 38.02 260.13 37.8 259.64 37.36C259.15 36.92 258.34 36.09 257.22 34.87C256.09 33.64 254.98 32.53 253.87 31.52C252.96 30.68 252.51 30.01 252.51 29.5C252.51 28.99 252.96 28.31 253.87 27.43C255.01 26.35 256.17 25.2 257.35 23.95C258.53 22.7 259.34 21.89 259.79 21.5H259.8Z" fill="black"/>
<path d="M463.15 20.1C460.33 19.65 457.22 20.73 453.8 23.35C450.38 25.97 447.14 29.3 444.07 33.35C441.01 37.4 438.1 41.47 435.34 45.57C432.59 49.67 430.1 53.12 427.9 55.94C425.7 58.75 424.09 60.08 423.08 59.92C422.58 59.84 422.38 59.41 422.51 58.62C422.87 56.36 426.81 49.83 434.31 39.02C436.21 36.25 438.14 33.64 440.07 31.18C442 28.73 444.14 26.14 446.49 23.41C448.84 20.69 451.2 18.28 453.57 16.18C455.94 14.08 458.34 12.2 460.79 10.53C463.23 8.86998 465.71 7.66998 468.21 6.92998C470.72 6.19998 473.1 6.00998 475.36 6.36998C479.23 6.98998 482.25 8.93998 484.39 12.21C486.54 15.49 487.31 19.01 486.7 22.79C486.25 25.6 484.9 28.09 482.67 30.26C480.44 32.43 477.93 34.05 475.16 35.12C472.38 36.19 469.74 36.95 467.24 37.4C464.74 37.85 462.79 37.96 461.41 37.74C460.53 37.6 460.12 37.34 460.18 36.98C460.3 36.24 461.57 35.32 463.99 34.22C466.41 33.12 467.65 32.52 467.71 32.44C468.52 31.53 469.02 30.43 469.23 29.14C469.56 27.11 469.13 25.18 467.93 23.33C466.73 21.48 465.14 20.4 463.16 20.08L463.15 20.1Z" fill="black"/>
</svg>
