<svg width="528" height="189" viewBox="0 0 528 189" fill="none" xmlns="http://www.w3.org/2000/svg">
<path d="M213.549 26.5581C213.981 26.2242 214.44 26.0433 214.941 26.0433C215.441 26.0433 215.901 26.2242 216.332 26.5859C216.763 26.9476 217.834 27.991 219.559 29.7161C221.284 31.4829 222.773 32.9993 224.053 34.2653C225.138 35.3505 225.681 36.213 225.681 36.853C225.681 37.1729 225.583 37.5068 225.402 37.8685C225.222 38.2303 224.888 38.6894 224.387 39.2319C223.886 39.7745 223.385 40.3032 222.857 40.7901C222.328 41.277 221.549 42.0422 220.478 43.0716C219.406 44.1011 218.433 45.0611 217.514 45.9653C216.429 47.0505 215.539 47.593 214.857 47.593C214.537 47.593 214.203 47.4957 213.842 47.3148C213.48 47.1339 213.021 46.8001 212.478 46.2992C211.936 45.7984 211.407 45.2976 210.92 44.7689C210.433 44.2403 209.668 43.4612 208.638 42.39C207.609 41.3187 206.649 40.3449 205.745 39.4267C204.618 38.2998 204.047 37.4373 204.047 36.8391C204.047 36.1991 204.618 35.3366 205.745 34.2514L209.821 30.1752C211.866 28.0884 213.09 26.8781 213.522 26.5442L213.549 26.5581ZM224.832 7.45688C225.263 7.123 225.722 6.94214 226.223 6.94214C226.724 6.94214 227.169 7.09517 227.545 7.41515C227.921 7.73512 229.159 8.93156 231.245 11.0184L235.322 15.0946L235.697 15.4702L236.031 15.8041L236.337 16.1102C236.476 16.2493 236.56 16.3467 236.616 16.4162C236.671 16.4858 236.713 16.5693 236.782 16.6945C236.852 16.8197 236.894 16.9031 236.922 17.0005C236.949 17.0979 236.963 17.1953 236.991 17.3066C237.019 17.4179 237.019 17.5431 237.019 17.6822C237.019 18.183 236.796 18.6978 236.337 19.2404C235.878 19.7829 234.612 21.1046 232.525 23.1775C231.023 24.6243 229.785 25.8486 228.783 26.8502C227.698 27.9354 226.835 28.4779 226.195 28.4779C225.875 28.4779 225.542 28.3806 225.18 28.1997C224.818 28.0188 224.359 27.685 223.816 27.1841C223.274 26.6833 222.745 26.1825 222.258 25.6538C221.771 25.1251 221.006 24.3461 219.977 23.2748C218.947 22.2036 217.987 21.2298 217.083 20.3116C215.956 19.1847 215.386 18.2943 215.386 17.6544C215.386 17.0144 215.956 16.1519 217.083 15.0668L221.159 10.9905C223.149 8.94547 224.373 7.76295 224.79 7.41515L224.832 7.45688ZM236.184 26.5303C236.574 26.2103 237.005 26.0572 237.506 26.0572C238.007 26.0572 238.452 26.2103 238.869 26.5303C239.287 26.8502 240.525 28.0745 242.612 30.203L246.688 34.2792C247.773 35.3644 248.316 36.2269 248.316 36.8669C248.316 37.1869 248.218 37.5207 248.037 37.8825C247.856 38.2442 247.523 38.7033 247.022 39.2458C246.521 39.7884 246.02 40.3171 245.491 40.804C244.963 41.2909 244.184 42.0561 243.112 43.0856C242.041 44.115 241.067 45.075 240.149 45.9793L239.092 47.0366C238.939 47.1896 238.716 47.3287 238.452 47.44C238.188 47.5513 237.868 47.607 237.506 47.607C237.005 47.607 236.518 47.3983 236.045 46.9948C235.572 46.5914 234.056 45.1167 231.524 42.5708L228.394 39.4406C227.267 38.3137 226.696 37.4512 226.696 36.853C226.696 36.213 227.267 35.3505 228.394 34.2653L232.943 29.7161C234.71 27.9075 235.781 26.8363 236.17 26.5163L236.184 26.5303Z" fill="black"/>
<path d="M333.221 26.7251C333.652 26.3912 334.111 26.2103 334.612 26.2103C335.113 26.2103 335.572 26.3912 336.003 26.7529C336.434 27.1146 337.506 28.158 339.231 29.8831C340.956 31.6499 342.444 33.1663 343.724 34.4323C344.809 35.5175 345.352 36.38 345.352 37.02C345.352 37.3399 345.254 37.6738 345.074 38.0355C344.893 38.3973 344.559 38.8564 344.058 39.3989C343.557 39.9415 343.056 40.4701 342.528 40.9571C341.999 41.444 341.22 42.2091 340.149 43.2386C339.078 44.2681 338.104 45.2281 337.186 46.1323C336.1 47.2175 335.21 47.76 334.528 47.76C334.208 47.76 333.874 47.6627 333.513 47.4818C333.151 47.3009 332.692 46.9671 332.149 46.4662C331.607 45.9654 331.078 45.4646 330.591 44.9359C330.104 44.4072 329.339 43.6282 328.31 42.5569C327.28 41.4857 326.32 40.5119 325.416 39.5937C324.289 38.4668 323.719 37.6043 323.719 37.0061C323.719 36.3661 324.289 35.5036 325.416 34.4184L329.492 30.3422C331.537 28.2554 332.761 27.0451 333.193 26.7112L333.221 26.7251ZM344.503 7.62388C344.935 7.28999 345.394 7.10913 345.894 7.10913C346.395 7.10913 346.84 7.26216 347.216 7.58214C347.592 7.90212 348.83 9.09855 350.917 11.1854L354.993 15.2616L355.369 15.6372L355.702 15.9711L356.008 16.2771C356.148 16.4163 356.231 16.5137 356.287 16.5832C356.342 16.6528 356.384 16.7362 356.454 16.8615C356.523 16.9867 356.565 17.0701 356.593 17.1675C356.621 17.2649 356.635 17.3623 356.662 17.4736C356.69 17.5849 356.69 17.7101 356.69 17.8492C356.69 18.35 356.468 18.8648 356.008 19.4074C355.549 19.9499 354.283 21.2716 352.197 23.3445C350.694 24.7913 349.456 26.0156 348.454 27.0172C347.369 28.1024 346.507 28.6449 345.867 28.6449C345.547 28.6449 345.213 28.5475 344.851 28.3667C344.489 28.1858 344.03 27.8519 343.488 27.3511C342.945 26.8503 342.416 26.3494 341.93 25.8208C341.443 25.2921 340.677 24.5131 339.648 23.4418C338.618 22.3706 337.659 21.3968 336.754 20.4786C335.627 19.3517 335.057 18.4613 335.057 17.8214C335.057 17.1814 335.627 16.3189 336.754 15.2337L340.83 11.1575C342.82 9.11246 344.044 7.92994 344.462 7.58214L344.503 7.62388ZM355.855 26.6972C356.245 26.3773 356.676 26.2242 357.177 26.2242C357.678 26.2242 358.123 26.3773 358.54 26.6972C358.958 27.0172 360.196 28.2415 362.283 30.37L366.359 34.4462C367.444 35.5314 367.987 36.3939 367.987 37.0339C367.987 37.3539 367.889 37.6877 367.708 38.0495C367.528 38.4112 367.194 38.8703 366.693 39.4128C366.192 39.9554 365.691 40.4841 365.163 40.971C364.634 41.4579 363.855 42.2231 362.784 43.2525C361.712 44.282 360.739 45.242 359.82 46.1462L358.763 47.2036C358.61 47.3566 358.387 47.4957 358.123 47.607C357.859 47.7183 357.539 47.774 357.177 47.774C356.676 47.774 356.189 47.5653 355.716 47.1618C355.243 46.7584 353.727 45.2837 351.195 42.7378L348.065 39.6076C346.938 38.4807 346.367 37.6182 346.367 37.02C346.367 36.38 346.938 35.5175 348.065 34.4323L352.614 29.8831C354.381 28.0745 355.452 27.0033 355.842 26.6833L355.855 26.6972Z" fill="black"/>
<path d="M512.31 19.3101C512.922 18.7953 513.506 18.531 514.049 18.531C514.592 18.531 515.176 18.7953 515.788 19.3101C516.4 19.8248 517.499 20.9239 519.085 22.6072C520.671 24.2906 522.229 25.8487 523.773 27.2956C524.956 28.4225 525.54 29.3546 525.54 30.078C525.54 30.7179 525.248 31.3718 524.65 32.0535C524.052 32.7352 522.925 33.8481 521.255 35.3785C519.586 36.9088 518.083 38.3974 516.762 39.8025C515.635 40.985 514.703 41.5693 513.979 41.5693C513.395 41.5693 512.769 41.2772 512.115 40.6789C511.461 40.0807 510.376 38.9678 508.846 37.3122C507.316 35.6567 505.827 34.1542 504.324 32.7908C503.1 31.6639 502.488 30.7458 502.488 30.078C502.488 29.4102 503.1 28.4642 504.324 27.2956C505.869 25.8487 507.427 24.2767 509.013 22.6072C510.599 20.9378 511.698 19.8248 512.31 19.3101Z" fill="black"/>
<path d="M72.0642 115.79C69.2958 115.79 66.722 115.233 64.3153 114.12C61.9085 113.007 59.933 111.588 58.3609 109.877C56.7889 108.166 55.5368 106.58 54.5908 105.147C53.6447 103.714 52.8935 102.323 52.3509 100.959C41.9726 110.837 32.4985 115.776 23.9287 115.776C21.1184 115.776 18.4752 115.233 16.0127 114.148C13.5503 113.063 11.4496 111.616 9.7245 109.835C7.99941 108.055 6.51082 106.01 5.27265 103.714C4.03448 101.419 3.10238 99.0952 2.51808 96.7163C1.93377 94.3373 1.62771 92.014 1.62771 89.7464C1.62771 84.4041 3.40844 79.0202 6.96992 73.5945C10.5314 68.1688 14.705 63.5222 19.5186 59.6268C10.7679 59.4042 5.92652 59.2651 4.96659 59.2234C3.28324 59.1817 2.04507 58.6669 1.22426 57.6931C0.403448 56.7192 0 55.5784 0 54.2568C0 52.3509 1.0434 50.2084 3.1302 47.8295C5.21701 45.4505 7.44293 43.5028 9.82188 41.9864C12.2008 40.47 13.912 39.7048 14.9554 39.7048C15.4145 39.7048 15.6371 39.8857 15.6371 40.2474C15.6371 40.5256 15.3867 41.1795 14.8859 42.2229C14.8859 44.4906 15.8319 45.9374 17.7378 46.5774C20.4507 47.3425 41.0126 47.7321 79.4098 47.7321C121.661 47.7321 145.311 47.3008 150.389 46.4382C151.613 46.2157 152.935 45.7426 154.368 45.047C155.801 44.3514 157.15 43.9897 158.416 43.9897C158.555 44.1706 158.625 44.3932 158.625 44.6714C158.625 45.9374 157.094 47.7321 154.034 50.0415C150.973 52.3509 147.996 54.1177 145.088 55.3419C144.365 58.7921 143.892 68.0436 143.655 83.1103C143.419 98.177 143.322 112.604 143.322 126.391C143.322 140.177 143.28 147.259 143.182 147.676C142.862 148.984 141.402 150.917 138.8 153.449C136.199 155.981 133.388 157.985 130.397 159.432C128.311 160.475 126.46 161.463 124.86 162.395C123.26 163.327 121.939 164.176 120.923 164.941C119.908 165.706 119.129 166.346 118.614 166.847C118.099 167.348 117.543 167.918 116.944 168.586C116.346 169.254 115.998 169.643 115.859 169.782C114.412 171.187 112.506 173.427 110.141 176.516C107.776 179.604 105.745 181.774 104.02 183.04C101.975 184.585 99.8326 185.878 97.565 186.922C95.2973 187.965 93.6279 188.48 92.5288 188.48C91.8889 188.48 91.5828 188.271 91.5828 187.868C91.5828 187.548 91.9167 186.797 92.5984 185.586C93.2801 184.376 94.4626 182.748 96.132 180.661C97.8015 178.575 99.7074 176.585 101.85 174.679C101.892 174.637 101.989 174.554 102.128 174.443C102.267 174.331 102.351 174.262 102.406 174.234C102.462 174.206 102.504 174.151 102.573 174.067C102.643 173.984 102.699 173.9 102.74 173.831C102.782 173.761 102.838 173.678 102.907 173.552C102.977 173.427 103.032 173.316 103.074 173.177C103.116 173.038 103.172 172.885 103.213 172.704C103.255 172.523 103.325 172.3 103.422 172.022C105.37 165.275 106.343 145.979 106.343 114.162V104.674C106.343 103.422 106.343 102.323 106.316 101.349C106.288 100.375 106.288 99.5961 106.288 98.9978V98.0518C101.85 102.768 96.5911 106.9 90.5116 110.461C84.432 114.023 78.2968 115.804 72.0921 115.804L72.0642 115.79ZM50.3754 91.5827C50.3754 88.3134 50.9458 85.0441 52.0727 81.7609C53.1996 78.4776 54.716 75.4726 56.5941 72.7459C58.4722 70.0191 60.3782 67.6262 62.3119 65.5394C64.2457 63.4526 66.249 61.5467 68.3358 59.8216C64.7604 59.8633 59.2513 59.8912 51.8084 59.8912C45.0054 59.8912 36.5747 59.8494 26.5163 59.752C24.2486 61.9223 22.1758 64.8299 20.2976 68.461C18.4195 72.092 17.4735 75.8204 17.4735 79.6741C17.4735 83.5277 18.3499 87.2144 20.089 90.9984C21.828 94.7825 24.2208 97.9405 27.2676 100.445C30.3143 102.949 33.5001 104.215 36.8529 104.215C40.5674 104.215 43.1829 103.45 44.6715 101.905C46.3548 100.139 48.2747 97.4397 50.445 93.8087C50.4032 93.3078 50.3754 92.5566 50.3754 91.5688V91.5827ZM66.1516 80.8427C66.1516 84.4737 67.042 88.0908 68.8367 91.7219C70.6313 95.3529 73.0242 98.344 76.0431 100.695C79.062 103.046 82.1783 104.229 85.392 104.229C87.5622 104.229 89.649 103.951 91.6524 103.38C93.6557 102.81 95.0747 102.184 95.9373 101.516C97.245 100.473 98.6501 98.9561 100.125 96.9667C101.599 94.9773 102.657 93.433 103.283 92.3479C103.909 91.2628 104.869 89.5377 106.135 87.1865C105.954 72.9963 105.745 64.2456 105.523 60.9346C105.745 60.2946 106.065 59.6825 106.469 59.0982C90.7898 59.4599 80.4949 59.6825 75.5979 59.7799C73.2885 62.0475 71.1321 65.1221 69.1427 68.9896C67.1533 72.8572 66.1516 76.8221 66.1516 80.8566V80.8427ZM128.018 82.206C128.018 74.6796 128.213 69.2679 128.603 65.9568C128.992 62.6457 129.73 60.1138 130.815 58.3469C129.688 58.3887 127.977 58.4443 125.681 58.5139C123.386 58.5834 121.674 58.6391 120.548 58.6808C121.048 78.9924 121.299 98.9144 121.299 118.447C121.299 141.429 120.909 155.328 120.144 160.127C120.367 159.988 120.812 159.682 121.466 159.209C122.12 158.736 123.107 158.04 124.429 157.136C125.751 156.232 127.128 155.3 128.575 154.354C128.533 140.567 128.422 125.918 128.269 110.392C128.116 94.866 128.032 85.4754 128.032 82.206H128.018Z" fill="black"/>
<path d="M168.808 89.6214C168.808 85.5452 168.558 82.0115 168.057 79.0204C167.556 76.0293 166.902 73.7756 166.082 72.2592C165.261 70.7428 164.44 69.6437 163.605 68.962C162.771 68.2803 161.922 67.9465 161.059 67.9465C160.739 67.9465 160.169 68.0856 159.32 68.3499C158.472 68.6142 157.929 68.7534 157.651 68.7534C157.248 68.7534 157.039 68.5447 157.039 68.1412C157.039 67.5013 157.637 66.4996 158.847 65.1223C160.058 63.745 161.505 62.3538 163.23 60.9765C164.955 59.5993 166.875 58.375 169.003 57.3455C171.132 56.316 172.996 55.7874 174.582 55.7874C179.924 55.7874 183.221 61.4774 184.445 72.8574C189.788 67.5152 195.38 63.3416 201.209 60.3505C207.039 57.3594 212.576 55.8569 217.834 55.8569C227.267 55.8569 234.223 60.4618 238.702 69.6576C249.442 60.4061 259.236 55.7874 268.071 55.7874C271.465 55.7874 274.609 56.4969 277.489 57.902C280.369 59.3071 282.692 61.1157 284.459 63.3138C286.226 65.5119 287.603 67.8769 288.577 70.4228C289.551 72.9687 290.038 75.4589 290.038 77.9075C290.038 81.3994 289.412 84.8496 288.173 88.2441C286.921 91.6386 285.28 94.6993 283.249 97.426C281.217 100.153 278.908 102.671 276.348 105.008C273.788 107.345 271.187 109.293 268.53 110.851C265.873 112.409 263.299 113.634 260.809 114.524C258.318 115.414 256.12 115.846 254.214 115.846C251.265 115.846 248.858 114.858 246.966 112.882C245.074 110.907 244.142 109.335 244.142 108.152C244.142 107.29 245.102 105.982 247.036 104.215C248.969 102.448 251.154 100.848 253.602 99.4154C256.051 97.9825 257.915 97.273 259.181 97.273C259.543 97.273 259.793 97.3704 259.932 97.5512C260.071 97.7321 260.169 97.9686 260.238 98.2607C260.308 98.5529 260.516 99.012 260.85 99.6241C261.184 100.236 261.671 100.862 262.311 101.488C264.175 103.353 266.192 104.271 268.363 104.271H268.905C269.044 104.271 269.156 104.229 269.239 104.132C269.323 104.034 269.392 103.979 269.448 103.965C269.504 103.951 269.573 103.812 269.684 103.589C269.796 103.366 269.893 103.186 269.99 103.046C272.801 98.372 274.206 93.6698 274.206 88.898C274.206 85.8651 273.621 82.9714 272.439 80.2308C271.256 77.4901 269.74 75.1946 267.89 73.3304C266.039 71.4662 263.967 70.0054 261.699 68.9064C259.431 67.8073 257.205 67.2787 255.035 67.2787C254.089 67.2787 253.157 67.3343 252.253 67.4456C251.348 67.5569 250.514 67.7378 249.735 67.9882C248.956 68.2386 248.274 68.4612 247.662 68.6699C247.05 68.8786 246.41 69.1985 245.756 69.6576C245.102 70.1167 244.587 70.4506 244.225 70.6732C243.864 70.8958 243.405 71.2853 242.862 71.8279C242.319 72.3705 241.972 72.7183 241.805 72.8435C241.638 72.9687 241.318 73.3443 240.817 73.9286L240.066 74.7494V76.1128C240.066 80.8707 239.148 85.4339 237.311 89.7744C235.475 94.115 233.151 97.8295 230.341 100.89C227.531 103.951 224.484 106.636 221.201 108.945C217.918 111.255 214.801 112.966 211.852 114.079C208.903 115.192 206.385 115.748 204.312 115.748C201.321 115.748 198.886 114.788 197.008 112.854C195.13 110.921 194.184 109.349 194.184 108.124C194.184 107.262 195.144 105.954 197.078 104.187C199.011 102.42 201.196 100.821 203.644 99.3876C206.093 97.9547 207.957 97.2452 209.223 97.2452C209.543 97.2452 209.751 97.2869 209.863 97.3843C209.974 97.4817 210.071 97.7043 210.169 98.066C210.67 99.6102 211.713 101.029 213.299 102.309C214.885 103.589 216.652 104.243 218.599 104.243C218.822 104.243 218.989 104.201 219.072 104.104C219.156 104.006 219.365 103.714 219.685 103.213C220.909 101.224 221.98 98.7477 222.884 95.7983C223.789 92.849 224.248 89.8857 224.248 86.8946C224.248 81.9141 222.244 77.3927 218.224 73.3582C214.203 69.3237 209.877 67.3065 205.202 67.3065C201.933 67.3065 199.039 67.8908 196.493 69.0455C193.947 70.2002 191.888 71.6471 190.302 73.3582C188.716 75.0694 186.908 77.4623 184.863 80.4951C184.905 83.8062 184.96 90.8596 185.002 101.669C185.044 112.479 185.099 122.482 185.141 131.65C185.183 140.818 185.211 145.617 185.211 146.035C185.252 147.301 185.364 148.4 185.545 149.332C185.725 150.264 185.92 150.904 186.129 151.266C186.338 151.627 186.518 151.947 186.671 152.212C186.824 152.476 186.908 152.685 186.908 152.824C186.908 153.408 186.212 154.326 184.835 155.578C183.458 156.83 181.816 157.999 179.91 159.084C179.771 159.181 178.797 159.905 176.989 161.296C175.18 162.687 173.274 164.092 171.271 165.539C169.267 166.986 167.069 168.336 164.635 169.588C162.2 170.84 160.266 171.452 158.82 171.452C158.138 171.452 157.804 171.271 157.804 170.909C157.804 170.45 158.277 169.755 159.237 168.795C160.197 167.835 161.185 166.958 162.228 166.137L163.73 164.913C166.443 161.825 167.988 158.402 168.349 154.646V151.794C168.391 149.846 168.433 147.287 168.447 144.115C168.461 140.943 168.502 137.367 168.544 133.402C168.586 129.438 168.628 125.306 168.641 120.993C168.655 116.68 168.683 112.562 168.711 108.625C168.739 104.688 168.753 101.001 168.781 97.5791C168.808 94.1567 168.808 91.4995 168.808 89.5936V89.6214Z" fill="black"/>
<path d="M320.839 105.592C320.839 107.039 317.361 109.39 310.405 112.632C303.449 115.873 298.677 117.487 296.089 117.487C295.366 117.487 295.004 117.306 295.004 116.944C295.004 116.485 295.352 115.943 296.062 115.317C296.771 114.691 297.578 114.051 298.51 113.411C299.442 112.771 300.013 112.326 300.249 112.047C301.376 110.642 302.086 109.46 302.364 108.514C302.865 106.608 303.157 100.375 303.254 89.816C303.477 63.2579 303.616 48.2886 303.658 44.9358C303.658 44.5741 303.685 43.2525 303.755 40.957C303.825 38.6615 303.852 36.686 303.852 35.0026C303.852 19.8107 301.766 12.2287 297.592 12.2287C297.411 12.2287 297.133 12.2843 296.771 12.3956C296.409 12.5069 296.062 12.6043 295.756 12.7017C295.449 12.7991 295.116 12.8686 294.81 12.9382C294.503 13.0077 294.239 12.9938 294.058 12.9104C293.877 12.8269 293.78 12.6321 293.78 12.3678C293.78 11.5052 294.74 10.0862 296.674 8.12462C298.608 6.16302 300.986 4.29881 303.811 2.58764C306.635 0.876457 309.083 0 311.114 0C312.019 0 312.853 0.180856 313.591 0.542569C314.328 0.904281 315.093 1.55815 315.831 2.51807C316.568 3.478 317.25 4.92485 317.834 6.87254C318.418 8.82022 318.877 11.2409 319.197 14.1485C319.698 18.4056 319.99 38.3833 320.088 74.0537C323.802 70.4783 327.572 67.4037 331.412 64.8439C335.252 62.2841 338.772 60.3782 342.013 59.1261C345.255 57.874 348.12 56.9975 350.611 56.4689C353.101 55.9402 355.41 55.6898 357.553 55.6898C364.119 55.6898 369.767 57.8183 374.484 62.0754C379.2 66.3325 381.551 71.2156 381.551 76.6969C381.551 80.8149 380.633 84.9189 378.796 89.0091C376.96 93.0992 374.609 96.6885 371.729 99.8187C368.849 102.949 365.705 105.745 362.283 108.222C358.86 110.698 355.466 112.576 352.113 113.87C348.76 115.164 345.811 115.804 343.279 115.804C340.191 115.804 337.589 114.732 335.46 112.576C333.332 110.42 332.261 108.639 332.261 107.234C332.261 105.926 334.292 103.784 338.34 100.848C342.389 97.9128 345.352 96.4242 347.216 96.4242C347.536 96.4242 347.786 96.5494 347.967 96.7998C348.148 97.0502 348.287 97.3563 348.371 97.718C348.454 98.0797 348.732 98.6084 349.192 99.3179C349.651 100.027 350.235 100.709 350.958 101.391C353.003 103.297 355.285 104.243 357.831 104.243C359.055 104.243 359.82 104.02 360.14 103.561C361.685 101.474 362.992 98.9005 364.077 95.8399C365.163 92.7792 365.705 89.7742 365.705 86.8249C365.705 81.9279 363.507 77.4482 359.111 73.3998C354.715 69.3514 349.776 67.3202 344.295 67.3202C341.303 67.3202 338.563 67.6959 336.073 68.4471C333.582 69.1984 331.342 70.3113 329.339 71.8138C327.336 73.3163 325.708 74.7075 324.442 76.0013C323.176 77.2952 321.729 78.9646 320.088 80.9958C320.185 95.8121 320.422 104.006 320.839 105.537V105.606V105.592Z" fill="black"/>
<path d="M489.87 108.11C489.87 111.38 488.673 114.858 486.267 118.544C483.86 122.231 480.618 125.723 476.514 128.978C472.41 132.234 467.875 135.211 462.922 137.882C457.97 140.553 452.683 142.682 447.077 144.24C441.47 145.798 436.211 146.591 431.272 146.591C427.6 146.591 423.927 146.201 420.254 145.436C416.581 144.671 413.034 143.461 409.611 141.833C406.189 140.205 403.17 138.23 400.541 135.92C397.911 133.611 395.811 130.759 394.211 127.392C392.611 124.026 391.832 120.353 391.832 116.416C391.832 112.743 392.305 109.126 393.265 105.564C394.225 102.003 395.588 98.6918 397.383 95.6033C399.177 92.5148 401.083 89.635 403.101 86.9361C405.118 84.2372 407.441 81.6356 410.071 79.1175C412.7 76.5995 415.065 74.457 417.18 72.6902C419.294 70.9234 421.59 69.1148 424.08 67.2506C418.919 66.7915 414.105 66.5689 409.667 66.5689C406.036 66.5689 402.572 66.708 399.261 66.9724C395.95 67.2367 393.307 67.501 391.303 67.7514C389.3 68.0018 388.09 68.1271 387.631 68.1271C387.046 68.1271 386.74 68.0158 386.74 67.7932C386.74 66.5272 388.535 64.4404 392.11 61.5328C395.686 58.6251 399.094 56.914 402.308 56.3714C408.61 55.3697 415.413 54.8689 422.703 54.8689C428.462 54.8689 436.976 55.2863 448.231 56.121C459.5 56.9557 467.875 57.3731 473.356 57.3731C477.168 57.3731 480.632 57.2339 483.762 56.9696C486.893 56.7053 489.313 56.427 491.038 56.1488C492.764 55.8706 493.807 55.7454 494.169 55.7454C494.753 55.7454 495.059 55.9262 495.059 56.2879C495.059 57.3731 493.668 59.126 490.872 61.5188C488.075 63.9117 485.404 65.6646 482.816 66.7498C481.231 67.4314 478.212 68.0018 473.774 68.447C469.336 68.8922 464.48 69.1287 459.222 69.1287C456.411 69.1287 453.629 69.087 450.888 68.9896C448.148 68.8922 445.936 68.7948 444.252 68.6835C442.569 68.5722 440.315 68.4053 437.491 68.1688C434.667 67.9323 432.497 67.7792 430.994 67.6958C427.141 70.3251 423.746 73.1354 420.825 76.1265C417.903 79.1175 415.635 81.9278 414.022 84.5571C412.408 87.1865 411.114 89.9133 410.112 92.7513C409.111 95.5894 408.471 98.0101 408.179 100.027C407.886 102.045 407.733 104.076 407.733 106.107C407.733 110.6 408.818 114.691 411.003 118.419C413.187 122.147 416.053 125.166 419.642 127.531C423.231 129.896 427.238 131.719 431.676 132.999C436.114 134.279 440.677 134.933 445.338 134.933C450.374 134.933 455.438 134.126 460.529 132.512C465.635 130.898 468.793 129.465 470.017 128.199C472.689 125.389 474.024 122.147 474.024 118.475C474.024 115.706 473.231 113.258 471.645 111.129C470.059 109.001 467.833 107.595 464.981 106.914C464.3 106.733 463.966 106.51 463.966 106.232C463.966 104.827 466.011 102.657 470.087 99.7073C474.163 96.758 477.113 95.2833 478.921 95.2833C481.272 95.2833 483.693 96.4936 486.169 98.9143C488.646 101.335 489.87 104.382 489.87 108.055V108.11Z" fill="black"/>
<path d="M500.485 67.863C500.485 66.9587 501.431 65.5397 503.337 63.6198C505.243 61.7 507.566 59.9053 510.307 58.2498C513.047 56.5942 515.343 55.7734 517.207 55.7734C518.835 55.7734 520.268 56.3438 521.492 57.4707C522.716 58.5976 523.648 60.0444 524.274 61.7834C524.9 63.5224 525.345 64.9415 525.596 66.0266C525.846 67.1117 526.013 68.0856 526.111 68.9481C526.472 71.5358 526.667 77.3371 526.695 86.352C526.723 95.367 527.001 101.627 527.544 105.119C527.084 106.121 526.097 107.164 524.553 108.25C523.008 109.335 521.603 110.183 520.337 110.795C519.071 111.408 517.318 112.173 515.106 113.105C512.894 114.037 511.684 114.538 511.503 114.635C507.747 116.36 504.951 117.223 503.142 117.223C502.279 117.223 501.848 117 501.848 116.541C501.848 116.04 502.238 115.47 503.003 114.844C503.768 114.218 504.63 113.592 505.59 112.98C506.55 112.368 507.469 111.408 508.373 110.086C509.277 108.764 509.82 107.248 510.001 105.537C510.279 103.45 510.404 96.3548 510.404 84.2513C510.404 81.3437 510.195 78.7978 509.764 76.5997C509.333 74.4016 508.762 72.7044 508.067 71.494C507.371 70.2837 506.648 69.3933 505.924 68.809C505.201 68.2247 504.477 67.9186 503.754 67.9186C503.615 67.9186 503.253 68.016 502.669 68.2247C502.085 68.4334 501.57 68.5168 501.139 68.5029C500.707 68.489 500.499 68.2664 500.499 67.863H500.485Z" fill="black"/>
</svg>
