<svg width="536" height="158" viewBox="0 0 536 158" fill="none" xmlns="http://www.w3.org/2000/svg">
<g clip-path="url(#clip0_430_18)">
<path d="M18.44 96.25C15.05 96.25 11.95 95.08 9.17001 92.74C6.38001 90.4 4.27001 87.56 2.84001 84.2C1.41001 80.84 0.69001 77.51 0.69001 74.19C0.69001 71.63 1.18001 69.01 2.16001 66.33C3.14001 63.65 4.43001 61.18 6.03001 58.92C7.63001 56.66 9.30001 54.61 11.03 52.78C12.76 50.95 14.54 49.36 16.35 48C8.55001 47.89 4.19001 47.76 3.29001 47.6C2.35001 47.45 1.56001 47.01 0.94001 46.27C0.32001 45.54 0.0100098 44.62 0.0100098 43.53C0.0100098 41.49 1.43001 39.22 4.28001 36.72C7.13001 34.21 9.23001 32.96 10.59 32.96C10.97 32.96 11.16 33.11 11.16 33.41C11.16 33.67 11.05 33.98 10.82 34.31C10.59 34.64 10.48 35.05 10.48 35.5C10.48 36.22 10.7 36.87 11.13 37.45C11.56 38.03 12.14 38.44 12.86 38.67C14.78 39.35 31.32 39.69 62.46 39.69C96.47 39.69 115.53 39.33 119.64 38.62C120.73 38.43 121.86 38.05 123.03 37.49C124.2 36.92 125.22 36.6 126.08 36.53C126.23 36.68 126.31 36.87 126.31 37.1C126.31 38.08 125.04 39.46 122.49 41.23C119.95 43 117.52 44.32 115.22 45.19C114.54 48.21 114.11 54.87 113.92 65.18C113.73 75.49 113.64 91.28 113.64 112.54V122.1C113.64 123.38 113.59 124.19 113.5 124.53C113.41 124.87 113.15 125.32 112.74 125.89C111.53 127.55 110.12 128.95 108.5 130.1C106.88 131.25 105 132.5 102.87 133.86C100.74 135.22 98.77 136.78 96.96 138.55C95 140.51 92.82 143.2 90.43 146.61C88.04 150.02 86.69 151.86 86.39 152.12C84.84 153.51 83.1 154.69 81.16 155.66C79.22 156.62 77.78 157.1 76.83 157.1C76.38 157.1 76.15 156.97 76.15 156.7C76.15 156.55 76.33 156.08 76.69 155.29C77.05 154.5 77.85 153.19 79.09 151.36C80.33 149.53 81.88 147.69 83.73 145.85C84.37 145.21 84.76 144.78 84.89 144.58C85.02 144.37 85.18 143.91 85.37 143.19C86.99 137.46 87.8 121.13 87.8 94.21V89.88C87.8 88.43 87.8 87.17 87.77 86.12C87.75 85.07 87.74 84.12 87.74 83.29V80.58C84.12 84.8 79.74 88.47 74.59 91.58C69.44 94.69 64.25 96.25 59.01 96.25C57.01 96.25 55.14 95.86 53.38 95.09C51.63 94.32 50.2 93.44 49.11 92.46C48.02 91.48 46.96 90.27 45.94 88.84C44.92 87.41 44.23 86.33 43.88 85.62C43.52 84.9 43.15 84.09 42.78 83.19C34.75 91.9 26.64 96.25 18.46 96.25H18.44ZM28.16 88.17C31.14 88.17 33.5 87.44 35.26 85.99C37.01 84.54 39.02 81.66 41.28 77.37C41.24 76.95 41.22 76.33 41.22 75.5C41.22 70.56 42.74 65.6 45.77 60.63C48.8 55.65 52.49 51.51 56.83 48.19C54.45 48.23 50.21 48.25 44.11 48.25C36.19 48.25 28.52 48.19 21.09 48.08C20.26 48.91 19.59 49.6 19.08 50.14C18.57 50.69 17.81 51.64 16.79 53C15.77 54.36 14.95 55.66 14.33 56.9C13.71 58.14 13.14 59.66 12.63 61.45C12.12 63.24 11.87 65.06 11.87 66.91C11.87 72.23 13.54 77.1 16.87 81.53C20.21 85.96 23.97 88.18 28.15 88.18L28.16 88.17ZM68.66 88.17C70.7 88.17 72.45 87.96 73.92 87.55C75.39 87.13 76.9 86.33 78.44 85.15C79.99 83.96 81.48 82.28 82.94 80.12C84.39 77.95 85.95 75.15 87.61 71.72C87.53 67.99 87.46 64.51 87.38 61.29C87.3 58.07 87.24 55.64 87.18 54.02C87.12 52.4 87.1 51.27 87.1 50.63V49.84C87.1 49.61 87.12 49.41 87.16 49.22C87.2 49.03 87.23 48.89 87.24 48.8C87.26 48.71 87.3 48.59 87.35 48.46C87.41 48.33 87.44 48.24 87.46 48.21C87.48 48.17 87.53 48.08 87.63 47.93C87.72 47.78 87.79 47.69 87.83 47.65C80.29 47.88 71.62 48.05 61.81 48.16C55.55 54.15 52.42 60.71 52.42 67.84C52.42 73.31 54.13 78.07 57.54 82.12C60.95 86.17 64.66 88.2 68.65 88.2L68.66 88.17ZM102.87 71.31C102.87 63.05 103.05 57.31 103.41 54.09C103.77 50.87 104.47 48.5 105.53 46.99C103.64 47.1 101.01 47.22 97.61 47.33C98.1 65.88 98.34 82.47 98.34 97.1C98.34 117.01 97.96 129.32 97.21 134.03C99.36 132.33 101.38 130.82 103.26 129.51C103.22 119.63 103.15 108.39 103.03 95.78C102.92 83.17 102.86 75.02 102.86 71.32L102.87 71.31Z" fill="black"/>
<path d="M381.85 63.6799C381.85 67.7899 381.12 71.6799 379.67 75.3599C378.22 79.0399 376.4 82.1099 374.21 84.5799C372.02 87.0499 369.64 89.1999 367.06 91.0299C364.48 92.8599 362.05 94.1999 359.76 95.0499C357.47 95.8999 355.53 96.3199 353.91 96.3199C351.53 96.3199 349.57 95.5099 348.03 93.8899C346.48 92.2699 345.71 90.9699 345.71 89.9899C345.71 89.0799 347.12 87.5899 349.95 85.4899C352.78 83.3999 354.91 82.3499 356.34 82.3499C356.53 82.3499 356.67 82.4299 356.76 82.5999C356.85 82.7699 356.94 82.9899 357.01 83.2499C357.09 83.5099 357.26 83.8699 357.55 84.3199C357.83 84.7699 358.18 85.2199 358.6 85.6799C360.18 87.3399 361.94 88.1699 363.86 88.1699C364.65 88.1699 365.18 88.0799 365.44 87.8899C365.7 87.6999 366.14 87.0799 366.74 86.0199C369.38 81.4599 370.7 76.6699 370.7 71.6599C370.7 67.3299 369.03 63.3699 365.7 59.8099C362.36 56.2499 358.7 54.4699 354.7 54.4699C350.7 54.4699 347.21 55.4899 344.44 57.5199C341.67 59.5599 338.89 62.8899 336.1 67.5299C336.1 69.5699 336.12 71.4499 336.16 73.1899C336.2 74.9299 336.22 76.4199 336.24 77.6899C336.26 78.9499 336.29 80.1099 336.32 81.1699C336.36 82.2299 336.39 83.0899 336.4 83.7699C336.42 84.4499 336.45 85.0599 336.48 85.6099C336.52 86.1599 336.55 86.5799 336.56 86.8799C336.58 87.1799 336.61 87.4399 336.64 87.6399C336.68 87.8499 336.7 87.9899 336.7 88.0599C336.7 88.1299 336.7 88.2099 336.73 88.2899C336.75 88.3699 336.76 88.4399 336.76 88.5199C336.76 89.6099 334.17 91.3999 328.98 93.8599C323.8 96.3299 320.26 97.5599 318.38 97.5599C317.85 97.5599 317.59 97.4099 317.59 97.1099C317.59 96.7299 317.89 96.3099 318.49 95.8399C319.09 95.3699 319.77 94.8899 320.53 94.3999C321.28 93.9099 322.05 93.1299 322.82 92.0499C323.59 90.9699 324.09 89.7199 324.32 88.2899C324.4 87.8699 324.46 86.1899 324.52 83.2299C324.58 80.2699 324.6 77.3999 324.6 74.6099L324.66 70.4799C324.66 65.1999 323.94 61.2899 322.51 58.7399C321.08 56.1999 319.47 54.9199 317.7 54.9199C317.55 54.9199 317.34 54.9599 317.08 55.0299C316.82 55.1099 316.57 55.1799 316.34 55.2599C316.11 55.3399 315.89 55.3999 315.66 55.4599C315.43 55.5199 315.25 55.5199 315.12 55.4599C314.99 55.3999 314.92 55.2799 314.92 55.0899C314.92 54.4899 315.58 53.4899 316.9 52.0899C318.22 50.6999 319.89 49.3899 321.9 48.1899C323.92 46.9799 325.7 46.3799 327.24 46.3799C328.67 46.3799 329.95 46.8599 331.09 47.8199C332.22 48.7799 333.12 50.0499 333.78 51.6099C334.44 53.1799 334.94 54.7699 335.28 56.3899C335.62 58.0099 335.83 59.6299 335.9 61.2499C340.35 56.3899 344.96 52.6899 349.73 50.1699C354.5 47.6499 359.03 46.3799 363.33 46.3799C367.21 46.3799 370.68 47.4299 373.74 49.5199C376.8 51.6099 379.15 54.6599 380.81 58.6499C389.41 50.5099 397.47 46.4299 405.02 46.4299C407.81 46.4299 410.39 47.0099 412.77 48.1599C415.15 49.3099 417.09 50.8099 418.6 52.6599C420.11 54.5099 421.29 56.5399 422.13 58.7699C422.98 60.9999 423.4 63.2199 423.4 65.4399C423.4 68.9099 422.72 72.2999 421.36 75.6199C420 78.9399 418.27 81.8099 416.16 84.2399C414.05 86.6699 411.73 88.8199 409.2 90.6899C406.67 92.5599 404.2 93.9599 401.79 94.8999C399.38 95.8399 397.25 96.3099 395.4 96.3099C393.1 96.3099 391.17 95.5099 389.6 93.9099C388.03 92.3099 387.25 90.9799 387.25 89.9199C387.25 89.0099 388.67 87.5299 391.52 85.4499C394.37 83.3799 396.49 82.3399 397.88 82.3399C398.11 82.3399 398.29 82.4699 398.42 82.7399C398.55 82.9999 398.68 83.3299 398.82 83.7299C398.95 84.1299 399.25 84.6199 399.72 85.1999C400.19 85.7899 400.82 86.3399 401.61 86.8699C402.89 87.7399 404.15 88.1699 405.4 88.1699C405.66 88.1699 405.89 88.1699 406.08 88.1399C406.27 88.1199 406.43 88.1099 406.56 88.1099C406.69 88.1099 406.82 88.0699 406.96 87.9999C407.09 87.9199 407.19 87.8799 407.24 87.8599C407.3 87.8399 407.39 87.7499 407.52 87.5799C407.65 87.4099 407.74 87.2999 407.77 87.2399C407.81 87.1799 407.9 87.0099 408.05 86.7299C408.2 86.4499 408.31 86.2499 408.39 86.1399C410.95 81.8799 412.24 77.5999 412.24 73.2999C412.24 70.6599 411.75 68.1499 410.77 65.7799C409.79 63.3999 408.54 61.4099 407.01 59.7899C405.48 58.1699 403.76 56.8799 401.84 55.9199C399.92 54.9599 398.03 54.4799 396.18 54.4799C395.35 54.4799 394.53 54.5499 393.72 54.6799C392.91 54.8099 392.17 54.9599 391.51 55.1299C390.85 55.2999 390.19 55.5499 389.53 55.8699C388.87 56.1899 388.3 56.4799 387.83 56.7499C387.36 57.0099 386.85 57.3599 386.3 57.7999C385.75 58.2299 385.33 58.5899 385.03 58.8699C384.73 59.1499 384.36 59.5299 383.93 59.9999C383.5 60.4699 383.2 60.7999 383.05 60.9899C382.9 61.1799 382.65 61.4899 382.31 61.9199C381.97 62.3499 381.78 62.5899 381.74 62.6299C381.74 62.7399 381.74 62.9199 381.77 63.1699C381.79 63.4199 381.8 63.5899 381.8 63.7099L381.85 63.6799Z" fill="black"/>
<path d="M448.87 88.9602C448.87 90.0202 446.13 91.7702 440.64 94.2202C435.15 96.6702 431.75 97.9002 430.43 97.9002C429.9 97.9002 429.64 97.7302 429.64 97.3902C429.64 97.0902 429.92 96.7002 430.49 96.2302C431.06 95.7602 431.68 95.3102 432.36 94.8702C433.04 94.4402 433.41 94.1602 433.49 94.0502C433.98 93.5202 434.38 93.0302 434.68 92.5802C434.98 92.1302 435.26 91.6702 435.5 91.2202C435.74 90.7702 435.91 90.1402 436.01 89.3302C436.1 88.5202 436.19 87.7502 436.26 87.0102C436.34 86.2702 436.38 85.1102 436.4 83.5002C436.42 81.9002 436.43 80.3902 436.43 78.9802V72.6702C436.43 69.8802 436.45 67.2002 436.49 64.6402C436.72 42.2402 436.83 29.8002 436.83 27.3102C436.83 21.4302 436.45 16.8502 435.7 13.5702C434.95 10.2902 433.55 8.65023 431.51 8.65023C431.36 8.65023 431.13 8.69023 430.83 8.76023C430.53 8.84023 430.25 8.92023 430.01 9.01023C429.76 9.10023 429.52 9.18023 429.27 9.24023C429.02 9.30023 428.83 9.30023 428.68 9.24023C428.53 9.18023 428.45 9.06023 428.45 8.87023C428.45 8.19023 429.15 7.16023 430.54 5.76023C431.93 4.36023 433.67 3.06023 435.74 1.83023C437.81 0.610234 439.6 -0.00976562 441.11 -0.00976562C444.73 -0.00976562 446.92 4.04023 447.67 12.1502C448.01 15.6902 448.22 32.0402 448.29 61.1802C452.78 56.3502 457.4 52.6802 462.15 50.1502C466.9 47.6302 471.43 46.3602 475.72 46.3602C479.6 46.3602 483.06 47.4002 486.1 49.4702C489.14 51.5402 491.48 54.6002 493.14 58.6302C501.74 50.4902 509.8 46.4102 517.35 46.4102C520.14 46.4102 522.72 46.9902 525.1 48.1402C527.48 49.2902 529.42 50.7902 530.93 52.6402C532.44 54.4902 533.62 56.5202 534.46 58.7502C535.31 60.9802 535.73 63.2002 535.73 65.4202C535.73 68.8902 535.05 72.2802 533.69 75.6002C532.33 78.9202 530.6 81.7902 528.49 84.2202C526.38 86.6502 524.06 88.8002 521.53 90.6702C519 92.5402 516.53 93.9402 514.12 94.8802C511.71 95.8202 509.58 96.2902 507.73 96.2902C505.43 96.2902 503.49 95.4902 501.91 93.8902C500.33 92.2902 499.53 90.9602 499.53 89.9002C499.53 88.9902 500.95 87.5102 503.8 85.4302C506.65 83.3602 508.77 82.3202 510.16 82.3202C510.39 82.3202 510.56 82.4502 510.7 82.7202C510.83 82.9802 510.96 83.3102 511.1 83.7102C511.23 84.1102 511.53 84.6002 512.01 85.1802C512.48 85.7702 513.11 86.3202 513.9 86.8502C515.18 87.7202 516.46 88.1502 517.75 88.1502H518.48C518.67 88.1502 518.86 88.1202 519.05 88.0702C519.24 88.0102 519.36 87.9802 519.42 87.9602C519.48 87.9402 519.58 87.8502 519.73 87.6802C519.88 87.5102 519.97 87.4002 520.01 87.3402C520.05 87.2802 520.15 87.1002 520.32 86.8002C520.49 86.5002 520.61 86.2702 520.69 86.1202C523.25 81.8602 524.54 77.5802 524.54 73.2802C524.54 70.6402 524.05 68.1302 523.07 65.7602C522.09 63.3902 520.84 61.3902 519.31 59.7702C517.78 58.1502 516.06 56.8602 514.14 55.9002C512.22 54.9402 510.33 54.4602 508.48 54.4602C507.54 54.4602 506.63 54.5302 505.77 54.6602C504.9 54.7902 504.09 55.0002 503.34 55.2802C502.59 55.5602 501.91 55.8402 501.3 56.1002C500.7 56.3602 500.08 56.7302 499.46 57.2002C498.84 57.6702 498.34 58.0502 497.96 58.3302C497.58 58.6102 497.14 59.0402 496.63 59.6002C496.12 60.1602 495.78 60.5402 495.61 60.7302C495.44 60.9202 495.15 61.2802 494.73 61.8002L494.11 62.5902V63.6602C494.11 67.7702 493.38 71.6602 491.93 75.3402C490.48 79.0202 488.66 82.0902 486.47 84.5602C484.28 87.0302 481.9 89.1802 479.32 91.0102C476.74 92.8402 474.31 94.1802 472.03 95.0302C469.75 95.8802 467.8 96.3002 466.18 96.3002C463.8 96.3002 461.84 95.4902 460.3 93.8702C458.76 92.2502 457.98 90.9502 457.98 89.9702C457.98 89.0602 459.4 87.5702 462.25 85.4702C465.1 83.3702 467.24 82.3302 468.67 82.3302C468.86 82.3302 469 82.4102 469.09 82.5802C469.18 82.7502 469.27 82.9702 469.34 83.2302C469.42 83.4902 469.59 83.8502 469.88 84.3002C470.17 84.7502 470.51 85.2002 470.93 85.6602C472.51 87.3202 474.27 88.1502 476.19 88.1502C476.98 88.1502 477.5 88.0602 477.75 87.8702C477.99 87.6802 478.42 87.0602 479.02 86.0002C481.66 81.4402 482.98 76.6502 482.98 71.6402C482.98 67.2702 481.32 63.3102 478 59.7602C474.68 56.2202 471.02 54.4402 467.03 54.4402C463.04 54.4402 459.57 55.4702 456.74 57.5202C453.91 59.5802 451.1 62.9202 448.31 67.5602C448.35 80.0002 448.54 87.0702 448.88 88.7702V88.9402L448.87 88.9602Z" fill="black"/>
<path d="M313.65 82.9102C312.52 82.9102 310.5 83.8702 307.6 85.7902C306.43 86.5402 305.42 87.0302 304.57 87.2302C303.72 87.4402 302.26 87.5402 300.19 87.5402C299.66 87.5402 298.27 87.5402 296 87.5102C293.74 87.4902 291.68 87.4802 289.84 87.4802C292.18 85.9002 294.45 83.9602 296.65 81.6802C298.86 79.4002 300.84 76.6502 302.59 73.4202C304.34 70.2002 305.22 67.1002 305.22 64.1202C305.22 59.7102 303.44 55.6402 299.87 51.9002C296.3 48.1602 292.02 46.3002 287 46.3002C285.38 46.3002 283.62 46.5102 281.74 46.9202C279.85 47.3402 277.67 48.0502 275.18 49.0702C272.69 50.0902 270.01 51.6402 267.12 53.7402C264.23 55.8402 261.44 58.3702 258.72 61.3502C258.64 59.7302 258.44 58.1102 258.1 56.4902C257.76 54.8702 257.26 53.2702 256.6 51.6802C255.94 50.1002 255.04 48.8202 253.91 47.8302C252.78 46.8502 251.5 46.3602 250.06 46.3602C249.94 46.3602 249.8 46.3902 249.68 46.4002V46.3802C249.34 46.3802 238.41 46.3102 236.77 46.3102C234.77 46.3102 231.03 46.1302 230.15 46.1402C219.95 46.3202 193.85 46.3102 181.27 46.3102C177.98 46.3102 179.98 46.3202 177.1 46.3102C177.29 46.0902 173.91 46.5702 174.12 46.3102C175.99 44.0502 178.15 41.2702 180.59 37.9702C183.03 34.6702 185.61 31.4002 188.34 28.1702C191.07 24.9302 193.95 22.3002 196.98 20.2802C200.01 18.2602 202.77 17.5002 205.25 18.0002C207 18.3602 208.35 19.3302 209.28 20.9102C210.21 22.4902 210.49 24.1802 210.13 25.9702C209.91 27.0402 209.53 27.9202 209 28.6002C208.46 29.2902 207.98 29.6802 207.56 29.8002C206.17 30.1902 204.98 30.6602 204 31.1902C203.02 31.7302 202.49 32.1602 202.42 32.5102C202.37 32.7802 202.64 32.9702 203.25 33.1002C204.24 33.3002 205.68 33.2502 207.57 32.9402C209.46 32.6302 211.47 32.0902 213.59 31.3402C215.71 30.5802 217.64 29.3902 219.38 27.7802C221.12 26.1702 222.21 24.2902 222.64 22.1602C223.27 19.0702 222.76 16.2002 221.12 13.5402C219.48 10.8802 217.13 9.24021 214.08 8.62021C212.02 8.20021 209.85 8.32021 207.57 8.96021C205.29 9.61021 202.98 10.7602 200.64 12.4102C198.3 14.0602 196.04 15.8602 193.87 17.8302C191.7 19.7902 189.4 22.1902 186.98 25.0402C184.55 27.8802 182.42 30.4702 180.57 32.7902C178.73 35.1202 176.7 37.8002 174.49 40.8502C172.53 43.5202 171.07 44.8802 170.34 46.3402C153.27 46.2302 144.28 46.5902 143.1 46.0002C141.89 45.4302 141.29 44.5302 141.29 43.2902C141.29 43.0602 141.31 42.8402 141.35 42.6102C141.39 42.3802 141.43 42.1802 141.49 41.9902C141.55 41.8002 141.61 41.6302 141.69 41.4802C141.76 41.3302 141.82 41.2202 141.86 41.1402L141.92 40.9702C141.92 40.6702 141.75 40.5202 141.41 40.5202C140.66 40.5202 139.43 41.0902 137.73 42.2202C136.03 43.3502 134.45 44.7702 132.98 46.4902C131.51 48.2102 130.77 49.7002 130.77 50.9902C130.77 53.1002 131.64 54.4202 133.37 54.9502C134.12 55.1802 139.14 55.3702 148.41 55.5202C146.15 57.1802 144.02 59.0802 142.02 61.2302C140.02 63.3802 138.25 65.9402 136.7 68.9202C135.15 71.9002 134.38 74.7602 134.38 77.5202C134.38 80.4602 135.1 83.3702 136.53 86.2602C137.96 89.1402 140.02 91.5502 142.69 93.4702C145.37 95.3902 148.29 96.3502 151.46 96.3502C152.44 96.3502 153.44 96.2702 154.46 96.1002C155.48 95.9302 156.4 95.7502 157.23 95.5602C158.06 95.3702 158.97 95.0502 159.97 94.6002C160.97 94.1502 161.79 93.7702 162.43 93.4702C163.07 93.1702 163.89 92.6902 164.89 92.0302C165.89 91.3702 166.61 90.9002 167.07 90.6202C167.52 90.3402 168.22 89.8102 169.16 89.0402C170.1 88.2702 170.71 87.7802 170.97 87.5702C171.23 87.3602 171.82 86.8602 172.72 86.0702C173.62 85.2802 174.11 84.8602 174.19 84.8302C177.88 92.4802 183.3 96.3102 190.42 96.3102C194.76 96.3102 199.32 95.0002 204.11 92.3802C208.9 89.7602 213.21 86.4002 217.06 82.2902C216.8 111.81 216.61 126.87 216.49 127.48C216.19 129.33 215.61 131.03 214.77 132.6C213.92 134.16 212.99 135.42 211.97 136.36C210.95 137.3 209.95 138.14 208.97 138.88C207.99 139.62 207.17 140.26 206.51 140.8C205.85 141.35 205.52 141.83 205.52 142.24C205.52 142.54 205.76 142.69 206.25 142.69C207.15 142.69 208.64 142.17 210.72 141.14C212.79 140.1 215.02 138.7 217.39 136.93C218.48 136.1 219.74 135.04 221.15 133.76C222.56 132.48 223.52 131.7 224.01 131.44C225.86 130.42 227.29 129.47 228.31 128.58C229.33 127.69 229.84 127.03 229.84 126.57C229.84 126.46 230.73 125.54 230.66 125.46C230.02 124.48 228.71 124.06 228.6 122.55C228.49 121.04 229.11 117.15 229.08 111.79C229.04 102.1 229 81.7902 229 81.7902C228.92 71.2702 228.92 66.7002 228.92 64.2902V54.5102C232.09 54.5702 233.82 54.6102 235.92 54.5702C236.18 54.5702 236.48 54.5302 236.79 54.4902C239.55 54.5102 243.96 56.4302 245.29 58.7902C246.72 61.3302 247.44 65.2502 247.44 70.5302L247.38 74.6602C247.38 77.4502 247.35 80.3302 247.3 83.2802C247.24 86.2402 247.18 87.9302 247.1 88.3402C246.87 89.7702 246.37 91.0302 245.6 92.1002C244.83 93.1702 244.06 93.9602 243.31 94.4502C242.56 94.9402 241.88 95.4202 241.27 95.8902C240.67 96.3602 240.36 96.7802 240.36 97.1602C240.36 97.4602 240.66 97.6102 241.27 97.6102C242.44 97.6102 244.15 97.1202 246.42 96.1402C249.59 95.9102 254.05 95.8002 259.82 95.8002C266.15 95.8002 272.47 95.9202 278.77 96.1702C285.07 96.4202 288.65 96.5402 289.52 96.5402C292.5 96.5402 294.92 96.2002 296.79 95.5202C298.66 94.8402 301.38 93.3902 304.96 91.1702C311.14 87.2902 314.23 84.7002 314.23 83.4202C314.23 83.1202 314.02 82.9702 313.61 82.9702L313.65 82.9102ZM176.5 67.2402C174.16 71.5002 172.99 75.3502 172.99 78.7802C172.99 79.4202 173.01 79.8902 173.05 80.1902C171.13 83.0902 169.36 85.1502 167.76 86.3602C166.16 87.5702 163.87 88.1702 160.89 88.1702C157.01 88.1702 153.48 86.2702 150.31 82.4602C147.14 78.6502 145.56 74.6002 145.56 70.3002C145.56 68.5702 145.79 66.9402 146.24 65.4402C146.69 63.9302 147.42 62.4802 148.42 61.0802C149.42 59.6902 150.17 58.7002 150.68 58.1402C151.19 57.5702 152.01 56.7102 153.14 55.5402C155.97 55.5802 159.94 55.6002 165.07 55.6002C170.57 55.6002 178.04 55.5202 187.47 55.3702C182.49 59.0302 178.84 62.9902 176.5 67.2502V67.2402ZM217.17 75.2702C216.3 76.6702 215.72 77.6002 215.42 78.0702C215.12 78.5402 214.54 79.3902 213.69 80.6102C212.84 81.8402 212.16 82.6802 211.65 83.1502C211.14 83.6202 210.41 84.2602 209.44 85.0702C208.47 85.8802 207.56 86.4502 206.7 86.7902C205.83 87.1302 204.8 87.4402 203.59 87.7202C202.38 88.0002 201.1 88.1402 199.74 88.1402C195.74 88.1402 192.14 86.3602 188.94 82.8002C185.73 79.2402 184.13 75.3302 184.13 71.0702C184.13 69.3002 184.38 67.5902 184.89 65.9502C185.4 64.3102 186.17 62.7502 187.21 61.2802C188.25 59.8102 189.08 58.7302 189.7 58.0302C190.32 57.3302 191.2 56.4002 192.33 55.2302C200.93 55.0402 208.82 54.8002 216.03 54.4902C216.14 55.1302 216.28 55.7402 216.45 56.3302C216.62 56.9102 216.75 57.4402 216.85 57.9102C216.94 58.3802 217.03 59.4902 217.1 61.2202C217.18 62.9502 217.21 65.3502 217.21 68.4002C217.21 71.1902 217.19 73.4702 217.15 75.2402L217.17 75.2702ZM289.27 83.4402C288.59 84.2102 288.05 84.8202 287.66 85.2502C287.26 85.6802 286.79 86.1602 286.25 86.6602C285.7 87.1702 285.41 87.4402 285.37 87.4802C273.49 87.4802 264.86 87.6102 259.47 87.8802C259.17 86.0702 258.98 79.3002 258.9 67.5802C259.05 67.3502 259.3 67.0002 259.64 66.5102C260.51 65.2302 261.08 64.3902 261.36 63.9902C261.64 63.5902 262.23 62.8202 263.11 61.6702C264 60.5202 264.71 59.7302 265.26 59.2902C265.81 58.8602 266.59 58.2402 267.61 57.4502C268.63 56.6602 269.6 56.1002 270.52 55.7802C271.44 55.4602 272.55 55.1602 273.83 54.8702C275.11 54.5902 276.45 54.4502 277.85 54.4502C281.62 54.4502 285.25 56.1402 288.74 59.5102C292.23 62.8902 293.97 66.8702 293.97 71.4702C293.97 72.6802 293.84 73.8702 293.57 75.0602C293.31 76.2502 292.94 77.3402 292.47 78.3402C292 79.3402 291.52 80.2402 291.03 81.0502C290.54 81.8602 289.96 82.6502 289.28 83.4302L289.27 83.4402Z" fill="black"/>
<path d="M277.4 18.24C277.74 18.24 278.12 18.43 278.54 18.81C278.96 19.19 279.72 19.97 280.84 21.14C281.96 22.31 283.08 23.43 284.22 24.49C284.79 25.02 285.14 25.38 285.27 25.57C285.4 25.76 285.47 26.04 285.47 26.42C285.47 26.72 285.44 26.96 285.39 27.13C285.33 27.3 285.15 27.53 284.85 27.81C284.55 28.09 284.21 28.4 283.83 28.72C283.45 29.04 282.84 29.62 282.01 30.45C281.18 31.28 280.29 32.21 279.34 33.23C278.81 33.8 278.45 34.15 278.26 34.28C278.07 34.41 277.79 34.48 277.41 34.48C277.11 34.48 276.87 34.45 276.7 34.39C276.53 34.33 276.3 34.15 276.02 33.85C275.74 33.55 275.43 33.21 275.11 32.83C274.79 32.45 274.21 31.85 273.38 31.01C272.55 30.18 271.62 29.29 270.6 28.34C269.73 27.54 269.29 26.9 269.29 26.41C269.29 25.88 269.73 25.24 270.6 24.48C271.4 23.72 272.17 22.97 272.93 22.24C273.69 21.5 274.27 20.9 274.66 20.45C275.06 20 275.45 19.59 275.83 19.23C276.21 18.87 276.51 18.61 276.74 18.46C276.97 18.31 277.19 18.23 277.42 18.23L277.4 18.24Z" fill="black"/>
<path d="M476.66 23.3399C476.88 23.2099 477.11 23.1399 477.33 23.1399C477.55 23.1399 477.78 23.2099 478 23.3399C478.22 23.4699 478.51 23.6999 478.87 24.0099C479.22 24.3299 479.58 24.6799 479.94 25.0499C480.3 25.4199 480.8 25.9499 481.46 26.6199C482.11 27.2899 482.76 27.9299 483.4 28.5299C484.41 29.4999 484.92 30.2299 484.92 30.7199C484.92 31.0899 484.74 31.4899 484.39 31.8999C484.03 32.3099 483.29 33.0599 482.17 34.1499C481.05 35.2399 480.04 36.2499 479.14 37.1799C478.69 37.6699 478.38 37.9599 478.21 38.0499C478.04 38.1399 477.77 38.1899 477.39 38.1899C477.13 38.1899 476.92 38.1599 476.77 38.1099C476.62 38.0499 476.41 37.8899 476.12 37.6299C475.84 37.3699 475.54 37.0699 475.22 36.7299C474.9 36.3899 474.35 35.8199 473.56 35.0199C472.77 34.2199 471.89 33.3599 470.92 32.4599C470.17 31.7499 469.8 31.1499 469.8 30.6599C469.8 30.2499 470.31 29.5399 471.32 28.5299C471.96 27.9299 472.6 27.2899 473.26 26.6199C473.91 25.9499 474.41 25.4199 474.75 25.0499C475.09 24.6799 475.43 24.3299 475.79 24.0099C476.15 23.6899 476.44 23.4699 476.66 23.3399ZM486.71 7.35986C487.08 7.35986 487.46 7.50986 487.83 7.80986C488.2 8.10986 488.91 8.79986 489.94 9.88986C490.97 10.9799 491.9 11.9099 492.72 12.6999C493.77 13.7099 494.29 14.4399 494.29 14.8899C494.29 15.1099 494.21 15.3499 494.07 15.5899C493.92 15.8299 493.68 16.1399 493.34 16.5199C493 16.8899 492.63 17.2699 492.22 17.6399C491.81 18.0099 491.26 18.5499 490.56 19.2399C489.87 19.9299 489.18 20.6399 488.51 21.3499C488.02 21.8399 487.69 22.1399 487.53 22.2499C487.36 22.3599 487.09 22.4199 486.71 22.4199C486.45 22.4199 486.24 22.3899 486.09 22.3399C485.94 22.2799 485.73 22.1199 485.44 21.8599C485.16 21.5999 484.86 21.2999 484.54 20.9599C484.22 20.6199 483.67 20.0499 482.88 19.2499C482.09 18.4499 481.21 17.5899 480.24 16.6899C479.53 16.0199 479.17 15.4199 479.17 14.8899C479.17 14.4399 479.68 13.7099 480.69 12.6999C481.33 12.0999 481.97 11.4699 482.63 10.8199C483.28 10.1699 483.78 9.64986 484.12 9.27986C484.46 8.90986 484.8 8.55986 485.16 8.23986C485.51 7.91986 485.81 7.69986 486.03 7.56986C486.25 7.43986 486.48 7.36986 486.7 7.36986L486.71 7.35986ZM495.36 23.3399C495.58 23.2099 495.81 23.1399 496.03 23.1399C496.25 23.1399 496.48 23.2099 496.7 23.3399C496.92 23.4699 497.21 23.6999 497.57 24.0099C497.93 24.3299 498.28 24.6799 498.64 25.0499C498.99 25.4199 499.5 25.9499 500.16 26.6199C500.82 27.2899 501.46 27.9299 502.1 28.5299C503.11 29.4999 503.62 30.2299 503.62 30.7199C503.62 31.0899 503.44 31.4899 503.09 31.8999C502.73 32.3099 502 33.0599 500.87 34.1499C499.75 35.2399 498.74 36.2499 497.84 37.1799C497.39 37.6699 497.07 37.9599 496.89 38.0499C496.71 38.1399 496.42 38.1899 496.05 38.1899C495.79 38.1899 495.58 38.1599 495.43 38.1099C495.28 38.0499 495.07 37.8899 494.78 37.6299C494.5 37.3699 494.2 37.0699 493.88 36.7299C493.56 36.3899 493.01 35.8199 492.22 35.0199C491.43 34.2199 490.55 33.3599 489.58 32.4599C488.87 31.7899 488.51 31.2099 488.51 30.7199C488.51 30.2699 489.02 29.5399 490.03 28.5299C490.67 27.9299 491.31 27.2899 491.97 26.6199C492.63 25.9499 493.12 25.4199 493.46 25.0499C493.8 24.6799 494.14 24.3299 494.5 24.0099C494.85 23.6899 495.15 23.4699 495.37 23.3399H495.36Z" fill="black"/>
</g>
<defs>
<clipPath id="clip0_430_18">
<rect width="535.73" height="157.11" fill="white"/>
</clipPath>
</defs>
</svg>
