<svg width="557" height="224" viewBox="0 0 557 224" fill="none" xmlns="http://www.w3.org/2000/svg">
<g clip-path="url(#clip0_425_30)">
<path d="M27.14 133.65C22.15 133.65 17.59 131.93 13.49 128.49C9.38 125.05 6.27 120.86 4.17 115.92C2.06 110.98 1.01 106.07 1.01 101.19C1.01 97.41 1.73 93.56 3.17 89.62C4.61 85.68 6.51 82.04 8.87 78.71C11.23 75.38 13.68 72.37 16.24 69.68C18.79 66.99 21.4 64.64 24.06 62.65C12.57 62.48 6.16 62.29 4.83 62.07C3.44 61.85 2.29 61.2 1.37 60.11C0.46 59.03 0 57.68 0 56.07C0 53.07 2.09 49.73 6.29 46.04C10.48 42.35 13.57 40.5 15.57 40.5C16.12 40.5 16.4 40.72 16.4 41.17C16.4 41.56 16.23 42 15.9 42.5C15.57 43 15.4 43.58 15.4 44.25C15.4 45.31 15.72 46.26 16.36 47.12C17 47.98 17.84 48.58 18.9 48.91C21.73 49.91 46.06 50.41 91.9 50.41C141.95 50.41 170.01 49.89 176.06 48.83C177.67 48.55 179.33 48 181.05 47.17C182.77 46.34 184.27 45.87 185.54 45.75C185.76 45.98 185.87 46.25 185.87 46.59C185.87 48.03 184 50.06 180.25 52.67C176.5 55.28 172.94 57.22 169.55 58.5C168.55 62.94 167.91 72.75 167.64 87.92C167.36 103.1 167.22 126.33 167.22 157.63V171.7C167.22 173.58 167.15 174.78 167.01 175.28C166.87 175.78 166.5 176.45 165.89 177.28C164.11 179.72 162.03 181.79 159.65 183.48C157.26 185.17 154.5 187.02 151.37 189.02C148.24 191.02 145.34 193.32 142.67 195.93C139.78 198.82 136.58 202.77 133.06 207.79C129.54 212.81 127.55 215.52 127.11 215.91C124.83 217.96 122.27 219.7 119.41 221.11C116.55 222.53 114.43 223.23 113.04 223.23C112.37 223.23 112.04 223.04 112.04 222.65C112.04 222.43 112.3 221.74 112.83 220.57C113.36 219.41 114.54 217.48 116.37 214.79C118.2 212.1 120.48 209.39 123.2 206.67C124.14 205.73 124.71 205.1 124.91 204.8C125.11 204.5 125.34 203.82 125.62 202.76C128.01 194.32 129.2 170.29 129.2 130.67V124.3C129.2 122.16 129.19 120.32 129.16 118.76C129.13 117.21 129.12 115.82 129.12 114.6V110.6C123.79 116.82 117.34 122.21 109.77 126.79C102.2 131.37 94.55 133.66 86.84 133.66C83.9 133.66 81.14 133.09 78.56 131.96C75.98 130.82 73.88 129.53 72.27 128.09C70.66 126.65 69.11 124.87 67.61 122.76C66.11 120.65 65.1 119.07 64.57 118.01C64.04 116.96 63.5 115.76 62.95 114.43C51.13 127.25 39.2 133.66 27.16 133.66L27.14 133.65ZM41.46 121.75C45.84 121.75 49.33 120.68 51.91 118.54C54.49 116.41 57.44 112.17 60.77 105.85C60.71 105.24 60.69 104.32 60.69 103.1C60.69 95.83 62.92 88.53 67.39 81.21C71.86 73.88 77.28 67.78 83.66 62.9C80.16 62.96 73.92 62.98 64.93 62.98C53.28 62.98 41.98 62.9 31.05 62.73C29.83 63.95 28.84 64.96 28.1 65.77C27.35 66.57 26.23 67.98 24.73 69.97C23.23 71.96 22.02 73.88 21.11 75.71C20.2 77.54 19.36 79.78 18.61 82.41C17.86 85.05 17.49 87.72 17.49 90.44C17.49 98.26 19.95 105.44 24.86 111.96C29.77 118.48 35.31 121.74 41.47 121.74L41.46 121.75ZM101.06 121.75C104.06 121.75 106.64 121.45 108.8 120.84C110.96 120.23 113.18 119.05 115.46 117.3C117.73 115.55 119.94 113.08 122.08 109.89C124.22 106.7 126.51 102.58 128.95 97.53C128.84 92.03 128.73 86.91 128.62 82.17C128.51 77.42 128.41 73.86 128.33 71.47C128.25 69.08 128.2 67.42 128.2 66.48V65.31C128.2 64.98 128.23 64.67 128.28 64.39C128.34 64.11 128.38 63.9 128.4 63.77C128.42 63.64 128.48 63.47 128.57 63.27C128.65 63.08 128.71 62.95 128.74 62.9C128.77 62.85 128.85 62.71 128.99 62.48C129.13 62.26 129.22 62.12 129.28 62.06C118.18 62.39 105.42 62.64 90.99 62.81C81.78 71.63 77.17 81.29 77.17 91.78C77.17 99.83 79.68 106.83 84.7 112.8C89.72 118.77 95.17 121.75 101.06 121.75ZM151.42 96.94C151.42 84.79 151.68 76.34 152.21 71.59C152.74 66.85 153.78 63.36 155.33 61.14C152.55 61.31 148.67 61.47 143.68 61.64C144.4 88.94 144.76 113.36 144.76 134.89C144.76 164.19 144.2 182.31 143.1 189.24C146.26 186.75 149.23 184.52 152.01 182.58C151.95 168.04 151.84 151.49 151.68 132.93C151.51 114.37 151.43 102.37 151.43 96.93L151.42 96.94Z" fill="black"/>
<path d="M242.06 102.11C242.06 97.5602 243.23 93.0002 245.56 88.4202C247.89 83.8402 250.9 79.7602 254.59 76.1902C258.28 72.6102 262.28 69.3902 266.58 66.5302C270.88 63.6702 275.14 61.4802 279.36 59.9502C283.58 58.4302 287.24 57.6602 290.35 57.6602C300.78 57.6602 309.26 61.5802 315.78 69.4402C322.3 77.2902 325.56 87.1302 325.56 98.9502C325.56 107.27 324.39 115.88 322.06 124.75C319.73 133.63 316.28 142.52 311.7 151.43C307.12 160.34 300.95 168.91 293.18 177.15C285.41 185.39 276.53 192.43 266.54 198.25C262.38 200.69 259.35 201.91 257.47 201.91C256.75 201.91 256.39 201.66 256.39 201.16C256.39 200.44 256.96 199.61 258.1 198.66C259.24 197.71 260.75 196.69 262.64 195.58C264.53 194.47 266.8 192.89 269.47 190.84C272.13 188.79 274.87 186.48 277.67 183.93C280.47 181.38 283.51 177.95 286.78 173.65C290.05 169.35 293.11 164.59 295.94 159.38C304.71 143.18 309.09 126.33 309.09 108.85C309.09 97.6402 305.86 88.2902 299.39 80.8002C292.93 73.3102 285.34 69.5602 276.62 69.5602C275.95 69.5602 275.12 69.6002 274.12 69.6802C273.12 69.7602 271.75 70.0402 270 70.5102C268.25 70.9802 267.02 71.6102 266.3 72.3802C261.08 77.8202 258.48 84.1702 258.48 91.4402C258.48 98.1002 260.62 103.93 264.89 108.92C269.16 113.91 274.38 116.41 280.54 116.41C282.59 116.41 284.63 115.84 286.66 114.7C288.68 113.56 290.17 112.99 291.11 112.99C291.44 112.99 291.69 113.05 291.86 113.16C292.03 113.27 292.08 113.46 292.03 113.74C291.92 114.85 290.53 116.54 287.87 118.82C285.21 121.1 281.74 123.24 277.47 125.27C273.2 127.3 269.26 128.31 265.65 128.31C259.55 128.31 254.09 125.88 249.29 121.03C244.49 116.18 242.09 109.86 242.09 102.09L242.06 102.11Z" fill="black"/>
<path d="M411.95 60.1501C419.61 60.1501 426.39 62.8301 432.3 68.1801C438.21 73.5401 441.17 79.7101 441.17 86.7001C441.17 88.0901 441.03 89.6601 440.75 91.4001C440.47 93.1501 439.9 95.6201 439.04 98.8101C438.18 102 436.61 105.4 434.34 109C432.06 112.61 429.23 115.99 425.85 119.16C421.91 122.77 417.36 126.08 412.2 129.11C407.04 132.13 401.91 133.64 396.8 133.64C393.19 133.64 390.11 132.34 387.56 129.73C385.01 127.12 383.73 125.01 383.73 123.4C383.73 122.01 385.81 119.81 389.97 116.78C394.13 113.75 397.24 112.24 399.29 112.24C399.68 112.24 399.94 112.32 400.08 112.49C400.22 112.65 400.3 112.9 400.33 113.24C400.36 113.58 400.55 114.09 400.91 114.78C401.27 115.47 401.78 116.21 402.45 116.98C405.06 120.15 408.33 121.73 412.27 121.73C414.32 121.73 415.57 121.51 416.02 121.06C416.52 120.67 417.39 119.56 418.64 117.73C419.89 115.9 421.21 113.04 422.59 109.16C423.98 105.27 424.67 101.39 424.67 97.5101C424.67 90.8501 421.92 84.9501 416.43 79.8201C410.94 74.6901 404.83 72.1201 398.12 72.1201C394.85 72.1201 391.75 72.5701 388.84 73.4501C385.93 74.3401 383.47 75.3501 381.47 76.4901C379.47 77.6301 377.4 79.2201 375.27 81.2801C373.13 83.3301 371.51 85.0201 370.4 86.3601C369.29 87.6901 367.87 89.5001 366.15 91.7701C366.21 96.1001 366.25 104.78 366.28 117.83C366.31 130.87 366.33 143.02 366.36 154.29C366.39 165.56 366.43 171.72 366.49 172.77C366.55 174.27 366.68 175.59 366.91 176.72C367.13 177.86 367.37 178.65 367.62 179.09C367.87 179.53 368.09 179.92 368.29 180.25C368.48 180.58 368.58 180.83 368.58 181C368.58 181.67 367.91 182.54 366.58 183.62C365.25 184.7 363.63 185.87 361.71 187.12C359.8 188.37 358.56 189.21 358.01 189.66C353.68 193.27 349.51 196.22 345.48 198.53C341.45 200.83 338.67 201.98 337.11 201.98C336.44 201.98 336.11 201.73 336.11 201.23C336.11 200.56 336.66 199.76 337.77 198.82C338.88 197.87 340.14 196.88 341.56 195.82C342.98 194.76 344.4 193.06 345.85 190.7C347.29 188.34 348.29 185.66 348.85 182.67C348.96 182 349.09 174.97 349.22 161.57C349.36 148.17 349.46 134.94 349.51 121.91L349.59 102.35C349.59 97.6301 349.37 93.4601 348.92 89.8201C348.48 86.1901 347.92 83.3301 347.26 81.2401C346.59 79.1601 345.8 77.4501 344.89 76.1201C343.98 74.7901 343.11 73.9001 342.31 73.4601C341.5 73.0201 340.66 72.7901 339.77 72.7901C339.44 72.7901 339.05 72.8601 338.6 73.0001C338.16 73.1401 337.74 73.2801 337.35 73.4101C336.96 73.5501 336.59 73.6601 336.23 73.7401C335.87 73.8201 335.59 73.8201 335.4 73.7401C335.21 73.6601 335.11 73.4501 335.11 73.1201C335.11 72.2301 336.11 70.7601 338.11 68.7101C340.11 66.6601 342.65 64.7301 345.73 62.9301C348.81 61.1301 351.52 60.2301 353.85 60.2301C360.73 60.2301 364.73 68.1401 365.84 83.9501C370.22 79.3501 374.75 75.3901 379.41 72.0901C384.07 68.7901 388.43 66.3201 392.48 64.6801C396.53 63.0401 400.14 61.8801 403.3 61.1801C406.46 60.4801 409.35 60.1401 411.96 60.1401L411.95 60.1501Z" fill="black"/>
<path d="M264.24 4.87C261.19 1.62 257.44 0 253 0C250 0 247.01 0.78 244.01 2.33C241.01 3.88 238.11 6.14 235.31 9.11C232.51 12.08 229.87 15.24 227.4 18.6C224.93 21.96 222.41 25.97 219.83 30.63C217.25 35.29 215 39.51 213.09 43.28C211.18 47.06 209.11 51.38 206.89 56.27C206.05 58.11 205.34 59.73 204.75 61.2C203.68 61.63 202.57 62.19 201.4 62.9C198.49 64.67 196.07 66.57 194.16 68.6C192.24 70.63 191.29 72.08 191.29 72.97C191.29 73.25 191.39 73.43 191.58 73.51C191.77 73.59 192.04 73.59 192.37 73.51C192.7 73.43 193.04 73.34 193.37 73.26C193.7 73.18 194.04 73.08 194.37 72.97C194.7 72.86 194.95 72.8 195.12 72.8C196.06 72.8 196.98 73.16 197.87 73.88C198.76 74.6 199.64 75.75 200.53 77.33C201.42 78.91 202.14 81.27 202.69 84.4C203.24 87.53 203.52 91.21 203.52 95.43C203.52 110.75 203.33 119.57 202.94 121.9C202.61 124.01 201.88 125.85 200.78 127.44C199.67 129.02 198.56 130.17 197.45 130.89C196.34 131.61 195.34 132.32 194.45 133.01C193.56 133.71 193.12 134.33 193.12 134.88C193.12 135.32 193.51 135.55 194.29 135.55C197.06 135.55 202.25 133.73 209.86 130.1C217.46 126.47 221.26 123.84 221.26 122.23C221.26 121.79 221.23 121.43 221.18 121.15C220.74 118.6 220.46 111.37 220.35 99.47C220.24 87.57 220.07 80.45 219.85 78.12C219.74 76.68 219.53 75.21 219.23 73.71C218.93 72.21 218.4 70.31 217.65 68.01C216.9 65.71 215.79 63.83 214.32 62.39C213.03 61.13 211.56 60.42 209.91 60.26C211.36 57.4 212.93 54.17 214.61 50.56C217.08 45.26 219.76 39.96 222.64 34.66C225.53 29.36 228.8 24.87 232.46 21.18C236.12 17.49 239.76 15.64 243.36 15.64C245.91 15.64 248.06 16.61 249.81 18.55C251.56 20.49 252.43 22.77 252.43 25.38C252.43 26.93 252.15 28.26 251.6 29.38C251.04 30.49 250.49 31.18 249.94 31.46C248.11 32.41 246.58 33.39 245.36 34.41C244.14 35.44 243.53 36.2 243.53 36.7C243.53 37.09 243.97 37.28 244.86 37.28C246.3 37.28 248.3 36.79 250.85 35.82C253.4 34.85 256.05 33.53 258.8 31.86C261.55 30.2 263.9 27.99 265.87 25.24C267.84 22.49 268.83 19.57 268.83 16.46C268.83 11.97 267.3 8.09 264.25 4.85L264.24 4.87Z" fill="black"/>
<path d="M286.71 20.3901C287.21 20.3901 287.76 20.6701 288.37 21.2301C288.98 21.7801 290.1 22.9201 291.74 24.6401C293.38 26.3601 295.03 28.0001 296.69 29.5501C297.52 30.3301 298.03 30.8501 298.23 31.1301C298.42 31.4101 298.52 31.8201 298.52 32.3801C298.52 32.8301 298.48 33.1701 298.4 33.4201C298.32 33.6701 298.05 34.0001 297.61 34.4201C297.17 34.8401 296.67 35.2801 296.11 35.7501C295.55 36.2201 294.67 37.0701 293.45 38.2901C292.23 39.5101 290.92 40.8701 289.54 42.3701C288.76 43.2101 288.23 43.7201 287.96 43.9101C287.68 44.1101 287.27 44.2001 286.71 44.2001C286.27 44.2001 285.92 44.1601 285.67 44.0701C285.42 43.9901 285.09 43.7201 284.67 43.2801C284.26 42.8401 283.81 42.3401 283.34 41.7801C282.87 41.2301 282.02 40.3401 280.8 39.1201C279.58 37.9001 278.22 36.6001 276.72 35.2101C275.44 34.0401 274.81 33.1001 274.81 32.3801C274.81 31.6101 275.45 30.6601 276.72 29.5501C277.89 28.4401 279.02 27.3401 280.13 26.2601C281.24 25.1801 282.09 24.3001 282.67 23.6401C283.25 22.9701 283.82 22.3801 284.38 21.8501C284.93 21.3201 285.38 20.9501 285.71 20.7201C286.04 20.5001 286.38 20.3901 286.71 20.3901Z" fill="black"/>
<path d="M547.93 68.1901C542.02 62.8301 535.24 60.1601 527.58 60.1601C524.97 60.1601 522.1 60.5101 518.97 61.2001C515.83 61.8901 512.25 63.0601 508.23 64.7001C504.21 66.3401 499.87 68.7901 495.2 72.0601C490.54 75.3401 486.04 79.2501 481.72 83.8001C481.5 76.9201 480.25 71.2701 477.97 66.8601C477.5 65.9501 476.99 65.1601 476.46 64.4301C477.43 63.6901 478.64 62.4501 480.1 60.6701C482.76 57.4401 485.81 53.4701 489.28 48.7501C492.74 44.0401 496.41 39.3701 500.28 34.7401C504.15 30.1101 508.24 26.3401 512.56 23.4401C516.88 20.5401 520.8 19.4401 524.34 20.1501C526.84 20.6501 528.76 22.0201 530.1 24.2701C531.43 26.5201 531.84 28.9201 531.33 31.4801C531.03 33.0001 530.49 34.2501 529.73 35.2301C528.97 36.2101 528.29 36.7801 527.69 36.9401C525.71 37.5101 524.02 38.1701 522.62 38.9401C521.22 39.7101 520.47 40.3301 520.37 40.8301C520.29 41.2101 520.69 41.4901 521.56 41.6601C522.97 41.9401 525.03 41.8601 527.72 41.4101C530.41 40.9601 533.27 40.1801 536.29 39.0901C539.31 38.0001 542.05 36.3001 544.52 33.9901C546.99 31.6801 548.53 29.0101 549.14 25.9601C550.02 21.5501 549.28 17.4601 546.93 13.6801C544.57 9.90006 541.22 7.57005 536.87 6.70005C533.93 6.11005 530.84 6.29005 527.6 7.22005C524.36 8.16005 521.07 9.80006 517.74 12.1701C514.41 14.5301 511.2 17.1201 508.12 19.9201C505.04 22.7301 501.78 26.1601 498.33 30.2301C494.88 34.2901 491.85 37.9901 489.24 41.3101C486.62 44.6401 483.75 48.4801 480.61 52.8301C477.5 57.1101 475.5 60.2901 474.59 62.3901C472.93 60.9701 471.04 60.2401 468.9 60.2401C466.62 60.2401 464 61.1301 461.03 62.9001C458.06 64.6701 455.6 66.5901 453.66 68.6401C451.72 70.6901 450.75 72.1601 450.75 73.0501C450.75 73.3301 450.85 73.51 451.04 73.59C451.23 73.67 451.5 73.67 451.83 73.59C452.16 73.51 452.5 73.4101 452.83 73.3001C453.16 73.1901 453.52 73.0801 453.91 72.9701C454.3 72.8601 454.6 72.8001 454.83 72.8001C457.44 72.8001 459.8 74.6701 461.91 78.4201C464.02 82.1701 465.07 87.9301 465.07 95.6901L464.99 101.77C464.99 105.88 464.95 110.11 464.87 114.46C464.79 118.82 464.69 121.3 464.58 121.91C464.25 124.02 463.51 125.86 462.37 127.45C461.23 129.03 460.11 130.18 459 130.9C457.89 131.62 456.89 132.33 456 133.02C455.11 133.72 454.67 134.34 454.67 134.89C454.67 135.33 455.06 135.56 455.84 135.56C458.61 135.56 463.82 133.74 471.45 130.11C479.08 126.48 482.9 123.85 482.9 122.24C482.9 122.13 482.89 122.02 482.86 121.91C482.83 121.8 482.82 121.69 482.82 121.58C482.82 121.47 482.79 121.26 482.74 120.96C482.68 120.66 482.64 120.28 482.61 119.84C482.58 119.39 482.54 118.78 482.49 118.01C482.43 117.24 482.39 116.35 482.37 115.35C482.34 114.35 482.3 113.09 482.24 111.56C482.18 110.04 482.14 108.35 482.11 106.53C482.08 104.7 482.04 102.52 481.99 99.9901C481.93 97.4601 481.91 94.7301 481.91 91.7901C483.68 89.4601 485.1 87.64 486.16 86.34C487.21 85.04 488.82 83.3601 490.99 81.3001C493.15 79.2501 495.22 77.6501 497.19 76.5101C499.16 75.3701 501.6 74.3601 504.52 73.4701C507.43 72.5801 510.53 72.1401 513.8 72.1401C520.51 72.1401 526.62 74.71 532.11 79.84C537.6 84.97 540.35 90.8701 540.35 97.5301C540.35 101.41 539.66 105.3 538.27 109.18C536.88 113.06 535.56 115.92 534.32 117.75C533.07 119.58 532.2 120.69 531.7 121.08C531.26 121.53 530.01 121.75 527.95 121.75C524.01 121.75 520.73 120.17 518.13 117C517.46 116.23 516.95 115.49 516.59 114.8C516.23 114.11 516.04 113.59 516.01 113.26C515.98 112.93 515.9 112.68 515.76 112.51C515.62 112.34 515.36 112.26 514.97 112.26C512.92 112.26 509.81 113.77 505.65 116.8C501.49 119.82 499.41 122.03 499.41 123.42C499.41 125.03 500.69 127.14 503.24 129.75C505.79 132.36 508.87 133.66 512.48 133.66C515.7 133.66 519.29 132.89 523.26 131.33C527.23 129.78 531.17 127.54 535.08 124.63C538.99 121.72 542.59 118.39 545.86 114.64C549.13 110.89 551.78 106.56 553.81 101.65C555.83 96.7401 556.85 91.7601 556.85 86.7101C556.85 79.7201 553.89 73.5501 547.99 68.1901H547.93Z" fill="black"/>
</g>
<defs>
<clipPath id="clip0_425_30">
<rect width="556.79" height="223.22" fill="white"/>
</clipPath>
</defs>
</svg>
