<svg width="674" height="247" viewBox="0 0 674 247" fill="none" xmlns="http://www.w3.org/2000/svg">
<g clip-path="url(#clip0_452_33)">
<path d="M28.9706 151.361C23.6395 151.361 18.7806 149.526 14.3939 145.854C10.0072 142.182 6.6943 137.711 4.44002 132.432C2.18574 127.16 1.06621 121.912 1.06621 116.701C1.06621 112.672 1.83541 108.558 3.37381 104.346C4.9122 100.141 6.93801 96.2558 9.45885 92.706C11.9797 89.1486 14.5995 85.934 17.326 83.0621C20.0525 80.1903 22.8322 77.6841 25.6805 75.5512C13.4191 75.376 6.57245 75.1627 5.15591 74.9266C3.67844 74.6904 2.44468 73.9896 1.46985 72.8394C0.495028 71.6891 0 70.2494 0 68.5278C0 65.3284 2.23144 61.7558 6.70954 57.8175C11.18 53.8792 14.4853 51.9062 16.6177 51.9062C17.2118 51.9062 17.5088 52.1424 17.5088 52.6147C17.5088 53.026 17.3336 53.5059 16.9757 54.0392C16.6177 54.5724 16.4426 55.197 16.4426 55.9055C16.4426 57.0329 16.7853 58.0536 17.4631 58.9754C18.1409 59.8971 19.0472 60.5294 20.1743 60.8874C23.1978 61.9538 49.1753 62.4871 98.107 62.4871C151.54 62.4871 181.485 61.9234 187.943 60.796C189.664 60.4989 191.439 59.9047 193.274 59.0211C195.11 58.1298 196.709 57.6271 198.072 57.5128C198.308 57.7489 198.43 58.046 198.43 58.404C198.43 59.9428 196.427 62.1062 192.429 64.8942C188.431 67.6823 184.623 69.7542 181.013 71.1178C179.947 75.8559 179.269 86.3301 178.972 102.54C178.675 118.751 178.53 143.561 178.53 176.979V192.001C178.53 194.012 178.454 195.292 178.309 195.825C178.164 196.358 177.761 197.067 177.106 197.958C175.21 200.563 172.986 202.772 170.442 204.578C167.898 206.383 164.943 208.356 161.6 210.489C158.257 212.622 155.157 215.082 152.316 217.863C149.24 220.94 145.812 225.168 142.05 230.531C138.288 235.894 136.171 238.781 135.699 239.2C133.269 241.394 130.528 243.245 127.481 244.753C124.427 246.261 122.165 247.023 120.68 247.023C119.972 247.023 119.614 246.817 119.614 246.398C119.614 246.162 119.896 245.423 120.459 244.174C121.023 242.932 122.28 240.868 124.237 237.996C126.194 235.124 128.624 232.23 131.525 229.327C132.53 228.322 133.14 227.651 133.345 227.324C133.551 226.996 133.802 226.273 134.099 225.145C136.643 216.134 137.922 190.485 137.922 148.177V141.375C137.922 139.097 137.907 137.124 137.877 135.463C137.846 133.803 137.831 132.325 137.831 131.022V126.757C132.142 133.391 125.257 139.158 117.169 144.041C109.081 148.931 100.925 151.377 92.6921 151.377C89.5544 151.377 86.6071 150.767 83.8502 149.556C81.0932 148.345 78.8618 146.966 77.1406 145.42C75.4195 143.881 73.7668 141.984 72.1675 139.729C70.5682 137.475 69.4867 135.791 68.9232 134.664C68.3596 133.536 67.7808 132.264 67.1868 130.84C54.5673 144.528 41.8337 151.369 28.9782 151.369L28.9706 151.361ZM44.2555 138.655C48.9316 138.655 52.6558 137.513 55.4051 135.235C58.162 132.957 61.315 128.432 64.8715 121.683C64.8106 121.028 64.7802 120.053 64.7802 118.751C64.7802 110.988 67.1639 103.195 71.9314 95.3722C76.6989 87.5489 82.4946 81.0359 89.3031 75.8178C85.5713 75.8788 78.9075 75.9092 69.3116 75.9092C56.8749 75.9092 44.8191 75.8178 33.144 75.6426C31.8417 76.9452 30.7908 78.0269 29.9911 78.8877C29.1914 79.7485 27.9881 81.2415 26.3888 83.3745C24.7895 85.5074 23.5024 87.5489 22.52 89.5066C21.5375 91.4643 20.6541 93.8486 19.8544 96.6595C19.0548 99.4704 18.6511 102.335 18.6511 105.237C18.6511 113.593 21.271 121.249 26.5183 128.212C31.758 135.174 37.6678 138.655 44.2479 138.655H44.2555ZM107.878 138.655C111.077 138.655 113.834 138.328 116.141 137.68C118.449 137.025 120.817 135.768 123.247 133.902C125.676 132.036 128.03 129.4 130.314 125.995C132.591 122.59 135.036 118.187 137.648 112.794C137.526 106.928 137.412 101.459 137.29 96.3929C137.169 91.3272 137.07 87.5184 136.978 84.9742C136.887 82.4299 136.841 80.6474 136.841 79.6419V78.4002C136.841 78.0422 136.872 77.7222 136.932 77.4251C136.993 77.1281 137.031 76.9071 137.07 76.7548C137.1 76.6101 137.161 76.4272 137.245 76.2216C137.336 76.0159 137.389 75.8788 137.42 75.8178C137.45 75.7569 137.542 75.6122 137.686 75.376C137.831 75.1399 137.938 74.9875 137.999 74.9342C126.148 75.2922 112.524 75.5588 97.1245 75.734C87.2925 85.157 82.3727 95.4636 82.3727 106.661C82.3727 115.254 85.0535 122.734 90.415 129.103C95.7765 135.471 101.595 138.655 107.878 138.655ZM161.638 112.169C161.638 99.1886 161.92 90.1694 162.484 85.1037C163.047 80.038 164.159 76.3206 165.819 73.9515C162.857 74.1267 158.714 74.3095 153.383 74.4848C154.152 103.637 154.54 129.712 154.54 152.702C154.54 183.987 153.946 203.336 152.766 210.74C156.14 208.074 159.308 205.705 162.27 203.633C162.209 188.109 162.095 170.436 161.912 150.615C161.737 130.794 161.646 117.981 161.646 112.177L161.638 112.169Z" fill="black"/>
<path d="M385.65 141.946C385.65 146.212 384.142 150.691 381.118 155.368C378.095 160.045 374.02 164.433 368.903 168.524C363.777 172.614 358.073 176.332 351.798 179.676C345.514 183.02 338.866 185.679 331.852 187.629C324.83 189.586 318.212 190.561 311.99 190.561C305.113 190.561 298.571 189.594 292.348 187.674C286.126 185.747 280.673 183.096 275.997 179.722C271.314 176.347 267.597 172.15 264.848 167.145C262.091 162.14 260.712 156.732 260.712 150.927C260.712 146.486 261.261 142.098 262.357 137.772C263.454 133.445 264.756 129.598 266.264 126.216C267.772 122.834 269.851 119.345 272.486 115.726C275.121 112.116 277.46 109.137 279.508 106.791C281.549 104.452 284.2 101.832 287.459 98.922C290.719 96.0197 293.179 93.8868 294.831 92.5232C296.491 91.1597 298.769 89.3848 301.67 87.1909C302.561 86.4825 303.209 85.9797 303.627 85.6827C296.811 85.2104 290.147 84.9742 283.636 84.9742C278.663 84.9742 274.025 85.1189 269.729 85.416C265.434 85.7131 262.053 86.0102 259.6 86.3073C257.141 86.6044 255.648 86.7491 255.115 86.7491C254.346 86.7491 253.957 86.6044 253.957 86.3073C253.957 84.8828 255.945 82.6204 259.913 79.5048C263.881 76.3968 267.11 74.5686 269.6 74.0354C276.766 72.5576 285.532 71.811 295.905 71.811C303.605 71.811 315.348 72.3443 331.136 73.4107C346.923 74.4772 358.134 75.0104 364.767 75.0104C369.504 75.0104 373.876 74.8352 377.874 74.4772C381.872 74.1192 384.98 73.784 387.203 73.4564C389.427 73.1289 390.768 72.9689 391.247 72.9689C391.956 72.9689 392.314 73.1746 392.314 73.5936C392.314 74.8352 390.57 76.9148 387.074 79.8171C383.578 82.7194 380.38 84.6467 377.478 85.5912C376.001 86.1245 372.353 86.6729 366.549 87.2366C360.746 87.8003 354.76 88.0822 348.599 88.0822C340.427 88.0822 328.044 87.4575 311.457 86.2159C302.866 92.0814 296.08 98.1602 291.107 104.437C282.516 115.338 278.221 126.985 278.221 139.364C278.221 144.399 279.211 149.053 281.199 153.319C283.187 157.585 285.822 161.188 289.104 164.121C292.394 167.054 296.179 169.575 300.475 171.678C304.77 173.78 309.21 175.319 313.802 176.301C318.395 177.276 323.002 177.772 327.617 177.772C334.076 177.772 340.488 176.781 346.855 174.793C353.222 172.805 357.768 170.809 360.495 168.79C362.216 167.602 363.914 165.576 365.605 162.704C367.296 159.832 368.141 156.671 368.141 153.235C368.141 149.503 366.93 146.227 364.501 143.416C362.071 140.605 359.109 138.869 355.613 138.213C355.141 138.153 354.905 137.916 354.905 137.505C354.905 136.081 357.136 133.727 361.614 130.436C366.085 127.145 369.36 125.5 371.431 125.5C372.322 125.5 373.487 125.797 374.942 126.391C376.397 126.985 377.95 127.869 379.611 129.057C381.271 130.245 382.687 131.975 383.875 134.26C385.063 136.538 385.65 139.105 385.65 141.946Z" fill="black"/>
<path d="M404.05 16.6216C402.862 16.6216 401.46 17.0101 399.831 17.7794C398.201 18.5488 397.264 18.9373 397.028 18.9373C396.67 18.9373 396.495 18.6707 396.495 18.1375C396.495 16.8958 397.607 14.839 399.831 11.9596C402.054 9.08777 404.865 6.37591 408.269 3.82402C411.673 1.27975 414.712 0 417.377 0C421.048 0 424.62 1.70634 428.085 5.1114C431.55 8.51645 434.673 12.7137 437.46 17.688C439.296 21.0093 447.308 38.0574 461.496 68.8401C475.684 99.6227 484.054 117.387 486.598 122.125C491.99 132.317 496.46 137.414 500.017 137.414C500.138 137.414 500.375 137.353 500.725 137.238C501.083 137.116 501.448 137.017 501.837 136.926C502.225 136.835 502.591 136.751 502.949 136.659C503.307 136.568 503.604 136.583 503.84 136.705C504.076 136.827 504.198 137.033 504.198 137.33C504.198 138.99 501.624 141.763 496.468 145.64C491.312 149.518 487.313 151.46 484.473 151.46C482.698 151.46 480.863 150.379 478.967 148.215C477.07 146.052 475.113 142.944 473.102 138.884C471.092 134.824 469.18 130.71 467.368 126.528C465.563 122.354 463.43 117.433 460.97 111.773C458.51 106.113 456.332 101.39 454.436 97.5964C454.314 97.7716 453.073 100.072 450.704 104.483C448.336 108.901 446.615 112.085 445.548 114.035C444.482 115.985 442.959 118.613 440.971 121.904C438.983 125.195 437.255 127.846 435.77 129.857C431.863 135.189 426.692 140.125 420.264 144.658C413.836 149.19 408.048 151.46 402.892 151.46C400.699 151.46 398.719 150.988 396.937 150.036C395.162 149.091 393.928 148.154 393.25 147.233C392.573 146.311 392.23 145.648 392.23 145.229C392.23 143.866 394.454 141.527 398.894 138.206C403.334 134.884 406.654 133.231 408.848 133.231C409.206 133.231 409.586 133.483 410.005 133.986C410.417 134.488 410.851 135.037 411.292 135.631C411.734 136.225 412.503 136.774 413.6 137.276C414.697 137.779 416.014 138.031 417.553 138.031C419.921 138.031 421.429 137.642 422.084 136.873C422.853 135.867 424.392 133.468 426.707 129.674C429.014 125.88 432.183 120.198 436.211 112.611C440.24 105.024 443.88 97.4974 447.14 90.0322C448.084 87.9602 448.8 86.5662 449.272 85.8577C435.351 54.7475 426.615 36.4958 423.059 31.1102C419.502 25.7169 416.067 21.9539 412.755 19.8209C409.434 17.688 406.532 16.6216 404.05 16.6216Z" fill="black"/>
<path d="M515.385 86.4825C515.149 86.4825 514.791 86.5435 514.319 86.6577C513.847 86.7796 513.413 86.9091 513.032 87.0615C512.644 87.2062 512.263 87.3281 511.874 87.4195C511.486 87.5109 511.174 87.5109 510.938 87.4195C510.702 87.3281 510.58 87.1376 510.58 86.8406C510.58 85.896 511.646 84.3191 513.778 82.1329C515.911 79.939 518.607 77.867 521.866 75.9093C525.126 73.9516 527.997 72.9766 530.487 72.9766C532.148 72.9766 533.61 73.4793 534.889 74.4848C536.161 75.4904 537.197 76.991 537.997 78.9716C538.796 80.9598 539.451 83.0318 539.954 85.1952C540.457 87.3585 540.83 90.0552 541.066 93.285C541.302 96.5149 541.454 99.4019 541.508 101.954C541.569 104.498 541.599 107.553 541.599 111.11V119.375C541.66 164.174 541.744 187.751 541.866 190.127C541.926 192.199 542.147 193.921 542.536 195.284C542.924 196.648 543.274 197.577 543.602 198.088C543.929 198.59 544.089 198.903 544.089 199.025C544.089 199.733 543.183 200.845 541.378 202.361C539.573 203.869 537.456 205.279 535.027 206.581C534.905 206.642 533.663 207.648 531.295 209.605C528.926 211.563 526.375 213.589 523.656 215.692C520.93 217.794 517.967 219.752 514.768 221.557C511.57 223.363 509.019 224.269 507.13 224.269C506.361 224.269 505.972 224.033 505.972 223.561C505.972 222.852 506.46 222.083 507.442 221.253C508.417 220.422 509.666 219.447 511.174 218.32C512.682 217.193 514.228 215.905 515.797 214.45C517.365 212.995 518.828 211.076 520.199 208.676C521.562 206.277 522.506 203.595 523.039 200.632C523.161 199.924 523.291 192.557 523.443 178.549C523.588 164.532 523.694 150.683 523.755 136.995L523.847 116.465C523.847 106.989 523.222 99.6229 521.981 94.382C520.739 89.1411 518.546 86.513 515.408 86.513L515.385 86.4825Z" fill="black"/>
<path d="M674 101.238C674 106.631 672.919 111.948 670.756 117.189C668.593 122.43 665.767 127.054 662.272 131.053C658.776 135.052 654.938 138.61 650.764 141.718C646.591 144.826 642.379 147.217 638.145 148.871C633.91 150.531 630.072 151.361 626.637 151.361C622.784 151.361 619.494 149.967 616.775 147.187C614.048 144.399 612.685 142.152 612.685 140.43C612.685 138.952 614.909 136.599 619.349 133.361C623.789 130.131 627.109 128.516 629.303 128.516C629.714 128.516 629.996 128.608 630.148 128.783C630.293 128.958 630.384 129.225 630.415 129.583C630.445 129.941 630.651 130.489 631.039 131.228C631.428 131.967 631.976 132.752 632.684 133.582C635.472 136.957 638.96 138.648 643.171 138.648C645.365 138.648 646.697 138.412 647.169 137.939C647.703 137.528 648.639 136.34 649.972 134.382C651.305 132.424 652.714 129.377 654.191 125.226C655.669 121.082 656.415 116.93 656.415 112.786C656.415 105.679 653.483 99.3791 647.619 93.9021C641.755 88.425 635.235 85.6827 628.069 85.6827C624.573 85.6827 621.268 86.155 618.161 87.1072C615.054 88.0518 612.441 89.1411 610.339 90.3523C608.237 91.5635 606.029 93.2698 603.721 95.4637C601.414 97.6575 599.692 99.4477 598.565 100.842C597.438 102.236 595.93 104.178 594.034 106.662C594.034 109.8 594.064 112.717 594.125 115.414C594.186 118.111 594.224 120.434 594.262 122.392C594.293 124.35 594.338 126.14 594.399 127.77C594.46 129.4 594.498 130.748 594.536 131.815C594.567 132.881 594.613 133.826 594.674 134.656C594.735 135.486 594.773 136.134 594.811 136.614C594.841 137.086 594.887 137.49 594.948 137.817C595.009 138.145 595.039 138.366 595.039 138.488C595.039 138.61 595.054 138.724 595.085 138.846C595.115 138.968 595.131 139.082 595.131 139.204C595.131 140.925 591.056 143.721 582.915 147.606C574.766 151.483 569.214 153.426 566.251 153.426C565.421 153.426 565.01 153.19 565.01 152.717C565.01 152.123 565.482 151.46 566.434 150.714C567.379 149.975 568.445 149.221 569.633 148.444C570.821 147.675 572.017 146.441 573.235 144.757C574.446 143.066 575.238 141.101 575.588 138.846C575.71 138.191 575.809 135.547 575.901 130.893C575.992 126.239 576.038 121.721 576.038 117.341L576.129 110.851C576.129 102.556 575.002 96.4082 572.755 92.409C570.501 88.4098 567.988 86.4064 565.2 86.4064C564.964 86.4064 564.637 86.4673 564.226 86.5816C563.814 86.7034 563.426 86.8177 563.068 86.9396C562.71 87.0615 562.36 87.1605 562.002 87.2519C561.644 87.3433 561.362 87.3433 561.156 87.2519C560.951 87.1605 560.844 86.9701 560.844 86.673C560.844 85.7284 561.88 84.1516 563.951 81.9653C566.023 79.7714 568.643 77.7299 571.819 75.8332C574.987 73.9364 577.782 72.9918 580.219 72.9918C584.248 72.9918 587.477 75.3456 589.906 80.0609C592.336 84.7686 593.668 90.8017 593.904 98.145C598.527 93.285 603.325 89.1106 608.298 85.6141C613.271 82.1177 617.909 79.4972 622.205 77.7452C626.5 76.0007 630.323 74.7515 633.667 74.0126C637.01 73.2737 640.079 72.9004 642.867 72.9004C651.038 72.9004 658.281 75.757 664.594 81.4778C670.9 87.1986 674.061 93.7878 674.061 101.253L674 101.238Z" fill="black"/>
<path d="M226.875 65.4122C228.734 62.7612 230.074 60.9026 230.896 59.8285C238.398 49.5524 244.117 40.914 248.055 33.9135C251.992 26.9129 253.965 21.3064 253.965 17.0786C253.965 12.8509 252.548 9.81144 249.707 7.38144C246.874 4.95905 243.089 3.74023 238.36 3.74023C231.361 3.74023 223.768 6.42162 215.573 11.7768C210.212 15.3113 206.541 18.5717 204.561 21.5654C202.573 24.5591 201.583 27.6061 201.583 30.6912C201.583 34.8504 202.086 36.93 203.099 36.93C205.559 36.93 209.153 35.178 213.875 31.6815C218.604 28.185 220.965 25.6789 220.965 24.163L220.585 22.5557C220.394 21.5501 220.303 20.537 220.303 19.5315C220.303 18.7164 220.394 17.7337 220.585 16.5987C230.226 17.0405 235.055 21.0778 235.055 28.703C235.055 31.1635 234.582 33.7763 233.638 36.5491C231.749 42.0338 229.48 47.4728 226.83 52.866C224.179 58.2593 221.818 62.5632 219.739 65.7778C217.66 68.9924 215.878 71.9557 214.401 74.6675C213.845 75.6807 213.395 76.5871 213.053 77.387C210.829 78.8953 208.917 80.4721 207.318 82.1099C205.185 84.3038 204.119 85.873 204.119 86.8176C204.119 87.1146 204.241 87.3051 204.477 87.3965C204.713 87.4879 205.025 87.4879 205.414 87.3965C205.802 87.3051 206.183 87.1908 206.571 87.0385C206.96 86.8937 207.386 86.7566 207.859 86.6347C208.331 86.5129 208.689 86.4595 208.925 86.4595C212.062 86.4595 214.256 89.08 215.497 94.3285C216.739 99.5694 217.363 106.936 217.363 116.412L217.272 136.941C217.211 150.63 217.104 164.479 216.959 178.495C216.815 192.504 216.678 199.87 216.556 200.578C216.023 203.542 215.078 206.223 213.715 208.623C212.352 211.022 210.882 212.949 209.313 214.397C207.744 215.852 206.206 217.139 204.69 218.266C203.182 219.394 201.933 220.369 200.959 221.199C199.984 222.03 199.489 222.799 199.489 223.507C199.489 223.98 199.877 224.216 200.646 224.216C202.543 224.216 205.086 223.309 208.285 221.504C211.484 219.699 214.446 217.741 217.173 215.638C219.899 213.536 222.443 211.502 224.811 209.552C227.18 207.594 228.421 206.589 228.543 206.528C230.973 205.225 233.09 203.816 234.895 202.308C236.7 200.799 237.606 199.687 237.606 198.971C237.606 198.849 237.438 198.537 237.119 198.034C236.791 197.531 236.441 196.594 236.052 195.231C235.664 193.867 235.443 192.153 235.382 190.074C235.26 187.705 235.176 164.121 235.116 119.322V111.057C235.116 107.499 235.085 104.452 235.024 101.9C234.963 99.3561 234.819 96.469 234.582 93.2316C234.346 90.0017 233.973 87.3051 233.471 85.1417C232.968 82.9783 232.313 80.9063 231.513 78.9181C230.714 76.9299 229.678 75.4369 228.406 74.4314C227.134 73.4259 225.664 72.9231 224.004 72.9231C223.098 72.9231 222.131 73.0602 221.118 73.3192C221.613 72.6717 222.077 72.0547 222.511 71.4681C223.555 70.0513 225.002 68.0174 226.86 65.3664L226.875 65.4122Z" fill="black"/>
<path d="M525.834 27.5682C526.367 27.5682 526.961 27.8653 527.609 28.4594C528.264 29.0536 529.459 30.2648 531.211 32.1006C532.955 33.9365 534.722 35.6885 536.496 37.3415C537.387 38.1718 537.928 38.7355 538.141 39.0326C538.347 39.3297 538.454 39.7715 538.454 40.3657C538.454 40.838 538.408 41.2112 538.317 41.4779C538.225 41.7445 537.943 42.1025 537.471 42.5443C536.999 42.9861 536.466 43.4661 535.872 43.9688C535.278 44.4716 534.333 45.3781 533.031 46.6807C531.729 47.9833 530.335 49.4382 528.858 51.0379C528.028 51.9292 527.464 52.4777 527.167 52.6833C526.87 52.889 526.428 52.9956 525.834 52.9956C525.362 52.9956 524.989 52.9499 524.722 52.8585C524.456 52.7671 524.098 52.4929 523.656 52.013C523.214 51.5407 522.735 51.0075 522.232 50.4133C521.729 49.8191 520.823 48.8745 519.521 47.5719C518.218 46.2693 516.764 44.8753 515.164 43.3975C513.801 42.1558 513.123 41.1427 513.123 40.3733C513.123 39.543 513.801 38.5375 515.164 37.3491C516.406 36.1608 517.624 34.9953 518.805 33.8374C519.993 32.6796 520.892 31.7502 521.516 31.0342C522.141 30.3181 522.742 29.6859 523.336 29.1222C523.93 28.5584 524.402 28.1623 524.76 27.9186C525.118 27.6824 525.469 27.5605 525.827 27.5605L525.834 27.5682Z" fill="black"/>
</g>
<defs>
<clipPath id="clip0_452_33">
<rect width="674" height="247" fill="white"/>
</clipPath>
</defs>
</svg>
