<svg width="522" height="118" viewBox="0 0 522 118" fill="none" xmlns="http://www.w3.org/2000/svg">
<path d="M0.52 41.32C0.17 41.32 0 41.16 0 40.85C0 40.06 1.08 38.77 3.24 36.98C5.4 35.19 7.7 33.88 10.16 33.06C15.51 31.27 21.35 30.37 27.68 30.37C32.72 30.37 40.15 31.17 49.97 32.78C59.79 34.38 67.11 35.19 71.93 35.19C75.55 35.19 78.69 34.96 81.35 34.51C84.01 34.05 85.97 33.6 87.23 33.14C88.49 32.68 89.26 32.46 89.54 32.46C89.92 32.46 90.11 32.6 90.11 32.88C90.11 33.61 89.21 34.75 87.42 36.31C85.63 37.87 83.81 39.09 81.99 39.97C80.45 40.73 77.95 41.49 74.5 42.26C71.05 43.03 67.13 43.42 62.72 43.42C59.41 43.42 56.04 43.22 52.61 42.81C49.18 42.4 43.94 41.63 36.88 40.5C33.64 42.23 30.82 44.01 28.43 45.84V91.6C34.35 94.24 40.71 95.57 47.51 95.57C53.24 95.57 58.53 94.77 63.38 93.16C68.23 91.56 71.22 90.14 72.35 88.91C74.46 86.67 75.51 84.12 75.51 81.26C75.51 79.28 74.95 77.54 73.83 76.04C72.71 74.55 71.16 73.58 69.18 73.14C68.77 73.11 68.57 72.92 68.57 72.57C68.57 71.66 69.97 70.19 72.77 68.16C75.57 66.13 77.62 65.11 78.91 65.11C79.45 65.11 80.11 65.28 80.92 65.63C81.72 65.98 82.56 66.47 83.42 67.12C84.29 67.76 85.03 68.69 85.64 69.88C86.25 71.08 86.56 72.42 86.56 73.89C86.56 76.19 85.88 78.51 84.53 80.86C83.18 83.2 81.51 85.28 79.55 87.09C77.58 88.9 75.35 90.64 72.84 92.31C70.34 93.98 68.08 95.33 66.06 96.37C64.04 97.41 62.17 98.28 60.44 98.97C52.76 102.06 45.22 103.6 37.82 103.6C35.27 103.6 32.7 103.4 30.12 103.01C27.54 102.62 24.95 102.03 22.35 101.24C19.75 100.45 17.34 99.4 15.1 98.07C12.86 96.75 10.88 95.23 9.15 93.51C7.42 91.79 6.05 89.72 5.04 87.3C4.03 84.88 3.53 82.26 3.53 79.46C3.53 76.66 3.92 73.93 4.69 71.19C5.46 68.45 6.4 66.02 7.5 63.89C8.6 61.76 10.07 59.57 11.89 57.3C13.72 55.03 15.35 53.17 16.78 51.7C18.21 50.24 20.02 48.63 22.19 46.88C24.36 45.13 25.98 43.87 27.05 43.1C28.12 42.33 29.52 41.35 31.25 40.15C31.34 40.09 31.41 40.04 31.46 40.01C31.51 39.98 31.57 39.93 31.65 39.87C31.73 39.81 31.8 39.76 31.86 39.73C31.8 39.73 31.07 39.64 29.69 39.45C28.3 39.26 26.49 39.07 24.26 38.88C22.02 38.69 19.84 38.6 17.7 38.6C14.42 38.6 11.47 38.83 8.82 39.28C6.18 39.74 4.17 40.19 2.8 40.65C1.43 41.11 0.67 41.33 0.51 41.33L0.52 41.32ZM14.59 72.3C14.59 75.07 15.05 77.53 15.96 79.69C16.87 81.85 18.37 84.01 20.45 86.18V54.25C16.55 60.3 14.59 66.31 14.59 72.29V72.3Z" fill="black"/>
<path d="M130.87 38.73C133.86 38.73 136.53 39.5 138.87 41.04C141.21 42.58 143.11 44.83 144.56 47.79C151.23 41.78 157.42 38.77 163.12 38.77C165.39 38.77 167.49 39.26 169.43 40.23C171.37 41.21 172.93 42.46 174.13 43.98C175.33 45.51 176.26 47.14 176.92 48.87C177.58 50.6 177.91 52.27 177.91 53.88C177.91 57 176.78 60.18 174.51 63.42C172.24 66.66 169.57 69.43 166.48 71.73C167.71 71.73 169.12 71.73 170.71 71.75C172.3 71.77 173.31 71.77 173.76 71.77C175.33 71.77 176.48 71.7 177.18 71.56C177.89 71.42 178.62 71.1 179.38 70.59C182.06 68.83 183.96 67.95 185.09 67.95C185.47 67.95 185.66 68.08 185.66 68.33C185.66 69.62 182.76 72.11 176.97 75.79C171.9 79 168.03 80.61 165.35 80.61C161.57 80.61 154.31 80.44 143.56 80.09C132.81 79.75 124.28 79.57 117.99 79.57C110.72 79.57 103.81 79.78 97.26 80.18C94.87 81.19 93.13 81.69 92.07 81.69C91.47 81.69 91.17 81.53 91.17 81.22C91.17 80.91 91.41 80.53 91.9 80.09C92.39 79.65 92.95 79.21 93.6 78.77C94.24 78.33 94.65 78.01 94.8 77.83C95.59 76.86 96.08 76.04 96.26 75.37C96.61 74.05 96.81 69.72 96.87 62.38C97.03 43.93 97.12 33.54 97.15 31.21C97.15 30.96 97.17 30.04 97.22 28.45C97.27 26.86 97.29 25.48 97.29 24.32C97.29 13.77 95.84 8.5 92.95 8.5C92.82 8.5 92.64 8.54 92.38 8.62C92.13 8.7 91.89 8.77 91.67 8.83C91.45 8.89 91.23 8.95 91.01 9C90.79 9.05 90.62 9.04 90.49 8.98C90.36 8.92 90.3 8.79 90.3 8.6C90.3 8 90.97 7.02 92.31 5.65C93.65 4.28 95.3 3 97.27 1.8C99.24 0.6 100.93 0 102.35 0C102.98 0 103.55 0.13 104.07 0.38C104.59 0.63 105.11 1.09 105.63 1.75C106.15 2.41 106.61 3.42 107.02 4.77C107.43 6.12 107.74 7.81 107.96 9.82C108.31 12.97 108.51 26.35 108.57 49.96C109.8 48.73 111.17 47.52 112.7 46.32C114.23 45.12 115.97 43.93 117.94 42.73C119.91 41.53 122.02 40.57 124.29 39.83C126.56 39.09 128.75 38.72 130.85 38.72L130.87 38.73ZM121.9 46.71C120.51 46.71 119.26 46.86 118.15 47.16C117.03 47.46 116.07 47.83 115.27 48.27C114.47 48.71 113.65 49.38 112.81 50.28C111.98 51.18 111.28 52 110.73 52.76C110.18 53.52 109.46 54.59 108.58 55.97C108.64 64.85 108.77 70.23 108.96 72.12C114.12 71.74 120.96 71.51 129.46 71.41C132.92 67.95 134.65 64.26 134.65 60.36C134.65 56.71 133.28 53.52 130.54 50.8C127.8 48.08 124.92 46.72 121.9 46.72V46.71ZM154.2 46.71C153.63 46.71 153.1 46.73 152.59 46.78C152.09 46.83 151.61 46.93 151.17 47.09C150.73 47.25 150.34 47.37 150.01 47.47C149.68 47.56 149.34 47.75 149 48.04C148.65 48.32 148.39 48.53 148.2 48.65C148.01 48.77 147.76 49.02 147.44 49.38C147.13 49.74 146.92 49.98 146.83 50.09C146.74 50.2 146.52 50.47 146.19 50.89C145.86 51.32 145.68 51.56 145.65 51.62C145.68 52.38 145.7 52.93 145.7 53.27C145.7 56.36 144.6 59.52 142.39 62.76C140.19 66 137.54 68.87 134.46 71.36C139.62 71.36 144.84 71.41 150.12 71.5C155.39 71.59 159.24 71.66 161.67 71.69C162.65 70.68 163.45 69.78 164.08 69C164.71 68.21 165.34 67.07 165.97 65.58C166.6 64.09 166.91 62.53 166.91 60.93C166.91 57.56 165.59 54.35 162.94 51.3C160.29 48.25 157.38 46.72 154.2 46.72V46.71Z" fill="black"/>
<path d="M218 46.76C216.27 46.76 214.72 46.96 213.37 47.37C212.02 47.78 210.78 48.43 209.66 49.31C208.54 50.19 207.57 51.12 206.73 52.1C205.89 53.08 204.96 54.35 203.92 55.92C203.98 65.02 204.2 70.72 204.58 73.02C204.27 73.71 203.57 74.44 202.5 75.19C201.43 75.95 200.45 76.54 199.57 76.96C198.69 77.39 197.48 77.92 195.93 78.57C194.39 79.22 193.55 79.57 193.43 79.63C190.82 80.82 188.86 81.42 187.57 81.42C186.97 81.42 186.67 81.26 186.67 80.95C186.67 80.6 186.94 80.21 187.47 79.77C188.01 79.33 188.6 78.9 189.26 78.47C189.92 78.05 190.57 77.38 191.2 76.46C191.83 75.55 192.21 74.49 192.33 73.29C192.36 72.98 192.42 70.63 192.52 66.25C192.62 61.87 192.66 59.37 192.66 58.74C192.66 56.66 192.46 54.83 192.07 53.24C191.68 51.65 191.17 50.45 190.56 49.63C189.95 48.81 189.34 48.2 188.74 47.79C188.14 47.38 187.59 47.18 187.09 47.18C186.93 47.18 186.62 47.26 186.15 47.42C185.68 47.58 185.29 47.66 184.99 47.66C184.69 47.66 184.54 47.5 184.54 47.19C184.54 46.59 185.2 45.62 186.52 44.26C187.84 42.9 189.47 41.65 191.41 40.48C193.35 39.32 195.01 38.73 196.39 38.73C198.53 38.73 200.25 39.9 201.54 42.25C202.83 44.59 203.57 47.31 203.76 50.4C205.62 48.54 207.65 46.8 209.85 45.18C212.05 43.56 214.76 42.08 217.97 40.74C221.18 39.4 224.27 38.73 227.23 38.73C229.21 38.73 231.06 39.08 232.76 39.77C234.46 40.46 235.88 41.38 237.01 42.53C238.14 43.68 239.02 44.7 239.65 45.6C240.28 46.5 240.83 47.42 241.3 48.36C248.76 41.94 255.55 38.73 261.65 38.73C264.04 38.73 266.24 39.22 268.24 40.19C270.24 41.17 271.85 42.43 273.08 43.97C274.31 45.51 275.26 47.17 275.94 48.93C276.62 50.69 276.96 52.41 276.96 54.08C276.96 56.5 276.53 58.9 275.66 61.26C274.79 63.62 273.65 65.75 272.24 67.63C270.83 69.51 269.22 71.28 267.45 72.9C265.67 74.52 263.86 75.88 262.02 76.96C260.18 78.05 258.39 78.9 256.66 79.51C254.93 80.12 253.4 80.43 252.08 80.43C250.03 80.43 248.35 79.75 247.03 78.38C245.71 77.01 245.05 75.92 245.05 75.1C245.05 74.5 245.72 73.59 247.06 72.36C248.4 71.13 249.92 70.02 251.62 69.03C253.32 68.04 254.61 67.54 255.49 67.54C255.74 67.54 255.92 67.6 256.01 67.73C256.1 67.86 256.18 68.02 256.22 68.23C256.27 68.44 256.41 68.75 256.65 69.17C256.89 69.59 257.22 70.03 257.66 70.47C258.95 71.76 260.35 72.41 261.86 72.41H262.24C262.33 72.41 262.41 72.38 262.48 72.32C262.54 72.26 262.59 72.22 262.62 72.2C262.65 72.18 262.71 72.1 262.79 71.94C262.87 71.78 262.94 71.66 263 71.56C264.95 68.32 265.93 65.04 265.93 61.74C265.93 57.58 264.52 54.04 261.7 51.11C258.88 48.18 255.87 46.72 252.66 46.72C252.06 46.72 251.47 46.76 250.89 46.84C250.31 46.92 249.79 47.01 249.33 47.1C248.87 47.19 248.4 47.34 247.91 47.55C247.42 47.76 247.02 47.93 246.71 48.07C246.4 48.21 246.04 48.43 245.65 48.73C245.26 49.03 244.96 49.25 244.75 49.39C244.54 49.53 244.28 49.77 243.95 50.1C243.62 50.43 243.4 50.64 243.29 50.74C243.18 50.83 242.98 51.05 242.7 51.38C242.42 51.71 242.26 51.89 242.23 51.92V52.86C242.23 56.17 241.59 59.33 240.32 62.35C239.04 65.37 237.43 67.95 235.48 70.07C233.53 72.2 231.41 74.06 229.13 75.67C226.85 77.27 224.68 78.46 222.64 79.23C220.59 80 218.85 80.39 217.4 80.39C215.32 80.39 213.63 79.72 212.32 78.38C211.01 77.04 210.36 75.95 210.36 75.1C210.36 74.5 211.03 73.59 212.37 72.36C213.71 71.13 215.23 70.02 216.93 69.03C218.63 68.04 219.92 67.54 220.8 67.54C221.02 67.54 221.17 67.57 221.25 67.63C221.33 67.69 221.4 67.85 221.46 68.1C221.81 69.17 222.53 70.15 223.63 71.05C224.73 71.95 225.96 72.4 227.31 72.4C227.47 72.4 227.58 72.37 227.64 72.31C227.7 72.25 227.84 72.04 228.07 71.7C228.92 70.31 229.66 68.6 230.29 66.55C230.92 64.5 231.23 62.44 231.23 60.36C231.23 56.9 229.84 53.76 227.05 50.96C224.26 48.16 221.25 46.76 218.01 46.76H218Z" fill="black"/>
<path d="M320.11 38.73C323.1 38.73 325.77 39.5 328.11 41.04C330.45 42.58 332.35 44.83 333.8 47.79C340.47 41.78 346.66 38.77 352.36 38.77C354.63 38.77 356.73 39.26 358.67 40.23C360.61 41.21 362.17 42.46 363.37 43.98C364.57 45.51 365.5 47.14 366.16 48.87C366.82 50.6 367.15 52.27 367.15 53.88C367.15 57 366.02 60.18 363.75 63.42C361.48 66.66 358.81 69.43 355.72 71.73C356.95 71.73 358.36 71.73 359.95 71.75C361.54 71.77 362.55 71.77 363 71.77C364.57 71.77 365.72 71.7 366.42 71.56C367.13 71.42 367.86 71.1 368.62 70.59C371.3 68.83 373.2 67.95 374.33 67.95C374.71 67.95 374.9 68.08 374.9 68.33C374.9 69.62 372 72.11 366.21 75.79C361.14 79 357.27 80.61 354.59 80.61C350.81 80.61 343.55 80.44 332.8 80.09C322.05 79.75 313.52 79.57 307.23 79.57C299.96 79.57 293.05 79.78 286.5 80.18C284.11 81.19 282.37 81.69 281.31 81.69C280.71 81.69 280.41 81.53 280.41 81.22C280.41 80.91 280.65 80.53 281.14 80.09C281.63 79.65 282.19 79.21 282.84 78.77C283.48 78.33 283.89 78.01 284.04 77.83C284.83 76.86 285.32 76.04 285.5 75.37C285.85 74.05 286.05 69.72 286.11 62.38C286.27 43.93 286.36 33.54 286.39 31.21C286.39 30.96 286.41 30.04 286.46 28.45C286.51 26.86 286.53 25.48 286.53 24.32C286.53 13.77 285.08 8.5 282.19 8.5C282.06 8.5 281.88 8.54 281.62 8.62C281.37 8.7 281.13 8.77 280.91 8.83C280.69 8.89 280.47 8.95 280.25 9C280.03 9.05 279.86 9.04 279.73 8.98C279.6 8.92 279.54 8.79 279.54 8.6C279.54 8 280.21 7.02 281.55 5.65C282.89 4.28 284.54 3 286.51 1.8C288.48 0.6 290.17 0 291.59 0C292.22 0 292.79 0.13 293.31 0.38C293.83 0.63 294.35 1.09 294.87 1.75C295.39 2.41 295.85 3.42 296.26 4.77C296.67 6.12 296.98 7.81 297.2 9.82C297.55 12.97 297.75 26.35 297.81 49.96C299.04 48.73 300.41 47.52 301.94 46.32C303.47 45.12 305.21 43.93 307.18 42.73C309.15 41.53 311.26 40.57 313.53 39.83C315.8 39.09 317.99 38.72 320.09 38.72L320.11 38.73ZM311.14 46.71C309.75 46.71 308.5 46.86 307.39 47.16C306.27 47.46 305.31 47.83 304.51 48.27C303.71 48.71 302.89 49.38 302.05 50.28C301.22 51.18 300.52 52 299.97 52.76C299.42 53.52 298.7 54.59 297.82 55.97C297.88 64.85 298.01 70.23 298.2 72.12C303.36 71.74 310.2 71.51 318.7 71.41C322.16 67.95 323.89 64.26 323.89 60.36C323.89 56.71 322.52 53.52 319.78 50.8C317.04 48.08 314.16 46.72 311.14 46.72V46.71ZM343.44 46.71C342.87 46.71 342.34 46.73 341.83 46.78C341.33 46.83 340.85 46.93 340.41 47.09C339.97 47.25 339.58 47.37 339.25 47.47C338.92 47.56 338.58 47.75 338.24 48.04C337.89 48.32 337.63 48.53 337.44 48.65C337.25 48.77 337 49.02 336.68 49.38C336.37 49.74 336.16 49.98 336.07 50.09C335.98 50.2 335.76 50.47 335.43 50.89C335.1 51.32 334.92 51.56 334.89 51.62C334.92 52.38 334.94 52.93 334.94 53.27C334.94 56.36 333.84 59.52 331.63 62.76C329.43 66 326.78 68.87 323.7 71.36C328.86 71.36 334.08 71.41 339.36 71.5C344.63 71.59 348.48 71.66 350.91 71.69C351.89 70.68 352.69 69.78 353.32 69C353.95 68.21 354.58 67.07 355.21 65.58C355.84 64.09 356.15 62.53 356.15 60.93C356.15 57.56 354.83 54.35 352.18 51.3C349.53 48.25 346.62 46.72 343.44 46.72V46.71Z" fill="black"/>
<path d="M414.8 37.97C416.28 37.97 417.62 38.22 418.81 38.73C420.01 39.24 420.98 39.88 421.74 40.67C422.5 41.46 423.13 42.38 423.63 43.43C424.13 44.49 424.5 45.52 424.72 46.55C424.94 47.57 425.05 48.59 425.05 49.6C425.05 51.71 424.57 53.94 423.61 56.28C422.65 58.63 421.31 60.97 419.59 63.32C417.87 65.67 416.21 67.78 414.58 69.65C412.95 71.52 411.09 73.61 408.96 75.91C406.83 78.21 405.3 79.94 404.35 81.1C401.48 84.63 398.95 88.27 396.75 92.03C394.55 95.79 393.44 99.03 393.44 101.74C393.44 103.6 394.34 105.32 396.16 106.91C397.98 108.5 399.71 109.3 401.38 109.3C402.2 109.3 402.95 109.16 403.62 108.9C404.29 108.64 404.8 108.36 405.13 108.1C405.46 107.83 406 107.34 406.76 106.64C407.52 105.93 408.1 105.39 408.51 105.01C410.3 103.44 411.63 102.65 412.48 102.65C412.79 102.65 412.95 102.81 412.95 103.12C412.95 103.62 412.56 104.43 411.79 105.53C411.02 106.63 409.92 107.85 408.51 109.19C407.1 110.53 405.53 111.81 403.83 113.04C402.13 114.27 400.22 115.29 398.09 116.11C395.96 116.93 393.93 117.34 391.97 117.34C389.64 117.34 387.47 116.45 385.45 114.67C383.43 112.89 382.43 110.96 382.43 108.89C382.43 107.03 382.98 104.8 384.08 102.18C385.18 99.57 386.51 97.08 388.07 94.72C389.63 92.36 391.03 90.34 392.27 88.67C393.51 87 394.5 85.77 395.22 84.99C391.6 73.47 387.41 63.57 382.66 55.28C380.08 50.81 377.64 48.57 375.34 48.57C375.03 48.57 374.62 48.66 374.11 48.83C373.61 49 373.28 49.09 373.12 49.09C372.84 49.09 372.69 48.92 372.69 48.57C372.69 48.13 373.04 47.38 373.75 46.33C374.46 45.27 375.33 44.18 376.37 43.05C377.41 41.92 378.64 40.92 380.05 40.05C381.47 39.18 382.77 38.75 383.97 38.75C384.66 38.75 385.36 38.92 386.07 39.25C386.78 39.58 387.44 40.05 388.05 40.67C388.66 41.29 389.24 41.91 389.77 42.56C390.31 43.2 390.82 43.94 391.3 44.76C391.78 45.58 392.18 46.26 392.48 46.81C392.78 47.36 393.08 47.95 393.38 48.58C393.68 49.21 393.84 49.56 393.88 49.62C401.15 41.87 408.11 38 414.75 38L414.8 37.97ZM414.04 56.86C414.04 54.12 413.27 51.63 411.73 49.37C410.19 47.12 408.2 45.99 405.78 45.99C403.76 45.99 402.06 46.45 400.68 47.38C399.29 48.31 397.53 50.06 395.39 52.65C399.1 60.74 402 68.25 404.08 75.18C407.29 71.53 409.75 68.27 411.47 65.4C413.19 62.53 414.04 59.68 414.04 56.85V56.86Z" fill="black"/>
<path d="M462.26 46.76C460.53 46.76 458.99 46.96 457.63 47.37C456.27 47.78 455.04 48.43 453.92 49.31C452.8 50.19 451.83 51.12 450.99 52.1C450.15 53.08 449.22 54.35 448.18 55.92C448.24 65.02 448.46 70.72 448.84 73.02C448.53 73.71 447.83 74.44 446.76 75.19C445.69 75.94 444.71 76.54 443.83 76.96C442.95 77.39 441.74 77.92 440.19 78.57C438.65 79.22 437.81 79.57 437.69 79.63C435.08 80.82 433.12 81.42 431.83 81.42C431.23 81.42 430.93 81.26 430.93 80.95C430.93 80.6 431.2 80.21 431.73 79.77C432.26 79.33 432.86 78.9 433.52 78.47C434.18 78.05 434.83 77.38 435.46 76.46C436.09 75.54 436.47 74.49 436.59 73.29C436.62 72.98 436.68 70.63 436.78 66.25C436.88 61.87 436.92 59.37 436.92 58.74C436.92 56.66 436.72 54.83 436.33 53.24C435.94 51.65 435.43 50.45 434.82 49.63C434.21 48.81 433.6 48.2 433 47.79C432.4 47.38 431.85 47.18 431.35 47.18C431.19 47.18 430.88 47.26 430.41 47.42C429.94 47.58 429.55 47.66 429.25 47.66C428.95 47.66 428.8 47.5 428.8 47.19C428.8 46.59 429.46 45.62 430.79 44.26C432.12 42.9 433.74 41.65 435.68 40.48C437.62 39.32 439.28 38.73 440.66 38.73C442.8 38.73 444.52 39.9 445.81 42.25C447.1 44.6 447.84 47.31 448.03 50.4C449.89 48.54 451.92 46.8 454.12 45.18C456.32 43.56 459.03 42.08 462.24 40.74C465.45 39.4 468.54 38.73 471.5 38.73C473.49 38.73 475.33 39.08 477.03 39.77C478.73 40.46 480.15 41.38 481.28 42.53C482.41 43.68 483.3 44.7 483.92 45.6C484.55 46.5 485.1 47.42 485.57 48.36C493.03 41.94 499.82 38.73 505.92 38.73C508.31 38.73 510.51 39.22 512.51 40.19C514.51 41.17 516.12 42.43 517.35 43.97C518.58 45.51 519.53 47.17 520.21 48.93C520.89 50.69 521.23 52.41 521.23 54.08C521.23 56.5 520.8 58.9 519.93 61.26C519.06 63.62 517.92 65.75 516.51 67.63C515.1 69.51 513.49 71.28 511.72 72.9C509.94 74.52 508.13 75.88 506.29 76.96C504.45 78.05 502.66 78.9 500.93 79.51C499.2 80.12 497.67 80.43 496.35 80.43C494.3 80.43 492.62 79.75 491.3 78.38C489.98 77.01 489.32 75.92 489.32 75.1C489.32 74.5 489.99 73.59 491.33 72.36C492.67 71.13 494.19 70.02 495.89 69.03C497.59 68.04 498.88 67.54 499.76 67.54C500.01 67.54 500.18 67.6 500.28 67.73C500.38 67.86 500.45 68.02 500.49 68.23C500.54 68.44 500.68 68.75 500.92 69.17C501.16 69.59 501.49 70.03 501.93 70.47C503.22 71.76 504.62 72.41 506.13 72.41H506.51C506.6 72.41 506.68 72.38 506.75 72.32C506.81 72.26 506.86 72.22 506.89 72.2C506.92 72.18 506.98 72.1 507.06 71.94C507.14 71.78 507.21 71.66 507.27 71.56C509.22 68.32 510.2 65.04 510.2 61.74C510.2 57.58 508.79 54.04 505.97 51.11C503.15 48.18 500.14 46.72 496.93 46.72C496.33 46.72 495.74 46.76 495.16 46.84C494.58 46.92 494.06 47.01 493.6 47.1C493.14 47.19 492.67 47.34 492.18 47.55C491.69 47.76 491.29 47.93 490.98 48.07C490.67 48.21 490.31 48.43 489.92 48.73C489.53 49.03 489.23 49.25 489.02 49.39C488.81 49.53 488.55 49.77 488.22 50.1C487.89 50.43 487.67 50.64 487.56 50.74C487.45 50.83 487.25 51.05 486.97 51.38C486.69 51.71 486.53 51.89 486.5 51.92V52.86C486.5 56.17 485.86 59.33 484.59 62.35C483.31 65.37 481.7 67.95 479.75 70.07C477.8 72.2 475.68 74.06 473.4 75.67C471.12 77.27 468.95 78.46 466.91 79.23C464.86 80 463.12 80.39 461.67 80.39C459.59 80.39 457.9 79.72 456.59 78.38C455.28 77.04 454.63 75.95 454.63 75.1C454.63 74.5 455.3 73.59 456.64 72.36C457.98 71.13 459.5 70.02 461.2 69.03C462.9 68.04 464.19 67.54 465.07 67.54C465.29 67.54 465.44 67.57 465.52 67.63C465.6 67.69 465.67 67.85 465.73 68.1C466.08 69.17 466.8 70.15 467.9 71.05C469 71.95 470.23 72.4 471.58 72.4C471.74 72.4 471.85 72.37 471.91 72.31C471.97 72.25 472.12 72.04 472.34 71.7C473.19 70.31 473.93 68.6 474.56 66.55C475.19 64.5 475.5 62.44 475.5 60.36C475.5 56.9 474.11 53.76 471.32 50.96C468.53 48.16 465.52 46.76 462.28 46.76H462.26Z" fill="black"/>
<path d="M131.09 18.66C131.37 18.44 131.67 18.33 132 18.33C132.33 18.33 132.63 18.45 132.91 18.68C133.19 18.91 133.89 19.6 135.01 20.72C136.13 21.87 137.11 22.86 137.93 23.69C138.64 24.4 138.99 24.96 138.99 25.37C138.99 25.58 138.93 25.8 138.81 26.03C138.69 26.27 138.47 26.56 138.15 26.92C137.82 27.27 137.49 27.61 137.15 27.94C136.81 28.27 136.29 28.76 135.6 29.42C134.91 30.09 134.26 30.71 133.67 31.3C132.96 32.01 132.39 32.36 131.94 32.36C131.73 32.36 131.51 32.3 131.28 32.18C131.04 32.06 130.75 31.84 130.39 31.52C130.03 31.2 129.7 30.86 129.37 30.52C129.04 30.18 128.55 29.66 127.89 28.97C127.22 28.28 126.6 27.64 126.01 27.04C125.27 26.3 124.9 25.74 124.9 25.36C124.9 24.95 125.27 24.38 126.01 23.68C126.75 22.94 127.63 22.06 128.67 21.02C130 19.66 130.8 18.87 131.08 18.65L131.09 18.66ZM138.44 6.21C138.72 5.99 139.02 5.88 139.35 5.88C139.68 5.88 139.96 5.98 140.21 6.19C140.46 6.4 141.27 7.18 142.62 8.54L145.28 11.2C145.34 11.26 145.42 11.34 145.52 11.44C145.62 11.54 145.7 11.62 145.74 11.66C145.79 11.7 145.85 11.77 145.94 11.86C146.03 11.95 146.09 12.02 146.12 12.06C146.15 12.11 146.19 12.16 146.23 12.24C146.27 12.31 146.3 12.38 146.32 12.44C146.33 12.5 146.35 12.57 146.36 12.64C146.37 12.71 146.38 12.8 146.38 12.88C146.38 13.21 146.23 13.55 145.94 13.9C145.64 14.25 144.82 15.11 143.46 16.47C142.49 17.41 141.67 18.21 141.02 18.86C140.31 19.57 139.75 19.92 139.34 19.92C139.13 19.92 138.91 19.86 138.68 19.74C138.44 19.62 138.15 19.4 137.79 19.07C137.44 18.75 137.1 18.41 136.77 18.07C136.44 17.73 135.95 17.21 135.29 16.52C134.63 15.83 134 15.18 133.41 14.59C132.67 13.85 132.3 13.28 132.3 12.86C132.3 12.44 132.67 11.89 133.41 11.18C134.15 10.44 135.03 9.56001 136.07 8.52001C137.37 7.19001 138.16 6.42 138.44 6.19V6.21ZM145.84 18.64C146.09 18.43 146.38 18.33 146.7 18.33C147.02 18.33 147.32 18.43 147.59 18.64C147.86 18.85 148.67 19.64 150.03 21.03C151.06 22.07 151.95 22.95 152.69 23.69C153.4 24.4 153.75 24.96 153.75 25.37C153.75 25.58 153.69 25.8 153.57 26.03C153.45 26.27 153.23 26.56 152.91 26.92C152.58 27.27 152.25 27.61 151.91 27.94C151.57 28.27 151.05 28.76 150.36 29.42C149.67 30.09 149.02 30.71 148.43 31.3C148.08 31.65 147.85 31.88 147.74 31.99C147.63 32.1 147.5 32.18 147.32 32.26C147.14 32.33 146.94 32.37 146.7 32.37C146.37 32.37 146.06 32.24 145.75 31.97C145.44 31.7 144.46 30.75 142.8 29.09C141.97 28.26 141.29 27.58 140.76 27.05C140.02 26.31 139.65 25.75 139.65 25.37C139.65 24.96 140.02 24.39 140.76 23.69C141.62 22.84 142.6 21.85 143.73 20.72C144.88 19.54 145.58 18.85 145.83 18.64H145.84Z" fill="black"/>
<path d="M226.59 18.66C226.87 18.44 227.17 18.33 227.5 18.33C227.83 18.33 228.13 18.45 228.41 18.68C228.69 18.91 229.39 19.6 230.51 20.72C231.63 21.87 232.61 22.86 233.43 23.69C234.14 24.4 234.49 24.96 234.49 25.37C234.49 25.58 234.43 25.8 234.31 26.03C234.19 26.27 233.97 26.56 233.65 26.92C233.32 27.27 232.99 27.61 232.65 27.94C232.31 28.27 231.79 28.76 231.1 29.42C230.41 30.09 229.76 30.71 229.17 31.3C228.46 32.01 227.89 32.36 227.44 32.36C227.23 32.36 227.01 32.3 226.78 32.18C226.54 32.06 226.25 31.84 225.89 31.52C225.53 31.2 225.2 30.86 224.87 30.52C224.54 30.18 224.05 29.66 223.39 28.97C222.72 28.28 222.1 27.64 221.51 27.04C220.77 26.3 220.4 25.74 220.4 25.36C220.4 24.95 220.77 24.38 221.51 23.68C222.25 22.94 223.13 22.06 224.17 21.02C225.5 19.66 226.3 18.87 226.58 18.65L226.59 18.66ZM233.94 6.21C234.22 5.99 234.52 5.88 234.85 5.88C235.18 5.88 235.46 5.98 235.71 6.19C235.96 6.4 236.77 7.18 238.12 8.54L240.78 11.2C240.84 11.26 240.92 11.34 241.02 11.44C241.12 11.54 241.2 11.62 241.24 11.66C241.29 11.7 241.35 11.77 241.44 11.86C241.53 11.95 241.59 12.02 241.62 12.06C241.65 12.11 241.69 12.16 241.73 12.24C241.77 12.31 241.8 12.38 241.82 12.44C241.83 12.5 241.85 12.57 241.86 12.64C241.87 12.71 241.88 12.8 241.88 12.88C241.88 13.21 241.73 13.55 241.44 13.9C241.14 14.25 240.32 15.11 238.96 16.47C237.99 17.41 237.17 18.21 236.52 18.86C235.81 19.57 235.25 19.92 234.84 19.92C234.63 19.92 234.41 19.86 234.18 19.74C233.94 19.62 233.65 19.4 233.29 19.07C232.94 18.75 232.6 18.41 232.27 18.07C231.94 17.73 231.45 17.21 230.79 16.52C230.13 15.83 229.5 15.18 228.91 14.59C228.17 13.85 227.8 13.28 227.8 12.86C227.8 12.44 228.17 11.89 228.91 11.18C229.65 10.44 230.53 9.56001 231.57 8.52001C232.87 7.19001 233.66 6.42 233.94 6.19V6.21ZM241.34 18.64C241.59 18.43 241.88 18.33 242.2 18.33C242.52 18.33 242.82 18.43 243.09 18.64C243.36 18.85 244.17 19.64 245.53 21.03C246.56 22.07 247.45 22.95 248.19 23.69C248.9 24.4 249.25 24.96 249.25 25.37C249.25 25.58 249.19 25.8 249.07 26.03C248.95 26.27 248.73 26.56 248.41 26.92C248.08 27.27 247.75 27.61 247.41 27.94C247.07 28.27 246.55 28.76 245.86 29.42C245.17 30.09 244.52 30.71 243.93 31.3C243.58 31.65 243.35 31.88 243.24 31.99C243.13 32.1 243 32.18 242.82 32.26C242.64 32.33 242.44 32.37 242.2 32.37C241.87 32.37 241.56 32.24 241.25 31.97C240.94 31.7 239.96 30.75 238.3 29.09C237.47 28.26 236.79 27.58 236.26 27.05C235.52 26.31 235.15 25.75 235.15 25.37C235.15 24.96 235.52 24.39 236.26 23.69C237.12 22.84 238.1 21.85 239.23 20.72C240.38 19.54 241.08 18.85 241.33 18.64H241.34Z" fill="black"/>
<path d="M343.88 14.73C341.74 14.34 339.34 15.11 336.69 17.06C334.04 19.01 331.5 21.49 329.1 24.53C326.7 27.57 324.41 30.63 322.23 33.71C320.05 36.79 318.1 39.39 316.38 41.5C314.65 43.61 313.4 44.6 312.63 44.46C312.24 44.39 312.11 44.06 312.22 43.46C312.53 41.74 315.64 36.82 321.55 28.7C323.05 26.62 324.56 24.66 326.08 22.82C327.59 20.98 329.27 19.04 331.11 17C332.95 14.96 334.79 13.16 336.64 11.6C338.48 10.04 340.35 8.63999 342.24 7.40999C344.13 6.17999 346.04 5.30999 347.96 4.78999C349.88 4.26999 351.71 4.16999 353.42 4.48999C356.36 5.02999 358.63 6.56999 360.21 9.09999C361.79 11.64 362.32 14.34 361.8 17.22C361.41 19.36 360.34 21.24 358.59 22.86C356.84 24.48 354.9 25.67 352.77 26.44C350.64 27.21 348.61 27.75 346.69 28.05C344.77 28.35 343.28 28.4 342.23 28.21C341.56 28.09 341.26 27.89 341.31 27.61C341.41 27.05 342.4 26.37 344.26 25.57C346.13 24.77 347.09 24.34 347.13 24.27C347.76 23.59 348.17 22.76 348.35 21.78C348.63 20.24 348.33 18.75 347.45 17.32C346.57 15.89 345.38 15.04 343.87 14.76L343.88 14.73Z" fill="black"/>
<path d="M393.38 30.08C392.96 30.08 392.75 29.93 392.75 29.64C392.75 29.45 394.84 26.14 399.02 19.71C403.2 13.28 405.4 9.94001 405.63 9.68001C406.7 8.42001 408.49 7.20001 411 6.04001C413.51 4.88001 415.38 4.29001 416.61 4.29001C417.13 4.29001 417.39 4.44001 417.39 4.73001C417.39 4.89001 416.18 6.60001 413.77 9.85001C411.36 13.1 408.94 16.3 406.51 19.44L402.92 24.2C401.75 25.5 400.12 26.8 398.01 28.11C395.9 29.42 394.37 30.08 393.4 30.08H393.38Z" fill="black"/>
<path d="M472.38 30.08C471.96 30.08 471.75 29.93 471.75 29.64C471.75 29.45 473.84 26.14 478.02 19.71C482.2 13.28 484.4 9.94001 484.63 9.68001C485.7 8.42001 487.49 7.20001 490 6.04001C492.51 4.88001 494.38 4.29001 495.61 4.29001C496.13 4.29001 496.39 4.44001 496.39 4.73001C496.39 4.89001 495.18 6.60001 492.77 9.85001C490.36 13.1 487.94 16.3 485.51 19.44L481.92 24.2C480.75 25.5 479.12 26.8 477.01 28.11C474.9 29.42 473.37 30.08 472.4 30.08H472.38Z" fill="black"/>
</svg>
