<svg width="393" height="144" viewBox="0 0 393 144" fill="none" xmlns="http://www.w3.org/2000/svg">
<path d="M0.7 60.3133C0.23 60.3133 0 60.1033 0 59.6833C0 58.6233 1.45 56.8933 4.35 54.4833C7.25 52.0733 10.35 50.3133 13.65 49.2133C20.84 46.8033 28.69 45.5933 37.2 45.5933C43.97 45.5933 53.96 46.6733 67.16 48.8333C80.36 50.9933 90.2 52.0733 96.67 52.0733C101.53 52.0733 105.76 51.7633 109.33 51.1533C112.9 50.5433 115.54 49.9233 117.23 49.3133C118.92 48.7033 119.96 48.3933 120.34 48.3933C120.85 48.3933 121.1 48.5833 121.1 48.9633C121.1 49.9433 119.89 51.4733 117.48 53.5633C115.07 55.6533 112.63 57.2933 110.18 58.4833C108.11 59.5033 104.75 60.5233 100.12 61.5633C95.49 62.6033 90.21 63.1133 84.28 63.1133C79.84 63.1133 75.31 62.8433 70.7 62.2933C66.09 61.7433 59.04 60.7033 49.56 59.1833C45.2 61.5133 41.41 63.9033 38.2 66.3533V127.853C46.15 131.403 54.7 133.183 63.84 133.183C71.54 133.183 78.65 132.103 85.17 129.943C91.69 127.783 95.71 125.883 97.23 124.233C100.06 121.223 101.48 117.803 101.48 113.953C101.48 111.293 100.73 108.953 99.23 106.943C97.73 104.933 95.64 103.633 92.98 103.043C92.43 103.003 92.15 102.753 92.15 102.283C92.15 101.063 94.03 99.0833 97.8 96.3533C101.57 93.6233 104.32 92.2633 106.05 92.2633C106.77 92.2633 107.67 92.4933 108.75 92.9633C109.83 93.4333 110.95 94.0933 112.12 94.9633C113.28 95.8333 114.28 97.0633 115.1 98.6733C115.93 100.283 116.34 102.083 116.34 104.063C116.34 107.153 115.43 110.273 113.61 113.423C111.79 116.573 109.56 119.363 106.91 121.803C104.26 124.233 101.26 126.573 97.9 128.823C94.53 131.063 91.5 132.883 88.79 134.283C86.08 135.683 83.56 136.843 81.24 137.773C70.92 141.923 60.78 143.993 50.84 143.993C47.41 143.993 43.96 143.723 40.49 143.203C37.02 142.673 33.54 141.883 30.05 140.823C26.56 139.763 23.31 138.343 20.31 136.573C17.3 134.793 14.64 132.753 12.31 130.453C9.98 128.143 8.14 125.363 6.79 122.103C5.43 118.843 4.76 115.333 4.76 111.573C4.76 107.813 5.28 104.143 6.31 100.463C7.34 96.7833 8.6 93.5133 10.09 90.6533C11.57 87.7933 13.54 84.8433 15.99 81.8033C18.44 78.7533 20.63 76.2533 22.56 74.2833C24.49 72.3133 26.91 70.1533 29.83 67.8133C32.75 65.4633 34.93 63.7733 36.37 62.7333C37.81 61.6933 39.69 60.3733 42.02 58.7633C42.15 58.6833 42.24 58.6133 42.31 58.5733C42.37 58.5333 42.46 58.4733 42.56 58.3833C42.66 58.3033 42.76 58.2333 42.85 58.1933C42.76 58.1933 41.79 58.0633 39.93 57.8133C38.07 57.5633 35.64 57.3033 32.63 57.0533C29.62 56.8033 26.68 56.6733 23.81 56.6733C19.41 56.6733 15.43 56.9833 11.88 57.5933C8.33 58.2033 5.63 58.8233 3.79 59.4333C1.95 60.0433 0.92 60.3533 0.71 60.3533L0.7 60.3133ZM19.61 101.953C19.61 105.673 20.22 108.993 21.45 111.883C22.68 114.783 24.69 117.693 27.48 120.613V77.7033C22.23 85.8233 19.61 93.9133 19.61 101.953Z" fill="black"/>
<path d="M206.02 100.943C205.81 100.863 205.55 100.843 205.26 100.913C204.96 100.973 204.66 101.063 204.34 101.163C204.02 101.263 203.73 101.373 203.45 101.483C203.17 101.593 202.99 101.643 202.91 101.643C200.63 101.643 199.27 98.2133 198.85 91.3633C198.72 89.4233 198.64 78.4133 198.6 58.3633C198.56 38.3033 198.47 26.8233 198.35 23.9033C198.05 17.0933 197.24 12.2133 195.91 9.27327C194.58 6.33327 192.62 4.86327 190.04 4.86327C188.18 4.86327 185.99 5.71327 183.47 7.40327C180.95 9.09327 178.84 10.9033 177.12 12.8333C175.41 14.7633 174.55 16.1433 174.55 16.9933C174.55 17.2433 174.63 17.4233 174.8 17.5033C174.97 17.5933 175.2 17.6033 175.5 17.5333C175.8 17.4733 176.09 17.3933 176.39 17.3133C176.69 17.2333 177 17.1333 177.34 17.0233C177.68 16.9233 177.93 16.8633 178.1 16.8633C178.61 16.8633 179.09 17.0033 179.56 17.2733C180.03 17.5533 180.53 18.1133 181.08 18.9533C181.63 19.8033 182.1 20.9033 182.48 22.2533C182.86 23.6033 183.18 25.4833 183.43 27.8733C183.68 30.2633 183.81 33.0233 183.81 36.1533C183.81 36.6233 183.77 43.6233 183.68 57.1633C175.68 57.2933 170.01 57.3533 166.67 57.3533C162.97 57.3533 159.44 57.3133 156.08 57.2333C155.73 55.7833 155.36 54.2733 154.94 52.6633C153.83 48.3933 152.82 44.0433 151.91 39.6033C151.01 35.1633 150.69 31.0233 150.95 27.1833C151.22 23.3433 152.33 20.6133 154.29 18.9933C155.67 17.8533 157.34 17.4333 159.28 17.7233C161.22 18.0133 162.77 18.8633 163.94 20.2833C164.68 21.1833 165.12 22.1733 165.25 23.2533C165.27 23.3433 164.93 24.5233 164.24 26.8033C163.55 29.0733 163.41 30.4733 163.84 30.9833C164.05 31.2433 164.46 31.1133 165.07 30.6133C166.04 29.8133 167.11 28.4533 168.29 26.5033C169.47 24.5633 170.52 22.3433 171.44 19.8533C172.36 17.3633 172.76 14.7333 172.62 11.9533C172.49 9.17327 171.61 6.80327 170 4.83327C167.83 2.19327 165.01 0.63327 161.55 0.13327C158.09 -0.35673 155.01 0.50327 152.31 2.73327C150.73 4.03327 149.45 5.73327 148.46 7.85327C147.47 9.96327 146.81 12.3333 146.49 14.9433C146.16 17.5633 146 20.2833 146.01 23.1133C146.01 25.9433 146.24 28.9433 146.67 32.1233C147.1 35.3033 147.57 38.2633 148.08 41.0133C148.59 43.7533 149.2 46.5833 149.93 49.4933C150.73 52.7233 151.34 55.1833 151.86 57.1133C149.42 57.0233 147.08 56.9233 144.83 56.7833C143.86 56.7433 143.07 56.4533 142.48 55.9233C141.89 55.3933 141.51 54.9033 141.34 54.4633C141.17 54.0133 141.09 53.6033 141.09 53.2233C141.09 52.7533 141.21 52.3033 141.44 51.8533C141.67 51.4133 141.79 51.0633 141.79 50.8033C141.79 50.3833 141.56 50.1733 141.09 50.1733C140.07 50.1733 138.47 50.9133 136.27 52.3933C134.07 53.8733 132.01 55.7333 130.08 57.9833C128.15 60.2233 127.19 62.1933 127.19 63.8833C127.19 65.9533 127.98 67.2933 129.57 67.8833C131.16 68.4733 134.13 68.7733 138.49 68.7733C139.25 68.7733 140.61 68.7733 142.55 68.7433C144.5 68.7233 146.08 68.7133 147.31 68.7133C143.04 71.9733 139.3 75.8433 136.11 80.3333C132.92 84.8233 131.32 89.2633 131.32 93.6633C131.32 98.3633 133.32 102.743 137.32 106.803C141.32 110.863 146.05 112.893 151.51 112.893C154.81 112.893 158.17 112.343 161.6 111.243C165.03 110.143 168.16 108.683 170.99 106.863C173.82 105.043 176.23 103.353 178.19 101.783C180.16 100.223 181.97 98.6133 183.62 96.9633C183.83 102.513 184.43 106.543 185.43 109.053C186.42 111.573 188.1 112.833 190.48 112.833C192.34 112.833 194.56 112.053 197.14 110.483C199.72 108.913 201.9 107.223 203.68 105.403C205.46 103.583 206.35 102.273 206.35 101.463C206.35 101.213 206.24 101.043 206.03 100.953L206.02 100.943ZM183.49 86.7233V89.5133C182.6 90.8233 182.01 91.6833 181.71 92.0833C181.41 92.4833 180.8 93.2933 179.87 94.4933C178.94 95.7033 178.2 96.5233 177.65 96.9733C177.1 97.4133 176.27 98.0633 175.17 98.9133C174.07 99.7633 173.03 100.353 172.06 100.693C171.09 101.033 169.9 101.353 168.51 101.643C167.11 101.943 165.63 102.083 164.07 102.083C159.71 102.083 155.64 100.193 151.85 96.4033C148.06 92.6133 146.17 88.4633 146.17 83.9333C146.17 81.6533 146.64 79.4333 147.57 77.3033C148.5 75.1633 149.42 73.5533 150.33 72.4533C151.24 71.3533 152.41 70.0833 153.85 68.6433C168.45 68.3933 178.35 68.0733 183.55 67.6933C183.51 71.9633 183.49 78.3133 183.49 86.7333V86.7233Z" fill="black"/>
<path d="M391.87 56.8233C391.53 56.8233 390.56 56.9533 388.95 57.2033C387.34 57.4533 385.08 57.7133 382.16 57.9633C379.24 58.2133 376 58.3433 372.45 58.3433C367.33 58.3433 359.51 57.9533 349 57.1733C338.48 56.3933 330.54 56.0033 325.17 56.0033C318.36 56.0033 312.01 56.4733 306.13 57.4033C304.07 57.7533 294.49 57.4033 287.58 58.0033C287.12 57.9833 286.63 57.9733 286.08 57.9733C284.13 57.9733 282.01 58.3433 279.7 59.0833C277.39 59.8233 275.35 60.6933 273.58 61.6833C271.8 62.6733 270.31 63.6633 269.11 64.6333C267.9 65.6033 267.3 66.3433 267.3 66.8533L267.62 67.8033C267.79 68.4833 267.96 69.3733 268.13 70.4733C268.3 71.5733 268.38 72.6733 268.38 73.7733C268.38 77.7933 268.44 82.9733 268.57 89.3233C267.05 91.2333 265.7 92.7833 264.54 93.9933C263.38 95.2033 261.86 96.4933 260 97.8633C258.14 99.2333 256.05 100.273 253.75 100.973C251.44 101.673 248.89 102.023 246.1 102.023C241.02 102.023 236.42 100.133 232.3 96.3433C228.17 92.5533 226.11 88.3733 226.11 83.8033C226.11 80.9233 226.61 78.1033 227.6 75.3333C228.59 72.5633 229.81 70.1833 231.25 68.1933C231.55 67.7733 232.29 67.5633 233.47 67.5633C236.26 67.5633 238.78 68.6233 241.02 70.7333C241.44 71.1533 241.8 71.5733 242.1 71.9733C242.4 72.3733 242.61 72.6433 242.73 72.7633C242.86 72.8933 243.07 72.9533 243.36 72.9533C245.09 72.9533 247.86 71.5833 251.64 68.8533C255.43 66.1233 257.32 64.1033 257.32 62.7933C257.32 62.3733 256.92 61.7133 256.11 60.8233C255.31 59.9333 254.05 59.0433 252.33 58.1533C251.4 57.6733 250.45 57.3333 249.47 57.1133C249.98 56.4433 250.51 55.7133 251.07 54.9133C251.73 53.9933 253.15 52.0533 255.34 49.0933C257.52 46.1433 259.09 44.0033 260.04 42.6733C260.99 41.3533 262.36 39.3933 264.17 36.7833C265.98 34.1833 267.32 32.0933 268.21 30.5333C269.09 28.9733 270.06 27.1833 271.12 25.1733C272.18 23.1633 272.93 21.3933 273.37 19.8433C273.81 18.3033 274.03 16.9133 274.03 15.6733C274.03 13.9133 273.66 12.3933 272.91 11.1133C272.16 9.83327 271.17 8.87327 269.93 8.23327C268.7 7.59327 267.47 7.13327 266.26 6.84327C265.05 6.55327 263.8 6.41327 262.52 6.41327C260.23 6.41327 257.51 7.00327 254.38 8.20327C251.25 9.39327 248.24 10.9133 245.35 12.7633C242.46 14.6133 240 16.8333 237.97 19.4133C235.94 21.9933 234.93 24.5233 234.93 26.9933C234.93 29.9033 235.42 31.3533 236.39 31.3533C237.58 31.3533 239.36 30.6633 241.72 29.2733C244.08 27.8833 246.21 26.3233 248.1 24.6133C250 22.8933 250.94 21.6133 250.94 20.7733C250.94 20.6433 250.87 20.3033 250.74 19.7533C250.61 19.2033 250.52 18.3733 250.48 17.2733C252.2 17.5833 253.64 18.1033 254.81 18.8333C255.98 19.5633 256.79 20.3933 257.26 21.3433C257.72 22.2933 258.04 23.1033 258.22 23.7933C258.4 24.4733 258.48 25.1533 258.48 25.8133C258.48 28.4633 257 33.0533 254.05 39.5733C252.29 43.5033 250.41 47.1733 248.43 50.5933C246.85 53.3133 245.62 55.4433 244.72 57.0033C242.92 57.2533 240.95 57.7833 238.78 58.6333C235.69 59.8333 232.55 61.5933 229.36 63.9033C226.16 66.2133 223.21 68.8133 220.51 71.7133C217.8 74.6133 215.59 77.9633 213.88 81.7733C212.17 85.5833 211.31 89.4133 211.31 93.2633C211.31 98.4233 213.53 102.973 217.97 106.913C222.41 110.853 227.6 112.813 233.52 112.813C239.82 112.813 245.99 111.203 252.02 107.993C258.05 104.773 263.63 100.693 268.75 95.7433C268.83 98.1533 268.99 100.263 269.23 102.063C269.46 103.863 269.82 105.643 270.31 107.393C270.8 109.143 271.51 110.493 272.44 111.423C273.37 112.353 274.51 112.823 275.87 112.823C277.65 112.823 279.81 112.043 282.34 110.473C284.87 108.903 287.04 107.223 288.81 105.423C290.59 103.623 291.48 102.323 291.48 101.523C291.48 101.143 291.27 100.953 290.85 100.953C290.43 100.953 289.92 101.033 289.33 101.203L288.5 101.523C288.08 101.523 287.66 101.383 287.26 101.113C286.86 100.843 286.43 100.343 285.99 99.6233C285.54 98.9033 285.16 97.9833 284.85 96.8633C284.53 95.7433 284.27 94.2433 284.06 92.3533C283.85 90.4733 283.74 88.3433 283.74 85.9733C283.74 80.8133 283.78 74.3833 283.87 66.6833C283.92 66.5433 283.98 66.4133 284.03 66.2733C285.96 66.9633 289.21 67.9833 289.6 67.9833C290.02 67.9833 294.01 68.2733 295.87 68.0433C297.73 67.8133 300.21 67.5633 303.3 67.3133C306.39 67.0633 309.62 66.9333 313.01 66.9333C317.16 66.9333 321.64 67.1433 326.47 67.5633C324.14 69.2933 322 70.9933 320.03 72.6433C318.06 74.2933 315.85 76.2933 313.4 78.6433C310.95 80.9933 308.78 83.4233 306.89 85.9433C305.01 88.4633 303.23 91.1633 301.56 94.0333C299.89 96.9133 298.61 100.013 297.72 103.333C296.83 106.653 296.39 110.033 296.39 113.453C296.39 117.133 297.13 120.553 298.61 123.703C300.09 126.853 302.06 129.513 304.51 131.673C306.96 133.833 309.79 135.673 312.98 137.193C316.17 138.713 319.49 139.833 322.91 140.553C326.34 141.273 329.76 141.633 333.19 141.633C337.8 141.633 342.72 140.903 347.95 139.443C353.18 137.983 358.11 136.003 362.74 133.513C367.37 131.013 371.6 128.243 375.43 125.203C379.26 122.153 382.29 118.913 384.54 115.463C386.78 112.013 387.9 108.773 387.9 105.723C387.9 102.293 386.75 99.4533 384.44 97.1833C382.13 94.9233 379.88 93.7933 377.68 93.7933C375.99 93.7933 373.24 95.1633 369.43 97.9133C365.62 100.663 363.72 102.693 363.72 104.003C363.72 104.253 364.04 104.473 364.67 104.633C367.34 105.263 369.41 106.583 370.89 108.573C372.37 110.563 373.11 112.843 373.11 115.423C373.11 118.853 371.86 121.873 369.37 124.503C368.23 125.683 365.28 127.033 360.52 128.533C355.76 130.033 351.03 130.783 346.33 130.783C341.97 130.783 337.72 130.183 333.57 128.973C329.42 127.763 325.68 126.063 322.34 123.863C319 121.663 316.31 118.823 314.28 115.363C312.25 111.893 311.23 108.063 311.23 103.873C311.23 101.973 311.37 100.073 311.64 98.1933C311.92 96.3133 312.52 94.0433 313.45 91.4033C314.38 88.7633 315.6 86.2133 317.1 83.7533C318.6 81.3033 320.72 78.6733 323.45 75.8833C326.18 73.0933 329.34 70.4733 332.94 68.0133C334.34 68.1033 336.36 68.2433 339 68.4633C341.64 68.6733 343.75 68.8333 345.31 68.9433C346.87 69.0433 348.94 69.1433 351.5 69.2333C354.06 69.3133 356.65 69.3633 359.28 69.3633C364.19 69.3633 368.71 69.1533 372.86 68.7333C377.01 68.3133 379.82 67.7833 381.3 67.1433C383.71 66.1233 386.22 64.4933 388.82 62.2533C391.42 60.0133 392.72 58.3833 392.72 57.3633C392.72 57.0233 392.44 56.8533 391.89 56.8533L391.87 56.8233Z" fill="black"/>
</svg>
