<svg width="317" height="115" viewBox="0 0 317 115" fill="none" xmlns="http://www.w3.org/2000/svg">
<path fill-rule="evenodd" clip-rule="evenodd" d="M149.992 44.7892C150.186 32.9314 150.073 20.5355 146.904 11.9858C145.791 11.7758 144.11 11.5651 141.862 11.355C144.105 6.02131 155.112 -2.42114 158.248 6.30834C163.502 17.3587 155.481 82.8493 165.18 81.4407C166.168 82.2185 166.588 82.4292 167.008 82.6392C166.798 82.7023 166.588 83.9009 166.378 83.964C162.279 87.7036 159.308 91.4091 151.946 89.6415C151.462 86.2142 150.412 82.2185 149.362 78.2234C148.101 78.9173 146.274 80.7467 145.013 81.4407C139.703 84.938 134.929 89.4472 127.304 90.8401C113.665 93.3312 103.457 79.6541 107.83 66.9315C110.716 61.7946 116.055 58.0537 119.174 53.6209C113.909 53.8076 107.793 53.5837 103.986 51.7284C103.986 50.2566 103.986 48.7843 103.986 46.7448C106.465 43.4638 109.33 41.9 112.242 39.1117C113.23 39.3218 113.649 39.5325 114.07 39.7425C114.205 42.5895 114.516 43.1434 114.763 44.7892C117.284 44.7892 120.372 44.7892 122.325 44.7892C118.423 32.5283 115.285 13.3812 122.262 1.8925C125.32 0.924172 126.649 0.110396 131.085 0C134.255 1.43325 136.524 2.48612 138.018 5.6775C141.8 11.4641 137.175 22.3814 132.346 23.9717C133.201 18.4487 133.741 17.1063 131.085 13.2475C129.405 13.2475 127.724 13.2475 126.044 13.2475C124.994 14.2991 123.943 15.3507 122.325 16.4017C118.728 24.2915 124.18 37.674 126.044 44.7892C134.025 44.7892 142.01 44.7892 149.992 44.7892ZM201.04 11.9858C201.25 13.6676 201.46 15.3507 201.103 17.0325C198.729 19.1351 195.788 21.2383 192.28 22.7731C190.942 22.5466 192.093 23.3522 190.389 21.5114C186.674 10.222 207.143 2.717 217.425 5.6775C219.266 8.33962 220.322 9.25938 220.577 13.8783C216.064 27.2609 207.898 34.3994 201.103 44.8523C203.35 46.114 205.032 47.9434 206.145 49.205C205.661 50.8868 204.611 52.5699 203.561 53.684C201.04 55.0926 197.952 55.9341 195.431 56.2073C194.493 53.7048 191.99 52.6973 187.238 51.7915C187.385 52.5693 186.965 52.78 186.545 52.99C178.867 66.2893 183.907 90.1449 205.451 81.4407C210.489 80.1058 213.824 74.7835 217.425 71.2842C217.216 64.3457 217.005 57.4053 216.228 50.4667C236.776 39.7848 289.214 45.015 317 44.7892C311.399 61.0325 286.465 47.9995 269.734 53.6209C260.821 56.6148 252.79 69.8989 250.26 79.5481C245.276 109.011 302.765 115.669 302.505 89.0107C300.443 85.5777 298.382 85.1247 294.942 82.6392C297.493 79.0517 300.552 76.1681 306.286 75.7001C309.071 77.0336 310.627 77.8954 311.958 80.179C322.719 99.8843 275.55 119.566 255.239 110.459C219.564 96.0293 253.192 65.9146 263.494 52.99C254.724 52.7566 233.319 49.5205 228.202 53.6209C225.258 61.0565 227.944 82.7017 233.244 81.4407C234.021 81.4407 234.231 81.4407 234.441 81.4407C233.315 87.2418 228.416 90.5013 222.467 90.8401C221.417 89.9992 220.367 89.1576 219.316 87.749C218.686 84.5324 217.488 80.7461 217.425 76.9617C207.987 84.2857 192.273 97.3648 177.154 86.4242C174.078 83.6852 170.016 79.4094 170.222 72.5459C174.036 43.7326 207.414 50.9039 209.296 17.6633C209.023 16.1916 208.182 14.7192 207.342 13.2475C205.241 12.8267 203.14 12.4066 201.04 11.9858ZM26.5322 35.3267C49.0858 37.6778 74.3753 41.8584 97.0537 37.85C89.8711 59.4586 43.2462 39.2871 30.8807 51.7915C30.8807 69.6005 30.8807 86.8463 30.8807 103.52C48.0384 107.709 82.5605 112.053 81.9915 87.749C80.6503 84.4762 78.8656 83.2265 74.996 80.8098C74.996 81.1675 74.996 80.9568 74.996 80.179C78.0293 77.6556 80.6781 75.6704 85.0795 73.2398C88.7342 75.2446 91.0553 76.6116 92.075 79.5481C99.6974 105.427 42.3545 123.981 18.9066 110.459C-0.536946 100.285 2.68158 76.9207 14.5581 60.6231C21.6367 55.7241 28.1506 50.256 34.0948 44.7892C22.069 43.4928 10.761 44.7797 0 46.6817C0 46.4716 0 46.2609 0 46.0509C5.90137 36.2275 15.424 39.7659 26.5322 35.3267ZM148.164 51.7915C141.989 54.8264 130.066 51.042 124.216 54.8825C112.115 60.7499 119.46 79.1917 129.195 82.6392C143.356 87.6544 157.37 63.3818 148.164 51.7915ZM20.23 61.8848C16.3472 72.9376 10.3526 88.4757 20.8602 96.5807C21.2176 85.584 21.0071 74.0164 20.23 61.8848Z" fill="black"/>
</svg>
