<svg width="486" height="105" viewBox="0 0 486 105" fill="none" xmlns="http://www.w3.org/2000/svg">
<path fill-rule="evenodd" clip-rule="evenodd" d="M236.235 0C238.154 0.197542 239.539 0.395678 240.389 0.059322C245.475 10.8844 243.979 29.3181 243.89 43.3644C253.184 36.7334 268.649 27.6524 276.527 42.178C276.587 42.1186 277.714 40.9915 277.774 40.3983C287.951 36.0719 304.67 28.1465 307.978 45.1441C310.932 61.3325 284.106 81.006 280.741 65.2542C283.45 63.6727 285.627 62.09 287.268 60.5085C291.599 61.9464 291.028 64.0192 295.576 64.661C299.489 55.3985 301.272 44.9987 290.235 40.3983C275.687 37.0905 278.679 52.5884 273.026 60.5085C269.896 66.1791 264.055 68.7803 256.411 70.6525C253.403 69.9899 252.139 69.4222 249.884 65.9068C250.477 65.4518 251.604 64.4629 252.198 63.4746C253.444 62.4857 255.758 61.4968 257.538 60.5085C259.516 61.8925 261.495 63.277 262.938 64.661C264.264 64.4635 265.055 64.2653 265.846 64.0678C269.026 55.4145 270.17 36.2398 253.444 39.8051C243.498 42.9919 243.783 54.4191 243.89 65.8475C239.572 68.4576 235.362 71.2137 229.055 71.2458C229.055 71.5821 229.055 71.384 229.055 70.6525C237.79 61.7418 237.525 25.041 233.268 8.30508C231.466 6.94008 232.272 6.96144 229.055 7.11864C230.343 2.92042 233.556 2.15398 236.235 0ZM271.246 5.33898C271.84 5.33898 272.967 5.33898 273.026 5.33898C274.807 6.58475 277.121 8.89831 278.367 10.678C276.923 12.6552 274.945 14.633 272.433 16.0763C270.989 14.633 269.011 12.6552 267.033 10.678C268.615 8.89831 270.198 6.58475 271.246 5.33898ZM374.499 5.33898C375.092 5.33898 376.22 5.33898 376.279 5.33898C379.237 7.03737 380.879 8.27009 381.026 11.3305C379.78 13.4459 377.466 15.0286 375.686 16.0763C374.242 14.633 372.264 12.6552 370.286 10.678C371.868 8.89831 373.451 6.58475 374.499 5.33898ZM119.334 12.5169C122.044 15.2256 124.22 17.4015 125.862 19.5763C124.418 21.5535 122.439 23.5313 120.462 24.9746C118.484 23.9269 116.505 22.3442 113.993 20.7627C115.065 16.1439 117.267 15.4059 119.334 12.5169ZM264.719 16.0763C268.346 17.6916 270.053 19.565 271.246 21.9492C271.246 22.3448 271.246 22.7399 271.246 23.1356C266.47 27.7372 266.139 28.3524 260.505 23.7288C260.505 23.5313 260.505 23.3331 260.505 23.1356C260.505 22.5424 260.505 21.4153 260.505 21.3559C262.088 19.7744 263.671 18.1917 264.719 16.0763ZM279.494 16.0763C281.472 17.8559 283.451 20.1695 284.894 21.9492C284.894 22.0085 284.894 23.1356 284.894 23.7288C284.044 25.1128 282.659 26.4974 280.741 27.3475C280.484 27.3475 279.692 27.3475 278.367 27.3475C277.319 26.1017 275.736 23.7881 274.154 22.5424C275.4 20.5652 277.714 18.5874 279.494 16.0763ZM367.971 16.0763C370.681 18.5874 372.858 20.5652 374.499 22.5424C373.244 25.0992 371.666 27.1618 367.378 27.3475C366.528 26.2998 365.143 24.7171 363.224 23.1356C363.224 22.5424 363.224 21.4153 363.224 21.3559C365.34 19.7744 366.923 18.1917 367.971 16.0763ZM381.62 16.0763C385.247 17.6916 386.954 19.565 388.147 21.9492C388.147 22.3448 388.147 22.7399 388.147 23.1356C386.901 24.7171 384.587 26.2998 382.807 27.3475C382.747 27.3475 381.62 27.3475 381.026 27.3475C380.176 26.2998 378.791 24.7171 376.872 23.1356C376.872 22.5424 376.872 21.4153 376.872 21.3559C378.989 19.7744 380.572 18.1917 381.62 16.0763ZM8.9011 27.3475C10.2855 28.6721 11.6705 29.4635 13.0549 29.7203C13.1143 32.2314 14.2418 34.2092 14.8352 36.1864C14.8945 35.5932 16.022 34.4661 16.0813 34.4068C19.0484 32.4296 22.55 30.4518 25.5165 27.9407C25.7141 27.9407 25.9123 27.9407 25.5758 27.9407C26.3075 32.0333 26.5057 35.5938 26.7033 38.6186C38.2534 28.6864 47.5348 23.2246 59.3407 37.3729C67.7249 30.7021 80.8564 22.8829 87.8242 36.7797C89.4406 40.0038 91.3674 45.4727 89.6044 50.4237C87.6212 55.9923 82.9131 59.8381 79.5165 64.0678C87.9927 64.2149 91.4451 62.1339 97.3187 61.1017C97.3187 61.2992 97.3187 61.4974 97.3187 61.6949C96.7253 62.4857 95.5978 63.277 95.5385 64.0678C91.187 65.9068 86.835 68.8136 82.4835 70.6525C61.7167 70.9889 40.9427 70.7908 20.1758 70.0593C10.7585 72.6001 8.26556 80.7486 0 83.1102C0 82.6558 0 81.6669 0 80.1441C8.07982 70.7481 9.33191 51.4263 4.74725 36.1864C3.36283 35.9889 1.97782 35.7908 0.593407 35.5932C0.791011 35 0.989209 33.8729 1.18681 33.8136C3.75804 31.8364 6.32987 29.8586 8.9011 27.3475ZM414.257 29.1271C415.853 30.6742 416.093 32.2136 416.631 33.2203C428.171 38.1779 483.254 31.1915 485.466 33.2203C485.407 34.0111 484.279 34.8025 483.686 35.5932C482.638 36.5815 481.055 37.5704 478.938 38.5593C479.376 56.687 478.378 77.5149 480.125 93.7288C475.015 97.631 470.487 103.271 462.323 105C464.697 102.232 467.604 99.4629 469.444 96.161C470.374 84.8317 470.769 72.9649 470.631 61.1017C465.721 65.119 461.006 69.8814 452.235 70.6525C443.516 72.6523 442.025 60.9463 436.807 65.2542C432.374 67.5903 425.93 73.3339 418.411 69.4661C404.289 64.4403 413.05 48.281 419.004 40.9915C419.004 41.3279 419.004 41.1297 419.004 40.3983C414.653 41.2579 410.115 41.437 408.264 38.5593C408.264 37.9661 408.264 36.839 408.264 36.7797C409.421 32.8727 412.038 31.8654 414.257 29.1271ZM371.532 32.6271C373.45 32.8247 374.835 33.0228 375.686 33.2203C382.342 39.6479 394.934 64.19 402.982 63.4746C402.286 67.8662 397.844 70.6353 392.301 70.6525C387.182 65.6114 383.71 58.3557 378.593 52.2034C378.198 52.4009 377.802 52.5991 376.872 52.2627C375.334 59.4573 365.947 73.2141 356.697 70.0593C353.757 70.1157 353.725 69.4459 351.356 67.0932C354.05 64.6308 356.462 62.5824 360.791 61.6949C362.609 64.4498 364.422 64.3353 366.785 62.8814C369.423 56.8928 373.866 53.3008 374.499 46.2712C371.692 43.4836 371.235 41.1469 364.945 40.3983C366.024 36.3116 368.959 35.105 371.532 32.6271ZM130.015 33.2203C132.725 33.616 134.901 34.0111 137.077 34.4068C153.841 57.8194 111.206 69.5563 113.934 91.9492C115.765 94.4134 117.385 95.397 120.462 96.161C123.626 94.7177 126.791 92.7399 129.956 90.7627C130.154 90.7627 130.352 90.7627 130.015 90.7627C130.154 91.5535 129.758 92.3448 128.829 93.1356C125.98 100.938 114.244 104.921 105.686 99.1271C102.993 88.5921 111.337 81.3341 115.18 74.1525C114.368 64.6343 105.806 41.0188 96.1319 41.5847C97.2463 37.2863 100.273 36.1093 103.846 33.8136C109.73 34.9377 111.644 39.3246 113.934 43.3644C115.912 41.9211 117.89 39.9433 119.334 37.9661C123.428 36.3846 126.99 34.8019 130.015 33.2203ZM345.956 33.2203C347.796 33.2797 350.703 34.4068 352.543 35C365.781 58.8261 330.132 69.0419 328.213 91.3559C333.743 99.6551 339.048 94.8892 344.235 90.7627C345.165 90.9603 345.56 91.1584 345.956 91.3559C345.758 91.4153 345.56 92.5424 344.829 93.1356C339.557 97.6702 337.012 102.549 325.84 102.627C313.068 96.3378 325.796 81.0036 331.121 74.1525C326.739 61.5454 322.643 45.1423 310.411 40.9915C313.007 37.3954 315.357 34.4163 320.499 33.8136C324.614 36.8443 326.568 39.3691 328.213 43.3644C330.329 42.3168 331.912 40.7341 333.494 38.6186C337.469 37.4631 341.523 35.4022 345.956 33.2203ZM154.286 33.8136C155.67 34.2092 157.055 34.6043 158.44 35C159.429 38.1636 160.418 41.3279 161.407 43.9576C170.274 37.3652 186.218 26.9245 194.044 42.178C194.44 42.3162 194.835 41.9211 195.231 40.9915C202.002 38.0913 211.695 29.5483 220.747 36.7797C236.522 49.3826 216.117 67.9178 204.785 70.6525C201.983 70.0196 200.904 69.2021 198.257 66.5C198.257 66.4407 198.257 65.3136 198.257 65.2542C201.511 63.2551 203.098 61.4066 207.099 60.5085C208.622 63.3441 209.398 64.3828 213.092 64.661C217.991 56.5167 218.467 45.4941 208.938 40.9915C206.47 39.7191 202.59 40.5976 199.385 40.9915C192.514 51.4364 186.235 80.6032 167.993 67.0932C167.993 67.4296 167.993 67.2314 167.993 66.5C167.993 66.4407 167.993 65.3136 167.993 65.2542C170.703 63.6727 172.88 62.09 175.055 60.5085C177.895 61.4997 178.589 63.1857 180.455 64.661C181.978 64.2653 182.967 63.8703 183.956 63.4746C187.168 54.1563 187.657 44.6695 177.488 40.3983C151.8 33.6884 165.251 79.5793 161.466 95.5678C156.286 98.6353 153.457 103.402 146.571 105C148.549 102.232 150.528 99.4629 151.971 96.161C155.341 86.084 153.384 51.6481 151.319 42.178C148.846 41.0983 149.237 40.8966 145.978 40.3983C147.351 36.4676 150.744 35.9877 154.286 33.8136ZM25.5758 64.661C33.2266 64.801 43.2071 64.5946 47.4725 61.6949C51.4555 52.6038 54.3448 39.7096 42.7253 35.5932C39.8704 34.322 36.3307 35.4633 33.8242 36.1864C27.7067 44.1012 25.8785 49.2278 25.5758 64.661ZM66.4615 35C61.4099 40.0584 62.3967 43.1609 59.3407 51.017C57.3498 56.1347 52.9301 59.4359 49.8462 63.4746C49.8462 63.6721 49.8462 63.8703 49.8462 64.0678C60.7108 64.3395 72.3992 64.9446 78.3297 60.5085C81.8984 51.2317 82.5844 39.1751 72.3956 35.5932C70.4178 35.3957 68.4394 35.1975 66.4615 35ZM17.8022 37.3729C16.813 38.1636 15.8244 38.955 14.8352 39.2119C14.8352 49.6318 14.8352 59.5208 14.8352 68.8729C15.4879 68.8136 17.2088 67.6864 18.3956 67.0932C18.198 57.5436 17.9998 47.4564 17.8022 37.3729ZM122.835 39.2119C120.264 41.5847 117.692 44.4915 115.121 46.8644C117.692 53.3892 120.264 59.9158 122.835 65.9068C123.231 66.2431 123.626 66.045 123.488 65.8475C128.825 56.4936 137.076 50.1651 127.582 39.2119C126 39.2119 124.417 39.2119 122.835 39.2119ZM337.708 39.2119C335.063 41.9798 332.784 43.7506 329.993 46.8644C332.367 53.3892 335.275 59.9158 337.648 65.9068C338.638 65.6499 339.626 64.8586 340.615 64.0678C343.454 58.0947 347.572 56.1987 347.202 46.8644C346.217 43.5252 344.816 42.0332 341.862 39.2119C341.011 39.2119 339.626 39.2119 337.708 39.2119ZM459.949 39.8051C456.639 41.755 453.109 41.4821 450.396 42.7712C447.013 50.9885 446.187 59.7936 454.549 63.4746C457.551 65.2809 461.432 64.4024 464.103 63.4746C469.74 57.0138 471.943 52.4692 470.037 39.8051C467.209 39.8051 463.846 39.8051 459.949 39.8051ZM423.752 40.3983C418.591 48.1375 416.563 59.9526 427.253 64.0678C428.835 64.2653 430.418 64.4635 431.466 64.661C438.107 61.4149 442.908 47.2939 448.081 40.3983C440.506 40.3983 432.395 40.3983 423.752 40.3983Z" fill="#333333"/>
</svg>
