<svg width="590" height="155" viewBox="0 0 590 155" fill="none" xmlns="http://www.w3.org/2000/svg">
<path d="M61.7937 52.9915C57.1886 52.9915 53.5959 54.0592 51.0375 56.2055C48.4791 58.3519 45.5506 62.4157 42.2736 68.3972C42.2736 72.4066 42.2736 76.4922 42.3063 80.6868C42.3389 84.8815 42.3389 87.2239 42.3389 87.7578V90.5142C42.3389 91.1026 42.2845 91.5928 42.1865 91.996C42.0885 92.3991 42.0014 92.6388 41.947 92.7259C41.8926 92.8131 41.7402 93.031 41.4898 93.3905C41.0434 94.0334 40.4337 94.8069 39.639 95.7003C38.8443 96.5937 37.5596 97.7377 35.7633 99.1323C33.967 100.527 32.0726 101.671 30.0912 102.564C27.6635 103.621 25.5841 104.776 23.8422 106.051C22.1003 107.325 20.8265 108.448 20.0209 109.417C19.2153 110.387 18.2137 111.618 17.0161 113.122C15.8186 114.625 14.6972 115.856 13.6521 116.826C12.0735 118.362 9.97235 119.844 7.34862 121.249C4.72489 122.655 2.78703 123.374 1.52416 123.374C0.881834 123.374 0.555229 123.134 0.555229 122.644C0.555229 121.718 1.68746 120.051 3.95192 117.665C4.44183 117.142 4.93174 116.641 5.43253 116.183C5.93333 115.726 6.25993 115.42 6.40146 115.301C6.54299 115.181 6.7063 114.952 6.89137 114.636C7.07645 114.32 7.20709 114.004 7.2833 113.721C7.35951 113.438 7.49015 112.936 7.64256 112.206C8.56795 107.761 9.03608 95.2209 9.03608 74.5965C9.03608 60.9231 7.05467 54.0919 3.09186 54.0919C2.88501 54.0919 2.63462 54.1355 2.32978 54.2117C2.02495 54.288 1.75278 54.3861 1.51327 54.4841C1.27376 54.5822 1.02336 54.6584 0.783853 54.6911C0.544342 54.7238 0.348379 54.6911 0.20685 54.604C0.0653211 54.5168 0 54.3316 0 54.0919C0 53.2856 0.783853 51.9238 2.36245 50.028C3.94104 48.1323 5.88978 46.3455 8.20868 44.6894C10.5276 43.0333 12.5199 42.2053 14.1747 42.2053C15.0674 42.2053 15.873 42.3796 16.6024 42.7174C17.3319 43.0551 18.0722 43.6871 18.8451 44.6022C19.6181 45.5174 20.2822 46.9556 20.8483 48.9385C21.4144 50.9214 21.839 53.3837 22.1221 56.3363C24.5498 54.9635 27.2171 53.0895 30.1239 50.7253C33.0307 48.3611 35.4367 46.4326 37.3419 44.9291C39.2471 43.4256 40.6188 42.6847 41.468 42.6847C41.7946 42.6847 42.0559 42.7828 42.2518 42.9898V59.0056C46.8134 54.1137 51.854 50.1805 57.3519 47.2062C62.8497 44.2318 68.0863 42.7501 73.0507 42.7501C81.9017 42.7501 88.325 47.4568 92.3313 56.881C102.031 47.4132 111.449 42.6847 120.583 42.6847C124.382 42.6847 127.855 43.8941 131.012 46.3237C134.169 48.7533 136.554 51.7276 138.165 55.2468C139.776 58.7659 140.593 62.3286 140.593 65.924C140.593 70.1731 139.787 74.5638 138.165 79.1179C136.543 83.6721 134.126 87.7033 130.893 91.2224C127.822 94.5781 124.056 97.6069 119.581 100.287C115.107 102.967 111.166 104.318 107.725 104.318C104.938 104.318 102.674 103.403 100.932 101.562C99.19 99.7206 98.33 98.2389 98.33 97.1058C98.33 96.3758 99.1791 95.2318 100.877 93.6738C102.576 92.1158 104.514 90.6886 106.702 89.392C108.89 88.0955 110.578 87.4527 111.797 87.4527C112.156 87.4527 112.407 87.6597 112.526 88.0628C113.016 89.6426 114.007 91.0263 115.531 92.2139C117.055 93.4014 118.688 94.0007 120.474 94.0007C120.8 94.0007 121.062 93.8372 121.258 93.5104C122.716 91.2442 123.936 88.4986 124.927 85.2628C125.917 82.0269 126.407 78.6712 126.407 75.1957C126.407 69.5303 124.556 64.4204 120.855 59.8445C117.153 55.2686 113.049 52.9915 108.52 52.9915C105.167 52.9915 102.467 53.667 100.431 55.0289C98.3953 56.3908 96.1417 58.8857 93.6704 62.5247C93.7466 63.5815 93.7901 64.4204 93.7901 65.0742C93.7901 69.6392 92.8539 74.4766 90.9705 79.5755C89.087 84.6745 86.2565 89.0979 82.4569 92.8567C81.488 93.8263 80.3122 94.8723 78.9405 95.9836C77.5688 97.0949 75.8813 98.3151 73.8781 99.6552C71.8749 100.995 69.7085 102.096 67.3569 102.956C65.0053 103.817 62.828 104.264 60.8139 104.264C58.9523 104.264 57.2648 103.763 55.7515 102.749C54.2383 101.736 53.1496 100.712 52.5072 99.6552C51.8649 98.5984 51.5383 97.7704 51.5383 97.1711C51.5383 95.9182 53.3455 93.9789 56.96 91.3423C60.5744 88.7056 63.209 87.3982 64.8747 87.3982C65.2775 87.3982 65.5606 87.6597 65.7239 88.1827C65.8872 88.673 66.1267 89.1741 66.4533 89.6971C66.7799 90.2201 67.248 90.8302 67.8795 91.5166C68.5109 92.203 69.3492 92.7804 70.427 93.2489C71.5048 93.7174 72.7023 93.968 74.0305 94.0116C77.7538 87.8231 79.6046 81.09 79.6046 73.812C79.6046 68.5497 77.7321 63.7667 73.9979 59.4632C70.2637 55.1596 66.192 53.0024 61.7828 53.0024L61.7937 52.9915ZM22.6882 83.6285C22.6882 88.041 22.6664 91.4512 22.6229 93.8808C22.5793 96.3104 22.5575 97.8248 22.5358 98.435C22.514 99.0451 22.4704 99.6661 22.3834 100.32C22.2963 100.974 22.2418 101.616 22.1983 102.259L29.2312 97.5307C29.3074 94.8614 29.3509 89.2613 29.3509 80.7304V67.5691C29.3509 65.6298 29.3509 63.843 29.3183 62.2305C29.2856 60.6181 29.2856 59.2889 29.2856 58.2538V56.5869C26.2155 58.9729 23.9293 60.6725 22.4378 61.6858C22.6011 64.5948 22.6773 71.9163 22.6773 83.6503L22.6882 83.6285Z" fill="black"/>
<path d="M168.071 95.221C168.071 96.5175 164.968 98.6093 158.763 101.497C152.557 104.384 148.301 105.833 146.003 105.833C145.361 105.833 145.035 105.669 145.035 105.343C145.035 104.939 145.35 104.449 145.971 103.883C146.591 103.316 147.321 102.749 148.148 102.183C148.976 101.616 149.487 101.213 149.694 100.974C150.707 99.7206 151.327 98.6638 151.578 97.814C152.024 96.1144 152.285 90.5579 152.361 81.1336C152.568 57.4367 152.688 44.0902 152.721 41.0941C152.721 40.7672 152.753 39.5905 152.808 37.5423C152.862 35.494 152.895 33.729 152.895 32.2363C152.895 18.6828 151.033 11.917 147.321 11.917C147.157 11.917 146.918 11.9714 146.591 12.0695C146.265 12.1675 145.96 12.2656 145.677 12.3419C145.394 12.4181 145.111 12.4944 144.828 12.5489C144.545 12.6034 144.327 12.6034 144.164 12.5162C144 12.429 143.924 12.2765 143.924 12.0259C143.924 11.2524 144.784 9.98853 146.504 8.23441C148.224 6.4803 150.347 4.82424 152.873 3.28803C155.399 1.75182 157.576 0.978271 159.394 0.978271C160.2 0.978271 160.94 1.1417 161.604 1.46855C162.268 1.7954 162.943 2.38374 163.607 3.22266C164.272 4.06159 164.87 5.369 165.393 7.10132C165.915 8.83365 166.318 11.0018 166.601 13.5948C167.048 17.6042 167.309 34.9492 167.385 65.6516C169.127 63.9084 171.021 62.2415 173.079 60.6508C175.137 59.0601 177.477 57.4803 180.079 55.9223C182.681 54.3643 185.501 53.1114 188.538 52.1635C191.576 51.2156 194.515 50.7362 197.389 50.7362C199.937 50.7362 202.299 51.1829 204.477 52.0763C206.654 52.9697 208.483 54.1464 209.931 55.6281C211.379 57.1099 212.522 58.4173 213.328 59.5722C214.133 60.727 214.841 61.9037 215.451 63.124C225.031 54.8764 233.762 50.7471 241.644 50.7471C244.671 50.7471 247.469 51.379 250.038 52.632C252.607 53.8849 254.676 55.4974 256.255 57.4585C257.833 59.4196 259.052 61.5333 259.923 63.7995C260.794 66.0657 261.23 68.2883 261.23 70.4782C261.23 73.5942 260.675 76.6666 259.564 79.6954C258.454 82.7243 256.984 85.4589 255.166 87.8886C253.348 90.3182 251.301 92.5734 249.015 94.6544C246.729 96.7354 244.41 98.4786 242.047 99.8732C239.685 101.268 237.388 102.357 235.167 103.153C232.946 103.948 230.986 104.34 229.288 104.34C226.664 104.34 224.508 103.458 222.832 101.704C221.155 99.9494 220.317 98.544 220.317 97.4871C220.317 96.7136 221.177 95.5478 222.897 93.968C224.617 92.3882 226.566 90.961 228.743 89.6862C230.921 88.4115 232.587 87.7796 233.719 87.7796C234.045 87.7796 234.263 87.8559 234.383 88.0193C234.503 88.1827 234.59 88.3897 234.655 88.6512C234.72 88.9127 234.895 89.3158 235.199 89.8606C235.504 90.4053 235.94 90.961 236.506 91.5275C238.161 93.1836 239.957 94.0116 241.906 94.0116H242.396C242.515 94.0116 242.613 93.968 242.7 93.8918C242.788 93.8155 242.842 93.761 242.885 93.7392C242.929 93.7174 242.994 93.6085 243.092 93.4015C243.19 93.1945 243.288 93.0419 243.365 92.9112C245.868 88.7493 247.12 84.5438 247.12 80.2947C247.12 77.5818 246.598 75.0105 245.542 72.5591C244.486 70.1077 243.136 68.0595 241.481 66.4034C239.826 64.7473 237.986 63.429 235.961 62.4594C233.937 61.4897 231.955 60.9994 230.017 60.9994C229.168 60.9994 228.341 61.0539 227.535 61.152C226.729 61.25 225.978 61.4134 225.292 61.6422C224.606 61.871 223.986 62.0672 223.442 62.2524C222.897 62.4376 222.331 62.7317 221.743 63.1349C221.155 63.538 220.698 63.8431 220.382 64.0501C220.067 64.2571 219.653 64.5948 219.174 65.0851C218.695 65.5754 218.379 65.8695 218.238 66.0003C218.096 66.131 217.802 66.447 217.356 66.9699L216.692 67.6999V68.9093C216.692 73.1584 215.875 77.2222 214.231 81.1009C212.587 84.9796 210.519 88.2917 208.015 91.0155C205.511 93.7392 202.789 96.147 199.861 98.2062C196.932 100.265 194.156 101.791 191.521 102.782C188.887 103.774 186.655 104.264 184.793 104.264C182.126 104.264 179.949 103.403 178.272 101.682C176.595 99.9603 175.757 98.5549 175.757 97.4654C175.757 96.6918 176.617 95.526 178.337 93.9462C180.058 92.3664 182.006 90.9392 184.184 89.6645C186.361 88.3897 188.027 87.7578 189.159 87.7578C189.442 87.7578 189.638 87.8014 189.736 87.8777C189.834 87.9539 189.932 88.1609 190.008 88.4878C190.454 89.8606 191.38 91.1244 192.795 92.2793C194.21 93.4342 195.789 94.0116 197.52 94.0116C197.727 94.0116 197.868 93.968 197.945 93.8918C198.021 93.8155 198.206 93.5431 198.489 93.1073C199.578 91.3314 200.525 89.1197 201.341 86.494C202.158 83.8683 202.55 81.2207 202.55 78.5514C202.55 74.1062 200.764 70.0751 197.183 66.4797C193.601 62.8843 189.736 61.0757 185.577 61.0757C181.418 61.0757 177.924 62.0127 175.365 63.8975C172.807 65.7824 170.14 68.8003 167.396 72.9623C167.472 86.4286 167.701 93.8373 168.06 95.1665V95.2319L168.071 95.221Z" fill="black"/>
<path d="M318.712 49.7773C320.607 49.7773 322.327 50.1042 323.862 50.747C325.397 51.3898 326.649 52.2178 327.618 53.2311C328.587 54.2443 329.392 55.421 330.045 56.7829C330.699 58.1448 331.156 59.474 331.439 60.7923C331.722 62.1106 331.864 63.4071 331.864 64.7036C331.864 67.4165 331.243 70.271 330.013 73.289C328.783 76.3069 327.062 79.314 324.863 82.3319C322.664 85.3499 320.519 88.0519 318.44 90.4597C316.361 92.8675 313.955 95.5477 311.222 98.5003C308.49 101.453 306.519 103.675 305.311 105.179C301.631 109.711 298.376 114.385 295.545 119.223C292.714 124.06 291.299 128.211 291.299 131.687C291.299 134.073 292.464 136.284 294.783 138.333C297.102 140.381 299.345 141.394 301.478 141.394C302.534 141.394 303.492 141.22 304.353 140.882C305.213 140.544 305.866 140.196 306.29 139.847C306.715 139.499 307.412 138.878 308.381 137.962C309.35 137.047 310.101 136.35 310.623 135.87C312.931 133.844 314.63 132.842 315.718 132.842C316.121 132.842 316.328 133.049 316.328 133.452C316.328 134.095 315.838 135.13 314.847 136.546C313.857 137.962 312.452 139.531 310.634 141.253C308.816 142.974 306.813 144.619 304.636 146.199C302.458 147.779 299.998 149.086 297.265 150.143C294.533 151.2 291.92 151.723 289.416 151.723C286.422 151.723 283.635 150.579 281.055 148.291C278.475 146.003 277.179 143.53 277.179 140.86C277.179 138.474 277.887 135.598 279.302 132.242C280.717 128.887 282.426 125.694 284.43 122.655C286.433 119.615 288.229 117.033 289.829 114.887C291.43 112.74 292.693 111.16 293.618 110.158C288.969 95.3516 283.591 82.637 277.495 71.9925C274.185 66.2508 271.05 63.3744 268.099 63.3744C267.697 63.3744 267.174 63.4834 266.521 63.7122C265.868 63.941 265.454 64.0499 265.247 64.0499C264.888 64.0499 264.703 63.832 264.703 63.3853C264.703 62.8188 265.16 61.86 266.063 60.509C266.967 59.158 268.099 57.7526 269.428 56.2926C270.756 54.8327 272.334 53.547 274.152 52.4357C275.971 51.3244 277.647 50.7688 279.182 50.7688C280.075 50.7688 280.968 50.9758 281.882 51.4007C282.797 51.8256 283.635 52.4357 284.43 53.2202C285.224 54.0046 285.954 54.8218 286.64 55.6498C287.325 56.4778 287.979 57.4148 288.61 58.4716C289.242 59.5285 289.742 60.4001 290.123 61.1083C290.504 61.8164 290.896 62.5791 291.277 63.3853C291.658 64.1916 291.876 64.6383 291.909 64.7254C301.25 54.7782 310.177 49.7991 318.701 49.7991L318.712 49.7773ZM317.743 74.0407C317.743 70.5216 316.753 67.3185 314.771 64.4204C312.79 61.5223 310.242 60.0841 307.129 60.0841C304.538 60.0841 302.36 60.6833 300.586 61.8709C298.811 63.0585 296.547 65.3138 293.792 68.6368C298.561 79.0307 302.284 88.6729 304.951 97.5742C309.077 92.8784 312.235 88.6947 314.434 85.0121C316.633 81.3296 317.732 77.6688 317.732 74.0299L317.743 74.0407Z" fill="black"/>
<path d="M391.338 50.7471C394.452 50.7471 397.315 51.3463 399.95 52.5339C402.585 53.7214 404.697 55.2468 406.319 57.088C407.941 58.9293 409.193 60.9013 410.075 63.0041C410.956 65.1068 411.414 67.1333 411.414 69.0726C411.414 73.3544 409.835 77.6798 406.689 82.0269C403.543 86.3741 399.895 90.0893 395.78 93.1617C397.479 93.1617 399.395 93.1617 401.539 93.1944C403.684 93.2271 405.034 93.2271 405.6 93.2271C407.701 93.2271 409.204 93.1399 410.118 92.9547C411.033 92.7695 411.991 92.3555 412.992 91.7127C416.433 89.4465 418.871 88.3134 420.33 88.3134C420.853 88.3134 421.114 88.4768 421.114 88.8037C421.114 90.4597 417.391 93.652 409.955 98.3914C405.872 100.984 402.77 102.662 400.647 103.425C398.524 104.188 395.704 104.58 392.188 104.58C391.175 104.58 387.147 104.449 380.092 104.188C373.038 103.926 365.994 103.795 358.961 103.795C354.356 103.795 350.132 103.893 346.289 104.1C343.741 105.114 341.847 105.615 340.595 105.615C339.822 105.615 339.441 105.408 339.441 105.005C339.441 104.558 339.789 104.057 340.475 103.49C341.161 102.924 341.934 102.368 342.783 101.823C343.632 101.279 344.46 100.407 345.265 99.2194C346.071 98.0318 346.561 96.6808 346.724 95.1882C346.768 94.7851 346.844 91.7672 346.964 86.1453C347.083 80.5234 347.149 77.3093 347.149 76.5031C347.149 73.8338 346.898 71.4805 346.387 69.4322C345.875 67.3839 345.233 65.8477 344.449 64.7909C343.665 63.734 342.881 62.9496 342.119 62.4266C341.357 61.9037 340.649 61.6422 339.996 61.6422C339.789 61.6422 339.386 61.7402 338.788 61.9472C338.189 62.1542 337.688 62.2523 337.307 62.2523C336.926 62.2523 336.73 62.0453 336.73 61.6422C336.73 60.8686 337.579 59.6157 339.277 57.8834C340.976 56.151 343.066 54.5277 345.548 53.035C348.031 51.5424 350.164 50.7907 351.939 50.7907C353.833 50.7907 355.51 51.5751 356.936 53.1549C358.362 54.7347 359.429 56.6195 360.115 58.8312C360.801 61.043 361.225 63.3963 361.389 65.9022C363.131 64.2025 365.014 62.5465 367.061 60.9231C369.107 59.2997 371.448 57.6981 374.094 56.0966C376.739 54.495 379.57 53.2203 382.585 52.2397C385.601 51.2591 388.519 50.7798 391.349 50.7798L391.338 50.7471ZM397.217 78.3553C397.217 74.0299 395.41 70.0532 391.796 66.436C388.181 62.8189 384.284 61.0103 380.125 61.0103C378.1 61.0103 376.217 61.2717 374.453 61.7947C372.689 62.3177 371.274 62.8951 370.174 63.527C369.075 64.1589 367.91 65.1286 366.658 66.436C365.406 67.7434 364.513 68.7567 363.991 69.4649C363.468 70.1731 362.652 71.3388 361.563 72.9513C361.639 83.9118 361.868 90.7866 362.227 93.5757C367.801 93.2925 376.935 93.1508 389.629 93.1508C391.088 91.6909 392.231 90.4706 393.08 89.4792C393.929 88.4877 394.833 86.9406 395.78 84.8379C396.727 82.7351 397.206 80.567 397.206 78.3444L397.217 78.3553Z" fill="black"/>
<path d="M511.311 97.4654C511.311 100.374 510.245 103.48 508.1 106.781C505.955 110.082 503.059 113.176 499.401 116.096C495.743 119.016 491.704 121.653 487.273 124.039C482.842 126.425 478.139 128.32 473.153 129.715C468.167 131.11 463.464 131.807 459.055 131.807C455.778 131.807 452.512 131.458 449.235 130.772C445.958 130.085 442.801 129.018 439.752 127.558C436.704 126.098 434.004 124.344 431.663 122.284C429.323 120.225 427.439 117.687 426.024 114.669C424.609 111.651 423.901 108.393 423.901 104.874C423.901 101.595 424.326 98.3697 425.175 95.1992C426.024 92.0287 427.243 89.0653 428.844 86.3088C430.444 83.5524 432.142 80.9811 433.939 78.5733C435.735 76.1655 437.803 73.8448 440.155 71.6004C442.496 69.356 444.608 67.4494 446.491 65.8696C448.375 64.2898 450.421 62.6773 452.642 61.0213C448.037 60.6182 443.748 60.4111 439.796 60.4111C436.562 60.4111 433.471 60.531 430.52 60.7707C427.57 61.0104 425.207 61.2501 423.433 61.468C421.658 61.6859 420.559 61.8057 420.156 61.8057C419.633 61.8057 419.372 61.7077 419.372 61.5007C419.372 60.3676 420.972 58.5045 424.162 55.9224C427.352 53.3402 430.39 51.7931 433.253 51.3137C438.87 50.4203 444.934 49.9736 451.445 49.9736C456.572 49.9736 464.161 50.3441 474.209 51.0958C484.247 51.8476 491.715 52.218 496.614 52.218C500.011 52.218 503.103 52.0982 505.89 51.8585C508.677 51.6188 510.843 51.3682 512.378 51.1285C513.913 50.8888 514.839 50.769 515.165 50.769C515.688 50.769 515.949 50.9324 515.949 51.2593C515.949 52.2289 514.708 53.7869 512.226 55.9333C509.744 58.0796 507.349 59.6376 505.041 60.6073C503.625 61.2174 500.936 61.7186 496.973 62.1217C493.011 62.5248 488.689 62.7318 483.996 62.7318C481.492 62.7318 479.01 62.6882 476.572 62.612C474.133 62.5357 472.151 62.4376 470.66 62.3396C469.168 62.2415 467.154 62.089 464.629 61.882C462.103 61.675 460.176 61.5333 458.837 61.4571C455.397 63.7995 452.381 66.3054 449.779 68.9747C447.177 71.644 445.152 74.1499 443.715 76.4923C442.278 78.8348 441.113 81.2753 440.231 83.8029C439.349 86.3306 438.762 88.4987 438.5 90.2964C438.239 92.0941 438.108 93.9027 438.108 95.7222C438.108 99.7316 439.077 103.381 441.015 106.704C442.953 110.027 445.522 112.729 448.712 114.832C451.902 116.935 455.484 118.558 459.447 119.713C463.409 120.868 467.47 121.446 471.629 121.446C476.114 121.446 480.632 120.726 485.183 119.288C489.734 117.85 492.553 116.565 493.642 115.431C496.026 112.926 497.224 110.027 497.224 106.759C497.224 104.297 496.516 102.107 495.101 100.211C493.686 98.3152 491.704 97.0514 489.157 96.4522C488.547 96.2887 488.242 96.0926 488.242 95.842C488.242 94.5891 490.06 92.6498 493.697 90.0132C497.333 87.3765 499.956 86.0691 501.579 86.0691C503.68 86.0691 505.835 87.1477 508.035 89.3159C510.234 91.484 511.333 94.1969 511.333 97.4763L511.311 97.4654Z" fill="black"/>
<path d="M197.487 22.3109C197.868 22.0059 198.282 21.8533 198.728 21.8533C199.175 21.8533 199.588 22.0168 199.969 22.3436C200.351 22.6705 201.309 23.5966 202.844 25.1328C204.379 26.7126 205.718 28.0635 206.85 29.1966C207.819 30.1663 208.309 30.9399 208.309 31.5064C208.309 31.7897 208.233 32.0947 208.069 32.4216C207.906 32.7484 207.601 33.1516 207.155 33.631C206.708 34.1103 206.251 34.5788 205.794 35.0255C205.337 35.4722 204.618 36.1477 203.671 37.0629C202.724 37.9781 201.842 38.8279 201.036 39.6451C200.067 40.6147 199.284 41.105 198.674 41.105C198.391 41.105 198.086 41.0287 197.759 40.8653C197.433 40.7019 197.03 40.3968 196.551 39.9501C196.072 39.5034 195.604 39.0458 195.157 38.5882C194.711 38.1306 194.036 37.4116 193.122 36.4637C192.207 35.5158 191.358 34.6333 190.541 33.8271C189.529 32.8138 189.028 32.0512 189.028 31.5173C189.028 30.9508 189.529 30.1772 190.541 29.2075L194.178 25.5686C195.996 23.7055 197.095 22.6269 197.476 22.3218L197.487 22.3109ZM207.547 5.26008C207.928 4.95502 208.341 4.80249 208.788 4.80249C209.234 4.80249 209.626 4.94413 209.974 5.2274C210.323 5.51067 211.422 6.57839 213.273 8.44146L216.909 12.0804L217.247 12.4182L217.552 12.7232L217.824 12.9956C217.944 13.1155 218.031 13.2026 218.063 13.268C218.096 13.3334 218.151 13.4096 218.216 13.5077C218.281 13.6057 218.314 13.7038 218.336 13.7801C218.357 13.8563 218.379 13.9544 218.401 14.0524C218.423 14.1505 218.434 14.2594 218.434 14.3902C218.434 14.8369 218.227 15.3054 217.824 15.7848C217.421 16.2641 216.289 17.4408 214.427 19.3039C213.088 20.6004 211.978 21.6899 211.096 22.5833C210.127 23.553 209.354 24.0433 208.788 24.0433C208.505 24.0433 208.2 23.967 207.873 23.8036C207.547 23.6401 207.144 23.3351 206.665 22.8884C206.186 22.4417 205.718 21.9841 205.271 21.5265C204.825 21.0689 204.15 20.3498 203.236 19.4019C202.321 18.4541 201.472 17.5716 200.655 16.7653C199.643 15.7521 199.142 14.9676 199.142 14.4011C199.142 13.8345 199.643 13.061 200.655 12.0913L204.292 8.45235C206.066 6.63287 207.155 5.57604 207.536 5.27098L207.547 5.26008ZM217.671 22.2782C218.02 21.995 218.412 21.8533 218.858 21.8533C219.305 21.8533 219.707 21.995 220.067 22.2782C220.426 22.5615 221.536 23.651 223.398 25.5577L227.034 29.1966C228.003 30.1663 228.493 30.9399 228.493 31.5064C228.493 31.7897 228.417 32.0947 228.253 32.4216C228.09 32.7484 227.785 33.1516 227.339 33.631C226.893 34.1103 226.435 34.5788 225.978 35.0255C225.521 35.4722 224.802 36.1477 223.855 37.0629C222.908 37.9781 222.026 38.8279 221.221 39.6451L220.284 40.582C220.143 40.7237 219.947 40.8435 219.707 40.9416C219.468 41.0396 219.185 41.0941 218.858 41.0941C218.412 41.0941 217.976 40.9089 217.552 40.5493C217.127 40.1898 215.788 38.8715 213.524 36.6053L210.737 33.8162C209.724 32.8029 209.223 32.0403 209.223 31.5064C209.223 30.9399 209.724 30.1663 210.737 29.1966L214.797 25.1328C216.376 23.5203 217.334 22.5615 217.671 22.2782Z" fill="black"/>
<path d="M367.714 24.3156C368.084 24.0323 368.476 23.8798 368.901 23.8798C369.325 23.8798 369.717 24.0323 370.087 24.3374C370.458 24.6425 371.361 25.5359 372.831 26.9958C374.29 28.4993 375.563 29.7849 376.641 30.8636C377.567 31.7896 378.024 32.5196 378.024 33.0535C378.024 33.3259 377.948 33.6091 377.795 33.9142C377.643 34.2193 377.349 34.6115 376.935 35.0691C376.521 35.5267 376.075 35.9734 375.64 36.3983C375.204 36.8232 374.529 37.466 373.626 38.3376C372.722 39.2092 371.884 40.0264 371.111 40.789C370.185 41.7151 369.434 42.1727 368.857 42.1727C368.585 42.1727 368.302 42.0964 367.997 41.9439C367.692 41.7914 367.3 41.4972 366.843 41.0832C366.386 40.6692 365.939 40.2225 365.515 39.7867C365.09 39.3509 364.448 38.6754 363.577 37.7711C362.706 36.8668 361.89 36.0278 361.128 35.2543C360.169 34.2955 359.69 33.5656 359.69 33.0644C359.69 32.5305 360.169 31.7896 361.128 30.8745L364.59 27.4098C366.321 25.6339 367.366 24.6098 367.736 24.3265L367.714 24.3156ZM377.294 8.09279C377.665 7.80951 378.057 7.65698 378.481 7.65698C378.906 7.65698 379.276 7.78772 379.602 8.0601C379.929 8.33248 380.974 9.34572 382.749 11.1216L386.211 14.5863L386.526 14.9022L386.81 15.1855L387.071 15.447C387.191 15.5668 387.267 15.654 387.299 15.7085C387.332 15.7629 387.387 15.8392 387.441 15.9373C387.495 16.0353 387.539 16.1225 387.561 16.1987C387.583 16.275 387.604 16.3622 387.615 16.4602C387.626 16.5583 387.648 16.6672 387.648 16.7762C387.648 17.2011 387.452 17.6369 387.071 18.1054C386.69 18.5739 385.612 19.6852 383.837 21.4502C382.564 22.6813 381.508 23.7164 380.669 24.5662C379.744 25.4923 379.015 25.9499 378.481 25.9499C378.209 25.9499 377.926 25.8736 377.621 25.7211C377.316 25.5685 376.924 25.2744 376.467 24.8604C376.01 24.4463 375.563 23.9996 375.139 23.5638C374.714 23.128 374.072 22.4525 373.201 21.5482C372.33 20.644 371.514 19.805 370.751 19.0315C369.793 18.0727 369.314 17.3209 369.314 16.7762C369.314 16.2314 369.793 15.5015 370.751 14.5863L374.213 11.1216C375.901 9.3893 376.935 8.37606 377.294 8.09279ZM386.929 24.2829C387.256 24.0105 387.626 23.8798 388.051 23.8798C388.475 23.8798 388.856 24.0105 389.205 24.2829C389.553 24.5553 390.609 25.5903 392.373 27.3989L395.835 30.8636C396.76 31.7896 397.217 32.5196 397.217 33.0535C397.217 33.3259 397.141 33.6091 396.989 33.9142C396.836 34.2193 396.542 34.6115 396.129 35.0691C395.715 35.5267 395.269 35.9734 394.833 36.3983C394.398 36.8232 393.723 37.466 392.819 38.3376C391.915 39.2092 391.077 40.0264 390.304 40.789L389.412 41.6824C389.281 41.8131 389.096 41.933 388.867 42.0311C388.639 42.1291 388.366 42.1727 388.062 42.1727C387.637 42.1727 387.223 41.9984 386.82 41.6497C386.418 41.3011 385.133 40.0481 382.988 37.9018L380.332 35.2434C379.374 34.2846 378.895 33.5547 378.895 33.0535C378.895 32.5196 379.374 31.7788 380.332 30.8636L384.197 26.9958C385.699 25.4596 386.614 24.5553 386.94 24.2829H386.929Z" fill="black"/>
<path d="M585.603 7.48269C583.317 4.97681 580.476 3.72388 577.09 3.72388C575.108 3.72388 573.094 4.21416 571.058 5.18382C569.023 6.15349 567.063 7.51537 565.212 9.28038C563.351 11.0345 561.554 12.9847 559.812 15.1093C558.07 17.2338 556.383 19.6198 554.75 22.2674C553.117 24.9149 551.636 27.4207 550.33 29.785C549.013 32.1492 547.728 34.6442 546.476 37.2808C541.544 47.5549 539.084 53.678 539.084 55.6609C539.084 55.7153 539.084 55.7589 539.095 55.8134C539.073 55.8352 539.04 55.8461 539.018 55.857C532.595 60.0625 527.881 64.475 524.898 69.0836C521.904 73.6923 520.413 78.2028 520.413 82.6154C520.413 87.8341 522.177 92.2466 525.715 95.842C529.253 99.4374 533.281 101.246 537.81 101.246C540.684 101.246 543.841 100.385 547.292 98.6639C550.744 96.9424 553.563 95.1121 555.752 93.1727C557.929 91.2334 559.028 89.8388 559.028 88.989C559.028 88.6295 558.789 88.4442 558.299 88.4442C557.526 88.4442 556.383 88.8583 554.848 89.6863C553.313 90.5143 551.778 90.9283 550.243 90.9283C546.16 90.9283 542.535 89.1633 539.356 85.6224C536.188 82.0815 534.598 77.9523 534.598 73.2129C534.598 68.4735 536.275 64.2898 539.628 60.2913C541.61 59.5613 543.689 59.2018 545.877 59.2018C548.784 59.2018 551.636 59.8555 554.423 61.1738C557.21 62.4921 559.703 64.3225 561.913 66.6649C564.113 69.0074 565.898 71.9708 567.248 75.5553C568.598 79.1398 569.284 83.0294 569.284 87.2349C569.284 98.6857 566.551 109.755 561.097 120.454C555.643 131.153 548.947 139.433 541.033 145.295C540.586 145.622 539.367 146.417 537.364 147.692C535.36 148.967 533.782 150.089 532.606 151.058C531.43 152.028 530.853 152.834 530.853 153.488C530.853 153.848 531.158 154.033 531.768 154.033C533.913 154.033 537.505 152.409 542.557 149.152C547.608 145.894 552.039 142.506 555.828 138.987C559.507 135.587 562.839 131.927 565.833 128.004C568.827 124.082 571.254 120.389 573.138 116.935C575.021 113.481 576.643 109.886 578.015 106.171C579.387 102.444 580.421 99.2195 581.107 96.4957C581.793 93.7611 582.326 91.0046 582.718 88.2155C583.099 85.4263 583.328 83.3998 583.382 82.1469C583.448 80.8939 583.469 79.7173 583.469 78.6278C583.469 74.2588 582.784 70.1949 581.412 66.4361C580.04 62.6773 578.2 59.5286 575.892 57.001C573.584 54.4733 570.939 52.4904 567.956 51.0522C564.962 49.6141 561.848 48.895 558.615 48.895C553.705 48.895 548.425 50.4857 542.774 53.6235C542.96 53.3184 543.145 52.9916 543.341 52.6429C544.832 49.93 546.487 46.6397 548.283 42.7502C550.079 38.8715 552.006 34.9819 554.075 31.1033C556.133 27.2246 558.451 23.9234 561.021 21.2105C563.59 18.4976 566.105 17.1467 568.565 17.1467C570.307 17.1467 571.81 17.8548 573.083 19.2712C574.357 20.6876 574.989 22.2891 574.989 24.065C574.989 25.1981 574.706 26.2114 574.139 27.0939C574.096 27.1702 573.116 27.8565 571.2 29.1313C569.284 30.406 568.326 31.3648 568.326 32.0076C568.326 32.3344 568.707 32.4979 569.48 32.4979C570.688 32.4979 572.343 32.1383 574.422 31.4083C576.502 30.6784 578.657 29.6651 580.878 28.3795C583.099 27.083 585.026 25.3616 586.638 23.1934C588.249 21.0253 589.065 18.7155 589.065 16.2424C589.065 12.9302 587.922 10.0104 585.636 7.50448L585.603 7.48269Z" fill="black"/>
</svg>
