<svg width="579" height="222" viewBox="0 0 579 222" fill="none" xmlns="http://www.w3.org/2000/svg">
<g clip-path="url(#clip0_428_63)">
<path d="M12.2902 117.69C12.2902 106.09 11.7102 97.46 10.5602 91.8C9.41024 86.14 7.32023 83.31 4.29023 83.31C3.90023 83.31 3.47023 83.37 2.97023 83.47C2.48023 83.58 2.08023 83.71 1.77023 83.84C1.47023 83.98 1.16023 84.09 0.860234 84.17C0.560234 84.25 0.340234 84.25 0.200234 84.17C0.0602344 84.09 -0.00976562 83.88 -0.00976562 83.55C-0.00976562 82.56 0.900234 80.97 2.71023 78.77C4.52023 76.57 6.83024 74.5 9.64023 72.54C12.4402 70.59 14.9402 69.61 17.1402 69.61C18.8402 69.61 20.3302 70.18 21.5902 71.3C22.8502 72.43 23.8002 73.8 24.4302 75.42C25.0602 77.04 25.5702 78.65 25.9602 80.24C26.3402 81.83 26.6102 83.21 26.7402 84.36C26.8802 85.51 26.9702 86.09 27.0302 86.09C27.1402 86.09 27.7302 85.75 28.8002 85.06C29.8702 84.37 31.6602 83.1 34.1602 81.23C36.6602 79.36 39.3102 77.22 42.1202 74.8C43.0502 73.92 44.3602 72.95 46.0402 71.87C47.7202 70.8 48.9702 70.26 49.7902 70.26C50.0602 70.26 50.2802 70.34 50.4502 70.51V93.76C55.8902 87.44 62.3502 81.94 69.8302 77.27C77.3102 72.6 84.8902 70.26 92.5902 70.26C98.2002 70.26 103.16 71.8 107.47 74.88C111.78 77.96 115.48 83.18 118.56 90.55C124.39 84.83 129.58 80.52 134.14 77.6C142 72.65 149.59 70.18 156.9 70.18C162.23 70.18 167.04 71.93 171.33 75.42C175.62 78.91 178.82 83.1 180.94 87.99C183.06 92.88 184.11 97.8 184.11 102.75C184.11 109.24 182.83 115.82 180.28 122.5C177.72 129.18 173.94 134.97 168.94 139.86C167.02 141.73 164.84 143.6 162.43 145.47C160.01 147.34 156.84 149.21 152.91 151.08C148.98 152.95 145.37 153.88 142.07 153.88C140.04 153.88 138.15 153.46 136.42 152.6C134.69 151.74 133.36 150.74 132.42 149.59C131.48 148.44 130.77 147.38 130.28 146.41C129.79 145.45 129.54 144.75 129.54 144.31C129.54 142.94 131.63 140.75 135.81 137.76C139.99 134.76 143.01 133.27 144.88 133.27C145.54 133.27 145.9 133.49 145.95 133.93C146.61 136.07 147.97 137.97 150.03 139.62C152.09 141.27 154.3 142.09 156.67 142.09C156.89 142.09 157.66 142.01 158.98 141.84C164.86 133.54 167.8 123.92 167.8 112.98C167.8 108.31 166.73 103.61 164.58 98.88C162.43 94.15 159.43 90.17 155.55 86.92C151.67 83.68 147.56 82.06 143.22 82.06C137.83 82.06 133.53 83.33 130.32 85.85C127.11 88.37 123.76 92.42 120.3 97.97C120.35 98.63 120.38 99.68 120.38 101.1C120.38 106.65 119.42 112.7 117.49 119.24C115.57 125.78 112.49 131.58 108.26 136.64C105.13 140.43 100.67 144.25 94.9002 148.1C89.1302 151.95 83.5802 153.87 78.2402 153.87C74.8902 153.87 71.9902 152.66 69.5402 150.24C67.0902 147.82 65.8702 145.84 65.8702 144.3C65.8702 142.93 67.9302 140.73 72.0502 137.7C76.1702 134.68 79.3102 133.16 81.4502 133.16C81.7202 133.16 81.9002 133.2 81.9902 133.28C82.0702 133.36 82.1702 133.62 82.2802 134.06C82.8802 136.04 84.2202 137.87 86.2802 139.54C88.3402 141.21 90.5802 142.05 93.0002 142.05C94.1002 142.05 94.7602 142.01 94.9802 141.93C95.2002 141.85 95.4502 141.59 95.7202 141.15C98.2502 137.52 100.28 133.06 101.82 127.75C103.36 122.45 104.13 117.04 104.13 111.55C104.13 106.99 103.03 102.44 100.83 97.9C98.6302 93.37 95.5902 89.59 91.7202 86.56C87.8402 83.54 83.7302 82.02 79.3902 82.02C76.5302 82.02 74.0002 82.32 71.8002 82.93C69.6002 83.54 67.2802 84.66 64.8302 86.31C62.3802 87.96 59.9802 90.42 57.6202 93.69C55.2602 96.96 52.8602 101.13 50.4502 106.18C50.4502 111.68 50.4602 117.35 50.4902 123.21C50.5202 129.06 50.5302 132.37 50.5302 133.14C50.5302 135.5 50.4902 137.17 50.4102 138.13C50.3302 139.09 50.2302 139.71 50.1202 139.99C50.0102 140.27 49.7302 140.71 49.3002 141.31C47.7602 143.4 46.0602 145.2 44.1902 146.71C42.3202 148.22 40.5702 149.39 38.9502 150.22C37.3302 151.04 35.3602 152.27 33.0502 153.89C30.7402 155.51 28.5402 157.45 26.4502 159.7C25.4102 160.8 24.1002 162.49 22.5302 164.77C20.9602 167.05 19.3702 169.12 17.7502 170.99C16.1302 172.86 14.3302 174.4 12.3502 175.61C7.51023 178.52 4.13023 179.98 2.21023 179.98C1.60023 179.98 1.30023 179.79 1.30023 179.4C1.30023 177.81 4.08023 174.01 9.63023 168.02C10.6702 164.78 11.3702 159.9 11.7302 153.39C12.0902 146.87 12.2702 134.96 12.2702 117.64L12.2902 117.69ZM35.6202 105.4C35.6202 95.78 35.5902 89.38 35.5402 86.19C32.0802 88.88 29.4102 90.84 27.5402 92.04C27.8702 96.93 28.0302 106.66 28.0302 121.23C28.0302 134.09 27.8402 144.48 27.4502 152.4C30.0302 150.31 32.7002 148.36 35.4502 146.55C35.5602 127.09 35.6102 113.38 35.6102 105.4H35.6202Z" fill="black"/>
<path d="M262.54 79.84C265.12 79.84 267.46 80.35 269.55 81.37C271.64 82.39 273.31 83.66 274.58 85.2C275.84 86.74 276.9 88.5 277.75 90.48C278.6 92.46 279.19 94.34 279.52 96.13C279.85 97.92 280.01 99.61 280.01 101.2C280.01 104.99 279.07 108.99 277.21 113.2C275.34 117.4 272.81 121.58 269.62 125.73C266.43 129.88 263.22 133.77 259.97 137.4C256.73 141.03 253.21 144.93 249.42 149.11C245.63 153.29 242.71 156.72 240.68 159.42C230.13 173.49 224.85 184.35 224.85 191.99C224.85 195.18 226.46 198.21 229.67 201.1C232.89 203.98 236.06 205.43 239.19 205.43C241.61 205.43 243.79 204.77 245.75 203.45C247.7 202.13 249.65 200.51 251.6 198.59C253.55 196.67 255.27 195.32 256.75 194.55C258.29 193.73 259.06 193.78 259.06 194.71C259.06 195.81 258.03 197.57 255.97 199.99C253.91 202.41 251.32 204.92 248.22 207.54C245.11 210.15 241.43 212.43 237.17 214.38C232.91 216.33 228.91 217.31 225.17 217.31C220.88 217.31 217.05 215.73 213.67 212.57C210.29 209.41 208.6 206.12 208.6 202.72C208.6 198.27 210.43 192.44 214.08 185.24C217.74 178.04 223.27 169.85 230.69 160.67C228.44 153.52 226.1 146.87 223.68 140.72C221.26 134.56 219.21 129.7 217.54 126.13C215.86 122.56 213.46 117.69 210.33 111.54C207.64 106.48 205.09 102.58 202.7 99.83C200.31 97.08 197.71 95.71 194.91 95.71C194.52 95.71 194.1 95.77 193.63 95.87C193.16 95.98 192.76 96.09 192.43 96.2C192.1 96.31 191.8 96.39 191.52 96.45C191.24 96.5 191.04 96.49 190.9 96.41C190.76 96.33 190.69 96.12 190.69 95.79C190.69 94.91 191.5 93.33 193.12 91.05C194.74 88.77 196.95 86.56 199.76 84.41C202.57 82.26 205.23 81.19 207.76 81.19C209.19 81.19 210.58 81.55 211.92 82.26C213.27 82.97 214.45 83.81 215.47 84.77C216.49 85.73 217.68 87.27 219.06 89.39C220.43 91.51 221.55 93.34 222.4 94.87C223.25 96.41 224.5 98.75 226.15 101.88C228.84 98.69 231.33 95.97 233.61 93.72C235.89 91.47 238.57 89.18 241.65 86.88C244.73 84.57 248.03 82.83 251.54 81.64C255.06 80.46 258.71 79.87 262.51 79.87L262.54 79.84ZM263.78 111.75C263.78 109.72 263.5 107.6 262.96 105.4C262.41 103.2 261.57 101.04 260.45 98.93C259.32 96.81 257.74 95.09 255.71 93.74C253.68 92.39 251.34 91.72 248.7 91.72C244.91 91.72 241.66 92.82 238.97 95.02C236.28 97.22 232.76 101.09 228.42 106.65C233.86 117.53 238.97 130.76 243.76 146.31C250.19 139.44 255.14 133.25 258.6 127.76C262.06 122.26 263.79 116.93 263.79 111.76L263.78 111.75Z" fill="black"/>
<path d="M224 47.09C224.33 46.9 224.66 46.8 224.99 46.8C225.32 46.8 225.65 46.9 225.98 47.09C226.31 47.28 226.74 47.61 227.26 48.08C227.78 48.55 228.3 49.06 228.83 49.6C229.35 50.15 230.09 50.92 231.06 51.91C232.02 52.9 232.97 53.83 233.9 54.71C235.38 56.14 236.13 57.21 236.13 57.93C236.13 58.48 235.87 59.06 235.35 59.66C234.83 60.27 233.74 61.36 232.09 62.96C230.44 64.56 228.96 66.04 227.64 67.41C226.98 68.12 226.53 68.55 226.28 68.69C226.03 68.83 225.63 68.89 225.08 68.89C224.69 68.89 224.39 68.85 224.17 68.77C223.95 68.69 223.63 68.45 223.22 68.07C222.81 67.69 222.37 67.25 221.9 66.75C221.43 66.26 220.62 65.42 219.47 64.24C218.32 63.06 217.02 61.81 215.59 60.49C214.49 59.45 213.94 58.57 213.94 57.85C213.94 57.24 214.68 56.2 216.17 54.72C217.1 53.84 218.05 52.91 219.01 51.92C219.97 50.93 220.7 50.16 221.2 49.61C221.7 49.06 222.2 48.55 222.73 48.09C223.25 47.62 223.68 47.29 224.01 47.1L224 47.09ZM238.76 23.63C239.31 23.63 239.86 23.85 240.41 24.29C240.96 24.73 241.99 25.75 243.5 27.34C245.01 28.93 246.37 30.31 247.58 31.46C249.12 32.94 249.89 34.02 249.89 34.68C249.89 35.01 249.78 35.35 249.56 35.71C249.34 36.07 248.98 36.52 248.49 37.07C248 37.62 247.45 38.17 246.84 38.72C246.23 39.27 245.42 40.05 244.41 41.07C243.39 42.09 242.39 43.12 241.4 44.16C240.68 44.87 240.2 45.31 239.96 45.48C239.72 45.65 239.31 45.73 238.76 45.73C238.37 45.73 238.07 45.69 237.85 45.61C237.63 45.53 237.31 45.29 236.9 44.91C236.49 44.53 236.05 44.09 235.58 43.59C235.11 43.1 234.3 42.26 233.15 41.07C232 39.89 230.7 38.64 229.27 37.32C228.23 36.33 227.7 35.45 227.7 34.68C227.7 34.02 228.44 32.95 229.93 31.46C230.86 30.58 231.81 29.66 232.77 28.7C233.73 27.74 234.46 26.98 234.96 26.43C235.45 25.88 235.96 25.37 236.49 24.9C237.01 24.43 237.44 24.1 237.77 23.91C238.1 23.72 238.43 23.62 238.76 23.62V23.63ZM251.46 47.09C251.79 46.9 252.12 46.8 252.45 46.8C252.78 46.8 253.11 46.9 253.44 47.09C253.77 47.28 254.2 47.61 254.72 48.08C255.24 48.55 255.76 49.06 256.29 49.6C256.81 50.15 257.55 50.92 258.52 51.91C259.48 52.9 260.43 53.83 261.36 54.71C262.84 56.14 263.59 57.21 263.59 57.93C263.59 58.48 263.33 59.06 262.81 59.66C262.29 60.27 261.2 61.36 259.55 62.96C257.9 64.56 256.42 66.04 255.1 67.41C254.44 68.12 253.97 68.55 253.7 68.69C253.42 68.83 253.01 68.89 252.46 68.89C252.07 68.89 251.77 68.85 251.55 68.77C251.33 68.69 251.01 68.45 250.6 68.07C250.19 67.69 249.75 67.25 249.28 66.75C248.81 66.26 248 65.42 246.85 64.24C245.7 63.06 244.4 61.81 242.97 60.49C241.93 59.5 241.4 58.65 241.4 57.93C241.4 57.27 242.14 56.2 243.63 54.71C244.56 53.83 245.51 52.9 246.47 51.91C247.43 50.92 248.16 50.15 248.66 49.6C249.16 49.05 249.66 48.54 250.19 48.08C250.71 47.61 251.14 47.28 251.47 47.09H251.46Z" fill="black"/>
<path d="M442.63 57.09C441.35 57.09 440.02 57.22 438.65 57.49C437.28 57.75 435.65 58.03 433.77 58.32C431.89 58.61 427.61 58.89 420.93 59.15C414.24 59.41 405.54 59.55 394.83 59.55C387.16 59.55 380.16 59.52 373.81 59.45C373.9 59.33 373.99 59.2 374.08 59.09C374.99 57.85 376.25 56.08 377.87 53.77C379.49 51.46 380.66 49.84 381.37 48.91C387.91 39.95 392.9 32.42 396.34 26.32C399.77 20.22 401.49 15.33 401.49 11.64C401.49 7.94999 400.25 5.30999 397.78 3.18999C395.31 1.06999 392.01 0.00999451 387.89 0.00999451C381.79 0.00999451 375.16 2.34999 368.02 7.01999C363.35 10.1 360.15 12.94 358.41 15.56C356.67 18.18 355.81 20.82 355.81 23.52C355.81 27.15 356.25 28.96 357.13 28.96C359.27 28.96 362.41 27.44 366.53 24.38C370.65 21.33 372.71 19.15 372.71 17.83L372.38 16.43C372.22 15.55 372.13 14.67 372.13 13.79C372.13 13.08 372.21 12.22 372.38 11.23C380.79 11.62 385 15.13 385 21.78C385 23.92 384.59 26.2 383.76 28.62C382.11 33.4 380.13 38.14 377.82 42.84C375.51 47.54 373.45 51.29 371.64 54.1C370.44 55.96 369.36 57.72 368.38 59.39C367.69 59.38 366.99 59.37 366.32 59.36C358.12 59.23 351.9 59.06 347.64 58.85C343.38 58.64 339.81 58.4 336.93 58.14C334.05 57.88 332.12 57.64 331.16 57.43C330.2 57.22 329.33 57.05 328.55 56.92C327.77 56.79 327.02 56.72 326.28 56.72C323.26 56.72 318.29 58.21 311.38 61.2C304.46 64.18 301.01 66.34 301.01 67.66C301.01 68.77 311.15 69.59 331.44 70.12C351.72 70.65 368.23 70.91 380.96 70.91C399.55 70.91 412.97 70.14 421.21 68.61C425.24 67.87 430.05 66.18 435.63 63.54C441.22 60.9 444.01 58.97 444.01 57.75C444.01 57.33 443.55 57.12 442.64 57.12L442.63 57.09Z" fill="black"/>
<path d="M578.01 81.16C577.57 81.16 576.32 81.31 574.26 81.61C572.2 81.91 569.31 82.23 565.6 82.56C561.89 82.89 557.84 83.05 553.44 83.05C547.28 83.05 536.88 82.56 522.23 81.57C512.83 80.93 504.98 80.5 498.67 80.28C500.2 77.98 501.83 75.46 503.56 72.72C506.89 67.43 510.45 62.17 514.23 56.94C518.01 51.71 522.09 47.38 526.47 43.96C530.85 40.54 534.96 39.07 538.78 39.56C541.49 39.9 543.64 41.23 545.23 43.52C546.82 45.82 547.44 48.35 547.09 51.11C546.88 52.76 546.41 54.13 545.67 55.24C544.93 56.34 544.25 57 543.62 57.22C541.55 57.97 539.8 58.81 538.37 59.74C536.93 60.66 536.19 61.39 536.12 61.92C536.07 62.33 536.51 62.6 537.45 62.72C538.98 62.91 541.16 62.67 544 61.98C546.84 61.3 549.83 60.25 552.97 58.86C556.11 57.46 558.91 55.44 561.37 52.8C563.83 50.15 565.27 47.18 565.69 43.89C566.3 39.12 565.2 34.81 562.4 30.96C559.6 27.1 555.85 24.88 551.14 24.28C547.96 23.88 544.68 24.3 541.29 25.54C537.9 26.78 534.52 28.79 531.15 31.56C527.78 34.33 524.55 37.33 521.48 40.56C518.41 43.79 515.19 47.7 511.82 52.29C508.45 56.89 505.5 61.06 502.96 64.8C500.42 68.54 497.64 72.86 494.63 77.73C494.11 78.57 493.62 79.37 493.16 80.13C491.87 80.11 490.66 80.09 489.54 80.09C482.05 80.09 475.48 80.51 469.79 81.34C462.72 81.18 449.95 81.19 449.63 81.19C449.14 81.19 411.32 82.15 370.81 82.15C334.36 82.15 315.1 81.63 313.01 80.58C311.25 79.76 310.37 78.44 310.37 76.62C310.37 76.29 310.4 75.96 310.45 75.63C310.5 75.3 310.57 75 310.66 74.72C310.74 74.45 310.84 74.2 310.95 73.98C311.06 73.76 311.14 73.6 311.2 73.49L311.28 73.24C311.28 72.8 311.03 72.58 310.54 72.58C309.44 72.58 307.65 73.4 305.18 75.05C302.71 76.7 300.4 78.77 298.25 81.27C296.11 83.77 295.03 85.96 295.03 87.83C295.03 90.91 296.29 92.83 298.82 93.6C299.92 93.93 307.23 94.21 320.75 94.42C317.45 96.84 314.35 99.61 311.43 102.75C308.52 105.88 305.93 109.62 303.68 113.96C301.43 118.3 300.3 122.48 300.3 126.49C300.3 130.78 301.34 135.02 303.43 139.23C305.52 143.43 308.51 146.94 312.42 149.74C316.32 152.54 320.58 153.95 325.2 153.95C326.63 153.95 328.09 153.83 329.57 153.58C331.05 153.33 332.4 153.07 333.61 152.8C334.82 152.52 336.15 152.06 337.61 151.4C339.07 150.74 340.26 150.19 341.2 149.75C342.13 149.31 343.33 148.61 344.79 147.65C346.25 146.69 347.3 146 347.96 145.59C348.62 145.18 349.64 144.41 351.01 143.28C352.38 142.15 353.26 141.44 353.65 141.14C354.03 140.84 354.89 140.11 356.21 138.96C357.53 137.81 358.24 137.2 358.35 137.15C363.74 148.31 371.63 153.89 382.01 153.89C388.33 153.89 394.98 151.98 401.96 148.16C408.94 144.34 415.24 139.43 420.84 133.44C420.45 176.48 420.18 198.44 420.02 199.32C419.58 202.01 418.74 204.5 417.51 206.78C416.27 209.06 414.91 210.89 413.43 212.26C411.95 213.63 410.49 214.86 409.06 215.93C407.63 217 406.43 217.93 405.47 218.73C404.51 219.53 404.03 220.23 404.03 220.83C404.03 221.27 404.39 221.49 405.1 221.49C406.42 221.49 408.59 220.73 411.61 219.22C414.63 217.71 417.88 215.66 421.34 213.08C422.93 211.87 424.76 210.33 426.82 208.46C428.88 206.59 430.27 205.46 430.98 205.08C433.67 203.6 435.76 202.21 437.25 200.92C438.73 199.63 439.48 198.65 439.48 197.99C439.48 197.83 439.42 197.69 439.32 197.58C438.38 196.15 437.84 194.34 437.67 192.14C437.51 189.94 437.39 184.94 437.34 177.13C437.28 163 437.2 148.27 437.09 132.93C436.98 117.59 436.93 108.17 436.93 104.65C436.93 100.45 437 97.04 437.14 94.38C442.35 94.38 450.56 94.26 451.04 94.26C451.52 94.26 453.66 94.38 456.16 94.26C458.45 94.15 460.44 94.33 464.42 94.05C468.4 93.78 472.71 93.64 477.32 93.64C483.37 93.64 490.37 92.5 496.7 92.94C496.31 93.22 495.71 93.68 494.89 94.34C492.2 96.38 490.08 98.02 488.54 99.29C487 100.56 484.72 102.53 481.7 105.23C478.68 107.93 476.22 110.36 474.32 112.53C472.42 114.7 470.25 117.46 467.81 120.82C465.36 124.17 463.44 127.42 462.04 130.55C460.64 133.68 459.43 137.26 458.41 141.27C457.39 145.28 456.88 149.35 456.88 153.47C456.88 158.86 458.16 163.87 460.71 168.52C463.27 173.17 466.72 177.06 471.06 180.19C475.4 183.32 480.46 185.78 486.23 187.57C492 189.36 498.08 190.25 504.45 190.25C510.22 190.25 516.36 189.34 522.88 187.53C529.39 185.72 535.56 183.26 541.39 180.15C547.22 177.04 552.51 173.59 557.26 169.8C562.01 166.01 565.79 161.94 568.6 157.6C571.41 153.26 572.81 149.11 572.81 145.15C572.81 142.51 572.26 140.13 571.16 138.02C570.06 135.9 568.74 134.3 567.2 133.2C565.66 132.1 564.22 131.28 562.87 130.73C561.52 130.18 560.44 129.91 559.61 129.91C557.69 129.91 554.65 131.43 550.5 134.49C546.35 137.54 544.27 139.72 544.27 141.04C544.27 141.43 544.49 141.65 544.93 141.7C548.17 142.31 550.92 143.91 553.18 146.52C555.43 149.13 556.56 152.17 556.56 155.63C556.56 158.82 555.78 161.74 554.21 164.41C552.64 167.08 551.06 168.96 549.47 170.06C546.94 171.93 542.72 173.78 536.81 175.62C530.9 177.46 524.95 178.38 518.96 178.38C514.67 178.38 510.4 177.93 506.14 177.02C501.88 176.11 497.76 174.68 493.77 172.73C489.78 170.78 486.27 168.44 483.22 165.72C480.17 163 477.72 159.66 475.88 155.7C474.04 151.74 473.12 147.43 473.12 142.75C473.12 131.26 477.1 120.46 485.08 110.35C489.7 104.52 495.99 98.89 503.96 93.45C519.35 94.6 530.84 95.18 538.43 95.18C544.15 95.18 549.7 94.92 555.09 94.4C560.48 93.88 563.86 93.37 565.23 92.87C567.92 91.99 570.89 90.2 574.14 87.51C577.38 84.82 579 82.89 579 81.74C579 81.36 578.67 81.16 578.01 81.16ZM361.65 111.59C358.24 117.8 356.54 123.41 356.54 128.41C356.54 129.35 356.57 130.03 356.62 130.47C353.82 134.7 351.25 137.7 348.91 139.46C346.57 141.22 343.23 142.1 338.89 142.1C333.23 142.1 328.09 139.32 323.47 133.77C318.85 128.22 316.54 122.31 316.54 116.04C316.54 113.51 316.87 111.15 317.53 108.95C318.19 106.75 319.25 104.64 320.7 102.6C322.16 100.57 323.26 99.14 324 98.31C324.74 97.49 325.94 96.22 327.59 94.52C331.71 94.58 337.51 94.6 344.99 94.6C353.02 94.6 363.9 94.49 377.64 94.27C370.38 99.6 365.05 105.37 361.64 111.59H361.65ZM420.94 123.3C419.67 125.33 418.82 126.69 418.38 127.38C417.94 128.07 417.1 129.3 415.87 131.09C414.63 132.88 413.64 134.11 412.9 134.8C412.16 135.49 411.09 136.42 409.68 137.6C408.28 138.78 406.94 139.62 405.68 140.11C404.41 140.6 402.9 141.06 401.14 141.47C399.38 141.88 397.51 142.09 395.53 142.09C389.7 142.09 384.45 139.49 379.78 134.3C375.11 129.1 372.77 123.4 372.77 117.19C372.77 114.61 373.14 112.12 373.88 109.73C374.62 107.34 375.75 105.07 377.26 102.93C378.77 100.79 379.98 99.21 380.89 98.19C381.8 97.17 383.08 95.81 384.72 94.11C397.25 93.83 408.77 93.48 419.27 93.04C419.43 93.98 419.64 94.87 419.89 95.72C420.14 96.57 420.33 97.34 420.47 98.03C420.61 98.72 420.73 100.32 420.84 102.85C420.95 105.38 421 108.87 421 113.32C421 117.39 420.97 120.71 420.92 123.3H420.94Z" fill="black"/>
</g>
<defs>
<clipPath id="clip0_428_63">
<rect width="579" height="221.5" fill="white"/>
</clipPath>
</defs>
</svg>
