<svg width="492" height="156" viewBox="0 0 492 156" fill="none" xmlns="http://www.w3.org/2000/svg">
<path d="M62.79 52.8C58.11 52.8 54.46 53.89 51.85 56.07C49.24 58.25 46.27 62.37 42.95 68.45C42.95 72.52 42.95 76.68 42.98 80.93C43 85.18 43.01 87.58 43.01 88.11V90.91C43.01 91.51 42.96 92.01 42.86 92.42C42.76 92.83 42.67 93.08 42.61 93.16C42.55 93.24 42.39 93.47 42.15 93.84C41.7 94.5 41.07 95.28 40.27 96.18C39.47 97.08 38.15 98.24 36.33 99.66C34.5 101.08 32.58 102.24 30.57 103.14C28.11 104.21 25.99 105.39 24.22 106.68C22.45 107.97 21.16 109.11 20.34 110.1C19.52 111.09 18.5 112.34 17.29 113.86C16.08 115.38 14.94 116.63 13.87 117.62C12.27 119.18 10.13 120.68 7.46 122.12C4.79 123.56 2.82 124.28 1.54 124.28C0.88 124.28 0.55 124.03 0.55 123.54C0.55 122.6 1.7 120.91 4 118.49C4.49 117.96 5 117.45 5.51 116.98C6.02 116.51 6.35 116.21 6.5 116.08C6.64 115.96 6.81 115.73 6.99 115.4C7.17 115.07 7.31 114.76 7.39 114.48C7.47 114.19 7.6 113.68 7.76 112.94C8.7 108.42 9.18 95.69 9.18 74.74C9.18 60.86 7.17 53.91 3.14 53.91C2.93 53.91 2.68 53.95 2.37 54.03C2.06 54.11 1.79 54.21 1.54 54.31C1.29 54.41 1.05 54.49 0.8 54.53C0.55 54.57 0.36 54.54 0.22 54.44C0.08 54.34 0 54.16 0 53.92C0 53.1 0.8 51.72 2.4 49.79C4 47.86 5.98 46.05 8.35 44.37C10.71 42.69 12.73 41.84 14.42 41.84C15.32 41.84 16.15 42.02 16.88 42.36C17.62 42.71 18.38 43.35 19.16 44.27C19.94 45.19 20.62 46.66 21.19 48.68C21.77 50.69 22.2 53.2 22.48 56.19C24.94 54.8 27.66 52.9 30.61 50.49C33.57 48.09 36.01 46.13 37.94 44.61C39.87 43.09 41.27 42.33 42.13 42.33C42.46 42.33 42.72 42.43 42.93 42.64V58.91C47.57 53.94 52.69 49.95 58.27 46.93C63.86 43.91 69.18 42.4 74.23 42.4C83.23 42.4 89.76 47.19 93.82 56.76C103.68 47.15 113.25 42.34 122.53 42.34C126.39 42.34 129.92 43.57 133.13 46.04C136.34 48.51 138.76 51.52 140.4 55.1C142.04 58.67 142.86 62.29 142.86 65.94C142.86 70.25 142.04 74.72 140.4 79.34C138.76 83.96 136.29 88.06 133.01 91.63C129.89 95.04 126.06 98.11 121.52 100.84C116.98 103.57 112.97 104.94 109.47 104.94C106.64 104.94 104.33 104.01 102.57 102.14C100.8 100.27 99.92 98.76 99.92 97.61C99.92 96.87 100.78 95.71 102.51 94.13C104.24 92.55 106.21 91.1 108.43 89.79C110.65 88.48 112.37 87.82 113.61 87.82C113.98 87.82 114.23 88.03 114.35 88.44C114.84 90.04 115.86 91.45 117.4 92.66C118.94 93.87 120.61 94.48 122.42 94.48C122.75 94.48 123.01 94.32 123.22 93.99C124.7 91.69 125.94 88.9 126.95 85.61C127.96 82.32 128.46 78.91 128.46 75.38C128.46 69.63 126.58 64.43 122.82 59.79C119.06 55.15 114.88 52.83 110.28 52.83C106.87 52.83 104.13 53.52 102.05 54.89C99.97 56.26 97.69 58.8 95.18 62.5C95.26 63.57 95.3 64.43 95.3 65.09C95.3 69.73 94.35 74.64 92.43 79.82C90.52 85 87.63 89.49 83.77 93.31C82.78 94.3 81.59 95.35 80.2 96.48C78.8 97.61 77.09 98.85 75.05 100.21C73.02 101.56 70.81 102.68 68.43 103.57C66.05 104.45 63.83 104.9 61.78 104.9C59.89 104.9 58.17 104.39 56.64 103.36C55.1 102.33 54 101.29 53.34 100.22C52.68 99.15 52.35 98.31 52.35 97.69C52.35 96.42 54.19 94.44 57.87 91.77C61.55 89.1 64.22 87.76 65.91 87.76C66.32 87.76 66.61 88.03 66.77 88.56C66.93 89.05 67.18 89.57 67.51 90.1C67.84 90.63 68.32 91.25 68.96 91.95C69.6 92.65 70.46 93.23 71.55 93.71C72.64 94.18 73.86 94.44 75.22 94.48C79 88.2 80.89 81.35 80.89 73.96C80.89 68.62 78.99 63.76 75.19 59.39C71.39 55.02 67.25 52.83 62.78 52.83L62.79 52.8ZM23.05 83.92C23.05 88.4 23.03 91.87 22.99 94.33C22.95 96.79 22.92 98.33 22.9 98.95C22.88 99.56 22.83 100.2 22.75 100.86C22.67 101.52 22.61 102.18 22.57 102.83L29.72 98.02C29.8 95.31 29.84 89.62 29.84 80.95V67.58C29.84 65.61 29.83 63.8 29.81 62.16C29.79 60.52 29.78 59.17 29.78 58.12V56.43C26.66 58.86 24.34 60.58 22.82 61.61C22.98 64.57 23.07 72 23.07 83.92H23.05Z" fill="black"/>
<path d="M170.8 95.69C170.8 97.01 167.65 99.13 161.34 102.07C155.03 105.01 150.71 106.47 148.37 106.47C147.71 106.47 147.38 106.31 147.38 105.98C147.38 105.57 147.7 105.08 148.34 104.5C148.98 103.92 149.71 103.35 150.56 102.77C151.4 102.19 151.92 101.78 152.13 101.54C153.16 100.27 153.79 99.2 154.04 98.34C154.49 96.61 154.76 90.97 154.84 81.4C155.05 57.33 155.17 43.78 155.21 40.73C155.21 40.4 155.24 39.2 155.3 37.13C155.36 35.05 155.39 33.26 155.39 31.74C155.39 17.98 153.5 11.1 149.72 11.1C149.56 11.1 149.31 11.15 148.98 11.26C148.65 11.36 148.34 11.45 148.06 11.54C147.77 11.62 147.48 11.69 147.2 11.76C146.91 11.82 146.69 11.81 146.52 11.73C146.36 11.65 146.27 11.48 146.27 11.24C146.27 10.46 147.14 9.18 148.89 7.39C150.64 5.6 152.79 3.93 155.36 2.37C157.93 0.809999 160.13 0.0299988 161.98 0.0299988C162.8 0.0299988 163.55 0.189999 164.23 0.519999C164.91 0.849999 165.59 1.45 166.26 2.31C166.94 3.17 167.54 4.49 168.08 6.25C168.61 8.02 169.02 10.21 169.31 12.84C169.76 16.7 170.03 34.8 170.11 67.12C173.48 63.87 176.9 61.09 180.37 58.77C183.84 56.45 187.04 54.73 189.98 53.59C192.92 52.46 195.51 51.66 197.77 51.19C200.03 50.72 202.12 50.48 204.05 50.48C210.01 50.48 215.12 52.41 219.39 56.27C223.66 60.13 225.8 64.55 225.8 69.52C225.8 73.26 224.97 76.98 223.3 80.67C221.64 84.37 219.5 87.63 216.89 90.47C214.28 93.31 211.43 95.84 208.33 98.08C205.23 100.32 202.16 102.02 199.12 103.2C196.08 104.37 193.41 104.96 191.11 104.96C188.32 104.96 185.95 103.98 184.02 102.03C182.09 100.08 181.12 98.47 181.12 97.19C181.12 96 182.96 94.07 186.64 91.4C190.32 88.73 192.99 87.4 194.68 87.4C194.97 87.4 195.19 87.51 195.36 87.74C195.52 87.97 195.65 88.24 195.73 88.57C195.81 88.9 196.06 89.38 196.47 90.02C196.88 90.66 197.41 91.28 198.07 91.9C199.92 93.63 201.99 94.49 204.29 94.49C205.4 94.49 206.1 94.28 206.38 93.87C207.78 91.98 208.97 89.65 209.95 86.88C210.94 84.11 211.43 81.39 211.43 78.72C211.43 74.28 209.44 70.23 205.45 66.55C201.47 62.87 196.99 61.04 192.02 61.04C189.31 61.04 186.82 61.38 184.56 62.06C182.3 62.74 180.27 63.75 178.46 65.11C176.65 66.47 175.17 67.73 174.02 68.9C172.87 70.07 171.56 71.58 170.08 73.43C170.16 86.86 170.39 94.28 170.76 95.67V95.73L170.8 95.69Z" fill="black"/>
<path d="M233.89 61.49C233.89 60.67 234.75 59.38 236.48 57.64C238.21 55.9 240.31 54.27 242.79 52.77C245.27 51.27 247.36 50.52 249.04 50.52C250.52 50.52 251.81 51.03 252.92 52.06C254.03 53.09 254.87 54.39 255.45 55.97C256.03 57.55 256.43 58.83 256.65 59.82C256.87 60.81 257.03 61.69 257.11 62.47C257.44 64.81 257.61 70.07 257.63 78.24C257.65 86.41 257.91 92.08 258.4 95.25C257.99 96.15 257.08 97.1 255.69 98.08C254.29 99.07 253.02 99.84 251.87 100.39C250.72 100.95 249.14 101.64 247.13 102.48C245.12 103.32 244.03 103.79 243.86 103.87C240.45 105.43 237.92 106.21 236.28 106.21C235.5 106.21 235.11 106 235.11 105.6C235.11 105.15 235.46 104.64 236.16 104.06C236.86 103.48 237.64 102.92 238.5 102.37C239.36 101.82 240.2 100.95 241.03 99.75C241.85 98.56 242.34 97.18 242.51 95.62C242.76 93.73 242.88 87.3 242.88 76.34C242.88 73.71 242.68 71.4 242.29 69.41C241.9 67.42 241.39 65.88 240.75 64.79C240.11 63.7 239.46 62.89 238.81 62.36C238.15 61.83 237.49 61.56 236.84 61.56C236.72 61.56 236.39 61.65 235.85 61.84C235.32 62.03 234.85 62.11 234.46 62.09C234.07 62.07 233.87 61.87 233.87 61.51L233.89 61.49Z" fill="black"/>
<path d="M279.24 81.21C279.24 77.51 279.01 74.31 278.56 71.6C278.11 68.89 277.51 66.84 276.77 65.47C276.03 64.1 275.28 63.1 274.52 62.48C273.76 61.86 272.99 61.55 272.21 61.55C271.92 61.55 271.4 61.67 270.64 61.92C269.88 62.17 269.38 62.29 269.13 62.29C268.76 62.29 268.58 62.1 268.58 61.74C268.58 61.16 269.12 60.25 270.21 59C271.3 57.75 272.62 56.49 274.18 55.24C275.74 53.99 277.49 52.89 279.42 51.94C281.35 51 283.03 50.52 284.47 50.52C289.32 50.52 292.3 55.68 293.4 65.99C298.25 61.14 303.31 57.36 308.59 54.65C313.87 51.94 318.89 50.58 323.65 50.58C332.19 50.58 338.5 54.75 342.57 63.09C352.31 54.71 361.18 50.52 369.19 50.52C372.27 50.52 375.11 51.16 377.72 52.43C380.33 53.7 382.43 55.34 384.03 57.33C385.63 59.32 386.87 61.47 387.76 63.77C388.65 66.07 389.09 68.33 389.09 70.55C389.09 73.71 388.52 76.83 387.4 79.92C386.28 83.01 384.78 85.77 382.93 88.24C381.08 90.71 379 93 376.68 95.11C374.36 97.23 372 98.99 369.6 100.41C367.2 101.83 364.86 102.94 362.61 103.74C360.35 104.54 358.36 104.94 356.63 104.94C353.96 104.94 351.77 104.05 350.07 102.26C348.37 100.47 347.51 99.05 347.51 97.98C347.51 97.2 348.38 96.01 350.13 94.4C351.87 92.8 353.86 91.35 356.08 90.06C358.3 88.77 359.98 88.12 361.13 88.12C361.46 88.12 361.68 88.2 361.81 88.37C361.94 88.54 362.03 88.75 362.09 89.02C362.15 89.29 362.34 89.7 362.64 90.25C362.95 90.8 363.39 91.37 363.97 91.94C365.65 93.63 367.48 94.47 369.45 94.47H369.94C370.06 94.47 370.16 94.43 370.25 94.35C370.33 94.27 370.39 94.22 370.43 94.2C370.47 94.18 370.54 94.07 370.65 93.86C370.75 93.65 370.84 93.49 370.93 93.37C373.48 89.14 374.75 84.87 374.75 80.55C374.75 77.8 374.22 75.18 373.15 72.69C372.08 70.21 370.71 68.12 369.02 66.44C367.33 64.75 365.47 63.42 363.41 62.43C361.36 61.44 359.34 60.95 357.37 60.95C356.51 60.95 355.67 61 354.84 61.1C354.02 61.2 353.26 61.37 352.56 61.59C351.86 61.82 351.24 62.02 350.68 62.21C350.13 62.4 349.55 62.69 348.95 63.1C348.35 63.51 347.89 63.82 347.56 64.03C347.23 64.24 346.82 64.58 346.33 65.08C345.84 65.58 345.52 65.88 345.37 66.01C345.22 66.14 344.93 66.46 344.48 67L343.8 67.74V68.97C343.8 73.28 342.97 77.41 341.3 81.35C339.64 85.29 337.53 88.65 334.99 91.42C332.44 94.19 329.68 96.63 326.7 98.72C323.72 100.81 320.9 102.37 318.23 103.37C315.56 104.38 313.28 104.88 311.39 104.88C308.68 104.88 306.47 104.01 304.77 102.26C303.06 100.52 302.21 99.09 302.21 97.98C302.21 97.2 303.08 96.01 304.83 94.4C306.58 92.8 308.56 91.35 310.78 90.06C313 88.77 314.68 88.12 315.83 88.12C316.12 88.12 316.31 88.16 316.41 88.24C316.51 88.32 316.6 88.53 316.69 88.86C317.14 90.26 318.09 91.54 319.52 92.71C320.96 93.88 322.56 94.47 324.33 94.47C324.54 94.47 324.68 94.43 324.76 94.35C324.84 94.27 325.03 94 325.31 93.55C326.42 91.74 327.38 89.5 328.21 86.83C329.03 84.16 329.44 81.47 329.44 78.76C329.44 74.24 327.62 70.16 323.99 66.5C320.35 62.84 316.42 61.02 312.19 61.02C309.23 61.02 306.6 61.54 304.3 62.59C302 63.64 300.13 64.94 298.69 66.5C297.25 68.06 295.61 70.22 293.76 72.97C293.8 75.97 293.84 82.37 293.88 92.16C293.92 101.96 293.96 111.01 294 119.33C294.04 127.65 294.06 131.99 294.06 132.36C294.1 133.51 294.2 134.51 294.37 135.35C294.53 136.19 294.71 136.77 294.89 137.11C295.07 137.44 295.24 137.73 295.38 137.97C295.52 138.22 295.6 138.4 295.6 138.52C295.6 139.05 294.97 139.89 293.72 141.02C292.47 142.15 290.98 143.21 289.25 144.19C289.13 144.27 288.24 144.94 286.6 146.19C284.96 147.44 283.23 148.73 281.42 150.04C279.61 151.35 277.61 152.58 275.41 153.71C273.21 154.84 271.46 155.4 270.14 155.4C269.52 155.4 269.22 155.24 269.22 154.91C269.22 154.5 269.65 153.86 270.51 153C271.37 152.14 272.28 151.34 273.22 150.6L274.58 149.49C277.04 146.69 278.44 143.59 278.77 140.19V137.6C278.81 135.83 278.84 133.51 278.86 130.64C278.88 127.76 278.91 124.53 278.95 120.94C278.99 117.34 279.02 113.6 279.04 109.69C279.06 105.79 279.08 102.05 279.1 98.48C279.12 94.9 279.14 91.57 279.16 88.47C279.18 85.37 279.19 82.96 279.19 81.23L279.24 81.21Z" fill="black"/>
<path d="M487.25 97.97C487.25 100.93 486.16 104.08 483.98 107.43C481.8 110.78 478.86 113.93 475.14 116.89C471.42 119.85 467.31 122.54 462.82 124.96C458.32 127.39 453.54 129.31 448.46 130.72C443.39 132.14 438.61 132.85 434.14 132.85C430.81 132.85 427.49 132.5 424.16 131.8C420.83 131.1 417.62 130.01 414.52 128.54C411.42 127.06 408.68 125.27 406.29 123.18C403.91 121.09 402 118.51 400.56 115.45C399.12 112.39 398.4 109.07 398.4 105.5C398.4 102.17 398.83 98.9 399.69 95.67C400.55 92.45 401.79 89.44 403.42 86.64C405.04 83.85 406.77 81.23 408.6 78.78C410.43 76.34 412.53 73.97 414.91 71.69C417.29 69.41 419.44 67.47 421.35 65.87C423.26 64.27 425.35 62.62 427.6 60.94C422.92 60.53 418.56 60.32 414.54 60.32C411.25 60.32 408.11 60.44 405.11 60.69C402.11 60.94 399.71 61.17 397.9 61.4C396.09 61.63 394.98 61.74 394.57 61.74C394.04 61.74 393.77 61.64 393.77 61.43C393.77 60.28 395.39 58.39 398.64 55.76C401.88 53.13 404.96 51.57 407.88 51.08C413.59 50.18 419.75 49.72 426.36 49.72C431.58 49.72 439.29 50.1 449.5 50.86C459.71 51.62 467.3 52 472.27 52C475.72 52 478.86 51.88 481.7 51.63C484.54 51.38 486.73 51.14 488.29 50.89C489.85 50.64 490.79 50.52 491.12 50.52C491.65 50.52 491.92 50.68 491.92 51.01C491.92 52 490.66 53.58 488.13 55.76C485.6 57.94 483.17 59.52 480.83 60.51C479.39 61.12 476.66 61.64 472.64 62.05C468.61 62.46 464.22 62.67 459.45 62.67C456.9 62.67 454.39 62.63 451.9 62.55C449.41 62.47 447.41 62.38 445.89 62.27C444.37 62.17 442.33 62.01 439.76 61.81C437.19 61.6 435.23 61.46 433.88 61.38C430.39 63.76 427.32 66.31 424.67 69.02C422.02 71.73 419.97 74.28 418.51 76.66C417.05 79.04 415.87 81.52 414.97 84.09C414.07 86.66 413.48 88.85 413.21 90.68C412.94 92.51 412.81 94.35 412.81 96.2C412.81 100.27 413.8 103.99 415.77 107.35C417.74 110.72 420.35 113.47 423.6 115.6C426.84 117.74 430.48 119.39 434.51 120.56C438.54 121.73 442.66 122.32 446.89 122.32C451.45 122.32 456.04 121.59 460.66 120.13C465.28 118.67 468.15 117.37 469.26 116.22C471.68 113.67 472.9 110.74 472.9 107.41C472.9 104.91 472.18 102.69 470.74 100.76C469.3 98.83 467.29 97.56 464.7 96.94C464.08 96.78 463.78 96.57 463.78 96.32C463.78 95.05 465.63 93.08 469.33 90.4C473.03 87.73 475.7 86.4 477.34 86.4C479.47 86.4 481.66 87.5 483.9 89.69C486.14 91.89 487.26 94.65 487.26 97.98L487.25 97.97Z" fill="black"/>
<path d="M190.18 38.1C189.66 38.1 189.39 37.92 189.39 37.56C189.39 37.32 191.99 33.2 197.19 25.2C202.39 17.2 205.13 13.04 205.41 12.72C206.74 11.15 208.97 9.64001 212.09 8.19001C215.21 6.74001 217.54 6.01001 219.07 6.01001C219.71 6.01001 220.04 6.19001 220.04 6.55001C220.04 6.75001 218.54 8.88001 215.54 12.93C212.54 16.98 209.53 20.96 206.5 24.87L202.03 30.79C200.58 32.4 198.54 34.02 195.93 35.66C193.31 37.29 191.4 38.11 190.19 38.11L190.18 38.1Z" fill="black"/>
<path d="M244.57 21.21C245.03 20.82 245.47 20.62 245.88 20.62C246.29 20.62 246.73 20.82 247.19 21.21C247.65 21.61 248.49 22.44 249.69 23.71C250.89 24.98 252.08 26.17 253.25 27.27C254.14 28.13 254.59 28.83 254.59 29.38C254.59 29.86 254.37 30.36 253.92 30.87C253.47 31.39 252.61 32.23 251.34 33.4C250.07 34.57 248.93 35.69 247.94 36.75C247.08 37.64 246.38 38.09 245.83 38.09C245.38 38.09 244.91 37.87 244.41 37.42C243.91 36.97 243.09 36.12 241.94 34.87C240.79 33.62 239.65 32.47 238.51 31.44C237.58 30.58 237.12 29.89 237.12 29.38C237.12 28.87 237.58 28.16 238.51 27.27C239.68 26.17 240.86 24.98 242.07 23.71C243.27 22.44 244.11 21.61 244.57 21.21Z" fill="black"/>
<path d="M324.74 24.18C325.1 23.89 325.49 23.75 325.91 23.75C326.33 23.75 326.72 23.9 327.08 24.21C327.44 24.52 328.34 25.39 329.79 26.84C331.24 28.32 332.49 29.6 333.56 30.66C334.47 31.57 334.93 32.3 334.93 32.83C334.93 33.1 334.85 33.38 334.7 33.69C334.55 34 334.26 34.37 333.84 34.83C333.42 35.29 332.99 35.72 332.56 36.14C332.12 36.56 331.46 37.2 330.56 38.05C329.66 38.91 328.84 39.71 328.08 40.48C327.17 41.39 326.43 41.85 325.85 41.85C325.58 41.85 325.3 41.77 324.99 41.62C324.68 41.47 324.31 41.18 323.85 40.76C323.39 40.34 322.96 39.91 322.54 39.48C322.12 39.04 321.48 38.38 320.63 37.48C319.77 36.59 318.97 35.76 318.2 35C317.25 34.05 316.77 33.33 316.77 32.83C316.77 32.3 317.25 31.57 318.2 30.66L321.62 27.24C323.33 25.49 324.37 24.47 324.73 24.19L324.74 24.18ZM334.21 8.13999C334.57 7.85999 334.96 7.70999 335.38 7.70999C335.8 7.70999 336.17 7.83999 336.49 8.10999C336.81 8.37999 337.85 9.38999 339.6 11.13C340.93 12.46 342.07 13.6 343.02 14.55C343.1 14.63 343.2 14.73 343.33 14.86C343.46 14.99 343.56 15.09 343.61 15.15C343.67 15.21 343.75 15.29 343.87 15.41C343.99 15.53 344.06 15.61 344.1 15.67C344.14 15.73 344.19 15.8 344.24 15.9C344.3 16 344.33 16.08 344.35 16.16C344.37 16.24 344.39 16.32 344.41 16.42C344.43 16.52 344.44 16.62 344.44 16.73C344.44 17.15 344.25 17.59 343.87 18.04C343.49 18.5 342.42 19.6 340.67 21.35C339.41 22.57 338.37 23.6 337.53 24.43C336.62 25.34 335.89 25.8 335.36 25.8C335.09 25.8 334.81 25.72 334.5 25.57C334.19 25.42 333.82 25.13 333.36 24.71C332.9 24.29 332.47 23.86 332.05 23.43C331.63 22.99 330.99 22.33 330.14 21.43C329.29 20.54 328.48 19.71 327.72 18.95C326.77 18 326.29 17.26 326.29 16.72C326.29 16.18 326.77 15.46 327.72 14.55L331.14 11.13C332.81 9.41999 333.83 8.41999 334.19 8.12999L334.21 8.13999ZM343.74 24.15C344.06 23.88 344.43 23.75 344.85 23.75C345.27 23.75 345.65 23.88 345.99 24.15C346.33 24.42 347.38 25.44 349.13 27.23C350.46 28.56 351.6 29.7 352.55 30.65C353.46 31.56 353.92 32.29 353.92 32.82C353.92 33.09 353.84 33.37 353.69 33.68C353.54 33.99 353.25 34.36 352.83 34.82C352.41 35.28 351.98 35.71 351.55 36.13C351.11 36.55 350.45 37.19 349.55 38.04C348.66 38.9 347.83 39.7 347.07 40.47L346.19 41.35C346.06 41.48 345.88 41.6 345.65 41.69C345.42 41.79 345.16 41.83 344.85 41.83C344.43 41.83 344.02 41.66 343.62 41.32C343.22 40.98 341.96 39.74 339.83 37.61C338.76 36.55 337.89 35.67 337.2 34.98C336.25 34.03 335.77 33.31 335.77 32.81C335.77 32.28 336.25 31.55 337.2 30.64L341.02 26.82C342.5 25.3 343.41 24.4 343.73 24.14L343.74 24.15Z" fill="black"/>
<path d="M442.63 21.16C443.08 20.78 443.5 20.59 443.9 20.59C444.3 20.59 444.72 20.78 445.17 21.16C445.62 21.54 446.42 22.35 447.59 23.58C448.75 24.81 449.9 25.96 451.03 27.02C451.9 27.85 452.33 28.53 452.33 29.07C452.33 29.54 452.11 30.02 451.68 30.52C451.25 31.02 450.41 31.84 449.18 32.97C447.95 34.1 446.85 35.18 445.89 36.21C445.06 37.08 444.38 37.51 443.84 37.51C443.41 37.51 442.95 37.29 442.47 36.86C441.99 36.43 441.19 35.6 440.07 34.39C438.95 33.18 437.85 32.07 436.75 31.07C435.85 30.24 435.4 29.57 435.4 29.07C435.4 28.57 435.85 27.89 436.75 27.02C437.88 25.96 439.03 24.81 440.19 23.58C441.35 22.35 442.16 21.54 442.61 21.16H442.63Z" fill="black"/>
</svg>
