<svg width="408" height="131" viewBox="0 0 408 131" fill="none" xmlns="http://www.w3.org/2000/svg">
<path fill-rule="evenodd" clip-rule="evenodd" d="M129.254 3.48261e-05C133.243 -0.00502797 134.034 0.542387 135.622 1.32902C139.828 16.563 138.748 37.9508 138.144 56.3237C148.014 48.9826 171.268 32.7158 182.279 49.4256C195.121 68.3124 169.619 91.9892 152.582 86.7638C151.531 85.2241 150.481 83.1141 148.862 81.0048C152.947 78.1058 156.028 74.027 160.211 75.942C162.314 79.3025 164.114 79.7486 167.714 81.0048C189.906 64.6026 157.317 33.7474 138.144 62.6522C138.912 70.2534 139.979 79.2575 136.883 82.9667C131.416 85.4949 127.836 89.1129 120.427 89.8647C120.427 89.654 120.427 89.4426 120.427 89.2319C120.49 88.3883 121.688 87.5441 122.318 86.7005C130.505 82.6946 129.609 16.3643 123.642 7.65752C122.949 8.43783 121.12 8.6492 120.427 8.29037C121.843 3.88637 125.731 2.7504 129.254 3.48261e-05ZM177.803 3.22757C177.866 3.22757 179.064 3.22757 179.694 3.22757C179.273 4.64072 178.854 5.48495 178.433 5.75897C174.981 14.5562 164.556 30.1699 154.474 31.073C154.474 31.4318 154.474 31.2204 154.474 31.0097C160.336 19.7753 166.593 9.94654 177.803 3.22757ZM275.594 5.75897C276.224 5.75897 277.422 5.75897 277.485 5.75897C280.154 8.43782 282.256 10.5477 284.358 12.0875C284.358 12.7203 284.358 13.9227 284.358 13.986C282.256 15.8846 280.154 18.3527 277.485 19.6817C277.422 19.6817 276.224 19.6817 275.594 19.6817C274.27 18.1419 271.811 16.032 270.487 13.9227C270.487 13.2899 270.487 12.0875 270.487 11.4546C271.811 10.1256 274.27 7.65752 275.594 5.75897ZM202.392 15.8846C202.455 15.8846 203.653 15.8846 204.284 15.8846C206.595 18.7742 208.908 21.0955 211.219 22.8459C209.911 26.8829 206.672 29.8744 203.653 31.073C200.468 29.8338 197.097 26.7974 195.52 22.2131C198.189 20.6733 200.291 18.5634 202.392 15.8846ZM366.954 15.8846C367.017 15.8846 368.215 15.8846 368.278 15.8846C371.157 18.7742 373.47 21.0955 375.781 22.8459C374.473 26.8829 371.234 29.8744 367.648 31.073C365.03 29.8338 361.659 26.7974 360.082 22.2131C362.751 20.6733 364.853 18.5634 366.954 15.8846ZM267.397 20.8841C271.695 21.9726 274.156 25.047 275.594 27.2759C274.06 30.1655 271.958 32.4868 269.856 34.2372C269.016 34.2372 268.175 34.2372 266.767 34.2372C265.443 32.6975 262.984 30.5876 261.66 27.9087C263.001 24.7343 265.385 23.2813 267.397 20.8841ZM284.988 20.8841C289.061 21.803 291.139 24.3439 293.185 26.643C293.185 27.2759 293.185 28.4783 293.185 29.1111C290.299 31.3983 289.382 33.8841 284.988 34.2372C282.887 32.4868 280.785 30.1655 278.116 27.2759C280.785 25.5254 282.887 23.2041 284.988 20.8841ZM7.62912 34.8701C9.8775 35.6504 11.5597 35.8617 13.2406 36.0725C16.2424 38.0767 16.5022 41.0764 17.0867 44.3628C22.8438 42.0479 26.0065 37.0445 31.5883 34.8701C31.5883 40.0803 31.5883 44.7216 31.5883 49.3623C50.5016 34.9042 56.6433 28.0992 75.0301 47.4638C75.8706 46.6202 76.7117 45.776 76.9847 44.3628C89.62 38.8096 107.086 28.2036 114.185 47.4638C123.05 68.3137 102.617 92.2006 84.4877 86.7638C83.4367 85.6462 82.3863 83.9577 80.7677 81.701C83.67 79.1044 86.4801 77.1508 89.5948 74.7396C94.5569 77.0236 93.6364 79.7404 99.0524 79.8024C110.11 69.9546 105.086 37.4667 85.7487 43.0971C68.191 49.2965 78.7331 95.2364 44.1984 86.7638C43.7155 86.0676 42.6638 84.2324 41.0459 82.9667C41.8233 82.9034 42.0339 81.701 41.6764 81.6377C43.8781 78.0323 47.426 75.6509 52.3319 74.7396C53.5917 79.2518 55.1957 80.4631 60.5285 79.8024C62.5133 74.8244 67.4742 67.6897 65.0051 58.2855C63.659 49.9642 53.5709 38.1077 41.6764 44.3628C26.3923 54.4834 37.6588 63.673 31.5883 79.7391C31.1098 82.7939 5.77354 104.087 1.26101 105.053C2.58507 101.889 5.04404 98.1551 6.3681 94.9908C10.5055 83.9071 8.83023 52.0254 4.41354 44.2995C2.94257 44.2995 1.47097 44.2995 0 44.2995C0.209958 43.6667 0.420547 42.4643 0.630505 42.401C2.58507 40.081 5.67455 37.7597 7.62912 34.8701ZM342.995 41.1986C358.126 41.8314 373.26 43.0338 388.391 43.0971C395.116 43.4559 401.843 43.2446 408 42.4643C401.39 55.3213 377.67 51.0723 360.082 50.0585C350.371 62.1465 328.112 84.0767 353.083 99.3575C365.665 107.057 394.155 105.596 393.498 86.7638C392.374 83.7945 390.865 81.9187 386.5 81.0048C387.906 75.7497 393.416 73.124 398.479 72.8411C400.16 75.0978 401.843 76.7863 402.956 77.9039C413.426 97.814 366.756 117.673 345.58 108.281C310.972 93.791 345.144 62.4756 355.605 49.4256C346.359 50.2059 337.109 50.4173 327.863 50.0585C327.863 50.4173 327.863 50.2059 327.863 49.4256C328.283 49.5731 328.703 49.1516 329.124 48.1599C332.348 43.5895 336.967 44.2489 342.995 41.1986ZM203.023 42.401C203.716 42.6117 205.545 42.8231 206.238 42.4643C213.353 46.4854 215.227 76.5793 210.589 84.1691C205.335 85.4981 200.08 87.9662 194.259 89.8647C195.667 88.599 196.508 86.7638 196.781 86.0676C204.197 82.3414 203.445 50.1161 194.259 51.2609C194.406 50.8388 193.986 50.4173 192.998 49.4256C196.186 46.4892 199.336 44.8723 203.023 42.401ZM232.089 42.401C233.35 42.6117 235.179 42.8231 236.44 42.4643C240.569 45.1121 241.528 50.1635 241.547 55.6908C253.116 46.8525 272.849 33.5405 283.097 52.5899C283.517 52.7373 283.937 52.3158 284.358 51.3242C295.322 46.3297 314.729 34.3859 320.99 53.2227C327.928 71.8956 308.372 90.9938 293.185 87.9662C291.714 86.4898 290.242 85.0127 288.204 82.9667C288.204 82.9034 288.204 81.701 288.204 81.6377C297.638 74.5947 296.834 76.9546 306.426 81.0048C321.274 63.3528 303.715 41.1562 284.358 56.387C284.574 71.7937 261.336 101.038 251.635 84.8019C251.193 83.5464 251.384 83.9229 250.941 81.6377C254.266 79.0778 256.08 76.4293 261.029 74.7396C262.882 78.4266 263.785 80.0125 268.028 79.8024C285.798 64.2299 258.114 35.0371 241.547 62.6522C246.14 78.6582 238.275 103.001 243.438 117.71C240.58 123.156 231.03 130.242 223.199 131C223.199 130.789 223.199 130.578 223.199 130.367C224.039 129.313 224.88 128.258 225.721 127.203C235.8 122.114 232.394 58.2001 226.982 50.0585C225.511 50.0585 224.039 50.0585 222.568 50.0585C225.119 46.181 228.399 45.1064 232.089 42.401ZM21.5002 46.1981C20.5967 47.2524 19.1251 48.3074 17.0867 49.3623C17.0867 61.8073 17.0867 74.2555 17.0867 86.7005C19.3351 85.6462 21.0173 84.5912 22.1307 82.9667C22.4882 71.0913 22.2776 58.6431 21.5002 46.1981Z" fill="black"/>
</svg>
