<svg width="124" height="34" viewBox="0 0 124 34" fill="none" xmlns="http://www.w3.org/2000/svg">
<path fill-rule="evenodd" clip-rule="evenodd" d="M36.2749 8.20631e-06C37.3534 -0.00118478 37.5405 0.127806 37.9162 0.313166C38.892 3.82307 38.6562 8.73085 38.6474 12.9737C40.8581 11.2735 45.6786 7.94542 47.9138 11.7956C48.4107 12.5396 48.9669 13.6603 48.645 14.9123C48.1826 16.7109 46.5636 17.5886 45.5264 18.8044C48.1863 18.9823 48.9876 18.2112 50.5998 17.8947C50.5998 17.9444 50.5998 17.9942 50.5998 17.9097C50.6345 18.1433 50.5352 18.2426 50.3013 18.3421C48.0977 21.9294 39.4081 20.7692 34.1858 21.0412C34.1858 21.0263 34.1858 20.743 34.1858 20.5939C36.7197 19.7452 36.782 4.28714 35.0811 1.9386C34.917 1.98826 34.4842 2.03807 34.1858 2.08773C34.6554 0.915771 35.5755 0.648096 36.2749 8.20631e-06ZM31.0373 0.760534C31.0522 0.760534 31.3357 0.760534 31.3507 0.760534C31.3854 1.09353 31.2861 1.29246 31.1865 1.49124C30.3696 3.42998 27.9024 7.10914 25.382 7.45615C25.382 7.40649 25.382 7.35668 25.382 7.30703C26.9035 4.6598 28.3845 2.34377 31.0373 0.760534ZM117.136 0.760534C117.151 0.760534 117.434 0.760534 117.584 0.760534C117.093 3.01289 113.949 7.13061 111.481 7.45615C111.481 7.40649 111.481 7.35668 111.481 7.30703C113.006 4.66144 114.569 2.42817 117.136 0.760534ZM63.2833 1.49124C63.4325 1.49124 63.716 1.49124 63.8652 1.49124C64.3626 1.98826 64.8601 2.48544 65.3574 2.98246C65.3574 2.99738 65.3574 3.28071 65.3574 3.42983C64.8601 3.74299 64.3626 4.32457 63.8652 4.77194C63.716 4.77194 63.4325 4.77194 63.2833 4.77194C62.9699 4.27491 62.388 3.77774 61.9403 3.28071C61.9403 3.13159 61.9403 2.84825 61.9403 2.83334C62.388 2.38597 62.9699 1.80439 63.2833 1.49124ZM87.7401 1.49124C87.755 1.49124 88.0385 1.49124 88.1877 1.49124C88.7348 2.03792 89.2821 2.5849 89.6948 2.99738C89.2821 3.67827 88.7348 4.22525 88.1877 4.77194C88.0385 4.77194 87.755 4.77194 87.7401 4.77194C87.2924 4.27491 86.7105 3.77774 86.2628 3.28071C86.7105 2.68422 87.2924 1.95352 87.7401 1.49124ZM61.4777 4.78685C62.3605 5.17755 62.9431 5.90199 63.2833 6.56141C62.9202 7.1081 62.4227 7.65508 61.7911 8.20176C61.7265 8.20176 61.5274 8.20176 61.3285 8.20176C60.8809 7.70474 60.2989 7.20756 59.9856 6.57632C60.3031 5.82832 60.8673 5.48594 61.4777 4.78685ZM65.5066 4.78685C66.4706 5.13759 66.9622 5.73631 67.3122 6.41229C67.3122 6.4272 67.3122 6.71053 67.3122 6.85966C66.7633 7.39859 66.5464 7.98434 65.5066 8.20176C65.0093 7.65508 64.5118 7.1081 64.0144 6.56141C64.5118 6.01473 65.0093 5.46774 65.5066 4.78685ZM85.8002 4.78685C86.8389 5.13371 87.5239 5.8243 87.7401 6.85966C87.057 7.39859 86.84 7.98434 85.8002 8.20176C85.3029 7.65508 84.8054 7.1081 84.3081 6.56141C84.8054 6.01473 85.3029 5.46774 85.8002 4.78685ZM89.6948 4.78685C89.844 4.78685 90.1276 4.78685 90.2768 4.78685C90.7741 5.41809 91.2716 5.91526 91.769 6.41229C91.769 6.4272 91.769 6.71053 91.769 6.85966C91.2716 7.17281 90.7741 7.75439 90.2768 8.20176C90.1276 8.20176 89.844 8.20176 89.6948 8.20176C89.3815 7.70474 88.7995 7.20756 88.3519 6.57632C88.3519 6.56141 88.3519 6.27808 88.3519 6.12895C88.7995 5.8158 89.3815 5.23422 89.6948 4.78685ZM2.25319 8.20176C2.73561 8.30123 3.08388 8.40054 3.29771 8.50001C3.68061 9.11141 3.9295 9.99124 4.0438 10.7368C5.3608 9.9799 6.29207 8.72936 7.62503 8.21667C7.62503 9.49406 7.62503 10.6375 7.62503 11.7807C9.23718 10.5918 10.432 9.07711 12.4 8.50001C16.6751 7.36324 19.367 11.5417 17.7718 14.9272C17.2614 16.6148 15.9515 17.6207 14.7875 18.7895C14.7875 18.8391 14.7875 18.8889 14.7875 18.8044C17.5473 18.9893 18.513 18.2853 20.1593 17.8947C20.1593 17.9444 20.1593 17.9942 20.1593 17.9097C17.4518 22.4745 12.9733 19.6006 7.62503 20.743C7.62503 22.9648 7.62503 25.0528 7.62503 27.0061C7.63786 27.4549 0.57225 33.8163 0 33.8658C0 33.7018 0 33.2693 0 32.9711C0.547032 32.3598 1.09436 31.6139 1.5071 30.7342C2.8614 27.3281 2.52253 12.9492 0.910229 10.4386C0.289035 10.442 0.36245 10.5651 0 10.2895C0.603884 9.23116 1.38191 8.85671 2.25319 8.20176ZM29.6943 9.84211C32.7 9.79365 34.1239 11.889 32.8428 14.7632C31.1722 19.2871 25.672 21.0023 24.9343 26.5588C25.702 27.7091 25.9263 28.3184 27.471 28.1991C28.4011 27.7867 29.197 27.2397 29.9928 26.5588C30.0425 26.5588 30.0923 26.5588 30.0077 26.5588C29.6288 29.0139 26.4371 30.7142 23.5913 29.8395C23.3278 29.427 22.9297 28.88 22.3976 28.1991C22.8984 25.3388 24.4758 23.7666 25.8147 21.6377C25.2502 19.2665 22.5511 12.0224 19.8609 12.243C20.1922 10.9895 21.3017 10.0594 22.696 9.99124C24.0548 10.6569 24.6135 11.6978 25.0835 12.9737C25.2327 12.8742 25.5162 12.7749 25.5312 12.6754C26.4247 11.0968 28.1568 10.6686 29.6943 9.84211ZM52.9872 9.99124C53.2857 10.0409 53.7184 10.0907 54.0168 10.0061C54.9941 10.6301 55.2212 11.8204 55.3598 13.1228C57.9637 11.0402 62.6336 7.90337 65.059 12.5263C65.1585 12.4269 65.2579 12.3275 65.3574 12.2281C67.9523 10.917 72.5452 8.1026 74.1613 12.6754C75.6688 16.9413 71.0407 21.4415 67.3122 20.5939C67.0983 20.3802 66.7501 20.0321 66.4019 19.6842C66.4019 19.5351 66.4019 19.2518 66.4019 19.2369C68.5004 17.5773 68.3101 18.1333 70.58 18.9535C74.0941 14.9282 69.9385 9.69791 65.3574 13.4211C65.4086 16.9172 59.9089 23.8084 57.7473 19.8483C57.5084 19.6866 57.5538 19.7753 57.4489 19.2369C58.2358 18.6336 58.6651 18.0096 59.702 17.6114C60.2747 18.4802 60.4884 18.8539 61.627 18.8044C65.6982 15.1349 59.1464 8.25604 55.3598 14.7632C56.3127 18.5348 54.4512 24.2709 55.6732 27.6026C54.9968 29.0202 52.7367 30.6898 50.749 30.7342C50.749 30.8188 50.749 30.769 50.749 30.7193C51.0822 30.4707 51.2812 30.2221 51.4801 29.8395C53.8654 28.7746 53.0593 13.7141 51.6443 11.7956C51.4305 11.7956 51.0822 11.7956 50.5998 11.7956C51.3376 10.8819 52.114 10.6287 52.9872 9.99124ZM80.2792 20.5939C80.3147 23.1058 80.8065 27.2747 80.13 28.4825C78.5032 29.1608 77.8639 30.5702 75.6684 30.7342C76.2166 29.8173 77.2672 29.5011 77.5933 28.1991C78.4857 25.1372 77.9973 14.0708 76.8472 12.079C76.4494 12.079 76.0512 12.079 75.6534 12.079C75.9053 11.0133 77.5128 9.61932 78.6527 10.0061C79.7663 10.5901 80.0904 11.6074 80.13 12.9737C82.6206 11.0269 87.2327 7.98673 89.5307 12.243C89.7794 12.1286 90.0282 11.8802 90.2768 11.6316C91.371 11.0849 92.4654 10.5379 93.4253 9.99124C96.3543 9.42427 98.8577 12.0945 98.1853 14.9123C97.7408 16.7754 96.1928 17.5401 95.3502 18.8044C97.7336 18.9863 98.5118 18.2959 99.9909 17.8947C98.589 22.5703 86.3698 20.8091 80.2792 20.5939ZM102.363 9.99124C102.712 10.0409 103.06 10.0907 103.408 10.0061C104.492 10.6439 104.652 11.6431 104.9 12.9737C108.277 10.3233 111.241 8.21667 114.599 12.5263C116.761 10.8229 121.108 8.33746 123.254 11.7956C125.686 16.0016 121.107 20.8472 117.285 20.743C116.838 20.5293 116.256 20.1812 115.942 19.6991C115.942 19.6346 115.942 19.4356 115.942 19.2369C116.554 18.7398 117.435 18.2426 118.181 17.6114C118.81 18.3217 119.083 18.7022 119.971 18.9535C122.146 16.7878 121.174 10.3575 116.554 11.7956C113.29 13.1212 115.478 20.4773 108.332 20.743C107.563 20.4947 107.323 20.1866 106.84 19.4009C106.84 19.4854 106.84 19.4356 106.84 19.2518C107.555 18.6411 108.157 18.006 109.377 17.6114C109.806 18.5211 110.136 18.7483 111.018 18.9535C113.051 16.6341 112.337 10.5721 107.601 11.7956C103.628 13.1418 106.02 16.4237 104.751 19.4009C103.353 20.0748 102.302 20.9389 100.573 21.0412C100.952 20.2961 101.899 20.1993 102.214 19.2518C103.016 17.3142 102.433 12.8016 101.035 12.079C100.871 12.079 100.439 12.079 100.14 12.079C100.583 10.8135 101.486 10.649 102.363 9.99124ZM12.0866 10.0061C8.09671 11.7261 7.62055 13.3918 7.62503 18.9535C9.09512 19.0045 12.625 19.3414 13.4445 18.5061C17.6258 16.8057 15.4426 11.1525 12.0866 10.0061ZM5.23755 10.886C5.02372 11.1346 4.67544 11.383 4.32732 11.6316C4.32732 17.3473 4.32732 23.065 4.32732 28.6465C4.72513 28.5321 5.12324 28.2837 5.52106 28.0351C5.47137 22.3194 5.42153 16.6017 5.23755 10.886ZM28.0679 11.6316C27.0521 12.2806 26.3575 12.7834 25.5312 13.8684C26.4777 15.613 27.3833 17.4052 27.6202 19.4009C28.1026 19.2369 28.4509 18.8044 28.6647 18.5061C29.6946 16.8018 31.1546 15.7623 30.3061 12.9737C29.9928 12.5263 29.4108 11.9447 28.9632 11.6316C28.799 11.6316 28.3663 11.6316 28.0679 11.6316ZM38.7966 18.8044C40.5871 18.8044 42.378 18.8044 44.0342 18.8044C47.1102 17.7687 46.2875 13.0493 43.7208 12.079C41.1025 11.271 39.8937 13.1719 38.6474 14.4798C38.6971 16.0555 38.7469 17.4972 38.7966 18.8044ZM83.2785 11.7807C80.57 13.291 80.1516 14.5617 80.2792 18.9535C82.5601 18.8575 85.1513 18.9392 86.5463 17.8947C87.6076 15.0144 87.2287 11.8477 83.2785 11.7807ZM92.0674 11.7807C89.2114 13.4163 90.6237 14.0354 89.083 16.5526C88.3868 17.164 87.6902 18.0439 86.994 18.7895C89.6693 18.8506 93.3559 19.1533 94.7682 17.9097C95.9268 15.2594 95.581 12.0727 92.0674 11.7807Z" fill="black"/>
</svg>
