<svg width="431" height="156" viewBox="0 0 431 156" fill="none" xmlns="http://www.w3.org/2000/svg">
<path d="M116.18 11.5115C116.63 11.1315 117.05 10.9315 117.45 10.9315C117.85 10.9315 118.27 11.1215 118.72 11.5115C119.17 11.8915 119.98 12.7015 121.14 13.9315C122.31 15.1615 123.45 16.3115 124.59 17.3815C125.46 18.2115 125.89 18.9015 125.89 19.4315C125.89 19.9015 125.67 20.3815 125.24 20.8815C124.81 21.3815 123.97 22.2015 122.74 23.3315C121.51 24.4615 120.41 25.5515 119.44 26.5815C118.61 27.4515 117.92 27.8815 117.39 27.8815C116.96 27.8815 116.5 27.6615 116.02 27.2315C115.54 26.8015 114.74 25.9715 113.62 24.7615C112.5 23.5415 111.4 22.4415 110.3 21.4415C109.4 20.6115 108.95 19.9415 108.95 19.4415C108.95 18.9415 109.4 18.2615 110.3 17.3915C111.43 16.3215 112.58 15.1815 113.75 13.9415C114.92 12.7115 115.72 11.9015 116.17 11.5215L116.18 11.5115Z" fill="black"/>
<path d="M301.73 11.5115C302.18 11.1315 302.6 10.9315 303 10.9315C303.4 10.9315 303.82 11.1215 304.27 11.5115C304.72 11.8915 305.53 12.7015 306.69 13.9315C307.86 15.1615 309 16.3115 310.14 17.3815C311.01 18.2115 311.44 18.9015 311.44 19.4315C311.44 19.9015 311.22 20.3815 310.79 20.8815C310.36 21.3815 309.52 22.2015 308.29 23.3315C307.06 24.4615 305.96 25.5515 304.99 26.5815C304.16 27.4515 303.47 27.8815 302.94 27.8815C302.51 27.8815 302.05 27.6615 301.57 27.2315C301.09 26.8015 300.29 25.9715 299.17 24.7615C298.05 23.5415 296.95 22.4415 295.85 21.4415C294.95 20.6115 294.5 19.9415 294.5 19.4415C294.5 18.9415 294.95 18.2615 295.85 17.3915C296.98 16.3215 298.13 15.1815 299.3 13.9415C300.47 12.7115 301.27 11.9015 301.72 11.5215L301.73 11.5115Z" fill="black"/>
<path d="M95.4 53.7915C95.4 57.2515 94.48 60.8415 92.63 64.5715C90.78 68.3015 88.65 71.5315 86.24 74.2615C83.82 76.9915 81.22 79.4115 78.44 81.5315C79.42 81.5315 81.07 81.5415 83.39 81.5615C85.71 81.5815 87.37 81.5915 88.4 81.5915C90.87 81.5915 92.37 81.5515 92.88 81.4715C94.1 81.2715 95.88 80.4615 98.24 79.0315C100.6 77.6015 102.34 76.8815 103.48 76.8815C104.03 76.8815 104.3 77.0215 104.3 77.2915C104.3 78.9015 100.69 82.0015 93.46 86.6015C89.45 89.1515 86.45 90.7915 84.45 91.5215C82.45 92.2515 79.72 92.6115 76.26 92.6115C75.32 92.6115 71.49 92.4915 64.78 92.2615C58.07 92.0315 51.39 91.9115 44.75 91.9115V120.001C44.43 121.221 43.08 122.971 40.69 125.241C38.29 127.521 36.06 129.131 33.98 130.071C29.94 131.951 26.62 134.001 24.03 136.201C21.44 138.401 18.18 142.111 14.25 147.331C12.8 149.211 10.57 151.021 7.57 152.751C4.57 154.481 2.36 155.341 0.94 155.341C0.31 155.341 0 155.161 0 154.811C0 154.461 0.33 153.731 1 152.631C1.67 151.531 2.72 150.101 4.15 148.361C5.58 146.611 7.16 144.951 8.89 143.381C9.68 142.671 10.3 141.251 10.77 139.111C11.24 136.971 11.68 131.471 12.09 122.621C12.5 113.761 12.71 101.371 12.71 85.4315C12.71 75.6915 12.59 68.0515 12.36 62.4915C12.12 56.9415 11.57 52.5915 10.71 49.4515C9.65 45.5615 8.08 43.6215 6 43.6215C5.76 43.6215 5.49 43.6715 5.18 43.7715C4.86 43.8715 4.58 43.9715 4.33 44.0715C4.08 44.1715 3.82 44.2515 3.57 44.3115C3.31 44.3715 3.12 44.3615 2.98 44.2815C2.84 44.2015 2.77 44.0415 2.77 43.8115C2.77 42.9815 3.51 41.6415 5.01 39.7715C6.5 37.9115 8.41 36.1615 10.72 34.5315C13.04 32.9015 15.12 32.0915 16.96 32.0915C17.98 32.0915 18.88 32.3615 19.67 32.9115C20.46 33.4615 21.09 34.1115 21.58 34.8515C22.07 35.6015 22.52 36.6115 22.93 37.8815C23.34 39.1615 23.65 40.2615 23.84 41.1815C24.04 42.1015 24.27 43.2915 24.55 44.7415C24.67 45.3315 24.75 45.7615 24.79 46.0315C25.26 45.6815 26.12 45.0715 27.38 44.2115C28.64 43.3515 29.64 42.6515 30.38 42.1215C31.12 41.5915 32.15 40.8215 33.44 39.8215C34.74 38.8215 36.05 37.7715 37.39 36.6715C40.49 33.9615 42.73 32.6115 44.1 32.6115C44.37 32.6115 44.59 32.6915 44.75 32.8515V48.5815C45.85 47.4015 47.06 46.2215 48.37 45.0215C49.68 43.8215 51.41 42.4415 53.55 40.8715C55.69 39.3015 57.85 37.9415 60.03 36.7815C62.21 35.6215 64.71 34.6315 67.54 33.8015C70.37 32.9815 73.15 32.5615 75.9 32.5615C79.39 32.5615 82.67 33.6315 85.74 35.7715C88.8 37.9115 91.18 40.6115 92.87 43.8715C94.56 47.1315 95.4 50.4515 95.4 53.8215V53.7915ZM26.08 91.9015C26.08 109.101 25.63 122.031 24.73 130.711C26.18 129.651 28.64 128.001 32.09 125.761C32.17 113.041 32.21 96.5815 32.21 76.4015C32.21 60.3815 32.19 50.2515 32.15 46.0115C30.58 47.2315 28.26 48.9215 25.2 51.0815C25.79 63.6815 26.08 77.2915 26.08 91.8915V91.9015ZM81.56 62.8015C81.56 57.3415 79.69 52.6015 75.96 48.5815C72.23 44.5615 68.21 42.5415 63.89 42.5415C61.89 42.5415 59.96 42.8315 58.12 43.3915C56.27 43.9615 54.9 44.5815 54 45.2515C51.41 47.2515 48.33 51.3215 44.75 57.4415V82.6515C49.46 81.9015 58.69 81.5315 72.43 81.5315C78.52 75.7615 81.56 69.5115 81.56 62.8015Z" fill="black"/>
<path d="M105.89 51.0315C105.89 50.2415 106.73 49.0015 108.42 47.2915C110.11 45.5815 112.17 44.0015 114.6 42.5515C117.03 41.1015 119.11 40.3715 120.84 40.3715C122.06 40.3715 123.12 40.7215 124.02 41.4015C124.92 42.0915 125.65 43.1715 126.2 44.6415C126.75 46.1115 127.18 47.6215 127.5 49.1715C127.81 50.7215 128.04 52.7315 128.18 55.2115C128.32 57.6915 128.41 59.8815 128.45 61.8115C128.49 63.7415 128.51 66.1515 128.51 69.0615V71.5315C128.55 78.6415 128.57 87.1015 128.57 96.9115C128.61 108.411 128.69 115.251 128.81 117.411C128.93 119.571 129.36 121.181 130.11 122.241C130.19 122.321 130.23 122.421 130.23 122.531C130.23 123.041 129.61 123.851 128.38 124.971C127.14 126.091 125.54 127.201 123.58 128.301C123.11 128.571 122.3 129.221 121.17 130.241C120.03 131.261 118.54 132.481 116.69 133.891C114.84 135.301 112.82 136.641 110.62 137.901C107.4 139.711 105.02 140.611 103.49 140.611C102.94 140.611 102.67 140.431 102.67 140.081C102.67 139.611 103.12 138.941 104.02 138.081C104.92 137.221 106.08 136.331 107.49 135.431C108.9 134.521 110.27 133.061 111.58 131.041C112.89 129.021 113.73 126.911 114.08 124.711L114.55 69.2315C114.55 57.0215 112.74 50.9115 109.13 50.9115C108.97 50.9115 108.76 50.9615 108.48 51.0615C108.21 51.1615 107.92 51.2515 107.63 51.3315C107.33 51.4115 107.06 51.4815 106.81 51.5315C106.55 51.5915 106.34 51.5815 106.16 51.5015C105.98 51.4215 105.9 51.2615 105.9 51.0315H105.89Z" fill="black"/>
<path d="M190.93 40.3615C194.66 40.3615 197.99 41.3215 200.91 43.2515C203.83 45.1815 206.2 47.9815 208.01 51.6715C216.33 44.1715 224.05 40.4215 231.16 40.4215C233.99 40.4215 236.61 41.0315 239.02 42.2415C241.43 43.4615 243.4 45.0115 244.91 46.8915C246.42 48.7715 247.59 50.8015 248.41 52.9615C249.23 55.1215 249.65 57.2215 249.65 59.2615C249.65 63.1515 248.23 67.1015 245.38 71.1315C242.53 75.1615 239.19 78.6215 235.34 81.5215C236.87 81.5215 238.62 81.5315 240.58 81.5515C242.54 81.5715 243.78 81.5815 244.29 81.5815C246.21 81.5815 247.61 81.4915 248.47 81.3215C249.33 81.1415 250.24 80.7415 251.18 80.1115C254.48 77.9115 256.87 76.8115 258.37 76.8115C258.84 76.8115 259.08 76.9715 259.08 77.2815C259.08 78.8915 255.47 81.9915 248.24 86.5915C241.88 90.6015 237.05 92.6015 233.75 92.6015C229.19 92.6015 220.14 92.3815 206.6 91.9515C193.05 91.5215 182.3 91.3015 174.32 91.3015C165.17 91.3015 156.57 91.5615 148.52 92.0715C146.08 93.0915 144.22 93.6015 142.92 93.6015C142.13 93.6015 141.74 93.4015 141.74 93.0115C141.74 92.5815 142.07 92.0915 142.74 91.5415C143.41 90.9915 144.15 90.4515 144.98 89.9215C145.8 89.3915 146.61 88.5515 147.39 87.3915C148.18 86.2315 148.65 84.9315 148.8 83.4715C148.84 83.0815 148.92 80.1515 149.04 74.7015C149.16 69.2515 149.22 66.1215 149.22 65.3315C149.22 62.7415 148.97 60.4515 148.48 58.4715C147.99 56.4915 147.36 54.9915 146.6 53.9615C145.84 52.9415 145.08 52.1715 144.33 51.6615C143.58 51.1515 142.9 50.9015 142.27 50.9015C142.07 50.9015 141.68 51.0015 141.09 51.1915C140.5 51.3915 140.02 51.4915 139.65 51.4915C139.28 51.4915 139.09 51.2915 139.09 50.9015C139.09 50.1515 139.91 48.9415 141.56 47.2515C143.21 45.5615 145.24 43.9915 147.66 42.5415C150.08 41.0915 152.15 40.3615 153.87 40.3615C156.5 40.3615 158.61 41.7815 160.2 44.6315C161.79 47.4815 162.74 50.7715 163.06 54.4915C165.26 52.2915 167.66 50.2215 170.27 48.2815C172.88 46.3415 176.11 44.5315 179.96 42.8615C183.81 41.1915 187.46 40.3615 190.91 40.3615H190.93ZM179.8 50.3115C178.11 50.3115 176.58 50.4915 175.21 50.8415C173.83 51.1915 172.65 51.6415 171.65 52.1915C170.65 52.7415 169.64 53.5415 168.62 54.6115C167.6 55.6715 166.71 56.7015 165.97 57.7015C165.22 58.7015 164.32 60.0515 163.26 61.7315C163.34 72.4915 163.55 79.2415 163.91 81.9915C171.72 81.4815 180.14 81.1915 189.18 81.1115C193.5 76.7915 195.66 72.2015 195.66 67.3315C195.66 62.7815 193.96 58.8015 190.56 55.4015C187.16 52.0015 183.58 50.3115 179.81 50.3115H179.8ZM220.03 50.3115C219.24 50.3115 218.49 50.3715 217.76 50.4915C217.03 50.6115 216.41 50.7315 215.91 50.8515C215.4 50.9715 214.87 51.2015 214.32 51.5615C213.77 51.9115 213.36 52.1615 213.08 52.3015C212.81 52.4415 212.42 52.7815 211.93 53.3315C211.44 53.8815 211.14 54.2115 211.05 54.3015C210.96 54.3915 210.67 54.7715 210.2 55.4215C209.73 56.0715 209.47 56.4115 209.43 56.4515V58.5115C209.43 62.3615 208.05 66.3115 205.31 70.3515C202.56 74.3915 199.26 77.9715 195.42 81.0715C200.72 81.0715 207.38 81.1515 215.39 81.3115C223.4 81.4715 228.05 81.5515 229.35 81.5515C230.57 80.2915 231.57 79.1715 232.35 78.1615C233.14 77.1615 233.92 75.7315 234.71 73.8615C235.5 72.0015 235.89 70.0615 235.89 68.0615C235.89 63.8615 234.24 59.8515 230.94 56.0415C227.64 52.2315 224.01 50.3315 220.04 50.3315L220.03 50.3115Z" fill="black"/>
<path d="M346.72 85.7215C346.72 88.5515 345.68 91.5615 343.6 94.7615C341.52 97.9615 338.7 100.971 335.15 103.801C331.6 106.631 327.67 109.201 323.37 111.511C319.07 113.831 314.5 115.661 309.65 117.021C304.8 118.381 300.24 119.051 295.96 119.051C292.78 119.051 289.6 118.721 286.42 118.051C283.24 117.381 280.17 116.341 277.2 114.931C274.23 113.521 271.61 111.811 269.34 109.801C267.06 107.801 265.24 105.331 263.86 102.411C262.48 99.4915 261.8 96.3215 261.8 92.9015C261.8 89.7215 262.21 86.5915 263.04 83.5115C263.87 80.4315 265.05 77.5515 266.6 74.8815C268.15 72.2115 269.8 69.7115 271.55 67.3715C273.3 65.0315 275.31 62.7815 277.59 60.6015C279.87 58.4215 281.92 56.5715 283.74 55.0315C285.57 53.5015 287.56 51.9315 289.72 50.3215C285.24 49.9315 281.08 49.7315 277.23 49.7315C274.09 49.7315 271.08 49.8515 268.22 50.0815C265.35 50.3215 263.06 50.5415 261.33 50.7615C259.6 50.9715 258.54 51.0815 258.15 51.0815C257.64 51.0815 257.38 50.9815 257.38 50.7815C257.38 49.6815 258.93 47.8715 262.03 45.3615C265.13 42.8515 268.08 41.3515 270.86 40.8815C276.32 40.0215 282.21 39.5815 288.53 39.5815C293.52 39.5815 300.89 39.9415 310.65 40.6715C320.41 41.4015 327.66 41.7615 332.41 41.7615C335.71 41.7615 338.71 41.6415 341.42 41.4115C344.13 41.1815 346.23 40.9415 347.72 40.7015C349.21 40.4615 350.11 40.3415 350.43 40.3415C350.94 40.3415 351.2 40.5015 351.2 40.8115C351.2 41.7515 349.99 43.2715 347.58 45.3515C345.17 47.4315 342.84 48.9415 340.6 49.8915C339.22 50.4815 336.61 50.9715 332.77 51.3615C328.92 51.7515 324.72 51.9515 320.17 51.9515C317.73 51.9515 315.33 51.9115 312.95 51.8315C310.57 51.7515 308.66 51.6615 307.21 51.5715C305.76 51.4715 303.8 51.3215 301.35 51.1315C298.89 50.9315 297.02 50.8015 295.72 50.7215C292.38 53.0015 289.45 55.4315 286.91 58.0215C284.38 60.6115 282.41 63.0515 281.02 65.3215C279.63 67.6015 278.5 69.9715 277.63 72.4215C276.77 74.8715 276.21 76.9715 275.95 78.7215C275.69 80.4715 275.57 82.2215 275.57 83.9915C275.57 87.8815 276.51 91.4315 278.4 94.6515C280.28 97.8715 282.78 100.501 285.88 102.541C288.98 104.581 292.46 106.161 296.3 107.281C300.15 108.401 304.09 108.961 308.14 108.961C312.5 108.961 316.89 108.261 321.3 106.871C325.72 105.481 328.46 104.231 329.52 103.131C331.84 100.691 332.99 97.8915 332.99 94.7115C332.99 92.3115 332.3 90.1915 330.93 88.3515C329.55 86.5015 327.63 85.2915 325.16 84.7015C324.57 84.5415 324.28 84.3515 324.28 84.1115C324.28 82.8915 326.05 81.0115 329.58 78.4615C333.11 75.9115 335.67 74.6315 337.24 74.6315C339.28 74.6315 341.37 75.6815 343.51 77.7815C345.65 79.8815 346.72 82.5215 346.72 85.7015V85.7215Z" fill="black"/>
<path d="M424.05 45.8415C419.97 42.1515 415.08 40.3015 409.38 40.3015C407.53 40.3015 405.53 40.5315 403.37 40.9815C401.21 41.4315 398.73 42.2015 395.92 43.2815C393.11 44.3615 390.05 46.0115 386.73 48.2315C383.41 50.4515 380.14 53.1115 376.92 56.2115C376.72 51.6615 375.8 47.8815 374.15 44.8715C373.7 44.0515 373.21 43.3515 372.68 42.7615C373.24 42.2415 373.87 41.5415 374.58 40.6715C376.45 38.3615 378.56 35.5315 380.91 32.1615C383.26 28.8015 385.74 25.4515 388.34 22.1315C390.94 18.8115 393.68 16.0815 396.56 13.9615C399.44 11.8315 402.05 10.9815 404.38 11.3915C406.02 11.6815 407.33 12.6015 408.29 14.1615C409.25 15.7115 409.59 17.3315 409.29 19.0115C409.1 20.0815 408.66 20.9915 407.98 21.7315C407.93 21.8015 406.89 22.2715 404.86 23.1615C402.83 24.0415 401.76 24.7915 401.65 25.4015C401.6 25.7115 401.93 25.9215 402.66 26.0515C403.81 26.2515 405.42 26.1915 407.51 25.8515C409.6 25.5115 411.8 24.9215 414.12 24.0715C416.44 23.2215 418.54 21.9115 420.44 20.1415C422.33 18.3715 423.49 16.3215 423.9 13.9915C424.46 10.8615 423.87 7.9215 422.13 5.1615C420.39 2.4115 417.92 0.7515 414.71 0.1815C412.84 -0.1485 410.85 -0.0285 408.76 0.5415C406.67 1.1115 404.59 2.0715 402.54 3.4215C400.49 4.7715 398.46 6.3015 396.46 8.0115C394.46 9.7215 392.46 11.6915 390.47 13.9215C388.48 16.1515 386.66 18.2715 385.02 20.2815C383.38 22.2915 381.75 24.4415 380.12 26.7115C375.09 33.7015 371.95 38.5015 370.67 41.1515C369.75 40.6415 368.74 40.3715 367.64 40.3715C365.91 40.3715 363.84 41.1015 361.43 42.5515C359.02 44.0015 356.98 45.5715 355.33 47.2615C353.68 48.9515 352.86 50.1715 352.86 50.9115C352.86 51.3015 353.05 51.5015 353.42 51.5015C353.79 51.5015 354.27 51.4015 354.86 51.2015C355.45 51.0115 355.84 50.9115 356.04 50.9115C356.67 50.9115 357.36 51.1715 358.1 51.6715C358.84 52.1815 359.6 52.9515 360.37 53.9715C361.14 54.9915 361.76 56.4915 362.25 58.4815C362.74 60.4615 362.99 62.7515 362.99 65.3415C362.99 66.1315 362.93 69.2515 362.81 74.7115C362.69 80.1715 362.61 83.0915 362.57 83.4815C362.41 84.9715 361.94 86.2915 361.16 87.4315C360.37 88.5715 359.57 89.4015 358.75 89.9315C357.93 90.4615 357.18 91.0015 356.51 91.5515C355.84 92.1015 355.51 92.5915 355.51 93.0215C355.51 93.4115 355.88 93.6115 356.63 93.6115C358.24 93.6115 360.67 92.8615 363.93 91.3715C364.09 91.2915 365.13 90.8515 367.05 90.0415C368.97 89.2415 370.49 88.5715 371.59 88.0415C372.69 87.5115 373.91 86.7715 375.24 85.8315C376.57 84.8915 377.44 83.9915 377.83 83.1215C377.36 80.3315 377.08 73.3215 377.01 62.0915C378.42 60.3615 379.68 58.9415 380.78 57.8215C381.88 56.7015 383.28 55.5015 384.99 54.2315C386.7 52.9515 388.63 51.9915 390.79 51.3515C392.95 50.7015 395.3 50.3815 397.86 50.3815C402.61 50.3815 406.89 52.1415 410.7 55.6515C414.51 59.1715 416.41 63.0415 416.41 67.2815C416.41 69.8315 415.95 72.4315 415.03 75.0815C414.11 77.7315 412.98 79.9615 411.64 81.7715C411.37 82.1615 410.7 82.3615 409.64 82.3615C407.4 82.3615 405.4 81.5415 403.63 79.8915C403 79.3015 402.49 78.7015 402.1 78.0915C401.71 77.4815 401.47 77.0215 401.39 76.7115C401.31 76.4015 401.19 76.1315 401.04 75.9115C400.88 75.7015 400.67 75.5915 400.39 75.5915C398.78 75.5915 396.22 76.8715 392.7 79.4215C389.18 81.9715 387.43 83.8215 387.43 84.9615C387.43 86.1815 388.35 87.7215 390.2 89.5815C392.05 91.4515 394.3 92.3815 396.97 92.3815C399.17 92.3815 401.72 91.8215 404.63 90.7015C407.54 89.5815 410.47 87.9515 413.44 85.8115C416.4 83.6715 419.13 81.2515 421.63 78.5415C424.12 75.8315 426.17 72.7115 427.76 69.1815C429.35 65.6515 430.15 62.0915 430.15 58.5215C430.15 53.7715 428.11 49.5515 424.02 45.8615L424.05 45.8415Z" fill="black"/>
</svg>
