<svg width="350" height="129" viewBox="0 0 350 129" fill="none" xmlns="http://www.w3.org/2000/svg">
<path fill-rule="evenodd" clip-rule="evenodd" d="M334.602 0C337.168 0.990387 339.735 1.98137 341.768 2.97235C344.844 9.01157 344.731 12.7205 341.117 17.8341C337.587 19.3185 332.489 22.8823 326.963 20.2714C329.998 18.4387 332.203 18.142 334.01 14.3267C333.813 13.8708 333.615 12.8804 333.418 11.3544C332.431 10.8984 331.444 9.90744 330.457 8.38203C317.051 9.51449 308.51 26.9016 302.623 35.1332C303.61 39.2344 304.597 42.8024 305.584 45.8336C306.965 44.9818 308.348 43.5943 309.196 42.2074C320.207 37.1199 341.179 25.545 348.223 42.8613C355.364 61.4914 333.028 79.3915 318.613 75.4977C317.428 73.9128 315.711 72.3268 315.059 70.7419C317.154 67.0657 320.063 65.4642 323.942 63.6083C326.957 66.1913 327.888 67.9039 332.233 69.018C353.313 54.5593 323.274 25.1633 305.584 51.7189C305.789 58.6011 306.313 67.7327 303.807 71.3958C298.675 73.9122 293.542 75.8942 287.876 77.8756C288.212 77.4791 288.014 77.0831 287.817 76.6866C287.876 76.0922 289.002 74.9627 289.594 74.3682C299.139 71.0118 295.263 47.019 290.778 40.4834C289.397 40.4834 288.014 40.4834 286.1 40.4834C286.1 40.8205 286.1 40.6219 286.1 39.8889C292.371 34.4579 297.123 35.6522 300.846 32.6959C312.322 19.4707 317.635 8.28632 334.602 0ZM90.6684 8.38203C92.188 8.38203 93.1752 8.38203 93.6294 8.38203C95.4061 11.0964 97.7157 13.2769 98.9594 15.4562C98.9594 15.5157 98.9594 16.6452 98.9594 16.7046C97.3213 19.221 95.1491 21.203 92.445 22.6493C92.583 22.6493 92.1886 22.6493 91.7936 22.6493C89.8197 21.005 87.8453 18.8245 85.3384 16.1101C85.3384 16.0507 85.3384 14.9212 85.3384 14.3267C87.1151 12.8804 89.4247 10.8984 90.6684 8.38203ZM244.052 8.38203C245.572 8.38203 246.56 8.38203 247.014 8.38203C248.79 11.0964 251.1 13.2769 252.876 15.4562C252.876 15.5157 252.876 16.6452 252.876 16.7046C250.705 19.221 248.533 21.203 246.362 22.6493C245.967 22.6493 245.573 22.6493 245.178 22.6493C243.204 21.005 241.229 18.8245 238.722 16.1101C238.722 16.0507 238.722 14.9212 238.722 14.3267C240.499 12.8804 242.809 10.8984 244.052 8.38203ZM8.94247 25.6217C10.8571 26.5532 12.2393 26.9491 13.088 27.3456C14.6082 30.3174 15.5948 33.2903 16.5821 35.7276C21.276 33.2451 24.972 28.2599 30.2623 26.2161C30.2623 31.3084 30.2623 35.8668 30.2623 39.8889C36.6606 35.6843 41.4025 29.6462 49.2132 27.3456C66.1802 22.814 76.8638 39.471 70.533 52.9673C68.507 59.6949 63.3085 63.7046 58.6887 68.3641C58.6887 68.562 58.6887 68.7606 58.6887 68.9585C69.6417 69.1606 73.4745 66.3541 80.0085 64.2622C80.0085 64.9952 80.0085 65.1937 80.0085 64.8567C69.2627 83.054 51.4885 71.5974 30.2623 76.6866C30.2623 85.0086 30.2623 93.3324 30.2623 101.119C30.3132 102.908 2.27115 128.268 0 129C0 127.811 0 126.087 0 125.433C2.17107 122.461 4.34332 118.953 5.98139 116.516C11.3563 102.403 10.0114 45.0822 3.61252 35.0737C1.14712 35.0874 1.43849 35.5778 0 34.4793C2.3967 30.2603 5.48452 28.7676 8.94247 25.6217ZM222.673 32.6959C244.248 32.6964 263.657 34.2581 283.139 32.7553C277.851 50.0972 252.319 36.0843 238.722 40.4834C232.716 43.489 224.976 54.3381 222.673 61.2304C212.545 91.5436 263.25 101.452 270.11 76.7461C268.952 72.3571 267.44 70.9981 262.944 68.9585C263.339 68.562 263.734 68.1661 263.596 67.2346C267.678 61.4004 273.642 61.5383 278.934 64.8567C285.99 89.63 242.702 106.671 222.081 93.3912C195.172 77.2948 223.789 51.6499 233.985 39.8889C225.635 40.6219 216.751 40.8205 207.868 40.4834C207.868 40.8205 207.868 40.6219 207.868 39.8889C212.539 35.607 215.527 35.642 222.673 32.6959ZM91.7936 32.7553C108.828 34.5423 96.2299 87.1713 101.328 102.249C98.4181 107.951 88.4464 115.527 80.0085 116.516C81.3309 115.327 82.1209 113.603 82.3773 112.949C93.0129 108.212 93.3227 51.5096 86.5228 40.4834C85.6742 40.4834 84.292 40.4834 82.3773 40.4834C82.3773 40.8205 82.3773 40.6219 82.3773 39.8889C85.3384 38.0461 88.8325 35.1332 91.7936 32.7553ZM118.503 32.7553C120.417 33.4883 121.799 33.6868 122.648 33.3498C127.485 35.8923 128.12 39.8753 129.103 44.6447C138.572 37.5426 157.04 25.0474 165.288 42.2668C166.61 42.0094 167.4 41.2164 168.19 39.8889C172.729 38.0461 177.271 35.1332 181.81 32.7553C192.948 31.0206 202.86 41.604 199.636 52.3728C198.429 60.2157 192.49 63.6077 188.384 68.9585C198.361 69.1488 201.421 66.3964 207.868 64.2622C201.72 83.2264 135.735 75.1226 111.396 77.8756C111.396 77.2811 111.396 76.1516 111.396 76.0922C120.121 72.8279 123.468 46.7111 114.298 41.6129C113.113 41.6129 111.396 41.6129 110.212 41.6129C111.971 36.5682 115.555 35.9125 118.503 32.7553ZM47.4365 33.3498C32.1343 40.2064 30.2445 46.8466 30.2623 69.018C36.0968 69.2213 50.1063 70.5642 53.3587 67.2346C69.9532 60.4558 61.2885 37.9195 47.4365 33.3498ZM21.3198 36.8571C19.9382 37.8475 18.5559 38.8385 16.6413 39.8295C16.6413 62.6149 16.6413 85.4075 16.6413 108.194C18.7531 107.203 20.3332 106.212 21.379 105.221C21.7148 82.4352 21.517 59.6426 21.3198 36.8571ZM141.007 39.8889C136.7 42.7798 130.882 46.0161 129.103 50.5894C126.659 58.1421 128.131 68.7546 133.9 68.9585C140.355 68.3641 146.278 67.2346 152.2 66.6401C158.709 56.5442 158.264 40.7158 141.007 39.8889ZM175.296 39.8889C165.13 47.1962 169.893 49.863 163.511 59.447C161.281 62.4188 158.516 65.3917 155.22 68.3641C166.371 68.6078 181.002 69.8146 186.607 64.8567C191.464 54.1984 189.75 41.0618 175.296 39.8889Z" fill="black"/>
</svg>
