<svg width="612" height="163" viewBox="0 0 612 163" fill="none" xmlns="http://www.w3.org/2000/svg">
<path d="M57.42 52.2099C59.44 52.2099 61.26 52.5499 62.9 53.2399C64.54 53.9299 65.86 54.8099 66.89 55.8799C67.92 56.9499 68.78 58.2099 69.47 59.6499C70.16 61.0899 70.65 62.5099 70.95 63.8999C71.25 65.2999 71.4 66.6799 71.4 68.0599C71.4 70.9399 70.74 73.9799 69.44 77.1699C68.13 80.3699 66.3 83.5699 63.96 86.7699C61.62 89.9699 59.34 92.8499 57.13 95.3999C54.92 97.9499 52.36 100.8 49.47 103.93C46.57 107.07 44.48 109.43 43.19 111.02C39.28 115.83 35.82 120.8 32.82 125.93C29.81 131.06 28.31 135.47 28.31 139.17C28.31 141.7 29.54 144.05 32.01 146.22C34.48 148.39 36.85 149.47 39.13 149.47C40.25 149.47 41.27 149.29 42.19 148.92C43.11 148.55 43.8 148.19 44.25 147.83C44.7 147.46 45.44 146.8 46.47 145.83C47.5 144.87 48.3 144.12 48.85 143.61C51.3 141.46 53.1 140.39 54.26 140.39C54.69 140.39 54.9 140.6 54.9 141.03C54.9 141.72 54.37 142.81 53.32 144.32C52.27 145.82 50.77 147.49 48.84 149.31C46.91 151.13 44.78 152.89 42.46 154.56C40.14 156.23 37.53 157.63 34.63 158.75C31.73 159.87 28.95 160.42 26.29 160.42C23.11 160.42 20.15 159.21 17.4 156.78C14.65 154.35 13.28 151.72 13.28 148.89C13.28 146.36 14.03 143.31 15.53 139.74C17.03 136.17 18.85 132.78 20.97 129.56C23.09 126.34 25.01 123.59 26.7 121.31C28.39 119.03 29.74 117.36 30.73 116.29C25.79 100.57 20.08 87.0599 13.59 75.7699C10.07 69.6699 6.74 66.6199 3.6 66.6199C3.17 66.6199 2.61 66.7399 1.93 66.9699C1.24 67.2099 0.79 67.3299 0.58 67.3299C0.19 67.3299 0 67.0899 0 66.6199C0 66.0199 0.48 64.9999 1.45 63.5599C2.42 62.1199 3.61 60.6299 5.03 59.0799C6.45 57.5299 8.12 56.1699 10.05 54.9899C11.98 53.8099 13.77 53.2199 15.4 53.2199C16.34 53.2199 17.3 53.4399 18.27 53.8999C19.23 54.3499 20.14 54.9899 20.98 55.8299C21.82 56.6699 22.6 57.5299 23.33 58.4099C24.06 59.2899 24.76 60.2899 25.42 61.3999C26.08 62.5099 26.62 63.4499 27.03 64.1999C27.44 64.9499 27.84 65.7599 28.25 66.6099C28.66 67.4599 28.88 67.9399 28.93 68.0299C38.85 57.4599 48.34 52.1799 57.4 52.1799L57.42 52.2099ZM56.39 77.9799C56.39 74.2399 55.34 70.8399 53.23 67.7699C51.13 64.6999 48.42 63.1599 45.11 63.1599C42.36 63.1599 40.04 63.7899 38.15 65.0599C36.26 66.3299 33.86 68.7199 30.93 72.2399C36 83.2799 39.95 93.5199 42.78 102.97C47.16 97.9899 50.52 93.5399 52.86 89.6299C55.2 85.7199 56.37 81.8299 56.37 77.9699L56.39 77.9799Z" fill="black"/>
<path d="M96.65 65.3501C94.85 65.3501 93.9 65.3301 93.82 65.2901C93.69 65.1601 93.63 65.0101 93.63 64.8401C93.63 63.9001 94.42 62.3401 96.01 60.1701C97.6 58.0001 99.63 55.9401 102.1 53.9901C104.57 52.0401 106.77 51.0601 108.7 51.0601C109.3 51.0601 109.89 51.1201 110.47 51.2501C111.05 51.3801 111.56 51.5401 112.02 51.7301C112.47 51.9201 112.92 52.1801 113.37 52.5001C113.82 52.8201 114.19 53.1101 114.47 53.3701C114.75 53.6301 115.06 53.9501 115.4 54.3401C115.74 54.7301 115.98 55.0201 116.11 55.2101C116.24 55.4001 116.42 55.6701 116.66 56.0101C116.89 56.3501 117.03 56.5501 117.08 56.5901C133.06 79.4801 141.32 91.2701 141.88 91.9601C144.89 95.7401 147.89 97.6301 150.9 97.6301C151.42 97.6301 152 97.5701 152.67 97.4401C153.34 97.3101 153.71 97.2501 153.8 97.2501C154.1 97.2501 154.25 97.4201 154.25 97.7701C154.25 98.7101 153.16 100.2 151 102.22C148.83 104.24 146.35 106.08 143.56 107.73C140.77 109.39 138.6 110.21 137.05 110.21C134.82 110.21 132.73 108.96 130.8 106.47C130.59 106.21 124.98 97.9201 113.99 81.6001C110.51 87.7801 107.63 92.4901 105.36 95.7101C103.21 98.7601 99.94 101.94 95.54 105.24C91.14 108.55 86.96 110.2 83.01 110.2C81.08 110.2 79.33 109.77 77.76 108.91C76.19 108.05 75.09 107.23 74.44 106.43C73.8 105.64 73.47 105.07 73.47 104.72C73.47 103.35 75.4 101.26 79.27 98.4701C83.14 95.6801 85.93 94.2801 87.64 94.2801C87.98 94.2801 88.34 94.4901 88.7 94.9201C89.06 95.3501 89.43 95.8201 89.79 96.3401C90.15 96.8601 90.85 97.3401 91.88 97.7901C92.91 98.2401 94.18 98.4901 95.68 98.5301C100.66 90.6301 105.04 82.5501 108.82 74.3101C108.73 74.1801 108.46 73.7801 108.02 73.1201C107.57 72.4501 107.22 71.9601 106.99 71.6401C106.75 71.3201 106.38 70.8401 105.86 70.1901C105.34 69.5401 104.89 69.0501 104.51 68.7101C104.13 68.3701 103.61 67.9501 102.96 67.4501C102.31 66.9501 101.7 66.5801 101.12 66.3201C100.54 66.0601 99.85 65.8401 99.06 65.6401C98.27 65.4401 97.46 65.3501 96.65 65.3501Z" fill="black"/>
<path d="M165.97 85.32C165.97 81.45 165.73 78.1 165.26 75.27C164.79 72.44 164.16 70.3 163.39 68.86C162.62 67.42 161.83 66.38 161.04 65.73C160.25 65.08 159.44 64.76 158.63 64.76C158.33 64.76 157.78 64.89 156.99 65.15C156.19 65.41 155.67 65.54 155.41 65.54C155.02 65.54 154.83 65.35 154.83 64.96C154.83 64.36 155.4 63.4 156.54 62.09C157.68 60.78 159.06 59.47 160.7 58.16C162.34 56.85 164.16 55.7 166.18 54.71C168.2 53.72 169.96 53.23 171.46 53.23C176.53 53.23 179.64 58.62 180.8 69.4C185.87 64.33 191.16 60.38 196.68 57.55C202.2 54.72 207.45 53.3 212.43 53.3C221.36 53.3 227.96 57.66 232.21 66.38C242.39 57.62 251.67 53.24 260.04 53.24C263.26 53.24 266.23 53.91 268.96 55.24C271.69 56.57 273.89 58.28 275.56 60.36C277.23 62.44 278.53 64.69 279.46 67.09C280.39 69.49 280.85 71.86 280.85 74.18C280.85 77.49 280.26 80.75 279.08 83.97C277.9 87.19 276.34 90.09 274.41 92.67C272.48 95.25 270.3 97.64 267.87 99.85C265.44 102.06 262.97 103.91 260.46 105.39C257.95 106.87 255.51 108.03 253.15 108.87C250.79 109.71 248.7 110.13 246.9 110.13C244.11 110.13 241.82 109.2 240.04 107.33C238.26 105.46 237.37 103.97 237.37 102.85C237.37 102.03 238.28 100.79 240.11 99.11C241.93 97.44 244.01 95.92 246.33 94.57C248.65 93.22 250.41 92.54 251.61 92.54C251.95 92.54 252.19 92.63 252.32 92.8C252.45 92.97 252.54 93.2 252.61 93.48C252.67 93.76 252.87 94.19 253.19 94.77C253.51 95.35 253.97 95.94 254.58 96.54C256.34 98.3 258.25 99.18 260.31 99.18H260.83C260.96 99.18 261.07 99.14 261.15 99.05C261.23 98.96 261.3 98.91 261.34 98.89C261.38 98.87 261.46 98.75 261.56 98.53C261.66 98.31 261.76 98.14 261.85 98.01C264.51 93.59 265.84 89.12 265.84 84.61C265.84 81.73 265.28 79 264.17 76.4C263.05 73.8 261.61 71.62 259.85 69.86C258.09 68.1 256.13 66.7 253.99 65.67C251.84 64.64 249.74 64.12 247.68 64.12C246.78 64.12 245.9 64.17 245.04 64.28C244.18 64.39 243.39 64.56 242.66 64.8C241.93 65.04 241.28 65.25 240.69 65.44C240.11 65.64 239.51 65.95 238.89 66.38C238.27 66.81 237.79 67.13 237.44 67.35C237.09 67.57 236.67 67.93 236.15 68.45C235.63 68.97 235.3 69.29 235.15 69.42C235 69.55 234.69 69.89 234.22 70.45L233.51 71.22V72.51C233.51 77.02 232.64 81.34 230.9 85.46C229.16 89.58 226.96 93.1 224.3 95.99C221.64 98.89 218.75 101.43 215.64 103.63C212.52 105.82 209.57 107.44 206.78 108.49C203.99 109.54 201.6 110.07 199.63 110.07C196.8 110.07 194.49 109.16 192.71 107.33C190.93 105.51 190.04 104.01 190.04 102.85C190.04 102.03 190.95 100.79 192.78 99.11C194.61 97.43 196.68 95.92 199 94.57C201.32 93.22 203.08 92.54 204.28 92.54C204.58 92.54 204.78 92.58 204.89 92.67C205 92.76 205.09 92.97 205.18 93.31C205.65 94.77 206.64 96.11 208.14 97.34C209.64 98.56 211.32 99.18 213.16 99.18C213.37 99.18 213.53 99.14 213.61 99.05C213.69 98.96 213.89 98.68 214.19 98.21C215.35 96.32 216.36 93.98 217.22 91.19C218.08 88.4 218.51 85.59 218.51 82.75C218.51 78.03 216.61 73.75 212.81 69.93C209.01 66.11 204.9 64.2 200.47 64.2C197.38 64.2 194.63 64.75 192.22 65.84C189.81 66.94 187.86 68.3 186.36 69.93C184.86 71.56 183.14 73.82 181.21 76.69C181.25 79.83 181.3 86.52 181.34 96.76C181.38 107.01 181.43 116.47 181.47 125.17C181.51 133.87 181.53 138.41 181.53 138.79C181.57 139.99 181.68 141.03 181.85 141.92C182.02 142.8 182.2 143.41 182.4 143.76C182.59 144.1 182.76 144.4 182.92 144.66C183.07 144.92 183.14 145.11 183.14 145.24C183.14 145.8 182.48 146.67 181.17 147.85C179.86 149.03 178.3 150.14 176.5 151.17C176.37 151.26 175.45 151.95 173.73 153.26C172.01 154.57 170.21 155.91 168.32 157.29C166.43 158.67 164.34 159.94 162.04 161.12C159.74 162.3 157.91 162.89 156.53 162.89C155.89 162.89 155.56 162.72 155.56 162.37C155.56 161.94 156.01 161.27 156.91 160.37C157.81 159.47 158.76 158.63 159.74 157.86L161.16 156.7C163.74 153.78 165.2 150.54 165.54 146.97V144.26C165.58 142.41 165.61 139.99 165.64 136.98C165.66 133.97 165.69 130.59 165.74 126.83C165.78 123.07 165.81 119.15 165.84 115.07C165.87 110.99 165.88 107.08 165.91 103.35C165.93 99.61 165.95 96.12 165.97 92.88C165.99 89.64 166 87.12 166 85.31L165.97 85.32Z" fill="black"/>
<path d="M414.77 53.24C418.85 53.24 422.49 54.29 425.69 56.4C428.89 58.51 431.48 61.58 433.45 65.61C442.56 57.41 450.99 53.31 458.77 53.31C461.86 53.31 464.73 53.98 467.37 55.31C470.01 56.64 472.15 58.35 473.78 60.43C475.41 62.51 476.68 64.74 477.58 67.1C478.48 69.46 478.93 71.74 478.93 73.93C478.93 78.18 477.38 82.52 474.29 86.94C471.2 91.36 467.55 95.14 463.34 98.28C465.01 98.28 466.94 98.29 469.1 98.31C471.27 98.33 472.65 98.34 473.26 98.34C475.41 98.34 476.96 98.24 477.93 98.05C478.89 97.86 479.89 97.42 480.92 96.73C484.57 94.32 487.17 93.12 488.72 93.12C489.24 93.12 489.49 93.29 489.49 93.64C489.49 95.4 485.54 98.79 477.64 103.82C470.73 108.2 465.44 110.39 461.79 110.39C456.64 110.39 446.72 110.15 432.06 109.68C417.39 109.21 405.76 108.97 397.17 108.97C387.25 108.97 377.82 109.25 368.89 109.81C365.63 111.18 363.26 111.87 361.8 111.87C360.98 111.87 360.58 111.66 360.58 111.23C360.58 110.8 360.91 110.29 361.58 109.68C362.24 109.08 363.02 108.48 363.9 107.88C364.78 107.28 365.33 106.85 365.54 106.59C366.61 105.26 367.28 104.14 367.54 103.24C368.01 101.44 368.29 95.53 368.38 85.52C368.59 60.35 368.72 46.18 368.77 43C368.77 42.66 368.8 41.4 368.87 39.23C368.94 37.06 368.97 35.18 368.97 33.59C368.97 19.2 366.99 12.01 363.04 12.01C362.87 12.01 362.61 12.06 362.27 12.17C361.93 12.28 361.6 12.37 361.3 12.46C361 12.55 360.7 12.62 360.4 12.69C360.1 12.75 359.86 12.74 359.69 12.66C359.52 12.58 359.43 12.4 359.43 12.14C359.43 11.32 360.34 9.98003 362.17 8.11003C364 6.24003 366.25 4.49003 368.94 2.86003C371.62 1.23003 373.93 0.410034 375.86 0.410034C376.72 0.410034 377.5 0.580034 378.21 0.930034C378.92 1.27003 379.63 1.90003 380.33 2.80003C381.04 3.70003 381.67 5.08003 382.23 6.92003C382.79 8.76003 383.22 11.06 383.52 13.81C383.99 18.1 384.27 36.36 384.36 68.57C386.03 66.9 387.91 65.24 390 63.61C392.09 61.98 394.47 60.35 397.15 58.71C399.83 57.08 402.72 55.76 405.81 54.75C408.9 53.74 411.89 53.24 414.76 53.24H414.77ZM402.53 64.13C400.64 64.13 398.93 64.33 397.41 64.74C395.88 65.15 394.58 65.65 393.48 66.25C392.39 66.85 391.27 67.76 390.13 68.99C388.99 70.21 388.05 71.34 387.3 72.37C386.55 73.4 385.57 74.86 384.37 76.75C384.46 88.86 384.63 96.21 384.89 98.78C391.93 98.26 401.25 97.94 412.85 97.81C417.57 93.09 419.94 88.06 419.94 82.74C419.94 77.76 418.07 73.41 414.34 69.69C410.6 65.98 406.67 64.12 402.55 64.12L402.53 64.13ZM446.59 64.13C445.82 64.13 445.09 64.16 444.4 64.23C443.71 64.29 443.07 64.43 442.47 64.65C441.87 64.87 441.34 65.04 440.89 65.17C440.44 65.3 439.98 65.56 439.51 65.94C439.04 66.32 438.67 66.61 438.41 66.78C438.15 66.95 437.81 67.29 437.38 67.78C436.95 68.28 436.67 68.6 436.54 68.75C436.41 68.9 436.12 69.27 435.67 69.84C435.22 70.42 434.97 70.75 434.93 70.84C434.97 71.87 434.99 72.62 434.99 73.09C434.99 77.3 433.49 81.62 430.48 86.04C427.47 90.46 423.87 94.37 419.66 97.76C426.7 97.76 433.82 97.82 441.02 97.95C448.22 98.08 453.47 98.16 456.77 98.21C458.1 96.84 459.2 95.61 460.06 94.54C460.92 93.47 461.78 91.91 462.64 89.87C463.5 87.83 463.93 85.71 463.93 83.52C463.93 78.92 462.13 74.54 458.52 70.38C454.91 66.22 450.94 64.13 446.6 64.13H446.59Z" fill="black"/>
<path d="M95.72 24.4C96.11 24.09 96.53 23.94 96.98 23.94C97.43 23.94 97.85 24.1 98.24 24.43C98.63 24.76 99.6 25.7 101.15 27.25C102.7 28.84 104.05 30.21 105.19 31.36C106.17 32.34 106.66 33.12 106.66 33.69C106.66 33.98 106.58 34.28 106.41 34.61C106.24 34.94 105.94 35.35 105.49 35.84C105.04 36.33 104.58 36.8 104.11 37.25C103.64 37.7 102.93 38.38 101.97 39.3C101.01 40.22 100.12 41.09 99.3 41.91C98.32 42.89 97.52 43.38 96.91 43.38C96.62 43.38 96.32 43.3 95.99 43.13C95.66 42.96 95.25 42.66 94.76 42.21C94.27 41.76 93.8 41.3 93.35 40.83C92.9 40.36 92.22 39.65 91.3 38.68C90.38 37.72 89.51 36.83 88.69 36.02C87.67 35 87.16 34.22 87.16 33.69C87.16 33.12 87.67 32.34 88.69 31.36L92.37 27.68C94.21 25.8 95.32 24.71 95.71 24.4H95.72ZM105.89 7.17997C106.28 6.87997 106.7 6.71997 107.15 6.71997C107.6 6.71997 108 6.85997 108.35 7.14997C108.7 7.43997 109.81 8.51997 111.69 10.4L115.37 14.08C115.45 14.16 115.56 14.27 115.71 14.42C115.85 14.56 115.96 14.67 116.01 14.73C116.07 14.79 116.16 14.88 116.29 15C116.42 15.12 116.49 15.22 116.54 15.27C116.58 15.33 116.63 15.41 116.69 15.52C116.75 15.62 116.79 15.71 116.81 15.8C116.83 15.88 116.85 15.97 116.87 16.08C116.89 16.19 116.9 16.29 116.9 16.42C116.9 16.87 116.7 17.34 116.29 17.83C115.88 18.32 114.74 19.5 112.86 21.38C111.51 22.69 110.39 23.79 109.49 24.69C108.51 25.67 107.73 26.16 107.16 26.16C106.87 26.16 106.57 26.08 106.24 25.91C105.91 25.74 105.5 25.44 105.01 24.99C104.52 24.54 104.05 24.08 103.6 23.61C103.15 23.14 102.47 22.43 101.55 21.47C100.63 20.51 99.76 19.62 98.95 18.8C97.93 17.78 97.42 16.98 97.42 16.41C97.42 15.84 97.93 15.06 98.95 14.08L102.63 10.4C104.43 8.55997 105.52 7.48997 105.91 7.17997H105.89ZM116.12 24.37C116.47 24.08 116.87 23.94 117.32 23.94C117.77 23.94 118.18 24.08 118.55 24.37C118.92 24.66 120.04 25.76 121.92 27.68L125.6 31.36C126.58 32.34 127.07 33.12 127.07 33.69C127.07 33.98 126.99 34.28 126.82 34.61C126.65 34.94 126.35 35.35 125.9 35.84C125.45 36.33 124.99 36.8 124.52 37.25C124.05 37.7 123.33 38.38 122.37 39.3C121.41 40.22 120.52 41.09 119.71 41.91L118.76 42.86C118.62 43 118.42 43.13 118.18 43.23C117.93 43.33 117.65 43.38 117.32 43.38C116.87 43.38 116.43 43.2 116 42.83C115.57 42.46 114.21 41.13 111.93 38.85L109.11 36.03C108.09 35.01 107.58 34.23 107.58 33.7C107.58 33.13 108.09 32.35 109.11 31.37L113.22 27.26C114.81 25.63 115.78 24.67 116.13 24.38L116.12 24.37Z" fill="black"/>
<path d="M341.91 52.2101C343.93 52.2101 345.75 52.5501 347.39 53.2401C349.03 53.9301 350.35 54.8101 351.38 55.8801C352.41 56.9501 353.27 58.2101 353.96 59.6501C354.65 61.0901 355.14 62.5101 355.44 63.9001C355.74 65.3001 355.89 66.6801 355.89 68.0601C355.89 70.9401 355.23 73.9801 353.93 77.1701C352.62 80.3701 350.79 83.5701 348.45 86.7701C346.11 89.9701 343.83 92.8501 341.62 95.4001C339.41 97.9501 336.85 100.8 333.96 103.93C331.06 107.07 328.97 109.43 327.68 111.02C323.77 115.83 320.31 120.8 317.31 125.93C314.3 131.06 312.8 135.47 312.8 139.17C312.8 141.7 314.03 144.05 316.5 146.22C318.97 148.39 321.34 149.47 323.62 149.47C324.74 149.47 325.76 149.29 326.68 148.92C327.6 148.55 328.29 148.19 328.74 147.83C329.19 147.46 329.93 146.8 330.96 145.83C331.99 144.87 332.79 144.12 333.34 143.61C335.79 141.46 337.59 140.39 338.75 140.39C339.18 140.39 339.39 140.6 339.39 141.03C339.39 141.72 338.86 142.81 337.81 144.32C336.76 145.82 335.26 147.49 333.33 149.31C331.4 151.13 329.27 152.89 326.95 154.56C324.63 156.23 322.02 157.63 319.12 158.75C316.22 159.87 313.44 160.42 310.78 160.42C307.6 160.42 304.64 159.21 301.89 156.78C299.14 154.35 297.77 151.72 297.77 148.89C297.77 146.36 298.52 143.31 300.02 139.74C301.52 136.17 303.34 132.78 305.46 129.56C307.58 126.34 309.5 123.59 311.19 121.31C312.88 119.03 314.23 117.36 315.22 116.29C310.28 100.57 304.57 87.0601 298.08 75.7701C294.56 69.6701 291.23 66.6201 288.09 66.6201C287.66 66.6201 287.1 66.7401 286.42 66.9701C285.73 67.2101 285.28 67.3301 285.07 67.3301C284.68 67.3301 284.49 67.0901 284.49 66.6201C284.49 66.0201 284.97 65.0001 285.94 63.5601C286.91 62.1201 288.1 60.6301 289.52 59.0801C290.94 57.5301 292.61 56.1701 294.54 54.9901C296.47 53.8101 298.26 53.2201 299.89 53.2201C300.83 53.2201 301.79 53.4401 302.76 53.9001C303.72 54.3501 304.63 54.9901 305.47 55.8301C306.31 56.6701 307.09 57.5301 307.82 58.4101C308.55 59.2901 309.25 60.2901 309.91 61.4001C310.57 62.5101 311.11 63.4501 311.52 64.2001C311.93 64.9501 312.33 65.7601 312.74 66.6101C313.15 67.4601 313.37 67.9401 313.42 68.0301C323.34 57.4601 332.83 52.1801 341.89 52.1801L341.91 52.2101ZM340.88 77.9801C340.88 74.2401 339.83 70.8401 337.72 67.7701C335.62 64.7001 332.91 63.1601 329.6 63.1601C326.85 63.1601 324.53 63.7901 322.64 65.0601C320.75 66.3301 318.35 68.7201 315.42 72.2401C320.49 83.2801 324.44 93.5201 327.27 102.97C331.65 97.9901 335.01 93.5401 337.35 89.6301C339.69 85.7201 340.86 81.8301 340.86 77.9701L340.88 77.9801Z" fill="black"/>
<path d="M330.23 15.98C327.29 15.98 324.29 17.59 321.23 20.82C318.17 24.05 315.41 27.98 312.95 32.6C310.49 37.23 308.19 41.85 306.05 46.48C303.91 51.11 301.94 55.03 300.16 58.26C298.38 61.49 296.96 63.1 295.9 63.1C295.37 63.1 295.1 62.69 295.1 61.87C295.1 59.51 298.04 52.21 303.92 39.97C305.41 36.84 306.94 33.86 308.51 31.04C310.08 28.22 311.83 25.24 313.79 22.08C315.74 18.93 317.75 16.08 319.82 13.55C321.89 11.02 324.04 8.71 326.25 6.61C328.47 4.52 330.79 2.89 333.22 1.73C335.65 0.57 338.05 0 340.41 0C344.46 0 347.84 1.49 350.56 4.48C353.28 7.47 354.65 10.94 354.65 14.89C354.65 17.83 353.69 20.59 351.76 23.17C349.83 25.75 347.54 27.81 344.89 29.35C342.24 30.89 339.67 32.1 337.19 32.96C334.71 33.83 332.74 34.26 331.3 34.26C330.38 34.26 329.93 34.07 329.93 33.68C329.93 32.91 331.07 31.76 333.36 30.25C335.65 28.73 336.82 27.92 336.87 27.83C337.54 26.77 337.88 25.57 337.88 24.22C337.88 22.1 337.12 20.2 335.6 18.51C334.08 16.82 332.29 15.98 330.21 15.98H330.23Z" fill="black"/>
<path d="M512.05 100.46C512.05 101.83 508.75 104.06 502.16 107.13C495.57 110.2 491.05 111.74 488.6 111.74C487.91 111.74 487.57 111.57 487.57 111.22C487.57 110.79 487.9 110.28 488.57 109.67C489.23 109.07 490.01 108.47 490.89 107.87C491.77 107.27 492.32 106.84 492.53 106.58C493.6 105.25 494.27 104.13 494.53 103.23C495 101.43 495.28 95.52 495.37 85.51C495.58 60.34 495.71 46.17 495.76 42.99C495.76 42.65 495.79 41.39 495.86 39.22C495.93 37.05 495.96 35.17 495.96 33.58C495.96 19.19 493.98 12 490.03 12C489.86 12 489.6 12.05 489.26 12.16C488.92 12.27 488.59 12.36 488.29 12.45C487.99 12.54 487.69 12.61 487.39 12.68C487.09 12.74 486.85 12.73 486.68 12.65C486.51 12.57 486.42 12.39 486.42 12.13C486.42 11.31 487.33 9.97002 489.16 8.10002C490.99 6.23002 493.24 4.48002 495.93 2.85002C498.61 1.22002 500.92 0.400024 502.85 0.400024C503.71 0.400024 504.49 0.570024 505.2 0.920024C505.91 1.26002 506.62 1.89002 507.32 2.79002C508.03 3.69002 508.66 5.07002 509.22 6.91002C509.78 8.75002 510.21 11.05 510.51 13.8C510.98 18.05 511.26 36.48 511.35 69.07C513.2 67.22 515.22 65.45 517.41 63.75C519.6 62.06 522.08 60.38 524.85 58.73C527.62 57.08 530.62 55.75 533.84 54.74C537.06 53.73 540.2 53.23 543.25 53.23C545.96 53.23 548.47 53.7 550.79 54.65C553.11 55.6 555.04 56.85 556.59 58.42C558.14 59.99 559.34 61.38 560.2 62.61C561.06 63.84 561.81 65.09 562.45 66.38C572.63 57.62 581.91 53.24 590.28 53.24C593.5 53.24 596.48 53.91 599.2 55.24C601.93 56.57 604.13 58.28 605.8 60.36C607.48 62.44 608.78 64.69 609.7 67.09C610.62 69.5 611.09 71.86 611.09 74.18C611.09 77.49 610.5 80.75 609.32 83.97C608.14 87.19 606.58 90.09 604.65 92.67C602.71 95.25 600.53 97.64 598.11 99.85C595.68 102.06 593.21 103.91 590.7 105.39C588.19 106.87 585.75 108.03 583.39 108.87C581.03 109.71 578.94 110.13 577.14 110.13C574.35 110.13 572.06 109.2 570.28 107.33C568.5 105.46 567.61 103.97 567.61 102.85C567.61 102.03 568.52 100.79 570.35 99.11C572.18 97.43 574.25 95.92 576.57 94.57C578.89 93.22 580.65 92.54 581.85 92.54C582.19 92.54 582.43 92.63 582.56 92.8C582.69 92.97 582.79 93.2 582.85 93.48C582.92 93.76 583.11 94.19 583.43 94.77C583.75 95.35 584.21 95.94 584.81 96.54C586.57 98.3 588.48 99.18 590.54 99.18H591.06C591.19 99.18 591.3 99.14 591.38 99.05C591.46 98.96 591.53 98.91 591.57 98.89C591.61 98.87 591.69 98.75 591.8 98.53C591.91 98.32 592 98.14 592.09 98.01C594.75 93.59 596.08 89.12 596.08 84.61C596.08 81.73 595.52 79 594.41 76.4C593.29 73.8 591.85 71.62 590.09 69.86C588.33 68.1 586.37 66.7 584.23 65.67C582.09 64.64 579.98 64.12 577.92 64.12C577.02 64.12 576.14 64.17 575.28 64.28C574.42 64.39 573.63 64.56 572.9 64.8C572.17 65.04 571.51 65.25 570.94 65.44C570.36 65.64 569.76 65.95 569.14 66.38C568.52 66.81 568.03 67.13 567.69 67.35C567.35 67.57 566.92 67.93 566.4 68.45C565.88 68.97 565.55 69.29 565.4 69.42C565.25 69.55 564.94 69.89 564.46 70.45L563.75 71.22V72.51C563.75 77.02 562.88 81.34 561.14 85.46C559.4 89.58 557.2 93.1 554.54 95.99C551.88 98.89 548.99 101.43 545.87 103.63C542.76 105.82 539.8 107.44 537.01 108.49C534.22 109.54 531.83 110.07 529.86 110.07C527.03 110.07 524.72 109.16 522.93 107.33C521.15 105.51 520.26 104.01 520.26 102.85C520.26 102.03 521.17 100.79 523 99.11C524.82 97.44 526.9 95.92 529.22 94.57C531.54 93.22 533.3 92.54 534.5 92.54C534.8 92.54 535 92.58 535.11 92.67C535.22 92.76 535.31 92.97 535.4 93.31C535.87 94.77 536.86 96.11 538.36 97.34C539.86 98.56 541.54 99.18 543.38 99.18C543.59 99.18 543.75 99.14 543.83 99.05C543.91 98.96 544.11 98.68 544.41 98.21C545.57 96.32 546.58 93.98 547.44 91.19C548.3 88.4 548.73 85.59 548.73 82.75C548.73 78.03 546.83 73.75 543.03 69.93C539.23 66.11 535.12 64.2 530.69 64.2C526.26 64.2 522.56 65.2 519.83 67.2C517.1 69.2 514.28 72.41 511.36 76.83C511.45 91.13 511.68 98.99 512.07 100.41V100.47L512.05 100.46Z" fill="black"/>
<path d="M542.38 25.7901C541.44 25.7901 540.97 24.3801 540.97 21.5701C540.97 19.1801 541.95 16.7501 543.91 14.2501C545.87 11.7601 548.24 9.62007 551.03 7.83007C553.82 6.04007 556.73 4.57007 559.75 3.42007C562.77 2.27007 565.39 1.70007 567.61 1.70007C568.85 1.70007 570.05 1.84007 571.22 2.11007C572.39 2.39007 573.57 2.84007 574.76 3.45007C575.95 4.06007 576.91 4.99007 577.63 6.23007C578.35 7.47007 578.72 8.93007 578.72 10.6401C578.72 11.8301 578.51 13.1701 578.08 14.6601C577.65 16.1501 576.93 17.8701 575.91 19.8001C574.89 21.7301 573.95 23.4601 573.1 24.9701C572.25 26.4801 570.95 28.5001 569.2 31.0101C567.45 33.5201 566.12 35.4201 565.21 36.7001C564.29 37.9801 562.78 40.0401 560.67 42.9001C558.56 45.7501 557.19 47.6301 556.55 48.5201C552.97 53.5901 550.48 56.1201 549.08 56.1201C548.7 56.1201 548.51 55.8601 548.51 55.3501C548.51 54.3701 548.95 53.1101 549.82 51.5801C550.69 50.0501 552.09 47.6301 554.01 44.3301C555.93 41.0301 557.74 37.4801 559.44 33.6901C562.29 27.3901 563.72 22.9601 563.72 20.4001C563.72 19.7601 563.63 19.1101 563.46 18.4501C563.29 17.7901 562.98 17.0001 562.53 16.0901C562.08 15.1701 561.29 14.3601 560.16 13.6601C559.03 12.9601 557.64 12.4601 555.98 12.1601C556.02 13.2201 556.11 14.0201 556.24 14.5601C556.37 15.1001 556.43 15.4201 556.43 15.5501C556.43 16.3601 555.51 17.5901 553.68 19.2601C551.85 20.9201 549.79 22.4201 547.51 23.7701C545.23 25.1101 543.52 25.7801 542.37 25.7801L542.38 25.7901Z" fill="black"/>
</svg>
