<svg width="451" height="119" viewBox="0 0 451 119" fill="none" xmlns="http://www.w3.org/2000/svg">
<path fill-rule="evenodd" clip-rule="evenodd" d="M276.122 0C277.33 0.191435 279.574 0.383444 280.782 0.0574879C286.666 12.0092 284.834 33.1171 284.751 49.4396C294.417 42.0386 311.811 31.2596 319.899 47.715C321.184 46.9487 321.951 46.1818 322.718 44.8981C327.128 43.1159 331.539 40.299 335.431 38.5169C348.683 35.7351 357.336 50.0248 352.631 60.9372C350.472 65.9444 345.593 69.1011 341.759 72.4923C351.794 73.2057 354.903 70.5636 361.26 68.9855C359.552 74.095 350.553 79.2459 345.153 80.4831C337.1 80.2917 329.045 80.0996 320.992 79.9082C302.651 77.1448 283.3 80.6487 267.494 81.6329C267.685 81.058 267.877 79.9657 268.069 79.9082C270.702 78.5371 273.575 76.6688 274.397 73.0671C276.047 67.3885 275.262 13.512 273.821 9.83043C272.586 7.63555 271.019 7.73902 268.069 7.53092C268.836 6.51568 269.603 4.9819 269.852 2.93188C272.287 2.29952 274.205 0.632367 276.122 0ZM409.582 8.1058C409.39 10.1558 409.198 11.6896 409.006 12.7048C407.515 16.4973 404.278 18.6606 399.802 18.4536C399.458 6.38116 412.417 -0.338604 423.963 2.357C424.921 3.50676 425.881 5.17391 426.322 6.32367C426.96 20.7255 415.826 32.4991 408.431 39.7242C409.965 41.7742 411.5 43.3079 412.515 44.3232C413.091 45.4729 414.184 47.1401 414.759 48.2899C424.199 41.6747 443.499 31.2062 449.332 48.8647C455.72 65.189 437.759 82.655 423.963 79.9082C422.621 78.567 421.278 77.2253 419.418 75.3667C419.418 75.3092 419.418 74.2169 419.418 73.642C423.059 71.8116 425.1 69.427 429.198 68.4106C430.901 71.7673 432.287 72.2893 434.95 73.0671C447.448 65.3695 437.855 48.8302 428.047 44.8981C421.498 45.7391 419.841 48.6158 415.909 51.2217C415.791 67.3138 400.867 87.177 385.996 77.6087C385.805 76.4589 385.612 74.7918 385.421 73.642C388.297 72.2434 391.173 70.3267 394.05 68.4106C396.477 70.6314 397.528 72.0985 400.953 73.0671C408.73 65.477 407.075 42.3042 390.08 44.8981C377.35 47.9168 377.197 59.3661 377.943 74.2169C372.738 77.469 367.743 80.9585 360.685 81.6329C361.069 80.8665 361.452 80.0996 361.835 79.3333C363.043 77.8007 365.287 76.2669 366.495 74.2169C369.15 68.406 368.159 11.232 365.344 8.1058C364.47 7.0417 362.592 7.81318 360.685 7.53092C362.116 2.3754 369.551 -1.7896 374.549 1.20725C378.293 13.4372 373.407 38.5296 377.943 50.0145C379.476 48.4819 381.011 46.9481 382.027 44.8981C385.996 43.4994 389.448 41.5827 392.899 39.6667C397.501 39.2832 402.104 38.9004 406.188 38.5169C409.444 32.1524 420.254 22.3162 416.485 12.13C415.909 11.689 414.816 10.7307 414.759 9.25556C413.033 9.3895 410.79 9.00663 409.582 8.1058ZM251.962 2.93188C255.23 3.58092 256.655 4.11499 258.29 5.74879C259.248 6.38116 260.207 8.04831 261.166 8.68068C262.693 12.023 261.994 14.7071 261.166 17.8213C257.209 20.9377 253.168 25.0866 246.842 24.2024C246.842 24.5284 246.842 24.3364 246.842 23.6275C248.568 22.6123 250.811 21.0785 252.537 19.0285C252.537 18.7796 252.537 18.0127 252.537 17.2464C251.301 14.8693 250.382 14.2668 247.992 12.13C236.116 14.798 232.538 31.3907 227.226 40.299C229.143 43.6902 231.061 46.5658 232.461 49.4396C234.186 47.715 236.43 45.4729 238.156 43.7483C244.895 41.1119 249.423 36.5215 259.44 39.0918C277.73 65.6282 228.796 78.9188 232.461 104.686C234.762 106.736 237.58 108.269 239.364 109.802C244.671 108.135 247.434 105.866 250.811 102.903C251.195 103.287 251.578 103.67 251.962 104.053C251.578 104.437 251.195 104.819 250.811 104.686C247.804 112.147 228.786 123.419 222.681 111.527C218.764 102.087 231.602 88.8608 235.279 83.415C231.346 73.1879 226.651 53.1953 216.929 47.715C215.297 46.4353 213.851 47.6477 212.269 46.5652C215.556 42.2714 218.038 37.6172 224.982 39.0918C228.603 23.9926 239.52 9.8908 251.962 2.93188ZM83.4695 5.74879C84.0448 5.74879 85.1378 5.74879 85.1953 5.74879C87.8219 7.8563 89.9319 9.96496 91.5231 11.5551C90.1235 14.18 88.2056 16.2886 86.2883 18.3961C86.0967 18.3961 85.9046 18.3961 85.1953 18.3961C85.1378 18.3961 84.0448 18.3961 83.4695 18.3961C82.2615 16.4801 80.018 14.5634 78.81 12.13C80.018 10.3478 82.2615 7.53092 83.4695 5.74879ZM75.9912 18.4536C80.5133 19.7908 83.1537 22.4531 83.4695 26.4444C82.0699 27.6517 80.152 29.8937 78.2347 31.101C77.4679 31.2349 76.7005 30.852 75.4159 29.9512C74.2079 28.744 71.9644 26.5019 70.7564 25.2947C72.6737 23.1872 74.5916 21.0785 75.9912 18.4536ZM91.5231 18.4536C92.0983 18.4536 93.1913 18.4536 93.7666 18.4536C95.6839 20.8871 97.6018 22.8037 99.0014 24.2024C99.0014 24.7773 99.0014 25.8696 99.0014 26.4444C97.6018 27.6517 95.6839 29.8937 93.7666 31.101C93.1913 31.101 92.0983 31.101 91.5231 31.101C90.3151 29.7023 88.0716 27.7856 86.8635 25.8696C86.8635 25.2947 86.8635 24.2024 86.8635 23.6275C88.0716 22.4203 90.3151 20.1783 91.5231 18.4536ZM50.0472 31.101C51.8305 31.8098 54.6492 32.0018 56.9503 31.6758C64.466 37.9323 63.5323 51.2965 58.1583 59.2126C49.4087 74.3181 24.3753 83.8582 22.4925 104.686C24.9954 109.125 27.6905 111.258 33.3648 111.527C37.0349 109.734 42.1219 103.649 44.3522 104.686C41.1612 112.166 20.3307 127.129 13.2884 112.676C11.355 104.151 19.3573 95.1534 23.5855 90.8309C20.2634 79.7507 10.8252 39.5494 0 40.8739C0.19156 40.625 0.383695 39.8581 0.575255 39.0918C2.11061 35.5229 5.15774 32.7543 9.77934 31.6758C14.501 34.6037 16.1566 38.3151 18.4082 42.5985C19.0409 42.1582 20.7092 41.1993 21.342 39.7242C23.3554 36.9009 26.3565 34.1007 28.8203 31.6758C30.6801 36.0254 32.0227 39.8587 33.3648 43.1734C39.0777 39.1274 43.0515 35.5793 50.0472 31.101ZM81.111 36.7923C93.5796 38.4818 100.729 60.0208 107.055 68.4106C110.015 71.4057 114.568 71.3448 116.259 72.4923C115.626 74.3509 113.958 75.6926 112.808 76.5164C97.259 83.876 96.6434 69.3937 88.014 59.2126C87.6303 59.404 87.2472 59.596 86.8635 59.7874C83.6191 69.9272 73.2294 82.893 59.3088 79.3333C59.2513 78.567 58.1583 77.8001 58.1008 76.5164C58.1008 76.4589 58.1008 75.3667 58.1008 74.7918C59.8841 73.5845 62.7028 71.3425 65.0038 70.1353C69.2964 70.7878 69.0249 72.4141 73.6327 72.4923C76.1736 69.0143 85.6008 56.6038 82.8943 52.3715C81.1046 47.7523 77.7584 47.6753 72.4821 44.8981C74.6503 41.0935 77.2199 39.3672 81.111 36.7923ZM43.2017 38.5169C39.7789 41.6402 35.5686 43.9581 35.0906 50.5894C36.8739 57.6788 39.6926 64.7705 41.9936 71.8599C43.5273 70.5187 45.062 69.1769 46.0779 67.8357C49.6365 61.1355 59.0804 44.6923 47.1709 39.0918C46.0204 38.9004 44.3522 38.7083 43.2017 38.5169ZM127.131 38.5169C128.473 38.7083 129.816 38.9004 130.64 39.0918C134.141 41.6023 135.148 45.7132 135.76 50.5894C146.815 41.7633 162.162 29.6914 173.152 48.2899C182.604 41.6672 201.905 31.2223 207.725 48.8647C214.119 65.2246 196.157 82.6561 182.356 79.9082C181.014 78.567 179.671 77.2253 177.811 75.3667C177.811 75.3092 177.811 74.2169 177.811 73.642C181.452 71.8116 183.493 69.427 188.108 68.4106C189.294 71.7673 190.68 72.2893 193.343 73.0671C205.854 65.3695 196.289 48.8274 186.44 44.8981C180.105 45.7621 178.165 48.6825 174.302 51.2217C174.314 65.0309 153.418 91.9876 144.447 76.5164C144.043 75.8933 144.218 76.2353 143.814 73.642C146.848 71.834 148.503 69.4282 152.5 68.4106C154.916 71.7823 157.408 74.0249 160.554 72.4348C162.449 68.5124 165.961 63.7098 164.523 57.4879C162.101 47.009 147.546 40.9262 139.269 50.5894C131.922 60.3842 137.148 94.129 136.393 108.135C130.147 111.666 127.213 117.77 118.503 118.483C119.269 117.85 120.037 116.183 120.804 115.033C128.508 111.75 128.529 51.0315 121.436 46.5652C120.612 46.5652 119.269 46.5652 117.927 46.5652C117.927 46.3738 117.927 46.1818 117.927 45.9903C120.254 41.9507 123.247 40.9745 127.131 38.5169ZM21.9172 43.1734C20.3123 46.8199 27.9701 76.2416 31.639 82.2077C32.4058 81.6329 33.1732 80.5406 33.9401 80.4831C33.9401 80.2917 33.9401 80.0996 33.9401 79.9082C30.1054 67.8369 26.2696 55.7621 21.9172 43.1734ZM243.908 44.3232C229.749 53.6518 239.578 60.6164 242.758 74.7918C243.39 74.3514 245.059 73.3925 246.209 72.4348C251.021 62.8435 258.896 54.4313 247.417 44.3232C246.593 44.3232 245.25 44.3232 243.908 44.3232ZM284.751 72.4923C293.869 73.2201 303.875 72.7768 308.394 68.9855C313.061 59.2844 310.12 40.3416 294.013 45.9903C285.109 49.4045 284.094 59.3764 284.751 72.4923ZM330.196 44.8981C321.016 50.3801 323.966 55.2085 318.174 63.2942C316.007 66.6854 313.322 69.561 310.12 72.4348C319.841 72.4348 329.047 72.4348 338.25 72.4348C345.29 63.4488 346.179 46.2772 330.196 44.8981Z" fill="#333333"/>
</svg>
