<svg width="515" height="152" viewBox="0 0 515 152" fill="none" xmlns="http://www.w3.org/2000/svg">
<path d="M146.34 19.6499C146.9 19.1699 147.44 18.9299 147.94 18.9299C148.44 18.9299 148.97 19.1699 149.54 19.6499C150.11 20.1299 151.12 21.1399 152.58 22.6899C154.04 24.2399 155.49 25.6799 156.91 27.0199C158 28.0699 158.54 28.9199 158.54 29.5899C158.54 30.1799 158.27 30.7799 157.72 31.4099C157.17 32.0399 156.13 33.0599 154.58 34.4799C153.03 35.8999 151.65 37.2599 150.44 38.5599C149.39 39.6499 148.54 40.1899 147.87 40.1899C147.33 40.1899 146.75 39.9199 146.15 39.3699C145.55 38.8199 144.54 37.7899 143.14 36.2699C141.74 34.7499 140.35 33.3499 138.97 32.0999C137.84 31.0499 137.28 30.2199 137.28 29.5899C137.28 28.9599 137.84 28.1099 138.97 27.0199C140.39 25.6799 141.83 24.2399 143.3 22.6899C144.77 21.1399 145.78 20.1299 146.34 19.6499Z" fill="black"/>
<path d="M214.57 40.6601C214.57 39.3201 217.4 37.2601 223.05 34.4801C228.7 31.7001 232.76 30.3101 235.24 30.3101C235.43 30.3101 236.19 30.4401 237.53 30.6901C238.87 30.9401 240.75 31.2201 243.2 31.5401C245.65 31.8601 248.23 32.0901 250.96 32.2601C255.15 32.5101 265.66 32.6401 282.48 32.6401C292.51 32.6401 299.16 32.5501 302.43 32.3601C305.7 32.1701 309.72 31.6601 314.48 30.8201C316.13 30.5301 316.96 30.6501 316.96 31.2001C316.96 32.2901 314.77 34.0601 310.39 36.5301C306.01 39.0001 302.04 40.6301 298.49 41.4201C293.03 42.6301 283.25 43.2401 269.16 43.2401C263 43.2401 255.29 43.1101 246.02 42.8601C236.75 42.6101 231.54 42.4801 230.4 42.4801C228.05 42.4801 224.83 42.2901 220.73 41.9201C216.63 41.5501 214.59 41.1301 214.59 40.6701L214.57 40.6601Z" fill="black"/>
<path d="M369.41 16.44C369.76 16.16 370.14 16.03 370.54 16.03C370.94 16.03 371.32 16.18 371.67 16.47C372.02 16.76 372.9 17.61 374.3 19.02C375.7 20.46 376.92 21.69 377.95 22.73C378.84 23.62 379.28 24.32 379.28 24.83C379.28 25.09 379.21 25.36 379.06 25.66C378.91 25.96 378.64 26.32 378.23 26.77C377.82 27.22 377.41 27.64 376.99 28.04C376.57 28.44 375.92 29.06 375.05 29.89C374.18 30.72 373.38 31.5 372.64 32.24C371.75 33.13 371.04 33.57 370.48 33.57C370.22 33.57 369.95 33.5 369.65 33.35C369.35 33.2 368.99 32.93 368.54 32.52C368.09 32.11 367.67 31.7 367.27 31.28C366.87 30.86 366.25 30.21 365.42 29.34C364.59 28.47 363.81 27.67 363.07 26.93C362.15 26.01 361.69 25.31 361.69 24.83C361.69 24.31 362.15 23.61 363.07 22.73L366.39 19.41C368.05 17.71 369.06 16.73 369.41 16.45V16.44ZM378.6 0.88998C378.95 0.60998 379.33 0.47998 379.73 0.47998C380.13 0.47998 380.5 0.60998 380.81 0.86998C381.12 1.12998 382.13 2.10998 383.83 3.79998L387.15 7.11998L387.45 7.41998L387.73 7.69998L387.98 7.94998C388.09 8.05998 388.16 8.13998 388.2 8.19998C388.24 8.25998 388.28 8.32998 388.34 8.41998C388.4 8.50998 388.43 8.59998 388.45 8.66998C388.47 8.73998 388.49 8.82998 388.51 8.91998C388.53 9.00998 388.54 9.10998 388.54 9.21998C388.54 9.62998 388.36 10.05 387.99 10.49C387.62 10.93 386.59 12 384.89 13.7C383.67 14.88 382.66 15.88 381.85 16.69C380.96 17.58 380.26 18.02 379.75 18.02C379.49 18.02 379.22 17.95 378.92 17.8C378.62 17.65 378.26 17.38 377.81 16.97C377.36 16.56 376.94 16.15 376.54 15.73C376.14 15.31 375.52 14.66 374.69 13.79C373.86 12.92 373.08 12.12 372.34 11.38C371.42 10.46 370.96 9.73998 370.96 9.21998C370.96 8.69998 371.42 7.99998 372.34 7.11998L375.66 3.79998C377.28 2.13998 378.27 1.16998 378.62 0.89998L378.6 0.88998ZM387.84 16.41C388.15 16.15 388.51 16.02 388.92 16.02C389.33 16.02 389.69 16.15 390.03 16.41C390.37 16.67 391.38 17.66 393.07 19.4L396.39 22.72C397.28 23.61 397.72 24.31 397.72 24.82C397.72 25.08 397.65 25.35 397.5 25.65C397.35 25.95 397.08 26.31 396.67 26.76C396.26 27.21 395.85 27.63 395.43 28.03C395.01 28.43 394.36 29.05 393.49 29.88C392.62 30.71 391.82 31.49 391.08 32.23L390.22 33.09C390.09 33.22 389.92 33.33 389.69 33.42C389.46 33.51 389.21 33.56 388.92 33.56C388.51 33.56 388.12 33.39 387.73 33.06C387.34 32.73 386.12 31.53 384.05 29.46L381.5 26.91C380.58 25.99 380.12 25.29 380.12 24.81C380.12 24.29 380.58 23.59 381.5 22.71L385.21 19C386.65 17.52 387.52 16.66 387.84 16.4V16.41Z" fill="black"/>
<path d="M448.87 24.21C449.22 23.93 449.6 23.8 450 23.8C450.4 23.8 450.78 23.95 451.13 24.24C451.48 24.53 452.36 25.38 453.76 26.79C455.16 28.23 456.38 29.46 457.41 30.5C458.3 31.39 458.74 32.09 458.74 32.6C458.74 32.86 458.67 33.13 458.52 33.43C458.37 33.73 458.1 34.09 457.69 34.54C457.28 34.99 456.87 35.41 456.45 35.81C456.03 36.21 455.38 36.83 454.51 37.66C453.64 38.49 452.84 39.27 452.1 40.01C451.21 40.9 450.5 41.34 449.94 41.34C449.68 41.34 449.41 41.27 449.11 41.12C448.81 40.97 448.45 40.7 448 40.29C447.55 39.88 447.13 39.47 446.73 39.05C446.33 38.63 445.71 37.98 444.88 37.11C444.05 36.24 443.27 35.44 442.53 34.7C441.61 33.78 441.15 33.08 441.15 32.6C441.15 32.08 441.61 31.38 442.53 30.5L445.85 27.18C447.51 25.48 448.52 24.5 448.87 24.22V24.21ZM458.06 8.66C458.41 8.38 458.79 8.25 459.19 8.25C459.59 8.25 459.96 8.38 460.27 8.64C460.58 8.9 461.59 9.88 463.29 11.57L466.61 14.89L466.91 15.19L467.19 15.47L467.44 15.72C467.55 15.83 467.62 15.91 467.66 15.97C467.7 16.03 467.74 16.1 467.8 16.19C467.86 16.28 467.89 16.37 467.91 16.44C467.93 16.51 467.95 16.6 467.97 16.69C467.99 16.78 468 16.88 468 16.99C468 17.4 467.82 17.82 467.45 18.26C467.08 18.7 466.05 19.77 464.35 21.47C463.13 22.65 462.12 23.65 461.31 24.46C460.42 25.35 459.72 25.79 459.21 25.79C458.95 25.79 458.68 25.72 458.38 25.57C458.08 25.42 457.72 25.15 457.27 24.74C456.82 24.33 456.4 23.92 456 23.5C455.6 23.08 454.98 22.43 454.15 21.56C453.32 20.69 452.54 19.89 451.8 19.15C450.88 18.23 450.42 17.51 450.42 16.99C450.42 16.47 450.88 15.77 451.8 14.89L455.12 11.57C456.74 9.91 457.73 8.94 458.08 8.67L458.06 8.66ZM467.3 24.18C467.61 23.92 467.97 23.79 468.38 23.79C468.79 23.79 469.15 23.92 469.49 24.18C469.83 24.44 470.84 25.43 472.53 27.17L475.85 30.49C476.74 31.38 477.18 32.08 477.18 32.59C477.18 32.85 477.11 33.12 476.96 33.42C476.81 33.72 476.54 34.08 476.13 34.53C475.72 34.98 475.31 35.4 474.89 35.8C474.47 36.2 473.82 36.82 472.95 37.65C472.08 38.48 471.28 39.26 470.54 40L469.68 40.86C469.55 40.99 469.38 41.1 469.15 41.19C468.92 41.28 468.67 41.33 468.38 41.33C467.97 41.33 467.58 41.16 467.19 40.83C466.8 40.5 465.58 39.3 463.51 37.23L460.96 34.68C460.04 33.76 459.58 33.06 459.58 32.58C459.58 32.06 460.04 31.36 460.96 30.48L464.67 26.77C466.11 25.29 466.98 24.43 467.3 24.17V24.18Z" fill="black"/>
<path d="M23.85 93.1501C23.85 94.4301 20.78 96.5001 14.65 99.3501C8.52 102.2 4.31 103.64 2.03 103.64C1.39 103.64 1.07 103.48 1.07 103.16C1.07 102.76 1.38 102.28 2 101.72C2.62 101.16 3.34 100.6 4.16 100.04C4.98 99.4801 5.49 99.0801 5.69 98.8401C6.69 97.6001 7.31 96.5601 7.55 95.7201C7.99 94.0401 8.25 88.5501 8.33 79.2401C8.53 55.8201 8.65 42.6401 8.69 39.6801C8.69 39.3601 8.72 38.1901 8.78 36.1701C8.84 34.1501 8.87 32.4001 8.87 30.9301C8.87 17.5401 7.03 10.8501 3.36 10.8501C3.2 10.8501 2.96 10.9001 2.64 11.0001C2.32 11.1001 2.02 11.1901 1.74 11.2701C1.46 11.3501 1.18 11.4201 0.9 11.4801C0.62 11.5401 0.4 11.5301 0.24 11.4501C0.08 11.3701 0 11.2101 0 10.9701C0 10.2101 0.85 8.96006 2.55 7.22006C4.25 5.48006 6.35 3.85006 8.84 2.33006C11.33 0.810059 13.48 0.0600586 15.27 0.0600586C16.07 0.0600586 16.8 0.220059 17.46 0.540059C18.12 0.860059 18.78 1.44006 19.44 2.28006C20.1 3.12006 20.69 4.40006 21.21 6.12006C21.73 7.84006 22.13 9.98006 22.41 12.5301C22.85 16.2901 23.11 33.8901 23.19 65.3401C26.47 62.1801 29.79 59.4801 33.17 57.2201C36.55 54.9601 39.66 53.2801 42.52 52.1801C45.38 51.0801 47.9 50.3001 50.1 49.8401C52.3 49.3801 54.34 49.1501 56.21 49.1501C62 49.1501 66.98 51.0301 71.14 54.7801C75.3 58.5401 77.37 62.8301 77.37 67.6701C77.37 71.3101 76.56 74.9201 74.94 78.5201C73.32 82.1201 71.24 85.2901 68.71 88.0501C66.18 90.8101 63.4 93.2701 60.38 95.4501C57.36 97.6301 54.38 99.2901 51.42 100.43C48.46 101.57 45.87 102.14 43.63 102.14C40.91 102.14 38.61 101.19 36.74 99.2901C34.87 97.3901 33.92 95.8201 33.92 94.5801C33.92 93.4201 35.71 91.5401 39.28 88.9501C42.86 86.3501 45.46 85.0501 47.1 85.0501C47.38 85.0501 47.6 85.1601 47.76 85.3801C47.92 85.6001 48.04 85.8701 48.12 86.1901C48.2 86.5101 48.44 86.9801 48.84 87.6001C49.24 88.2201 49.76 88.8301 50.4 89.4301C52.2 91.1101 54.22 91.9501 56.45 91.9501C57.53 91.9501 58.21 91.7501 58.49 91.3501C59.85 89.5101 61.01 87.2401 61.97 84.5501C62.93 81.8601 63.41 79.2101 63.41 76.6101C63.41 72.2901 61.47 68.3501 57.6 64.7701C53.73 61.1901 49.37 59.4101 44.53 59.4101C41.89 59.4101 39.47 59.7401 37.28 60.4001C35.09 61.0601 33.1 62.0501 31.35 63.3701C29.6 64.6901 28.15 65.9201 27.03 67.0601C25.91 68.2001 24.63 69.6701 23.19 71.4701C23.27 84.5401 23.49 91.7501 23.85 93.1101V93.1701V93.1501Z" fill="black"/>
<path d="M124.61 59.4C122.41 59.4 120.45 59.66 118.74 60.18C117.03 60.7 115.45 61.52 114.03 62.64C112.61 63.76 111.37 64.94 110.31 66.18C109.25 67.42 108.06 69.04 106.74 71.04C106.82 82.59 107.1 89.82 107.58 92.74C107.18 93.62 106.3 94.54 104.94 95.5C103.58 96.46 102.34 97.21 101.22 97.75C100.1 98.29 98.56 98.97 96.6 99.79C94.64 100.61 93.58 101.06 93.42 101.14C90.1 102.66 87.63 103.42 85.99 103.42C85.23 103.42 84.85 103.22 84.85 102.82C84.85 102.38 85.19 101.88 85.87 101.32C86.55 100.76 87.31 100.21 88.15 99.67C88.99 99.13 89.81 98.28 90.61 97.12C91.41 95.96 91.89 94.62 92.05 93.1C92.09 92.7 92.17 89.72 92.29 84.17C92.41 78.62 92.47 75.44 92.47 74.64C92.47 72 92.22 69.67 91.72 67.66C91.22 65.65 90.58 64.11 89.8 63.07C89.02 62.03 88.25 61.25 87.49 60.73C86.73 60.21 86.03 59.95 85.39 59.95C85.19 59.95 84.79 60.05 84.19 60.25C83.59 60.45 83.1 60.55 82.72 60.55C82.34 60.55 82.15 60.35 82.15 59.95C82.15 59.19 82.99 57.95 84.67 56.23C86.35 54.51 88.42 52.91 90.87 51.43C93.32 49.95 95.44 49.21 97.19 49.21C99.91 49.21 102.09 50.7 103.72 53.68C105.35 56.66 106.3 60.1 106.54 64.02C108.9 61.66 111.48 59.45 114.27 57.4C117.06 55.35 120.5 53.46 124.58 51.77C128.66 50.08 132.57 49.22 136.33 49.22C138.85 49.22 141.19 49.66 143.34 50.54C145.49 51.42 147.3 52.59 148.73 54.05C150.16 55.51 151.29 56.81 152.09 57.95C152.89 59.09 153.59 60.26 154.19 61.46C163.66 53.31 172.27 49.23 180.02 49.23C183.06 49.23 185.84 49.85 188.38 51.09C190.92 52.33 192.97 53.93 194.52 55.89C196.07 57.85 197.29 59.95 198.15 62.18C199.01 64.41 199.44 66.6 199.44 68.71C199.44 71.79 198.89 74.82 197.79 77.82C196.69 80.82 195.24 83.51 193.44 85.91C191.64 88.31 189.61 90.54 187.36 92.59C185.11 94.64 182.8 96.37 180.47 97.74C178.13 99.12 175.86 100.2 173.67 100.98C171.48 101.76 169.53 102.15 167.86 102.15C165.26 102.15 163.12 101.28 161.45 99.54C159.78 97.8 158.93 96.41 158.93 95.37C158.93 94.61 159.78 93.45 161.48 91.89C163.18 90.33 165.11 88.92 167.26 87.66C169.41 86.4 171.06 85.77 172.18 85.77C172.5 85.77 172.72 85.85 172.84 86.01C172.96 86.17 173.05 86.38 173.11 86.64C173.17 86.9 173.35 87.3 173.65 87.84C173.95 88.38 174.38 88.93 174.94 89.49C176.58 91.13 178.36 91.95 180.27 91.95H180.75C180.87 91.95 180.97 91.91 181.05 91.83C181.13 91.75 181.19 91.7 181.23 91.68C181.27 91.66 181.34 91.55 181.44 91.35C181.54 91.15 181.63 90.99 181.71 90.87C184.19 86.75 185.43 82.6 185.43 78.4C185.43 73.13 183.64 68.63 180.07 64.91C176.5 61.19 172.67 59.34 168.59 59.34C167.83 59.34 167.08 59.39 166.34 59.49C165.6 59.59 164.94 59.7 164.36 59.82C163.78 59.94 163.18 60.13 162.56 60.39C161.94 60.65 161.43 60.87 161.03 61.05C160.63 61.23 160.18 61.51 159.68 61.89C159.18 62.27 158.8 62.55 158.54 62.73C158.28 62.91 157.94 63.21 157.52 63.63C157.1 64.05 156.82 64.32 156.68 64.44C156.54 64.56 156.29 64.83 155.93 65.25C155.57 65.67 155.37 65.9 155.33 65.94V67.14C155.33 71.34 154.52 75.35 152.9 79.19C151.28 83.03 149.23 86.29 146.76 88.99C144.29 91.69 141.6 94.05 138.7 96.09C135.8 98.13 133.06 99.64 130.46 100.62C127.86 101.6 125.64 102.09 123.81 102.09C121.17 102.09 119.02 101.24 117.37 99.54C115.72 97.84 114.88 96.45 114.88 95.37C114.88 94.61 115.73 93.45 117.43 91.89C119.13 90.33 121.06 88.92 123.21 87.66C125.36 86.4 127.01 85.77 128.13 85.77C128.41 85.77 128.6 85.81 128.7 85.89C128.8 85.97 128.89 86.17 128.97 86.49C129.41 87.85 130.33 89.1 131.73 90.24C133.13 91.38 134.69 91.95 136.41 91.95C136.61 91.95 136.75 91.91 136.83 91.83C136.91 91.75 137.09 91.49 137.37 91.05C138.45 89.29 139.39 87.11 140.19 84.52C140.99 81.93 141.39 79.31 141.39 76.67C141.39 72.27 139.62 68.3 136.09 64.74C132.55 61.18 128.73 59.41 124.61 59.41V59.4Z" fill="black"/>
<path d="M214.52 79.0599C214.52 75.4599 214.3 72.3499 213.86 69.7099C213.42 67.07 212.84 65.08 212.12 63.75C211.4 62.42 210.67 61.44 209.93 60.84C209.19 60.24 208.44 59.9399 207.68 59.9399C207.4 59.9399 206.89 60.0599 206.15 60.2999C205.41 60.5399 204.92 60.66 204.68 60.66C204.32 60.66 204.14 60.4799 204.14 60.1199C204.14 59.5599 204.67 58.67 205.73 57.45C206.79 56.23 208.08 55.01 209.6 53.79C211.12 52.57 212.82 51.5 214.69 50.58C216.56 49.66 218.21 49.2 219.61 49.2C224.25 49.2 227.12 54.08 228.24 63.83C230.44 61.59 232.9 59.4499 235.61 57.4199C238.32 55.3899 241.66 53.5 245.62 51.79C249.58 50.08 253.33 49.2099 256.89 49.2099C260.69 49.2099 264.07 50.19 267.05 52.15C270.03 54.11 272.43 56.97 274.27 60.72C282.74 53.09 290.59 49.27 297.83 49.27C300.71 49.27 303.37 49.89 305.83 51.13C308.29 52.37 310.28 53.96 311.79 55.9C313.3 57.84 314.49 59.9099 315.33 62.0999C316.17 64.2899 316.59 66.4199 316.59 68.4499C316.59 72.4099 315.15 76.4399 312.27 80.5599C309.39 84.6799 306 88.1899 302.08 91.11C303.64 91.11 305.41 91.11 307.38 91.1399C309.35 91.1699 310.63 91.1699 311.19 91.1699C313.07 91.1699 314.49 91.07 315.45 90.87C316.41 90.67 317.37 90.2699 318.33 89.6699C321.73 87.4299 324.14 86.3099 325.58 86.3099C326.06 86.3099 326.3 86.47 326.3 86.79C326.3 88.43 322.62 91.59 315.27 96.26C311.31 98.78 308.26 100.43 306.1 101.21C303.94 101.99 301.96 102.38 300.17 102.38C295.89 102.38 287.34 102.17 274.52 101.75C261.69 101.33 251.4 101.12 243.65 101.12C238.14 101.12 233.2 101.2 228.84 101.36C228.84 104.76 228.84 108.94 228.87 113.92C228.9 118.9 228.91 122.57 228.93 124.95C228.95 127.33 228.96 128.62 228.96 128.82C229 129.94 229.1 130.91 229.26 131.73C229.42 132.55 229.59 133.12 229.77 133.44C229.95 133.76 230.11 134.04 230.25 134.28C230.39 134.52 230.46 134.7 230.46 134.82C230.46 135.34 229.85 136.15 228.63 137.25C227.41 138.35 225.96 139.38 224.28 140.34C224.16 140.42 223.3 141.07 221.7 142.29C220.1 143.51 218.42 144.76 216.66 146.04C214.9 147.32 212.95 148.51 210.82 149.61C208.69 150.71 206.97 151.26 205.7 151.26C205.1 151.26 204.8 151.1 204.8 150.78C204.8 150.38 205.22 149.76 206.06 148.92C206.9 148.08 207.78 147.3 208.7 146.58L210.02 145.5C212.42 142.78 213.78 139.77 214.1 136.45C214.1 135.97 214.17 128.56 214.31 114.21C214.45 99.8599 214.52 88.16 214.52 79.08V79.0599ZM245.51 59.34C241.47 59.34 238.33 60.2199 236.07 61.9799C233.81 63.74 231.34 66.74 228.67 70.97C228.67 72.05 228.67 73.6299 228.7 75.7099C228.73 77.7899 228.74 80.44 228.76 83.65C228.78 86.86 228.79 89.65 228.79 92.01C233.98 91.41 242.7 91.0099 254.92 90.8099C259.44 86.4099 261.69 81.7 261.69 76.66C261.69 72.02 259.95 67.9799 256.48 64.5199C253.01 61.0599 249.35 59.34 245.51 59.34ZM286.51 59.34C285.79 59.34 285.11 59.37 284.47 59.43C283.83 59.49 283.23 59.62 282.67 59.82C282.11 60.0199 281.62 60.1799 281.2 60.2999C280.78 60.4199 280.35 60.66 279.91 61.02C279.47 61.38 279.13 61.6399 278.89 61.7999C278.65 61.9599 278.33 62.2699 277.93 62.7299C277.53 63.1899 277.27 63.49 277.15 63.63C277.03 63.77 276.76 64.11 276.34 64.65C275.92 65.19 275.69 65.5 275.65 65.58C275.69 66.54 275.71 67.24 275.71 67.68C275.71 71.6399 274.29 75.6899 271.45 79.8499C268.61 84.0099 265.24 87.64 261.32 90.76C269.03 90.76 280.58 90.8599 295.97 91.0599C297.21 89.7799 298.23 88.6399 299.03 87.6399C299.83 86.6399 300.63 85.19 301.43 83.29C302.23 81.3899 302.63 79.42 302.63 77.3899C302.63 73.1099 300.95 69.04 297.59 65.16C294.23 61.28 290.54 59.3499 286.5 59.3499L286.51 59.34Z" fill="black"/>
<path d="M329.54 13.25C328.74 13.25 327.8 13.5 326.72 14C325.64 14.5 325.02 14.75 324.86 14.75C324.58 14.75 324.44 14.53 324.44 14.09C324.44 13.13 325.3 11.53 327.02 9.29C328.74 7.05 330.89 4.94 333.46 2.97C336.03 1 338.29 0 340.2 0C341.76 0 343.3 0.43 344.82 1.29C346.34 2.15 347.71 3.31 348.93 4.77C350.15 6.23 351.21 7.66 352.11 9.06C353.01 10.46 353.86 11.98 354.66 13.62C358.5 21.77 363.39 32.3 369.35 45.21C378.46 64.99 384.3 77.22 386.85 81.89C389.81 87.16 392.2 90.1 394.04 90.7C394.4 90.82 394.74 90.88 395.06 90.88C395.34 90.88 395.64 90.84 395.96 90.76L396.8 90.55C397.04 90.49 397.26 90.44 397.46 90.4C397.66 90.36 397.82 90.38 397.94 90.46C398.06 90.54 398.12 90.7 398.12 90.94C398.12 92.26 396.09 94.47 392.04 97.56C387.98 100.66 384.88 102.21 382.72 102.21C380.88 102.21 379.19 100.9 377.66 98.28C376.13 95.66 373.33 89.78 369.3 80.63C366.9 75.2 364.94 70.8 363.43 67.44C357.48 78.63 353.42 85.56 351.26 88.24C348.42 91.76 344.87 94.95 340.59 97.83C336.31 100.71 332.46 102.15 329.02 102.15C327.98 102.15 327.01 102.01 326.11 101.73C325.21 101.45 324.49 101.11 323.95 100.71C323.41 100.31 322.94 99.89 322.54 99.45C322.14 99.01 321.86 98.64 321.7 98.34C321.54 98.04 321.46 97.85 321.46 97.77C321.46 96.61 323.24 94.72 326.79 92.11C330.34 89.5 332.98 88.18 334.7 88.18C334.94 88.18 335.22 88.35 335.54 88.69C335.86 89.03 336.17 89.39 336.47 89.77C336.77 90.15 337.3 90.51 338.06 90.85C338.82 91.19 339.74 91.36 340.82 91.36C341.38 91.36 341.82 91.34 342.14 91.3C345.42 85.99 348.21 81.1 350.53 76.64C352.85 72.18 354.79 68.2 356.34 64.68C357.89 61.16 358.9 58.97 359.34 58.09C354.82 47.78 350.17 37.69 345.37 27.82C343.41 23.78 341.01 20.35 338.18 17.51C335.35 14.67 332.47 13.25 329.55 13.25H329.54Z" fill="black"/>
<path d="M408.07 79.0599C408.07 75.4599 407.85 72.3499 407.41 69.7099C406.97 67.07 406.39 65.08 405.67 63.75C404.95 62.42 404.22 61.44 403.48 60.84C402.74 60.24 401.99 59.9399 401.23 59.9399C400.95 59.9399 400.44 60.0599 399.7 60.2999C398.96 60.5399 398.47 60.66 398.23 60.66C397.87 60.66 397.69 60.4799 397.69 60.1199C397.69 59.5599 398.22 58.67 399.28 57.45C400.34 56.23 401.63 55.01 403.15 53.79C404.67 52.57 406.37 51.5 408.24 50.58C410.11 49.66 411.76 49.2 413.16 49.2C417.88 49.2 420.77 54.22 421.85 64.25C426.57 59.53 431.49 55.86 436.63 53.22C441.77 50.58 446.65 49.2599 451.29 49.2599C459.6 49.2599 465.74 53.32 469.69 61.43C479.16 53.28 487.79 49.2 495.58 49.2C498.58 49.2 501.34 49.82 503.88 51.06C506.42 52.3 508.47 53.89 510.02 55.83C511.57 57.77 512.79 59.86 513.65 62.09C514.51 64.32 514.94 66.53 514.94 68.68C514.94 71.76 514.39 74.79 513.29 77.79C512.19 80.79 510.74 83.4799 508.94 85.8799C507.14 88.2799 505.11 90.5099 502.86 92.5599C500.61 94.6099 498.3 96.34 495.97 97.7099C493.63 99.09 491.36 100.17 489.17 100.95C486.98 101.73 485.03 102.12 483.36 102.12C480.76 102.12 478.63 101.25 476.98 99.51C475.32 97.77 474.49 96.3799 474.49 95.3399C474.49 94.5799 475.34 93.42 477.04 91.86C478.74 90.2999 480.67 88.8899 482.82 87.6299C484.97 86.3699 486.62 85.7399 487.74 85.7399C488.06 85.7399 488.28 85.82 488.4 85.98C488.52 86.14 488.61 86.35 488.67 86.61C488.73 86.8699 488.91 87.2699 489.21 87.8099C489.51 88.3499 489.94 88.8999 490.5 89.4599C492.14 91.0999 493.92 91.9199 495.83 91.9199H496.31C496.43 91.9199 496.53 91.88 496.61 91.8C496.69 91.72 496.75 91.67 496.79 91.65C496.83 91.63 496.9 91.52 497 91.32C497.1 91.1199 497.19 90.9599 497.27 90.8399C499.75 86.7199 500.99 82.57 500.99 78.37C500.99 75.69 500.47 73.15 499.43 70.73C498.39 68.31 497.05 66.28 495.41 64.65C493.77 63.02 491.95 61.71 489.96 60.75C487.97 59.79 486 59.31 484.09 59.31C483.25 59.31 482.43 59.3599 481.63 59.4599C480.83 59.5599 480.09 59.7199 479.41 59.9399C478.73 60.1599 478.12 60.36 477.58 60.54C477.04 60.72 476.48 61.01 475.9 61.41C475.32 61.8099 474.87 62.11 474.55 62.31C474.23 62.51 473.83 62.85 473.35 63.33C472.87 63.81 472.56 64.11 472.42 64.23C472.28 64.35 471.99 64.67 471.55 65.19L470.89 65.91V67.11C470.89 71.31 470.08 75.32 468.46 79.16C466.84 83 464.79 86.2599 462.32 88.9599C459.85 91.66 457.16 94.0199 454.26 96.0599C451.36 98.0999 448.62 99.6099 446.02 100.59C443.42 101.57 441.2 102.06 439.37 102.06C436.73 102.06 434.58 101.21 432.93 99.51C431.28 97.81 430.44 96.4199 430.44 95.3399C430.44 94.5799 431.29 93.42 432.99 91.86C434.69 90.2999 436.62 88.8899 438.77 87.6299C440.92 86.3699 442.57 85.7399 443.69 85.7399C443.97 85.7399 444.16 85.7799 444.26 85.86C444.36 85.94 444.45 86.1399 444.53 86.4599C444.97 87.82 445.89 89.07 447.29 90.2099C448.69 91.3499 450.25 91.9199 451.97 91.9199C452.17 91.9199 452.31 91.88 452.39 91.8C452.47 91.72 452.65 91.4599 452.93 91.0199C454.01 89.2599 454.95 87.0799 455.75 84.4899C456.55 81.8999 456.95 79.2799 456.95 76.6399C456.95 72.24 455.18 68.2699 451.65 64.7099C448.11 61.15 444.29 59.38 440.17 59.38C437.29 59.38 434.74 59.8899 432.5 60.91C430.26 61.93 428.44 63.2 427.05 64.72C425.66 66.24 424.05 68.34 422.25 71.01C422.29 73.93 422.33 80.15 422.37 89.68C422.41 99.2099 422.45 108.02 422.49 116.11C422.53 124.2 422.55 128.43 422.55 128.79C422.59 129.91 422.69 130.88 422.85 131.7C423.01 132.52 423.18 133.09 423.36 133.41C423.54 133.73 423.7 134.01 423.84 134.25C423.98 134.49 424.05 134.67 424.05 134.79C424.05 135.31 423.44 136.12 422.22 137.22C421 138.32 419.55 139.35 417.87 140.31C417.75 140.39 416.89 141.04 415.29 142.26C413.69 143.48 412.01 144.73 410.25 146.01C408.49 147.29 406.54 148.48 404.41 149.58C402.28 150.68 400.56 151.23 399.29 151.23C398.69 151.23 398.39 151.07 398.39 150.75C398.39 150.35 398.81 149.73 399.65 148.89C400.49 148.05 401.37 147.27 402.29 146.55L403.61 145.47C406.01 142.75 407.37 139.74 407.69 136.42V133.9C407.73 132.18 407.76 129.92 407.78 127.13C407.8 124.34 407.83 121.19 407.87 117.69C407.91 114.19 407.94 110.55 407.96 106.75C407.98 102.95 408 99.3199 408.02 95.8399C408.04 92.3599 408.06 89.1199 408.08 86.0999C408.1 83.0799 408.11 80.7399 408.11 79.0599H408.07Z" fill="black"/>
</svg>
