<svg width="615" height="159" viewBox="0 0 615 159" fill="none" xmlns="http://www.w3.org/2000/svg">
<path d="M76.3235 39.3855C80.2936 39.3855 83.9253 40.4118 87.23 42.4533C90.5347 44.4947 93.0837 47.1114 94.877 50.3033C96.6704 53.4952 97.5727 56.845 97.5727 60.3527C97.5727 61.2663 97.5275 62.2475 97.426 63.2739C97.3245 64.3003 97.0313 65.8793 96.535 67.9997C96.0387 70.1201 95.3733 72.1841 94.5274 74.1805C93.6928 76.1881 92.3844 78.4326 90.6362 80.9139C88.888 83.3952 86.8127 85.6623 84.4554 87.7263C81.2861 90.4783 77.9138 92.7904 74.3497 94.6514C70.7743 96.5237 67.4696 97.4599 64.4131 97.4599C62.8904 97.4599 61.458 97.1441 60.1497 96.5124C58.8301 95.8808 57.8037 95.1252 57.0593 94.2567C56.3149 93.3769 55.7284 92.5536 55.3111 91.7979C54.8938 91.0422 54.6795 90.4445 54.6795 90.0272C54.6795 88.8767 56.3939 87.0721 59.8339 84.5908C63.2739 82.1095 65.7552 80.8688 67.2779 80.8688C67.5486 80.8688 67.7403 80.9139 67.8531 81.0154C67.9659 81.1169 68.0674 81.3312 68.1351 81.6696C68.5975 83.1245 69.59 84.4893 71.1465 85.7976C72.6917 87.0947 74.5188 87.7488 76.6167 87.7488C76.9212 87.7488 77.4175 87.715 78.1055 87.636C82.1884 81.9854 84.2299 75.7482 84.2299 68.9133C84.2299 63.8378 82.2674 59.2699 78.3311 55.1983C74.3948 51.1379 70.0412 49.0965 65.2703 49.0965C60.8039 49.0965 56.9352 50.1792 53.6757 52.3335C50.4161 54.4877 47.0212 58.3225 43.5135 63.8153V124.405C43.209 125.589 41.8894 127.292 39.5659 129.503C37.2425 131.713 35.0657 133.281 33.0355 134.195C29.0992 136.022 25.8735 138.018 23.3583 140.15C20.8432 142.282 17.6738 145.891 13.8503 150.978C12.4405 152.805 10.275 154.564 7.35376 156.245C4.43256 157.925 2.28959 158.76 0.913581 158.76C0.304527 158.76 0 158.591 0 158.241C0 157.892 0.327084 157.192 0.969974 156.121C1.61286 155.049 2.63923 153.662 4.0378 151.97C5.42509 150.267 6.97028 148.654 8.65082 147.132C9.41777 146.444 10.0268 145.056 10.478 142.981C10.9404 140.894 11.369 135.548 11.7638 126.943C12.1698 118.337 12.3615 106.28 12.3615 90.7715C12.3615 81.3087 12.2487 73.8647 12.0232 68.4621C11.7976 63.0596 11.2562 58.8301 10.4216 55.7735C9.39522 51.9951 7.8613 50.1003 5.8424 50.1003C5.61683 50.1003 5.34614 50.1454 5.04161 50.2469C4.73708 50.3484 4.45512 50.4387 4.20698 50.5402C3.95885 50.6417 3.71072 50.7093 3.46258 50.7657C3.21445 50.8221 3.02271 50.8109 2.88737 50.7319C2.75202 50.653 2.68435 50.5063 2.68435 50.2695C2.68435 49.4687 3.40619 48.1603 4.86115 46.3445C6.31611 44.5286 8.16583 42.8368 10.4216 41.2465C12.6773 39.6562 14.6962 38.8666 16.4896 38.8666C17.4821 38.8666 18.3618 39.1373 19.1288 39.6674C19.8958 40.1975 20.5161 40.8291 20.9898 41.5623C21.4635 42.2841 21.9034 43.2766 22.3094 44.506C22.7154 45.7467 23.0087 46.8182 23.2004 47.7092C23.3922 48.6115 23.6177 49.7619 23.8884 51.1718C24.0012 51.747 24.0802 52.1643 24.114 52.435C24.5764 52.0966 25.4111 51.4989 26.6292 50.6642C27.8473 49.8296 28.8285 49.1529 29.5504 48.6341C30.2722 48.1152 31.2648 47.3708 32.528 46.4009C33.7912 45.4309 35.0657 44.4045 36.3628 43.333C39.3742 40.6938 41.551 39.3855 42.8932 39.3855C43.1639 39.3855 43.3669 39.4644 43.5248 39.611V56.3375C48.5213 51.0703 53.9464 46.931 59.7888 43.9082C65.6312 40.8855 71.1465 39.3855 76.3347 39.3855H76.3235ZM25.3547 97.0538C25.3547 113.78 24.9148 126.356 24.0351 134.793C25.4449 133.766 27.836 132.153 31.1971 129.977C31.276 117.604 31.3099 101.61 31.3099 81.9854C31.3099 66.4094 31.2873 56.563 31.2535 52.435C29.7308 53.6193 27.4751 55.2547 24.4975 57.3638C25.0727 69.6238 25.3547 82.8426 25.3547 97.0538Z" fill="black"/>
<path d="M321.208 75.4663C321.208 72.0262 320.994 69.0486 320.577 66.5335C320.159 64.0183 319.607 62.1122 318.919 60.8377C318.231 59.5632 317.532 58.6271 316.832 58.0631C316.133 57.4992 315.411 57.2059 314.689 57.2059C314.419 57.2059 313.934 57.3187 313.234 57.5443C312.524 57.7699 312.061 57.8827 311.836 57.8827C311.497 57.8827 311.317 57.7135 311.317 57.3638C311.317 56.8337 311.824 55.9765 312.828 54.8148C313.843 53.6531 315.073 52.4914 316.528 51.3184C317.983 50.1454 319.596 49.1303 321.4 48.2506C323.205 47.3708 324.761 46.931 326.092 46.931C330.525 46.931 333.265 51.5891 334.337 60.9054C336.435 58.7624 338.781 56.7209 341.386 54.781C343.992 52.841 347.172 51.0364 350.951 49.401C354.729 47.7656 358.316 46.9423 361.722 46.9423C365.353 46.9423 368.579 47.8784 371.433 49.7507C374.275 51.6229 376.576 54.3524 378.335 57.9391C386.434 50.6417 393.934 46.9986 400.837 46.9986C403.589 46.9986 406.138 47.5851 408.484 48.7694C410.829 49.9537 412.736 51.4763 414.179 53.326C415.634 55.1758 416.751 57.1495 417.563 59.2587C418.375 61.3678 418.77 63.3867 418.77 65.3266C418.77 69.105 417.394 72.9624 414.642 76.8987C411.89 80.835 408.653 84.196 404.908 86.9819C406.397 86.9819 408.089 86.9819 409.972 87.0045C411.867 87.027 413.074 87.0383 413.604 87.0383C415.397 87.0383 416.751 86.9481 417.676 86.7563C418.601 86.5646 419.503 86.1811 420.428 85.6059C423.676 83.4629 425.988 82.4027 427.353 82.4027C427.815 82.4027 428.041 82.5606 428.041 82.8651C428.041 84.4329 424.533 87.4443 417.507 91.9107C413.728 94.3131 410.807 95.8921 408.743 96.6365C406.679 97.3809 404.795 97.7531 403.07 97.7531C398.987 97.7531 390.81 97.5501 378.561 97.1553C366.301 96.7493 356.477 96.5576 349.067 96.5576C343.8 96.5576 339.085 96.6365 334.923 96.7831C334.923 100.031 334.923 104.024 334.946 108.784C334.968 113.543 334.98 117.051 335.002 119.318C335.025 121.585 335.025 122.826 335.025 123.018C335.059 124.089 335.16 125.014 335.307 125.792C335.465 126.57 335.623 127.123 335.792 127.428C335.961 127.732 336.119 128.003 336.254 128.228C336.39 128.454 336.457 128.634 336.457 128.747C336.457 129.243 335.871 130.01 334.709 131.071C333.547 132.12 332.16 133.101 330.558 134.014C330.446 134.093 329.622 134.714 328.1 135.875C326.577 137.037 324.964 138.233 323.284 139.451C321.603 140.669 319.742 141.808 317.701 142.857C315.659 143.906 314.024 144.436 312.806 144.436C312.23 144.436 311.949 144.278 311.949 143.974C311.949 143.59 312.355 143.004 313.155 142.203C313.956 141.402 314.802 140.658 315.671 139.97L316.934 138.943C319.223 136.349 320.52 133.462 320.825 130.292C320.825 129.83 320.893 122.747 321.028 109.043C321.163 95.3395 321.231 84.1509 321.231 75.4888L321.208 75.4663ZM350.815 56.6194C346.958 56.6194 343.946 57.4541 341.792 59.1346C339.638 60.8151 337.281 63.6799 334.72 67.729C334.72 68.7554 334.72 70.2668 334.754 72.2518C334.777 74.2369 334.788 76.7633 334.811 79.8424C334.833 82.9215 334.844 85.5833 334.844 87.8278C339.807 87.2526 348.131 86.8691 359.816 86.6774C364.135 82.4817 366.29 77.9701 366.29 73.1654C366.29 68.7328 364.632 64.8755 361.304 61.5708C357.988 58.2661 354.492 56.6194 350.826 56.6194H350.815ZM389.986 56.6194C389.298 56.6194 388.655 56.642 388.035 56.7097C387.426 56.7661 386.851 56.8901 386.321 57.0819C385.791 57.2736 385.317 57.4202 384.922 57.5443C384.516 57.6571 384.11 57.8827 383.693 58.2323C383.275 58.5819 382.948 58.8188 382.723 58.9767C382.497 59.1346 382.193 59.4279 381.809 59.8677C381.426 60.3076 381.178 60.5896 381.065 60.7249C380.952 60.8603 380.693 61.1873 380.287 61.6949C379.892 62.2137 379.666 62.507 379.632 62.5859C379.666 63.4995 379.689 64.1649 379.689 64.5935C379.689 68.3719 378.335 72.2518 375.617 76.2219C372.899 80.1921 369.685 83.6659 365.94 86.6435C373.305 86.6435 384.347 86.7338 399.043 86.9255C400.227 85.7074 401.197 84.6134 401.964 83.6659C402.731 82.7185 403.487 81.3312 404.254 79.5153C405.021 77.6995 405.404 75.8159 405.404 73.876C405.404 69.793 403.803 65.9019 400.588 62.1912C397.385 58.4917 393.855 56.6307 389.998 56.6307L389.986 56.6194Z" fill="black"/>
<path d="M506.643 57.3187C506.643 56.5518 507.466 55.345 509.102 53.687C510.748 52.029 512.745 50.4951 515.113 49.074C517.482 47.6528 519.501 46.9536 521.181 46.9536C522.366 46.9536 523.392 47.2919 524.272 47.9574C525.151 48.6228 525.851 49.6717 526.392 51.1041C526.922 52.5365 527.351 54.0028 527.655 55.5141C527.96 57.0255 528.174 58.9767 528.309 61.3904C528.445 63.804 528.535 65.9357 528.569 67.808C528.603 69.6803 528.625 72.0263 528.625 74.8572V77.2596C528.659 84.1735 528.682 92.3957 528.682 101.938C528.715 113.126 528.794 119.769 528.907 121.867C529.02 123.965 529.437 125.533 530.17 126.559C530.249 126.638 530.283 126.728 530.283 126.841C530.283 127.337 529.685 128.127 528.479 129.221C527.272 130.304 525.715 131.386 523.809 132.458C523.347 132.729 522.569 133.36 521.463 134.353C520.358 135.345 518.903 136.53 517.11 137.906C515.316 139.282 513.354 140.579 511.211 141.797C508.075 143.556 505.774 144.436 504.286 144.436C503.756 144.436 503.485 144.267 503.485 143.917C503.485 143.455 503.925 142.812 504.804 141.966C505.684 141.12 506.812 140.263 508.188 139.394C509.564 138.526 510.884 137.094 512.169 135.131C513.455 133.168 514.256 131.116 514.606 128.973L515.068 75.0264C515.068 63.1499 513.309 57.2172 509.801 57.2172C509.643 57.2172 509.44 57.2623 509.169 57.3639C508.899 57.4654 508.628 57.5443 508.335 57.6233C508.041 57.7022 507.782 57.7699 507.534 57.8263C507.286 57.8827 507.072 57.8714 506.902 57.8037C506.733 57.7248 506.643 57.5782 506.643 57.3413V57.3187Z" fill="black"/>
<path d="M614.073 64.5823C614.073 68.0561 613.306 71.5074 611.749 74.9474C610.204 78.3875 608.219 81.4215 605.794 84.0494C603.369 86.6774 600.719 89.0459 597.831 91.1212C594.944 93.2078 592.09 94.7868 589.271 95.8808C586.451 96.9636 583.958 97.5163 581.827 97.5163C579.233 97.5163 577.033 96.614 575.24 94.7981C573.447 92.9822 572.544 91.4821 572.544 90.2979C572.544 89.1925 574.247 87.3992 577.676 84.9179C581.094 82.4366 583.586 81.1959 585.154 81.1959C585.425 81.1959 585.628 81.2974 585.786 81.5117C585.944 81.726 586.056 81.9854 586.124 82.2899C586.192 82.5945 586.428 83.0456 586.812 83.6321C587.195 84.2186 587.692 84.8051 588.301 85.3803C590.015 86.9819 591.966 87.7827 594.143 87.7827C595.17 87.7827 595.824 87.591 596.094 87.2075C597.391 85.448 598.486 83.2825 599.388 80.7109C600.29 78.1393 600.73 75.6016 600.73 73.1203C600.73 68.9923 598.88 65.2251 595.17 61.8077C591.47 58.3902 587.308 56.6871 582.684 56.6871C580.203 56.6871 577.913 57.0029 575.815 57.6345C573.717 58.2661 571.834 59.2023 570.176 60.4429C568.518 61.6836 567.153 62.8453 566.082 63.9394C565.01 65.0221 563.792 66.4094 562.416 68.09C562.495 79.0078 562.754 85.8202 563.217 88.5384C562.833 89.373 561.999 90.2527 560.702 91.1776C559.405 92.1025 558.22 92.813 557.149 93.3206C556.077 93.8394 554.611 94.4823 552.739 95.2718C550.867 96.0613 549.851 96.4899 549.705 96.5576C546.536 98.0125 544.167 98.7344 542.599 98.7344C541.877 98.7344 541.516 98.5426 541.516 98.1592C541.516 97.7418 541.844 97.2569 542.486 96.7268C543.129 96.1967 543.862 95.6666 544.663 95.1477C545.464 94.6289 546.242 93.8168 547.009 92.7115C547.776 91.6062 548.227 90.3204 548.385 88.8767C548.419 88.4933 548.498 85.651 548.611 80.3387C548.724 75.0264 548.78 71.9924 548.78 71.2367C548.78 68.7216 548.543 66.4884 548.058 64.5597C547.584 62.631 546.975 61.1761 546.231 60.1835C545.487 59.191 544.753 58.4466 544.032 57.9503C543.31 57.4541 542.633 57.2059 542.024 57.2059C541.832 57.2059 541.449 57.2962 540.874 57.4879C540.298 57.6796 539.836 57.7699 539.475 57.7699C539.114 57.7699 538.934 57.5781 538.934 57.1947C538.934 56.4728 539.734 55.2885 541.336 53.6418C542.938 51.9951 544.911 50.4725 547.257 49.0627C549.603 47.6528 551.622 46.9423 553.303 46.9423C555.897 46.9423 557.995 48.3972 559.608 51.3297C561.209 54.2509 562.111 57.9278 562.303 62.3491C565.439 59.3376 568.608 56.7435 571.834 54.5893C575.06 52.435 578.037 50.8334 580.767 49.7732C583.496 48.7243 585.91 47.9799 588.008 47.54C590.105 47.1002 592.057 46.8859 593.85 46.8859C599.388 46.8859 604.136 48.6792 608.106 52.2658C612.076 55.8525 614.062 59.958 614.062 64.5823H614.073Z" fill="black"/>
<path d="M192.405 46.9535C192.101 46.9535 191.221 47.0663 189.766 47.2919C188.311 47.5175 186.269 47.7543 183.642 47.9799C181.002 48.2055 178.081 48.3183 174.878 48.3183C170.254 48.3183 163.204 47.9686 153.719 47.2581C146.771 46.7392 141.075 46.4121 136.609 46.2768C138.335 44.0323 140.263 41.3254 142.406 38.1223C144.64 34.7837 146.997 31.4565 149.478 28.1518C151.959 24.8471 154.587 22.129 157.362 19.986C160.137 17.843 162.674 16.952 164.964 17.3129C166.577 17.561 167.874 18.4408 168.855 19.9409C169.825 21.4409 170.186 23.02 169.927 24.6667C169.757 25.7156 169.351 26.6179 168.697 27.3623C168.652 27.43 167.637 27.915 165.674 28.8173C163.712 29.7196 162.674 30.4752 162.584 31.073C162.539 31.3775 162.866 31.5806 163.588 31.6934C164.716 31.8738 166.295 31.7723 168.336 31.4001C170.378 31.0279 172.521 30.3963 174.776 29.5278C177.032 28.6481 179.062 27.3285 180.878 25.5464C182.694 23.7644 183.777 21.7455 184.138 19.4559C184.623 16.3768 183.98 13.512 182.22 10.8502C180.461 8.18839 178.013 6.60936 174.855 6.12437C173.017 5.83113 171.077 5.98903 169.036 6.59808C166.994 7.20714 164.986 8.18839 163.013 9.54184C161.028 10.9066 159.076 12.4518 157.159 14.1661C155.23 15.8805 153.324 17.8543 151.418 20.0762C149.512 22.2981 147.775 24.4073 146.207 26.4149C144.64 28.4225 143.094 30.5542 141.538 32.8099C137.274 39.002 134.444 43.4684 133.022 46.2204C132.752 46.2204 132.47 46.2204 132.21 46.2204C126.063 46.2204 120.334 46.6377 115.033 47.4836C112.326 47.9461 109.461 49.3897 106.438 51.8372C103.427 54.2847 101.916 56.0329 101.916 57.1044C101.916 57.2962 102.164 57.3864 102.66 57.3864C103.043 57.3864 104.07 57.2849 105.75 57.0706C107.431 56.8563 109.664 56.642 112.45 56.4164C115.236 56.1908 118.157 56.0781 121.214 56.0781C124.958 56.0781 129.007 56.2698 133.349 56.6533C131.252 58.221 129.312 59.7437 127.541 61.2325C125.77 62.7213 123.774 64.5259 121.552 66.6463C119.341 68.7667 117.379 70.966 115.687 73.2331C113.984 75.5001 112.382 77.9363 110.871 80.5304C109.36 83.1246 108.209 85.9217 107.408 88.9218C106.607 91.922 106.201 94.9673 106.201 98.0576C106.201 101.374 106.867 104.464 108.209 107.306C109.54 110.148 111.322 112.551 113.533 114.491C115.743 116.442 118.292 118.1 121.18 119.476C124.056 120.852 127.045 121.867 130.146 122.51C133.237 123.164 136.327 123.48 139.429 123.48C143.591 123.48 148.023 122.826 152.738 121.506C157.452 120.187 161.896 118.405 166.08 116.149C170.265 113.893 174.077 111.4 177.54 108.648C180.991 105.896 183.732 102.964 185.762 99.8623C187.781 96.7493 188.796 93.8168 188.796 91.0761C188.796 87.9857 187.758 85.4141 185.672 83.3727C183.585 81.3312 181.555 80.3049 179.57 80.3049C178.047 80.3049 175.566 81.5455 172.126 84.0269C168.686 86.5082 166.971 88.3466 166.971 89.5196C166.971 89.7452 167.253 89.9369 167.829 90.0948C170.231 90.6701 172.103 91.8543 173.445 93.6477C174.776 95.441 175.453 97.505 175.453 99.8284C175.453 102.919 174.325 105.648 172.069 108.017C171.043 109.088 168.381 110.295 164.084 111.649C159.787 113.002 155.524 113.679 151.283 113.679C147.346 113.679 143.512 113.137 139.767 112.043C136.023 110.949 132.65 109.415 129.627 107.43C126.616 105.445 124.191 102.885 122.353 99.7607C120.514 96.6365 119.601 93.1739 119.601 89.3955C119.601 87.6812 119.725 85.9668 119.973 84.2637C120.221 82.5719 120.762 80.5192 121.608 78.1393C122.443 75.7482 123.548 73.4474 124.902 71.2367C126.255 69.0261 128.173 66.6575 130.631 64.1311C133.09 61.6159 135.944 59.2474 139.192 57.0255C140.455 57.1044 142.271 57.2398 144.662 57.4315C147.042 57.6232 148.948 57.7699 150.358 57.8601C151.768 57.9503 153.629 58.0406 155.941 58.1195C158.253 58.1985 160.588 58.2323 162.956 58.2323C167.389 58.2323 171.472 58.0406 175.216 57.6571C178.961 57.2736 181.499 56.7999 182.829 56.2247C185.006 55.3111 187.273 53.8336 189.619 51.8147C191.965 49.7958 193.138 48.3183 193.138 47.4047C193.138 47.1002 192.89 46.9422 192.394 46.9422L192.405 46.9535Z" fill="black"/>
<path d="M305.542 59.2587C304.719 57.1157 303.568 55.1307 302.08 53.2697C300.591 51.4199 298.628 49.8973 296.215 48.713C293.79 47.5288 291.151 46.9423 288.286 46.9423C280.842 46.9423 272.597 50.8334 263.551 58.6271C259.773 50.8786 253.908 46.9987 245.968 46.9987C245.72 46.9987 245.472 47.0212 245.223 47.0212C246.983 44.8106 248.945 42.1375 251.133 38.9795C253.423 35.6748 255.837 32.3927 258.363 29.1218C260.89 25.8622 263.563 23.1779 266.382 21.08C269.191 18.9822 271.74 18.1363 274.029 18.531C275.642 18.813 276.917 19.704 277.875 21.2267C278.823 22.738 279.161 24.3171 278.879 25.975C278.699 27.024 278.27 27.915 277.605 28.6481C277.56 28.7158 276.533 29.1895 274.559 30.0579C272.574 30.9264 271.537 31.6595 271.435 32.2686C271.379 32.5731 271.717 32.7761 272.428 32.9002C273.556 33.0919 275.135 33.0243 277.176 32.6859C279.218 32.3475 281.372 31.7498 283.639 30.9151C285.906 30.0692 287.959 28.7834 289.808 27.0352C291.658 25.287 292.775 23.2794 293.169 20.9898C293.7 17.922 293.113 15.0459 291.399 12.3503C289.684 9.65465 287.259 8.04178 284.113 7.5004C282.274 7.1846 280.334 7.30866 278.293 7.88388C276.251 8.4591 274.221 9.40652 272.213 10.7374C270.206 12.0683 268.232 13.5797 266.281 15.2602C264.33 16.952 262.378 18.892 260.45 21.08C258.51 23.2681 256.739 25.3547 255.137 27.3285C253.536 29.3135 251.957 31.4114 250.367 33.6446C245.708 40.1863 242.708 44.788 241.355 47.4498C238.332 48.0138 235.197 49.1191 231.971 50.7771C227.065 53.2922 222.361 56.8112 217.85 61.3114C216.823 51.7245 214.049 46.9423 209.549 46.9423C208.218 46.9423 206.65 47.3821 204.857 48.2619C203.063 49.1416 201.439 50.1567 199.984 51.3297C198.529 52.5027 197.3 53.6531 196.285 54.8261C195.27 55.9878 194.773 56.845 194.773 57.3751C194.773 57.7135 194.943 57.894 195.292 57.894C195.518 57.894 195.992 57.7812 196.691 57.5556C197.39 57.33 197.886 57.2172 198.146 57.2172C198.868 57.2172 199.589 57.4992 200.289 58.0744C200.988 58.6496 201.687 59.5745 202.375 60.849C203.063 62.1235 203.616 64.0296 204.033 66.5448C204.451 69.0599 204.665 72.0375 204.665 75.4776C204.665 77.0792 204.665 79.3236 204.631 82.211C204.609 85.0984 204.597 88.2 204.575 91.516C204.552 94.8319 204.53 98.3171 204.518 101.938C204.496 105.569 204.473 109.043 204.428 112.393C204.394 115.732 204.36 118.743 204.338 121.416C204.315 124.089 204.293 126.243 204.248 127.89V130.292C203.943 133.462 202.646 136.349 200.356 138.943L199.093 139.97C198.213 140.658 197.379 141.402 196.578 142.203C195.777 143.004 195.371 143.601 195.371 143.974C195.371 144.278 195.653 144.436 196.228 144.436C197.447 144.436 199.082 143.906 201.123 142.857C203.165 141.808 205.026 140.669 206.706 139.451C208.387 138.233 209.989 137.037 211.522 135.875C213.045 134.714 213.868 134.093 213.981 134.014C215.583 133.101 216.97 132.12 218.132 131.071C219.293 130.022 219.88 129.243 219.88 128.747C219.88 128.634 219.812 128.465 219.677 128.228C219.542 128.003 219.384 127.732 219.215 127.428C219.045 127.123 218.876 126.582 218.73 125.792C218.572 125.003 218.481 124.078 218.448 123.018C218.448 122.679 218.425 118.63 218.391 110.904C218.357 103.167 218.312 94.753 218.278 85.651C218.245 76.549 218.199 70.6051 218.166 67.808C219.88 65.2477 221.414 63.2401 222.745 61.7964C224.076 60.3415 225.813 59.1346 227.956 58.1647C230.099 57.1947 232.535 56.7097 235.287 56.7097C239.223 56.7097 242.877 58.4128 246.25 61.8077C249.622 65.2026 251.314 69.0036 251.314 73.1993C251.314 75.7144 250.93 78.2183 250.163 80.6996C249.397 83.181 248.506 85.2675 247.468 86.9368C247.197 87.3541 247.028 87.6022 246.949 87.6812C246.87 87.7601 246.735 87.794 246.543 87.794C244.896 87.794 243.408 87.2526 242.077 86.1586C240.746 85.0645 239.866 83.8803 239.437 82.5832C239.358 82.2787 239.279 82.0869 239.178 82.008C239.088 81.929 238.907 81.8952 238.637 81.8952C237.565 81.8952 235.997 82.493 233.945 83.6998C231.881 84.9066 230.042 86.2488 228.418 87.7376C226.794 89.2264 225.982 90.3317 225.982 91.0535C225.982 92.0799 226.771 93.4108 228.362 95.035C229.941 96.6591 231.993 97.4712 234.52 97.4712C236.279 97.4712 238.4 97.0087 240.881 96.0726C243.362 95.1365 245.99 93.6928 248.754 91.7528C251.517 89.8016 254.089 87.5458 256.457 84.963C258.826 82.3914 260.777 79.2672 262.322 75.6016C263.867 71.936 264.645 68.1012 264.645 64.086V62.9356L265.277 62.2476C265.694 61.7513 265.976 61.4468 266.112 61.334C266.247 61.2212 266.54 60.9279 267.003 60.4768C267.465 60.0144 267.837 59.6986 268.153 59.5068C268.469 59.3151 268.886 59.0331 269.439 58.6496C269.992 58.2662 270.533 57.9955 271.041 57.815C271.559 57.6458 272.135 57.4541 272.789 57.2398C273.443 57.0368 274.142 56.8789 274.909 56.7774C275.676 56.6871 276.454 56.6307 277.255 56.6307C279.082 56.6307 280.955 57.0932 282.872 58.0067C284.789 58.9203 286.515 60.161 288.083 61.7287C289.65 63.2965 290.925 65.2364 291.917 67.5373C292.91 69.8495 293.406 72.2857 293.406 74.8347C293.406 78.8386 292.222 82.8088 289.853 86.7451C289.775 86.8578 289.696 87.0158 289.594 87.2075C289.504 87.3992 289.436 87.5007 289.391 87.5233C289.357 87.5459 289.301 87.591 289.222 87.6699C289.143 87.7489 289.053 87.7827 288.94 87.7827H288.477C286.65 87.7827 284.947 87.0045 283.379 85.4367C282.849 84.9066 282.432 84.3765 282.15 83.8577C281.868 83.3389 281.688 82.9554 281.631 82.7073C281.575 82.4591 281.485 82.2561 281.372 82.1095C281.259 81.9516 281.045 81.8839 280.74 81.8839C279.669 81.8839 278.101 82.4817 276.048 83.6885C273.984 84.8953 272.146 86.2375 270.522 87.7263C268.898 89.2151 268.085 90.3204 268.085 91.0423C268.085 92.0348 268.875 93.3657 270.465 95.0237C272.044 96.6817 274.086 97.5163 276.567 97.5163C278.169 97.5163 280.018 97.1441 282.128 96.3997C284.225 95.6553 286.391 94.6289 288.624 93.3093C290.857 91.9897 293.057 90.3543 295.211 88.3805C297.365 86.418 299.305 84.2863 301.019 81.9967C302.734 79.7071 304.121 77.1243 305.17 74.2707C306.219 71.4059 306.749 68.5073 306.749 65.5635C306.749 63.4995 306.343 61.4017 305.52 59.2587H305.542Z" fill="black"/>
<path d="M493.187 52.2771C489.217 48.6905 484.469 46.8971 478.931 46.8971C477.137 46.8971 475.186 47.1227 473.088 47.5513C470.99 47.9912 468.577 48.7356 465.847 49.7845C463.118 50.8334 460.14 52.435 456.915 54.6005C453.689 56.7548 450.508 59.3489 447.384 62.3603C447.373 57.4541 447.35 52.9087 447.328 48.7017C447.666 48.3183 448.027 47.9009 448.41 47.416C450.204 45.1264 452.223 42.318 454.467 38.9794C456.712 35.6522 459.091 32.3362 461.584 29.0428C464.077 25.7494 466.716 23.0425 469.502 20.9108C472.288 18.7792 474.825 17.8994 477.115 18.2716C478.728 18.531 480.013 19.4108 480.995 20.9108C481.965 22.4109 482.314 23.9899 482.055 25.6366C481.886 26.6856 481.468 27.5879 480.814 28.321C480.769 28.3887 479.754 28.8737 477.78 29.7647C475.806 30.6557 474.78 31.4114 474.679 32.0092C474.633 32.3137 474.961 32.5167 475.671 32.6295C476.799 32.8099 478.378 32.7197 480.42 32.3588C482.461 31.9979 484.604 31.3775 486.86 30.5091C489.115 29.6406 491.157 28.321 492.984 26.5615C494.811 24.7907 495.905 22.7718 496.277 20.4823C496.774 17.4031 496.142 14.5383 494.405 11.8653C492.657 9.20348 490.209 7.61317 487.063 7.10563C485.224 6.81238 483.284 6.959 481.243 7.55678C479.201 8.15455 477.194 9.12453 475.197 10.478C473.212 11.8314 471.25 13.3653 469.321 15.0684C467.393 16.7828 465.464 18.7453 463.558 20.956C461.64 23.1666 459.892 25.2757 458.324 27.2721C456.757 29.2684 455.189 31.4001 453.632 33.6446C450.971 37.4794 448.862 40.6487 447.305 43.1526C447.181 25.0614 446.967 14.6398 446.64 11.9104C446.369 9.46289 445.985 7.42143 445.489 5.78601C444.993 4.15059 444.429 2.9212 443.797 2.12041C443.166 1.31962 442.534 0.766957 441.914 0.46243C441.282 0.157903 440.583 0 439.827 0C438.113 0 436.06 0.721842 433.669 2.1768C431.278 3.63176 429.282 5.18823 427.657 6.84621C426.033 8.50419 425.221 9.69974 425.221 10.4216C425.221 10.6472 425.3 10.8051 425.447 10.884C425.605 10.963 425.808 10.9742 426.078 10.9179C426.349 10.8615 426.608 10.7938 426.879 10.7148C427.15 10.6359 427.432 10.5569 427.736 10.4554C428.041 10.3652 428.266 10.3088 428.424 10.3088C431.932 10.3088 433.692 16.7039 433.692 29.494C433.692 30.9038 433.669 32.5731 433.601 34.5018C433.545 36.4304 433.511 37.547 433.511 37.8516C433.477 40.6713 433.353 53.2809 433.173 75.6467C433.094 84.5457 432.846 89.7903 432.428 91.3919C432.203 92.1927 431.605 93.1852 430.658 94.3695C430.466 94.5951 429.981 94.9785 429.203 95.5199C428.413 96.05 427.736 96.5914 427.139 97.1215C426.541 97.6516 426.248 98.114 426.248 98.4975C426.248 98.802 426.552 98.9599 427.161 98.9599C429.338 98.9599 433.353 97.5952 439.218 94.8658C445.083 92.1363 448.004 90.1625 448.004 88.9331V88.8767C447.666 87.5797 447.452 80.6883 447.373 68.2027C448.749 66.4884 449.967 65.0785 451.038 63.9958C452.11 62.913 453.486 61.74 455.166 60.4768C456.847 59.2136 458.742 58.2661 460.84 57.6458C462.937 57.0142 465.25 56.6984 467.765 56.6984C472.389 56.6984 476.551 58.4128 480.25 61.819C483.95 65.2364 485.811 69.0035 485.811 73.1316C485.811 75.6129 485.348 78.1393 484.435 80.7222C483.521 83.305 482.416 85.4705 481.119 87.2187C480.848 87.6022 480.205 87.794 479.168 87.794C477.025 87.794 475.096 86.9932 473.382 85.3916C472.773 84.8164 472.276 84.2411 471.893 83.6434C471.509 83.0569 471.284 82.6057 471.205 82.3012C471.126 81.9967 471.013 81.7373 470.866 81.523C470.708 81.3199 470.505 81.2072 470.235 81.2072C468.667 81.2072 466.174 82.4478 462.757 84.9292C459.339 87.4105 457.625 89.2038 457.625 90.3091C457.625 91.4934 458.527 92.9935 460.321 94.8094C462.114 96.6252 464.313 97.5275 466.908 97.5275C469.051 97.5275 471.532 96.9862 474.352 95.8921C477.171 94.7981 480.025 93.219 482.912 91.1325C485.788 89.0572 488.45 86.6999 490.875 84.0607C493.3 81.4215 495.285 78.3875 496.83 74.9587C498.375 71.5187 499.154 68.0674 499.154 64.5935C499.154 59.9692 497.169 55.875 493.198 52.2771H493.187Z" fill="black"/>
<path d="M516.591 17.9445C517.11 17.5046 517.595 17.2903 518.046 17.2903C518.497 17.2903 518.982 17.5046 519.501 17.9445C520.008 18.3844 520.933 19.3092 522.264 20.7078C523.595 22.1064 524.903 23.426 526.2 24.6441C527.193 25.5915 527.678 26.3698 527.678 26.9788C527.678 27.5089 527.43 28.0616 526.934 28.6368C526.437 29.212 525.49 30.1369 524.08 31.4339C522.67 32.731 521.418 33.9604 520.313 35.1334C519.366 36.1259 518.587 36.6109 517.978 36.6109C517.482 36.6109 516.963 36.3627 516.411 35.8665C515.858 35.3702 514.944 34.4341 513.67 33.0468C512.395 31.6595 511.132 30.3963 509.88 29.2571C508.854 28.3097 508.346 27.5427 508.346 26.9788C508.346 26.4149 508.854 25.6254 509.88 24.6441C511.177 23.426 512.486 22.1177 513.816 20.7078C515.147 19.298 516.072 18.3844 516.58 17.9445H516.591Z" fill="black"/>
</svg>
