<svg width="255" height="255" viewBox="0 0 255 255" fill="none" xmlns="http://www.w3.org/2000/svg">
<path d="M184.441 236.462C179 236.264 172.258 235.681 167.571 235.001C163.686 234.437 163.403 234.392 163.308 234.306C163.257 234.262 163.326 233.923 163.465 233.557C164.166 231.704 165.733 224.485 168.061 212.361C168.411 210.531 168.588 210.022 171.46 202.567C174.05 195.844 174.575 194.361 175.084 192.34L175.679 189.977L175.592 188.112C175.488 185.933 175.236 184.3 174.892 183.625C174.534 182.92 173.548 181.874 172.997 181.61C172.123 181.194 171.679 181.155 170.821 181.419C167.99 182.294 165.75 183.85 164.063 186.117C163.283 187.166 162.055 189.56 161.822 190.491C161.751 190.773 160.409 200.384 158.839 211.846C157.269 223.308 155.963 232.712 155.934 232.746C155.852 232.851 148.67 231.002 144.609 229.84C142.528 229.244 139.208 228.211 137.232 227.541C132.33 225.881 132.421 225.917 132.423 225.612C132.425 225.476 132.971 221.225 133.639 216.179L134.852 207.004L137.156 200.034C141.992 185.401 145.219 174.524 145.883 170.617C146.23 168.572 146.548 165.422 146.575 163.756L146.598 162.362L146.18 161.986C145.95 161.779 145.642 161.609 145.496 161.609C145.042 161.609 142.41 163.738 139.208 166.7C133.877 171.625 128.322 178.483 123.576 185.988C122.816 187.191 122.102 188.354 121.99 188.572C121.878 188.792 121.243 190.557 120.579 192.495L119.37 196.02L119.231 212.358L118.902 213.654C118.292 216.058 117.5 218.112 116.668 219.451L116.337 219.984L113.892 219.149C103.264 215.517 92.7512 211.016 83.1595 205.988C78.7453 203.675 78.6723 203.634 78.6705 203.468C78.6669 203.041 80.8936 199.845 85.3327 193.901C88.6897 189.405 86.6659 191.713 109.524 166.325C118.39 156.478 121.408 153.043 122.069 152.047C124.295 148.697 125.828 145.811 126.593 143.523C126.974 142.384 126.946 141.909 126.424 140.728L126.095 139.98L125.57 140.055C124.61 140.207 123.393 140.637 121.964 141.342C120.276 142.173 117.281 144.39 110.677 149.687C106.971 152.661 100.086 158.786 96.7118 162.111C90.7545 167.981 79.0157 180.492 68.6138 192.056C67.0706 193.771 65.7571 195.176 65.693 195.176C65.4509 195.176 60.9354 191.951 57.692 189.461C52.5034 185.477 49.3853 182.8 46.0744 179.486C41.4358 174.844 37.4597 170.011 33.1541 163.789C31.8121 161.849 29.1297 157.715 29.1813 157.669C29.1973 157.654 36.3115 153.735 44.9905 148.961C61.4194 139.923 62.8342 139.13 64.1051 138.275C68.1153 135.575 80.42 126.217 84.8769 122.48C87.6571 120.147 90.8255 116.815 92.2759 114.696L92.7049 114.072L92.1798 114.522C91.8915 114.77 90.8822 115.673 89.9389 116.531C83.5149 122.371 76.947 127.099 69.5585 131.202C62.1362 135.325 56.743 137.775 52.2078 139.089C49.7568 139.799 43.9525 141.052 40.3091 141.659C33.5808 142.78 25.1957 143.38 22.6057 142.926L21.6427 142.758L20.9076 140.661C20.2206 138.702 20.1067 138.477 19.1757 137.231C16.9971 134.315 15.5643 131.711 15.1763 129.96C14.4127 126.526 14.078 122.739 14.1866 118.768C14.2578 116.187 14.5052 113.196 14.6601 113.067C14.6921 113.036 16.7657 112.915 19.2718 112.795C25.6493 112.483 26.5784 112.396 28.8193 111.892C32.639 111.034 39.4258 108.965 41.7825 107.941C44.8173 106.622 59.9966 98.287 64.4248 95.5081C66.0125 94.5122 67.1178 93.7269 68.7927 92.4097C70.238 91.271 72.2565 89.4559 72.2565 89.2935C72.2565 89.0722 71.4769 89.1882 70.4285 89.5487C69.8465 89.7522 61.7212 93.3111 52.371 97.4555C36.7432 104.384 35.2322 105.028 33.641 105.433C29.4831 106.495 25.528 106.786 23.1964 106.201C20.9803 105.644 19.0402 103.852 17.9312 101.336L17.593 100.567L17.933 99.5992C19.0668 96.3777 22.2778 91.3215 26.6083 85.9369C28.1996 83.9576 33.0158 79.7778 37.5533 76.4365C38.2582 75.9171 39.125 75.2496 39.4774 74.9533C40.3496 74.2197 42.037 73.1346 44.4168 71.7728C47.3128 70.1166 55.7532 65.9135 57.6985 65.1569C66.0412 61.9139 75.3162 60.2557 83.139 60.6075L85.6202 60.7128L87.3093 59.9079C88.2385 59.4652 89.4453 58.9423 89.9917 58.7477C90.5381 58.5532 90.9867 58.3587 90.9867 58.3194C90.9867 57.9803 88.3008 53.9681 86.4514 51.5426C83.6996 47.9338 81.3535 45.2976 77.0675 40.9945C66.6743 30.5625 58.7093 24.498 52.8158 22.531C51.3349 22.0367 50.5766 21.0997 50.5766 19.7664C50.5766 18.2476 51.7834 17 53.2537 17C53.8642 17 55.8595 17.6818 57.5362 18.4617C62.1816 20.6231 68.3299 25.1544 75.2072 31.4853C78.1387 34.1839 83.3613 39.3811 85.5343 41.7638C89.1743 45.7528 92.6663 50.3234 95.1105 54.293C95.8474 55.4906 95.8563 55.4995 95.9916 55.1426C96.3155 54.2859 98.0919 50.8805 98.884 49.5971C101.419 45.4868 102.668 43.9306 106.703 39.8683C111.812 34.7245 115.211 31.7153 118.185 29.7059C120.49 28.1477 130.453 23.5075 133.705 22.4776C137.72 21.2051 146.28 20.4394 153.004 20.7482L155.815 20.8838L156.404 21.537C157.241 22.4651 157.947 23.42 158.239 24.0197L158.49 24.5373L154.419 32.062C144.525 50.3523 141.714 55.4747 141.043 56.4369C139.746 58.3002 136.914 62.0395 134.038 65.6855C126.501 75.2357 125.935 75.9837 125.33 77.1991C125.001 77.8594 124.857 78.3181 124.857 78.7108C124.857 79.2087 124.905 79.3051 125.273 79.53C125.902 79.9137 126.729 79.8673 127.623 79.3944C128.684 78.8357 130.038 77.9112 131.078 77.0385C131.573 76.6226 136.948 71.3751 143.027 65.3751C149.103 59.3746 154.27 54.3646 154.509 54.2417C154.747 54.1204 155.489 53.6117 156.161 53.1155C158.775 51.179 160.845 49.2086 162.339 47.2384C167.056 41.0149 169.884 34.7466 171.413 27.1365L171.794 25.2375L172.476 24.6128C172.851 24.2701 173.353 23.8257 173.59 23.624L174.022 23.2599L175.193 23.5598C185.04 26.0942 193.31 29.2889 197.795 32.2944C200.041 33.799 199.91 33.4777 199.2 35.7444C198.1 39.2479 196.567 43.3546 195.239 46.355C195.063 46.7548 194.951 47.1136 194.99 47.1528C195.184 47.3474 192.325 52.6965 189.412 57.5922C186.697 62.1505 182.99 67.3818 179.697 71.292C179.192 71.8934 178.186 73.1964 177.463 74.1869C174.868 77.7457 167.907 84.7866 164.754 87.0409C163.298 88.0814 163.815 87.887 166.931 86.2199C173.063 82.9395 175.217 81.2511 180.991 75.1953C186.293 69.6339 188.061 67.4599 193.68 59.5856C197.37 54.4135 201.446 47.9597 206.127 39.8712C206.403 39.3928 206.688 39.002 206.759 39.002C206.944 39.002 211.515 43.6638 213.131 45.4987C216.431 49.2485 219.449 53.4465 222.367 58.3386C223.695 60.5678 225.279 63.6949 225.678 64.8765L225.948 65.6778L225.418 66.6523C223.645 69.9113 219.944 74.9428 216.148 79.2619C211.796 84.2111 209.482 86.3531 195.545 98.3235C193.11 100.415 187.482 105.295 183.038 109.169C174.122 116.939 174.421 116.635 172.116 120.273C170.359 123.043 169.802 124.094 169.706 124.822C169.629 125.404 169.654 125.524 169.91 125.797C171.071 127.035 174.035 127.713 176.879 127.39C179.203 127.128 184.806 125.897 187.847 124.983C189.831 124.387 194.883 122.265 203.875 118.249C214.717 113.407 222.123 109.787 231.843 104.574C233.575 103.644 235.319 102.71 235.722 102.496C236.122 102.282 236.478 102.138 236.514 102.171C236.547 102.202 236.895 103.826 237.284 105.771C241.791 128.306 242.005 146.095 237.93 159.252C237.407 160.94 237.729 160.803 234.979 160.508C232.564 160.248 228.493 159.928 227.584 159.928C227.109 159.928 226.819 159.989 226.779 160.089C226.731 160.21 225.443 160.251 220.979 160.262C213.341 160.276 208.612 160.592 205.426 161.301C203.665 161.69 200.314 162.782 198.648 163.507C195.989 164.663 193.31 166.441 191.514 168.242L190.544 169.213V170.271C190.544 171.535 190.738 172.679 191.056 173.305C191.201 173.589 191.674 174.039 192.311 174.501C194.415 176.02 197.245 177.241 198.991 177.38C199.851 177.455 201.7 177.196 202.859 176.851C203.568 176.639 207.56 174.997 208.439 174.554C209.989 173.775 215.536 171.504 218.96 170.248C221.618 169.273 222.232 169.148 226.657 168.672C230.204 168.292 235.427 167.842 235.496 167.913C235.565 167.988 231.277 183.68 231.107 183.976C231.041 184.098 230.226 184.322 228.956 184.585C222.526 185.92 218.416 187.324 217.168 188.608C216.673 189.116 216.661 189.154 216.655 190.062C216.646 191.651 216.431 191.479 222.23 194.497C225.017 195.949 227.313 197.148 227.333 197.166C227.361 197.196 220.206 220.418 219.457 222.738C219.209 223.502 216.087 228.219 214.61 230.059C213.796 231.073 213.275 231.589 212.615 232.028C211.447 232.806 209.395 233.768 207.841 234.264C206.322 234.749 204.411 235.237 204.332 235.158C204.3 235.128 204.332 234.901 204.402 234.66C204.471 234.418 204.729 233.227 204.975 232.013C206.792 223.025 206.897 216.545 205.301 211.751C203.389 206.007 200.358 202.693 196.768 202.418C195.728 202.343 195.215 202.509 194.473 203.157C193.466 204.044 193.322 204.397 192.745 207.397C191.892 211.836 191.702 213.362 191.615 216.466C191.499 220.651 191.892 223.984 193.047 228.558C193.487 230.3 194.922 234.892 195.489 236.375C195.57 236.582 195.311 236.597 191.488 236.577C189.24 236.566 186.074 236.516 184.451 236.456L184.441 236.462ZM60.9296 165.268C61.6184 165.011 62.8163 164.498 63.5924 164.129C65.3029 163.315 73.7308 158.243 76.4862 156.371C77.5791 155.626 84.6526 150.79 92.2011 145.621C104.974 136.877 106.013 136.139 107.147 134.993C108.37 133.758 110.072 131.612 110.506 130.757C110.67 130.434 110.739 130.013 110.739 129.322C110.739 128.423 110.711 128.318 110.387 128.007C110.193 127.821 109.716 127.522 109.328 127.341C108.728 127.061 108.44 127.013 107.404 127.011C104.693 127.009 102.395 127.666 98.2425 129.635C94.6096 131.355 92.3881 132.862 86.511 137.591C85.2864 138.576 83.6987 139.779 82.9832 140.265C81.3777 141.354 69.4805 150.403 67.6347 151.939C64.0695 154.906 60.1144 159.416 58.6549 162.177C57.6475 164.083 57.546 164.889 58.2224 165.569C58.5019 165.85 58.6211 165.882 59.1106 165.814C59.4221 165.769 60.2391 165.527 60.9279 165.27L60.9296 165.268ZM171.036 146.942C171.283 146.881 173.159 146.513 175.204 146.122L178.924 145.41L183.928 145.214C200.443 144.563 199.824 144.6 202.578 144.104C206.953 143.315 209.233 142.63 211.897 141.3C213.991 140.256 215.105 139.531 216.654 138.2C218.761 136.388 220.21 134.161 220.197 132.749C220.19 131.948 219.954 131.319 219.48 130.852C219.213 130.588 218.887 130.468 217.967 130.298C214.726 129.702 210.767 129.433 207.79 129.601C204.712 129.774 198.313 130.886 195.59 131.719C193.47 132.369 190.24 133.686 188.494 134.614C185.172 136.379 180.614 139.251 176.615 142.101C174.888 143.331 170.02 146.924 169.76 147.159C169.696 147.22 170.378 147.099 171.033 146.943L171.036 146.942Z" fill="black"/>
</svg>
